<?xml version="1.0" encoding="UTF-8" standalone="no"?><!DOCTYPE svg PUBLIC "-//W3C//DTD SVG 1.1//EN" "http://www.w3.org/Graphics/SVG/1.1/DTD/svg11.dtd"><svg width="100%" height="100%" viewBox="0 0 120 72" version="1.1" xmlns="http://www.w3.org/2000/svg" xmlns:xlink="http://www.w3.org/1999/xlink" xml:space="preserve" xmlns:serif="http://www.serif.com/" style="fill-rule:evenodd;clip-rule:evenodd;"><path d="M114,13.728l0,44.544c0,3.311 -2.689,6 -6,6l-96,0c-3.311,0 -6,-2.689 -6,-6l0,-44.544c0,-3.311 2.689,-6 6,-6l96,0c3.311,0 6,2.689 6,6Z" style="fill:#fff;stroke:#111;stroke-width:3.13px;"/><path d="M34.339,20.993l0,30.014c0,2.208 -1.792,4 -4,4l-12.33,0c-2.208,0 -4,-1.792 -4,-4l0,-30.014c0,-2.208 1.792,-4 4,-4l12.33,0c2.208,0 4,1.792 4,4Z" style="fill:#fff;stroke:#111;stroke-width:3.3px;"/><path d="M43.093,7.728l0.365,56.544" style="fill:none;stroke:#000;stroke-width:3px;stroke-linecap:round;stroke-linejoin:round;stroke-miterlimit:1.5;"/><path d="M100.465,52.184l5.909,5.865" style="fill:none;stroke:#000;stroke-width:3px;stroke-linecap:round;stroke-linejoin:round;stroke-miterlimit:1.5;"/><path d="M106.374,50.789l-5.909,7.26" style="fill:none;stroke:#000;stroke-width:3px;stroke-linecap:round;stroke-linejoin:round;stroke-miterlimit:1.5;"/><path d="M77.255,15.436l-6.18,5.22" style="fill:none;stroke:#000;stroke-width:3px;stroke-linecap:round;stroke-linejoin:round;stroke-miterlimit:1.5;"/><path d="M79.434,23.002l-7.323,-7.566" style="fill:none;stroke:#000;stroke-width:3px;stroke-linecap:round;stroke-linejoin:round;stroke-miterlimit:1.5;"/><path d="M66.253,50.789l-4.142,-4.974" style="fill:none;stroke:#000;stroke-width:3px;stroke-linecap:round;stroke-linejoin:round;stroke-miterlimit:1.5;"/><path d="M60.709,52.184l6.551,-6.369" style="fill:none;stroke:#000;stroke-width:3px;stroke-linecap:round;stroke-linejoin:round;stroke-miterlimit:1.5;"/><path d="M104.573,16.794l-7.19,9.568" style="fill:none;stroke:#000;stroke-width:3px;stroke-linecap:round;stroke-linejoin:round;stroke-miterlimit:1.5;"/><path d="M97.383,16.794l7.19,9.568" style="fill:none;stroke:#000;stroke-width:3px;stroke-linecap:round;stroke-linejoin:round;stroke-miterlimit:1.5;"/><path d="M82.554,37.084l8.432,3.933" style="fill:none;stroke:#000;stroke-width:3px;stroke-linecap:round;stroke-linejoin:round;stroke-miterlimit:1.5;"/><path d="M84.783,43.801l3.566,-9.205" style="fill:none;stroke:#000;stroke-width:3px;stroke-linecap:round;stroke-linejoin:round;stroke-miterlimit:1.5;"/><path d="M55.961,24.697l-4.008,5.625" style="fill:none;stroke:#000;stroke-width:3px;stroke-linecap:round;stroke-linejoin:round;stroke-miterlimit:1.5;"/><path d="M50.287,24.697l6.729,5.625" style="fill:none;stroke:#000;stroke-width:3px;stroke-linecap:round;stroke-linejoin:round;stroke-miterlimit:1.5;"/></svg>