<?xml version="1.0" encoding="UTF-8" standalone="no"?><!DOCTYPE svg PUBLIC "-//W3C//DTD SVG 1.1//EN" "http://www.w3.org/Graphics/SVG/1.1/DTD/svg11.dtd"><svg width="100%" height="100%" viewBox="0 0 120 72" version="1.1" xmlns="http://www.w3.org/2000/svg" xmlns:xlink="http://www.w3.org/1999/xlink" xml:space="preserve" xmlns:serif="http://www.serif.com/" style="fill-rule:evenodd;clip-rule:evenodd;stroke-linejoin:round;stroke-miterlimit:2;"><g><path d="M97.717,7.154c1.006,-0.363 7.101,-0.098 8.323,0.41c5.01,3.54 4.523,1.48 4.81,2.097c1.078,2.312 3.118,6.277 2.566,10.422c-2.426,18.219 -0.616,17.884 -3.487,29.718c-0.794,4.588 -2.964,7.987 -4.168,9.061c-2.856,2.549 -6.582,3.637 -6.585,3.637c-7.186,-0.148 -12.986,-1.879 -15.867,2.564c-2.805,-2.917 -2.236,-3.38 -7.275,-4.23c-6.773,-1.142 -6.652,-1.177 -11.177,-4.638c-5.056,-12.271 -0.231,-14.768 -7.899,-27.951c-7.753,-14.084 -6.694,-14.253 -6.515,-16.967l0.081,-1.123l1.219,-0.983c0.686,1.347 0.085,1.345 1.32,2.592c1.966,1.986 1.939,-0.336 5.055,-1.557c2.816,-0.86 2.928,-0.73 3.709,-2.536c27.841,-0.755 27.035,-0.37 35.89,-0.517Z" style="fill:#43352f;fill-opacity:1;"/><path d="M40.052,7.962c0.946,1.538 1.409,1.427 0.954,3.096c-1.122,1.301 -1.455,16.16 4.206,30.155c-5.674,2.443 -2.629,4.095 -2.842,5.608l-0.842,1.435c-11.429,2.632 -19.915,0.19 -20.079,2.553c-0.303,4.368 6.169,4.523 21.89,5.313c3.326,0.678 3.327,0.625 3.855,0.864c0.707,1.307 1.415,2.614 2.122,3.921c0.122,0.661 0.244,1.321 0.366,1.982l-1.233,-0.42c-2.121,-0.471 -1.869,-0.707 -3.837,-0.297c-4.887,-0.142 -4.672,-0.385 -9.465,-0.516c-2.748,0.031 -5.496,0.061 -8.243,0.092c-7.86,-1.912 -7.649,-1.867 -16.243,-2.373l-0.493,-0.74c10.16,-3.916 4.717,-6.405 4.742,-10.09c-0.321,-0.651 -0.642,-1.301 -0.963,-1.952c-0.142,-4.943 0.942,-4.828 -0.412,-9.621c-0.931,-3.293 0.678,-3.05 3.548,-6.428c-0.494,9.121 -3.585,17.531 6.632,16.689c11.585,-0.955 14.157,0.634 14.62,-2.789c1.527,-11.293 0.005,-11.134 -1.399,-22.514c-0.163,-1.322 -8.961,-0.227 -14.768,-1.844c-4.225,1.671 -3.315,3.55 -4.492,7.324c-2.721,-2.921 -2.511,-3.978 -2.438,-4.345c0.794,-4.003 3.48,-4.921 -1.359,-6.49c7.305,-1.337 6.591,-3.215 1.671,-6.94c0.899,-0.243 1.799,-0.486 2.698,-0.729c5.915,0.492 9.3,-0.74 21.801,-0.941Z" style="fill:#4c3a29;fill-opacity:1;"/><path d="M94.829,15.64c-6.936,24.881 -1.69,26.702 -0.732,28.947c4.085,3.524 2.025,3.85 1.987,4.136c-1.894,0.265 -11.274,6.383 -21.576,5.566c-3.073,-0.244 -2.824,-0.013 -5.169,1.068c-2.206,-3.571 -3.334,-3.472 -1.433,-9.849c6.993,-5.978 4.002,-7.044 11.182,-13.082c0.3,-0.253 2.028,-1.706 -5.135,-2.183c0.728,-1.327 1.456,-2.655 2.185,-3.982c4.986,-2.74 4.79,-3.087 6.235,-2.904c6.599,0.837 5.383,-1.16 6.071,-5.54c1.271,-2.246 1.023,-2.143 1.271,-2.246c3.861,-1.587 3.808,0.051 5.114,0.069Z" style="fill:#8f8278;fill-opacity:1;"/><path d="M22.17,20.083c5.807,1.617 14.605,0.522 14.768,1.844c1.404,11.38 2.926,11.221 1.399,22.514c-0.463,3.423 -3.036,1.834 -14.62,2.789c-10.217,0.842 -7.126,-7.568 -6.632,-16.689l0.594,-3.135c1.177,-3.774 0.267,-5.653 4.492,-7.324Z" style="fill:#f1dfbc;fill-opacity:1;"/><path d="M47.937,9.661l2.588,0.494l-0.081,1.123c-9.848,6.707 -2.075,11.794 -0.469,14.974c0.919,1.82 0.284,6.506 6.984,1.993c7.667,13.183 2.843,15.68 7.899,27.951c-0.614,0.661 -1.228,1.323 -1.842,1.984c-0.82,-0.323 -2.015,0.331 -6.267,-5.394c-4.242,-7.566 -7.204,-5.682 -9.24,-5.924l-0.806,-1.351c-0.407,-2.304 -0.242,-2.147 -1.491,-4.299c-5.661,-13.995 -5.328,-28.855 -4.206,-30.155c0.857,-0.16 1.497,0.989 2.354,0.829c2.836,-0.53 1.646,-1.575 4.576,-2.226Z" style="fill:#9c8f81;fill-opacity:1;"/><path d="M66.258,11.969c-1.289,6.871 -1.796,6.994 -1.078,7.354c6.273,3.148 3.344,-5.341 12.304,-4.779c-0.122,1.533 -0.245,3.066 -0.367,4.599c1.875,6.266 4.744,-0.156 5.707,-0.519c0.399,-0.15 0.533,0.558 5.62,-0.808c-0.687,4.38 0.528,6.377 -6.071,5.54c-1.445,-0.183 -1.249,0.164 -6.235,2.904c-1.196,-0.072 -2.393,-0.144 -3.589,-0.216c-2.022,2.935 -3.451,4.736 1.405,4.198c7.164,0.477 5.436,1.93 5.135,2.183c-7.18,6.038 -4.189,7.104 -11.182,13.082c-1.106,-1.585 -1.154,-1.456 -1.653,-3.187c-3.302,-13.196 -6.08,-12.61 -10.681,-25.732c-1.105,-3.152 1.783,-2.168 10.684,-4.62Z" style="fill:#877a71;fill-opacity:1;"/><path d="M13.881,16.571c4.839,1.569 2.153,2.487 1.359,6.49c-0.073,0.367 -0.283,1.424 2.438,4.345l-0.594,3.135c-2.87,3.378 -4.479,3.135 -3.548,6.428c1.355,4.793 0.27,4.679 0.412,9.621c0.321,0.651 0.642,1.301 0.963,1.952c-0.025,3.685 5.417,6.174 -4.742,10.09l-0.921,-0.477c-6.438,-6.417 0.388,-6.603 0.573,-9.461c0.207,-3.2 -0.801,-6.401 -0.593,-9.602l0.157,-6.379c2.505,-12.889 2.375,-13.635 2.17,-14.818l2.327,-1.324Z" style="fill:#8f5d2d;fill-opacity:0.99;"/><path d="M56.749,52.786c4.252,5.726 5.447,5.071 6.267,5.394c0.614,-0.661 1.228,-1.323 1.842,-1.984c4.525,3.461 4.404,3.496 11.177,4.638c5.039,0.849 4.47,1.312 7.275,4.23c-2.797,2.558 -3.842,2.181 -3.946,5.197c-2.31,-1.611 -2.38,-1.546 -2.521,-1.712c-1.821,-0.99 -3.642,-1.979 -5.463,-2.969c-1.453,-0.439 -1.488,-0.35 -19.809,-1.893l-1.238,-0.454l-0.651,-0.344c-0.122,-0.661 -0.244,-1.321 -0.366,-1.982c10.711,0.743 4.115,-3.315 3.73,-3.552c-1.432,-0.881 -1.141,-0.907 -1.438,-2.201c4.615,-2.163 4.556,-2.164 5.14,-2.367Z" style="fill:#564d4b;fill-opacity:1;"/><path d="M101.355,17.46c4.85,3.231 1,3.725 0.863,5.633c-0.273,3.786 1.993,5.939 0.291,16.016c-1.955,6.941 1.047,7.862 -6.726,12.778c-0.388,-1.577 0.579,-1.495 0.302,-3.164c0.038,-0.286 2.098,-0.612 -1.987,-4.136c9.201,-4.61 -2.93,-23.342 7.257,-27.127Z" style="fill:#7e736c;fill-opacity:1;"/><path d="M110.753,15.622c0.831,18.192 -2.828,31.373 -3.574,34.061c-7.136,-0.077 -2.853,-2.485 -2.093,-7.405c0.912,-10.609 2.795,-21.772 0.804,-26.018c2.528,-0.121 2.404,0.06 4.863,-0.637Z" style="fill:#9f6432;fill-opacity:1;"/><path d="M41.528,48.255c2.068,1.328 4.466,2.818 1.812,7.866c-15.722,-0.79 -22.194,-0.945 -21.89,-5.313c0.164,-2.363 8.65,0.079 20.079,-2.553Z" style="fill:#decaa7;fill-opacity:1;"/><path d="M95.782,51.887c-3.798,4.473 -2.261,6.975 -9.894,5.781c-7.448,-1.164 -9.191,1.73 -16.549,-2.312c2.345,-1.081 2.095,-1.311 5.169,-1.068c10.302,0.817 19.682,-5.3 21.576,-5.566c0.277,1.669 -0.691,1.587 -0.302,3.164Z" style="fill:#726762;fill-opacity:1;"/><path d="M50.444,11.278c-0.178,2.714 -1.238,2.883 6.515,16.967c-6.7,4.512 -6.065,-0.174 -6.984,-1.993c-1.606,-3.18 -9.379,-8.266 0.469,-14.974Z" style="fill:#85776b;fill-opacity:1;"/><path d="M66.258,11.969c1.569,-0.19 18.232,-2.206 19.763,-1.754c1.192,0.352 0.6,1.925 1.792,2.277c-2.31,1.129 -2.126,1.142 -4.894,1.5c-2.662,-1.747 -3.409,-1.391 -5.435,0.553c-8.96,-0.562 -6.031,7.927 -12.304,4.779c-0.718,-0.361 -0.211,-0.484 1.078,-7.354Z" style="fill:#6e635e;fill-opacity:1;"/><path d="M87.813,12.492c3.572,-3.904 9.714,-2.562 7.016,3.148c-1.306,-0.018 -1.253,-1.656 -5.114,-0.069c-0.248,0.102 0,0 -1.271,2.246c-5.087,1.366 -5.221,0.658 -5.62,0.808c-0.963,0.363 -3.832,6.785 -5.707,0.519c0.519,-0.383 2.961,-2.188 5.802,-5.152c2.768,-0.357 2.584,-0.37 4.894,-1.5Z" style="fill:#7c706a;fill-opacity:1;"/><path d="M46.703,45.512l0.806,1.351c0.24,8.06 0.616,8.642 2.609,8.505c0.506,-0.035 0.985,-0.179 1.491,-0.214c0.297,1.294 0.006,1.321 1.438,2.201c0.384,0.236 6.981,4.295 -3.73,3.552c-0.707,-1.307 -1.415,-2.614 -2.122,-3.921c-0.529,-0.239 -0.529,-0.185 -3.855,-0.864c2.654,-5.048 0.256,-6.538 -1.812,-7.866l0.842,-1.435l4.333,-1.309Z" style="fill:#827669;fill-opacity:1;"/><path d="M45.005,5.814c15.86,0.418 15.345,1.615 16.822,1.857c-0.781,1.807 -0.893,1.676 -3.709,2.536c-3.108,-1.092 -2.916,-1.634 -6.375,-1.035l-1.219,0.983c-0.863,-0.165 -1.726,-0.33 -2.588,-0.494c-2.93,0.65 -1.74,1.696 -4.576,2.226c-0.857,0.16 -1.497,-0.989 -2.354,-0.829c0.455,-1.668 -0.008,-1.558 -0.954,-3.096c1.055,-0.44 0.614,-0.576 1.636,-1.001c0.253,-0.105 0,0 3.317,-1.147Z" style="fill:#4d4440;fill-opacity:0.99;"/><path d="M23.548,17.708c10.488,-12.716 13.722,-1.742 13.579,-1.035c-1.034,5.094 -4.566,1.911 -13.579,1.035Z" style="fill:#e6d3b0;fill-opacity:1;"/><path d="M47.509,46.862c2.036,0.242 4.998,-1.642 9.24,5.924c-0.584,0.203 -0.525,0.204 -5.14,2.367c-0.506,0.035 -0.985,0.179 -1.491,0.214c-1.994,0.137 -2.369,-0.445 -2.609,-8.505Z" style="fill:#8e8177;fill-opacity:1;"/><path d="M15.553,9.631c4.92,3.725 5.634,5.603 -1.671,6.94l-2.327,1.324c-4.516,-6.783 0.447,-7.63 3.998,-8.264Z" style="fill:#a87238;fill-opacity:0.98;"/><path d="M110.753,15.622c-2.459,0.697 -2.335,0.516 -4.863,0.637c-2.026,-0.7 -2.817,-0.138 -3.135,-1.787c-0.903,-4.692 9.48,-5.584 7.998,1.15Z" style="fill:#9f6532;fill-opacity:1;"/><path d="M103.571,52.458c0.456,0.568 0.912,1.136 1.368,1.704c-1.888,6.777 -7.65,2.273 -6.682,-0.057c0.647,-1.557 4.843,-1.638 5.314,-1.647Z" style="fill:#b37b40;fill-opacity:1;"/><path d="M49.914,36.959l0.139,1.069c0.61,0.231 1.22,0.462 1.83,0.694c0.415,0.158 17.907,7.437 -0.606,3.899c-2.701,-0.516 -3.881,-3.185 -4.031,-3.523c-0.183,-0.413 1.167,-0.706 0.984,-1.12l1.683,-1.02Z" style="fill:#96887c;fill-opacity:1;"/><path d="M83.316,44.756c7.012,0.389 0.371,6.931 -0.579,7.225c-3.593,1.113 0.303,-6.675 0.579,-7.225Z" style="fill:#857870;fill-opacity:1;"/><path d="M77.484,14.545c2.026,-1.944 2.773,-2.3 5.435,-0.553c-2.841,2.964 -5.283,4.768 -5.802,5.152c0.122,-1.533 0.245,-3.066 0.367,-4.599Z" style="fill:#6e625e;fill-opacity:1;"/><path d="M72.549,26.045c1.196,0.072 2.393,0.144 3.589,0.216c-0.728,1.327 -1.456,2.655 -2.185,3.982c-4.856,0.538 -3.426,-1.263 -1.405,-4.198Z" style="fill:#7b6f68;fill-opacity:1;"/><path d="M45.212,41.213c1.249,2.151 1.084,1.994 1.491,4.299l-4.333,1.309c0.213,-1.512 -2.832,-3.165 2.842,-5.608Z" style="fill:#786c5a;fill-opacity:1;"/><path d="M51.744,9.172c3.458,-0.599 3.267,-0.057 6.375,1.035c-3.116,1.221 -3.089,3.543 -5.055,1.557c-1.234,-1.247 -0.634,-1.244 -1.32,-2.592Z" style="fill:#342d2c;fill-opacity:1;"/><path d="M84.36,39.116c-2.222,-4.949 1.496,-4.391 1.746,-4.093c1.877,2.247 -1.335,3.883 -1.746,4.093Z" style="fill:#84776f;fill-opacity:1;"/><path d="M49.914,36.959l-1.683,1.02c-1.96,-2.089 -1.995,-1.894 -1.96,-2.089c0.499,-2.744 3.491,0.886 3.643,1.069Z" style="fill:#8a7d71;"/><path d="M50.053,38.028l1.83,0.694c-0.61,-0.231 -1.22,-0.462 -1.83,-0.694Z" style="fill:#9c8e80;fill-opacity:1;"/></g></svg>