<?xml version="1.0" encoding="UTF-8" standalone="no"?><!DOCTYPE svg PUBLIC "-//W3C//DTD SVG 1.1//EN" "http://www.w3.org/Graphics/SVG/1.1/DTD/svg11.dtd"><svg width="100%" height="100%" viewBox="0 0 120 72" version="1.1" xmlns="http://www.w3.org/2000/svg" xmlns:xlink="http://www.w3.org/1999/xlink" xml:space="preserve" xmlns:serif="http://www.serif.com/" style="fill-rule:evenodd;clip-rule:evenodd;stroke-linejoin:round;stroke-miterlimit:2;"><g><path d="M99.465,8.705l3.091,0.116c12.623,1.818 13.372,3.737 12.638,13.315l-1.193,5.872c-6.196,-5.112 1.061,-10.425 -7.823,-10.313c-0.621,-4.673 0.539,-7.437 -5.306,-5.983c-0.45,0.112 -0.379,0.161 -5.123,2.175c-1.059,-0.079 -2.118,-0.158 -3.178,-0.237c-4.99,-0.241 -4.775,-0.49 -9.642,0.09c-4.89,-0.848 -4.89,-0.666 -9.345,0.721c-0.72,-0.105 -0.513,0.385 -1.36,0.262c-0.288,-0.042 0,-0 -3.492,-0.926c-7.886,0.216 -1.631,4.724 -5.199,14.633c-4.679,-6.674 -2.112,-6.824 -1.07,-14.169c0.248,-1.751 -0.849,-1.11 -3.159,-1.522c-4.325,-0.668 -4.164,-0.393 -8.287,0.715c-1.04,-0.143 -12.423,-1.711 -12.986,0.667c-0.886,3.741 17.141,-2.472 15.629,11.132c-2.897,26.064 -3.293,26.635 -6.113,27.19c-5.085,1.002 -16.482,-2.333 -13.06,3.976c0.527,0.972 1.481,2.731 17.084,0.918c4.175,1.118 3.768,-0.043 6.829,-2.194c0.627,0.503 0.022,2.318 16.684,2.954l2.062,-0.084c1.501,-0.077 3.001,-0.154 4.502,-0.231l1.546,0.21c1.615,-0.206 3.23,-0.412 4.845,-0.618c10.831,0.3 15.054,2.685 16.059,-5.47c-0.091,-0.826 -0.182,-1.652 -0.274,-2.478c-0.76,-3.032 -0.713,-2.838 -0.687,-5.955c1.271,-0.659 2.542,-1.319 3.813,-1.978c3.353,7.304 -0.442,7.661 3.872,14.792c-3.226,2.947 -2.522,3.395 -7.393,4.905c-2.035,-0.277 -4.071,-0.555 -6.106,-0.832c-6.578,0.041 -6.275,1.07 -12.822,0.702c-10.985,-0.618 -13.192,0.49 -14.352,0.371c-14.493,-1.484 -14.213,0.687 -28.545,-0.128c-13.471,-0.766 -12.093,3.703 -25.494,3.86c-2.044,-1.935 -1.95,-1.932 -2.14,-2.087c5.383,-2.548 5.413,-2.424 11.962,-2.574c1.323,-0.37 1.775,-0.002 1.679,-1.119c-8.354,-2.044 -8.882,-1.926 -14.972,2.243c-4.152,-2.967 -4.957,-4.01 -5.273,-4.419c9.78,-0.471 9.45,-2.442 19.072,-1.044c2.974,0.432 2.858,-9.004 -7.487,-6.118c-5.284,1.474 -5.89,-0.739 -12.077,1.338c0.247,-1.145 0.494,-2.29 0.74,-3.436c7.522,-0.369 8.362,1.473 13.794,-2.243l-1.744,-2.598c-1.364,-1.513 -1.465,-1.322 -2.8,-2.853c-0.802,-1.286 6.377,-2.689 4.87,-3.665c2.68,-4.781 -3.462,-2.299 1.089,-4.909c0.918,-4.151 1.155,-4.033 0.151,-8.187c0.208,-2.07 0.417,-4.14 0.625,-6.21c3.384,-7.114 -4.374,-3.871 -13.457,-7.463l1.775,-0.886l1.389,-0.309c2.23,-0.04 4.459,-0.08 6.689,-0.12c5.693,-0.948 7.622,-0.863 9.381,0.214c3.759,2.303 2.658,3.189 7.526,2.362c1.459,-0.248 6.131,-1.362 8.373,-1.07c1.618,-0.191 3.236,-0.383 4.854,-0.574c2.142,-0.137 4.285,-0.274 6.427,-0.411c4.362,0.337 4.359,0.245 4.711,0.363c8.894,3.006 9.131,0.434 31.687,1.168c1.547,-0.408 3.094,-0.816 4.64,-1.224c0.623,-0.209 1.246,-0.418 1.869,-0.627Z" style="fill:#4b3321;fill-opacity:1;"/><path d="M59.304,12.74c2.311,0.411 3.408,-0.23 3.159,1.522c-1.042,7.344 -3.609,7.495 1.07,14.169c0.224,1.946 -0.198,1.736 0.096,3.862c-2.324,1.167 -2.796,2.214 -0.09,2.53c0.245,0.029 0,-0 1.342,-2.025c1.719,-0.721 3.439,-1.441 5.158,-2.162c2.109,7.585 0.764,7.512 2.772,15.264c-1.488,6.213 -1.575,6.334 2.274,12.2c-16.662,-0.636 -16.058,-2.45 -16.684,-2.954c-0.162,-0.656 -0.324,-1.312 -0.486,-1.969c1.34,-3.012 5.905,-1.209 4.536,-4.52c-1.23,-2.976 0.956,-2.605 1.691,-5.662c-2.095,-5.484 -0.373,-6.073 -1.003,-6.016c-4.515,0.408 -2.162,5.48 -1.94,5.959c-5.197,4.071 -4.241,4.351 -6.142,9.762c-1.245,2.73 -1.071,2.645 -3.485,4.641c-15.603,1.813 -16.557,0.054 -17.084,-0.918c-3.422,-6.31 7.975,-2.975 13.06,-3.976c2.82,-0.556 3.216,-1.126 6.113,-27.19c1.512,-13.605 -16.515,-7.391 -15.629,-11.132c0.563,-2.378 11.946,-0.81 12.986,-0.667c4.157,2.577 4.826,1.878 8.287,-0.715Z" style="fill:#9d693f;fill-opacity:1;"/><path d="M92.571,13.651c1.059,0.079 2.118,0.158 3.178,0.237c0.912,0.696 0.117,1.133 9.927,9.653c-0.656,6.622 -0.871,6.463 -0.906,7.029l-1.046,1.165c-2.498,-2.915 -2.284,-3.747 -6.781,-3.369c-1.471,0.885 -5.788,0.202 -3.027,4.418c-1.11,-0.135 -2.22,-0.269 -3.33,-0.404c1.355,1.422 2.711,2.843 4.066,4.265c-0.1,3.297 -0.172,3.254 -0.145,3.538l-0.488,1.152c-0.902,0.407 -0.067,0.844 -0.858,1.201c-0.183,0.083 -0,0 -2.653,0.398c-0.857,0.122 -1.713,0.244 -2.57,0.366c-2.966,1.987 -3.211,1.575 -6.324,3.572c-0.694,-2.244 -0.594,-2.058 -0.552,-4.362c-0.612,-1.51 -1.219,-3.33 -1.316,-3.621c2.691,-0.835 4.457,0.02 3.632,-2.056c-0.116,-0.291 -0.289,-0.728 -4.722,0.926c-0.863,-0.239 -1.725,-0.478 -2.588,-0.717c-0.394,-1.215 -0.787,-2.43 -1.181,-3.644c3.439,-1.794 3.704,-1.658 3.714,-1.938c0.027,-0.759 -1.164,-1.647 -0.616,-2.261c0.702,-0.786 2.848,-0.238 3.551,-1.025c-0.006,-0.747 -0.013,-1.494 -0.019,-2.24c2.715,-0.067 2.876,-0.215 3.119,-2.181c-0.086,-0.965 -0.465,-5.237 7.936,-10.102Z" style="fill:#a36d42;fill-opacity:1;"/><path d="M44.293,19.612c0.968,8.928 -0.207,8.7 0.203,17.792c-0.663,0.132 1.733,3.6 -9.882,3.485c-3.291,0.87 -4.795,-1.488 -5.068,-1.439c-0.838,0.148 -0.758,-0.299 -1.673,-0.138c-0.357,-15.669 -3.898,-23.946 16.42,-19.7Z" style="fill:#e6caa0;fill-opacity:1;"/><path d="M6.902,20.45c4.257,6.459 6.765,3.111 16.074,3.043c1.005,4.154 0.767,4.036 -0.151,8.187c-0.593,2.681 1.568,0.776 -1.112,5.557c0.292,0.733 -0.533,6.006 -0.241,6.739c-2.783,2.803 -10.455,-1.881 -12.012,1.542l-1.747,1.23c-3.765,-5.52 -2.018,-5.69 -2.355,-12.214c0.328,-2.99 1.041,-6.215 1.369,-9.205c0.159,-1.453 0.255,-2.313 0.331,-3.716c0.013,-0.242 -0.184,-0.912 -0.157,-1.163Z" style="fill:#8a5c37;fill-opacity:0.99;"/><path d="M14.475,24.317c4.057,0.357 8.598,-0.015 8.927,1.062c0.131,0.428 0.234,1.807 0.234,1.807c0,0 -5.503,-1.335 -7.076,-1.544c-1.555,-0.206 -0.826,-0.771 -2.085,-1.325Z" style="fill:#6d472b;fill-opacity:1;"/><path d="M106.178,17.696c8.884,-0.112 1.627,5.201 7.823,10.313c0.066,20.474 -2.288,26.137 -3.179,28.279c-4.315,-7.131 -0.519,-7.488 -3.872,-14.792c0.842,-6.752 2.028,-7.128 -2.18,-10.926c0.035,-0.566 0.25,-0.407 0.906,-7.029c0.167,-1.948 0.335,-3.897 0.502,-5.845Z" style="fill:#382417;fill-opacity:1;"/><path d="M10.143,9.82c9.083,3.592 16.841,0.349 13.457,7.463c-0.208,2.07 -0.417,4.14 -0.625,6.21c-9.309,0.068 -11.817,3.416 -16.074,-3.043c0.88,-10.254 2.232,-9.967 3.242,-10.631Z" style="fill:#7a5232;fill-opacity:0.99;"/><path d="M68.733,13.797c3.492,0.926 3.203,0.884 3.492,0.926c0.847,0.123 0.641,-0.366 1.36,-0.262c-3.375,9.166 -0.89,9.206 1.303,18.935c0.394,1.215 0.787,2.43 1.181,3.644c-0,0.359 -0.003,4.489 -0.003,4.489c0.318,0.713 1.963,0.792 2.281,1.505c-1.645,7.585 2.959,7.158 4.849,14.959l-1.546,-0.21c-6.789,-4.837 -1.98,-7.082 -8.837,-11.885c-2.008,-7.752 -0.663,-7.679 -2.772,-15.264c-1.803,-8.452 -2.301,-8.387 -1.307,-16.838Z" style="fill:#865734;fill-opacity:1;"/><path d="M96.943,28.366c4.497,-0.379 4.283,0.454 6.781,3.369c-0.048,0.116 -1.341,-0.086 -0.586,11.739c-0.026,3.117 -0.073,2.923 0.687,5.955c-5.207,-1.384 -7.707,-1.129 -8.368,-1.061c-1.009,0.024 -2.018,0.048 -3.027,0.072c-0.164,-3.019 -0.507,-2.801 -1.921,-5.505c2.653,-0.398 2.47,-0.316 2.653,-0.398c0.79,-0.356 -0.044,-0.794 0.858,-1.201c4.609,3.91 3.429,-0.382 3.281,-0.562c-0.124,-0.151 0,0 -2.794,-0.59c-0.027,-0.284 0.045,-0.241 0.145,-3.538c0.392,-2.027 0.32,-1.938 -0.736,-3.861c2.807,-1.582 2.183,-1.774 3.027,-4.418Z" style="fill:#a36d41;fill-opacity:1;"/><path d="M82.929,13.741c6.502,4.297 -3.783,4.508 -2.732,8.458c0.08,0.302 0.098,0.277 1.319,3.735c0.006,0.747 0.013,1.494 0.019,2.24c-0.702,0.786 -2.848,0.238 -3.551,1.025c-0.548,0.614 0.643,1.502 0.616,2.261c-0.01,0.279 -0.275,0.144 -3.714,1.938c-2.193,-9.729 -4.678,-9.77 -1.303,-18.935c4.455,-1.387 4.455,-1.57 9.345,-0.721Z" style="fill:#a26e42;fill-opacity:1;"/><path d="M45.897,41.898c3.562,8.653 -2.454,7.426 -14.227,8.045c-1.962,0.103 -1.339,-0.49 -3.596,-4.768c0.043,-1.162 0.085,-2.323 0.128,-3.485c9.045,-0.083 8.795,-0.697 17.695,0.208Z" style="fill:#e1c79d;fill-opacity:1;"/><path d="M7.368,49.099c5.634,-0.321 5.681,0.806 10.965,-0.667c10.345,-2.885 12.006,8.228 8.107,7.733c-9.646,-1.224 -9.292,0.573 -19.072,1.044c-1.554,-5.945 -0.853,-5.704 -0,-8.11Z" style="fill:#825937;fill-opacity:1;"/><path d="M87.938,43.301c-0.267,6.067 1.694,7.094 2.372,7.45c2.271,1.191 0.745,-0.813 2.119,-2.311c1.009,-0.024 2.018,-0.048 3.027,-0.072c0.661,-0.068 3.161,-0.323 8.368,1.061c0.091,0.826 0.182,1.652 0.274,2.478c-0.038,0.005 -1.356,2.447 -4.403,0.556c-4.03,-2.501 -6.026,3.292 -13.396,1.434c-1.816,-3.802 -1.847,-3.638 -4.686,-7.025c3.113,-1.996 3.357,-1.584 6.324,-3.572Z" style="fill:#9f6b40;fill-opacity:1;"/><path d="M68.733,13.797c-0.995,8.45 -0.496,8.386 1.307,16.838c-1.719,0.721 -3.439,1.441 -5.158,2.162l-1.252,-0.505c-0.294,-2.125 0.128,-1.915 -0.096,-3.862c3.568,-9.909 -2.687,-14.417 5.199,-14.633Z" style="fill:#a57044;fill-opacity:1;"/><path d="M44.293,19.612c3.901,-0.188 5.927,-1.305 5.678,1.745c-1.066,13.058 -3.083,16.38 -3.865,17.666l-1.61,-1.619c-0.41,-9.093 0.765,-8.864 -0.203,-17.792Z" style="fill:#ac906f;fill-opacity:1;"/><path d="M104.098,51.907c-1.005,8.155 -5.228,5.77 -16.059,5.47c-1.482,-2.57 -1.6,-2.435 -1.739,-3.48c7.37,1.858 9.365,-3.935 13.396,-1.434c3.047,1.891 4.365,-0.552 4.403,-0.556Z" style="fill:#92613a;fill-opacity:1;"/><path d="M95.749,13.887c4.743,-2.014 4.673,-2.063 5.123,-2.175c5.845,-1.454 4.685,1.31 5.306,5.983c-0.167,1.948 -0.335,3.897 -0.502,5.845c-9.81,-8.52 -9.015,-8.957 -9.927,-9.653Z" style="fill:#8e5d37;fill-opacity:1;"/><path d="M81.062,42.51c-0.042,2.304 -0.142,2.118 0.552,4.362c2.839,3.387 2.87,3.223 4.686,7.025c0.139,1.044 0.257,0.909 1.739,3.48c-1.615,0.206 -3.23,0.412 -4.845,0.618c-1.89,-7.801 -6.494,-7.374 -4.849,-14.959c0.906,-0.175 1.811,-0.35 2.717,-0.525Z" style="fill:#794f2f;fill-opacity:1;"/><path d="M92.571,13.651c-8.401,4.864 -8.022,9.137 -7.936,10.102c-0.244,1.966 -0.404,2.114 -3.119,2.181c-1.221,-3.458 -1.238,-3.433 -1.319,-3.735c-1.051,-3.949 9.234,-4.161 2.732,-8.458c4.867,-0.581 4.652,-0.331 9.642,-0.09Z" style="fill:#885935;fill-opacity:1;"/><path d="M46.106,39.023c-0.245,0.624 -0.149,0.579 -0.209,2.875c-8.9,-0.904 -8.65,-0.291 -17.695,-0.208c-0.11,-0.793 -0.219,-1.585 -0.329,-2.378c0.915,-0.161 0.836,0.285 1.673,0.138c0.273,-0.048 1.777,2.31 5.068,1.439c11.615,0.115 9.218,-3.353 9.882,-3.485l1.61,1.619Z" style="fill:#8e7c61;fill-opacity:1;"/><path d="M72.811,45.899c6.857,4.803 2.048,7.048 8.837,11.885c-1.501,0.077 -3.001,0.154 -4.502,0.231l-2.062,0.084c-3.849,-5.866 -3.762,-5.987 -2.274,-12.2Z" style="fill:#6b4428;fill-opacity:1;"/><path d="M61.199,42.937c0.981,0.019 1.962,0.038 2.943,0.057c-0.734,3.058 -2.92,2.687 -1.691,5.662c1.368,3.311 -3.196,1.508 -4.536,4.52c-0.953,-0.159 -1.905,-0.318 -2.858,-0.478c1.901,-5.411 0.946,-5.69 6.142,-9.762Z" style="fill:#815331;fill-opacity:1;"/><path d="M104.77,30.57c4.208,3.798 3.023,4.173 2.18,10.926c-1.271,0.659 -2.542,1.319 -3.813,1.978c-0.754,-11.825 0.538,-11.622 0.586,-11.739l1.046,-1.165Z" style="fill:#6d4428;fill-opacity:1;"/><path d="M27.613,59.385l-1.679,1.119c-6.55,0.151 -6.579,0.027 -11.962,2.574l-0.671,-0.627l-0.66,-0.824c6.09,-4.169 6.618,-4.287 14.972,-2.243Z" style="fill:#714c2f;fill-opacity:0.98;"/><path d="M9.459,45.519c6.073,-0.448 5.863,-0.839 11.95,0.187c-5.432,3.715 -6.271,1.874 -13.794,2.243l0.097,-1.2l1.747,-1.23Z" style="fill:#aa8c67;fill-opacity:0.99;"/><path d="M7.037,21.375c1.416,0.665 15.741,1.952 15.938,2.118l0.511,2.336c-0.444,0.943 -3.101,-0.26 -7.238,-0.456c-3.191,-0.151 -7.824,1.023 -9.514,-0.259c-0.554,-0.42 -0.125,-3.94 0.302,-3.739Z" style="fill:#aa8c67;fill-opacity:0.99;"/><path d="M15.339,40.406l2.568,0.955c1.335,1.531 0.395,0.233 1.76,1.746l1.744,2.598c-6.087,-1.026 -5.878,-0.635 -11.95,-0.187c1.557,-3.423 3.096,-2.309 5.879,-5.112Z" style="fill:#725133;fill-opacity:1;"/><path d="M87.938,43.301c0.857,-0.122 1.713,-0.244 2.57,-0.366c1.415,2.704 1.758,2.486 1.921,5.505c-1.374,1.499 0.152,3.502 -2.119,2.311c-0.678,-0.355 -2.639,-1.383 -2.372,-7.45Z" style="fill:#a56f43;fill-opacity:1;"/><path d="M88.868,32.077c-8.649,-0.51 0.376,-7.429 1.979,-5.225c0.289,0.397 0.378,0.521 -1.979,5.225Z" style="fill:#95623a;fill-opacity:1;"/><path d="M76.068,37.042c0.863,0.239 1.725,0.478 2.588,0.717c0.363,0.377 0.727,0.754 1.09,1.13c0.097,0.291 0.705,2.111 1.316,3.621c-0.906,0.175 -1.811,0.35 -2.717,0.525c-0.318,-0.713 -1.963,-0.792 -2.281,-1.505c0,0 0.003,-4.13 0.003,-4.489Z" style="fill:#98653c;fill-opacity:1;"/><path d="M59.304,12.74c-3.46,2.593 -4.13,3.292 -8.287,0.715c4.122,-1.108 3.961,-1.383 8.287,-0.715Z" style="fill:#794f30;"/><path d="M55.057,52.699c0.953,0.159 1.905,0.318 2.858,0.478c0.162,0.656 0.324,1.312 0.486,1.969c-3.061,2.151 -2.654,3.313 -6.829,2.194c2.414,-1.995 2.24,-1.91 3.485,-4.641Z" style="fill:#684227;fill-opacity:1;"/><path d="M61.199,42.937c-0.222,-0.479 -2.576,-5.551 1.94,-5.959c0.63,-0.057 -1.092,0.532 1.003,6.016c-0.981,-0.019 -1.962,-0.038 -2.943,-0.057Z" style="fill:#94633b;fill-opacity:1;"/><path d="M92.051,22.228c0.175,-0.163 9.026,-7.403 3.527,0.637l-0.835,0.777c-1.72,-0.258 -1.719,-0.056 -2.691,-1.414Z" style="fill:#93613a;fill-opacity:1;"/><path d="M96.943,28.366c-0.844,2.645 -0.22,2.837 -3.027,4.418c-2.76,-4.217 1.556,-3.534 3.027,-4.418Z" style="fill:#9f6a3f;fill-opacity:1;"/><path d="M17.833,16.938c2.081,3.157 2.37,3.133 2.248,3.41c-0.435,0.985 -3.741,-0.737 -4.176,0.248c0.643,-1.219 1.286,-2.439 1.928,-3.658Z" style="fill:#835835;fill-opacity:1;"/><path d="M90.585,32.381c1.11,0.135 2.22,0.269 3.33,0.404c1.056,1.923 1.128,1.833 0.736,3.861c-1.355,-1.422 -2.711,-2.843 -4.066,-4.265Z" style="fill:#a56f42;fill-opacity:1;"/><path d="M94.506,40.183c2.794,0.59 2.67,0.44 2.794,0.59c0.147,0.18 1.327,4.472 -3.281,0.562l0.488,-1.152Z" style="fill:#8d5d36;fill-opacity:1;"/><path d="M78.656,37.759c4.432,-1.654 4.606,-1.216 4.722,-0.926c0.826,2.077 -0.941,1.221 -3.632,2.056c-0.363,-0.377 -0.727,-0.754 -1.09,-1.13Z" style="fill:#a06b40;fill-opacity:1;"/><path d="M63.629,32.292l1.252,0.505c-1.342,2.025 -1.096,2.053 -1.342,2.025c-2.706,-0.315 -2.234,-1.362 0.09,-2.53Z" style="fill:#91603a;fill-opacity:1;"/><path d="M10.229,28.288c5.51,0.206 2.762,1.939 2.522,2.048c-2.058,0.934 -1.452,-0.375 -2.522,-2.048Z" style="fill:#6d472b;fill-opacity:1;"/><path d="M14.464,38.207c1.507,0.976 2.641,1.868 3.442,3.155l-2.568,-0.955c-0.292,-0.733 -0.583,-1.466 -0.875,-2.2Z" style="fill:#855733;fill-opacity:1;"/><path d="M77.147,58.015c1.501,-0.077 3.001,-0.154 4.502,-0.231c-1.501,0.077 -3.001,0.154 -4.502,0.231Z" style="fill:#644026;"/><path d="M27.613,59.385c0.096,1.116 -0.356,0.749 -1.679,1.119l1.679,-1.119Z" style="fill:#4f3420;fill-opacity:1;"/><path d="M89.618,38.185c-0.159,-0.136 -5.596,-4.805 -0.893,-2.134c0.192,0.109 0,0 0.893,2.134Z" style="fill:#a87144;fill-opacity:1;"/></g></svg>