<?xml version="1.0" encoding="UTF-8" standalone="no"?><!DOCTYPE svg PUBLIC "-//W3C//DTD SVG 1.1//EN" "http://www.w3.org/Graphics/SVG/1.1/DTD/svg11.dtd"><svg width="100%" height="100%" viewBox="0 0 72 72" version="1.1" xmlns="http://www.w3.org/2000/svg" xmlns:xlink="http://www.w3.org/1999/xlink" xml:space="preserve" xmlns:serif="http://www.serif.com/" style="fill-rule:evenodd;clip-rule:evenodd;stroke-linejoin:round;stroke-miterlimit:2;"><g><path d="M51.665,24.863c7.326,11.981 6.063,15.622 0.322,24.571c-2.6,3.719 -3.179,3.569 -3.912,4.107c-2.156,1.356 -2.076,1.275 -4.275,2.73c-3.329,0.809 -13.109,4.869 -23.696,-6.089c-0.316,-0.426 -1.119,-1.105 -3.235,-5.798c-0.593,-2.017 -0.629,-1.891 -1.222,-3.964c-0.73,-2.441 -1.391,-4.351 0.438,-9.903c1.061,-3.221 3.567,-7.478 5.745,-9.278c11.757,-9.716 23.955,-4.194 29.836,3.623Z" style="fill:#3a1709;fill-opacity:1;"/><path d="M69.786,35.169c3.1,5.363 -1.202,7.128 -1.978,7.722c-0.488,-0.015 -0.887,-0.492 -1.375,-0.507c-3.429,-0.105 -0.005,4.653 -3.44,4.697c-1.366,0.018 -1.32,0.056 -2.521,0.63c-1.99,3.52 -4.01,7.799 -8.24,11.236c-3.019,2.453 -4.371,3.996 -8.209,4.614c-2.181,0.351 -4.751,2.571 -5.991,2.506c-3.401,-0.178 -6.79,-1.764 -9.274,-1.984c-2.72,-0.241 -2.91,0.385 -5.028,-1.255c-2.212,-1.713 -5.111,-2.649 -7.163,-4.107c-1.207,-0.858 -3.416,-5.063 -4.141,-6.373c-0.494,-0.893 -7.973,-13.079 -4.797,-13.432c0.995,-0.111 0.031,1.624 2.766,-0.478c1.06,1.183 13.107,22.054 23.528,23.894c2.903,0.512 16.163,-2.914 18.113,-7.67l-0.076,-1.162c0.337,-0.351 0.673,-0.702 1.01,-1.052c2.354,-0.176 2.969,-0.275 4.967,-6.091c1.07,-3.115 1.368,-2.913 2.04,-6.038c0.455,-2.116 1.277,-1.063 3.393,-1.074c1.919,-0.01 1.166,-0.906 0.975,-2.834c0.821,0.644 1.641,1.289 2.462,1.933c0.06,0.139 1.867,4.326 1.882,0.126c0.005,-1.483 -0.647,-1.123 -1.093,-1.898c0.73,-0.467 1.46,-0.934 2.189,-1.4Z" style="fill:#150d09;fill-opacity:1;"/><path d="M51.665,24.863c-5.881,-7.817 -18.079,-13.339 -29.836,-3.623c-2.178,1.8 -4.684,6.057 -5.745,9.278c-1.829,5.553 -1.168,7.462 -0.438,9.903c-0.224,0.504 -1.141,0.431 -1.365,0.935c-0.297,0.67 0.182,1.496 -0.026,2.199c-0.047,0.159 -0.132,0.07 -1.83,0.973c-0.357,-1.006 -0.715,-2.013 -1.072,-3.019c1.642,-2.372 1.323,-2.519 0.636,-5.27c-0.602,-2.412 0.382,-2.273 0.909,-4.752c0.23,-1.081 0.387,-2.178 0.631,-3.256c1.475,-6.507 22.916,-29.542 42.388,-3.762c2.448,3.241 1.537,7.468 3.464,8.793c0.145,0.668 0.291,1.336 0.436,2.004c-0.135,1.681 -1.449,2.89 0.159,2.392c0.899,-0.278 0.544,-0.731 1.42,-1.127c1.267,-0.573 1.312,-0.108 2.491,-0.642l0.456,0.518c0.191,1.928 0.944,2.823 -0.975,2.834c-2.116,0.011 -2.937,-1.042 -3.393,1.074c-0.672,3.125 -0.97,2.923 -2.04,6.038c-1.998,5.816 -2.613,5.915 -4.967,6.091c1.162,-2.61 -0.492,-2.222 -0.983,-3.011c5.741,-8.949 7.004,-12.59 -0.322,-24.571Z" style="fill:#6b4832;fill-opacity:1;"/><path d="M27.771,11.869c2.894,-1.096 12.366,-2.653 12.547,-1.985c0.156,0.578 0.231,0.853 6.851,2.999c3.483,2.133 3.086,2.556 6.653,4.522c5.838,6.075 5.317,6.483 7.712,14.843c0.035,0.296 0.29,0.538 0.325,0.834c0.126,1.074 -0.004,1.168 -0.084,1.226c-0.825,0.599 -1.022,-0.423 -1.847,0.176c-0.181,-0.407 -0.363,-0.815 -0.544,-1.222c-1.927,-1.325 -1.017,-5.552 -3.464,-8.793c-19.471,-25.781 -40.912,-2.745 -42.388,3.762c-0.244,1.078 -0.401,2.175 -0.631,3.256c-0.527,2.479 -1.511,2.34 -0.909,4.752c0.687,2.752 1.006,2.898 -0.636,5.27c-0.409,-0.5 -0.442,-0.424 -1.819,-1.325c0.185,-0.368 0.99,-0.016 1.175,-0.384c0.141,-0.281 -1.12,-3.928 -1.568,-3.981c-0.24,-0.028 -2.282,-0.269 -2.531,1.651c-0.398,3.074 -1.299,-0.64 -5.506,-2.582c0.243,-0.119 0.154,-0.167 0.445,-0.309c0.165,-0.081 0.154,-0.072 2.08,-0.976c9.503,0.302 5.043,-6.215 10.052,-11.383c3.532,-3.644 3.613,-6.388 14.088,-10.354Z" style="fill:#1d140f;fill-opacity:1;"/><path d="M15.646,40.421c0.593,2.073 0.628,1.947 1.222,3.964c-0.338,0.582 -1.256,0.657 -1.594,1.239c-0.209,0.36 0.843,2.578 0.944,2.791c0.283,0.596 0.926,1.089 1.024,1.164c1.745,1.338 2.493,0.526 2.861,0.604c10.587,10.958 20.367,6.898 23.696,6.089c0.682,0.445 0.883,1.43 1.565,1.875c0.492,0.321 3.87,-2.496 3.794,-3.067c-0.082,-0.622 -1.001,-0.916 -1.084,-1.538c0.734,-0.538 1.312,-0.388 3.912,-4.107c0.492,0.789 2.145,0.4 0.983,3.011c-0.337,0.351 -0.673,0.702 -1.01,1.052c0.025,0.387 0.051,0.775 0.076,1.162c-1.95,4.756 -15.209,8.182 -18.113,7.67c-10.422,-1.84 -16.319,-8.423 -17.379,-9.606c-2.53,-3.736 -2.177,-3.84 -4.118,-8.195c1.697,-0.902 1.783,-0.814 1.83,-0.973c0.208,-0.703 -0.272,-1.529 0.026,-2.199c0.224,-0.504 1.141,-0.431 1.365,-0.935Z" style="fill:#845332;fill-opacity:1;"/><path d="M32.609,34.351c0.186,-0.165 2.32,-2.059 2.32,-2.059c1.62,-1.113 1.382,0.209 2.226,1.993c1.016,1.85 1.426,1.335 3.536,1.561c1.154,0.599 1.157,0.387 2.478,0.403l0.894,0.132c0.009,0.007 0.667,-0.03 3.041,3.044c0.482,0.627 0.565,0.451 1.007,1.025c0.07,0.091 0.061,0.086 0.83,1.164c1.672,1.731 1.647,1.679 3.676,2.995c-0.253,0.523 -3.81,6.598 -6.517,6.018c-1,-0.214 -0.907,0.023 -1.959,0.049l0.331,-0.81c1.136,-1.433 0.186,-1.514 -1.397,-2.342c-0.108,-0.281 -0.723,-0.072 -0.832,-0.353c-0.057,-0.147 0.049,-0.138 0.658,-1.86c0.529,-0.246 1.059,-0.492 1.588,-0.739c0.449,0.563 0.097,1.527 0.545,2.091c0.341,0.428 5.595,-0.562 5.133,-1.561c-0.616,-1.33 -1.852,0.051 -5.02,-3.802c-0.697,-0.267 -1.395,-0.535 -2.092,-0.802c-0.476,-0.48 -0.538,-1.277 -1.014,-1.758c-0.429,-0.433 -1.935,1.479 -2.066,1.645c-1.194,0.951 -1.157,0.851 -2.122,1.988l-0.678,0.349c-0.783,0.073 -0.514,-0.596 -1.249,-0.527c-0.828,0.077 -0.515,0.761 -1.392,0.773c-0.272,0.004 -0.052,-0.753 -0.324,-0.749l-0.672,-0.542c0.318,-0.548 1.126,-0.688 1.444,-1.236c1.921,-3.305 0.192,-3.328 -2.376,-6.089Z" style="fill:#eac27d;fill-opacity:1;"/><path d="M36.962,21.145c3.417,0.105 4.321,-1.976 5.964,1.04l-1.793,1.21c1.956,2.664 3.782,4.001 4.168,4.283c-0.128,0.405 -0.897,0.352 -1.025,0.757c-0.059,0.188 1.372,1.847 1.93,2.017c0.263,0.08 0.413,-0.551 0.676,-0.471c-0.251,0.783 -0.195,0.753 -0.604,3.265c-3.691,-1.319 -3.752,-0.653 -7.642,-0.9c0.05,-0.172 0.623,-2.149 0.623,-2.149c-0.101,-1.437 -0.738,-0.78 -2.193,-0.544c-0.593,-3.056 -1.03,-2.819 -3.149,-5.172l1,-1.356c1.259,-0.806 1.143,-0.805 2.046,-1.98Z" style="fill:#a8490e;fill-opacity:1;"/><path d="M27.798,25.848c1.442,0.327 1.376,0.365 2.254,1.469c-0.366,1.457 -0.411,1.393 -0.376,2.929c-2.846,1.559 -3.077,1.738 -3.15,4.983c-0.292,0.354 -0.583,0.707 -0.875,1.061c-0.173,0.228 -1.363,1.802 -2.314,2.726c-0.54,-0.194 -1.081,-0.387 -1.621,-0.581c-0.202,-0.262 -0.764,0.037 -0.967,-0.224c-0.091,-0.118 -0.198,-4.687 1.332,-6.657c4.265,-5.491 5.374,-5.434 5.716,-5.706Z" style="fill:#3f190d;fill-opacity:1;"/><path d="M25.651,36.291c1.758,1.142 1.769,1.161 2.479,3.109c0.097,0.409 0.193,0.817 0.29,1.226c0.126,0.139 -0.294,0.363 1.154,2.035c1.635,1.888 2.292,1.05 3.29,-1.161l0.677,0.177l0.672,0.542c0.245,0.743 0.489,1.485 0.734,2.228c-1.625,0.905 -1.548,0.835 -3.064,2.039c-2.223,0.074 -2.149,0.114 -4.148,0.902l-1.09,1.679l-1.531,-0.921c-0.209,-0.587 -0.419,-1.174 -0.628,-1.761c0.47,-0.62 0.941,-1.241 1.411,-1.861c-0.038,-1.059 0.134,-0.993 -0.074,-2.073c-0.064,-0.333 -0.264,-1.368 -2.486,-3.432c0.951,-0.925 2.142,-2.498 2.314,-2.726Z" style="fill:#f2a126;fill-opacity:1;"/><path d="M29.774,23.279c0.038,1.688 0.133,1.711 0.041,1.823c0,0 -1.855,0.686 -2.016,0.746c-0.342,0.271 -1.451,0.215 -5.716,5.706c-1.531,1.97 -1.423,6.54 -1.332,6.657c0.202,0.262 0.764,-0.037 0.967,0.224c-1.102,0.481 -0.987,0.535 -2.997,2.003c-0.284,-0.868 -2.521,-7.716 1.915,-11.248c4.61,-3.669 3.342,-6.901 9.139,-5.912Z" style="fill:#aa470a;fill-opacity:1;"/><path d="M34.947,44.446l0.768,0.448c1.394,2.006 1.595,2.397 3.909,1.464c0.469,-0.282 0.034,-0.549 0.476,-0.815c0.193,-0.116 0.208,-0.017 2.805,-0.232c-0.609,1.722 -0.715,1.713 -0.658,1.86c0.108,0.281 0.723,0.072 0.832,0.353c0.466,0.781 0.931,1.562 1.397,2.342l-0.331,0.81c-0.72,-0.349 -1.44,-0.699 -2.16,-1.048c-2.079,-1.381 -2.325,-1.973 -4.331,-0.392c-3.44,1.169 -3.34,-0.087 -5.771,-2.751c1.516,-1.203 1.439,-1.134 3.064,-2.039Z" style="fill:#e0720b;fill-opacity:1;"/><path d="M30.052,27.318l0.707,-0.232c2.523,2.554 2.511,4.881 6.306,2.567c1.455,-0.236 2.091,-0.893 2.193,0.544c0,0 -0.573,1.977 -0.623,2.149c-0.493,0.646 -0.986,1.292 -1.479,1.939c-0.844,-1.784 -0.607,-3.106 -2.226,-1.993c-0,0 -2.135,1.895 -2.32,2.059c-3.704,-2.787 -2.635,-3.494 -2.933,-4.104c-0.035,-1.535 0.01,-1.472 0.376,-2.929Z" style="fill:#fcda57;fill-opacity:1;"/><path d="M41.985,49.627c0.72,0.349 1.44,0.699 2.16,1.048c-0.294,0.399 -0.589,0.797 -0.883,1.196c-1.973,0.798 -1.965,0.777 -2.176,0.906c-0.483,0.185 -0.539,0.984 -1.022,1.169c-0.013,0.005 -5.634,0.217 -6.124,0.235c-1.519,0.057 -1.357,-0.309 -3.146,-1.309c0.313,-0.73 0.626,-1.459 0.939,-2.189c2.349,1.072 2.368,1.455 3.045,0.927c0.52,-0.406 0.725,-1.442 1.383,-1.414c1.067,0.046 -0.309,1.292 0.709,1.504c0.946,0.197 0.225,-1.309 1.205,-1.105c2.064,-0.072 1.932,-0.259 3.91,-0.97Z" style="fill:#b74e0f;fill-opacity:1;"/><path d="M1.106,34.89c4.208,1.942 5.108,5.655 5.506,2.582c0.249,-1.92 2.291,-1.68 2.531,-1.651c0.448,0.053 1.709,3.7 1.568,3.981c-0.185,0.368 -0.99,0.016 -1.175,0.384c-6.937,0.187 -8.147,1.251 -8.11,-0.777c0.043,-2.332 0.049,-2.277 -0.32,-4.517Z" style="fill:#66442e;fill-opacity:1;"/><path d="M52.232,34.329c2.701,3.889 3.52,5.015 0.388,10.279c-2.029,-1.316 -2.005,-1.265 -3.676,-2.995c2.22,-1.708 3.712,-2.155 1.126,-5.37c0.947,-1.185 0.969,-1.07 2.162,-1.914Z" style="fill:#732c0c;"/><path d="M21.716,38.436c0.54,0.194 1.081,0.387 1.621,0.581c2.223,2.064 2.422,3.099 2.486,3.432c0.208,1.08 0.036,1.014 0.074,2.073c-1.47,-1.012 -2.147,-1.577 -2.325,-1.725c-2.066,-1.725 -1.984,0.048 -3.054,2.566l-0.76,0.058c-1.282,-2.303 -0.864,-2.358 -1.04,-4.982c2.01,-1.468 1.894,-1.522 2.997,-2.003Z" style="fill:#b54c09;fill-opacity:1;"/><path d="M46.277,33.246c0.44,0.046 3.688,0.387 5.529,0.183l0.426,0.899c-1.193,0.844 -1.215,0.73 -2.162,1.914c-1.297,1.831 -1.252,1.805 -2.963,3.181c-2.374,-3.073 -3.033,-3.037 -3.041,-3.044c0.853,-1.778 0.854,-1.719 2.212,-3.134Z" style="fill:#b94909;fill-opacity:1;"/><path d="M64.361,33.295c0.302,-1.664 2.957,-0.973 5.425,1.873c-0.73,0.467 -1.46,0.934 -2.189,1.4c-0.525,0.849 -0.525,0.782 -0.789,1.772c-0.821,-0.644 -1.641,-1.289 -2.462,-1.933l-0.456,-0.518c0.028,-0.161 0.188,-0.279 0.216,-0.441c0.029,-0.171 0.019,-0.16 0.256,-2.154Z" style="fill:#1b130f;fill-opacity:1;"/><path d="M31.883,46.484c2.431,2.663 2.331,3.92 5.771,2.751l0.421,1.362c-0.98,-0.204 -0.259,1.302 -1.205,1.105c-1.018,-0.212 0.358,-1.458 -0.709,-1.504c-0.659,-0.028 -0.864,1.008 -1.383,1.414c-0.677,0.529 -0.697,0.145 -3.045,-0.927c-0.565,-0.522 -0.532,-0.475 -1.053,-0.972c-1.309,-1.25 -1.637,-2.395 -2.098,-2.658c-0.263,-0.15 -0.583,0.481 -0.846,0.331c1.998,-0.788 1.924,-0.828 4.148,-0.902Z" style="fill:#8d370f;fill-opacity:1;"/><path d="M38.635,32.346c3.89,0.247 3.951,-0.419 7.642,0.9c-1.358,1.415 -1.359,1.355 -2.212,3.134l-0.894,-0.132c-1.046,-1.508 -0.971,-1.655 -1.126,-1.624c-0.596,0.119 -0.757,1.102 -1.353,1.221c-2.111,-0.225 -2.52,0.289 -3.536,-1.561c0.493,-0.646 0.986,-1.292 1.479,-1.939Z" style="fill:#f5a725;fill-opacity:1;"/><path d="M30.759,27.085c1.729,-1.07 2.934,-2.365 3.157,-2.605c2.119,2.353 2.556,2.115 3.149,5.172c-3.795,2.315 -3.783,-0.012 -6.306,-2.567Z" style="fill:#f79d23;fill-opacity:1;"/><path d="M29.676,30.247c0.298,0.61 -0.771,1.318 2.933,4.104l-0.73,2.013l-1.039,0.97c-1.512,-2.511 -1.718,-3.339 -4.314,-2.105c0.073,-3.246 0.304,-3.424 3.15,-4.983Z" style="fill:#e27717;fill-opacity:1;"/><path d="M36.962,21.145c-0.903,1.175 -0.787,1.174 -2.046,1.98c-0.66,0.048 -1.32,0.097 -1.98,0.145c-0.942,-1.704 -0.536,-2.405 -2.124,-2.304c-0.176,0.011 -3.78,0.239 -1.719,-1.377c2.59,-2.031 4.999,0.519 7.869,1.556Z" style="fill:#743012;fill-opacity:1;"/><path d="M39.979,40.385c1.027,0.038 2.054,0.075 3.081,0.113c0.697,0.267 1.395,0.535 2.092,0.802c-1.714,1.05 -1.843,0.958 -1.846,1.131c-0.008,0.399 0.465,0.709 0.456,1.108c-2.573,-1.008 -2.603,-0.421 -4.944,1.115c-0.847,-0.955 -0.668,-0.962 -0.962,-2.282c0.965,-1.137 0.928,-1.037 2.122,-1.988Z" style="fill:#e15c0a;"/><path d="M45.152,41.3c3.168,3.853 4.404,2.472 5.02,3.802c0.462,0.999 -4.792,1.988 -5.133,1.561c-0.449,-0.563 -0.097,-1.527 -0.545,-2.091l-0.731,-1.032c0.008,-0.399 -0.465,-0.709 -0.456,-1.108c0.004,-0.173 0.132,-0.081 1.846,-1.131Z" style="fill:#6d2b0e;fill-opacity:1;"/><path d="M32.609,34.351c2.569,2.761 4.297,2.784 2.376,6.089c-0.318,0.548 -1.126,0.688 -1.444,1.236l-0.677,-0.177l-0.968,-0.725c0.091,-0.192 1.134,-2.401 1.134,-2.401c0,-0 -1.059,-1.849 -1.151,-2.009l0.73,-2.013Z" style="fill:#fde76e;fill-opacity:1;"/><path d="M25.898,44.521c-0.47,0.62 -0.941,1.241 -1.411,1.861c-2.144,-0.167 -2.032,-0.313 -3.967,-1.021c1.07,-2.518 0.988,-4.291 3.054,-2.566c0.178,0.148 0.855,0.714 2.325,1.725Z" style="fill:#200b05;fill-opacity:1;"/><path d="M46.881,29.981c2.398,1.466 2.607,1.675 5.076,0.372c0.231,1.592 0.169,1.504 -0.151,3.075c-1.84,0.204 -5.088,-0.137 -5.529,-0.183c0.409,-2.512 0.353,-2.482 0.604,-3.265Z" style="fill:#59220c;fill-opacity:1;"/><path d="M27.736,47.386c0.263,0.15 0.583,-0.481 0.846,-0.331c0.461,0.263 0.789,1.408 2.098,2.658c0.52,0.497 0.487,0.45 1.053,0.972c-0.313,0.73 -0.626,1.459 -0.939,2.189c-2.311,-1.685 -2.14,-1.754 -4.148,-3.808l1.09,-1.679Z" style="fill:#cc5007;fill-opacity:1;"/><path d="M31.88,36.364c0.092,0.161 1.151,2.009 1.151,2.009c0,0 -1.044,2.209 -1.134,2.401c-1.159,-0.05 -2.317,-0.099 -3.476,-0.149c-0.097,-0.409 -0.193,-0.817 -0.29,-1.226c0.348,-0.176 0.22,-0.847 0.569,-1.023c1.12,-0.567 1.358,-0.015 2.142,-1.042l1.039,-0.97Z" style="fill:#fcf29d;fill-opacity:1;"/><path d="M50.07,36.243c2.585,3.215 1.093,3.661 -1.126,5.37c-0.768,-1.077 -0.76,-1.073 -0.83,-1.164c-0.442,-0.574 -0.525,-0.398 -1.007,-1.025c1.711,-1.376 1.666,-1.35 2.963,-3.181Z" style="fill:#3a1609;fill-opacity:1;"/><path d="M29.774,23.279l3.162,-0.01c0.66,-0.048 1.32,-0.097 1.98,-0.145l-1,1.356c-0.223,0.24 -1.428,1.535 -3.157,2.605l-0.707,0.232c-0.878,-1.105 -0.812,-1.142 -2.254,-1.469c0.161,-0.06 2.016,-0.746 2.016,-0.746c0.093,-0.113 -0.003,-0.135 -0.041,-1.823Z" style="fill:#a3460a;fill-opacity:1;"/><path d="M48.074,53.541c0.082,0.622 1.001,0.916 1.084,1.538c0.076,0.572 -3.302,3.389 -3.794,3.067c-0.682,-0.445 -0.883,-1.43 -1.565,-1.875c2.199,-1.455 2.119,-1.375 4.275,-2.73Z" style="fill:#945926;fill-opacity:1;"/><path d="M61.533,32.248c2.079,1.451 2.027,1.549 2.245,1.567c0.259,0.022 0.324,-0.541 0.583,-0.519c-0.237,1.994 -0.226,1.983 -0.256,2.154c-0.028,0.161 -0.188,0.279 -0.216,0.441c-1.18,0.533 -1.224,0.069 -2.491,0.642c-0.876,0.396 -0.522,0.849 -1.42,1.127c-1.607,0.497 -0.294,-0.711 -0.159,-2.392l0.108,-0.782c0.825,-0.599 1.022,0.423 1.847,-0.176c0.08,-0.058 0.209,-0.152 0.084,-1.226c-0.035,-0.296 -0.29,-0.538 -0.325,-0.834Z" style="fill:#463024;fill-opacity:1;"/><path d="M26.526,35.23c2.597,-1.234 2.802,-0.406 4.314,2.105c-0.784,1.028 -1.021,0.475 -2.142,1.042c-0.348,0.176 -0.22,0.847 -0.569,1.023c-0.71,-1.948 -0.721,-1.968 -2.479,-3.109c0.292,-0.354 0.583,-0.707 0.875,-1.061Z" style="fill:#f5b246;fill-opacity:1;"/><path d="M42.926,22.185c1.732,1.991 1.707,1.99 1.928,2.177c0.886,1.15 1.925,2.919 2.079,3.181c-0.544,0.045 -1.088,0.09 -1.632,0.136c-0.386,-0.282 -2.212,-1.619 -4.168,-4.283l1.793,-1.21Z" style="fill:#713a19;fill-opacity:1;"/><path d="M16.868,44.385c2.116,4.693 2.919,5.372 3.235,5.798c-0.368,-0.078 -1.115,0.734 -2.861,-0.604c-0.098,-0.075 -0.742,-0.569 -1.024,-1.164c-0.101,-0.213 -1.153,-2.431 -0.944,-2.791c0.338,-0.582 1.256,-0.657 1.594,-1.239Z" style="fill:#855130;fill-opacity:1;"/><path d="M43.762,43.539l0.731,1.032c-0.529,0.246 -1.059,0.492 -1.588,0.739c-2.597,0.215 -2.612,0.116 -2.805,0.232c-0.442,0.266 -0.008,0.533 -0.476,0.815c-0.269,-0.568 -0.537,-1.135 -0.806,-1.703c2.341,-1.537 2.37,-2.123 4.944,-1.115Z" style="fill:#f9990e;"/><path d="M19.76,45.42l0.76,-0.058c1.936,0.708 1.824,0.854 3.967,1.021c0.209,0.587 0.419,1.174 0.628,1.761c-0.546,0.106 -0.814,0.861 -1.36,0.967c-1.583,0.307 -3.77,-3.318 -3.995,-3.69Z" style="fill:#772a08;fill-opacity:1;"/><path d="M28.42,40.626c1.159,0.05 2.317,0.099 3.476,0.149l0.968,0.725c-0.998,2.211 -1.655,3.05 -3.29,1.161c-1.448,-1.672 -1.028,-1.896 -1.154,-2.035Z" style="fill:#fbc836;fill-opacity:1;"/><path d="M37.179,42.721l0.678,-0.349c0.294,1.32 0.115,1.327 0.962,2.282c0.269,0.568 0.537,1.135 0.806,1.703c-2.313,0.933 -2.514,0.541 -3.909,-1.464c0.488,-0.724 0.975,-1.448 1.463,-2.172Z" style="fill:#f9d060;fill-opacity:1;"/><path d="M47.685,28.418c2.2,0.845 2.155,0.781 4.272,1.936c-2.469,1.303 -2.678,1.093 -5.076,-0.372c0.268,-0.521 0.536,-1.042 0.804,-1.563Z" style="fill:#8d390f;fill-opacity:1;"/><path d="M37.654,49.235c2.006,-1.581 2.252,-0.989 4.331,0.392c-1.978,0.71 -1.846,0.898 -3.91,0.97l-0.421,-1.362Z" style="fill:#8a2f08;fill-opacity:1;"/><path d="M45.3,27.678c0.544,-0.045 1.088,-0.09 1.632,-0.136c0.251,0.292 0.502,0.584 0.753,0.875c-0.268,0.521 -0.536,1.042 -0.804,1.563c-0.263,-0.08 -0.413,0.551 -0.676,0.471c-0.558,-0.17 -1.989,-1.829 -1.93,-2.017c0.128,-0.405 0.897,-0.352 1.025,-0.757Z" style="fill:#e88907;fill-opacity:1;"/><path d="M34.213,42.218c0.272,-0.004 0.052,0.753 0.324,0.749c0.877,-0.012 0.564,-0.696 1.392,-0.773c0.735,-0.068 0.467,0.6 1.249,0.527c-0.488,0.724 -0.975,1.448 -1.463,2.172l-0.768,-0.448c-0.245,-0.743 -0.489,-1.485 -0.734,-2.228Z" style="fill:#fae37d;fill-opacity:1;"/><path d="M67.596,36.569c0.446,0.775 1.098,0.415 1.093,1.898c-0.015,4.2 -1.822,0.013 -1.882,-0.126c0.264,-0.99 0.264,-0.923 0.789,-1.772Z" style="fill:#7a5137;fill-opacity:1;"/><path d="M39.979,40.385c0.131,-0.166 1.637,-2.078 2.066,-1.645c0.476,0.48 0.538,1.277 1.014,1.758c-1.027,-0.038 -2.054,-0.075 -3.081,-0.113Z" style="fill:#fac53e;fill-opacity:1;"/><path d="M40.693,35.845c0.596,-0.119 0.757,-1.102 1.353,-1.221c0.155,-0.031 0.08,0.116 1.126,1.624c-1.321,-0.015 -1.324,0.196 -2.478,-0.403Z" style="fill:#fcc73d;fill-opacity:1;"/><path d="M43.262,51.871c-0.053,0.168 -0.643,2.036 -1.183,1.854c-0.434,-0.146 -0.559,-0.802 -0.993,-0.948c0.211,-0.129 0.203,-0.108 2.176,-0.906Z" style="fill:#852f07;"/><path d="M43.078,47.523c1.583,0.829 2.533,0.91 1.397,2.342c-0.466,-0.781 -0.931,-1.562 -1.397,-2.342Z" style="fill:#ca5504;fill-opacity:1;"/><path d="M59.382,33.262c0.181,0.407 0.363,0.815 0.544,1.222l-0.108,0.782c-0.145,-0.668 -0.291,-1.336 -0.436,-2.004Z" style="fill:#4f3323;fill-opacity:1;"/></g></svg>