<?xml version="1.0" encoding="UTF-8" standalone="no"?><!DOCTYPE svg PUBLIC "-//W3C//DTD SVG 1.1//EN" "http://www.w3.org/Graphics/SVG/1.1/DTD/svg11.dtd"><svg width="100%" height="100%" viewBox="0 0 72 72" version="1.1" xmlns="http://www.w3.org/2000/svg" xmlns:xlink="http://www.w3.org/1999/xlink" xml:space="preserve" xmlns:serif="http://www.serif.com/" style="fill-rule:evenodd;clip-rule:evenodd;stroke-linejoin:round;stroke-miterlimit:2;"><g id="image.png"><path d="M26.583,10.546c0.766,1.19 1.533,2.38 2.299,3.57c0.427,1.39 0.879,3.937 8.736,4.346c4.247,0.221 3.57,-1.384 3.852,-3.996c0.562,-2.056 0.552,-1.974 1.287,-4.037c0.553,-0.038 1.107,-0.077 1.66,-0.115c0.2,2.738 -0.048,2.639 -0.057,5.325c-2.59,6.604 5.644,6.75 10.239,11.048c0.174,0.163 1.617,1.512 2.254,1.945c-0.062,3.469 0.63,3.207 2.465,6.122c1.34,2.128 2.099,1.724 2.395,4.247c-2.515,0.533 -2.856,0.049 -3.409,1.421c-2.135,5.298 -0.951,8.459 -0.693,9.147c6.745,5.093 12.137,-6.903 5.716,-10.506c0.439,-2.995 1.59,-2.502 2.479,-5.436c0.566,-1.868 0.999,-1.512 2.072,-3.136l0.456,1.134l0.45,1.917c-0.784,2.206 -0.829,2.103 -2.005,4.118c-0.09,0.154 1.144,4.25 2.892,7.876c0.916,5.844 -6.286,8.58 -7.139,8.904c-2.823,1.072 -0.667,9.609 -11.951,9.75c-2.644,0.033 -1.695,2.999 -5.007,3.265c-6.168,0.496 -7.396,1.843 -11.168,-1.605c-2.71,-2.477 -5.85,3.376 -13.803,-5.904c-8.851,-1.5 -11.355,-10.675 -12.299,-12.29c-0.269,-0.461 -1.068,-0.561 -1.18,-1.083c-0.159,-0.739 1.156,-1.798 -0.396,-4.066c-1.708,-2.496 -1.628,-2.422 -3.49,-4.939c-0.119,-0.662 -0.238,-1.325 -0.357,-1.987c1.459,-1.894 1.322,-1.881 3.265,-3.398c0.66,6.534 2.091,7.584 2.633,7.982c7.481,5.492 15.274,-15.683 0.674,-10.734c0.049,-1.105 0.036,-1.047 -0.446,-2.052c-0.152,-0.578 0.084,-0.662 -1.097,-1.771c0.082,-0.709 0.164,-1.417 0.246,-2.126c2.908,0.013 2.993,0.136 3.137,0.344c1.788,2.592 2.089,2.295 5.299,2.612c6.268,-5.611 6.347,-5.505 6.864,-6.022c3.672,-3.677 3.192,-4.318 1.233,-9.047c0.524,-0.024 0.463,-0.095 1.895,-0.825Z" style="fill:#3a261f;fill-opacity:1;"/><path d="M48.74,26.367c-0.452,6.155 2.694,2.068 3.03,1.853c0.617,0.7 1.344,-0.01 2.389,2.708c2.356,6.122 2.348,6.143 2.144,6.665c-2.324,5.961 0.055,11.625 -6.703,13.097c-1.728,0.376 -1.978,-0.106 -2.986,1.409l-0.599,1.625c-0.846,2.049 -0.876,1.928 -2.345,3.556c-2.051,0.385 -4.102,0.771 -6.154,1.156c-2.279,-3.164 -2.427,-3.019 -5.924,-4.6c-0.497,-0.225 -5.49,-2.483 -6.015,-3.218c-2.537,-3.559 -4.738,-4.034 -5.491,-5.194c-1.663,-2.56 -0.247,-3.454 -0.366,-3.858c-0.171,-0.584 -1.313,-0.48 -1.485,-1.064c1.943,-4.846 1.523,-4.892 2.132,-10.057c4.64,-5.837 3.905,-9.407 10.251,-9.541c3.14,-0.066 12.489,-1.538 15.378,4.363c0.736,1.503 1.085,0.893 2.741,1.1Z" style="fill:#733b1f;fill-opacity:1;"/><path d="M24.688,11.371c1.96,4.728 2.439,5.37 -1.233,9.047c-0.516,0.517 -0.596,0.411 -6.864,6.022c-3.21,-0.318 -3.511,-0.02 -5.299,-2.612c-0.143,-0.208 -0.229,-0.332 -3.137,-0.344c3.709,-10.155 12.018,-15.565 15.423,-12.843c0.083,0.066 0.821,0.656 1.11,0.731Z" style="fill:#8c6f5b;fill-opacity:1;"/><path d="M44.419,10.314c0.374,-0.331 1.118,-2.768 9.168,0.329c5.87,2.258 5.726,2.627 9.062,7.908c-0.112,0.304 0.43,0.614 0.318,0.918c-0.651,1.771 -2.167,2.842 -2.42,3.02c-4.939,3.49 -6.149,-0.967 -6.284,-1.465c-0.302,-0.662 -0.604,-1.325 -0.906,-1.987c-0.505,0 -0.4,-0.169 -0.889,-0.169c-0.17,0 -0.157,0.006 -2.121,0.077c-3.189,-1.882 -3.06,-1.954 -5.984,-3.306c0.009,-2.686 0.257,-2.587 0.057,-5.325Z" style="fill:#887061;fill-opacity:1;"/><path d="M26.583,10.546c0.386,-0.632 1.467,-2.403 6.93,-6.132c3.916,-2.673 8.784,5.263 9.245,6.016c-0.735,2.063 -0.725,1.981 -1.287,4.037c-6.351,-0.965 -6.257,-0.661 -12.588,-0.35c-0.766,-1.19 -1.533,-2.38 -2.299,-3.57Z" style="fill:#846e5f;fill-opacity:1;"/><path d="M8.881,29.96l0.572,-0.527c14.6,-4.949 6.807,16.226 -0.674,10.734c-0.542,-0.398 -1.973,-1.448 -2.633,-7.982c1.381,-0.702 2.547,-2.014 2.734,-2.225Z" style="fill:#8d715e;fill-opacity:1;"/><path d="M63.871,24.399l0.392,0.46c2.517,2.32 2.328,2.424 3.616,5.633c-1.073,1.624 -1.506,1.268 -2.072,3.136c-0.889,2.933 -2.041,2.441 -2.479,5.436c-0.538,-0.021 -1.075,-0.041 -1.613,-0.062c-0.295,-2.524 -1.055,-2.12 -2.395,-4.247c-1.835,-2.915 -2.527,-2.653 -2.465,-6.122c2.737,-3.202 3.268,-2.345 7.016,-4.234Z" style="fill:#876c5a;fill-opacity:1;"/><path d="M44.362,15.639c2.923,1.352 2.794,1.424 5.984,3.306c1.837,1.562 1.584,2.187 3.916,2.079c0.135,0.498 1.346,4.955 6.284,1.465c0.253,-0.179 1.769,-1.25 2.42,-3.02c0.112,-0.304 -0.43,-0.614 -0.318,-0.918c0.285,0.682 0.571,1.363 0.856,2.045c0.01,0.305 0.111,0.244 0.366,3.803c-3.748,1.889 -4.279,1.032 -7.016,4.234c-0.637,-0.433 -2.08,-1.783 -2.254,-1.945c-4.595,-4.298 -12.829,-4.444 -10.239,-11.048Z" style="fill:#64331a;fill-opacity:1;"/><path d="M61.715,39.002c0.538,0.021 1.075,0.041 1.613,0.062c6.422,3.603 1.03,15.598 -5.716,10.506c0.521,-0.929 1.378,-0.522 2.084,-4.985c0.474,-2.994 0.509,-2.923 2.018,-5.583Z" style="fill:#897365;"/><path d="M14.761,44.12c0.241,4.665 1.567,4.048 4.965,7.186c1.198,1.107 1.293,0.205 2.864,-0.72c1.221,1.96 1.107,2.387 -0.9,3.66c-1.639,-0.432 -1.732,-0.82 -3.076,0.32c-0.579,0.177 -1.157,0.354 -1.736,0.531c-8.816,-8.894 -6.305,-10.49 -5.38,-10.755c2.135,-0.611 2.081,-0.142 3.263,-0.223Z" style="fill:#8a6f5e;fill-opacity:1;"/><path d="M55.724,51.311c0.815,0.678 3.037,0.818 0.677,4.154c-2.379,2.028 -1.777,2.923 -4.787,3.58c-2.3,0.502 -1.894,1.642 -2.225,1.929c-3.138,-8.204 0.67,-7.94 6.335,-9.663Z" style="fill:#886852;fill-opacity:1;"/><path d="M25.63,54.195c0.378,0.36 1.237,1.179 5.088,4.079c1.542,1.161 1.919,0.324 3.339,1.578c-2.364,7.338 -10.901,-1.611 -11.551,-2.293l0.293,-0.965c0.944,-0.8 1.887,-1.599 2.831,-2.399Z" style="fill:#7c6558;fill-opacity:1;"/><path d="M28.883,14.117c6.332,-0.311 6.238,-0.615 12.588,0.35c-0.282,2.612 0.395,4.217 -3.852,3.996c-7.857,-0.409 -8.309,-2.956 -8.736,-4.346Z" style="fill:#6c3b24;fill-opacity:1;"/><path d="M45.452,57.681c1.006,3.572 1.677,3.676 0.694,4.698c-2.405,2.5 -7.884,1.566 -8.569,1.449c-4.006,-0.683 -0.336,-5.062 -0.059,-5.393c0.316,0.132 0.694,-0.322 1.01,-0.19c1.942,0.813 2.448,3.335 6.924,-0.565Z" style="fill:#7e685a;fill-opacity:1;"/><path d="M38.389,24.795c0.427,0.573 0.853,1.146 1.28,1.72c0.117,1.357 0.233,2.714 0.35,4.071c-0.071,2.535 -1.154,3.192 1.639,4.905c0.707,2.828 0.19,3.072 2.402,5.113l-1.648,0.771c-2.444,1.805 -2.606,1.732 -5.51,0.738c0.137,-0.089 6.106,-2.149 1.879,-6.65c-0.302,-0.358 -0.603,-0.715 -0.905,-1.073c-0.43,-0.657 -0.861,-1.314 -1.291,-1.971c0.446,-2.008 0.729,-1.872 0.862,-3.877c0.146,-2.199 -0.946,-1.636 -1.19,-2.063c-0.2,-0.35 0.278,-0.857 0.078,-1.207c1.012,-0.415 0.957,-0.41 2.054,-0.475Z" style="fill:#f4a619;fill-opacity:1;"/><path d="M25.809,32.734c2.867,-2.689 2.729,-2.735 5.167,-5.858c1.476,-1.891 4.967,1.399 -0.088,4.873c-1.273,0.875 -1.363,1.295 -1.213,5.814l-1.21,0.865c-2.07,0.278 -2.499,0.248 -2.839,-1.863c-0.327,-2.029 -0.336,-1.94 0.184,-3.831Z" style="fill:#371509;fill-opacity:1;"/><path d="M35.06,48.92c-5.296,4.219 -2.597,-3.521 -5.407,-4.605c-3.507,-1.354 -4.804,-0.673 -4.337,-2.861c0.227,-1.064 2.706,-0.297 4.271,-0.59c1.191,-0.224 1.463,-0.994 2.873,0.703c1.132,1.363 1.847,1.156 1.389,2.933c-0.631,2.448 -0.2,2.389 1.212,4.421Z" style="fill:#240d05;fill-opacity:1;"/><path d="M36.585,32.417c0.43,0.657 0.861,1.314 1.291,1.971l0.905,1.073c4.227,4.501 -1.741,6.561 -1.879,6.65c-3.104,-3.001 -2.64,-6.339 -2.684,-6.44c-1.165,-2.687 0.373,-2.353 2.367,-3.254Z" style="fill:#fbe55f;fill-opacity:1;"/><path d="M42.412,41.374c0.609,0.328 1.219,0.655 1.828,0.983c-1.25,2.606 -0.868,2.698 -0.995,2.909c-0.544,0.769 -1.089,1.539 -1.633,2.308c-2.444,-2.364 -1.793,-2.797 -2.005,-2.992c-0.663,-0.61 -2.439,1.072 -2.958,-1.016c-0.119,-0.478 0.371,-0.977 0.253,-1.455c2.904,0.994 3.066,1.067 5.51,-0.738Z" style="fill:#8b3306;fill-opacity:1;"/><path d="M61.715,39.002c-1.509,2.66 -1.545,2.589 -2.018,5.583c-0.706,4.463 -1.563,4.056 -2.084,4.985c-0.257,-0.687 -1.442,-3.849 0.693,-9.147c0.553,-1.372 0.894,-0.888 3.409,-1.421Z" style="fill:#c3834a;"/><path d="M40.019,30.586c2.474,-0.932 2.576,-0.425 3.511,1.025c2.105,1.581 1.929,1.774 2.132,1.876c-1.018,0.697 -2.035,1.394 -3.053,2.092l-0.951,-0.088c-2.794,-1.713 -1.711,-2.37 -1.639,-4.905Z" style="fill:#8f3406;fill-opacity:1;"/><path d="M14.761,44.12l0.854,0.446c3.348,3.225 3.357,3.057 6.975,6.02c-1.57,0.925 -1.666,1.827 -2.864,0.72c-3.397,-3.139 -4.724,-2.521 -4.965,-7.186Z" style="fill:#c27d42;fill-opacity:1;"/><path d="M56.401,55.466c0.173,0.692 1.668,6.689 -7.011,5.509c0.331,-0.287 -0.075,-1.427 2.225,-1.929c3.01,-0.657 2.408,-1.552 4.787,-3.58Z" style="fill:#5e4a41;fill-opacity:1;"/><path d="M25.63,54.195c6.6,1.985 9.028,3.085 8.427,5.657c-1.42,-1.254 -1.797,-0.417 -3.339,-1.578c-3.851,-2.9 -4.71,-3.719 -5.088,-4.079Z" style="fill:#a3683c;fill-opacity:1;"/><path d="M41.658,35.491l0.951,0.088c1.895,0.138 2.387,-0.705 3.272,1.06c0.14,0.279 -0.52,0.576 -0.38,0.855l0.139,1.113c-0.37,0.219 -0.378,0.003 -0.759,0.228c-1.554,0.917 -0.571,1.343 -0.728,1.714l-0.092,0.055c-2.213,-2.041 -1.695,-2.285 -2.402,-5.113Z" style="fill:#cc5601;fill-opacity:1;"/><path d="M5.761,47.638c0.479,2.125 1.206,2.258 -0.163,4.067c-0.626,0.157 -1.252,0.313 -1.878,0.47c-2.728,-2.363 -1.446,-3.486 2.042,-4.537Z" style="fill:#897365;fill-opacity:0.84;"/><path d="M43.671,57.28c0.593,0.134 1.187,0.267 1.78,0.401c-4.476,3.9 -4.983,1.377 -6.924,0.565c-0.316,-0.132 -0.694,0.322 -1.01,0.19c2.051,-0.385 4.102,-0.771 6.154,-1.156Z" style="fill:#aa7148;fill-opacity:1;"/><path d="M43.53,31.611c3.751,0.094 4.169,-0.053 6.06,3.212l-2.09,0.692l-0.401,0.236c-0.479,-0.755 -0.959,-1.509 -1.438,-2.264c-0.203,-0.102 -0.027,-0.296 -2.132,-1.876Z" style="fill:#7f3b18;fill-opacity:1;"/><path d="M41.2,23.659l0.94,1.609c-1.059,1.059 -1.031,1.119 -2.471,1.247c-0.427,-0.573 -0.853,-1.146 -1.28,-1.72c0.209,-0.333 -0.209,-0.846 -0,-1.179c0.119,-0.191 0.773,-1.234 2.811,0.043Z" style="fill:#3a190b;fill-opacity:1;"/><path d="M53.944,17.566c-0.413,-0.399 -1.182,-0.251 -1.595,-0.65c-0.663,-0.64 -0.697,-4.074 0.265,-3.298c1.878,1.516 2.181,1.693 1.33,3.947Z" style="fill:#7f6a5c;fill-opacity:1;"/><path d="M45.662,33.487c0.479,0.755 0.959,1.509 1.438,2.264c-0.533,0.581 -1.066,1.162 -1.599,1.743c-0.14,-0.279 0.52,-0.576 0.38,-0.855c-0.884,-1.765 -1.377,-0.922 -3.272,-1.06c1.018,-0.697 2.035,-1.394 3.053,-2.092Z" style="fill:#be4c04;fill-opacity:1;"/><path d="M48.74,26.367c1.653,0.693 1.57,0.726 3.03,1.853c-0.336,0.215 -3.482,4.302 -3.03,-1.853Z" style="fill:#572f1e;fill-opacity:1;"/><path d="M49.59,34.823c1.763,0.881 2.527,1.571 0.818,2.469c-1.88,0.988 -1.657,-0.18 -2.909,-1.776l2.09,-0.692Z" style="fill:#3a1709;fill-opacity:1;"/><path d="M50.346,18.945c1.963,-0.071 1.951,-0.077 2.121,-0.077c0.489,-0 0.384,0.169 0.889,0.169c0.302,0.662 0.604,1.325 0.906,1.987c-2.332,0.108 -2.079,-0.517 -3.916,-2.079Z" style="fill:#b37644;fill-opacity:0.99;"/><path d="M43.245,45.266c0.336,1.144 1.404,-0.081 1.715,0.979c0.038,0.129 -0.232,-0.031 -1.04,1.322c-0.729,1.22 -1.003,0.616 -2.308,0.008c0.544,-0.769 1.089,-1.539 1.633,-2.308Z" style="fill:#4c200e;fill-opacity:1;"/><path d="M44.061,40.604l0.092,-0.055c0.029,0.603 0.058,1.205 0.087,1.808c-0.609,-0.328 -1.219,-0.655 -1.828,-0.983l1.648,-0.771Z" style="fill:#bc4c04;"/><path d="M19.753,20.73c2.452,-1.454 4.438,-4.379 3.117,-1.849c-0.473,0.906 -1.913,1.76 -2.108,1.876c-0.519,0.308 -0.526,-0.313 -1.01,-0.027Z" style="fill:#b1774b;"/><path d="M18.614,54.565c-0.147,1.12 0.857,1.998 -0.21,1.594c-0.946,-0.358 -0.649,-0.731 -1.526,-1.063c0.579,-0.177 1.157,-0.354 1.736,-0.531Z" style="fill:#5f4c44;"/><path d="M29.675,37.563c-0.035,0.743 0.669,0.355 0.637,1.04c-0.06,1.259 -0.608,-0.058 -1.847,-0.175l1.21,-0.865Z" style="fill:#6f2604;"/></g></svg>