<?xml version="1.0" encoding="UTF-8" standalone="no"?><!DOCTYPE svg PUBLIC "-//W3C//DTD SVG 1.1//EN" "http://www.w3.org/Graphics/SVG/1.1/DTD/svg11.dtd"><svg width="100%" height="100%" viewBox="0 0 96 72" version="1.1" xmlns="http://www.w3.org/2000/svg" xmlns:xlink="http://www.w3.org/1999/xlink" xml:space="preserve" xmlns:serif="http://www.serif.com/" style="fill-rule:evenodd;clip-rule:evenodd;"><path d="M12,34c0,-13 11,-13.144 36,-13.144c25,0 36,0.144 36,13.144l0,26l-72,0l0,-26Z" style="fill:#fff;fill-rule:nonzero;stroke:#111;stroke-width:3px;"/><path d="M12,40l72,0" style="fill:none;fill-rule:nonzero;stroke:#111;stroke-width:3px;"/><path d="M54,40l0,6c0,1.104 -0.896,2 -2,2l-8,0c-1.104,0 -2,-0.896 -2,-2l0,-6c0,-1.104 0.896,-2 2,-2l8,0c1.104,0 2,0.896 2,2Z" style="fill:#fff;stroke:#111;stroke-width:3px;"/></svg>