<?xml version="1.0" encoding="UTF-8" standalone="no"?><!DOCTYPE svg PUBLIC "-//W3C//DTD SVG 1.1//EN" "http://www.w3.org/Graphics/SVG/1.1/DTD/svg11.dtd"><svg width="100%" height="100%" viewBox="0 0 96 72" version="1.1" xmlns="http://www.w3.org/2000/svg" xmlns:xlink="http://www.w3.org/1999/xlink" xml:space="preserve" xmlns:serif="http://www.serif.com/" style="fill-rule:evenodd;clip-rule:evenodd;stroke-linejoin:round;stroke-miterlimit:2;"><g><path d="M34.549,19.379c-1.462,-1.789 -1.724,-1.433 -3.97,-1.94c-0.453,0.081 -5.387,0.967 -5.592,1.34c-0.124,0.226 -0.044,1.799 -0.439,2.778c-0.568,1.406 -0.11,1.413 0.586,4.092c0.011,0.515 0.022,1.03 0.033,1.544c-0.593,0.425 -1.185,0.849 -1.778,1.274c0.113,2.323 0.05,2.303 0.447,4.596c-0.252,0.66 -1.407,0.658 -1.66,1.318c-0.256,0.668 0.407,1.405 0.345,2.118c-0.034,0.39 -0.586,0.608 -0.617,0.998c-0.028,0.36 0.437,0.619 0.461,0.979c0.01,0.15 -0.362,0.097 -0.377,0.246c-0.044,0.459 0.235,0.678 0.284,0.716c0.669,0.524 0.831,0.158 1.504,0.685c0.23,0.475 0.46,0.95 0.691,1.425c-1.28,0.146 -1.9,-0.259 -1.782,1.006c0.203,2.178 0.644,2.612 -0.163,2.664c-2.072,0.134 -2.055,0.015 -4.093,0.36c-0.058,0.636 -0.598,6.52 2.339,7.632c1.327,0.503 2.051,-3.918 2.113,-4.296c0.434,-0.351 0.869,-0.701 1.303,-1.052c0.354,0.311 0.709,0.623 1.063,0.934l0.331,0.655c-0.027,0.071 -0.813,0.7 -0.794,2.06c0.003,0.219 -0.042,0.469 0.079,0.652c0.94,1.428 1.252,1.345 1.092,2.337c-0.076,0.469 -0.356,0.889 -0.431,1.358c-0.658,0.242 -1.315,0.483 -1.973,0.725c-3.181,-1.099 -3.253,-0.573 -6.551,-1.202c-0.339,-0.349 -0.677,-0.697 -1.016,-1.046c-2.173,-3.586 -2.02,-3.658 -2.882,-7.759c-0.392,-1.866 -0.618,-9.665 -0.615,-10.076c0.052,-8.157 -0.13,-8.159 1.612,-16.082c1.288,-5.857 12.243,-4.097 17.468,-5.724c4.505,-1.403 31.395,-0.534 31.96,-0.391c10.507,2.668 11.218,0.624 16.993,3.164c4.249,1.869 3.803,21.874 3.091,28.044c-0.624,-0.327 -0.436,-0.506 -1.108,-0.858c-0.904,-0.474 -0.934,-0.197 -1,-0.247c-0.949,-0.724 -1.161,-7.211 -1.182,-7.845l0.052,-1.075c0.031,-0.517 -0.221,-0.446 -0.188,-0.997c0.034,-0.564 0.271,-0.465 0.309,-0.986c0.047,-0.646 -0.148,-5.298 -0.033,-6.004c0.316,-1.947 -0.493,-1.658 -1.928,-3.002c0.178,-1.595 0.743,-1.738 -0.218,-2.794c-1.511,-1.663 -3.485,-1.236 -3.796,-1.169c-1.781,0.385 0.258,1.355 0.122,12.891c-0.287,3.046 -0.023,3.031 -0.368,6.101c-0.043,0.379 0.222,1.143 -0.158,1.132c-0.281,-0.008 -0.072,-0.211 -1.576,-3.146c-0.079,-0.64 -0.157,-1.279 -0.236,-1.919c-0.181,-0.619 -0.363,-1.237 -0.544,-1.856c-1.154,-0.127 -1.123,0.01 -2.257,-0.248c-2.456,-0.559 -1.822,0.705 -1.883,1.072c-0.027,0.16 -0.147,0.113 -0.718,1.892c-0.475,1.92 -0.481,1.906 -0.513,2.074c-0.101,0.541 0.117,0.515 0.02,1.033c-0.237,-0.021 -0.304,-0.444 -0.541,-0.465c-0.476,-0.043 -0.985,0.061 -1.404,0.29c-0.631,0.345 -0.326,0.647 -0.955,1.001c-0.468,0.263 -0.537,-0.161 -1.003,0.101c-2.994,-1.07 -2.925,-1.223 -3.198,-1.215c-0.51,0.016 -0.925,2.338 -1.215,3.999c-0.465,0.151 -0.93,0.302 -1.395,0.453c-0.419,-0.136 -0.656,-0.633 -1.076,-0.77c-0.258,-0.084 -0.534,0.219 -0.799,0.159c-0.683,-0.153 -0.523,-0.499 -1.321,-0.609c-1.172,-0.162 -1.862,0.054 -1.967,0.057c-2.471,-0.067 -2.428,-0.054 -4.897,-0.167c-0.153,-0.208 -0.471,-0.252 -0.623,-0.46c-0.739,-1.01 -0.591,-1.619 -1.511,-1.213c-0.194,0.086 -0.148,0.127 -2.008,1.725c-0.654,0.099 -1.331,-0.08 -1.985,0.019c-0.454,0.069 -0.84,0.402 -1.293,0.477c-0.128,0.021 -0.11,-0.043 -1.506,-0.584c0.108,2.594 -0.049,2.545 -0.257,5.134c-0.181,-0.041 -0.695,0.571 -1.595,-0.357c-0.152,-0.157 -0.212,-0.417 -0.175,-0.633c0.103,-0.599 0.458,-0.43 0.462,-1.03c0.003,-0.522 -0.453,-0.327 -0.45,-0.844c0.172,-1.428 0.167,-1.393 0.188,-2.866l-0.087,-1.101l-0.037,-2.171c0.119,-0.35 0.388,-0.636 0.507,-0.985c0.246,-0.725 0.193,-0.935 0.173,-1.015c-0.157,-0.619 -0.528,-0.386 -0.686,-1.007c-0.12,-0.673 -0.241,-1.346 -0.361,-2.019c-0.304,-2.023 -0.412,-2.012 -0.021,-3.997c0.811,-4.113 0.745,-4.166 -0.524,-8.155c0,0 -1.264,-1.514 -1.374,-1.645l1.078,-0.288Z" style="fill:#68523a;"/><path d="M58.09,43.272c0.701,0.203 0.68,0.166 1.41,0.378c1.119,0.325 0.635,0.754 0.836,0.993c-0.04,3.864 0.046,5.435 0.071,5.907c2.811,-0.479 2.632,-0.885 5.155,-2.145c0.047,0.258 0.33,1.81 0.778,3.185c-0.301,2.694 -0.414,2.634 -0.432,5.355c-0.118,0.646 -38.461,-0.397 -38.461,-0.397c0.394,-0.257 3.089,-2.017 5.043,-3.037c0.706,0.937 0.711,1.313 1.935,0.886c1.296,-0.453 1.197,-0.56 1.309,-0.587c1.035,-0.255 0.876,-0.494 1.788,-1.009c1.2,-0.004 2.4,-0.008 3.601,-0.012c1.16,0.513 1.155,0.406 2.388,0.462c1.413,1.248 1.87,2.765 5.951,1.624c2.974,-0.832 2.934,-0.884 4.058,-1.276c1.103,-0.394 1.119,-0.312 2.109,-0.974c0.202,-0.026 2.338,-0.298 2.496,-0.469c0.095,-0.102 0.006,-0.127 0.078,-1.744l-0.031,-1.204l0.176,-0.797c0.226,-2.586 0.327,-2.559 -0.259,-5.138Z" style="fill:#3b3024;"/><path d="M49.544,26.373c8.228,0.423 8.241,0.011 8.936,0.179c0.487,0.118 0.985,0.468 1.181,0.929c0.093,0.219 -0.206,0.164 -0.431,2.939c-0.014,0.172 -0.086,1.065 -0.825,1.996c-0.073,0.092 -0.754,0.186 -0.603,1.15c0.074,0.47 0.246,0.922 0.32,1.392c-2.201,-0.466 -2.181,-0.471 -4.382,-0.09c-2.084,-0.229 -2.087,-0.278 -4.085,0.352c-0.242,-0.101 -0.225,-0.028 -3.162,-0.866c0.335,-0.618 0.671,-1.235 1.006,-1.853l-0.911,-0.101c1.117,-1.716 1.178,-1.677 1.205,-1.852c0.029,-0.185 0.091,-0.588 -1.722,-1.591c-2.455,1.352 -1.516,2.33 -1.602,2.487c-0.205,0.375 -0.809,0.409 -1.014,0.783c-0.323,0.029 -0.311,0.08 -4.038,0.421c-2.881,0.264 -1.935,-1.243 -1.752,-4.139c0.242,-3.813 2.038,-2.161 5.844,-1.841c0.495,0.042 5.55,-0.266 6.032,-0.295Z" style="fill:#b39166;"/><path d="M37.707,42.36c1.396,0.542 1.379,0.605 1.506,0.584c0.453,-0.075 0.839,-0.408 1.293,-0.477c0.654,-0.099 1.331,0.08 1.985,-0.019c2.081,-0.188 2.043,-0.124 4.143,-0.053c-0.262,0.334 0.416,1.066 -1.407,1.796c-0.374,0.15 -0.388,-0.056 -0.792,0.105c-0.231,-0.007 -2.882,-0.092 -2.882,-0.092c-0.206,-0.025 -4.353,-0.533 -1.682,1.982c1.275,1.2 5.135,-0.383 5.548,-0.552c2.975,-0.189 2.924,-0.18 5.935,-0.387c2.982,0.101 3.351,0.706 5.341,-1.522c0.465,-0.151 0.93,-0.302 1.395,-0.453c0.586,2.578 0.485,2.551 0.259,5.138c-1.53,-0.729 -1.714,-1.272 -2.981,-0.139c-1.862,1.665 -2.458,0.289 -4.602,1.592c-1.932,1.173 -1.997,-0.647 -4.262,-0.42c-1.735,0.174 -5.09,-0.377 -5.28,-0.471c-1.921,-0.945 -4.834,0.631 -5.523,0.901c0.226,-0.763 -0.172,-2.115 0.053,-2.878c0.208,-2.589 2.061,-2.04 1.953,-4.634Z" style="fill:#6f5233;"/><path d="M58.349,48.41l-0.176,0.797c0.01,0.401 0.021,0.802 0.031,1.204c-0.072,1.617 0.017,1.642 -0.078,1.744c-0.159,0.171 -2.295,0.444 -2.496,0.469c-0.158,-0.354 0.176,-0.81 0.018,-1.164c-0.101,-0.227 -1.793,-0.529 -2.065,-0.324c-0.579,0.437 -0.574,1.409 -1.153,1.846c-2.861,-2.054 -3.283,-1.482 -7.907,-0.349c-0.575,-0.35 -0.742,-1.181 -1.317,-1.532c-0.083,-0.05 -1.635,0.317 -1.698,0.404c-0.263,0.361 -0.122,0.922 -0.385,1.283c-1.2,0.004 -2.4,0.008 -3.601,0.012c-0.912,0.514 -0.753,0.754 -1.788,1.009c-0.111,0.027 -0.013,0.134 -1.309,0.587c-1.224,0.427 -1.229,0.052 -1.935,-0.886c-1.208,-1.913 -0.92,-2.016 -0.666,-4.26c1.322,0.266 1.3,0.248 2.552,0.732c0.799,-0.066 1.598,-0.816 2.397,-0.882c0.69,-0.27 2.53,-1.073 4.451,-0.129c0.19,0.093 3.544,0.645 5.28,0.471c2.265,-0.227 2.33,1.594 4.262,0.42c2.144,-1.302 2.74,0.073 4.602,-1.592c1.267,-1.132 1.451,-0.589 2.981,0.139Z" style="fill:#423322;"/><path d="M60.327,19.395c0.697,0.153 1.394,0.306 2.091,0.46l1.118,-3.07l2.015,0.38c0.722,0.55 0.311,3.621 1.033,4.171c-0.102,1.039 -0.204,2.078 -0.306,3.117c-0.005,0.726 -0.011,1.452 -0.016,2.178c-0.375,4.332 0.024,4.342 -0.057,4.71c-0.433,1.994 -0.417,9.203 -2.101,10.424l-4.521,-2.5c-1.357,-2.57 1.236,-9.25 0.672,-10.804c-1.599,-4.402 0.235,-4.38 0.071,-9.066Z" style="fill:#a59a8c;"/><path d="M29.686,40.27c1.502,-0.569 1.525,-0.82 3.02,-0.261c-0.339,0.595 -1.3,0.643 -1.639,1.238c-0.212,0.372 0.202,0.838 0.211,1.266c0.019,0.879 -0.125,0.835 -0.867,2.77l-0.47,1.636l-0.207,0.831c-2.012,0.384 -2.011,0.343 -2.173,0.415c-1.351,0.601 -1.202,0.764 -1.322,0.796c-0.324,0.088 -0.67,-0.255 -0.994,-0.166c-0.354,-0.311 -0.709,-0.623 -1.063,-0.934c-0.434,0.351 -0.869,0.701 -1.303,1.052c-0.062,0.378 -0.786,4.799 -2.113,4.296c-2.937,-1.113 -2.397,-6.996 -2.339,-7.632c2.038,-0.345 2.021,-0.225 4.093,-0.36c0.807,-0.052 0.365,-0.487 0.163,-2.664c-0.118,-1.265 0.503,-0.859 1.782,-1.006l0.748,0.359c0.002,0.506 0.003,1.012 0.005,1.518c0.047,0.385 0.094,0.77 0.141,1.155c0.248,0.079 0.277,0.5 0.525,0.579c0.117,0.037 0.071,-0.14 1.513,-0.273c2.375,-0.218 1.873,-1.106 2.434,-1.437c-0.141,-3.175 -0.136,-3.121 -0.145,-3.18Z" style="fill:#493a2a;"/><path d="M33.471,19.667c0.11,0.132 1.374,1.645 1.374,1.645c1.268,3.989 1.335,4.042 0.524,8.155c-0.391,1.985 -0.283,1.975 0.021,3.997c-2.781,1.194 -3.157,0.597 -3.619,1.518c-0.089,0.177 0.109,0.417 0.02,0.594c-0.367,1.472 0.021,2.001 -1.458,2.163c-0.185,0.02 -0.267,-0.349 -0.452,-0.329c0.008,-3.96 0.29,-3.911 0.833,-7.852c0.071,-0.082 0.884,-1.026 0.884,-1.026c0.03,-0.171 -0.04,-0.154 -0.55,-2.092c0.712,-6.042 0.122,-6.831 1.517,-6.822c0.303,0.002 0.604,0.045 0.906,0.047Z" style="fill:#a69b8d;"/><path d="M78.53,24.498c1.435,1.344 2.244,1.056 1.928,3.002c-0.115,0.706 0.08,5.358 0.033,6.004c-0.038,0.521 -0.274,0.422 -0.309,0.986c-0.034,0.551 0.219,0.48 0.188,0.997c-2.534,1.601 -2.206,2.06 -1.769,5.067c-4.544,0.609 -2.804,2.947 -2.895,3.099c-0.48,0.803 -0.964,0.233 -1.483,1.037c-0.265,0.411 0.641,0.268 0.372,0.685c-0.149,-0.234 -0.677,0.333 -0.827,0.099c-0.194,-0.303 0.157,-0.703 0.213,-1.059c0.026,-0.168 0.233,-1.471 -0.055,-2.12c-0.613,-1.385 -1.209,-0.698 -1.458,-0.842c0.036,-0.642 0.072,-1.285 0.108,-1.927l-0.043,-2.014c1.503,2.935 1.294,3.138 1.576,3.146c0.381,0.011 0.116,-0.753 0.158,-1.132c0.345,-3.07 0.082,-3.055 0.368,-6.101c5.204,2.21 3.787,-2.006 3.732,-2.924c-0.18,-3.015 -0.114,-2.968 0.159,-6.003Z" style="fill:#605547;"/><path d="M78.53,24.498c-0.274,3.035 -0.34,2.988 -0.159,6.003c0.055,0.919 1.471,5.135 -3.732,2.924c0.136,-11.536 -1.903,-12.505 -0.122,-12.891c0.311,-0.067 2.285,-0.494 3.796,1.169c0.96,1.056 0.396,1.199 0.218,2.794Z" style="fill:#9b9082;"/><path d="M80.318,36.562c0.021,0.634 0.233,7.121 1.182,7.845c0.066,0.05 0.096,-0.227 1,0.247c0.672,0.352 0.483,0.53 1.108,0.858c-1.001,6.544 -1.464,6.663 -2.705,8.283c-0.143,-0.232 -1.31,-0.309 -1.418,-2.295c-0.004,-0.067 -0.04,-0.729 -0.12,-0.834c-1.179,-1.55 -1.197,0.12 -2.613,1.964c-0.138,-0.361 0.086,-0.798 -0.052,-1.159c-0.261,-0.681 -0.97,-1.167 -1.113,-1.882c-0.162,-0.81 0.382,-0.456 1.959,-0.844c0.47,-0.09 0.313,1.295 0.783,1.205c0.497,-0.096 0.664,-1.357 0.681,-1.486c0.069,-0.521 -0.436,-0.365 -0.367,-0.885c-0.447,-2.137 -0.486,-2.119 -0.483,-2.308c0.004,-0.277 0.373,-0.464 0.377,-0.742c0.037,-0.409 0.474,-0.712 0.511,-1.121c0.021,-0.23 -0.283,-0.145 -0.447,-2.852c1.312,-2.025 1.647,-3.652 1.717,-3.993Z" style="fill:#3e2e1e;"/><path d="M42.461,19.337l1.02,0.374c0.626,0.051 1.2,0.411 1.826,0.462c0.11,0.009 0.092,-0.045 1.239,-0.603c2.492,0.285 2.618,0.268 2.844,0.237c0.954,-0.132 0.925,-0.031 1.898,-0.064l0.446,0.305c-0.816,0.711 -0.414,0.991 -1.234,1.705c-0.073,0.064 -0.15,0.131 -1.154,0.376c-1.21,0.295 -1.042,-0.734 -2.283,-0.628c-1.508,0.128 -0.638,2.761 -0.562,2.992c-3.012,0.38 -2.977,-0.254 -5.98,-0.126c-1.767,0.075 -2.561,0.832 -2.671,-0.931c-0.013,-0.201 -0.041,-0.658 0.035,-2.517c1.784,-1.825 2.005,-1.563 4.576,-1.581Z" style="fill:#b49366;"/><path d="M17.227,33.615c0.148,-5.607 0.568,-5.52 1.211,-11.133c0.254,-2.22 0.831,-2.188 3.073,-2.014c2.584,0.201 1.001,1.479 0.953,4.031c-0.029,1.55 -0.947,1.602 -1.17,3.953c-0.34,3.589 0.16,3.813 -0.967,4.773c-0.19,0.162 -0.64,0.545 -3.1,0.391Z" style="fill:#9f9384;"/><path d="M73.507,51.496c0.063,0.092 0.787,1.144 0.787,1.144c0.152,0.068 1.721,0.764 1.963,0.692c0.274,-0.082 0.221,-0.62 0.495,-0.701c1.416,-1.844 1.434,-3.514 2.613,-1.964c0.08,0.105 0.116,0.767 0.12,0.834c0.108,1.986 1.275,2.063 1.418,2.295l-0.563,0.618c-3.013,1.975 -3.046,1.909 -6.648,2.487c-1.604,0.163 -1.592,-0.025 -3.202,0.325c-1.376,0.299 -2.056,-0.42 -2.156,-0.441c0.836,-2.247 0.765,-2.271 0.902,-2.426c0.478,-0.537 1.29,-0.668 1.826,-1.146c0.213,-0.19 0.109,-0.618 0.34,-0.785c0,0 1.936,-0.858 2.105,-0.933Z" style="fill:#231c15;"/><path d="M27.5,26.497c0.511,0.435 1.494,-0.629 2.005,-0.194c0.566,0.482 0.095,1.505 0.354,2.202c0.158,0.425 0.697,0.631 0.855,1.056c-0.543,3.94 -0.825,3.892 -0.833,7.852c-0.198,1.79 -0.2,1.779 -0.214,1.934c-0.042,0.472 0.064,0.419 0.019,0.925c-1.085,-0.463 -2.17,-0.927 -3.255,-1.39c0.136,-0.622 0.272,-1.245 0.408,-1.867c0.105,-0.236 0.648,0.047 0.752,-0.189c0.083,-0.187 0.571,-1.292 -1.098,-2.311c-0.237,-0.144 -0.575,-0.037 -0.812,-0.181c0.487,-0.221 2.981,-1.308 2.908,-1.584c-0.311,-1.17 -0.387,-1.102 -1.317,-1.947c-0.843,-0.766 -0.539,-0.979 -0.841,-1.207c-0.207,-0.157 -0.225,-0.083 -3.044,-1.127c0.593,-0.425 1.185,-0.849 1.778,-1.274c0.778,-0.232 1.556,-0.465 2.334,-0.697Z" style="fill:#9a784f;"/><path d="M72.47,41.454c0.249,0.144 0.845,-0.543 1.458,0.842c0.287,0.649 0.081,1.953 0.055,2.12c-0.056,0.356 -0.407,0.755 -0.213,1.059c0.149,0.234 0.677,-0.333 0.827,-0.099c0.22,-0.008 2.745,-0.094 2.745,-0.094c0.454,-0.128 0.743,-0.627 1.197,-0.754c-0.004,0.277 -0.373,0.464 -0.377,0.742c-0.003,0.189 0.036,0.171 0.483,2.308c-0.366,0.389 -0.732,0.778 -1.098,1.167c-1.577,0.388 -2.121,0.034 -1.959,0.844c0.143,0.715 0.852,1.201 1.113,1.882c0.138,0.361 -0.086,0.798 0.052,1.159c-0.274,0.082 -0.221,0.62 -0.495,0.701c-0.243,0.072 -1.811,-0.624 -1.963,-0.692c-0,-0 -0.724,-1.053 -0.787,-1.144c-0.11,-0.909 -0.274,-2.427 -1.005,-2.88c-0.28,-0.174 -0.706,0.096 -0.986,-0.078c0.065,-0.168 0.81,-2.095 0.81,-2.095c0.27,-2.765 -1.074,-3.972 -1.136,-4.138c0.427,-0.284 0.853,-0.568 1.28,-0.851Z" style="fill:#3e352a;"/><path d="M66.405,39.56c0.33,0.008 0.59,0.358 0.92,0.365c0.415,0.01 0.792,-0.272 1.205,-0.314c0.182,-0.019 0.126,0.222 2.257,0.384c0.148,0.011 0.133,-0.035 1.792,-0.469c-0.036,0.642 -0.072,1.285 -0.108,1.927c-0.427,0.284 -0.853,0.568 -1.28,0.851c-1.849,2.675 -1.739,2.742 -1.921,2.958c-0.264,0.313 -0.687,0.48 -0.917,0.819c-0.356,0.524 -0.418,1.22 -0.805,1.721c-0.348,0.451 -0.938,0.63 -1.031,0.658c-0.473,0.143 -0.439,-0.213 -0.953,-0.057c-0.463,-1.539 -0.455,-1.49 -0.857,-3.041l0.125,-1.063c0.173,-0.212 0.129,-0.552 0.302,-0.764c0.406,-0.497 0.977,-0.146 1.302,-2.036c0.168,-0.975 -0.014,-0.949 -0.029,-1.941Z" style="fill:#7c5f3f;"/><path d="M51.734,20.047l0.817,0.308c2.6,1.723 2.747,1.427 5.896,1.182c-0.009,1.724 0.767,2.889 -1.912,3.118c-0.8,0.068 -0.79,-0.134 -10.033,-0.163c-0.076,-0.231 -0.947,-2.864 0.562,-2.992c1.24,-0.106 1.073,0.923 2.283,0.628c1.003,-0.245 1.081,-0.312 1.154,-0.376c0.82,-0.715 0.418,-0.994 1.234,-1.705Z" style="fill:#c4a377;"/><path d="M39.468,34.469c3.522,0.167 3.486,-0.138 7.025,-0.116c2.937,0.837 2.92,0.765 3.162,0.866c0.344,0.863 0.687,1.726 1.031,2.589c-2.659,0.37 -2.635,0.478 -5.296,0.139c-0.792,-0.101 -3.211,0.501 -4.719,-0.602c-1.368,-1 -1.113,-1.196 -1.203,-2.876Z" style="fill:#b69364;"/><path d="M47.541,16.594c-0.054,0.21 -0.393,0.264 -0.447,0.475c-0.231,0.899 0.058,0.903 -0.142,1.816c-0.088,0.401 -0.312,0.253 -0.407,0.686c-1.148,0.559 -1.129,0.612 -1.239,0.603c-0.626,-0.051 -1.2,-0.411 -1.826,-0.462c-0.34,-0.125 -0.68,-0.249 -1.02,-0.374c-2.571,0.017 -2.792,-0.244 -4.576,1.581c-0.288,-0.306 -0.463,-0.708 -0.751,-1.014c-0.349,-0.371 -0.541,-0.41 -0.599,-0.422c-0.983,-0.199 -0.978,0.102 -1.987,-0.103c0.405,-0.451 0.546,-0.194 0.927,-0.618c1.168,-1.298 0.903,-1.444 1.014,-1.541c1.489,-1.298 10.168,-0.689 11.051,-0.627Z" style="fill:#8a6e49;"/><path d="M30.578,17.439c-2.186,4.781 -0.057,7.04 -1.741,7.303c-0.321,0.05 -0.708,-0.146 -0.975,0.04c-0.336,0.235 -0.274,0.833 -0.61,1.067c-0.706,-0.067 -1.413,-0.134 -2.119,-0.201c-0.696,-2.679 -1.154,-2.686 -0.586,-4.092c0.396,-0.979 0.316,-2.552 0.439,-2.778c0.204,-0.373 5.139,-1.258 5.592,-1.34Z" style="fill:#927149;"/><path d="M29.941,46.92c0.628,0.777 1.255,1.553 1.883,2.33c-0.254,2.244 -0.542,2.347 0.666,4.26c-1.954,1.02 -4.648,2.78 -5.043,3.037c-0.642,-0.23 -1.284,-0.459 -1.926,-0.689c0.076,-0.469 0.356,-0.889 0.431,-1.358c0.16,-0.992 -0.152,-0.909 -1.092,-2.337c-0.12,-0.183 -0.076,-0.433 -0.079,-0.652c-0.019,-1.36 0.767,-1.989 0.794,-2.06c0.601,0.494 0.687,0.333 1.156,0.95c1.314,1.73 1.021,3.481 1.695,3.204c1.732,-0.711 1.19,-1.199 1.284,-3.073c0.011,-0.222 -0.041,-0.186 0.023,-2.78l0.207,-0.831Z" style="fill:#2f2216;"/><path d="M71.19,42.305c0.063,0.165 1.407,1.372 1.136,4.138c0,0 -0.745,1.928 -0.81,2.095c-2.344,3.28 -3.039,3.016 -5.176,3.051c-0.448,-1.375 -0.731,-2.927 -0.778,-3.185c0.514,-0.156 0.48,0.2 0.953,0.057c0.094,-0.028 0.683,-0.207 1.031,-0.658c0.387,-0.501 0.45,-1.197 0.805,-1.721c0.23,-0.339 0.653,-0.505 0.917,-0.819c0.182,-0.216 0.072,-0.283 1.921,-2.958Z" style="fill:#5c4329;"/><path d="M71.516,48.538c0.28,0.174 0.706,-0.096 0.986,0.078c0.731,0.453 0.895,1.97 1.005,2.88c-0.168,0.075 -2.105,0.933 -2.105,0.933c-0.231,0.166 -0.128,0.595 -0.34,0.785c-0.537,0.478 -1.348,0.609 -1.826,1.146c-0.138,0.155 -0.066,0.179 -0.902,2.426c-0.294,-0.062 -0.496,-0.371 -0.79,-0.433c-1.07,-0.224 -1.633,0.591 -1.635,0.592c0.018,-2.721 0.131,-2.661 0.432,-5.355c2.137,-0.035 2.832,0.228 5.176,-3.051Z" style="fill:#342517;"/><path d="M62.503,40.488c1.449,1.27 2.236,0.952 2.327,3.813l-0.125,1.063c-0.176,0.008 -2.196,0.101 -2.196,0.101c-0.202,-0.079 -0.153,-0.518 -0.369,-0.535c-0.439,-0.034 -0.163,0.528 -0.59,0.46c-0.759,-0.121 -0.48,-0.63 -1.214,-0.747c-0.201,-0.238 0.283,-0.668 -0.836,-0.993c-0.73,-0.212 -0.709,-0.174 -1.41,-0.378c0.29,-1.661 0.705,-3.983 1.215,-3.999c0.274,-0.009 0.205,0.145 3.198,1.215Z" style="fill:#564a3b;"/><path d="M66.584,21.335c0.303,0.033 1.883,0.207 3.793,0.323c0.59,0.293 4.036,-0.007 0.936,4.879c-0.41,-0.144 -0.368,-0.903 -0.778,-1.047c-0.026,-0.009 -2.171,0.642 -4.273,1.14c0.005,-0.726 0.011,-1.452 0.016,-2.178c0.102,-1.039 0.204,-2.078 0.306,-3.117Z" style="fill:#a17e52;"/><path d="M30.578,17.439c2.247,0.508 2.509,0.152 3.97,1.94l-1.078,0.288c-0.303,-0.002 -0.604,-0.045 -0.906,-0.047c-1.395,-0.01 -0.805,0.779 -1.517,6.822c-0.134,1.582 -0.213,1.542 -0.334,3.118c-0.158,-0.425 -0.697,-0.631 -0.855,-1.056c-0.259,-0.697 0.212,-1.72 -0.354,-2.202c-0.511,-0.435 -1.494,0.629 -2.005,0.194l-0.248,-0.647c0.336,-0.235 0.274,-0.833 0.61,-1.067c0.267,-0.186 0.654,0.01 0.975,-0.04c1.683,-0.264 -0.445,-2.522 1.741,-7.303Z" style="fill:#5f5141;"/><path d="M44.523,52.633c4.624,-1.133 5.046,-1.705 7.907,0.349l1.091,0.616c-1.125,0.392 -1.084,0.445 -4.058,1.276c-4.082,1.141 -4.538,-0.376 -5.951,-1.624l1.012,-0.617Z" style="fill:#4f3822;"/><path d="M32.706,40.009c0.558,0.282 1.115,0.564 1.673,0.846c0.314,1.197 0.235,1.262 0.338,1.289c0.394,0.105 0.769,-0.485 1.162,-0.38c-0.02,1.473 -0.016,1.438 -0.188,2.866c-0.248,0.134 -0.056,0.655 -0.304,0.789c-0.131,0.071 -0.136,0.009 -1.855,0.127c-1.595,0.064 -1.561,0.027 -3.121,-0.263c0.741,-1.935 0.886,-1.891 0.867,-2.77c-0.009,-0.428 -0.423,-0.894 -0.211,-1.266c0.339,-0.595 1.3,-0.643 1.639,-1.238Z" style="fill:#584d40;"/><path d="M60.336,44.642c0.734,0.117 0.455,0.627 1.214,0.747c0.427,0.068 0.151,-0.494 0.59,-0.46c0.216,0.017 0.167,0.457 0.369,0.535c0,0 2.021,-0.093 2.196,-0.101c0.402,1.551 0.395,1.502 0.857,3.041c-2.523,1.26 -2.344,1.665 -5.155,2.145c-0.026,-0.472 -0.111,-2.042 -0.071,-5.907Z" style="fill:#433a2f;"/><path d="M31.791,35.578c0.303,0.229 0.351,0.704 0.654,0.934c0.225,0.17 0.578,0.051 0.826,0.185c0.232,0.126 0.298,0.521 0.558,0.562c0.365,0.058 0.133,-0.423 0.506,-0.392c0.787,0.065 0.63,0.485 1.433,0.551l-0.012,1.074l0.037,2.171l-1.414,0.192c-0.558,-0.282 -1.115,-0.564 -1.673,-0.846c-1.496,-0.559 -1.519,-0.308 -3.02,0.261c0.045,-0.506 -0.061,-0.453 -0.019,-0.925c0.014,-0.155 0.016,-0.143 0.214,-1.934c0.185,-0.02 0.267,0.349 0.452,0.329c1.478,-0.162 1.091,-0.69 1.458,-2.163Z" style="fill:#796c5c;"/><path d="M23.388,28.467c2.819,1.044 2.837,0.971 3.044,1.127c0.301,0.228 -0.002,0.441 0.841,1.207c0.929,0.844 1.006,0.777 1.317,1.947c0.073,0.276 -2.421,1.362 -2.908,1.584c-0.414,-0.257 -0.829,-0.514 -1.243,-0.77l-0.604,-0.498c-0.397,-2.294 -0.333,-2.273 -0.447,-4.596Z" style="fill:#9a764b;"/><path d="M53.456,17.445c0.391,-0.185 0.105,-1.015 0.496,-1.199c0.195,-0.092 0.186,0.084 2.69,0.128c1.979,0.035 1.774,0.786 1.348,2.75c-2.86,-0.01 -2.88,-0.036 -5.439,1.232l-0.817,-0.308l-0.446,-0.305c0.14,-0.415 -0.113,-0.898 0.027,-1.312c0.06,-0.179 0.144,-0.066 2.14,-0.985Z" style="fill:#7f623f;"/><path d="M72.3,35.594c0.079,0.64 0.157,1.279 0.236,1.919l0.043,2.014c-1.659,0.435 -1.644,0.481 -1.792,0.469c-2.131,-0.162 -2.075,-0.403 -2.257,-0.384c-0.413,0.043 -0.79,0.324 -1.205,0.314c-0.33,-0.008 -0.59,-0.358 -0.92,-0.365c0.097,-0.517 -0.121,-0.492 -0.02,-1.033c0.031,-0.168 0.038,-0.154 0.513,-2.074c0.37,0.126 0.438,0.723 0.809,0.849c0.542,0.184 1.145,-0.003 1.718,0.01c0.96,0.023 0.901,-0.161 1.602,-0.813c0.382,-0.355 0.892,-0.552 1.274,-0.906Z" style="fill:#916f46;"/><path d="M46.635,42.395c2.469,0.113 2.426,0.101 4.897,0.167c-0.059,0.895 -0.118,1.79 -0.177,2.684c-3.011,0.207 -2.96,0.198 -5.935,0.387l-0.984,-1.338c0.404,-0.162 0.418,0.044 0.792,-0.105c1.823,-0.73 1.145,-1.462 1.407,-1.796Z" style="fill:#8b6f4d;"/><path d="M47.541,16.594c3.859,-0.325 3.834,-0.335 4.168,-0.351c2.002,-0.093 1.373,0.945 1.746,1.202c-1.997,0.919 -2.08,0.806 -2.14,0.985c-0.14,0.415 0.113,0.898 -0.027,1.312c-0.973,0.033 -0.944,-0.068 -1.898,0.064c-0.226,0.031 -0.353,0.049 -2.844,-0.237c0.095,-0.432 0.319,-0.285 0.407,-0.686c0.2,-0.913 -0.089,-0.917 0.142,-1.816c0.054,-0.21 0.393,-0.264 0.447,-0.475Z" style="fill:#ad8d62;"/><path d="M71.756,33.738c0.181,0.619 0.363,1.237 0.544,1.856c-0.382,0.355 -0.892,0.552 -1.274,0.906c-0.701,0.652 -0.642,0.836 -1.602,0.813c-0.572,-0.014 -1.176,0.174 -1.718,-0.01c-0.37,-0.126 -0.438,-0.723 -0.809,-0.849c0.571,-1.779 0.691,-1.733 0.718,-1.892c0.062,-0.367 -0.572,-1.63 1.883,-1.072c1.134,0.258 1.103,0.121 2.257,0.248Z" style="fill:#9b7c55;"/><path d="M70.486,18.514c-0.1,1.586 -0.015,1.556 -0.109,3.144c-1.91,-0.116 -3.49,-0.29 -3.793,-0.323c-0.722,-0.55 -0.822,-2.705 -0.404,-3.052c0.323,-0.268 0.85,0.023 1.256,-0.083c0.27,-0.071 0.437,-0.453 0.716,-0.434c0.196,0.013 0.049,0.463 2.333,0.749Z" style="fill:#8c6e49;"/><path d="M53.74,34.867c2.202,-0.381 2.181,-0.375 4.382,0.09c0.869,1.366 1.77,1.723 0.355,2.527c-0.694,0.395 -0.741,-0.142 -4.927,-0.109c-1.262,-1.897 0.085,-2.199 0.189,-2.509Z" style="fill:#bd9c6f;"/><path d="M78.601,40.555c0.164,2.708 0.468,2.622 0.447,2.852c-0.037,0.409 -0.474,0.712 -0.511,1.121c-0.454,0.128 -0.743,0.627 -1.197,0.754c0,0 -2.525,0.087 -2.745,0.094c0.269,-0.417 -0.638,-0.274 -0.372,-0.685c0.519,-0.804 1.003,-0.234 1.483,-1.037c0.091,-0.152 -1.65,-2.49 2.895,-3.099Z" style="fill:#53493c;"/><path d="M29.734,47.751c-0.064,2.594 -0.012,2.558 -0.023,2.78c-0.094,1.874 0.448,2.362 -1.284,3.073c-0.674,0.277 -0.381,-1.474 -1.695,-3.204c-0.469,-0.617 -0.555,-0.456 -1.156,-0.95l-0.331,-0.655c0.324,-0.088 0.67,0.255 0.994,0.166c0.119,-0.032 -0.029,-0.195 1.322,-0.796c0.162,-0.072 0.161,-0.031 2.173,-0.415Z" style="fill:#4a3521;"/><path d="M35.692,44.63c-0.003,0.517 0.453,0.322 0.45,0.844c-0.004,0.599 -0.359,0.431 -0.462,1.03c-0.037,0.216 0.023,0.476 0.175,0.633c0.9,0.928 0.292,6.562 0.067,7.325c-0.799,0.066 -0.901,-0.066 -1.7,-0c-0.419,-1.238 -0.03,-5.739 -0.444,-6.961c-0.466,-1.377 -0.681,-1.225 -0.696,-1.345c-0.031,-0.251 0.482,-0.359 0.451,-0.609c1.719,-0.118 1.724,-0.056 1.855,-0.127c0.248,-0.134 0.056,-0.655 0.304,-0.789Z" style="fill:#40382e;"/><path d="M23.795,38.318c1.549,0.275 1.54,0.271 1.673,0.297c0.527,0.104 0.464,0.166 0.963,0.265c1.085,0.463 2.17,0.927 3.255,1.39c-1.075,0.525 -2.151,1.049 -3.226,1.574l-1.246,0.063l-0.748,-0.359c-0.23,-0.475 -0.46,-0.95 -0.691,-1.425c0.007,-0.602 0.013,-1.203 0.02,-1.805Z" style="fill:#785836;"/><path d="M44.435,44.297l0.984,1.338c-0.413,0.169 -4.273,1.753 -5.548,0.552c-2.671,-2.515 1.475,-2.007 1.682,-1.982c0,0 2.651,0.084 2.882,0.092Z" style="fill:#86643f;"/><path d="M57.99,19.123c0.295,1.2 0.291,1.167 0.456,2.414c-3.149,0.245 -3.295,0.54 -5.896,-1.182c2.56,-1.268 2.579,-1.242 5.439,-1.232Z" style="fill:#a48155;"/><path d="M30.412,45.283c1.56,0.291 1.525,0.327 3.121,0.263c0.031,0.251 -0.482,0.359 -0.451,0.609c0.015,0.12 0.23,-0.032 0.696,1.345c0.414,1.222 0.025,5.723 0.444,6.961c-1.252,-0.485 -1.19,-0.262 -2.513,-0.529c-0.628,-0.777 -1.139,-6.237 -1.767,-7.014l0.47,-1.636Z" style="fill:#473d32;"/><path d="M22.43,40.358c-0.003,0.517 0.453,0.322 0.45,0.844c-0.004,0.599 -0.359,0.431 -0.462,1.03c-0.037,0.216 0.023,0.476 0.175,0.633c0.9,0.928 0.292,6.562 0.067,7.325c-0.799,0.066 -0.901,-0.066 -1.7,-0c-0.419,-1.238 -0.03,-5.739 -0.444,-6.961c-0.466,-1.377 -0.681,-1.225 -0.696,-1.345c-0.031,-0.251 0.482,-0.359 0.451,-0.609c1.719,-0.118 1.724,-0.056 1.855,-0.127c0.248,-0.134 0.056,-0.655 0.304,-0.789Z" style="fill:#40382e;"/><path d="M17.15,41.011c1.56,0.291 1.525,0.327 3.121,0.263c0.031,0.251 -0.482,0.359 -0.451,0.609c0.015,0.12 0.23,-0.032 0.696,1.345c0.414,1.222 0.025,5.723 0.444,6.961c-1.252,-0.485 -1.19,-0.262 -2.513,-0.529c-0.628,-0.777 -1.139,-6.237 -1.767,-7.014l0.47,-1.636Z" style="fill:#473d32;"/><path d="M51.532,42.563c0.104,-0.003 0.795,-0.22 1.967,-0.057c0.798,0.11 0.639,0.457 1.321,0.609c0.265,0.059 0.541,-0.243 0.799,-0.159c0.419,0.136 0.656,0.633 1.076,0.77c-1.99,2.229 -2.358,1.624 -5.341,1.522c0.059,-0.895 0.118,-1.79 0.177,-2.684Z" style="fill:#755d40;"/><path d="M23.834,33.064l0.604,0.498c0.045,0.669 0.089,1.338 0.134,2.007c-1.076,1.095 -0.96,1.2 -0.778,2.75c-0.007,0.602 -0.013,1.203 -0.02,1.805c-0.673,-0.527 -0.834,-0.16 -1.504,-0.685c-0.048,-0.038 -0.328,-0.257 -0.284,-0.716c0.014,-0.149 0.387,-0.096 0.377,-0.246c-0.025,-0.36 -0.49,-0.619 -0.461,-0.979c0.031,-0.39 0.583,-0.609 0.617,-0.998c0.062,-0.712 -0.601,-1.45 -0.345,-2.118c0.252,-0.66 1.407,-0.658 1.66,-1.318Z" style="fill:#634e35;"/><path d="M35.389,33.465c0.12,0.673 0.241,1.346 0.361,2.019c0.006,0.645 0.012,1.289 0.018,1.934c-0.803,-0.066 -0.646,-0.487 -1.433,-0.551c-0.373,-0.031 -0.141,0.45 -0.506,0.392c-0.261,-0.042 -0.326,-0.437 -0.558,-0.562c-0.248,-0.134 -0.601,-0.015 -0.826,-0.185c-0.303,-0.229 -0.351,-0.704 -0.654,-0.934c0.089,-0.177 -0.109,-0.417 -0.02,-0.594c0.462,-0.922 0.838,-0.324 3.619,-1.518Z" style="fill:#685d50;"/><path d="M20.96,32.254c0.12,0.673 -0.397,2.131 -0.277,2.804c0.006,0.645 2.191,5.499 2.197,6.143c-0.803,-0.066 -2.057,1 -2.844,0.935c-0.373,-0.031 -1.21,-0.831 -1.575,-0.889c-0.261,-0.042 -1.194,0.293 -1.427,0.167c-0.248,-0.134 0.568,-5.159 0.343,-5.329c-0.303,-0.229 -0.351,-0.704 -0.654,-0.934c0.089,-0.177 0.353,-1.463 0.442,-1.641c0.462,-0.922 1.013,-0.062 3.794,-1.257Z" style="fill:#685d50;"/><path d="M16.996,34.4c0.545,2.026 0.461,1.997 0.81,4.063c-0.525,1.537 -0.517,1.496 -0.9,3.102c-0.358,-0.499 0.446,-0.603 0.09,-1.098c-0.632,-0.883 -1.085,-0.313 -1.712,-1.166c-0.163,-0.222 0.238,-0.504 0.285,-0.776c0.34,-1.98 -0.321,-1.891 -0.272,-2.048c0,-0 1.563,-1.91 1.699,-2.076Z" style="fill:#513e2a;"/><path d="M25.214,41.907l1.246,-0.063c0.472,0.267 0.703,0.859 1.175,1.127c0,0 2.021,0.441 2.196,0.479c-0.561,0.331 -0.059,1.219 -2.434,1.437c-1.442,0.133 -1.396,0.31 -1.513,0.273c-0.248,-0.079 -0.277,-0.5 -0.525,-0.579l-0.141,-1.155c-0.002,-0.506 -0.003,-1.012 -0.005,-1.518Z" style="fill:#715436;"/><path d="M66.405,39.56c0.015,0.992 0.197,0.966 0.029,1.941c-0.326,1.889 -0.896,1.539 -1.302,2.036c-0.173,0.212 -0.129,0.552 -0.302,0.764c-0.091,-2.861 -0.878,-2.543 -2.327,-3.813c0.466,-0.262 0.535,0.162 1.003,-0.101c0.629,-0.354 0.324,-0.656 0.955,-1.001c0.419,-0.229 0.928,-0.333 1.404,-0.29c0.237,0.021 0.304,0.444 0.541,0.465Z" style="fill:#675a4b;"/><path d="M51.982,56.674c0.015,0.992 0.168,3.395 0,4.369c-0.326,1.889 -6.858,1.762 -7.927,0.447c-0.173,-0.212 -0.204,-4.824 0.272,-4.781c0.237,0.021 7.418,-0.056 7.655,-0.035Z" style="fill:#675a4b;"/><path d="M46.073,28.957c1.813,1.003 1.75,1.406 1.722,1.591c-0.027,0.175 -0.089,0.136 -1.205,1.852c-0.25,-0.025 -0.205,0.007 -3.132,-0.172c0.205,-0.375 0.809,-0.409 1.014,-0.783c0.086,-0.157 -0.853,-1.135 1.602,-2.487Z" style="fill:#a9885d;"/><path d="M53.74,34.867c-0.104,0.309 -1.451,0.612 -0.189,2.509c-0.306,0.057 -0.616,-0.199 -0.922,-0.143c-0.159,0.029 -0.144,0.043 -1.943,0.574c-0.344,-0.863 -0.687,-1.726 -1.031,-2.589c1.998,-0.63 2.001,-0.581 4.085,-0.352Z" style="fill:#a9885c;"/><path d="M24.572,35.568c1.182,0.678 1.07,0.794 2.266,1.444c-0.136,0.622 -0.272,1.245 -0.408,1.867c-0.499,-0.098 -0.436,-0.161 -0.963,-0.265c-0.133,-0.026 -0.124,-0.022 -1.673,-0.297c-0.183,-1.55 -0.299,-1.655 0.778,-2.75Z" style="fill:#967248;"/><path d="M62.453,33.568l1.106,0.623c1.98,3.829 -2.055,2.397 -2.237,1.307c-0.262,-1.567 1.119,-1.91 1.131,-1.93Z" style="fill:#564d41;"/><path d="M60.327,19.395c0.39,-1.621 0.33,-1.638 0.421,-1.749c0.391,-0.476 0.477,-0.19 1.677,0.036c0.286,0.054 0.643,-0.153 0.871,0.026c0,0 0.22,1.584 0.239,1.722l-1.118,0.425c-0.697,-0.153 -1.394,-0.306 -2.091,-0.46Z" style="fill:#7b6f61;"/><path d="M29.686,40.27c0.008,0.059 0.004,0.005 0.145,3.18c-0.176,-0.038 -2.196,-0.479 -2.196,-0.479c-0.472,-0.267 -0.703,-0.859 -1.175,-1.127c1.075,-0.525 2.151,-1.049 3.226,-1.574Z" style="fill:#64492d;"/><path d="M52.43,52.981c0.579,-0.437 0.574,-1.409 1.153,-1.846c0.271,-0.205 1.963,0.097 2.065,0.324c0.158,0.354 -0.176,0.81 -0.018,1.164c-0.99,0.662 -1.006,0.579 -2.109,0.974l-1.091,-0.616Z" style="fill:#59412a;"/><path d="M24.438,33.561c0.414,0.257 0.829,0.514 1.243,0.77c0.237,0.144 0.575,0.037 0.812,0.181c1.669,1.018 1.181,2.124 1.098,2.311c-0.105,0.236 -0.648,-0.047 -0.752,0.189c-1.196,-0.651 -1.085,-0.766 -2.266,-1.444c-0.045,-0.669 -0.089,-1.338 -0.134,-2.007Z" style="fill:#7b5e3c;"/><path d="M80.37,35.487l-0.052,1.075c-0.07,0.341 -0.405,1.968 -1.717,3.993c-0.437,-3.008 -0.765,-3.466 1.769,-5.067Z" style="fill:#4e4337;"/><path d="M41.123,52.788c0.263,-0.361 0.122,-0.922 0.385,-1.283c0.063,-0.087 1.615,-0.455 1.698,-0.404c0.575,0.35 0.742,1.181 1.317,1.532l-1.012,0.617c-1.233,-0.056 -1.228,0.051 -2.388,-0.462Z" style="fill:#563f28;"/><path d="M63.161,23.321c0.517,0.839 0.99,0.315 1.506,1.153c0.308,0.5 -0.086,0.478 -0.151,1.046c-0.128,1.126 -0.876,0.807 -0.975,0.897c-0.103,-0.193 -1.127,-0.262 -1.012,-1.906c0,0 0.58,-1.095 0.631,-1.19Z" style="fill:#908475;"/><path d="M47.052,58.547c0.998,0.839 1.91,0.315 2.906,1.153c0.594,0.5 -0.166,0.478 -0.291,1.046c-0.248,1.126 -1.69,0.807 -1.88,0.897c-0.198,-0.193 -2.175,-0.262 -1.951,-1.906c0,0 1.12,-1.095 1.217,-1.19Z" style="fill:#908475;"/><path d="M42.492,42.448c1.86,-1.598 1.815,-1.64 2.008,-1.725c0.92,-0.407 0.772,0.202 1.511,1.213c0.153,0.208 0.471,0.252 0.623,0.46c-2.1,-0.071 -2.062,-0.135 -4.143,0.053Z" style="fill:#82633d;"/><path d="M25.133,25.649c0.706,0.067 1.413,0.134 2.119,0.201l0.248,0.647c-0.778,0.232 -1.556,0.465 -2.334,0.697c-0.011,-0.515 -0.022,-1.03 -0.033,-1.544Z" style="fill:#947651;"/><path d="M78.644,47.578c-0.069,0.52 0.436,0.364 0.367,0.885c-0.017,0.13 -0.185,1.391 -0.681,1.486c-0.47,0.09 -0.313,-1.295 -0.783,-1.205c0.366,-0.389 0.732,-0.778 1.098,-1.167Z" style="fill:#3d332a;"/><path d="M31.047,26.442c0.51,1.938 0.58,1.921 0.55,2.092c-0,0 -0.813,0.944 -0.884,1.026c0.12,-1.576 0.2,-1.536 0.334,-3.118Z" style="fill:#92887a;"/><path d="M34.379,40.855l1.414,-0.192l0.087,1.101c-0.394,-0.105 -0.769,0.485 -1.162,0.38c-0.103,-0.027 -0.024,-0.092 -0.338,-1.289Z" style="fill:#74695a;"/><path d="M35.75,35.485c0.158,0.621 0.529,0.388 0.686,1.007c0.02,0.08 0.074,0.29 -0.173,1.015c-0.119,0.35 -0.388,0.636 -0.507,0.985l0.012,-1.074c-0.006,-0.645 -0.012,-1.289 -0.018,-1.934Z" style="fill:#72624e;"/><path d="M53.5,32.604c0.107,0.003 4.043,0.118 1,0.895c-0,0 -0.92,-0.823 -1,-0.895Z" style="fill:#a78962;"/><path d="M43.94,58.06c0.066,-1.442 0.294,-1.443 0.709,-1.347c0.128,0.03 7.33,-0.106 7.334,-0.039c0.108,1.986 -0.082,1.666 0.061,1.898l-8.104,-0.513Z" style="fill:#231c15;"/></g></svg>