<?xml version="1.0" encoding="UTF-8" standalone="no"?><!DOCTYPE svg PUBLIC "-//W3C//DTD SVG 1.1//EN" "http://www.w3.org/Graphics/SVG/1.1/DTD/svg11.dtd"><svg width="100%" height="100%" viewBox="0 0 72 72" version="1.1" xmlns="http://www.w3.org/2000/svg" xmlns:xlink="http://www.w3.org/1999/xlink" xml:space="preserve" xmlns:serif="http://www.serif.com/" style="fill-rule:evenodd;clip-rule:evenodd;stroke-linejoin:round;stroke-miterlimit:2;"><g><path d="M44.736,34.389c0.453,0.196 0.853,0.501 1.305,0.698c1.219,0.529 3.646,-0.193 2.916,2.275c-0.081,0.272 -7.577,6.891 -5.026,7.253c1.491,0.212 3.063,-2.711 3.231,-3.023c1.018,-1.893 1.63,-0.686 2.033,-0.855c0.255,0.532 -0.302,1.237 -0.048,1.77c0.283,0.593 3.645,-1.033 4.008,-1.15c2.091,-0.676 1.916,-0.876 3.913,-1.788c0.806,0.958 0.712,0.918 1.364,1.989c-7.226,2.873 -7.366,2.293 -14.577,5.241c-2.847,-0.229 -4.159,-1.785 -4.376,1.006c-0.203,2.623 0.976,1.991 3.625,2.128c-2.217,5.208 -3.506,1.093 -4.576,0.389c-3.013,-1.984 -5.499,10.389 -5.7,11.388l-0.493,0.62c-0.896,-0.596 -1.126,-0.2 -1.704,-1.134c-2.439,-3.943 -1.757,-5.853 -4.501,-4.842c-3.037,1.118 -4.513,-2.927 -5.302,-4.262c0.707,-0.384 1.414,-0.768 2.121,-1.152c0.797,2.925 1.214,2.874 3.225,3.15c1.853,0.884 1.825,0.975 2.002,0.955c0.43,-0.05 0.379,-0.965 0.809,-1.016c-0.037,-0.594 -0.073,-1.188 -0.11,-1.783c2.582,-0.148 2.709,0.462 4.991,-0.861c0.681,-0.874 0.701,-0.786 1.371,-1.622c0.758,-1.011 1.516,-2.021 2.274,-3.032c0.218,-1.42 0.206,-1.386 -0.251,-2.777c0.826,-0.296 1.652,-0.592 2.478,-0.888c6.267,-3.52 4.995,-8.562 4.997,-8.677l-15.751,19.639c0.7,1.244 2.214,5.13 3.055,3.05c0.37,-0.917 0.432,-2.924 0.351,-3.007c-0.175,-0.181 -0.182,-0.103 -3.406,-0.043l15.751,-19.639Z" style="fill:#090909;fill-opacity:0.56;"/><path d="M15.642,18.393c0,0.002 -1.8,1.316 2.939,4.438c0.779,0.824 1.558,1.648 2.337,2.472l0.947,0.854l-2.238,0.846c-1.927,-1.242 -1.959,-2.409 -3.777,-1.078c0.96,2.715 0.375,3.591 1.854,3.382c0.4,-0.057 0.593,-0.64 0.993,-0.696l0.631,1.591c-0.179,0.586 -2.513,3.23 1.56,3.382c-0.009,1.393 0.159,1.306 0.142,2.779c0.579,1.117 1.157,2.235 1.736,3.352c0.196,1.587 0.231,1.526 0.995,2.993c0.448,0.648 0.896,1.297 1.344,1.945c0.55,1.452 1.121,2.758 1.224,2.995c5.95,1.925 6.907,-0.404 8.193,-2.958c0.996,0.68 1.992,1.36 2.988,2.04c-0.758,1.011 -1.516,2.021 -2.274,3.032c-0.124,-0.298 0.71,-0.473 0.586,-0.772c-0.57,-1.372 -1.009,-0.64 -2.277,0.06c-0.634,0.35 -0.529,0.362 -1.183,0.811c-2.325,0.346 -2.253,0.267 -4.487,-0.096c0.065,0.419 0.131,0.838 0.196,1.257l0.802,1.223c0.037,0.594 0.073,1.188 0.11,1.783c-0.43,0.05 -0.379,0.965 -0.809,1.016c-0.176,0.021 -0.148,-0.071 -2.002,-0.955c-0.16,-2.558 -0.318,-2.491 -1.39,-4.815c-0.887,-1.204 -0.862,-1.131 -1.442,-2.524c-0.486,-1.255 -0.438,-1.216 -1.068,-2.355c-0.109,-0.129 -1.363,-1.609 -1.363,-1.609c-1.171,-0.029 -0.054,0.63 -0.155,1.813c-0.178,1.107 -0.356,2.213 -0.534,3.32c-0.805,-3.204 -0.998,-3.09 -1.331,-6.377c0.618,-1.14 0.619,-1.13 0.668,-1.231c0.207,-0.43 0.036,-0.434 0.243,-0.865c-1.275,-3.373 -1.382,-3.25 -3.019,-6.442c-0.482,-0.59 -0.964,-1.18 -1.445,-1.77c-0.554,-1.136 -1.109,-2.271 -1.663,-3.407c-0.396,-0.667 -0.793,-1.333 -1.189,-2c-0.039,-0.308 0.458,-0.524 0.42,-0.832c-0.28,-2.23 -0.772,-1.985 -1.473,-4.161c3.674,-2.248 2.561,-3.313 2.91,-3.393c0.523,-0.121 0.777,1.074 1.3,0.952l-0.447,6.69c0.706,-2.286 2.061,-3.481 -0.4,-3.543c-2.6,-0.065 -0.871,1.303 0.4,3.543l0.447,-6.69Z" style="fill:#0a0a09;fill-opacity:0.62;"/><path d="M31.376,24.818c28.117,15.101 35.816,15.295 36.214,15.82c0.182,0.24 -0.56,1.561 -0.936,1.559c-1.381,-0.008 -2.727,-1.327 -8.224,-0.64c-0.652,-1.072 -0.559,-1.031 -1.364,-1.989c-4.032,-3.154 -7.845,1.141 -7.873,1.168c-0.403,0.169 -1.015,-1.038 -2.033,0.855c-0.168,0.312 -1.739,3.235 -3.231,3.023c-2.551,-0.362 4.946,-6.981 5.026,-7.253c0.731,-2.468 -1.697,-1.746 -2.916,-2.275c-0.453,-0.196 -0.853,-0.501 -1.305,-0.698c-0.268,-0.147 -1.685,-2.052 -2.811,0.064c-1.915,3.599 -1.471,4.133 -5.746,6.124c-0.533,-0.505 -1.065,-1.01 -1.598,-1.515c0.633,-0.307 5.652,-2.741 5.72,-6.678c0.01,-0.573 -3.349,-1.733 -3.659,-1.84l-2.006,-0.478c-1.721,-2.137 -1.83,-1.98 -4.356,-3.126c0.366,-0.707 0.731,-1.415 1.097,-2.122Z" style="fill:#080808;fill-opacity:0.63;"/><path d="M8.055,15.621c-1.135,-2.718 -2.085,-1.966 -3.485,-4.453c-0.595,-1.057 0.201,-2.468 2.622,-0.544c8.807,6.999 12.404,7.4 24.184,14.194c-0.366,0.707 -0.731,1.415 -1.097,2.122c-0.729,-0.313 -1.457,-0.627 -2.186,-0.94c-0.278,-0.214 -3.265,-2.519 -3.973,-1.846c-0.2,0.19 0.215,0.636 0.015,0.826c-0.502,-0.64 -1.004,-1.281 -1.506,-1.921c-0.9,-0.624 -1.799,-1.249 -2.699,-1.873c-0.334,-0.236 -0.292,-0.163 -4.288,-2.793c-0.523,0.121 -0.777,-1.074 -1.3,-0.952c-0.348,0.081 0.765,1.145 -2.91,3.393c-0.231,-0.461 -0.461,-0.922 -0.692,-1.383c-1.094,-2.847 -1.015,-2.871 -1.182,-3.075c-0.355,-0.434 -1.149,-0.32 -1.504,-0.755Z" style="fill:#070808;fill-opacity:0.73;"/><path d="M21.866,26.157l1.018,0.822c0.16,0.249 1.719,2.669 2.207,2.965c0.292,0.177 0.731,-0.159 1.023,0.018l1.205,1.175c0.914,2.176 1.28,2.551 4.011,4.212c0.583,0.716 1.167,1.432 1.75,2.148c0.5,0.521 1,1.043 1.5,1.564c0.533,0.505 1.065,1.01 1.598,1.515c1.622,1.487 1.543,1.516 3.56,2.489c-0.826,0.296 -1.652,0.592 -2.478,0.888c-1.523,-0.45 -1.514,-0.383 -2.78,-1.385c-0.739,-0.337 -1.479,-0.673 -2.218,-1.01c-0.156,-1.236 0.162,-1.335 -0.725,-2.289c-0.545,-0.586 -0.595,-0.427 -1.245,-0.894c-0.167,-0.143 0.057,-0.265 -1.822,-2.064c-1.588,-1.636 -1.584,-1.528 -3.403,-2.871l-1.2,-1.246c-0.18,-0.388 -0.36,-0.776 -0.539,-1.164c-0.579,-0.411 -0.82,-1.195 -1.4,-1.605c-0.177,-0.125 -0.534,-0.379 -2.599,0.778l-0.631,-1.591c0.931,-0.597 0.892,-0.518 0.931,-0.597c0.24,-0.488 -0.256,-0.491 -0.001,-1.01l2.238,-0.846Z" style="fill:#0a0909;fill-opacity:0.62;"/><path d="M8.055,15.621c0.355,0.434 1.149,0.32 1.504,0.755c0.167,0.204 0.088,0.228 1.182,3.075c-0.19,0.86 -1.903,0.743 -0.272,5.457c0.531,1.534 1.959,0.911 2.018,0.92c0.396,0.667 0.793,1.333 1.189,2c-1.092,0.445 -1.685,0.43 -1.131,2.284c0.412,1.38 0.535,2.026 -0.914,1.876c-0.453,-0.047 -1.148,-2.163 -2.616,0.372c-0.158,0.272 0.293,0.662 0.136,0.934c-0.998,-5.227 -0.332,-5.274 -1.383,-10.513c-0.728,-3.627 -0.248,-3.565 0.288,-7.16Z" style="fill:#090a0a;fill-opacity:0.54;"/><path d="M15.087,41.519c4.44,2.052 2.447,6.961 3.959,7.001c0.44,0.012 0.736,-0.613 1.176,-0.601c0.512,-0.004 0.827,2.337 2.973,-0.025c0.259,-0.285 -0.113,-0.86 0.146,-1.145c0.58,1.393 0.555,1.32 1.442,2.524c-0.931,0.492 -0.78,0.547 -1.834,1.665c-0.707,0.384 -1.414,0.768 -2.121,1.152c-5.318,-2.721 -4.872,-6.424 -5.741,-10.573Z" style="fill:#0a0b0b;fill-opacity:0.51;"/><path d="M15.338,31.234c0.482,0.59 0.964,1.18 1.445,1.77c-1.605,1.921 -1.071,2.171 -0.049,4.402c0.49,1.069 2.236,2.536 2.315,2.548c0.299,0.046 0.454,-0.554 0.754,-0.508c-0.207,0.431 -0.036,0.435 -0.243,0.865c-0.049,0.101 -0.049,0.091 -0.668,1.231c-1.233,-0.801 -3.514,-1.992 -3.826,-2.154c-0.701,-1.913 -0.528,-2.282 -2.595,-2.683c0.381,-3.174 0.786,-3.031 2.867,-5.471Z" style="fill:#0b0c0c;fill-opacity:0.52;"/><path d="M34.636,30.066l2.006,0.478c-0.138,0.609 -0.419,1.844 -3.561,6.953c-0.583,-0.716 -1.167,-1.432 -1.75,-2.148c1.972,-2.465 1.984,-2.397 3.305,-5.283Z" style="fill:#101010;fill-opacity:0.43;"/><path d="M23.328,31.03l0.539,1.164l1.2,1.246c-1.964,1.601 -1.892,1.591 -4.036,2.923c0.016,-1.473 -0.151,-1.387 -0.142,-2.779c0.202,-0.099 2.526,-1.24 2.526,-1.24c0.151,-0.412 -0.238,-0.902 -0.087,-1.314Z" style="fill:#0e0e0f;fill-opacity:0.36;"/><path d="M25.106,44.655c1.042,-0.086 2.085,-0.173 3.127,-0.259c-0.12,0.731 -0.24,1.461 -0.359,2.192c-0.515,0.354 -1.029,0.708 -1.544,1.062c-0.104,-0.237 -0.674,-1.542 -1.224,-2.995Z" style="fill:#202020;fill-opacity:0.48;"/><path d="M22.629,23.059c0.502,0.64 1.004,1.281 1.506,1.921l-1.251,1.999l-1.018,-0.822l-0.947,-0.854c1.095,-1.288 1.131,-1.153 1.711,-2.244Z" style="fill:#0b0b0c;fill-opacity:0.36;"/></g></svg>