<?xml version="1.0" encoding="UTF-8" standalone="no"?><!DOCTYPE svg PUBLIC "-//W3C//DTD SVG 1.1//EN" "http://www.w3.org/Graphics/SVG/1.1/DTD/svg11.dtd"><svg width="100%" height="100%" viewBox="0 0 72 72" version="1.1" xmlns="http://www.w3.org/2000/svg" xmlns:xlink="http://www.w3.org/1999/xlink" xml:space="preserve" xmlns:serif="http://www.serif.com/" style="fill-rule:evenodd;clip-rule:evenodd;stroke-linejoin:round;stroke-miterlimit:2;"><g><path d="M47.344,14.031l0.115,1.517c0.663,0.639 1.326,1.278 1.989,1.917c0.008,0.388 -0.241,0.753 -0.232,1.141c0.024,1.091 0.783,1.335 0.822,1.401c-0.61,0.125 -1.22,0.251 -1.83,0.376c-3.076,-2.062 -3.236,-0.372 -6.651,0.978c-3.058,0.099 -3.036,0.805 -6.062,0.163c-0.156,-0.063 -1.954,-0.783 -1.954,-0.783c-0.409,0.132 -0.632,0.627 -1.041,0.759c-2.858,-0.112 -2.878,-0.257 -3.083,-0.12c-0.512,0.341 0.059,0.67 -0.446,1.007c-3.044,-3.155 -6.925,-4.127 -6.839,-1.753c0.011,0.311 0.396,0.529 0.407,0.84c-1.086,-0.782 -1.081,-0.717 -2.068,-1.601c0.597,-0.67 2.519,-1.002 0.183,-2.579c-1.578,-1.065 -1.73,-0.743 -3.127,-1.987c-2.378,-2.118 -6.209,-2.368 -6.211,-2.104c-0.002,0.218 0.03,0.2 0.409,2.696c-0.368,0.506 -0.735,1.012 -1.103,1.518c-1.469,-2.52 -0.705,-6.099 -4.637,-8.245c-3.194,-1.743 -0.644,-2.337 -0.46,-2.3c0.269,0.053 0.104,0.351 2.935,1.782c4.009,2.027 10.303,6.16 28.039,6.849c0.872,-0.076 7.405,-0.647 10.844,-1.471l-13.842,3.36c-2.727,0.172 -2.766,0.027 -2.941,0.185c-0.374,0.338 0.085,0.539 -0.291,0.88c0.099,0.08 1.234,0.997 1.234,0.997c0.57,0.061 8.302,0.2 8.805,-0.096c0.256,-0.151 0.24,-0.59 0.496,-0.741c-0.003,-0.003 0.135,-1.353 -1.307,-1.271c-3.023,0.172 -2.988,0.217 -5.995,0.047l13.842,-3.36l-19.821,4.585c0.216,-0.23 0.705,0.015 0.922,-0.215c1.274,-1.351 -1.727,-1.878 -1.942,-1.916c-9.012,-1.583 0.841,2.068 1.02,2.131l19.821,-4.585l-5.64,4.829c0.327,-0.085 3.895,-1.007 4.025,-1.279c0.083,-0.174 0.798,-1.665 -2.195,-0.995c-1.377,0.308 -1.024,0.749 -1.83,2.274l5.64,-4.829Z" style="fill:#070708;fill-opacity:0.69;"/><path d="M40.486,38.58c0.216,0.536 1.159,0.652 0.327,2.005c-0.779,1.266 -0.55,1.316 -1.136,2.717c-0.324,0.542 -1.287,0.454 -1.611,0.995c-0.09,0.15 0.499,0.08 0.3,2.162c-0.104,1.09 -0.526,0.825 -0.76,1.192c-0.562,0.3 -1.125,0.599 -1.687,0.899c-0.408,3.088 -0.167,3.125 -1.396,5.961c-1.92,2.028 0.362,3.085 -1.631,4.988c-0.38,0.363 -0.853,0.62 -1.233,0.983c-0.182,-2.263 0.539,-2.559 -1.096,-4.066c-1.902,-1.752 -1.402,-5.902 -3.21,-9.849c0.256,-0.108 -0.002,-0.686 0.254,-0.793c0.278,-0.117 2.575,1.623 2.702,-0.273c0.114,-1.699 -3,-2.307 -3.558,-1.752c-0.182,0.181 -0.18,0.488 -0.334,0.693c-0.82,1.096 -1.02,1.208 -1.14,1.275c-0.355,0.199 -0.155,-0.55 -0.492,-0.361c-0.192,-0.124 0.132,-0.709 -1.863,-0.985c-0.449,-1.865 -0.747,-3.324 -0.806,-3.614l1.428,-0.459c0.077,0.177 0.966,2.207 0.966,2.207c0.105,-0.002 0.489,-0.009 0.8,-1.037c0.097,-0.32 -0.285,-0.664 -0.188,-0.984l0.742,-1.373c1.525,0.208 1.766,0.122 2.246,1.616c1.091,1.808 1.467,1.329 3.569,1.432c0.579,3.703 0.24,3.66 0.462,7.463c0.519,8.868 1.943,-2.61 1.978,-2.888c0.478,-0.475 1.313,-0.463 1.791,-0.938c0.595,-0.592 0.374,-3.036 4.575,-7.218Z" style="fill:#050606;fill-opacity:0.67;"/><path d="M58.636,12.668c-1.86,1.303 -1.468,1.659 -1.088,3.869c-4.989,3.582 -0.336,6.039 -3.027,8.99c-0.115,0.126 -0.135,0.081 -1.825,1.095l-1.417,-0.992c1.827,-1.975 1.862,-1.951 1.977,-2.226c0.483,-1.154 0.273,-3.035 0.239,-3.059c0,0 -1.64,1.334 -1.783,1.45c-3.009,0.867 -2.999,0.674 -3.253,0.758l-1.362,-0.456c0.37,-0.571 0.74,-1.143 1.11,-1.714c0.61,-0.125 1.22,-0.251 1.83,-0.376c0.213,-0.182 0.132,-0.192 2.43,-2.521c1.076,-0.965 1.032,-0.922 2.071,-1.961c0.122,-0.417 0.552,-0.698 0.674,-1.115c0.366,-1.254 -0.535,-0.525 -1.725,-0.023c-0.687,0.756 -1.374,1.512 -2.061,2.268l-0.906,0.003c-0.433,-0.258 -0.621,-0.826 -1.054,-1.084c-0.138,-0.082 -0.147,-0.002 -2.008,-0.025l-0.115,-1.517c12.121,-3.473 11.542,-4.887 13.173,-5.404c1.503,-0.477 1.688,0.476 0.763,1.744c-1.047,1.436 -1.2,1.228 -2.644,2.297Z" style="fill:#050506;fill-opacity:0.78;"/><path d="M19.663,19.214l0.808,0.656c0.987,0.885 0.982,0.819 2.068,1.601c2.856,1.527 2.743,1.669 6.926,3.071c5.814,2.206 8.254,2.079 15.085,-0.785c0.849,-0.554 1.698,-1.108 2.547,-1.662l1.362,0.456l0.587,1.283c-0.23,-0.033 -0.335,-0.377 -0.565,-0.41c-0.01,-0.001 -0.004,-0.003 -3.685,3.373c-0.095,1.563 -0.101,1.504 -0.472,2.999l-1.206,-1.186c-0.03,-0.307 0.013,-0.617 -0.017,-0.924c-0.177,-1.803 -1.054,-0.224 -3.62,0.03c-0.606,0.06 -0.528,0.141 -1.15,0.307l-0.82,0.506c-2.534,-0.647 -2.536,-0.743 -5.015,-0.023c-0.651,-0.27 -0.485,-0.474 -1.123,-0.738c-0.3,-0.125 -0.282,-0.106 -3.802,-1.429l-0.724,-0.106c-0.324,-0.176 -0.29,-0.213 -3.994,-2.305c-0.371,-0.083 -1.23,2.72 -2.145,3.72c-0.532,0.581 -1.301,-0.407 -1.432,-0.415c-0.643,-0.041 1.203,-3.611 0.914,-4.674c-0.301,-1.105 -0.371,-1.012 -0.755,-2.057l0.228,-1.285Z" style="fill:#050506;fill-opacity:0.75;"/><path d="M51.713,21.794c-0.676,2.402 -0.717,2.379 -0.73,2.595c-0.042,0.705 0.335,0.591 0.297,1.241l1.417,0.992l-0.48,0.7c-0.217,0.034 -0.289,0.389 -0.506,0.424c-0.424,0.067 -2.665,-1.279 -2.824,2.734c-0.024,0.619 0.029,0.922 0.043,1.001c0.393,2.237 1.005,1.905 1.598,3.029c-3.261,5.033 -2.233,12.71 -4.075,7.025c-0.648,-1.999 -0.279,-2.06 -1.01,-4.002c2.31,-3.201 1.819,-3.624 -0.179,-7.025c0.083,-0.099 0.076,-0.097 1.322,-1.899c3.211,-3.952 2.418,-4.321 2.46,-4.774l-0.587,-1.283c0.254,-0.083 0.244,0.109 3.253,-0.758Z" style="fill:#050606;fill-opacity:0.8;"/><path d="M43.119,28.61l1.206,1.186c-3.936,2.693 -3.666,4.087 -5.742,5.364c-0.176,0.109 -0.261,-0.071 -2.311,1.168c-0.359,0.217 -3.554,-0.525 -2.795,1.225c0.13,0.299 0.637,0.307 0.767,0.606l-0.759,1.357c-0.696,-0.486 -1.392,-0.973 -2.089,-1.459l-1.758,-0.714c-2.172,-2.157 -1.002,-2.884 -0.993,-3.294c0.003,-0.125 -0.309,-0.092 -0.307,-0.217c2.489,1.178 2.514,1.366 5.267,0.845c2.082,-0.395 -0.906,-4.451 -1.574,-6.448c1.416,-0.657 4.288,-0.718 5.48,0.298c0.056,1.736 -0.804,5.743 0.588,4.694c0.142,-0.107 0.095,-0.134 1.287,-1.81c0.276,-0.252 0.349,-0.063 3.732,-2.803Z" style="fill:#050607;fill-opacity:0.65;"/><path d="M43.423,33.391c0.081,0.254 1.769,0.567 0.894,2.812c-0.1,0.257 -0.469,0.344 -0.569,0.601c-0.318,0.34 -0.635,0.68 -0.953,1.02c-0.77,0.252 -1.54,0.504 -2.31,0.757c-4.201,4.182 -3.98,6.626 -4.575,7.218c-0.478,0.475 -1.313,0.463 -1.791,0.938c0.051,-0.416 0.399,-3.237 0.407,-5.222c-0.326,-1.147 -0.181,-1.21 -1.041,-1.997l0.759,-1.357c4.989,0.869 4.72,-0.761 5.576,-1.504c0.301,-0.261 1.413,-0.62 3.604,-3.266Z" style="fill:#050606;fill-opacity:0.82;"/><path d="M11.725,15.896c0.596,-0.133 1.193,-0.265 1.789,-0.398c0.828,1.58 0.868,1.504 2.012,2.846c-0.298,0.63 -2.097,0.611 -0.046,4.167c0.758,1.321 0.548,1.725 2.068,1.875c1.762,0.173 1.223,0.857 1.607,2.106c-1.46,0.245 -1.415,0.218 -2.758,0.739c-0.785,0.129 -1.571,0.258 -2.356,0.387c-0.034,-2.864 0.045,-2.859 -0.037,-3.092c-0.19,-0.541 -0.431,-0.347 -0.636,-0.929c-1.082,-3.403 0.145,-4.136 -2.746,-6.182c0.368,-0.506 0.735,-1.012 1.103,-1.518Z" style="fill:#050607;fill-opacity:0.76;"/><path d="M22.638,32.479c0.573,0.436 1.146,0.872 1.719,1.308c-0.59,1.047 -2.718,2.825 1.03,4.903l0.477,0.424l-0.742,1.373c-0.526,-0.062 -1.052,-0.125 -1.578,-0.187l-1.428,0.459l-0.199,-0.544c-0.153,-4.586 -1.068,-4.417 -1.021,-4.807c0.032,-0.271 0.41,-0.069 1.742,-2.929Z" style="fill:#040505;fill-opacity:0.84;"/><path d="M14.041,27.618c0.785,-0.129 1.571,-0.258 2.356,-0.387l1.269,2.228c-0.443,0.845 -1.116,-0.055 -1.556,0.784c-0.513,0.979 0.051,0.995 0.054,2.08c0.009,2.717 -1.42,1.172 -1.521,1.063c-0.391,-0.423 -0.235,-0.504 -0.603,-5.768Z" style="fill:#080809;fill-opacity:0.57;"/><path d="M18.891,25.821l4.625,4.641c0.791,0.581 1.583,1.162 2.374,1.743c0.297,0.304 0.277,0.261 1.587,1.323c-0.632,0.631 -1.265,1.261 -1.897,1.892c-1.176,-1.484 -1.116,-1.51 -1.224,-1.633c-0.573,-0.436 -8.34,-5.964 -8.913,-6.4c0.105,-0.806 3.342,-0.76 3.447,-1.566Z" style="fill:#060607;fill-opacity:0.73;"/><path d="M22.922,44.373c1.995,0.276 1.671,0.861 1.863,0.985c0.293,0.616 -0.782,0.472 -0.477,1.113c0.054,0.114 0.084,0.176 1.376,0.778c0.241,0.112 0.526,0.108 0.767,0.22c0.002,0.236 0.033,3.982 -1.473,2.556c-1.066,-1.008 -0.732,-1.176 -2.056,-5.653Z" style="fill:#0a0a0a;fill-opacity:0.5;"/><path d="M13.514,15.498c1.698,0.27 1.715,0.201 1.833,0.291c1.078,0.82 0.95,0.913 2.017,1.724c-0.613,0.277 -1.225,0.554 -1.838,0.832c-1.145,-1.343 -1.185,-1.266 -2.012,-2.846Z" style="fill:#040506;fill-opacity:0.89;"/><path d="M58.636,12.668c0.874,2.186 0.794,2.483 -1.088,3.869c-0.381,-2.21 -0.772,-2.566 1.088,-3.869Z" style="fill:#090a0a;fill-opacity:0.38;"/><path d="M47.459,15.547c1.861,0.023 1.87,-0.057 2.008,0.025c0.433,0.258 0.621,0.826 1.054,1.084l-1.073,0.807c-0.663,-0.639 -1.326,-1.278 -1.989,-1.917Z" style="fill:#070808;fill-opacity:0.4;"/><path d="M44.797,26.798c0.659,1.44 0.599,1.477 0.711,1.555c0.477,0.331 0.569,-0.098 1.079,0.255c-1.247,1.802 -1.239,1.8 -1.322,1.899l-0.94,-0.711c0.371,-1.495 0.377,-1.436 0.472,-2.999Z" style="fill:#08090a;fill-opacity:0.56;"/><path d="M32.5,21.498c0.409,-0.132 0.632,-0.627 1.041,-0.759c0,0 1.797,0.721 1.954,0.783c-0.998,-0.008 -1.997,-0.016 -2.995,-0.024Z" style="fill:#1b1b1b;fill-opacity:0.3;"/><path d="M37.606,47.651c-0.877,0.383 -0.75,0.512 -1.687,0.899c0.562,-0.3 1.125,-0.599 1.687,-0.899Z" style="fill:#0a0a0a;fill-opacity:0.15;"/><path d="M53.488,14.386c1.189,-0.501 2.091,-1.231 1.725,0.023c-0.122,0.417 -0.552,0.698 -0.674,1.115c-0.35,-0.379 -0.701,-0.759 -1.051,-1.138Z" style="fill:#0e0f0f;fill-opacity:0.36;"/></g></svg>