<?xml version="1.0" encoding="UTF-8" standalone="no"?><!DOCTYPE svg PUBLIC "-//W3C//DTD SVG 1.1//EN" "http://www.w3.org/Graphics/SVG/1.1/DTD/svg11.dtd"><svg width="100%" height="100%" viewBox="0 0 72 72" version="1.1" xmlns="http://www.w3.org/2000/svg" xmlns:xlink="http://www.w3.org/1999/xlink" xml:space="preserve" xmlns:serif="http://www.serif.com/" style="fill-rule:evenodd;clip-rule:evenodd;stroke-linejoin:round;stroke-miterlimit:2;"><g><path d="M7.265,31.067c-0.483,-1.848 -0.461,-1.891 -1.938,-3.149c-2.017,-1.717 -2.032,-1.643 -2.187,-1.809c-4.767,-5.125 2.607,-0.678 2.803,-0.56c3.85,2.322 3.962,2.044 8.175,3.66c2.989,1.146 3.162,0.46 6.138,1.609c1.372,0.53 1.364,0.636 10.901,1.244c1.242,0.079 11.779,-0.18 16.934,-1.234c0.478,0.293 0.562,1.03 1.041,1.323c0.292,0.179 0.685,-0.072 1.027,-0.055c1.065,0.052 0.999,0.19 2.96,0.932c-0.809,0.613 -1.618,1.227 -2.427,1.84c-1.26,-0.866 -1.251,-1.656 -2.563,-0.83c-0.358,0.225 -0.433,0.766 -0.791,0.991l-1.046,-0.982c-0.127,-0.092 -0.365,-1.278 -2.891,-0.706c0,0 -1.129,0.709 -1.227,0.77c-0.678,0.359 -1.356,0.718 -2.034,1.078c-1.328,-0.961 -1.345,-0.908 -2.92,-1.314c-3.798,-0.508 -3.798,-0.532 -3.901,-0.486c-0.198,0.088 -0.022,0.529 -0.222,0.611c-0.628,0.257 -1.384,0.046 -2.011,0.303c-1.994,-0.358 -1.961,-0.344 -3.958,-0.244c-1.942,-0.026 -1.869,-0.325 -3.792,-0.479c-2.078,-0.166 -2.046,-0.427 -2.222,-0.384c-0.427,0.105 -0.533,0.799 -0.96,0.904c-3.409,-2.302 -3.4,-2.364 -3.578,-2.345c-0.697,0.075 -0.787,1.414 -1.484,1.489l-0.79,-0.519c-1.309,-0.076 -1.301,-0.07 -1.413,-0.082c-1.398,-0.146 -1.487,0.415 -1.767,0.493c-1.213,-1.479 -1.169,-1.51 -1.31,-1.597c-1.547,-0.966 -2.275,-0.421 -2.549,-0.472Z" style="fill:#070708;fill-opacity:0.66;"/><path d="M61.034,27.692c6.705,-2.726 6.62,-2.911 7.207,-3.135c0.137,-0.052 4.222,-1.303 0.959,1.566c-2.143,1.885 -1.976,2.027 -4.071,3.952c-2.826,2.596 -1.898,3.123 -1.794,7.011c0.115,4.323 0.56,6.585 -1.266,6.405c-1.042,-0.102 -0.911,-2.184 -0.898,-2.387c0.033,-0.53 0.416,-6.625 -0.07,-6.634c-0.644,-0.012 -2.202,1.993 -2.36,2.197c-1.098,1.414 -1.406,1.042 -2.664,2.355c-0.498,0.52 -0.455,0.51 -0.943,1.057c-0.686,0.147 -1.372,0.293 -2.058,0.44c0.186,-0.415 0.195,-0.895 0.381,-1.31c0.62,-1.379 0.941,-1.387 0.571,-2.049c-0.272,-0.487 -0.825,-0.776 -1.097,-1.262c0.244,-0.171 3.027,-2.12 3.039,-2.145c0.312,-0.652 0.146,-1.468 0.457,-2.12c0.266,-0.028 0.475,-0.281 0.741,-0.309c0.562,-0.059 0.509,0.167 1.093,0.115c0.49,-0.044 0.398,-0.249 0.922,-0.296c-0.129,0.125 -2.563,2.478 -0.008,2.248c0.587,-0.053 2.601,-1.969 2.619,-2.435c0.015,-0.39 -0.66,-0.588 -0.645,-0.979c-0.038,-0.761 -0.077,-1.523 -0.115,-2.284Z" style="fill:#060606;fill-opacity:0.63;"/><path d="M18.252,38.137c0.29,0.265 3.442,3.151 3.912,2.968c0.543,-0.212 0.601,-1.11 1.144,-1.322c0.621,0.425 1.242,0.85 1.864,1.274c0.867,0.273 0.763,1.385 4.954,0.448c0.578,0.569 1.156,1.138 1.734,1.706c0.821,0.44 0.884,1.156 3.375,0.048c0.187,-0.083 0.165,-0.093 2.227,-1.25l0.707,1.41c-0.424,0.449 -0.351,0.486 -0.846,0.897c-0.129,0.107 -1.376,1.144 -1.15,1.753c0.112,0.303 0.638,0.098 0.96,0.124c5.784,0.463 7.671,-2.64 8.017,-2.91l1.014,-0.045c0.916,1.113 0.702,1.217 0.471,2.664c-0.015,0.003 -1.201,-0.547 -2.293,0.451c-3.515,3.212 -8.606,1.806 -10.227,0.908c-3.744,-2.074 -3.342,-3.136 -6.941,-3.343c-3.21,-0.185 -3.099,-0.6 -6.158,-1.632c-2.804,-0.946 -3.622,-2.801 -3.843,-3.101c0.359,-0.349 0.719,-0.698 1.078,-1.048Z" style="fill:#070808;fill-opacity:0.53;"/><path d="M52.931,35.896c0.272,0.487 0.825,0.776 1.097,1.262c0.37,0.662 0.05,0.67 -0.571,2.049c-0.186,0.415 -0.195,0.895 -0.381,1.31c0.686,-0.147 1.372,-0.293 2.058,-0.44c-0.742,1.73 -0.503,1.832 -1.594,3.363c-0.141,0.198 -1.201,1.687 -2.243,2.05c-2.099,0.732 -2.161,0.364 -2.318,0.47c-0.444,0.299 -1.211,3.228 -2.343,-0.058c0.231,-1.447 0.445,-1.551 -0.471,-2.664c0.238,-0.818 0.475,-1.635 0.713,-2.453l0.561,-0.479c0.234,-0.449 0.467,-0.899 0.701,-1.348c1.725,-0.242 1.725,-0.2 1.863,-0.261c1.34,-0.588 1.433,-1.389 1.576,-1.557c0.397,-0.466 0.955,-0.779 1.353,-1.245l-1.788,4.88c-0.938,0.339 -2.148,0.013 -2.139,2.357c0.006,1.7 0.984,1.225 2.206,0.027c0.142,-0.139 1.555,-1.524 1.035,-2.261c-0.213,-0.302 -0.888,0.179 -1.101,-0.123l1.788,-4.88Z" style="fill:#070707;fill-opacity:0.57;"/><path d="M21.027,35.098c0.522,0.053 0.487,-1.263 1.009,-1.209c0.572,0.058 0.543,1.051 0.99,1.413c0.294,0.239 0.739,0.171 1.1,0.285c1.997,0.628 1.991,0.622 4.084,0.397c2.925,0.989 2.984,0.826 5.958,-0.014l1.006,0.028c0.405,0.308 0.47,0.943 0.876,1.251c0.162,0.123 0.598,0.454 2.517,0.354c0.223,0.326 -0.064,0.38 0.142,0.681c0.689,1.007 0.896,0.794 0.934,0.89c0.094,0.24 -0.399,0.471 -0.305,0.71l-1.078,-0.129c-0.593,-0.052 -1.186,-0.105 -1.779,-0.157c-0.429,0.374 -0.858,0.747 -1.287,1.121l-1.111,-0.236c-1.842,-1.056 -1.809,-1.107 -3.892,-1.607c-2.048,-0.492 -2.028,-0.475 -4.155,-0.603c-1.968,-0.678 -1.947,-0.669 -3.924,-1.331l-1.301,-0.174c0.072,-0.557 0.143,-1.114 0.215,-1.671Z" style="fill:#070708;fill-opacity:0.66;"/><path d="M11.124,33.136c0.28,-0.078 0.369,-0.639 1.767,-0.493c0.113,0.012 0.105,0.006 1.413,0.082c0.021,0.403 -0.786,1.342 0.562,2.551c0.625,0.561 0.54,0.647 1.219,0.951c1.351,0.604 1.275,0.684 2.167,1.911c-0.359,0.349 -0.719,0.698 -1.078,1.048c-0.057,0.12 -1.047,0.45 -0.926,1.946c0.063,0.785 0.897,6.716 -1.042,5.781c-1.672,-0.806 -0.348,-5.25 -1.537,-7.656c-0.998,-2.02 -0.909,-2.014 -1.604,-4.132c-0.055,-0.167 -0.192,-0.584 -0.942,-1.988Z" style="fill:#060607;fill-opacity:0.66;"/><path d="M61.034,27.692c0.038,0.761 0.077,1.523 0.115,2.284c-1.186,0.644 -1.203,0.578 -1.966,1.165c-0.524,0.047 -0.432,0.252 -0.922,0.296c-0.584,0.053 -0.532,-0.174 -1.093,-0.115c-0.266,0.028 -0.475,0.281 -0.741,0.309c-1.102,0.466 -2.205,0.932 -3.307,1.398c-1.961,-0.742 -1.895,-0.881 -2.96,-0.932c-0.343,-0.017 -0.735,0.234 -1.027,0.055c-0.478,-0.293 -0.562,-1.03 -1.041,-1.323c1.968,-0.475 1.953,-0.483 2.125,-0.513c5.253,-0.914 5.264,-0.785 10.817,-2.623Z" style="fill:#070707;fill-opacity:0.74;"/><path d="M42.175,34.112c0.132,0.289 0.169,0.614 0.301,0.903c0.395,0.866 0.634,0.575 1.692,0.857c0.574,-0.31 1.148,-0.621 1.723,-0.931l0.403,-0.893l1.046,0.982l0.817,0.947c-1.879,1.095 -2.003,0.927 -2.047,1.108c-0.052,0.215 -0.139,0.574 2.03,1.874c-0.234,0.449 -0.467,0.899 -0.701,1.348c-1.76,-0.82 -1.641,-0.959 -3.341,-1.84c-0.919,-0.477 -1.088,0.202 -1.944,-0.332c0,0 -1.21,-1.803 -1.315,-1.96l-0.697,-0.985c0.678,-0.359 1.356,-0.718 2.034,-1.078Z" style="fill:#080808;fill-opacity:0.45;"/><path d="M40.013,40.289c2.402,0.623 2.678,1.507 6.865,0.496c-0.238,0.818 -0.475,1.635 -0.713,2.453l-1.014,0.045c-3.517,-0.171 -3.526,-0.634 -6.982,0.136l-0.707,-1.41c0.244,-0.206 0.024,-0.714 0.268,-0.92c0.148,-0.125 0.168,-0.059 2.283,-0.8Z" style="fill:#040404;fill-opacity:0.86;"/><path d="M15.094,33.244c0.697,-0.075 0.787,-1.414 1.484,-1.489c0.177,-0.019 0.169,0.044 3.578,2.345l0.871,0.997c-0.072,0.557 -0.143,1.114 -0.215,1.671c-0.49,-0.219 -0.112,0.755 -0.575,0.548c-0.118,-0.053 -0.133,-0.059 -1.015,-1.26c-0.237,-0.322 -0.683,-0.929 -4.128,-2.812Z" style="fill:#060606;fill-opacity:0.73;"/><path d="M6.961,32.106c0.626,0.637 0.916,0.151 1.543,0.789c0.049,0.049 -0.177,0.078 0.079,0.862c0.05,0.153 0.281,0.206 0.321,0.363c0.02,0.078 0.262,2.877 -0.72,3.041c-1.567,0.263 -1.691,-1.031 -1.222,-5.055Z" style="fill:#040505;fill-opacity:0.64;"/><path d="M36.482,39.597c0.593,0.052 1.186,0.105 1.779,0.157l1.078,0.129l0.675,0.405c-2.115,0.741 -2.135,0.675 -2.283,0.8c-0.244,0.206 -0.024,0.714 -0.268,0.92c-0.756,-0.43 -1.511,-0.86 -2.267,-1.29c0.429,-0.374 0.858,-0.747 1.287,-1.121Z" style="fill:#0a0a0a;fill-opacity:0.4;"/><path d="M47.34,35.03c0.358,-0.225 0.433,-0.766 0.791,-0.991c1.312,-0.825 1.302,-0.036 2.563,0.83c-0.506,0.973 -0.456,1.018 -0.545,1.049c-0.629,0.214 -1.362,-0.155 -1.991,0.059l-0.817,-0.947Z" style="fill:#060706;fill-opacity:0.76;"/><path d="M30.126,41.505c0.779,0.228 1.559,0.456 2.338,0.684l-0.604,1.023c-0.578,-0.569 -1.156,-1.138 -1.734,-1.706Z" style="fill:#080809;fill-opacity:0.51;"/></g></svg>