<?xml version="1.0" encoding="UTF-8" standalone="no"?><!DOCTYPE svg PUBLIC "-//W3C//DTD SVG 1.1//EN" "http://www.w3.org/Graphics/SVG/1.1/DTD/svg11.dtd"><svg width="100%" height="100%" viewBox="0 0 72 72" version="1.1" xmlns="http://www.w3.org/2000/svg" xmlns:xlink="http://www.w3.org/1999/xlink" xml:space="preserve" xmlns:serif="http://www.serif.com/" style="fill-rule:evenodd;clip-rule:evenodd;stroke-linecap:round;stroke-linejoin:round;stroke-miterlimit:1.5;"><path d="M4.758,4.915c-0.455,-1.941 -2.422,34.934 12.277,62.244" style="fill:none;stroke:#000;stroke-width:3px;"/><path d="M23.108,23.312c-0.049,4.212 -2.75,8.061 -5.547,8.687c-2.798,0.626 -6.721,1.059 -11.508,-1.295" style="fill:none;stroke:#000;stroke-width:3px;"/><path d="M34.083,31.999c-0.402,3.471 -4.101,10.386 -7.748,12.419c-3.947,2.2 -12.955,3.669 -16.805,3.396" style="fill:none;stroke:#000;stroke-width:3px;"/><path d="M49.252,40.436c-1.579,1.722 -5.062,11.372 -11.13,14.464c-8.498,4.33 -22.674,5.176 -24.246,5.636" style="fill:none;stroke:#000;stroke-width:3px;"/><path d="M4.758,4.915c0,0 9.129,10.876 22.298,21.872c10.509,8.774 24.498,15.055 31.855,17.632" style="fill:none;stroke:#000;stroke-width:3px;"/><path d="M4.758,4.915c0,0 5.314,15.534 15.272,31.168c5.87,9.216 14.756,17.526 21.345,20.659" style="fill:none;stroke:#000;stroke-width:3px;"/></svg>