<?xml version="1.0" encoding="UTF-8" standalone="no"?><!DOCTYPE svg PUBLIC "-//W3C//DTD SVG 1.1//EN" "http://www.w3.org/Graphics/SVG/1.1/DTD/svg11.dtd"><svg width="100%" height="100%" viewBox="0 0 72 72" version="1.1" xmlns="http://www.w3.org/2000/svg" xmlns:xlink="http://www.w3.org/1999/xlink" xml:space="preserve" xmlns:serif="http://www.serif.com/" style="fill-rule:evenodd;clip-rule:evenodd;stroke-linecap:round;stroke-linejoin:round;stroke-miterlimit:1.5;"><g><path d="M36.016,21.652c0,0 -3.363,3.195 -4.333,3.544c-0.97,0.349 -5.813,0.659 -5.813,0.659c0,0 0.013,4.836 -0.485,5.708c-0.502,0.88 -4.239,4.437 -4.239,4.437c0,0 4.294,2.365 4.906,3.643c0.612,1.278 -0.066,6.617 -0.066,6.617c0,0 4.81,-0.209 5.937,0.351c1.127,0.561 4.094,3.737 4.094,3.737c0,0 2.725,-3.77 4.23,-4.172c1.505,-0.402 6.035,-0.15 6.035,-0.15c0,0 0.087,-4.661 0.714,-5.82c0.626,-1.159 3.594,-4.205 3.594,-4.205c0,0 -3.684,-4.149 -4.137,-5.015c-0.527,-1.008 -0.871,-5.904 -0.871,-5.904c0,0 -4.633,0.544 -5.51,0.193c-0.876,-0.351 -4.055,-3.621 -4.055,-3.621Z" style="fill:none;stroke:#000;stroke-width:3px;"/><path d="M36,59.631c0,0 5.216,-4.638 7.827,-5.592c2.611,-0.953 8.883,-1.33 8.883,-1.33c0,0 0.315,-7.958 1.321,-9.931c1.006,-1.973 5.6,-6.779 5.6,-6.779c0,0 -5.109,-4.888 -5.791,-7.207c-2.856,-9.709 -2.472,-11.191 -2.367,-10.655c0,0 -7.14,0.44 -9.053,-0.346c-1.912,-0.786 -6.42,-5.424 -6.42,-5.424c0,0 -4.935,4.491 -7.198,5.482c-2.263,0.991 -9.512,1.439 -9.512,1.439c0,0 0.383,7.059 -0.483,8.667c-0.866,1.608 -6.438,8.043 -6.438,8.043c0,0 4.601,5.244 5.659,7.046c1.059,1.802 1.387,9.555 1.387,9.555c0,0 7.321,-0.43 9.139,0.334c1.817,0.764 7.446,6.696 7.446,6.696Z" style="fill:none;stroke:#000;stroke-width:3px;"/></g><path d="M36,36l0,-34.534l0,34.534Z" style="fill:none;stroke:#000;stroke-width:3px;"/><path d="M60.259,7.995l-24.259,28.005" style="fill:none;stroke:#000;stroke-width:3px;"/><path d="M36,36l33.946,0" style="fill:none;stroke:#000;stroke-width:3px;"/><path d="M36,36l0,34.326" style="fill:none;stroke:#000;stroke-width:3px;"/><path d="M36,36l25.984,25.984" style="fill:none;stroke:#000;stroke-width:3px;"/><path d="M36,36l-26.515,-26.515" style="fill:none;stroke:#000;stroke-width:3px;"/><path d="M36,36l-34.197,0" style="fill:none;stroke:#000;stroke-width:3px;"/><path d="M36,36l-25.585,25.585" style="fill:none;stroke:#000;stroke-width:3px;"/><path d="M36,66.788c0,0 6.297,-3.619 10.163,-5.204c3.867,-1.584 11.607,-3.814 11.607,-3.814c0,0 1.668,-8.944 3.131,-11.546c1.463,-2.602 5.886,-10.224 5.886,-10.224c0,0 -4.995,-8.395 -6.083,-10.289c-1.088,-1.894 -4.604,-13.032 -4.604,-13.032c0,0 -6.912,-0.154 -10.192,-1.796c-2.117,-1.059 -9.909,-5.672 -9.909,-5.672c0,0 -7.307,4.784 -9.373,5.697c-2.067,0.913 -12.26,3.184 -12.26,3.184c0,0 -1.339,8.518 -2.764,11.053c-1.425,2.535 -6.391,10.854 -6.391,10.854c0,0 5.623,8.203 6.081,10.027c0.458,1.824 2.937,11.743 2.937,11.743c0,0 9.021,1.644 11.045,2.644c2.023,1.001 10.726,6.373 10.726,6.373Z" style="fill:none;stroke:#000;stroke-width:3px;"/></svg>