<?xml version="1.0" encoding="UTF-8" standalone="no"?><!DOCTYPE svg PUBLIC "-//W3C//DTD SVG 1.1//EN" "http://www.w3.org/Graphics/SVG/1.1/DTD/svg11.dtd"><svg width="100%" height="100%" viewBox="0 0 72 72" version="1.1" xmlns="http://www.w3.org/2000/svg" xmlns:xlink="http://www.w3.org/1999/xlink" xml:space="preserve" xmlns:serif="http://www.serif.com/" style="fill-rule:evenodd;clip-rule:evenodd;stroke-linejoin:round;stroke-miterlimit:2;"><g><path d="M14.337,14.559c0.066,2.605 0.788,2.326 1.055,2.851c0.455,0.252 1.519,0.841 6.243,1.805c0.279,0.121 3.295,1.436 3.649,1.06c0.202,-0.215 0.063,-0.596 -0.002,-0.883c-0.083,-0.368 -0.426,-0.669 -0.432,-1.046c-0.004,-0.292 0.41,-0.485 0.406,-0.777c0.289,0.331 0.436,-0.014 0.708,0.297c0.278,0.319 -0.089,0.418 0.18,0.721c0.332,0.373 0.895,0.487 1.226,0.86c0.021,0.643 0.041,1.285 0.062,1.928c1.998,0.785 1.932,0.766 4.001,1.265c0.62,0.281 1.24,0.562 1.86,0.843c2.477,1.002 2.394,1.02 4.978,1.84c0.688,0.042 1.376,0.083 2.065,0.125c0.22,0.208 0.06,0.656 0.28,0.865c0.018,0.017 3.468,1.193 3.77,1.296c2.689,0.732 2.598,0.918 2.832,0.968c0.437,0.175 0.874,0.35 1.311,0.525c1.502,0.522 1.428,0.575 2.823,1.355c-0.9,1.641 -1.73,2.179 0,2.984c0.303,0.141 0.701,-0.134 1.004,0.007c-0.67,6.231 -1.834,8.496 -7.138,9.948c0.349,-1.559 0.337,-1.517 0.362,-3.14c-0.726,0.438 -1.451,0.875 -2.177,1.313l-1.016,-0.223c-0.574,0.381 -1.149,0.761 -1.723,1.142c0.11,0.43 0.219,0.86 0.329,1.289l0.449,0.523c-1.459,0.099 -1.405,0.036 -2.851,0.444c-0.75,-0.044 -1.5,-0.089 -2.249,-0.133c-0.538,0.331 -1.076,0.661 -1.614,0.992c-1.43,1.377 -1.43,1.349 -1.544,1.476c-0.658,1.325 -0.719,1.303 -0.711,1.431c0.094,1.481 0.191,1.425 0.033,2.893c-0.279,0.096 -0.51,-0.495 -0.788,-0.4c0,0 -1.431,1.383 -1.555,1.503c-0.042,-0.016 -1.249,-1.801 -1.866,-0.124c0,0 -0.765,1.906 -0.832,2.072c-1.874,0.122 -1.881,0.008 -3.439,1.005c-1.705,-4.42 -1.223,-4.552 -3.014,-8.952c-0.913,-4.191 -1.322,-4.009 -2.841,-8.011c0.771,0.174 1.542,0.348 2.313,0.522c0.163,-0.053 0.466,0.503 0.984,-0.318c1.896,-3.004 2.183,-4.51 4.915,-6.211c0.655,-0.408 1.729,-0.351 2.063,-1.046c0.162,-0.337 -3.733,-2.99 -4.077,-3.225c-0.621,-0.594 -1.242,-1.188 -1.862,-1.781c-1.513,-1.427 -1.405,-1.467 -3.152,-2.605c-0.685,-0.462 -1.369,-0.924 -2.054,-1.386c-2.142,-3.338 -2.743,-2.69 -5.91,-5.098c-0.39,-0.159 -0.728,-0.428 -1.118,-0.588c-0.44,-0.18 -1.843,-0.371 -1.92,-0.333c-0.469,0.235 -0.626,0.895 -1.095,1.131c-0.71,-0.905 -0.642,-0.891 -1.53,-1.537c-5.507,-4.009 1.839,-1.773 8.609,-1.458l21.071,23.662c-2.385,0.806 -5.94,0.371 -10.345,10.211c-0.112,0.696 -0.223,1.392 -0.335,2.087l0.637,2.88c0.177,-0.305 1.601,-2.766 2.306,-3.759c7.435,-10.466 13.252,-5.911 11.86,-8.226c-0.634,-1.055 -3.767,-2.976 -4.122,-3.194l-21.071,-23.662l8.081,31.461c0.107,-0 0.95,1.603 1.911,-0.592c4.3,-9.82 8.935,-6.748 8.84,-9.893c-0.007,-0.241 -1.743,-1.539 -1.904,-1.66c-0.489,-0.366 -3.011,-2.253 -6.692,3.68c-1.96,3.16 -1.706,3.26 -2.154,8.465l-8.081,-31.461l22.326,20.633c0.945,1.975 0.77,2.142 2.62,3.359c1.155,0.76 1.238,0.106 1.569,-1.221c1.676,-6.716 2.949,-6.126 3.021,-6.71c0.16,-1.294 -3.198,-2.188 -3.522,-2.275c-1.849,-0.492 -2.787,0.849 -3.688,6.846l-22.326,-20.633l22.712,13.044c-4.461,-3.03 -5.281,-1.192 -5.461,-0.789c-1.57,3.515 -1.113,3.955 1.914,6.4c1.85,1.494 0.772,-1.002 2.489,-4.047c0.482,-0.854 0.525,-0.776 1.058,-1.564l-22.712,-13.044l34.755,16.99c-1.093,-0.307 -2.223,-1.802 -4.048,0.551c-0.232,0.3 -1.504,1.939 -1.977,4.308c-0.038,0.192 -0.995,11.847 1.317,2.064c0.878,-3.715 3.528,-5.148 4.4,-5.88l0.308,-1.043l-34.755,-16.99l12.002,8.857c-0.08,0.17 -0.09,0.111 -1.123,2.068c0.222,0.263 2.66,3.145 3.137,2.945c0.377,-0.158 2.29,-3.233 1.592,-3.791c-0.534,-0.427 -3.311,-1.145 -3.606,-1.221l-12.002,-8.857l31.243,25.695c0.235,0.025 0.255,0.487 0.49,0.512c2.146,0.228 4.216,-4.173 4,-5.215c-0.599,-2.892 -4.252,4.24 -4.49,4.703l-31.243,-25.695l9.929,7.927c-2.733,-1.146 -2.973,-2.002 -3.631,-0.901c-0.599,1.002 4.162,3.664 4.582,3.899c1.033,-1.956 1.042,-1.897 1.123,-2.068l-0.999,-0.087c-0.358,-0.281 -0.716,-0.562 -1.074,-0.843l-9.929,-7.927Z" style="fill:#0a0a0a;fill-opacity:0.59;"/><path d="M20.371,15.077c5.669,0.87 19.303,0.315 20.985,0.49c6.537,0.677 21.463,-1.019 25.004,-1.17c1.168,-0.05 3.018,1.304 0.818,1.813c-3.088,0.714 -4.028,0.966 -8.315,4.771c-5.405,4.798 -2.826,9.376 -6.508,12.465c-0.303,-0.141 -0.701,0.134 -1.004,-0.007c-1.73,-0.805 -0.9,-1.343 -0,-2.984c0.074,-0.05 1.113,0.631 1.184,-0.803c0.61,-12.29 11.091,-11.7 7.342,-12.93c-0.021,-0.007 -7.163,1.118 -7.254,1.16c-3.218,1.473 -6.736,8.177 -5.767,9.826c0.158,0.27 0.203,0.596 0.361,0.866c-0.234,-0.051 -0.143,-0.236 -2.832,-0.968c1.432,-9.85 5.446,-8.57 4.794,-10.083c-0.172,-0.4 -3.331,0.174 -3.616,0.225c-0.183,0.033 -0.13,0.104 -2.117,0.972l-1.022,-0.51c-9.114,-2.309 -8.733,1.783 -9.131,5.27c-0.62,-0.281 -1.24,-0.562 -1.86,-0.843c-0.052,-2.178 0.339,-2.08 0.878,-4.191c0.219,-0.86 -0.101,-0.841 -0.997,-0.874c-3.032,-0.111 -3.225,0.087 -3.944,1.872c-0.332,-0.373 -0.895,-0.487 -1.226,-0.86c-0.27,-0.303 0.098,-0.402 -0.18,-0.721c-0.271,-0.311 -0.419,0.034 -0.708,-0.297c-2.462,-0.161 -2.403,0.042 -4.863,-0.147c-0.007,-0.781 -0.014,-1.563 -0.022,-2.344Z" style="fill:#090909;fill-opacity:0.6;"/><path d="M7.258,17.554c0.469,-0.235 0.626,-0.895 1.095,-1.131c0.076,-0.038 1.48,0.153 1.92,0.333c0.39,0.159 0.728,0.428 1.118,0.588c-0.197,0.509 -1.039,0.564 -1.236,1.073c-0.172,0.445 0.25,0.296 3.364,4.924c1.44,2.14 2.102,1.091 3.782,-0.899c0.685,0.462 1.369,0.924 2.054,1.386c-2.045,1.8 -2.773,1.36 -2.999,3.613c-0.031,0.312 0.083,0.276 1.122,3.751c0.806,1.22 0.633,1.333 1.791,2.252c0.282,2.854 0.414,2.795 1.215,5.571c-0.771,-0.174 -1.542,-0.348 -2.313,-0.522c-4.251,-12.632 -6.412,-12.997 -10.913,-20.938Z" style="fill:#0a0909;fill-opacity:0.55;"/><path d="M45.579,40.254c-0.025,1.623 -0.012,1.581 -0.362,3.14c-0.803,1.817 -0.92,2.744 -2.607,1.655c-0.272,-0.176 -0.188,-0.197 -0.453,-0.367c-0.368,-0.236 -0.368,-0.16 -0.716,-0.384l-0.449,-0.523l-0.329,-1.289c0.574,-0.381 1.149,-0.761 1.723,-1.142c0.339,0.074 0.678,0.149 1.016,0.223c0.726,-0.438 1.451,-0.875 2.177,-1.313Z" style="fill:#060706;fill-opacity:0.79;"/><path d="M42.424,18.212l1.022,0.51c-2.55,2.885 -2.771,2.904 -3.11,6.725c-0.688,-0.042 -1.376,-0.083 -2.065,-0.125c0.539,-5.045 0.634,-5.393 4.153,-7.111Z" style="fill:#0c0c0c;fill-opacity:0.49;"/><path d="M14.337,14.559c2.817,0.144 2.806,-0.053 6.034,0.518c0.007,0.781 0.014,1.563 0.022,2.344c-1.506,-0.412 -1.391,-0.641 -2.993,-0.818c-1.697,-0.188 -1.504,0.377 -2.008,0.807c-0.267,-0.525 -0.988,-0.245 -1.055,-2.851Z" style="fill:#0b0b0b;fill-opacity:0.57;"/><path d="M36.34,44.61c0.75,0.044 1.5,0.089 2.249,0.133c-0.568,5.309 -2.826,3.922 -5.407,2.335c0.114,-0.127 0.114,-0.099 1.544,-1.476c0.305,0.153 0.416,0.576 0.721,0.729c1.336,0.671 1.33,-0.932 1.329,-1.069c-0.001,-0.262 -0.436,-0.39 -0.437,-0.652Z" style="fill:#0b0b0b;fill-opacity:0.47;"/><path d="M27.464,54.451c-1.012,3.165 -1.071,3.923 -2.096,3.894c-1.908,-0.055 -0.903,-1.034 -1.344,-2.889c1.559,-0.996 1.565,-0.883 3.439,-1.005Z" style="fill:#070808;fill-opacity:0.7;"/><path d="M32.505,51.401c0.041,1.057 0.081,2.114 0.122,3.171c-0.027,0.018 -0.222,0.873 -1.254,0.821c-0.314,-0.016 -0.229,-0.182 -0.557,-0.199l-0.654,-2.691c0.124,-0.12 1.555,-1.503 1.555,-1.503c0.279,-0.096 0.51,0.495 0.788,0.4Z" style="fill:#090808;fill-opacity:0.64;"/><path d="M36.34,44.61c0.001,0.262 0.436,0.39 0.437,0.652c0.001,0.136 0.006,1.74 -1.329,1.069c-0.305,-0.153 -0.416,-0.576 -0.721,-0.729c0.538,-0.331 1.076,-0.661 1.614,-0.992Z" style="fill:#212222;fill-opacity:0.03;"/><path d="M24.728,50.52l0.637,2.88c-0.511,-1.421 -0.59,-1.345 -0.637,-2.88Z" style="fill:#0e0e0e;fill-opacity:0.24;"/></g></svg>