<?xml version="1.0" encoding="UTF-8" standalone="no"?><!DOCTYPE svg PUBLIC "-//W3C//DTD SVG 1.1//EN" "http://www.w3.org/Graphics/SVG/1.1/DTD/svg11.dtd"><svg width="100%" height="100%" viewBox="0 0 72 72" version="1.1" xmlns="http://www.w3.org/2000/svg" xmlns:xlink="http://www.w3.org/1999/xlink" xml:space="preserve" xmlns:serif="http://www.serif.com/" style="fill-rule:evenodd;clip-rule:evenodd;stroke-linejoin:round;stroke-miterlimit:2;"><g><path d="M44.414,4.675c1,0.438 1.999,0.877 2.999,1.315c-0.108,0.694 -0.619,1.209 -0.727,1.903c-0.067,0.433 0.26,0.851 0.229,1.291c-0.03,0.42 -0.367,0.732 -0.405,1.151c-0.044,0.477 0.056,0.416 2.041,4.013l-1.284,1.296c-0.566,-0.315 -0.555,-0.154 -3.584,-1.342c-0.263,-0.3 -0.122,-0.967 -0.384,-1.267c-0.454,-0.518 -2.299,0.355 -4.88,-0.52c-2.716,-0.921 -3.334,-2.279 -4.79,0.786c-1.211,2.548 6.207,2.103 7.828,3.054c0.418,0.392 0.414,1.3 0.832,1.692c0.277,0.259 0.711,-0.132 1.024,0.045c0.414,0.235 0.645,0.845 1.041,1.126c0.604,0.429 2.966,0.05 4.984,1.367c0.912,0.595 0.82,0.664 2.37,2.285c0.536,-0.386 1.073,-0.771 1.609,-1.157l0.834,1.577c0.125,3.281 0.086,3.266 0.206,3.964c-0.003,0.002 -1.034,2.721 -2.368,0.631c-1.568,-2.458 -1.901,-1.77 -2.789,-2.133c-3.334,0.814 -3.309,0.757 -3.59,0.857c-0.955,0.338 -1.137,1.833 -4.364,-0.592c-0.766,-0.896 -1.531,-1.791 -2.297,-2.687c0.209,-0.178 2.578,-2.192 2.518,-2.399c-0.748,-2.575 -1.428,-1.146 -3.275,0.152c-4.956,-1.832 -3.748,1.753 -3.568,2.086c0.919,1.698 1.176,1.142 2.686,1.726c-0.188,1.854 -0.179,1.806 -0.056,3.669c-1.89,0.376 -1.856,0.525 -3.698,-0.052c-3.434,-4.975 -3.427,0.261 -4.202,1.402c-0.182,0.268 -0.573,0.068 -0.8,0.27c-1.002,0.889 -0.372,1.198 -0.037,3.104c-0.134,0.034 -1.68,0.43 -1.68,0.43c-0.21,-0.221 -0.215,-0.838 -0.486,-0.843c-0.097,-0.002 -0.929,0.743 -1.007,0.812c-0.943,0.844 -1.012,0.563 -2.064,1.148c0.047,-0.807 0.095,-1.614 0.142,-2.421c0.281,-0.901 0.562,-1.802 0.843,-2.704l0.043,-1.374c2.96,-1.712 1.989,-3.314 4.828,-5.353c2.658,-1.908 2.116,-2.599 2.156,-4.741c-0.075,-0.902 -0.151,-1.804 -0.226,-2.706c0.119,-1.015 0.237,-2.029 0.356,-3.044c0.127,-0.437 0.739,-0.401 0.866,-0.837c0,0 0.026,-2.196 0.028,-2.387c2.212,-0.306 2.2,-0.144 2.976,-0.577c1.743,-0.971 1.75,-0.784 1.884,-0.899c0.3,-0.259 0.287,-0.917 0.587,-1.176c0.549,1.569 0.376,1.671 1.286,2.913c2.729,3.724 2.674,-0.689 2.952,-0.98c0.804,-1.291 1.608,-2.582 2.411,-3.872Z" style="fill:#b1997c;fill-opacity:1;"/><path d="M55.262,22.592l0.848,0.798c0.171,5.775 1.064,5.505 2.157,11.575c-0.106,1.589 -0.211,3.178 -0.317,4.766c-1.084,2.115 -1.139,1.989 -1.997,4.305c-1.573,4.595 -2.481,3.931 -3.737,8.67c-1.764,0.433 -1.708,0.606 -8.085,3.826c-1.995,0.548 -1.964,0.511 -3.892,1.306c-0.837,0.441 -1.799,0.372 -2.636,0.813c0,0 -0.345,1.964 -0.375,2.135l-1.135,0.625c-0.365,-1.021 -0.384,-0.92 -0.704,-1.971c-0.132,-0.432 -0.196,-0.467 -4.01,-1.453c-3.549,-1.046 -3.493,-1.157 -6.981,-2.519c-2.476,-1.704 -2.949,-0.878 -6.309,-5.778c0.241,-1.785 1.053,-1.297 1.291,-3.063c0.101,-0.75 -0.397,0.16 -0.845,-0.242c-3.985,-3.573 -3.46,-12.745 -3.394,-13.909l1.099,-1.381c0.031,-0.863 0.062,-1.726 0.094,-2.59l0.534,-1.929c2.208,2.525 2.903,3.714 4.633,0.618c0.138,0.022 1.725,0.27 1.725,0.27c0.411,0.138 0.671,0.731 1.082,0.869l-0.043,1.374c-0.281,0.901 -0.562,1.802 -0.843,2.704c-0.047,0.807 -0.095,1.614 -0.142,2.421c-2.131,2.258 -2.152,2.298 -4.879,2.859c-0.301,0.521 -0.543,-0.046 -0.847,0.481c-0.369,0.638 0.241,0.209 0.715,0.618c0.326,0.327 2.25,2.255 3.166,5.264c0.123,0.403 -0.111,0.896 0.012,1.299c0.063,2.144 -0.628,2.521 0.644,3.854c0.298,0.312 2.276,0.347 2.324,1.016c0.145,2.045 0.578,1.776 2.026,2.546c3.107,1.653 9.639,2.433 10.864,2.437c9.7,-1.382 13.248,-6.081 14.096,-7.203c6.236,-9.948 4.621,-13.62 4.29,-15.49c-0.445,-1.753 -0.89,-3.507 -1.335,-5.26c-0.12,-0.698 -0.081,-0.683 -0.206,-3.964l1.111,-0.698Z" style="fill:#947e65;"/><path d="M6.114,24.49c0.783,0.361 0.585,0.685 1.315,1.021c0.563,0.259 0.559,-0.114 1.122,0.1c0,0 1.701,0.93 1.849,1.01c2.922,1.984 2.87,2.103 3.154,2.141c0.273,0.036 0.05,-1.017 0.323,-0.981c-0.21,1.562 -0.138,1.529 -0.583,3.059c-0.244,0.953 -0.488,1.906 -0.732,2.858c0.672,7.617 -0.072,8.829 5.53,15.989c3.359,4.9 3.833,4.074 6.309,5.778c-0.332,0.158 -0.683,-0.555 -1.015,-0.396c-1.215,0.579 -0.762,1.496 -2.007,1.901c-0.155,0.05 -0.148,0.007 -1.999,0.098c-0.676,-0.436 -1.351,-0.872 -2.027,-1.308c-2.769,-0.319 -2.667,0.601 -2.875,0.468c-0.576,-0.368 -1.054,-1.189 -1.139,-2.014c-0.054,-0.524 0.63,-0.715 0.812,-1.188c0,0 -0.053,-2.307 -0.058,-2.507c-0.173,0.093 -0.379,-0.235 -0.553,-0.142c-0.165,0.088 -1.739,0.933 -1.908,1.489c-0.199,0.654 0.524,0.61 0.201,1.214c-0.672,1.259 -1.128,0.521 -1.817,1.811c-3.413,-4.639 -3.418,-4.696 -4.381,-8.326c-0.609,-2.294 -0.03,-2.333 -0.084,-2.523c0,0 -1.613,-2.405 -1.753,-2.614c-0.494,-6.797 -0.734,-10.417 2.317,-16.939Z" style="fill:#c3a57f;fill-opacity:0.99;"/><path d="M55.692,32.513c0.331,1.87 1.947,5.542 -4.29,15.49c-0.59,-0.291 -4.386,-3.254 -9.284,2.226c-0.052,-0.818 -0.104,-1.636 -0.156,-2.454c0.095,-0.779 0.19,-1.558 0.285,-2.337c0.188,-0.532 0.944,-0.433 1.132,-0.965c0.572,-1.616 -1.877,-2.834 -2.109,-2.949c-1.176,-0.585 -2.195,-1.974 -2.285,-2.065c-1.882,-1.906 -1.268,-2.41 -1.721,-3.786l1.083,0.133c0.683,0.152 1.226,0.914 1.909,1.066c0.491,0.11 1.072,-0.321 1.154,-0.382c0.993,-0.736 0.775,-1.048 1.792,-1.803c0.145,0.112 1.806,1.4 1.806,1.4c0.677,-0.493 0.699,-1.097 0.703,-1.219c0.028,-0.783 -0.646,-0.35 -0.62,-1.08c2.011,0.898 1.994,1.327 3.144,0.883c2.269,-0.875 2.255,-0.84 4.542,-0.303l0.604,-0.401c0.77,-0.484 1.54,-0.969 2.31,-1.453Z" style="fill:#9f8a72;"/><path d="M29.99,44.684c0.264,0.116 0.129,0.301 0.413,0.426c0.136,0.06 0.127,0.049 1.717,0.659c2.716,3.813 2.852,3.797 3.196,3.759c0.531,-0.06 0.924,-0.803 1.455,-0.863c3.297,3.06 4.573,1.568 5.347,1.564c4.897,-5.48 8.693,-2.516 9.284,-2.226c-0.848,1.123 -4.396,5.821 -14.096,7.203c-1.225,-0.004 -7.757,-0.784 -10.864,-2.437c-1.448,-0.77 -1.881,-0.502 -2.026,-2.546c-0.047,-0.669 -2.026,-0.704 -2.324,-1.016c-1.272,-1.333 -0.581,-1.71 -0.644,-3.854c2.018,-1.597 2.114,-0.412 3.739,1.325c1.544,-0.962 1.478,-1.013 3.156,-1.358c0.549,-0.212 1.098,-0.425 1.647,-0.637Z" style="fill:#bfa382;"/><path d="M14.091,50.519c0.005,0.201 0.058,2.507 0.058,2.507c-0.182,0.474 -0.865,0.664 -0.812,1.188c0.084,0.825 0.563,1.646 1.139,2.014c0.208,0.133 0.105,-0.787 2.875,-0.468c0.676,0.436 1.351,0.872 2.027,1.308c1.851,-0.09 1.844,-0.047 1.999,-0.098c1.246,-0.404 0.793,-1.322 2.007,-1.901c0.332,-0.158 0.683,0.555 1.015,0.396c3.488,1.363 3.432,1.473 6.981,2.519c-0.444,0.365 -0.443,-0.669 -0.897,-0.295c-0.117,0.096 -0.939,0.773 -0.986,1.845c-0.08,1.835 1.364,0.994 1.444,2.87c0.02,0.471 0.11,2.568 -4.507,0.822c-0.695,-0.263 -0.336,-0.939 -1.077,-1.107c-0.252,-0.057 -0.636,-0.144 -2.097,3.131c-4.381,-1.948 -4.389,-1.887 -4.768,-2.062c-4.821,-3.134 -4.41,-3.795 -8.477,-8.299c0.689,-1.29 1.145,-0.552 1.817,-1.811c0.322,-0.604 -0.4,-0.561 -0.201,-1.214c0.169,-0.557 1.743,-1.401 1.908,-1.489c0.173,-0.093 0.379,0.235 0.553,0.142Z" style="fill:#ddbd91;"/><path d="M31.3,3.71c-0.003,1.119 1.031,1.963 1.028,3.082c-0.001,0.577 -0.894,0.542 -1.039,1.088c0,0 0.946,1.274 1.028,1.385c-0.002,0.191 -0.028,2.387 -0.028,2.387c-0.127,0.437 -0.739,0.401 -0.866,0.837c-2.126,0.842 -2.096,0.719 -4.091,1.826c-3.843,1.798 -3.886,1.541 -7.46,4.098c-0.814,-0.562 -1.629,-1.124 -2.443,-1.687c-0.076,-1.836 -0.532,-2.649 0.927,-2.649c1.584,0 1.319,-0.633 1.776,-1.419c0.517,-0.89 1.189,-0.899 1.22,-0.922c0.563,-0.597 0.572,-0.506 1.119,-1.188c0.655,-0.816 0.005,-2.397 -0.182,-4.206c4.467,-1.59 4.433,-1.526 9.011,-2.634Z" style="fill:#b99b75;fill-opacity:0.98;"/><path d="M22.289,6.344c0.187,1.809 0.836,3.39 0.182,4.206c-0.548,0.682 -0.556,0.59 -1.119,1.188c-0.031,0.023 -0.703,0.032 -1.22,0.922c-0.456,0.786 -0.191,1.42 -1.776,1.419c-1.459,-0 -1.003,0.813 -0.927,2.649c-1.939,1.681 -2.664,1.364 -2.469,4.361c0.113,1.741 1.313,1.911 1.323,1.926c-0.483,0.829 -0.611,0.637 -0.945,1.622c-0.072,0.212 -0.071,0.194 -0.952,2.619l-0.512,0.528c-0.273,-0.036 -0.05,1.017 -0.323,0.981c-0.283,-0.038 -0.232,-0.158 -3.154,-2.141c0.4,-1.618 0.937,-1.531 0.542,-3.119c-0.122,-0.49 -0.285,-0.963 -0.396,-1.458c-0.508,-2.259 -0.714,-2.062 -1.446,-4.176c6.637,-7.988 7.51,-8.558 13.191,-11.525Z" style="fill:#bc9e79;fill-opacity:0.97;"/><path d="M30.994,32.321c0.191,0.931 0.383,1.862 0.574,2.793c-0.137,0.482 -0.629,0.698 -0.766,1.18c-0.995,3.493 2.215,3.397 2.504,3.389c3.492,-0.104 4.561,3.601 5.134,4.186c0.523,0.534 1.279,0.581 1.801,1.115l-0.536,1.476c-1.815,0.303 -2.048,0.049 -2.934,2.205c-0.531,0.06 -0.924,0.803 -1.455,0.863c-0.344,0.039 -0.48,0.054 -3.196,-3.759c2.81,-2.174 2.437,-2.794 2.254,-3.033c-0.115,-0.15 -0.162,0.466 -2.045,0.007c-0.359,-0.088 -0.688,-0.851 -0.996,-0.595c-0.666,0.553 -0.676,1.984 -1.342,2.537c-0.549,0.212 -1.098,0.425 -1.647,0.637c0.014,-0.455 0.356,-0.823 0.37,-1.278c0.026,-0.867 -0.225,-1.715 -0.252,-2.582c-0.076,-2.426 -0.296,-3.136 -2.122,-2.479c-0.192,0.069 -1.478,4.623 -3.277,2.642c-0.672,-0.739 -0.661,-1.007 0.014,-1.781c2.645,-3.032 0.333,-4.681 0.205,-5.01c1.052,-0.585 1.121,-0.304 2.064,-1.148c0.078,-0.07 0.91,-0.814 1.007,-0.812c0.271,0.006 0.276,0.622 0.486,0.843c0,0 1.546,-0.396 1.68,-0.43c1.656,0.114 1.666,0.223 1.787,0.123c0.305,-0.253 0.384,-0.835 0.689,-1.087Z" style="fill:#b79e7f;"/><path d="M47.413,5.99c4.459,1.392 4.284,1.833 8.158,5.168c1.225,1.055 1.841,0.656 5.803,5.568c-0.876,0.561 -0.317,1.243 -1.158,1.782c-0.073,0.047 -0.376,0.241 -0.973,-0.418c-0.356,-0.393 -0.402,-1.15 -0.776,-1.514c-0.25,-0.243 -0.668,0.074 -0.931,-0.144c-0.407,-0.337 -0.484,-1.259 -0.952,-1.415c-0.503,-0.168 -0.984,0.769 -1.487,0.601l-0.873,-0.496l-0.902,-0.917c-0.335,-0.269 -0.669,-0.538 -1.004,-0.808c-1.029,0.191 -2.058,0.383 -3.087,0.574l-0.681,0.377c-1.985,-3.597 -2.085,-3.536 -2.041,-4.013c0.038,-0.419 0.375,-0.731 0.405,-1.151c0.032,-0.44 -0.296,-0.858 -0.229,-1.291c0.108,-0.694 0.619,-1.209 0.727,-1.903Z" style="fill:#c1a37e;fill-opacity:0.99;"/><path d="M31.379,57.986c3.814,0.987 3.878,1.021 4.01,1.453c0.32,1.051 0.339,0.95 0.704,1.971c0.165,0.647 0.33,1.294 0.496,1.94c-0.501,0.151 -0.844,0.832 -1.345,0.982c-0.219,0.066 -1.999,-1.164 -2.576,-0.515c-0.209,0.235 -0.487,0.548 0.661,4.392c-0.994,-0.032 -1.988,-0.065 -2.981,-0.097c-2.035,-0.348 -1.969,-0.419 -4.011,-0.78c-0.683,-0.381 -1.367,-0.763 -2.05,-1.144l-1.027,-0.937c1.461,-3.276 1.845,-3.188 2.097,-3.131c0.741,0.168 0.382,0.844 1.077,1.107c4.617,1.746 4.527,-0.351 4.507,-0.822c-0.08,-1.876 -1.525,-1.035 -1.444,-2.87c0.047,-1.072 0.869,-1.749 0.986,-1.845c0.454,-0.374 0.453,0.66 0.897,0.295Z" style="fill:#dbbc91;"/><path d="M63.271,19.439c0.213,0.326 2.329,3.571 2.438,4.305c0.037,0.248 -0.278,0.478 -0.202,0.71c0.078,0.236 0.428,0.108 0.541,0.318c0.563,1.049 -0.022,1.255 0.397,2.377c0.064,0.172 0.369,0.059 0.399,0.246c0.054,0.33 -0.285,0.659 -0.199,0.978c0.014,0.052 0.103,-0.349 0.513,0.188c0.385,0.505 0.133,0.658 0.489,1.125c-0.307,0.67 -1.111,0.776 -1.417,1.446c-0.172,0.375 0.238,0.865 0.166,1.291c-0.083,0.491 -0.22,1.212 -0.603,1.291c-0.225,0.046 0.06,-0.901 -2.604,-1.487c-1.519,-1.033 -1.891,-1.192 -1.868,-2.383c0.07,-3.581 0.982,-3.117 0.965,-3.406c0,-0 -2.8,-4.54 -3.044,-4.935c0.334,-0.121 1.967,-0.712 4.03,-2.065Z" style="fill:#b49b7b;fill-opacity:0.99;"/><path d="M59.241,21.503c0.244,0.395 3.044,4.935 3.044,4.935c0.017,0.289 -0.895,-0.175 -0.965,3.406c-0.023,1.191 0.349,1.35 1.868,2.383c-0.183,0.361 -0.814,-0.281 -0.997,0.08c0,0 0.025,2.538 0.027,2.759c-2.023,0.219 -1.975,0.242 -3.95,-0.102c-1.093,-6.069 -1.986,-5.799 -2.157,-11.575c0.321,-0.195 0.742,0.128 1.063,-0.068c0.181,-0.11 0.153,-0.135 2.068,-1.819Z" style="fill:#b19a7e;"/><path d="M41.246,26.015c3.226,2.425 3.408,0.93 4.364,0.592c0.282,-0.1 0.256,-0.042 3.59,-0.857c-0.673,2.897 -0.642,3.254 1.245,5.024c0.244,0.229 0.503,0.503 0.803,0.539c0.663,0.079 1.367,-0.504 1.993,-0.206c0.166,0.079 0.009,0.175 0.141,2.858l-0.604,0.401c-2.287,-0.538 -2.272,-0.572 -4.542,0.303c-1.151,0.444 -1.134,0.015 -3.144,-0.883l-0.578,-1.367c-0.396,-0.76 -0.792,-1.519 -1.188,-2.279c-0.237,-0.276 -0.693,0.565 -0.93,0.288c0,0 -0.858,-3.009 -0.933,-3.27l-0.217,-1.144Z" style="fill:#ac957a;"/><path d="M23.281,34.832c0.129,0.329 2.441,1.978 -0.205,5.01c-0.676,0.775 -0.686,1.042 -0.014,1.781c1.8,1.981 3.085,-2.572 3.277,-2.642c1.826,-0.658 2.045,0.053 2.122,2.479c0.027,0.867 0.279,1.715 0.252,2.582c-0.014,0.455 -0.356,0.823 -0.37,1.278c-1.678,0.345 -1.613,0.396 -3.156,1.358c-1.625,-1.738 -1.721,-2.923 -3.739,-1.325c-0.123,-0.403 0.111,-0.896 -0.012,-1.299c-0.916,-3.01 -2.84,-4.938 -3.166,-5.264l0.133,-1.099c2.727,-0.561 2.748,-0.601 4.879,-2.859Z" style="fill:#c9ae8a;"/><path d="M30.177,18.537l1.116,-0.298c-0.04,2.143 0.502,2.833 -2.156,4.741c-2.839,2.039 -1.868,3.64 -4.828,5.353c-0.411,-0.138 -0.671,-0.731 -1.082,-0.869c0,0 -1.587,-0.248 -1.725,-0.27c-1.281,-1.374 -1.301,-1.292 -2.844,-2c0.276,-0.83 -0.365,-1.19 0.922,-2.769c1.094,-1.343 2.688,2.484 5.649,-0.58c1.762,-1.823 1.957,-1.348 3.818,-2.973c0.514,-0.449 0.528,-0.157 1.13,-0.335Z" style="fill:#94816a;"/><path d="M67.646,29.686l0.253,0.206c0.629,4.475 0.541,4.417 0.602,8.992c-0.433,0.621 -1.23,0.665 -1.662,1.286c0,0 -0.484,3.622 -0.526,3.936c-1.905,-1.453 -1.89,-1.451 -2.058,-1.569c-0.436,-0.305 -0.478,0.036 -0.947,-0.293c-0.176,-1.707 -0.138,-1.668 -0.347,-3.357c-0.246,-1.994 0.563,-1.866 0.628,-2.227c0.103,-0.565 0.139,-1.336 -0.194,-1.724c-0.293,-0.341 -0.884,0.47 -1.178,0.13c-0.002,-0.221 -0.027,-2.759 -0.027,-2.759c0.183,-0.361 0.814,0.281 0.997,-0.08c2.664,0.586 2.379,1.533 2.604,1.487c0.383,-0.079 0.52,-0.8 0.603,-1.291c0.072,-0.426 -0.337,-0.916 -0.166,-1.291c0.307,-0.67 1.111,-0.776 1.417,-1.446Z" style="fill:#a48d70;fill-opacity:0.98;"/><path d="M31.568,35.113c0.908,-0.198 1.816,-0.396 2.724,-0.593c0.445,0.4 0.623,1.188 1.068,1.588c0.402,0.361 0.882,0.251 0.959,0.234c0.546,-0.125 0.356,-0.534 0.945,-0.668c0.453,1.375 -0.161,1.88 1.721,3.786c0.09,0.091 1.109,1.48 2.285,2.065c0.232,0.115 2.681,1.334 2.109,2.949c-0.188,0.532 -0.944,0.433 -1.132,0.965c-0.669,-0.152 -1.337,-0.303 -2.006,-0.455c-0.523,-0.534 -1.279,-0.581 -1.801,-1.115c-0.573,-0.585 -1.643,-4.291 -5.134,-4.186c-0.29,0.009 -3.499,0.105 -2.504,-3.389c0.137,-0.482 0.629,-0.698 0.766,-1.18Z" style="fill:#98836c;"/><path d="M28.543,16.549c0.545,0.663 1.089,1.325 1.634,1.988c-0.602,0.179 -0.616,-0.113 -1.13,0.335c-1.861,1.625 -2.056,1.15 -3.818,2.973c-2.961,3.064 -4.555,-0.764 -5.649,0.58c-1.286,1.579 -0.645,1.939 -0.922,2.769c-0.596,0.461 -1.193,0.921 -1.789,1.382l-0.534,1.929c-0.274,-0.211 -0.679,0.136 -0.953,-0.075c-0.36,-0.277 0.005,-0.534 -0.288,-0.88c-0.293,-0.346 -0.396,0.072 -0.707,-0.295c0.881,-2.425 0.88,-2.407 0.952,-2.619c0.334,-0.984 0.462,-0.792 0.945,-1.622c1.853,-2.267 1.904,-2.128 3.588,-4.6c0.109,0.398 -0.102,0.869 0.007,1.267c0.485,1.765 3.476,-0.087 5.037,-1.895c0.224,-0.259 0.708,-0.821 3.626,-1.237Z" style="fill:#9e886d;"/><path d="M31.3,3.71c6.046,-0.253 5.992,-0.392 11.988,0.269l1.125,0.696c-0.804,1.291 -1.608,2.582 -2.411,3.872c-2.816,-1.779 -2.435,-2.529 -2.702,-2.538c-0.535,-0.017 -1.002,0.621 -1.537,0.604c-0.3,0.259 -0.287,0.917 -0.587,1.176c-0.134,0.115 -0.141,-0.072 -1.884,0.899c-0.776,0.432 -0.764,0.271 -2.976,0.577c-0.082,-0.111 -1.028,-1.385 -1.028,-1.385c0.145,-0.546 1.038,-0.51 1.039,-1.088c0.003,-1.119 -1.031,-1.963 -1.028,-3.082Z" style="fill:#dfbb88;fill-opacity:1;"/><path d="M62.283,45.179c0.933,0.888 0.976,0.686 3.339,1.646c-1.363,4.076 -1.15,4.267 -3.613,7.297c-1.241,1.73 -1.24,1.664 -2.597,3.243c-2.542,-2.271 -2.541,-2.299 -2.52,-2.633c0.035,-0.551 0.511,-0.95 0.546,-1.501l0.422,-1.246c0.125,-0.084 1.405,0.594 2.268,-1.531c0.035,-0.086 0.393,-0.968 0.355,-1.129c-0.247,-1.041 -1.043,-1.766 -1.29,-2.807c1.172,-0.636 1.162,-0.64 1.266,-0.686c0.896,-0.4 0.875,-0.229 1.825,-0.653Z" style="fill:#b59c7d;"/><path d="M43.683,14.302c3.029,1.189 3.018,1.027 3.584,1.342c2.955,2.097 2.66,2.73 5.898,4.106c0.461,0.16 0.457,-0.1 0.941,0.067c0.168,0.058 0.152,0.07 2.051,0.944l-0.896,1.831l-1.111,0.698l-0.834,-1.577c-0.536,0.386 -1.073,0.771 -1.609,1.157c-1.55,-1.621 -1.458,-1.69 -2.37,-2.285c-2.018,-1.316 -4.38,-0.938 -4.984,-1.367c-0.396,-0.281 -0.627,-0.891 -1.041,-1.126c-0.313,-0.177 -0.747,0.214 -1.024,-0.045c-0.418,-0.392 -0.414,-1.3 -0.832,-1.692c1.304,-0.716 1.258,-0.716 2.226,-2.054Z" style="fill:#948067;"/><path d="M44.131,56.532c2.914,1.648 2.953,1.461 3.16,1.693c0.086,0.096 0.037,0.079 1.031,1.253c0.196,0.232 0.217,0.644 0.4,0.894c1.395,1.9 1.279,-0.387 2.791,-2.073c0.164,0.349 0.005,0.857 0.169,1.207c0.142,0.303 0.168,0.246 2.27,3.32c-1.225,0.652 -2.45,1.303 -3.676,1.955c-0.452,-0.375 -0.41,0.752 -0.871,0.37c-0.868,-0.721 -0.266,-1.344 -1.142,-2.042c-0.298,-0.237 -0.67,0.357 -1.018,0.322c-0.313,-0.032 -0.544,-0.463 -0.856,-0.513c-0.642,-0.102 -1.314,0.287 -1.938,0.07c-0.481,-0.168 -0.716,-0.994 -1.198,-1.161c1.147,-2.384 0.732,-2.534 0.877,-5.295Z" style="fill:#c7a982;"/><path d="M13.292,30.841c0.616,0.545 1.233,1.089 1.849,1.634c-0.067,1.164 -0.592,10.336 3.394,13.909c0.448,0.402 0.946,-0.508 0.845,0.242c-0.238,1.766 -1.05,1.278 -1.291,3.063c-5.602,-7.16 -4.858,-8.372 -5.53,-15.989c0.244,-0.953 0.488,-1.906 0.732,-2.858Z" style="fill:#7d6b55;"/><path d="M43.254,61.827c0.481,0.168 0.716,0.994 1.198,1.161c0.624,0.217 1.297,-0.172 1.938,-0.07c0.312,0.049 0.543,0.481 0.856,0.513c0.348,0.035 0.72,-0.559 1.018,-0.322c0.876,0.697 0.274,1.32 1.142,2.042c0.461,0.383 0.419,-0.745 0.871,-0.37l-1.206,0.619c-4.806,2.131 -4.767,2.11 -9.786,2.942l-0.991,0.159c1.013,-3.054 0.827,-3.27 2.911,-5.21c0.396,-0.369 0.658,-0.966 1.085,-1.271c0.285,-0.203 0.679,0.011 0.964,-0.193Z" style="fill:#cdaf88;"/><path d="M41.463,27.159c0.075,0.262 0.933,3.27 0.933,3.27c0.237,0.276 0.693,-0.565 0.93,-0.288c-1.546,0.521 -1.504,0.527 -3.027,1.02c-1.588,0.514 -1.536,0.435 -3.097,0.954c-1.114,0.371 -1.247,1.403 -1.315,1.479l-1.595,0.927c-0.908,0.198 -1.816,0.396 -2.724,0.593c-0.191,-0.931 -0.383,-1.862 -0.574,-2.793c0.262,-0.243 -0.163,-1.004 0.099,-1.247c0.142,-0.131 0.158,-0.026 2.16,-0.355c0.101,-0.737 0.202,-1.474 0.303,-2.21c1.842,0.578 1.809,0.428 3.698,0.052c3.094,0.025 3.095,0.243 3.333,0.086c0.429,-0.282 0.446,-1.206 0.875,-1.488Z" style="fill:#aa957c;"/><path d="M61.465,42.934c0.273,0.748 0.546,1.497 0.819,2.245c-0.95,0.424 -0.929,0.253 -1.825,0.653c-0.104,0.046 -0.094,0.051 -1.266,0.686c-0.43,0.255 -0.859,0.51 -1.289,0.764c-0.101,0.688 -0.202,1.376 -0.302,2.065l-0.079,0.953c-1.889,0.213 -1.961,0.041 -2.035,0.23c-0.15,0.383 0.349,0.879 0.199,1.262c-0.814,0.439 -1.627,0.877 -2.441,1.316l-1.031,-0.403c1.255,-4.74 2.164,-4.075 3.737,-8.67c3.027,-0.449 3.016,-0.196 5.512,-1.102Z" style="fill:#a99277;"/><path d="M56.231,52.583l1.207,0.648c-0.035,0.551 -0.511,0.95 -0.546,1.501c-0.021,0.335 -0.023,0.362 2.52,2.633c-1.551,1.961 -1.276,2.34 -5.46,5.46c-2.102,-3.074 -2.128,-3.017 -2.27,-3.32c-0.164,-0.349 -0.005,-0.857 -0.169,-1.207l0.198,-1.192c1.142,-0.329 1.134,0.01 2.265,-0.503c1.962,-0.891 1.514,-1.532 2.256,-4.021Z" style="fill:#ad9473;"/><path d="M52.216,52.706l1.031,0.403c-0.083,0.324 0.219,0.684 0.136,1.008c-0.072,0.281 -0.123,0.221 -1.672,2.991l-0.198,1.192c-1.513,1.686 -1.396,3.973 -2.791,2.073c-0.183,-0.25 -0.204,-0.662 -0.4,-0.894c-0.994,-1.174 -0.946,-1.157 -1.031,-1.253c-0.207,-0.232 -0.245,-0.045 -3.16,-1.693c6.377,-3.22 6.32,-3.393 8.085,-3.826Z" style="fill:#d4b78f;"/><path d="M43.326,30.141c0.396,0.76 0.792,1.519 1.188,2.279c-0.437,0.756 -0.874,1.511 -1.311,2.267c-1.018,0.755 -0.799,1.066 -1.792,1.803c-0.083,0.061 -0.663,0.492 -1.154,0.382c-0.683,-0.152 -1.226,-0.914 -1.909,-1.066c-1.399,-0.806 -1.338,-0.87 -2.46,-2.213c0.068,-0.076 0.201,-1.108 1.315,-1.479c1.561,-0.519 1.509,-0.439 3.097,-0.954c1.523,-0.493 1.481,-0.499 3.027,-1.02Z" style="fill:#907e6b;"/><path d="M44.131,56.532c-0.145,2.761 0.27,2.911 -0.877,5.295c-0.285,0.203 -0.679,-0.011 -0.964,0.193c-0.427,0.305 -0.689,0.902 -1.085,1.271c-2.084,1.94 -1.899,2.156 -2.911,5.21c-1.162,-2.44 -1.177,-2.381 -1.705,-5.149c-0.165,-0.647 -0.33,-1.294 -0.496,-1.94l1.135,-0.625c2.327,1.676 4.214,-0.239 4.324,-1.239c0.281,-2.559 -1.183,-1.54 -1.313,-1.709c1.928,-0.794 1.897,-0.758 3.892,-1.306Z" style="fill:#b69a75;"/><path d="M55.098,15.618c0.503,0.168 0.984,-0.769 1.487,-0.601c0.468,0.156 0.545,1.078 0.952,1.415c0.263,0.218 0.681,-0.099 0.931,0.144c0.374,0.363 0.42,1.121 0.776,1.514c0.596,0.659 0.899,0.465 0.973,0.418c0.841,-0.539 0.283,-1.221 1.158,-1.782c1.024,1.31 0.998,1.274 1.897,2.713c-2.063,1.352 -3.696,1.944 -4.03,2.065c-1.915,1.684 -1.887,1.709 -2.068,1.819c-0.321,0.195 -0.742,-0.128 -1.063,0.068l-0.848,-0.798l0.896,-1.831c-0.037,-0.704 0.352,-0.522 0.317,-1.183c-0.013,-0.248 -0.092,-0.194 -1.247,-2.647l-0.129,-1.313Z" style="fill:#998367;fill-opacity:0.99;"/><path d="M43.683,14.302c-0.968,1.338 -0.922,1.338 -2.226,2.054c-1.621,-0.951 -9.039,-0.506 -7.828,-3.054c1.457,-3.065 2.074,-1.706 4.79,-0.786c2.581,0.875 4.426,0.001 4.88,0.52c0.263,0.3 0.122,0.967 0.384,1.267Z" style="fill:#837059;"/><path d="M58.267,34.964c1.975,0.344 1.927,0.321 3.95,0.102c0.293,0.341 0.884,-0.47 1.178,-0.13c0.334,0.388 0.298,1.159 0.194,1.724c-0.066,0.36 -0.875,0.232 -0.628,2.227c0.209,1.69 0.171,1.651 0.347,3.357c-0.614,0.23 -1.228,0.46 -1.843,0.69c-0.307,-2.123 -0.239,-2.147 -0.331,-2.291c0,0 -2.929,-0.839 -3.184,-0.912c0.106,-1.589 0.211,-3.178 0.317,-4.766Z" style="fill:#9d876c;"/><path d="M49.2,25.751c0.887,0.363 1.221,-0.325 2.789,2.133c1.334,2.091 2.364,-0.629 2.368,-0.631c0.445,1.753 0.89,3.507 1.335,5.26c-0.77,0.484 -1.54,0.969 -2.31,1.453c-0.133,-2.683 0.025,-2.779 -0.141,-2.858c-0.625,-0.298 -1.329,0.285 -1.993,0.206c-0.3,-0.036 -0.559,-0.31 -0.803,-0.539c-1.887,-1.77 -1.918,-2.127 -1.245,-5.024Z" style="fill:#97826a;"/><path d="M9.098,17.869c0.732,2.114 0.938,1.918 1.446,4.176c0.111,0.495 0.274,0.968 0.396,1.458c0.395,1.588 -0.142,1.501 -0.542,3.119c-0.148,-0.081 -1.849,-1.01 -1.849,-1.01c-0.563,-0.215 -0.559,0.159 -1.122,-0.1c-0.73,-0.336 -0.532,-0.661 -1.315,-1.021c1.246,-3.539 0.984,-3.715 2.984,-6.621Z" style="fill:#e0bc8c;fill-opacity:0.96;"/><path d="M49.232,13.972c0.255,0.218 0.656,-0.348 0.911,-0.13c0.496,0.423 0.651,1.305 1.083,1.833c1.296,1.582 1.471,0.527 2.999,-0.553l0.873,0.496l0.129,1.313c-1.846,2.717 -1.915,2.573 -2.062,2.818c-3.239,-1.376 -2.943,-2.009 -5.898,-4.106l1.284,-1.296l0.681,-0.377Z" style="fill:#b39b7e;"/><path d="M33.557,28.509c-0.101,0.737 -0.202,1.474 -0.303,2.21c-2.002,0.329 -2.018,0.223 -2.16,0.355c-0.262,0.243 0.163,1.004 -0.099,1.247c-0.305,0.253 -0.384,0.835 -0.689,1.087c-0.121,0.1 -0.13,-0.009 -1.787,-0.123c-0.336,-1.906 -0.965,-2.215 0.037,-3.104c0.227,-0.202 0.618,-0.002 0.8,-0.27c0.775,-1.14 0.768,-6.377 4.202,-1.402Z" style="fill:#927f69;"/><path d="M27.332,14.316c0.568,1.345 0.405,1.47 1.211,2.233c-2.918,0.416 -3.402,0.978 -3.626,1.237c-1.561,1.808 -4.552,3.66 -5.037,1.895c-0.109,-0.398 0.102,-0.869 -0.007,-1.267c3.574,-2.557 3.617,-2.301 7.46,-4.098Z" style="fill:#7c6a54;"/><path d="M36.589,63.351c0.527,2.767 0.543,2.708 1.705,5.149c-3.955,-0.178 -3.938,-0.131 -4.965,-0.289c-1.149,-3.844 -0.87,-4.158 -0.661,-4.392c0.577,-0.649 2.358,0.581 2.576,0.515c0.501,-0.151 0.844,-0.832 1.345,-0.982Z" style="fill:#d4b68e;"/><path d="M17.43,16.728c0.814,0.562 1.629,1.124 2.443,1.687c-1.684,2.472 -1.735,2.333 -3.588,4.6c-0.01,-0.015 -1.21,-0.185 -1.323,-1.926c-0.195,-2.997 0.53,-2.68 2.469,-4.361Z" style="fill:#c4ac8a;"/><path d="M38.949,23.328c0.766,0.896 1.531,1.791 2.297,2.687l0.217,1.144c-0.429,0.282 -0.446,1.206 -0.875,1.488c-0.238,0.156 -0.239,-0.061 -3.333,-0.086c-0.123,-1.864 -0.131,-1.815 0.056,-3.669c0.546,-0.521 1.092,-1.043 1.638,-1.564Z" style="fill:#a48e74;"/><path d="M57.95,39.731c0.255,0.073 3.184,0.912 3.184,0.912c0.092,0.144 0.024,0.168 0.331,2.291c-2.496,0.905 -2.485,0.653 -5.512,1.102c0.858,-2.315 0.913,-2.19 1.997,-4.305Z" style="fill:#bca385;"/><path d="M38.193,21.081c0.252,0.749 0.505,1.498 0.757,2.247c-0.546,0.521 -1.092,1.043 -1.638,1.564c-1.511,-0.583 -1.767,-0.028 -2.686,-1.726c-0.18,-0.332 -1.389,-3.918 3.568,-2.086Z" style="fill:#8c775f;"/><path d="M61.465,42.934c0.614,-0.23 1.228,-0.46 1.843,-0.69c0.469,0.329 0.511,-0.013 0.947,0.293c0.168,0.118 0.152,0.116 2.058,1.569c-0.23,0.906 -0.46,1.813 -0.689,2.719c-2.363,-0.96 -2.406,-0.758 -3.339,-1.646c-0.273,-0.748 -0.546,-1.497 -0.819,-2.245Z" style="fill:#98836b;"/><path d="M39.706,46.46c0.752,0.439 1.505,0.877 2.257,1.316c0.052,0.818 0.104,1.636 0.156,2.454c-0.774,0.004 -2.05,1.496 -5.347,-1.564c0.886,-2.156 1.12,-1.902 2.934,-2.205Z" style="fill:#a99175;"/><path d="M40.239,57.838c0.13,0.169 1.594,-0.85 1.313,1.709c-0.11,1.001 -1.998,2.916 -4.324,1.239c0.03,-0.171 0.375,-2.135 0.375,-2.135c0.837,-0.441 1.799,-0.372 2.636,-0.813Z" style="fill:#d8bb93;"/><path d="M37.764,6.614c0.535,0.017 1.002,-0.621 1.537,-0.604c0.267,0.008 -0.114,0.758 2.702,2.538c-0.278,0.291 -0.223,4.704 -2.952,0.98c-0.91,-1.242 -0.738,-1.344 -1.286,-2.913Z" style="fill:#aa8c67;"/><path d="M59.193,46.519c0.247,1.041 1.043,1.766 1.29,2.807c0.038,0.16 -0.32,1.042 -0.355,1.129c-0.862,2.125 -2.143,1.447 -2.268,1.531c-0.113,-0.561 -0.225,-1.123 -0.338,-1.684l0.079,-0.953l0.302,-2.065c0.43,-0.255 0.859,-0.51 1.289,-0.764Z" style="fill:#c0a88a;"/><path d="M18.658,25.194c1.543,0.708 1.563,0.626 2.844,2c-1.73,3.096 -2.425,1.907 -4.633,-0.618c0.596,-0.461 1.193,-0.921 1.789,-1.382Z" style="fill:#d0b18a;"/><path d="M46.246,38.984c3.028,-0.433 2.976,-0.262 3.233,-0.307c0.715,0.788 0.699,0.733 1.574,0.998l-0.666,2.175c-0.949,0.013 -1.897,0.025 -2.846,0.038c-0.432,-0.968 -0.864,-1.936 -1.296,-2.905Z" style="fill:#9d8870;"/><path d="M55.688,51.793l0.544,0.79c-0.741,2.489 -0.294,3.13 -2.256,4.021c-1.13,0.513 -1.123,0.174 -2.265,0.503c1.548,-2.77 1.6,-2.71 1.672,-2.991c0.083,-0.324 -0.219,-0.684 -0.136,-1.008c0.814,-0.439 1.627,-0.877 2.441,-1.316Z" style="fill:#bba180;"/><path d="M31.423,12.49c-0.119,1.015 -0.237,2.029 -0.356,3.044c-1.295,0.418 -1.218,0.581 -2.523,1.016c-0.807,-0.763 -0.643,-0.888 -1.211,-2.233c1.995,-1.107 1.964,-0.985 4.091,-1.826Z" style="fill:#988266;"/><path d="M52.914,37.499l-0.057,1.347c-0.601,0.276 -1.202,0.553 -1.804,0.829c-0.875,-0.266 -0.86,-0.21 -1.574,-0.998c0.018,-0.186 0.223,-2.319 0.223,-2.319c0.099,-0.1 0.111,0.163 1.572,-0.103c1.827,-0.332 1.309,0.993 1.639,1.244Z" style="fill:#b29a7e;"/><path d="M13.875,27.783l0.512,-0.528c0.311,0.368 0.414,-0.05 0.707,0.295c0.293,0.346 -0.073,0.602 0.288,0.88c0.274,0.211 0.679,-0.136 0.953,0.075c-0.031,0.863 -0.062,1.726 -0.094,2.59l-1.099,1.381c-0.616,-0.545 -1.233,-1.089 -1.849,-1.634c0.445,-1.529 0.374,-1.496 0.583,-3.059Z" style="fill:#9a856b;"/><path d="M29.99,44.684c0.666,-0.553 0.676,-1.984 1.342,-2.537c0.308,-0.256 0.637,0.508 0.996,0.595c1.883,0.459 1.93,-0.158 2.045,-0.007c0.183,0.239 0.556,0.859 -2.254,3.033c-1.59,-0.61 -1.582,-0.599 -1.717,-0.659c-0.284,-0.125 -0.149,-0.31 -0.413,-0.426Z" style="fill:#c1a787;"/><path d="M16.241,31.095c0.696,0.032 1.392,0.064 2.088,0.096l1.022,1.218c-0.052,0.139 -0.65,1.739 -0.65,1.739c-1.483,2.325 -1.135,-0.63 -2.46,-3.052Z" style="fill:#c3a683;"/><path d="M47.542,41.889c0.949,-0.013 1.897,-0.025 2.846,-0.038c-0.532,1.125 0.558,1.292 0.013,2.444c-0.049,0.103 -0.083,0.033 -1.165,-0.01c-1.565,-0.062 -2.277,0.41 -2.159,-1.642c0.019,-0.321 0.446,-0.434 0.465,-0.755Z" style="fill:#a9947a;"/><path d="M46.246,38.984c0.432,0.968 0.864,1.936 1.296,2.905c-2.118,-0.321 -2.107,-0.299 -2.288,-0.347c-0.173,-0.046 -3.094,-2.502 0.992,-2.558Z" style="fill:#927e68;"/><path d="M52.319,13.397l1.004,0.808l0.902,0.917c-1.528,1.079 -1.703,2.135 -2.999,0.553c-0.432,-0.528 -0.587,-1.41 -1.083,-1.833c-0.255,-0.218 -0.656,0.348 -0.911,0.13c1.029,-0.191 2.058,-0.383 3.087,-0.574Z" style="fill:#a2896c;"/><path d="M55.227,16.931c1.156,2.452 1.234,2.399 1.247,2.647c0.035,0.661 -0.355,0.479 -0.317,1.183c-1.899,-0.874 -1.883,-0.886 -2.051,-0.944c-0.484,-0.167 -0.48,0.092 -0.941,-0.067c0.147,-0.245 0.216,-0.101 2.062,-2.818Z" style="fill:#b09679;"/><path d="M38.193,21.081c1.847,-1.298 2.527,-2.728 3.275,-0.152c0.06,0.207 -2.309,2.221 -2.518,2.399c-0.252,-0.749 -0.505,-1.498 -0.757,-2.247Z" style="fill:#a38c72;"/><path d="M40.242,44.983c0.669,0.152 1.337,0.303 2.006,0.455c-0.095,0.779 -0.19,1.558 -0.285,2.337c-0.752,-0.439 -1.505,-0.877 -2.257,-1.316l0.536,-1.476Z" style="fill:#d5b58b;"/><path d="M32.707,50.453c-0.511,0.282 -0.864,0.938 -1.375,1.22c-0.978,0.54 -2.652,-2.078 -1.035,-2.539c2.018,-0.575 1.98,0.842 2.41,1.319Z" style="fill:#d5b78f;"/><path d="M57.523,50.301c0.113,0.561 0.225,1.123 0.338,1.684l-0.422,1.246l-1.207,-0.648l-0.544,-0.79c0.15,-0.383 -0.349,-0.879 -0.199,-1.262c0.074,-0.189 0.146,-0.016 2.035,-0.23Z" style="fill:#aa9173;"/><path d="M31.067,15.533c0.075,0.902 0.151,1.804 0.226,2.706l-1.116,0.298c-0.545,-0.663 -1.089,-1.325 -1.634,-1.988c1.306,-0.435 1.229,-0.598 2.523,-1.016Z" style="fill:#a48e72;"/><path d="M35.887,33.593c1.121,1.343 1.061,1.406 2.46,2.213l-1.083,-0.133c-0.589,0.134 -0.398,0.544 -0.945,0.668c-0.077,0.018 -0.558,0.127 -0.959,-0.234c-0.445,-0.4 -0.623,-1.188 -1.068,-1.588l1.595,-0.927Z" style="fill:#9c8973;"/><path d="M44.514,32.42l0.578,1.367c-0.026,0.73 0.648,0.298 0.62,1.08c-0.004,0.122 -0.026,0.726 -0.703,1.219c-0,0 -1.662,-1.288 -1.806,-1.4c0.437,-0.756 0.874,-1.511 1.311,-2.267Z" style="fill:#9f8971;"/><path d="M46.677,23.17c-1.21,1.203 -1.191,1.988 -2.048,1.181c-0.782,-0.737 -0.692,-1.078 0.058,-1.831c0.632,-0.635 0.683,-0.134 1.99,0.65Z" style="fill:#8a7863;"/><path d="M6.789,40.394c-0.883,-1.508 -2.561,-1.216 -1.353,-2.31c0.665,-0.602 0.684,-0.109 1.072,0.761c0.33,0.742 0.136,0.751 0.281,1.549Z" style="fill:#c7a77f;fill-opacity:1;"/><path d="M25.581,47.918c0.167,0.056 2.271,0.757 2.033,0.917c-1.738,1.168 -1.867,-0.842 -2.033,-0.917Z" style="fill:#ba9d79;"/><path d="M8.977,37.964c0.438,0.738 0.876,1.476 1.313,2.214c-0.169,-0.299 -0.287,-0.05 -0.442,-0.323c-0.08,-0.142 -0.065,-0.14 -0.871,-1.891Z" style="fill:#b79a76;"/><path d="M52.857,38.847c-0.601,0.276 -1.202,0.553 -1.804,0.829c0.601,-0.276 1.202,-0.553 1.804,-0.829Z" style="fill:#a38e76;"/><path d="M18.402,37.691l-0.133,1.099c-0.473,-0.409 -1.083,0.02 -0.715,-0.618c0.305,-0.527 0.546,0.04 0.847,-0.481Z" style="fill:#ae9679;"/></g></svg>