<?xml version="1.0" encoding="UTF-8" standalone="no"?><!DOCTYPE svg PUBLIC "-//W3C//DTD SVG 1.1//EN" "http://www.w3.org/Graphics/SVG/1.1/DTD/svg11.dtd"><svg width="100%" height="100%" viewBox="0 0 72 72" version="1.1" xmlns="http://www.w3.org/2000/svg" xmlns:xlink="http://www.w3.org/1999/xlink" xml:space="preserve" xmlns:serif="http://www.serif.com/" style="fill-rule:evenodd;clip-rule:evenodd;stroke-linejoin:round;stroke-miterlimit:2;"><g><path d="M18.905,16.744c2.753,0.177 17.507,1.125 34.484,0.003c1.864,0.486 1.933,0.376 2.009,0.523c0.315,0.614 0.152,1.403 0.467,2.017c0.041,3.524 0.032,3.502 0.058,3.834c-0.327,7.914 -0.237,7.851 -0.252,9.922c-1.057,0.98 -1.847,0.55 -2.749,4.985c-1.514,-2.88 -2.072,-2.837 -1.391,-5.968c0.124,-0.571 1.054,-0.568 1.429,-1.017c1,-1.199 0.735,-9.205 0.708,-10.007c-0.129,-3.891 -2.063,-1.856 -6.022,-1.898c-0.284,0.158 -0.69,-0.209 -0.974,-0.052c-0.353,0.196 0.207,11.535 -0.217,16.895c0.068,1.368 0.252,5.04 0.233,17.121c-1.143,0.3 -1.049,0.538 -2.297,0.312c0.45,-5.174 0.124,-5.135 0.489,-10.299c-0.139,-11.05 -0.198,-10.993 -0.175,-22.085c0.004,-1.758 -0.25,-2.003 -2.063,-1.949c-0.487,0.015 -5.991,0.179 -6.014,0.955c-0.318,10.679 0.37,12.134 0.817,13.082c0.152,7.121 -1.046,7.051 -0.099,14.104c0.2,1.968 0.249,1.864 0.184,3.858c0.083,0.769 0.165,1.539 0.248,2.308c-1.987,0.15 -1.891,0.288 -3.404,0.071l0.599,-2.267c-0.164,-3.083 -0.148,-6.573 -0.145,-7.145c0.08,-5.181 -0.105,-21.187 -0.126,-23.029c-0.201,-17.425 -7.258,-1.719 -7.285,-1.13c-0.041,0.892 0.102,0.878 0.13,11.163c1.487,7.96 -0.545,7.985 0.133,19.989c0.026,0.726 0.053,1.453 0.079,2.179c-0.756,0.02 -1.513,0.039 -2.269,0.059c0.253,-4.846 -0.071,-6.017 0.321,-15.224c-0.052,-0.958 0.045,-0.945 -0.218,-11.989c-0.286,-5.451 0.003,-6.803 -0.117,-6.836c-0.911,-0.252 -1.925,0.27 -2.836,0.017l-0.98,-0.036c-0.418,0.013 -3.994,0.126 -5.224,0.202c0.292,-0.356 -0.097,-1.012 0.195,-1.368c0.204,-0.249 0.747,0.191 0.965,-0.046c0.411,-0.447 -0.425,-0.6 0.028,-1.035c0.516,-0.495 0.748,0.291 1.281,-0.221Z" style="fill:#593c26;"/><path d="M27.548,31.053c-0.028,-10.285 -0.171,-10.27 -0.13,-11.163c0.027,-0.589 7.084,-16.295 7.285,1.13c0.021,1.842 0.206,17.848 0.126,23.029c-0.003,0.572 -0.018,4.061 0.145,7.145c-0.796,0.068 -0.707,0.919 -2.361,0.203c-0.363,-0.157 -0.832,-0.36 -4.933,-0.356c-0.678,-12.004 1.355,-12.029 -0.133,-19.989Z" style="fill:#996942;"/><path d="M21.661,19.212l0.98,0.036c1.158,3.771 0.423,6.401 1.11,6.598c0.143,0.041 0.136,0.016 1.843,0.22c0.264,11.044 0.166,11.031 0.218,11.989c-0.391,9.206 -0.067,10.378 -0.321,15.224l-1.019,0.151c-0.876,-2.608 -1.659,-1.76 -2.746,-1.546c-2.339,-1.703 -2.424,-1.608 -2.524,-1.837c-0.628,-1.438 0.672,-1.394 0.29,-2.95c-1.462,-5.953 -0.794,-5.939 -0.339,-12.04c2.074,-1.897 2.283,-1.806 2.233,-2.043c-0.041,-0.193 -0.368,0.106 -1.285,-2.102c-0.107,-0.259 -0.171,-0.534 -0.278,-0.793c0.225,-5.757 -1.55,-6.23 1.837,-10.907Z" style="fill:#996942;"/><path d="M17.695,11.754c14.744,1.441 14.716,-0.136 32.954,0.418c0.997,-0.042 1.995,-0.084 2.992,-0.127c-0.137,4.376 -0.255,4.326 -0.252,4.702c-16.976,1.122 -31.731,0.173 -34.484,-0.003c-0.223,-2.663 -0.185,-2.611 -1.211,-4.99Z" style="fill:#956842;"/><path d="M11.721,12.125l0.899,-0.174c2.566,-0.344 2.507,-0.24 5.074,-0.197c1.026,2.38 0.988,2.328 1.211,4.99c-0.534,0.512 -0.765,-0.274 -1.281,0.221c-0.453,0.435 0.383,0.588 -0.028,1.035c-0.218,0.237 -0.761,-0.203 -0.965,0.046c-0.292,0.356 0.097,1.012 -0.195,1.368c-1.003,0.081 -2.006,0.163 -3.009,0.244c-0.139,0.534 -0.278,1.068 -0.418,1.602c0.15,0.917 0.301,1.834 0.451,2.751c0.482,6.515 0.495,6.472 0.52,7.036c0.229,5.01 -1.251,7.213 -1.285,12.994c-0.381,2.016 -0.401,1.975 0.062,3.971c0.018,0.181 0.491,0.019 0.509,0.2c0.115,1.182 -2.408,2.612 1.394,3.683l1.017,0.679c-3.05,1.164 -2.054,2.126 -0.968,5.207c-1.863,0.458 -1.768,0.457 -3.33,1.471l-0.312,-0.429c-0.188,-1.306 -1.142,-44.132 0.652,-46.701Z" style="fill:#5c4736;"/><path d="M47.648,19.14c3.958,0.042 5.893,-1.993 6.022,1.898c0.027,0.802 0.292,8.808 -0.708,10.007c-0.374,0.449 -1.305,0.446 -1.429,1.017c-0.682,3.132 -0.124,3.088 1.391,5.968c0.256,7.404 0.103,7.393 0.133,8.036c-1.602,-1.266 -1.292,-1.771 -3.409,-2c-2.972,-0.322 -0.093,-2.072 -1.072,-4.945c-0.57,-1.674 0.014,-1.615 0.691,-3.23c1.627,-3.881 -2.642,-0.057 -2.81,0.093c0.424,-5.36 -0.136,-16.699 0.217,-16.895c0.284,-0.158 0.69,0.209 0.974,0.052Z" style="fill:#976741;"/><path d="M55.866,19.289c2.699,0.247 3.829,-0.935 4.225,1.759c0.097,0.66 -0.206,1.385 0.052,2c0.203,0.482 1.006,0.519 1.208,1.002c0.01,2.361 -0.061,24.868 -0.068,27.031c0.088,6.091 -0.273,7.476 -0.436,8.104c-0.847,-0.236 -1.303,-1.293 -2.15,-1.528c-0.317,-0.088 -0.305,-0.005 -4.114,-0.073c1.369,-2.764 0.306,-2.962 1.169,-5.686c2.463,-0.525 3.236,0.1 3.237,-1.527c0.006,-6.288 0.245,-6.439 -1.587,-9.292c-0.296,-0.461 0.471,-7.882 0.528,-8.95c0.354,-0.715 0.708,-1.429 1.062,-2.144c-0.031,-0.498 -0.394,-0.416 -0.939,-6.17c-0.137,-1.446 0.736,-1.743 -0.117,-2.02c-1.358,-0.441 -0.637,1.775 -2.011,1.329c-0.026,-0.333 -0.017,-0.31 -0.058,-3.834Z" style="fill:#72553f;"/><path d="M21.727,51.884c1.087,-0.214 1.869,-1.062 2.746,1.546c-4.29,0.62 -6.659,-0.602 -5.855,3.637c0.239,1.261 9.01,0.687 11.075,0.667c22.222,-0.21 22.397,0.25 23.891,-0.735l0.998,0.584c3.809,0.068 3.797,-0.015 4.114,0.073c0.847,0.236 1.303,1.293 2.15,1.528c-3.033,2.108 -5.787,0.94 -9.213,0.65l-0.962,-0.023c-2.078,0.143 -4.213,0.29 -26.03,0.284c-11.354,-0.003 -11.413,0.285 -13.261,-0.84c1.562,-1.015 1.467,-1.013 3.33,-1.471c0.551,-0.12 1.14,0.207 1.691,0.087c0.418,-0.091 1.007,-0.339 -0.723,-5.294c2.443,-0.915 5.562,-0.722 6.048,-0.692Z" style="fill:#372518;"/><path d="M24.473,53.43l1.019,-0.151c0.265,0.281 0.855,0.016 1.121,0.296c0.462,0.489 0.318,1.444 0.877,1.817c0.225,0.15 2.513,0.132 2.732,0.131c2.475,-0.019 2.273,-1.693 2.507,-1.867c0.549,-0.065 1.099,-0.13 1.648,-0.195c1.513,0.218 1.418,0.079 3.404,-0.071c2.872,0.151 2.781,0.13 5.643,0.028c0.323,-0 0.647,-0.001 0.97,-0.001c1.248,0.225 1.154,-0.012 2.297,-0.312c1.253,0.273 1.095,0.795 6.346,0.713c0.47,2.999 0.523,2.924 0.548,3.181c-1.494,0.985 -1.669,0.525 -23.891,0.735c-2.066,0.02 -10.836,0.594 -11.075,-0.667c-0.804,-4.239 1.565,-3.018 5.855,-3.637Z" style="fill:#966842;"/><path d="M37.447,33.12c-0.448,-0.948 -1.135,-2.404 -0.817,-13.082c0.023,-0.776 5.528,-0.94 6.014,-0.955c1.813,-0.054 2.067,0.191 2.063,1.949c-0.023,11.093 0.036,11.035 0.175,22.085c-1.623,-0.263 -1.556,-0.285 -3.2,0.019c-2.206,-0.258 -1.61,-1.038 -1.374,-3.169c0.294,-2.65 3.379,-1.521 2.5,-4.059c-0.265,-0.766 -1.386,0.524 -1.853,-0.862c-0.829,-2.457 0.864,-2.358 0.655,-4.986c-0.106,-1.328 1.495,-1.862 1.213,-7.132c-0.024,-0.452 -1.096,-1.901 -1.256,-1.882c-0.53,0.064 -0.46,1.047 -0.926,1.305c-0.293,0.162 -0.761,-0.517 -0.971,-0.257c-0.588,0.729 -0.122,8.694 -0.654,9.042c-0.521,0.341 -1.202,0.495 -1.588,0.983c-0.207,0.261 0.226,0.739 0.019,1Z" style="fill:#976741;"/><path d="M13.204,20.715c1.615,0.738 2.45,0.189 2.484,2.313c0.046,2.814 1.753,2.249 2.007,4.99c0.025,0.266 0.292,3.157 0.946,3.196c0.536,0.032 0.646,-1.127 1.183,-1.095c0.107,0.259 0.171,0.534 0.278,0.793c0.917,2.208 1.244,1.909 1.285,2.102c0.05,0.237 -0.16,0.146 -2.233,2.043c-5.21,-6.721 -0.956,10.037 -4.491,16.841c-3.802,-1.071 -1.28,-2.502 -1.394,-3.683c-0.018,-0.181 -0.491,-0.019 -0.509,-0.2c0.577,-1.96 0.508,-1.918 -0.062,-3.971c0.034,-5.782 1.514,-7.984 1.285,-12.994c-0.026,-0.564 -0.039,-0.521 -0.52,-7.036c-0.086,-1.099 -0.172,-2.198 -0.258,-3.297Z" style="fill:#9f7047;"/><path d="M37.447,33.12c0.207,-0.261 -0.226,-0.739 -0.019,-1c0.386,-0.488 1.067,-0.642 1.588,-0.983c0.533,-0.348 0.067,-8.314 0.654,-9.042c0.21,-0.261 0.678,0.418 0.971,0.257c0.467,-0.258 0.397,-1.241 0.926,-1.305c0.16,-0.019 1.232,1.43 1.256,1.882c0.282,5.271 -1.319,5.804 -1.213,7.132c0.209,2.628 -1.484,2.529 -0.655,4.986c0.468,1.386 1.588,0.096 1.853,0.862c0.879,2.538 -2.206,1.41 -2.5,4.059c-0.236,2.131 -0.832,2.911 1.374,3.169c0.197,1.883 0.22,1.87 0.212,2.034c-0.059,1.28 -0.623,0.868 -1.133,1.577c-0.424,0.057 -0.781,-0.501 -1.205,-0.444c-0.19,0.026 -0.164,0.068 -2.209,0.921c-0.947,-7.053 0.251,-6.983 0.099,-14.104Z" style="fill:#9c6b43;"/><path d="M55.924,23.123c1.374,0.446 0.653,-1.77 2.011,-1.329c0.853,0.277 -0.019,0.574 0.117,2.02c0.544,5.754 0.908,5.672 0.939,6.17c-0.354,0.715 -0.708,1.429 -1.062,2.144c-0.057,1.068 -0.824,8.489 -0.528,8.95c1.832,2.853 1.593,3.004 1.587,9.292c-0.001,1.627 -0.774,1.002 -3.237,1.527l-0.297,-0.633c-0.215,-9.128 -0.604,-9.044 0.218,-18.218c0.015,-2.072 -0.075,-2.009 0.252,-9.922Z" style="fill:#9e6f47;"/><path d="M46.457,35.984c0.168,-0.15 4.437,-3.974 2.81,-0.093c-0.677,1.615 -1.261,1.556 -0.691,3.23c0.979,2.874 -1.9,4.623 1.072,4.945c2.117,0.23 1.806,0.734 3.409,2c0.115,1.304 0.23,2.608 0.345,3.913c-0.168,0.161 -0.93,2.172 -2.864,1.655c-2.224,-0.595 -2.192,-0.085 -3.848,1.472c0.019,-12.081 -0.165,-15.753 -0.233,-17.121Z" style="fill:#94643f;"/><path d="M53.641,12.045c0.287,-0.053 5.739,-1.425 7.307,0.818c0.335,0.48 0.195,0.54 0.404,11.186c-0.203,-0.482 -1.006,-0.519 -1.208,-1.002c-0.258,-0.615 0.045,-1.34 -0.052,-2c-0.396,-2.694 -1.527,-1.512 -4.225,-1.759c-0.315,-0.614 -0.152,-1.403 -0.467,-2.017c-0.076,-0.148 -0.145,-0.038 -2.009,-0.523c-0.003,-0.377 0.115,-0.326 0.252,-4.702Z" style="fill:#55473f;"/><path d="M19.153,35.057c-0.455,6.101 -1.123,6.087 0.339,12.04c0.382,1.557 -0.917,1.512 -0.29,2.95c0.1,0.229 0.185,0.135 2.524,1.837c-0.486,-0.03 -3.604,-0.223 -6.048,0.692l-1.017,-0.679c3.535,-6.804 -0.719,-23.562 4.491,-16.841Z" style="fill:#774f31;"/><path d="M16.437,19.415c1.229,-0.077 4.806,-0.189 5.224,-0.202c-3.386,4.677 -1.612,5.15 -1.837,10.907c-0.536,-0.032 -0.646,1.127 -1.183,1.095c-0.653,-0.039 -0.921,-2.931 -0.946,-3.196c-0.254,-2.741 -1.961,-2.176 -2.007,-4.99c-0.035,-2.124 -0.87,-1.575 -2.484,-2.313l0.224,-1.056c1.003,-0.081 2.006,-0.163 3.009,-0.244Z" style="fill:#825737;"/><path d="M55.672,33.045c-0.822,9.174 -0.433,9.09 -0.218,18.218c-0.921,1.038 -1.048,0.783 -1.956,1.762c0.29,-1.313 0.107,-1.24 -0.097,-3.046c-0.115,-1.304 -0.23,-2.608 -0.345,-3.913c-0.029,-0.642 0.124,-0.632 -0.133,-8.036c0.903,-4.436 1.692,-4.005 2.749,-4.985Z" style="fill:#764e30;"/><path d="M41.682,43.137c1.643,-0.304 1.577,-0.282 3.2,-0.019c-0.365,5.165 -0.039,5.126 -0.489,10.299c-0.323,0 -0.647,0.001 -0.97,0.001c-0.527,-1.435 -0.48,-1.475 -1.876,-2.166c-0.141,-2.007 -0.693,-4.15 -0.785,-4.504c0.509,-0.709 1.074,-0.298 1.133,-1.577c0.008,-0.163 -0.016,-0.151 -0.212,-2.034Z" style="fill:#92633f;"/><path d="M37.348,47.225c2.045,-0.853 2.019,-0.895 2.209,-0.921c0.424,-0.057 0.781,0.501 1.205,0.444c0.091,0.354 0.643,2.498 0.785,4.504c-1.921,-0.111 -3.693,-0.161 -4.014,-0.17c0.065,-1.994 0.016,-1.89 -0.184,-3.858Z" style="fill:#8d5f3c;"/><path d="M27.681,51.041c4.101,-0.005 4.57,0.198 4.933,0.356c1.653,0.716 1.565,-0.134 2.361,-0.203l-0.599,2.267c-0.549,0.065 -1.099,0.13 -1.648,0.195c-1.95,-0.085 -1.938,-0.079 -2.106,-0.092c-1.463,-0.111 -1.386,-0.231 -2.862,-0.343c-0.026,-0.726 -0.053,-1.453 -0.079,-2.179Z" style="fill:#7a5234;"/><path d="M53.401,49.979c0.204,1.806 0.387,1.733 0.097,3.046l-0.462,0.793c-5.251,0.082 -5.094,-0.44 -6.346,-0.713c1.655,-1.556 1.623,-2.066 3.848,-1.472c1.934,0.517 2.696,-1.493 2.864,-1.655Z" style="fill:#744d31;"/><path d="M22.641,19.249c0.911,0.252 1.925,-0.27 2.836,-0.017c0.119,0.033 -0.169,1.385 0.117,6.836c-1.706,-0.204 -1.7,-0.179 -1.843,-0.22c-0.687,-0.197 0.048,-2.827 -1.11,-6.598Z" style="fill:#855938;"/><path d="M37.532,51.083c0.321,0.009 2.093,0.059 4.014,0.17c1.396,0.691 1.349,0.731 1.876,2.166c-2.862,0.102 -2.771,0.123 -5.643,-0.028c-0.083,-0.769 -0.165,-1.539 -0.248,-2.308Z" style="fill:#785033;"/><path d="M15.679,52.576c1.73,4.955 1.141,5.203 0.723,5.294c-0.551,0.12 -3.065,0.391 -3.617,0.511c-1.086,-3.082 -0.156,-4.642 2.894,-5.805Z" style="fill:#63544b;"/><path d="M25.491,53.279c0.756,-0.02 1.513,-0.039 2.269,-0.059c1.476,0.112 1.398,0.232 2.862,0.343c0.168,0.013 0.156,0.007 2.106,0.092c-0.234,0.174 -0.032,1.848 -2.507,1.867c-0.219,0.002 -2.507,0.019 -2.732,-0.131c-0.56,-0.373 -0.415,-1.328 -0.877,-1.817c-0.265,-0.281 -0.855,-0.016 -1.121,-0.296Z" style="fill:#9e724a;"/><path d="M55.454,51.263l0.297,0.633c-0.863,2.724 0.201,2.922 -1.169,5.686l-0.998,-0.584c-0.025,-0.257 -0.078,-0.182 -0.548,-3.181l0.462,-0.793c0.908,-0.979 1.035,-0.723 1.956,-1.762Z" style="fill:#4d3a2d;"/><path d="M12.697,44.043c0.57,2.053 0.64,2.011 0.062,3.971c-0.464,-1.996 -0.443,-1.954 -0.062,-3.971Z" style="fill:#875e3a;"/><path d="M13.011,21.261l0.193,-0.546c0.086,1.099 0.172,2.198 0.258,3.297c-0.15,-0.917 -0.301,-1.834 -0.451,-2.751Z" style="fill:#815736;"/><path d="M31.219,24.887c0.003,-0.801 -0.736,-1.082 0.004,-1.199c0.15,-0.024 1.894,-0.301 1.892,0.177c-0.002,0.718 -1.894,0.304 -1.896,1.022Z" style="fill:#9d6c43;"/><path d="M13.428,19.659l-0.224,1.056l-0.193,0.546c0.139,-0.534 0.278,-1.068 0.418,-1.602Z" style="fill:#7a5234;"/></g></svg>