<?xml version="1.0" encoding="UTF-8" standalone="no"?><!DOCTYPE svg PUBLIC "-//W3C//DTD SVG 1.1//EN" "http://www.w3.org/Graphics/SVG/1.1/DTD/svg11.dtd"><svg width="100%" height="100%" viewBox="0 0 240 36" version="1.1" xmlns="http://www.w3.org/2000/svg" xmlns:xlink="http://www.w3.org/1999/xlink" xml:space="preserve" xmlns:serif="http://www.serif.com/" style="fill-rule:evenodd;clip-rule:evenodd;stroke-linejoin:round;stroke-miterlimit:2;"><g><path d="M128.799,6.384c0.548,-1.027 12.157,-1.49 13.098,-0.77c1.497,1.144 -1.921,3.407 -2.028,3.661l-0.468,0.592c-0.891,0.092 -2.995,-0.055 -5.584,0c-1.95,-0.188 -1.861,-0.195 -3.786,-0.239c0.552,-1.499 -2.008,-1.792 -1.233,-3.243Z" style="fill:#404040;"/><path d="M128.799,29.455c0.17,0.318 0.411,1.271 2.067,1.277c3.614,0.013 10.381,-0.01 11.031,-0.507c1.497,-1.144 -1.921,-3.407 -2.028,-3.661l-0.468,-0.592c-0.891,-0.092 -2.995,0.055 -5.584,0c-1.95,0.188 -1.861,0.195 -3.786,0.239c0.552,1.499 -2.008,1.792 -1.233,3.243Z" style="fill:#404040;"/><path d="M186.285,8.48c0.551,-0.93 3.109,-0.196 7.864,-0.141c5.433,0.063 9.135,0.326 12.101,0.513c0.625,0.039 7.02,0.526 14.281,-0.004c5.656,-0.413 2.505,0.612 12.624,0.569c1.751,0.122 1.675,0.026 3.378,0.746l0.688,0.161c-0.192,0.26 0.575,0.63 0.383,0.89c-1.073,1.456 -7.855,0.55 -14.673,0.651c-0.276,0.145 -0.553,0.29 -0.829,0.434c-0.085,10.477 -0.774,12.753 0.876,13.42c11.654,0.885 14.085,-0.991 14.043,0.112c-0.091,2.347 -35.606,1.902 -35.907,1.533l-0.381,-1.526c4.213,-1.379 1.959,-3.04 2.398,-11.51c0.21,-4.06 -2.349,-2.629 -9,-2.456c-3.089,-0.244 -5.936,-1.94 -5.32,3.419c0.047,5.182 0.012,5.064 0.145,10.164c-0.057,0.275 1.659,1.138 1.602,1.413c-0.03,0.143 -7.989,-0.084 -13.009,-0.447c-2.567,-0.186 -4.409,-0.872 -5.053,-1.438c1.873,-0.442 1.775,-0.358 3.644,-0.591c3.517,0.473 3.429,0.377 7.006,0.353c2.43,0.151 2.839,-0.233 3.017,-0.399c0.346,-0.325 0.224,-9.317 0.212,-10.128c0.106,-1.02 0.046,-0.919 -0.049,-3.011c-0.035,-0.215 0.135,-0.188 -0.042,-2.725Z" style="fill:#664b37;"/><path d="M122.995,8.988c2.035,-0.837 6.172,0.475 6.854,0.483c3.395,0.042 23.536,-2.455 27.705,-0.623c0.962,0.423 -0.654,1.413 -1.206,2.912c-1.894,1.773 -0.908,2.124 -0.955,5.534c-0.114,6.428 -0.128,6.387 -0.123,6.942c0.002,0.288 12.335,0.276 18.565,0.744c2.03,0.152 3.713,0.979 3.714,1.063c-0.062,1.214 -30.993,0.13 -37.329,0.538c-7.938,0.51 -11.259,0.475 -19.436,-0.465c-1.432,-0.345 -0.412,-13.239 -0.67,-14.81c0.282,-0.212 0.155,-1.197 2.881,-2.318Z" style="fill:#614734;"/><path d="M157.554,8.849c0.969,0.079 13.703,-2.762 15.711,-0.688c-0.968,3.078 -0.871,3.049 -0.977,3.303l-0.468,0.592c-0.891,0.092 -1.782,0.184 -2.672,0.276c-1.298,-0.129 -2.596,-0.258 -3.894,-0.387c-2.605,0.064 -2.531,0.001 -5.119,0.056c-1.95,-0.188 -1.861,-0.195 -3.786,-0.239c0.552,-1.499 0.431,-1.461 1.206,-2.912Z" style="fill:#7d593f;"/><path d="M238.088,25.334c0.013,0.202 -2.659,2.491 -2.625,0.673c0.021,-1.104 -0.831,0.596 -12.486,-0.29c1.641,-2.805 1.624,-2.966 1.593,-3.255c-0.05,-0.467 -0.571,-0.853 -0.498,-1.317c0.042,-0.264 0.709,-0.021 0.751,-0.285c-0.124,-0.218 -0.614,0.071 -0.739,-0.147c-1.249,-2.188 1.153,-2 1.166,-2.021c0.594,-0.211 1.189,-0.422 1.783,-0.633c0.055,0.018 0.082,1.772 3.171,0.462c0,0 1.849,-0.886 2.01,-0.963c0.259,-0.178 3.815,-2.623 3.934,0.016c0.02,0.444 -4.618,1.493 -2.96,2.714c0.889,0.654 0.972,0.311 4.872,0.03c0.002,0.401 0.027,5.015 0.027,5.015Z" style="fill:#a7764e;"/><path d="M158.016,16.209c0.336,0.459 -0.028,1.219 0.308,1.678c1.093,1.494 0.946,-0.274 2.079,-1.804c5.015,-0.836 5.814,2.958 6.741,2.438c0.517,-0.29 0.487,-1.179 1.005,-1.469l1.353,0.257c0.017,0.523 0.181,5.672 0.187,6.539c-1.938,2.304 -2.699,0.451 -10.597,1.113c-1.187,-0.042 -2.373,-0.084 -3.56,-0.126c-0.003,-0.343 -0.259,-0.218 -0.262,-0.599c-0.005,-0.555 0.009,-0.514 0.123,-6.942c1.336,-0.604 1.288,-0.456 2.623,-1.086Z" style="fill:#9f6b4d;"/><path d="M237.221,10.322l0.549,1.069c0.397,2.778 0.224,2.727 0.291,8.927c-3.9,0.28 -3.983,0.624 -4.872,-0.03c-1.657,-1.221 2.98,-2.27 2.96,-2.714c-0.119,-2.639 -3.675,-0.194 -3.934,-0.016c-1.863,-0.484 -1.823,-0.328 -3.339,-1.05c-0.292,-0.082 -3.213,-0.9 -3.752,0.577c-0.184,0.505 0.311,1.102 0.127,1.607c-0.012,0.021 -2.415,-0.167 -1.166,2.021c0.124,0.218 0.614,-0.071 0.739,0.147c-0.042,0.264 -0.709,0.021 -0.751,0.285c-0.073,0.463 0.448,0.85 0.498,1.317c0.031,0.288 0.048,0.45 -1.593,3.255c-1.65,-0.667 -0.96,-2.943 -0.876,-13.42l0.829,-0.434c6.817,-0.101 13.6,0.805 14.673,-0.651c0.192,-0.26 -0.575,-0.63 -0.383,-0.89Z" style="fill:#ab794e;"/><path d="M134.149,25.33c-0.37,0.808 -2.696,0.589 -5,0.572c-3.81,-0.028 -8.206,-0.428 -8.365,-1.517c1.834,0.288 1.785,0.687 3.579,0.193c0.604,0.132 1.208,0.265 1.812,0.397l0.974,0.309c6.467,-0.635 6.88,0.028 7.001,0.045Z" style="fill:#886549;"/><path d="M172.288,11.464c5.728,1.534 12.941,-0.023 14.039,-0.26c0.095,2.092 0.154,1.991 0.049,3.011c-2.207,0.288 -2.149,0.27 -4.278,0.752c-1.968,0.78 -1.876,0.729 -3.9,1.113c-0.169,-0.134 -2.113,-1.678 -2.113,-1.678c-0.621,0.277 -0.911,1.77 -0.944,1.94c-0.13,0.669 0.47,0.497 0.348,1.128c1.668,2.815 2.895,-0.092 4.634,1.057c1.292,0.854 0.089,3.556 0.655,3.895c0.228,0.136 0.175,0.172 2.368,2.32c-3.577,0.024 -3.489,0.119 -7.006,-0.353c0.195,-0.231 5.221,-6.184 0.201,-3.772c-1.186,0.57 -2.031,1.265 -2.191,1.398c-1.036,0.853 -1.07,0.685 -2.227,1.426c0.135,-4.796 0.034,-4.679 -0.102,-11.384l0.468,-0.592Z" style="fill:#986c4b;"/><path d="M125.106,11.842c9.514,-1.322 11.261,-0.359 11.284,1.473c0.006,0.48 -0.095,0.392 -0.088,5.998c0.005,3.998 1.868,5.992 -2.153,6.018c-0.121,-0.018 -0.534,-0.68 -7.001,-0.045l-0.974,-0.309c-0.123,-0.499 -0.246,-0.998 -0.369,-1.498c0.531,-1.737 0.437,-1.678 1.246,-3.31c1.05,0.387 1.121,0.224 1.735,1.181c0.507,0.199 0.688,0.916 1.195,1.115c0.106,0.042 0,0 1.132,-0.863c1.789,-0.129 3.19,0.296 2.156,-1.215c-0.25,-0.366 -0.946,-0.215 -1.197,-0.581c0.527,-1.264 1.132,-1.006 1.035,-2.483c-0.104,-1.578 0.624,-1.446 0.392,-2.994c-0.263,-1.757 -2.817,1.05 -2.991,1.242c-0.563,-0.304 -0.752,-1.096 -1.315,-1.4c-1.447,-0.782 -1.293,0.537 -4.018,3.278c-0.199,-0.499 -1.549,-0.518 -0.449,-2.338c0.767,-1.269 0.388,-1.291 0.38,-3.269Z" style="fill:#ad7952;"/><path d="M172.496,24.98c1.903,1.675 -17.049,1.521 -16.964,-0.144c1.187,0.042 2.373,0.084 3.56,0.126c7.898,-0.663 8.66,1.191 10.597,-1.113c0.789,0.194 1.579,0.388 2.368,0.582l0.439,0.55Z" style="fill:#62442e;"/><path d="M194.131,11.87c6.65,-0.173 9.21,-1.604 9,2.456c-0.439,8.471 1.814,10.132 -2.398,11.51c-4.795,-0.468 -4.694,-0.469 -9.569,-0.225c0.131,-0.246 -0.057,-0.244 1.332,-3.224c0.001,-0.001 -0,-0 1.511,-1.734c0.216,0.148 0.708,-0.497 1.058,0.727c0.41,1.435 0.874,0.624 2.299,0.037l-0.017,0.943c0.264,0.325 0.528,0.65 0.791,0.975c1.563,-0.248 1.882,-0.262 1.863,-1.861c0.234,-0.551 1.15,-0.594 1.384,-1.146c0.045,-0.105 -1.375,-2.556 -1.502,-2.774c0.368,-0.571 3.205,-1.073 0.618,-2.557c-0.409,-0.234 -0.61,-1.063 -1.062,-0.932c-0.671,0.195 -0.652,1.43 -1.322,1.625c-0.47,0.212 -0.94,0.425 -1.41,0.637c-1.741,-1.245 -1.678,-1.156 -3.719,-2.089c0.381,-0.79 0.762,-1.579 1.144,-2.369Z" style="fill:#a77149;"/><path d="M208.225,16.287c4.291,1.427 4.532,2.961 8.369,0.541c0.124,-0.117 1.552,-1.464 1.552,-1.464c1.759,0.681 1.247,1.867 1.363,2.04c0.772,7.72 -1.025,7.255 -1.342,7.608c-10.009,-0.448 -12.875,1.751 -12.745,-3.683c0.905,0.623 0.873,1.144 1.727,0.483c0.67,-0.518 6.068,0.968 7.628,0.913c0.151,-0.005 9.794,-1.263 1.413,-1.255c-2.828,0.003 -2.037,-2.353 -2.077,-2.393c-0.113,-0.113 -0.029,0.403 -1.956,0.418c-3.472,0.026 -5.212,0.073 -3.932,-3.209Z" style="fill:#895e42;"/><path d="M143.059,10.957c-0.848,3.139 -0.625,3.349 -0.903,3.383c-1.245,0.149 -1,0.51 -0.886,1.772c0.094,1.319 -0.256,1.472 0.882,2.211c-3.09,5.716 1.773,3.128 2.01,2.967c0.135,-0.092 0.062,-0.138 0.833,-1.859c2.366,2.553 2.623,2.233 4.22,5.268c-9.178,0.72 -10.399,0.299 -10.483,-3.326c-0.181,-7.814 -0.323,-10.365 0.557,-10.718c1.427,-0.572 1.392,-0.121 3.77,0.302Z" style="fill:#845b40;"/><path d="M186.375,14.215c0.011,0.81 0.134,9.803 -0.212,10.128c-0.178,0.167 -0.587,0.55 -3.017,0.399c-2.193,-2.148 -2.14,-2.184 -2.368,-2.32c-0.566,-0.338 0.637,-3.04 -0.655,-3.895c-1.738,-1.15 -2.965,1.758 -4.634,-1.057c0.903,-0.463 1.806,-0.927 2.709,-1.39c2.024,-0.384 1.931,-0.332 3.9,-1.113c2.129,-0.482 2.071,-0.464 4.278,-0.752Z" style="fill:#a2734f;"/><path d="M149.113,10.922c0.358,0.008 4.333,0.096 4.299,1.262c-0.352,11.904 -0.329,11.879 -0.425,12.908c-1.878,-0.616 -1.851,-0.607 -3.771,-0.394c-1.597,-3.035 -1.854,-2.714 -4.22,-5.268l-0.555,-0.493c-0.159,-0.504 -0.318,-1.008 -0.477,-1.513l-0.052,-0.995c0.296,0.026 0.186,0.11 3.662,0.612l0.289,0.405c0.111,0.652 0.221,1.305 0.332,1.957c2.822,1.671 2.804,1.956 3.039,1.799c1.811,-1.212 0.95,-1.909 -1.048,-2.795c-0.355,-2.032 -0.28,-3.456 -0.264,-3.757c0.202,-0.425 1.538,0.008 0.675,-1.42c-0.114,-0.188 -0.11,-0.171 -1.483,-2.31Z" style="fill:#8b5f42;"/><path d="M188.956,25.453c0.736,0.053 1.472,0.106 2.208,0.159c4.875,-0.244 4.774,-0.243 9.569,0.225l0.381,1.526c0,0 -10.468,-0.379 -10.669,-0.473c-0.685,-0.318 -1.546,-1.162 -1.489,-1.437Z" style="fill:#7a5b43;"/><path d="M173.265,8.161c6.53,-0.662 6.451,-0.113 13.019,0.319c0.177,2.536 0.007,2.509 0.042,2.725c-1.098,0.237 -8.311,1.794 -14.039,0.26c0.107,-0.254 0.009,-0.225 0.977,-3.303Z" style="fill:#73553d;"/><path d="M120.948,11.228c2.067,0.619 2.028,0.483 4.158,0.614c0.008,1.978 0.386,2 -0.38,3.269c-1.1,1.82 0.251,1.84 0.449,2.338c0.053,1.859 -0.299,3.816 -0.358,4.144c-0.25,0.091 -0.455,-0.463 -0.705,-0.372c-0.855,0.311 -0.945,0.871 -0.963,0.979c-0.12,0.74 0.739,0.404 0.622,1.121l0.591,1.258c-1.793,0.493 -1.745,0.095 -3.579,-0.193c0.009,-6.617 -0.036,-6.52 0.165,-13.158Z" style="fill:#ac7951;"/><path d="M205.243,13.35c1.605,1.4 1.552,1.316 2.982,2.937c-1.28,3.281 0.46,3.235 3.932,3.209c1.927,-0.015 1.843,-0.532 1.956,-0.418c0.04,0.04 -0.751,2.396 2.077,2.393c8.381,-0.008 -1.262,1.249 -1.413,1.255c-1.56,0.055 -6.958,-1.431 -7.628,-0.913c-0.854,0.661 -0.821,0.14 -1.727,-0.483c-0.003,-0.639 -0.021,-5.026 -0.18,-7.98Z" style="fill:#865c41;"/><path d="M192.988,14.239c2.042,0.933 1.979,0.844 3.719,2.089l-0.442,0.75c-1.993,1.25 -2.127,0.968 -2.285,1.096c-0.129,-0.2 -2.047,-3.181 -2.977,0.076c-0.249,0.871 -0.192,0.978 -0.152,1.053c0.397,0.749 0.823,0.211 1.246,1.008c0.133,0.692 0.266,1.384 0.398,2.077c-1.389,2.98 -1.2,2.978 -1.332,3.224c-0.736,-0.053 -1.472,-0.106 -2.208,-0.159c-0.133,-5.1 -0.099,-4.982 -0.145,-10.164c1.164,-0.05 0.977,0.559 2.233,0.505c0.146,-0.006 0.902,-0.039 1.697,-0.675c0.238,-0.19 0.01,-0.69 0.248,-0.88Z" style="fill:#ae784c;"/><path d="M210.15,11.33c2.107,4.671 3.433,1.988 3.751,2.031c0.156,0.021 0.019,0.138 0.262,1.947c1.18,0.91 1.035,0.961 2.433,1.522c-3.838,2.42 -4.078,0.885 -8.369,-0.541c-1.43,-1.621 -1.378,-1.538 -2.982,-2.937c-0.135,-3.394 1.556,-2.009 4.906,-2.021Z" style="fill:#875d41;"/><path d="M130.508,15.571c-0.184,1.846 -0.07,1.798 0.855,3.325c-0.636,1.403 -1.039,1.433 -0.25,2.706c-1.132,0.863 -1.026,0.905 -1.132,0.863c-0.507,-0.199 -0.688,-0.916 -1.195,-1.115c-0.614,-0.957 -0.685,-0.795 -1.735,-1.181c-0.809,1.632 -0.715,1.573 -1.246,3.31c-0.329,-0.628 -0.659,-1.257 -0.988,-1.885c0.059,-0.327 0.411,-2.285 0.358,-4.144c2.725,-2.741 2.572,-4.06 4.018,-3.278c0.563,0.304 0.752,1.096 1.315,1.4Z" style="fill:#aa7750;"/><path d="M169.148,12.332c0.891,-0.092 1.782,-0.184 2.672,-0.276c0.136,6.705 0.237,6.588 0.102,11.384l0.135,0.99c-0.789,-0.194 -1.579,-0.388 -2.368,-0.582c-0.006,-0.866 -0.171,-6.016 -0.187,-6.539c-0.048,-2.509 0.013,-2.412 -0.354,-4.978Z" style="fill:#674937;"/><path d="M160.135,12c2.589,-0.055 2.515,0.009 5.119,-0.056c-0.011,3.273 0.271,3.32 2.896,5.108c-0.517,0.29 -0.487,1.179 -1.005,1.469c-0.927,0.52 -1.726,-3.274 -6.741,-2.438c-0.331,-2.066 -0.281,-2.003 -0.269,-4.083Z" style="fill:#b47853;"/><path d="M143.059,10.957c3.028,-0.183 2.932,-0.196 6.054,-0.035c-2.629,2.783 -2.792,2.505 -5.201,5.508l0.052,0.995c-1.656,-0.919 -1.529,-0.989 -2.693,-1.313c-0.115,-1.262 -0.36,-1.623 0.886,-1.772c0.278,-0.033 0.055,-0.243 0.903,-3.383Z" style="fill:#885e42;"/><path d="M215.155,11.15c1.781,-0.31 1.769,-0.312 1.923,-0.334c4.557,-0.665 2.648,2.001 2.432,6.589c-0.116,-0.173 0.396,-1.359 -1.363,-2.04c0,0 -1.428,1.347 -1.552,1.464c-1.398,-0.56 -1.252,-0.612 -2.433,-1.522c1.424,-1.861 1.84,-1.915 0.993,-4.157Z" style="fill:#8b5f43;"/><path d="M149.113,10.922c1.373,2.139 1.37,2.122 1.483,2.31c0.863,1.428 -0.473,0.995 -0.675,1.42c-0.356,0.189 -0.936,-0.418 -2.348,2.39c-3.476,-0.502 -3.366,-0.586 -3.662,-0.612c2.409,-3.003 2.573,-2.725 5.201,-5.508Z" style="fill:#8e6243;"/><path d="M194.131,11.87c-0.381,0.79 -0.762,1.579 -1.144,2.369c-0.238,0.19 -0.01,0.69 -0.248,0.88c-0.795,0.636 -1.551,0.669 -1.697,0.675c-1.256,0.054 -1.069,-0.555 -2.233,-0.505c-0.616,-5.359 2.231,-3.663 5.32,-3.419Z" style="fill:#a36d47;"/><path d="M165.254,11.944c1.298,0.129 2.596,0.258 3.894,0.387c0.368,2.566 0.306,2.469 0.354,4.978l-1.353,-0.257c-2.625,-1.788 -2.906,-1.835 -2.896,-5.108Z" style="fill:#a16c4d;"/><path d="M196.265,17.078c1.943,0.722 1.939,1.041 1.646,3.124l-0.547,1.216c-1.425,0.587 -1.889,1.397 -2.299,-0.037c-0.35,-1.224 -0.842,-0.579 -1.058,-0.727c-0.384,-0.493 -0.768,-0.985 -1.152,-1.478c0.375,-0.334 0.751,-0.668 1.126,-1.002c0.158,-0.127 0.292,0.154 2.285,-1.096Z" style="fill:#b97e4e;"/><path d="M210.15,11.33l5.005,-0.18c0.848,2.242 0.431,2.296 -0.993,4.157c-0.243,-1.809 -0.106,-1.926 -0.262,-1.947c-0.318,-0.042 -1.644,2.64 -3.751,-2.031Z" style="fill:#895d42;"/><path d="M156.349,11.761c1.925,0.045 1.836,0.052 3.786,0.239c-0.204,0.234 -0.722,-0.341 -0.926,-0.106c-0.235,0.27 -1.035,1.19 -1.192,4.315c-1.335,0.629 -1.287,0.481 -2.623,1.086c0.047,-3.41 -0.939,-3.76 0.955,-5.534Z" style="fill:#ab7351;"/><path d="M171.922,23.44c1.157,-0.741 1.191,-0.573 2.227,-1.426c0.161,-0.132 1.006,-0.828 2.191,-1.398c5.02,-2.412 -0.006,3.541 -0.201,3.772c-1.869,0.234 -1.771,0.15 -3.644,0.591l-0.439,-0.55l-0.135,-0.99Z" style="fill:#986d4d;"/><path d="M130.508,15.571c0.174,-0.192 2.728,-2.999 2.991,-1.242c0.232,1.548 -0.495,1.416 -0.392,2.994c0.097,1.477 -0.508,1.219 -1.035,2.483l-0.71,-0.91c-0.926,-1.527 -1.039,-1.479 -0.855,-3.325Z" style="fill:#bc8456;"/><path d="M198.117,15.691c0.589,0.621 1.178,1.242 1.766,1.864c0.126,0.218 1.546,2.669 1.502,2.774c-0.234,0.551 -1.15,0.594 -1.384,1.146c-0.697,-0.424 -1.393,-0.848 -2.09,-1.272c0.294,-2.084 0.298,-2.402 -1.646,-3.124l0.442,-0.75c0.47,-0.212 0.94,-0.425 1.41,-0.637Z" style="fill:#a06c47;"/><path d="M224.824,20.861c2.779,-0.646 4.996,1.168 5.484,1.354c-1.032,0.457 -0.632,1.511 -3.146,1.393c-1.73,-0.081 -1.296,-0.727 -2.339,-2.747Z" style="fill:#966a47;"/><path d="M160.135,12c-0.012,2.08 -0.063,2.018 0.269,4.083c-1.132,1.53 -0.985,3.298 -2.079,1.804c-0.336,-0.459 0.028,-1.219 -0.308,-1.678c0.157,-3.125 0.957,-4.045 1.192,-4.315c0.204,-0.234 0.722,0.341 0.926,0.106Z" style="fill:#9b684c;"/><path d="M142.152,18.323c0.763,0.205 1.525,0.409 2.288,0.614l0.555,0.493c-0.772,1.722 -0.699,1.768 -0.833,1.859c-0.237,0.161 -5.1,2.75 -2.01,-2.967Z" style="fill:#835b3f;"/><path d="M197.911,20.202c0.697,0.424 1.393,0.848 2.09,1.272c0.019,1.599 -0.3,1.614 -1.863,1.861l-0.791,-0.975l0.017,-0.943l0.547,-1.216Z" style="fill:#9f6a45;"/><path d="M149.921,14.652c-0.016,0.301 -0.091,1.725 0.264,3.757l-1.033,0.116c-0.43,-0.359 -0.859,-0.718 -1.289,-1.077l-0.289,-0.405c1.411,-2.808 1.992,-2.201 2.348,-2.39Z" style="fill:#956646;"/><path d="M228.877,16.509c-0.605,1.111 -0.672,1.001 -1.842,1.551c-0.594,0.211 -1.189,0.422 -1.783,0.633c0.184,-0.505 -0.311,-1.102 -0.127,-1.607c0.54,-1.477 3.46,-0.659 3.752,-0.577Z" style="fill:#a1714a;"/><path d="M193.98,18.174c-0.375,0.334 -0.751,0.668 -1.126,1.002c-0.252,0.378 -0.505,0.757 -0.757,1.135c-0.423,-0.797 -0.849,-0.26 -1.246,-1.008c-0.04,-0.075 -0.097,-0.182 0.152,-1.053c0.93,-3.257 2.848,-0.276 2.977,-0.076Z" style="fill:#9a6846;"/><path d="M141.27,16.112c1.164,0.324 1.038,0.393 2.693,1.313c0.159,0.504 0.318,1.008 0.477,1.513c-0.763,-0.205 -1.525,-0.409 -2.288,-0.614c-1.138,-0.739 -0.788,-0.892 -0.882,-2.211Z" style="fill:#7f573f;"/><path d="M198.117,15.691c0.671,-0.195 0.652,-1.43 1.322,-1.625c0.452,-0.131 0.654,0.697 1.062,0.932c2.587,1.484 -0.25,1.986 -0.618,2.557c-0.589,-0.621 -1.178,-1.242 -1.766,-1.864Z" style="fill:#b0784c;"/><path d="M228.877,16.509c1.516,0.722 1.476,0.566 3.339,1.05c-0.161,0.077 -2.01,0.963 -2.01,0.963c-3.089,1.31 -3.116,-0.444 -3.171,-0.462c1.17,-0.55 1.237,-0.44 1.842,-1.551Z" style="fill:#ac784d;"/><path d="M149.152,18.525l1.033,-0.116c1.999,0.886 2.859,1.583 1.048,2.795c-0.235,0.157 -0.216,-0.128 -3.039,-1.799l0.957,-0.88Z" style="fill:#81593f;"/><path d="M131.364,18.896l0.71,0.91c0.25,0.366 0.946,0.215 1.197,0.581c1.034,1.51 -0.367,1.086 -2.156,1.215c-0.79,-1.272 -0.387,-1.303 0.25,-2.706Z" style="fill:#a4724d;"/><path d="M178.198,16.08c-0.903,0.463 -1.806,0.927 -2.709,1.39c0.123,-0.631 -0.478,-0.46 -0.348,-1.128c0.033,-0.169 0.323,-1.663 0.944,-1.94c0,-0 1.944,1.544 2.113,1.678Z" style="fill:#9f714d;"/><path d="M182.391,17.626c3.362,1.886 0.972,2.636 0.767,2.571c-1.563,-0.498 -1.16,-0.942 -0.767,-2.571Z" style="fill:#9a6d4a;"/><path d="M124.818,21.593c0.329,0.628 0.659,1.257 0.988,1.885c-0.678,-0.052 -1.356,-0.105 -2.034,-0.157c0.116,-0.717 -0.742,-0.381 -0.622,-1.121c0.018,-0.108 0.108,-0.668 0.963,-0.979c0.25,-0.091 0.455,0.463 0.705,0.372Z" style="fill:#9d6e4c;"/><path d="M192.854,19.176c0.384,0.493 0.768,0.985 1.152,1.478c-1.511,1.734 -1.51,1.732 -1.511,1.734c-0.133,-0.692 -0.266,-1.384 -0.398,-2.077c0.252,-0.378 0.505,-0.757 0.757,-1.135Z" style="fill:#b0784c;"/><path d="M123.772,23.321c0.678,0.052 1.356,0.105 2.034,0.157c0.123,0.499 0.246,0.998 0.369,1.498c-0.604,-0.132 -1.208,-0.265 -1.812,-0.397l-0.591,-1.258Z" style="fill:#9e6f4e;"/><path d="M147.863,17.447c0.43,0.359 0.859,0.718 1.289,1.077l-0.957,0.88c-0.111,-0.652 -0.221,-1.305 -0.332,-1.957Z" style="fill:#8d6043;"/><path d="M216.394,17.381c-0.07,0.806 0.952,0.317 0.877,1.183c-0.008,0.098 -0.066,0.765 -1.036,0.658c-1.236,-0.136 0.055,-0.635 0.159,-1.841Z" style="fill:#906446;"/><path d="M232.257,21.639c-0.434,0.32 -0.868,0.639 -1.302,0.959l1.302,-0.959Z" style="fill:#a5764d;"/></g><g><path d="M110.971,30.139c-0.548,1.027 -12.157,1.49 -13.098,0.77c-1.497,-1.144 1.921,-3.407 2.028,-3.661l0.468,-0.592c0.891,-0.092 2.995,0.055 5.584,0c1.95,0.188 1.861,0.195 3.786,0.239c-0.552,1.499 2.008,1.792 1.233,3.243Z" style="fill:#404040;"/><path d="M110.971,7.068c-0.17,-0.318 -0.411,-1.271 -2.067,-1.277c-3.614,-0.013 -10.381,0.01 -11.031,0.507c-1.497,1.144 1.921,3.407 2.028,3.661l0.468,0.592c0.891,0.092 2.995,-0.055 5.584,0c1.95,-0.188 1.861,-0.195 3.786,-0.239c-0.552,-1.499 2.008,-1.792 1.233,-3.243Z" style="fill:#404040;"/><path d="M53.485,28.044c-0.551,0.93 -3.109,0.196 -7.864,0.141c-5.433,-0.063 -9.135,-0.326 -12.101,-0.513c-0.625,-0.039 -7.02,-0.526 -14.281,0.004c-5.656,0.413 -2.505,-0.612 -12.624,-0.569c-1.751,-0.122 -1.675,-0.026 -3.378,-0.746l-0.688,-0.161c0.192,-0.26 -0.575,-0.63 -0.383,-0.89c1.073,-1.456 7.855,-0.55 14.673,-0.651c0.276,-0.145 0.553,-0.29 0.829,-0.434c0.085,-10.477 0.774,-12.753 -0.876,-13.42c-11.654,-0.885 -14.085,0.991 -14.043,-0.112c0.091,-2.347 35.606,-1.902 35.907,-1.533l0.381,1.526c-4.213,1.379 -1.959,3.04 -2.398,11.51c-0.21,4.06 2.349,2.629 9,2.456c3.089,0.244 5.936,1.94 5.32,-3.419c-0.047,-5.182 -0.012,-5.064 -0.145,-10.164c0.057,-0.275 -1.659,-1.138 -1.602,-1.413c0.03,-0.143 7.989,0.084 13.009,0.447c2.567,0.186 4.409,0.872 5.053,1.438c-1.873,0.442 -1.775,0.358 -3.644,0.591c-3.517,-0.473 -3.429,-0.377 -7.006,-0.353c-2.43,-0.151 -2.839,0.233 -3.017,0.399c-0.346,0.325 -0.224,9.317 -0.212,10.128c-0.106,1.02 -0.046,0.919 0.049,3.011c0.035,0.215 -0.135,0.188 0.042,2.725Z" style="fill:#664b37;"/><path d="M116.774,27.535c-2.035,0.837 -6.172,-0.475 -6.854,-0.483c-3.395,-0.042 -23.536,2.455 -27.705,0.623c-0.962,-0.423 0.654,-1.413 1.206,-2.912c1.894,-1.773 0.908,-2.124 0.955,-5.534c0.114,-6.428 0.128,-6.387 0.123,-6.942c-0.002,-0.288 -12.335,-0.276 -18.565,-0.744c-2.03,-0.152 -3.713,-0.979 -3.714,-1.063c0.062,-1.214 30.993,-0.13 37.329,-0.538c7.938,-0.51 11.259,-0.475 19.436,0.465c1.432,0.345 0.412,13.239 0.67,14.81c-0.282,0.212 -0.155,1.197 -2.881,2.318Z" style="fill:#614734;"/><path d="M82.215,27.674c-0.969,-0.079 -13.703,2.762 -15.711,0.688c0.968,-3.078 0.871,-3.049 0.977,-3.303l0.468,-0.592c0.891,-0.092 1.782,-0.184 2.672,-0.276c1.298,0.129 2.596,0.258 3.894,0.387c2.605,-0.064 2.531,-0.001 5.119,-0.056c1.95,0.188 1.861,0.195 3.786,0.239c-0.552,1.499 -0.431,1.461 -1.206,2.912Z" style="fill:#7d593f;"/><path d="M1.681,11.19c-0.013,-0.202 2.659,-2.491 2.625,-0.673c-0.021,1.104 0.831,-0.596 12.486,0.29c-1.641,2.805 -1.624,2.966 -1.593,3.255c0.05,0.467 0.571,0.853 0.498,1.317c-0.042,0.264 -0.709,0.021 -0.751,0.285c0.124,0.218 0.614,-0.071 0.739,0.147c1.249,2.188 -1.153,2 -1.166,2.021c-0.594,0.211 -1.189,0.422 -1.783,0.633c-0.055,-0.018 -0.082,-1.772 -3.171,-0.462c0,0 -1.849,0.886 -2.01,0.963c-0.259,0.178 -3.815,2.623 -3.934,-0.016c-0.02,-0.444 4.618,-1.493 2.96,-2.714c-0.889,-0.654 -0.972,-0.311 -4.872,-0.03c-0.002,-0.401 -0.027,-5.015 -0.027,-5.015Z" style="fill:#a7764e;"/><path d="M81.753,20.314c-0.336,-0.459 0.028,-1.219 -0.308,-1.678c-1.093,-1.494 -0.946,0.274 -2.079,1.804c-5.015,0.836 -5.814,-2.958 -6.741,-2.438c-0.517,0.29 -0.487,1.179 -1.005,1.469l-1.353,-0.257c-0.017,-0.523 -0.181,-5.672 -0.187,-6.539c1.938,-2.304 2.699,-0.451 10.597,-1.113c1.187,0.042 2.373,0.084 3.56,0.126c0.003,0.343 0.259,0.218 0.262,0.599c0.005,0.555 -0.009,0.514 -0.123,6.942c-1.336,0.604 -1.288,0.456 -2.623,1.086Z" style="fill:#9f6b4d;"/><path d="M2.548,26.201l-0.549,-1.069c-0.397,-2.778 -0.224,-2.727 -0.291,-8.927c3.9,-0.28 3.983,-0.624 4.872,0.03c1.657,1.221 -2.98,2.27 -2.96,2.714c0.119,2.639 3.675,0.194 3.934,0.016c1.863,0.484 1.823,0.328 3.339,1.05c0.292,0.082 3.213,0.9 3.752,-0.577c0.184,-0.505 -0.311,-1.102 -0.127,-1.607c0.012,-0.021 2.415,0.167 1.166,-2.021c-0.124,-0.218 -0.614,0.071 -0.739,-0.147c0.042,-0.264 0.709,-0.021 0.751,-0.285c0.073,-0.463 -0.448,-0.85 -0.498,-1.317c-0.031,-0.288 -0.048,-0.45 1.593,-3.255c1.65,0.667 0.96,2.943 0.876,13.42l-0.829,0.434c-6.817,0.101 -13.6,-0.805 -14.673,0.651c-0.192,0.26 0.575,0.63 0.383,0.89Z" style="fill:#ab794e;"/><path d="M105.62,11.193c0.37,-0.808 2.696,-0.589 5,-0.572c3.81,0.028 8.206,0.428 8.365,1.517c-1.834,-0.288 -1.785,-0.687 -3.579,-0.193c-0.604,-0.132 -1.208,-0.265 -1.812,-0.397l-0.974,-0.309c-6.467,0.635 -6.88,-0.028 -7.001,-0.045Z" style="fill:#886549;"/><path d="M67.481,25.059c-5.728,-1.534 -12.941,0.023 -14.039,0.26c-0.095,-2.092 -0.154,-1.991 -0.049,-3.011c2.207,-0.288 2.149,-0.27 4.278,-0.752c1.968,-0.78 1.876,-0.729 3.9,-1.113c0.169,0.134 2.113,1.678 2.113,1.678c0.621,-0.277 0.911,-1.77 0.944,-1.94c0.13,-0.669 -0.47,-0.497 -0.348,-1.128c-1.668,-2.815 -2.895,0.092 -4.634,-1.057c-1.292,-0.854 -0.089,-3.556 -0.655,-3.895c-0.228,-0.136 -0.175,-0.172 -2.368,-2.32c3.577,-0.024 3.489,-0.119 7.006,0.353c-0.195,0.231 -5.221,6.184 -0.201,3.772c1.186,-0.57 2.031,-1.265 2.191,-1.398c1.036,-0.853 1.07,-0.685 2.227,-1.426c-0.135,4.796 -0.034,4.679 0.102,11.384l-0.468,0.592Z" style="fill:#986c4b;"/><path d="M114.663,24.682c-9.514,1.322 -11.261,0.359 -11.284,-1.473c-0.006,-0.48 0.095,-0.392 0.088,-5.998c-0.005,-3.998 -1.868,-5.992 2.153,-6.018c0.121,0.018 0.534,0.68 7.001,0.045l0.974,0.309c0.123,0.499 0.246,0.998 0.369,1.498c-0.531,1.737 -0.437,1.678 -1.246,3.31c-1.05,-0.387 -1.121,-0.224 -1.735,-1.181c-0.507,-0.199 -0.688,-0.916 -1.195,-1.115c-0.106,-0.042 0,-0 -1.132,0.863c-1.789,0.129 -3.19,-0.296 -2.156,1.215c0.25,0.366 0.946,0.215 1.197,0.581c-0.527,1.264 -1.132,1.006 -1.035,2.483c0.104,1.578 -0.624,1.446 -0.392,2.994c0.263,1.757 2.817,-1.05 2.991,-1.242c0.563,0.304 0.752,1.096 1.315,1.4c1.447,0.782 1.293,-0.537 4.018,-3.278c0.199,0.499 1.549,0.518 0.449,2.338c-0.767,1.269 -0.388,1.291 -0.38,3.269Z" style="fill:#ad7952;"/><path d="M67.273,11.543c-1.903,-1.675 17.049,-1.521 16.964,0.144c-1.187,-0.042 -2.373,-0.084 -3.56,-0.126c-7.898,0.663 -8.66,-1.191 -10.597,1.113c-0.789,-0.194 -1.579,-0.388 -2.368,-0.582l-0.439,-0.55Z" style="fill:#62442e;"/><path d="M45.638,24.653c-6.65,0.173 -9.21,1.604 -9,-2.456c0.439,-8.471 -1.814,-10.132 2.398,-11.51c4.795,0.468 4.694,0.469 9.569,0.225c-0.131,0.246 0.057,0.244 -1.332,3.224c-0.001,0.001 0,0 -1.511,1.734c-0.216,-0.148 -0.708,0.497 -1.058,-0.727c-0.41,-1.435 -0.874,-0.624 -2.299,-0.037l0.017,-0.943c-0.264,-0.325 -0.528,-0.65 -0.791,-0.975c-1.563,0.248 -1.882,0.262 -1.863,1.861c-0.234,0.551 -1.15,0.594 -1.384,1.146c-0.045,0.105 1.375,2.556 1.502,2.774c-0.368,0.571 -3.205,1.073 -0.618,2.557c0.409,0.234 0.61,1.063 1.062,0.932c0.671,-0.195 0.652,-1.43 1.322,-1.625c0.47,-0.212 0.94,-0.425 1.41,-0.637c1.741,1.245 1.678,1.156 3.719,2.089c-0.381,0.79 -0.762,1.579 -1.144,2.369Z" style="fill:#a77149;"/><path d="M31.544,20.236c-4.291,-1.427 -4.532,-2.961 -8.369,-0.541c-0.124,0.117 -1.552,1.464 -1.552,1.464c-1.759,-0.681 -1.247,-1.867 -1.363,-2.04c-0.772,-7.72 1.025,-7.255 1.342,-7.608c10.009,0.448 12.875,-1.751 12.745,3.683c-0.905,-0.623 -0.873,-1.144 -1.727,-0.483c-0.67,0.518 -6.068,-0.968 -7.628,-0.913c-0.151,0.005 -9.794,1.263 -1.413,1.255c2.828,-0.003 2.037,2.353 2.077,2.393c0.113,0.113 0.029,-0.403 1.956,-0.418c3.472,-0.026 5.212,-0.073 3.932,3.209Z" style="fill:#895e42;"/><path d="M96.71,25.566c0.848,-3.139 0.625,-3.349 0.903,-3.383c1.245,-0.149 1,-0.51 0.886,-1.772c-0.094,-1.319 0.256,-1.472 -0.882,-2.211c3.09,-5.716 -1.773,-3.128 -2.01,-2.967c-0.135,0.092 -0.062,0.138 -0.833,1.859c-2.366,-2.553 -2.623,-2.233 -4.22,-5.268c9.178,-0.72 10.399,-0.299 10.483,3.326c0.181,7.814 0.323,10.365 -0.557,10.718c-1.427,0.572 -1.392,0.121 -3.77,-0.302Z" style="fill:#845b40;"/><path d="M53.394,22.308c-0.011,-0.81 -0.134,-9.803 0.212,-10.128c0.178,-0.167 0.587,-0.55 3.017,-0.399c2.193,2.148 2.14,2.184 2.368,2.32c0.566,0.338 -0.637,3.04 0.655,3.895c1.738,1.15 2.965,-1.758 4.634,1.057c-0.903,0.463 -1.806,0.927 -2.709,1.39c-2.024,0.384 -1.931,0.332 -3.9,1.113c-2.129,0.482 -2.071,0.464 -4.278,0.752Z" style="fill:#a2734f;"/><path d="M90.656,25.602c-0.358,-0.008 -4.333,-0.096 -4.299,-1.262c0.352,-11.904 0.329,-11.879 0.425,-12.908c1.878,0.616 1.851,0.607 3.771,0.394c1.597,3.035 1.854,2.714 4.22,5.268l0.555,0.493c0.159,0.504 0.318,1.008 0.477,1.513l0.052,0.995c-0.296,-0.026 -0.186,-0.11 -3.662,-0.612l-0.289,-0.405c-0.111,-0.652 -0.221,-1.305 -0.332,-1.957c-2.822,-1.671 -2.804,-1.956 -3.039,-1.799c-1.811,1.212 -0.95,1.909 1.048,2.795c0.355,2.032 0.28,3.456 0.264,3.757c-0.202,0.425 -1.538,-0.008 -0.675,1.42c0.114,0.188 0.11,0.171 1.483,2.31Z" style="fill:#8b5f42;"/><path d="M50.813,11.07c-0.736,-0.053 -1.472,-0.106 -2.208,-0.159c-4.875,0.244 -4.774,0.243 -9.569,-0.225l-0.381,-1.526c0,0 10.468,0.379 10.669,0.473c0.685,0.318 1.546,1.162 1.489,1.437Z" style="fill:#7a5b43;"/><path d="M66.504,28.363c-6.53,0.662 -6.451,0.113 -13.019,-0.319c-0.177,-2.536 -0.007,-2.509 -0.042,-2.725c1.098,-0.237 8.311,-1.794 14.039,-0.26c-0.107,0.254 -0.009,0.225 -0.977,3.303Z" style="fill:#73553d;"/><path d="M118.821,25.296c-2.067,-0.619 -2.028,-0.483 -4.158,-0.614c-0.008,-1.978 -0.386,-2 0.38,-3.269c1.1,-1.82 -0.251,-1.84 -0.449,-2.338c-0.053,-1.859 0.299,-3.816 0.358,-4.144c0.25,-0.091 0.455,0.463 0.705,0.372c0.855,-0.311 0.945,-0.871 0.963,-0.979c0.12,-0.74 -0.739,-0.404 -0.622,-1.121l-0.591,-1.258c1.793,-0.493 1.745,-0.095 3.579,0.193c-0.009,6.617 0.036,6.52 -0.165,13.158Z" style="fill:#b47853;"/><path d="M34.526,23.173c-1.605,-1.4 -1.552,-1.316 -2.982,-2.937c1.28,-3.281 -0.46,-3.235 -3.932,-3.209c-1.927,0.015 -1.843,0.532 -1.956,0.418c-0.04,-0.04 0.751,-2.396 -2.077,-2.393c-8.381,0.008 1.262,-1.249 1.413,-1.255c1.56,-0.055 6.958,1.431 7.628,0.913c0.854,-0.661 0.821,-0.14 1.727,0.483c0.003,0.639 0.021,5.026 0.18,7.98Z" style="fill:#865c41;"/><path d="M46.781,22.284c-2.042,-0.933 -1.979,-0.844 -3.719,-2.089l0.442,-0.75c1.993,-1.25 2.127,-0.968 2.285,-1.096c0.129,0.2 2.047,3.181 2.977,-0.076c0.249,-0.871 0.192,-0.978 0.152,-1.053c-0.397,-0.749 -0.823,-0.211 -1.246,-1.008c-0.133,-0.692 -0.266,-1.384 -0.398,-2.077c1.389,-2.98 1.2,-2.978 1.332,-3.224c0.736,0.053 1.472,0.106 2.208,0.159c0.133,5.1 0.099,4.982 0.145,10.164c-1.164,0.05 -0.977,-0.559 -2.233,-0.505c-0.146,0.006 -0.902,0.039 -1.697,0.675c-0.238,0.19 -0.01,0.69 -0.248,0.88Z" style="fill:#ae784c;"/><path d="M29.62,25.194c-2.107,-4.671 -3.433,-1.988 -3.751,-2.031c-0.156,-0.021 -0.019,-0.138 -0.262,-1.947c-1.18,-0.91 -1.035,-0.961 -2.433,-1.522c3.838,-2.42 4.078,-0.885 8.369,0.541c1.43,1.621 1.378,1.538 2.982,2.937c0.135,3.394 -1.556,2.009 -4.906,2.021Z" style="fill:#875d41;"/><path d="M109.261,20.952c0.184,-1.846 0.07,-1.798 -0.855,-3.325c0.636,-1.403 1.039,-1.433 0.25,-2.706c1.132,-0.863 1.026,-0.905 1.132,-0.863c0.507,0.199 0.688,0.916 1.195,1.115c0.614,0.957 0.685,0.795 1.735,1.181c0.809,-1.632 0.715,-1.573 1.246,-3.31c0.329,0.628 0.659,1.257 0.988,1.885c-0.059,0.327 -0.411,2.285 -0.358,4.144c-2.725,2.741 -2.572,4.06 -4.018,3.278c-0.563,-0.304 -0.752,-1.096 -1.315,-1.4Z" style="fill:#aa7750;"/><path d="M70.622,24.192c-0.891,0.092 -1.782,0.184 -2.672,0.276c-0.136,-6.705 -0.237,-6.588 -0.102,-11.384l-0.135,-0.99c0.789,0.194 1.579,0.388 2.368,0.582c0.006,0.866 0.171,6.016 0.187,6.539c0.048,2.509 -0.013,2.412 0.354,4.978Z" style="fill:#674937;"/><path d="M79.635,24.523c-2.589,0.055 -2.515,-0.009 -5.119,0.056c0.011,-3.273 -0.271,-3.32 -2.896,-5.108c0.517,-0.29 0.487,-1.179 1.005,-1.469c0.927,-0.52 1.726,3.274 6.741,2.438c0.331,2.066 0.281,2.003 0.269,4.083Z" style="fill:#b47853;"/><path d="M96.71,25.566c-3.028,0.183 -2.932,0.196 -6.054,0.035c2.629,-2.783 2.792,-2.505 5.201,-5.508l-0.052,-0.995c1.656,0.919 1.529,0.989 2.693,1.313c0.115,1.262 0.36,1.623 -0.886,1.772c-0.278,0.033 -0.055,0.243 -0.903,3.383Z" style="fill:#885e42;"/><path d="M24.614,25.374c-1.781,0.31 -1.769,0.312 -1.923,0.334c-4.557,0.665 -2.648,-2.001 -2.432,-6.589c0.116,0.173 -0.396,1.359 1.363,2.04c0,0 1.428,-1.347 1.552,-1.464c1.398,0.56 1.252,0.612 2.433,1.522c-1.424,1.861 -1.84,1.915 -0.993,4.157Z" style="fill:#8b5f43;"/><path d="M90.656,25.602c-1.373,-2.139 -1.37,-2.122 -1.483,-2.31c-0.863,-1.428 0.473,-0.995 0.675,-1.42c0.356,-0.189 0.936,0.418 2.348,-2.39c3.476,0.502 3.366,0.586 3.662,0.612c-2.409,3.003 -2.573,2.725 -5.201,5.508Z" style="fill:#8e6243;"/><path d="M45.638,24.653c0.381,-0.79 0.762,-1.579 1.144,-2.369c0.238,-0.19 0.01,-0.69 0.248,-0.88c0.795,-0.636 1.551,-0.669 1.697,-0.675c1.256,-0.054 1.069,0.555 2.233,0.505c0.616,5.359 -2.231,3.663 -5.32,3.419Z" style="fill:#a36d47;"/><path d="M74.515,24.579c-1.298,-0.129 -2.596,-0.258 -3.894,-0.387c-0.368,-2.566 -0.306,-2.469 -0.354,-4.978l1.353,0.257c2.625,1.788 2.906,1.835 2.896,5.108Z" style="fill:#a16c4d;"/><path d="M43.504,19.445c-1.943,-0.722 -1.939,-1.041 -1.646,-3.124l0.547,-1.216c1.425,-0.587 1.889,-1.397 2.299,0.037c0.35,1.224 0.842,0.579 1.058,0.727c0.384,0.493 0.768,0.985 1.152,1.478c-0.375,0.334 -0.751,0.668 -1.126,1.002c-0.158,0.127 -0.292,-0.154 -2.285,1.096Z" style="fill:#b97e4e;"/><path d="M29.62,25.194l-5.005,0.18c-0.848,-2.242 -0.431,-2.296 0.993,-4.157c0.243,1.809 0.106,1.926 0.262,1.947c0.318,0.042 1.644,-2.64 3.751,2.031Z" style="fill:#895d42;"/><path d="M83.421,24.763c-1.925,-0.045 -1.836,-0.052 -3.786,-0.239c0.204,-0.234 0.722,0.341 0.926,0.106c0.235,-0.27 1.035,-1.19 1.192,-4.315c1.335,-0.629 1.287,-0.481 2.623,-1.086c-0.047,3.41 0.939,3.76 -0.955,5.534Z" style="fill:#ab7351;"/><path d="M67.847,13.083c-1.157,0.741 -1.191,0.573 -2.227,1.426c-0.161,0.132 -1.006,0.828 -2.191,1.398c-5.02,2.412 0.006,-3.541 0.201,-3.772c1.869,-0.234 1.771,-0.15 3.644,-0.591l0.439,0.55l0.135,0.99Z" style="fill:#986d4d;"/><path d="M109.261,20.952c-0.174,0.192 -2.728,2.999 -2.991,1.242c-0.232,-1.548 0.495,-1.416 0.392,-2.994c-0.097,-1.477 0.508,-1.219 1.035,-2.483l0.71,0.91c0.926,1.527 1.039,1.479 0.855,3.325Z" style="fill:#bc8456;"/><path d="M41.652,20.832c-0.589,-0.621 -1.178,-1.242 -1.766,-1.864c-0.126,-0.218 -1.546,-2.669 -1.502,-2.774c0.234,-0.551 1.15,-0.594 1.384,-1.146c0.697,0.424 1.393,0.848 2.09,1.272c-0.294,2.084 -0.298,2.402 1.646,3.124l-0.442,0.75c-0.47,0.212 -0.94,0.425 -1.41,0.637Z" style="fill:#a06c47;"/><path d="M14.945,15.662c-2.779,0.646 -4.996,-1.168 -5.484,-1.354c1.032,-0.457 0.632,-1.511 3.146,-1.393c1.73,0.081 1.296,0.727 2.339,2.747Z" style="fill:#966a47;"/><path d="M79.635,24.523c0.012,-2.08 0.063,-2.018 -0.269,-4.083c1.132,-1.53 0.985,-3.298 2.079,-1.804c0.336,0.459 -0.028,1.219 0.308,1.678c-0.157,3.125 -0.957,4.045 -1.192,4.315c-0.204,0.234 -0.722,-0.341 -0.926,-0.106Z" style="fill:#9b684c;"/><path d="M97.618,18.2c-0.763,-0.205 -1.525,-0.409 -2.288,-0.614l-0.555,-0.493c0.772,-1.722 0.699,-1.768 0.833,-1.859c0.237,-0.161 5.1,-2.75 2.01,2.967Z" style="fill:#835b3f;"/><path d="M41.859,16.321c-0.697,-0.424 -1.393,-0.848 -2.09,-1.272c-0.019,-1.599 0.3,-1.614 1.863,-1.861l0.791,0.975l-0.017,0.943l-0.547,1.216Z" style="fill:#9f6a45;"/><path d="M89.848,21.871c0.016,-0.301 0.091,-1.725 -0.264,-3.757l1.033,-0.116c0.43,0.359 0.859,0.718 1.289,1.077l0.289,0.405c-1.411,2.808 -1.992,2.201 -2.348,2.39Z" style="fill:#956646;"/><path d="M10.893,20.014c0.605,-1.111 0.672,-1.001 1.842,-1.551c0.594,-0.211 1.189,-0.422 1.783,-0.633c-0.184,0.505 0.311,1.102 0.127,1.607c-0.54,1.477 -3.46,0.659 -3.752,0.577Z" style="fill:#a1714a;"/><path d="M45.789,18.349c0.375,-0.334 0.751,-0.668 1.126,-1.002c0.252,-0.378 0.505,-0.757 0.757,-1.135c0.423,0.797 0.849,0.26 1.246,1.008c0.04,0.075 0.097,0.182 -0.152,1.053c-0.93,3.257 -2.848,0.276 -2.977,0.076Z" style="fill:#9a6846;"/><path d="M98.499,20.411c-1.164,-0.324 -1.038,-0.393 -2.693,-1.313c-0.159,-0.504 -0.318,-1.008 -0.477,-1.513c0.763,0.205 1.525,0.409 2.288,0.614c1.138,0.739 0.788,0.892 0.882,2.211Z" style="fill:#7f573f;"/><path d="M41.652,20.832c-0.671,0.195 -0.652,1.43 -1.322,1.625c-0.452,0.131 -0.654,-0.697 -1.062,-0.932c-2.587,-1.484 0.25,-1.986 0.618,-2.557c0.589,0.621 1.178,1.242 1.766,1.864Z" style="fill:#b0784c;"/><path d="M10.893,20.014c-1.516,-0.722 -1.476,-0.566 -3.339,-1.05c0.161,-0.077 2.01,-0.963 2.01,-0.963c3.089,-1.31 3.116,0.444 3.171,0.462c-1.17,0.55 -1.237,0.44 -1.842,1.551Z" style="fill:#ac784d;"/><path d="M90.618,17.999l-1.033,0.116c-1.999,-0.886 -2.859,-1.583 -1.048,-2.795c0.235,-0.157 0.216,0.128 3.039,1.799l-0.957,0.88Z" style="fill:#81593f;"/><path d="M108.406,17.628l-0.71,-0.91c-0.25,-0.366 -0.946,-0.215 -1.197,-0.581c-1.034,-1.51 0.367,-1.086 2.156,-1.215c0.79,1.272 0.387,1.303 -0.25,2.706Z" style="fill:#a4724d;"/><path d="M61.571,20.443c0.903,-0.463 1.806,-0.927 2.709,-1.39c-0.123,0.631 0.478,0.46 0.348,1.128c-0.033,0.169 -0.323,1.663 -0.944,1.94c-0,0 -1.944,-1.544 -2.113,-1.678Z" style="fill:#9f714d;"/><path d="M57.378,18.897c-3.362,-1.886 -0.972,-2.636 -0.767,-2.571c1.563,0.498 1.16,0.942 0.767,2.571Z" style="fill:#9a6d4a;"/><path d="M114.952,14.93c-0.329,-0.628 -0.659,-1.257 -0.988,-1.885c0.678,0.052 1.356,0.105 2.034,0.157c-0.116,0.717 0.742,0.381 0.622,1.121c-0.018,0.108 -0.108,0.668 -0.963,0.979c-0.25,0.091 -0.455,-0.463 -0.705,-0.372Z" style="fill:#9d6e4c;"/><path d="M46.915,17.347c-0.384,-0.493 -0.768,-0.985 -1.152,-1.478c1.511,-1.734 1.51,-1.732 1.511,-1.734c0.133,0.692 0.266,1.384 0.398,2.077c-0.252,0.378 -0.505,0.757 -0.757,1.135Z" style="fill:#b0784c;"/><path d="M115.998,13.202c-0.678,-0.052 -1.356,-0.105 -2.034,-0.157c-0.123,-0.499 -0.246,-0.998 -0.369,-1.498c0.604,0.132 1.208,0.265 1.812,0.397l0.591,1.258Z" style="fill:#9e6f4e;"/><path d="M91.907,19.076c-0.43,-0.359 -0.859,-0.718 -1.289,-1.077l0.957,-0.88c0.111,0.652 0.221,1.305 0.332,1.957Z" style="fill:#8d6043;"/><path d="M23.375,19.142c0.07,-0.806 -0.952,-0.317 -0.877,-1.183c0.008,-0.098 0.066,-0.765 1.036,-0.658c1.236,0.136 -0.055,0.635 -0.159,1.841Z" style="fill:#906446;"/><path d="M7.512,14.884c0.434,-0.32 0.868,-0.639 1.302,-0.959l-1.302,0.959Z" style="fill:#a5764d;"/></g></svg>