<?xml version="1.0" encoding="UTF-8" standalone="no"?><!DOCTYPE svg PUBLIC "-//W3C//DTD SVG 1.1//EN" "http://www.w3.org/Graphics/SVG/1.1/DTD/svg11.dtd"><svg width="100%" height="100%" viewBox="0 0 240 36" version="1.1" xmlns="http://www.w3.org/2000/svg" xmlns:xlink="http://www.w3.org/1999/xlink" xml:space="preserve" xmlns:serif="http://www.serif.com/" style="fill-rule:evenodd;clip-rule:evenodd;"><path d="M235.553,10l0,16c0,2.208 -3.698,4 -8.254,4l-214.598,0c-4.556,0 -8.254,-1.792 -8.254,-4l0,-16c0,-2.208 3.698,-4 8.254,-4l214.598,0c4.556,0 8.254,1.792 8.254,4Z" style="fill:#fff;stroke:#111;stroke-width:3px;"/><path d="M120,6l0,24" style="fill:none;stroke:#000;stroke-width:3px;stroke-linecap:round;stroke-linejoin:round;stroke-miterlimit:1.5;"/><path d="M132.965,14.453l0,7.094c0,0.651 -0.529,1.18 -1.18,1.18l-2.36,0c-0.651,0 -1.18,-0.529 -1.18,-1.18l0,-7.094c0,-0.651 0.529,-1.18 1.18,-1.18l2.36,0c0.651,0 1.18,0.529 1.18,1.18Z" style="fill:#ebebeb;stroke:#000;stroke-width:3px;stroke-linecap:round;stroke-linejoin:round;stroke-miterlimit:1.5;"/><path d="M111.755,14.453l0,7.094c0,0.651 -0.529,1.18 -1.18,1.18l-2.36,0c-0.651,0 -1.18,-0.529 -1.18,-1.18l0,-7.094c0,-0.651 0.529,-1.18 1.18,-1.18l2.36,0c0.651,0 1.18,0.529 1.18,1.18Z" style="fill:#ebebeb;stroke:#000;stroke-width:3px;stroke-linecap:round;stroke-linejoin:round;stroke-miterlimit:1.5;"/></svg>