<?xml version="1.0" encoding="UTF-8" standalone="no"?><!DOCTYPE svg PUBLIC "-//W3C//DTD SVG 1.1//EN" "http://www.w3.org/Graphics/SVG/1.1/DTD/svg11.dtd"><svg width="100%" height="100%" viewBox="0 0 240 36" version="1.1" xmlns="http://www.w3.org/2000/svg" xmlns:xlink="http://www.w3.org/1999/xlink" xml:space="preserve" xmlns:serif="http://www.serif.com/" style="fill-rule:evenodd;clip-rule:evenodd;stroke-linejoin:round;stroke-miterlimit:2;"><g><path d="M16.497,4.942l-0.925,1.591c-0.408,2.605 -0.395,2.591 -0.44,2.814c-0.154,0.766 -0.313,0.578 -0.472,1.371l-1.017,0.838c-0.537,3.391 -1.373,4.863 2.003,4.792c2.795,0.851 2.682,0.89 5.59,0.729c0.684,0.284 0.579,1.545 1.263,1.829c2.339,0.972 2.617,-2.14 2.642,-2.426c0.342,-3.834 0.198,-4.147 3.464,-5.999c0.052,4.036 0.104,3.914 -0.033,8.014c1.03,7.94 -0.103,7.794 -1.785,10.167c-0.532,0.75 -0.12,0.776 -0.251,1.619c8.063,-1.213 4.755,-4.617 4.304,-12.764c0.049,-0.999 0.445,-9.091 -0.298,-12.494c0.396,-0.018 1.955,-0.088 4.959,0.037c-1.916,2.897 -0.953,3.118 -0.307,3.785c-0.77,4.471 -1.08,4.653 1.433,8.515c-0.233,0.12 -2.348,-0.46 -1.972,3.157c-0.052,4.001 -1.276,4.402 1.435,7.429c1.11,0.314 1.426,0.404 14.408,0.528c2.621,1.022 2.702,1.354 5.002,-0.054c53.26,-0.109 53.205,-0.137 59.992,-0.083c-0.997,0.71 -1.994,1.42 -2.991,2.13c-2.414,0.057 -13.986,0.691 -19.005,0.548c-5.412,0.16 -5.355,-0.065 -7.997,0.498c-4.499,1.116 -4.41,0.509 -8.969,-0.332c-1.263,-0.233 -1.175,0.95 -16.023,1.076c-5.186,0.044 -10.824,-0.995 -21.025,-0.248c-18.98,1.389 -23.774,-0.016 -25.018,-0.329c-0.978,-0.276 -8.23,-2.323 -8.737,-9.216c-0.053,-0.719 0.694,-0.536 0.372,-9.003c-0.012,-0.326 -0.06,-1.589 1.533,-3.779c0.127,-0.103 1.592,-1.293 1.592,-1.293c2.191,-5.174 3.745,-2.961 7.27,-3.446Z" style="fill:#130f0c;fill-opacity:0.96;"/><path d="M221.498,4.905l3.979,0.003c3.097,0.974 3.007,1.068 3.273,1.145c-1.252,3.668 0.101,3.587 3.543,5.42c-0.286,3.063 -0.048,2.955 0.423,5.984c-0.29,3.017 0.53,3.816 -2.368,4.725c-6.401,2.008 -0.044,7.276 0.429,7.668l-0.386,0.547c-1.553,0.319 -1.549,0.14 -2.9,1.082c-0.641,0.151 -1.283,0.302 -1.924,0.454c-2.813,-1.446 -2.805,-1.171 -6.06,-1.281c-4.448,-0.15 -4.955,0.901 -8,-2.366c1.198,0.022 12.244,1.274 12.646,-1.799c0.744,-5.686 -2.155,-3.879 -2.273,-3.562c-1.551,4.177 -2.4,4.703 -9.648,3.021c0.357,-2.56 0.831,-3.931 -1.642,-3.263c-0.374,0.101 -0.685,2.948 -0.713,3.21c-1.417,0.641 -1.507,0.503 -2.67,-0.523c0.063,-0.263 1.035,-4.322 -3.114,-1.304c-4.653,0.526 -4.656,1.288 -8.92,-0.346c-1.912,-1.633 -3.222,-0.698 -2.334,1.648l-0.37,1.278l-1.927,-0.368c-0.432,-0.876 -0.863,-1.751 -1.295,-2.627c0.645,-0.613 0.673,-0.337 1.297,-0.929c1.759,-1.67 -0.047,-2.309 -0.052,-2.551c1.133,-0.296 3.44,0.623 2.298,-4.505c2.169,-4.872 -1.5,-3.856 -9.316,-3.65c1.655,-1.671 1.585,-1.782 1.787,-1.804c0.855,-0.094 0.523,-0.483 1.171,-1.081c8.159,-0.149 8.001,-0.642 16.061,-0.648c6.238,0.305 6.079,0.242 12.198,0.931c1.559,1.142 1.588,0.555 3.511,-0.201c2.798,-0.362 2.467,0.513 4.289,2.693c-1.274,0.05 -5.98,0.233 -15.936,-0.104c-1.021,0.498 -0.877,0.542 -1.077,1.706c-0.396,1.059 -0.839,0.851 -0.744,1.991c0.165,1.985 -1.76,4.966 2.635,4.329c17.203,-0.557 20.573,2.634 20.68,-3.386c-0.096,-0.955 -0.043,-1.921 -0.139,-2.876c-0.295,-2.942 -1.581,-1.668 -4.538,-1.738c0.828,-3.467 2.506,-4.429 0.034,-4.987c-2.594,-0.585 -2.654,-0.234 -4.908,-1.823l2.998,-0.115Z" style="fill:#0c0a08;fill-opacity:1;"/><path d="M36.512,4.982c2.877,1.888 3.131,1.85 42.995,1.461c80.111,-0.782 80.047,0.302 87.007,0.205c2.268,-0.032 1.919,-0.741 3.994,-1.543l1.972,-0.048c4.251,3.08 4.698,1.23 10.02,1.455c26.334,1.111 28.029,-0.076 29.998,-1.454l6.003,-0.038c2.255,1.589 2.315,1.238 4.908,1.823c2.472,0.558 0.794,1.52 -0.034,4.987l-0.881,0.077c-1.821,-2.18 -1.491,-3.055 -4.289,-2.693c-0.212,-0.614 -0.425,-1.229 -0.637,-1.843c-0.339,-0.102 -0.677,-0.204 -1.016,-0.306c-0.017,0.016 -0.807,-0.749 -1.858,2.349c-6.12,-0.69 -5.96,-0.626 -12.198,-0.931c-8.059,0.006 -7.901,0.499 -16.061,0.648c-2.505,-0.185 -2.372,-0.247 -5.004,-0.369c-2.175,-0.101 -2.474,2.716 -5.066,0.899c-2.152,-1.509 -2.226,-0.798 -4.831,-0.811c-1.523,-0.008 -9.243,-0.215 -10.047,-0.237c-3.489,0.031 -3.341,-0.083 -6.936,-0.045c-1.918,0.157 -3.837,0.314 -5.755,0.471c-3.61,-0.131 -3.945,3.115 -6.41,0.514c-0.305,-0.269 -0.61,-0.538 -0.916,-0.808l-1.94,-0.051c-8.549,0.332 -8.41,-0.29 -17.01,-0.08c-5.055,0.123 -9.407,-1.671 -8.865,3.178c-2.549,-0.786 -2.473,-0.496 -4.889,0.466c-0.328,-0.283 -0.656,-0.566 -0.984,-0.85c0.371,-0.819 1.944,-1.327 -0.099,-2.062c0,0 -1.18,-0.639 -1.283,-0.694c-8.263,0.08 -8.234,0.004 -8.95,0.016c-2.418,0.078 -1.61,2.366 -3.989,2.002c-0.272,-0.042 -1.127,-0.172 -2.947,-1.77c-2.337,-0.143 -4.675,-0.285 -7.012,-0.428c-4.614,0.118 -4.584,0.129 -4.983,0.127c-2.519,-0.014 -2.412,-0.183 -5.02,-0.157c-4.027,0.04 -3.927,0.017 -7.996,0.034c-2.805,0.643 -3.306,4.111 -4.302,1.366c-0.319,-0.878 -0.442,-1.607 -12.7,-1.34c-4.758,0.223 -4.744,0.424 -5.55,1.083c-1.748,-0.559 -1.65,-0.371 -3.524,-0.077c-3.4,-0.622 -3.352,-0.69 -4.23,-0.663c-0.646,-0.667 -1.609,-0.888 0.307,-3.785l1.008,-0.078Z" style="fill:#ac977c;fill-opacity:1;"/><path d="M154.551,8.569c0.91,2.872 0.869,2.764 0.92,2.876c3.845,0.543 4.537,0.765 6.016,-2.831c0.804,0.022 8.524,0.229 10.047,0.237c2.605,0.013 2.679,-0.698 4.831,0.811c2.592,1.818 2.891,-0.999 5.066,-0.899c2.631,0.122 2.499,0.184 5.004,0.369c-0.647,0.598 -0.316,0.987 -1.171,1.081c-0.202,0.022 -0.132,0.134 -1.787,1.804c-18.638,0.528 -20.582,-0.993 -20.629,2.393c0.033,3.837 -1.051,4.903 2.654,6.105c5.563,-0.276 5.527,-0.281 6.008,-0.298c3.043,-0.109 2.919,0.153 5.943,0.045c10.186,-0.164 10.174,-0.098 11.058,-0.134l1.984,0.046c0.005,0.243 1.811,0.881 0.052,2.551c-0.624,0.592 -0.651,0.316 -1.297,0.929c-2.461,-2.059 -2.76,-1.145 -5.635,0.322c-1.836,2.638 -2.682,2.818 -6.242,2.763c-13.005,-0.201 -12.84,-0.408 -25.92,-0.349c-0.088,-2.182 0.707,-2.247 0.901,-2.263c0.441,-0.036 0.941,0.316 1.325,0.096c0,0 -2.845,-1.294 -3.092,-1.407c-1.429,-2.08 -1.361,-2.931 -3.778,-2.04l-1.359,-0.393c-0.212,-0.392 0.056,-0.4 -0.151,-0.782c-0.045,-0.083 0,0 -0.753,-0.914c0.569,-0.262 1.137,-0.524 1.706,-0.786c0.164,0.108 6.128,4.013 2.101,-1.267c-0.381,-0.5 -1.697,-3.64 -1.832,-3.962c0.76,-0.595 1.573,-0.347 2.277,-3.629c1.918,-0.157 3.837,-0.314 5.755,-0.471Z" style="fill:#31271f;fill-opacity:1;"/><path d="M183.615,23.974c3.519,1.266 3.16,2.026 6.93,2.305l1.927,0.368c5.997,-0.376 6.82,-2.642 11.033,1.723l-3.011,0.049c-6.8,-0.031 -64.221,-0.292 -84.999,-0.081c-6.788,-0.053 -6.733,-0.025 -59.992,0.083l-5.002,0.054c-12.981,-0.124 -13.298,-0.213 -14.408,-0.528c0.36,-0.373 0.006,-1.138 0.366,-1.511c0.078,-0.081 0.959,0.039 1.042,0.05c1.894,0.258 2.058,-1.237 2.167,-1.303c0.593,0.034 1.186,0.068 1.779,0.102c1.436,0.943 1.281,1.404 2.995,1.132c0.555,0.005 0.429,-0.231 0.968,-0.226c0.801,0.007 0.742,0.014 10.012,0.186c4.751,-0.477 4.616,0.485 4.991,0.345c0.619,-0.231 0.548,-1.372 1.168,-1.603c1.171,0.584 0.633,1.782 2.944,1.47c2.03,-0.274 1.878,-0.15 3.952,-0.316c1.653,-0.032 3.306,-0.064 4.959,-0.096c2.151,0.132 2.063,-0.032 4.162,0.085c19.204,-0.195 19.175,-0.11 20.224,-0.324c0.288,-0.038 0.576,-0.076 0.864,-0.115c0.529,0.019 2.859,0.516 18.831,0.637c12.373,-0.128 31.421,0.042 33.938,-0.073c13.08,-0.059 12.915,0.148 25.92,0.349c3.56,0.055 4.407,-0.125 6.242,-2.763Z" style="fill:#ac9477;fill-opacity:1;"/><path d="M115.494,28.337c20.778,-0.211 78.199,0.05 84.999,0.081c0.328,0.21 -0.189,1.526 1.992,1.274c4.178,-0.482 4.498,1.054 8.042,-1.428l0.981,0.024c3.044,3.267 3.552,2.215 8,2.366c3.255,0.11 3.247,-0.165 6.06,1.281c-7.518,2.38 -26.301,-1.515 -41.049,-1.111c-16.13,0.442 -15.019,0.261 -27.997,0.048c-7.238,-0.475 -7.35,-0.023 -9.02,0.434c-0.722,-0.004 -4.977,-0.026 -8.995,-0.656c-4.551,0.188 -18.581,-0.315 -26.003,-0.183c0.997,-0.71 1.994,-1.42 2.991,-2.13Z" style="fill:#0d0b08;fill-opacity:0.87;"/><path d="M36.512,4.982c3.358,0.008 35.686,0.09 41.981,-0.069c2.336,0.019 4.672,0.039 7.008,0.058l3.986,0.054c24.13,0.048 32.188,-0.016 34.987,-0.038c28.561,0.026 28.544,0.202 31.023,0.08l6,-0.01c4.563,-0.109 4.408,-0.144 9.011,0.048c-2.075,0.802 -1.726,1.512 -3.994,1.543c-6.96,0.097 -6.896,-0.988 -87.007,-0.205c-39.864,0.389 -40.118,0.428 -42.995,-1.461Z" style="fill:#0d0a08;fill-opacity:0.97;"/><path d="M97.469,11.471c5.851,1.807 6.366,-0.073 10.325,2.33c0.498,1.645 0.548,1.517 1.876,2.769c0.594,1.242 0.807,0.975 2.2,1.061c1.856,1.726 3.063,1.999 1.296,3.811c-0.621,0.636 -0.149,0.632 0.607,0.64c2.737,0.03 3.221,0.77 4.559,-1.632c1.248,0.238 1.319,-0.065 2.308,0.81c0.947,1.597 0.867,1.544 0.898,3.439l-1.979,0.07c-4.56,-1.468 -7.534,0.547 -8.397,-1.122c-0.617,-1.193 -0.454,-1.296 -1.791,-1.803c-0.516,-1.356 0.18,-1.987 -3.668,-3.743c-2.311,2.597 -2.909,-0.038 -6.271,0.333c-0.655,-0.01 -1.31,-0.02 -1.965,-0.029l-1.791,0.749l-2.025,-0.972c-0.773,-0.638 -1.678,-2.214 -3.227,-2.512c-1.942,-0.374 -0.997,-1.091 -0.907,-2.092c0.669,-0.399 1.338,-0.799 2.007,-1.198c0.56,0.17 2.642,2.371 5.945,-0.908Z" style="fill:#705d4d;fill-opacity:1;"/><path d="M139.53,8.696c0.52,2.255 0.646,2.079 1.883,3.983c-0.578,0.36 -1.156,0.721 -1.734,1.081c-1.606,-1.145 -1.154,-2.407 -3.847,-1.868l-1.373,0.643c-2.571,-1.081 -2.851,-1.831 -4.786,0.103c-0.838,-3.347 -2.015,-0.791 -4.927,0.935c-5.239,-2.655 -5.344,-2.557 -11.091,-1.78c-0.542,-4.849 3.81,-3.054 8.865,-3.178c8.6,-0.21 8.461,0.412 17.01,0.08Z" style="fill:#5f4f41;fill-opacity:1;"/><path d="M130.485,22.47c0.588,0.063 1.176,0.126 1.764,0.188c1.635,3.438 2.622,2.176 6.198,0.791c2.678,-1.18 3.417,-0.003 3.443,0.004c0.808,1.686 1.202,2.067 4.156,0.712l0.443,-0.67c0.332,-0.012 0.262,-0.102 4.095,-0.681c0.247,0.113 3.092,1.407 3.092,1.407c-0.384,0.22 -0.884,-0.132 -1.325,-0.096c-0.194,0.016 -0.989,0.081 -0.901,2.263c-2.517,0.115 -21.565,-0.055 -33.938,0.073c1.944,-1.669 1.822,-1.608 2.046,-1.693l1.979,-0.07c1.011,-0.003 2.023,-0.006 3.034,-0.01c0.995,-0.323 1.99,-0.646 2.986,-0.969c0.976,-0.417 1.951,-0.833 2.927,-1.25Z" style="fill:#3a2e25;fill-opacity:1;"/><path d="M224.616,14.309c0.181,0.529 0.362,1.059 0.543,1.588c1.354,0.786 1.288,1.011 2.893,0.547c-0.108,6.02 -3.477,2.829 -20.68,3.386c0.51,-2.041 0.561,-1.916 0.73,-3.998c3.373,0.184 3.228,0.151 6.505,0.235c2.499,-0.398 2.38,0.162 4.816,0.08c0.276,-0.009 -0.308,-0.656 2.328,-2.542c0.192,-0.137 0.185,0.139 2.866,0.705Z" style="fill:#5d4a39;fill-opacity:1;"/><path d="M55.595,15.675c0.969,-0.08 1.938,-0.16 2.908,-0.24c2.753,3.867 3.817,1.193 4.011,1.079c1.1,-0.644 2.022,-0.178 2.064,-0.182c2.767,3.957 5.986,2.879 7.017,2.856l0.985,0.237c1.648,1.379 1.526,1.419 3.772,1.707c1.051,1.04 2.023,1.127 0.909,1.943c-1.398,1.024 -1.583,2.512 -2.42,0.975c-0.707,-1.298 -0.941,-0.804 -2.41,-1.252c-0.641,-0.195 -1.319,-0.253 -1.96,-0.449l-1.065,-0.124c-1.943,-0.696 -1.791,-0.631 -1.943,-0.696c-5.549,-2.362 0.045,3.851 1.011,4.744c-2.074,0.166 -1.921,0.042 -3.952,0.316c-2.311,0.312 -1.773,-0.885 -2.944,-1.47c2.258,-0.776 2.386,-0.635 2.432,-0.836c0,-0 -1.54,-1.252 -1.673,-1.361c1.681,-3.571 0.5,-3.581 0.212,-3.583c-2.154,-0.018 -2.091,1.07 -4.085,0.213c-2.436,-2.827 -2.433,-2.799 -2.631,-3.053c-0.307,-0.394 0.034,-0.475 -0.239,-0.825Z" style="fill:#3d3129;fill-opacity:1;"/><path d="M65.502,8.477c4.069,-0.017 3.968,0.006 7.996,-0.034c2.608,-0.026 2.502,0.143 5.02,0.157c0.399,0.002 0.369,-0.009 4.983,-0.127c0.159,0.23 1.397,2.027 1.769,3.01c0.402,0.616 0.804,1.231 1.205,1.847c-2.625,1.009 -2.603,0.971 -2.992,1.193c-0.6,-0.375 -1.199,-0.749 -1.799,-1.124c-0.908,-3.944 -1.996,-3.052 -2.184,-2.836c-0.456,0.522 -0.287,1.42 -0.743,1.942l-0.428,1.001c-1.795,-0.223 -1.713,-0.497 -3.135,-0.044c-0.711,-4.847 -2.556,-1.129 -2.656,-0.927c-2.512,-0.484 -3.548,-1.59 -3.911,0.957c-0.495,3.476 -2.898,1.188 -3.086,1.009c-0.063,-0.785 -0.126,-1.57 -0.188,-2.355c1.009,-1.76 0.545,-1.766 0.15,-3.667Z" style="fill:#534337;fill-opacity:1;"/><path d="M183.477,12.017c7.816,-0.206 11.485,-1.222 9.316,3.65c-1.288,0.594 -1.325,1.016 -2.374,0.072c-3.154,-2.84 -3.803,-0.547 -7.933,-1.354c-1.805,-0.211 -1.927,-0.32 -2.901,1.146c-1.331,-3.769 -3.383,1.061 -9.054,-1.232c-0.657,-0.203 -1.313,-0.407 -1.97,-0.61c-2.12,0.028 -2.012,0.01 -4.071,0.581c-0.547,0.047 -1.094,0.093 -1.641,0.14c0.048,-3.385 1.991,-1.864 20.629,-2.393Z" style="fill:#a68c6d;"/><path d="M195.175,23.721c4.264,1.634 4.268,0.872 8.92,0.346c1.274,1.292 1.274,1.223 3.114,1.304c1.162,1.026 1.253,1.165 2.67,0.523c0.785,0.018 1.57,0.036 2.355,0.054c7.248,1.681 8.097,1.156 9.648,-3.021c0.118,-0.317 3.017,-2.124 2.273,3.562c-0.402,3.073 -11.447,1.821 -12.646,1.799l-0.981,-0.024c-2.341,0.035 -4.682,0.07 -7.023,0.106c-4.214,-4.364 -5.036,-2.099 -11.033,-1.723l0.37,-1.278c1.379,-0.587 1.426,-0.384 2.334,-1.648Z" style="fill:#6b5642;fill-opacity:1;"/><path d="M93.651,18.182l2.025,0.972c0.139,0.27 1.105,2.142 1.749,3.369c0.356,1.858 0.336,1.708 0.356,1.858c0.115,0.862 -0.072,0.726 0.038,1.558c-1.049,0.213 -1.02,0.128 -20.224,0.324c2.223,-2.929 2.385,-4.23 5.657,-2.449c2.526,1.375 5.241,-0.018 5.643,-0.225c2.791,-2.344 2.622,-2.373 4.755,-5.406Z" style="fill:#362b22;fill-opacity:1;"/><path d="M86.476,13.33l2.002,0.102l1.039,0.145c-0.09,1.002 -1.035,1.718 0.907,2.092c1.549,0.298 2.454,1.874 3.227,2.512c-2.134,3.033 -1.965,3.063 -4.755,5.406c-2.395,-1.892 -2.83,-0.522 -5.552,-1.925c0.742,-1.18 0.749,-1.086 2.247,-2.996c-1.287,-1.45 -0.84,-1.882 -3.179,-2.583c0.358,-0.521 0.715,-1.041 1.073,-1.562c0.389,-0.221 0.367,-0.183 2.992,-1.193Z" style="fill:#52453a;fill-opacity:1;"/><path d="M16.497,4.942c7.036,0.129 6.919,-0.013 14.047,0.081c0.742,3.404 0.347,11.496 0.298,12.494c-0.375,0.284 -0.369,0.225 -2.268,0.978c0.136,-4.1 0.085,-3.978 0.033,-8.014c-0.286,-5.541 -3.13,-1.305 -3.284,-1.075c-0.878,-1.542 -1.072,-1.694 -2.607,-0.983c-3.413,-1.552 -3.838,0.088 -7.143,-1.891l0.925,-1.591Z" style="fill:#7a6853;fill-opacity:1;"/><path d="M129.672,12.638l-0.481,0.446c-0.09,0.065 -4.724,2.854 -4.636,3.356c0.077,0.438 1.098,0.192 1.175,0.629c-0.145,1.641 0.056,1.764 -1.281,2.756c-0.432,-0.421 -0.863,-0.841 -1.295,-1.262c-1.002,-2.773 -1.929,-1.861 -4.526,-0.52c-5.432,-0.989 -5.691,-1.791 -6.759,-0.413c-1.393,-0.087 -1.606,0.181 -2.2,-1.061l0.768,-1.162c0.848,-1.013 0.786,-0.927 0.848,-1.013c2.997,-4.166 4.865,2.69 13.46,-0.823c2.912,-1.726 4.089,-4.282 4.927,-0.935Z" style="fill:#7e6955;fill-opacity:1;"/><path d="M15.572,6.533c3.304,1.979 3.729,0.339 7.143,1.891c0.829,1.528 0.984,1.623 2.607,0.983c0.154,-0.23 2.998,-4.466 3.284,1.075c-3.266,1.852 -3.122,2.165 -3.464,5.999c-0.026,0.286 -0.303,3.398 -2.642,2.426c-0.684,-0.284 -0.579,-1.545 -1.263,-1.829c2.019,-1.452 1.107,-1.868 1.307,-4.577c-1.901,-2.212 -2.345,-1.253 -7.883,-1.782c0.159,-0.793 0.318,-0.605 0.472,-1.371c0.045,-0.223 0.033,-0.208 0.44,-2.814Z" style="fill:#261e18;fill-opacity:1;"/><path d="M170.53,14.298c5.671,2.293 7.723,-2.537 9.054,1.232c0.003,1.633 0.208,1.816 1.741,1.697c1.991,1.183 2.03,1.712 2.875,1.065c1.19,-0.911 5.699,-1.48 4.311,1.833c-0.884,0.036 -0.872,-0.03 -11.058,0.134c-0.135,-4.834 -7.575,-1.613 -7.919,-1.68c-0.637,-0.126 -0.635,-1.349 -1.272,-1.475c0.833,-0.812 2.099,-2.572 2.267,-2.807Z" style="fill:#49392a;fill-opacity:1;"/><path d="M206.558,11.802c9.956,0.337 14.662,0.154 15.936,0.104l0.881,-0.077c2.957,0.07 4.243,-1.205 4.538,1.738c0.096,0.955 0.043,1.921 0.139,2.876c-1.604,0.464 -1.539,0.239 -2.893,-0.547c-0.181,-0.529 -0.362,-1.059 -0.543,-1.588c-2.681,-0.566 -2.674,-0.843 -2.866,-0.705c-2.636,1.886 -2.053,2.533 -2.328,2.542c-2.435,0.082 -2.317,-0.478 -4.816,-0.08c-1.678,-2.985 -2.972,-1.407 -6.106,-2.929c-1.091,-0.53 -0.92,-0.632 -1.942,-1.334Z" style="fill:#bfa687;fill-opacity:1;"/><path d="M48.5,8.503c12.258,-0.267 12.381,0.462 12.7,1.34c0.996,2.744 1.498,-0.724 4.302,-1.366c0.396,1.901 0.859,1.907 -0.15,3.667c-5.545,1.895 -5.069,-0.598 -6.717,-1.722c-0.189,-0.129 -0.183,0.092 -2.556,1.293c-4.426,-2.847 -4.454,3.078 -9.561,1.648c-0.58,-0.162 -0.838,-0.957 -1.418,-1.12c1.111,-0.793 1.123,-0.535 2.436,-0.678c2.201,-0.241 2.03,-1.029 0.963,-3.062Z" style="fill:#423327;fill-opacity:1;"/><path d="M109.371,21.845c1.338,0.506 1.174,0.61 1.791,1.803c0.863,1.669 3.837,-0.346 8.397,1.122c-0.224,0.084 -0.101,0.023 -2.046,1.693c-15.972,-0.121 -18.302,-0.618 -18.831,-0.637l0.407,-2.697c0.603,-0.186 1.206,-0.372 1.809,-0.558c1.277,-0.697 1.309,-0.624 2.56,0.075c2.923,1.241 2.884,0.35 5.912,-0.799Z" style="fill:#524134;"/><path d="M184.501,4.936c25.781,0.182 25.758,0.032 27.996,0.121c-1.968,1.378 -3.664,2.565 -29.998,1.454c-5.321,-0.224 -5.768,1.625 -10.02,-1.455c0.543,-0.015 0.521,-0.011 12.021,-0.121Z" style="fill:#0c0a08;fill-opacity:0.98;"/><path d="M56.079,11.715c0.684,0.92 0.812,0.842 0.483,1.937l-1.092,0.044c-2.704,0.647 -2.687,0.281 -5.479,0.903l-2.542,1.023c-2.7,0.22 -2.836,0.597 -3.102,3.341c-1.512,-0.454 -1.434,-0.441 -3.034,-0.612l-0.024,-0.916c-0.252,-0.319 -0.504,-0.639 -0.756,-0.958c-0.665,0.026 -1.33,0.052 -1.996,0.078c0.268,-1.654 0.268,-1.503 1.062,-3.121c0.037,0.006 1.099,1.958 5.5,-1.19c0.58,0.162 0.838,0.957 1.418,1.12c5.107,1.43 5.135,-4.495 9.561,-1.648Z" style="fill:#42342a;fill-opacity:1;"/><path d="M56.079,11.715c2.374,-1.201 2.367,-1.422 2.556,-1.293c1.648,1.124 1.172,3.617 6.717,1.722c0.063,0.785 0.126,1.57 0.188,2.355c-0.845,0.441 -0.221,0.921 -1.022,1.339c-0.953,0.498 -1.054,-0.346 -1.044,-0.261c0.053,0.442 1.05,0.312 1.103,0.754c-0.042,0.004 -0.964,-0.462 -2.064,0.182c-0.194,0.114 -1.259,2.788 -4.011,-1.079c-0.969,0.08 -1.938,0.16 -2.908,0.24c-2.953,2.014 -3.715,1.92 -5.605,-1.076c2.792,-0.622 2.775,-0.256 5.479,-0.903c0.364,-0.015 0.728,-0.029 1.092,-0.044c0.329,-1.096 0.202,-1.018 -0.483,-1.937Z" style="fill:#614d3b;fill-opacity:1;"/><path d="M38.538,16.555c0.665,-0.026 1.33,-0.052 1.996,-0.078l0.756,0.958l0.024,0.916c-1.596,1.901 -0.449,2.407 2.094,2.73c-0.126,1.044 -0.253,2.089 -0.379,3.133c-4.564,-3.894 -3.477,0.714 -3.362,0.969c-0.108,0.065 -0.273,1.56 -2.167,1.303c-0.083,-0.011 -0.964,-0.131 -1.042,-0.05c-0.36,0.373 -0.006,1.138 -0.366,1.511c-2.711,-3.028 -1.487,-3.429 -1.435,-7.429c1.301,-0.911 1.328,-0.656 2.757,-1.235c1.339,-0.542 1.172,-1.002 0.094,-1.803l1.031,-0.925Z" style="fill:#33271e;fill-opacity:1;"/><path d="M72.538,12.533c-0.158,0.238 -1.98,2.974 -1.98,2.974c-0.4,1.292 0.657,0.246 1.907,0.715c3.868,3.239 3.335,3.512 3.885,4.91c-2.245,-0.288 -2.124,-0.329 -3.772,-1.707c-0.328,-0.079 -0.657,-0.158 -0.985,-0.237c-1.03,0.023 -4.249,1.101 -7.017,-2.856c-0.053,-0.442 -1.05,-0.312 -1.103,-0.754c-0.01,-0.085 0.091,0.758 1.044,0.261c0.801,-0.418 0.178,-0.898 1.022,-1.339c0.188,0.179 2.592,2.466 3.086,-1.009c0.363,-2.547 1.399,-1.441 3.911,-0.957Z" style="fill:#645243;fill-opacity:1;"/><path d="M49.99,14.599c1.89,2.996 2.652,3.09 5.605,1.076c0.272,0.349 -0.069,0.431 0.239,0.825c0.198,0.254 0.195,0.226 2.631,3.053c-3.105,0.673 -2.791,1.233 -3.779,3.794c-0.295,-0.89 -1.076,0.017 -1.377,-0.892c-0.354,-1.068 1.061,-0.995 0.412,-2.02c0,0 -1.92,1.022 -2.087,1.11c-0.086,-0.652 -0.172,-1.304 -0.258,-1.957c-0.987,-0.051 -0.92,-0.494 -1.801,-0.093c-0.219,0.1 -0.223,-0.007 -3.008,-0.089c0.264,-1.539 0.799,-3.485 0.881,-3.785l2.542,-1.023Z" style="fill:#493b30;fill-opacity:1;"/><path d="M79.496,19.643c0.333,2.619 1.257,1.981 3.848,2.02c2.721,1.403 3.157,0.033 5.552,1.925c-0.402,0.206 -3.117,1.599 -5.643,0.225c-3.272,-1.78 -3.435,-0.48 -5.657,2.449c-2.1,-0.117 -2.011,0.047 -4.162,-0.085c-0.663,-2.468 -1.493,-1.444 -3.972,-1.66c0.701,-1.772 0.608,-1.808 1.009,-2.167c0.641,0.195 1.319,0.253 1.96,0.449c1.469,0.448 1.704,-0.046 2.41,1.252c0.837,1.537 1.021,0.049 2.42,-0.975c1.114,-0.816 0.142,-0.903 -0.909,-1.943c0.488,-0.402 0.499,-0.329 3.144,-1.489Z" style="fill:#685443;fill-opacity:1;"/><path d="M43.408,21.081c3.772,0.541 3.749,0.529 4.073,0.584c0.555,0.095 0.416,0.231 0.99,0.329c0.679,0.501 1.359,1.001 2.038,1.502c2.719,1.383 3.448,0.306 4.911,2.882c-9.27,-0.172 -9.211,-0.179 -10.012,-0.186c-0.539,-0.005 -0.413,0.232 -0.968,0.226c-1.714,0.272 -1.559,-0.189 -2.995,-1.132c0.528,-0.357 1.055,-0.714 1.583,-1.071c0.126,-1.044 0.253,-2.089 0.379,-3.133Z" style="fill:#34271d;fill-opacity:1;"/><path d="M182.485,14.385c4.131,0.807 4.779,-1.486 7.933,1.354c1.049,0.944 1.086,0.522 2.374,-0.072c1.142,5.128 -1.165,4.209 -2.298,4.505l-1.984,-0.046c1.388,-3.314 -3.122,-2.745 -4.311,-1.833c-0.845,0.647 -0.884,0.118 -2.875,-1.065c1.052,-1.228 0.776,-1.291 1.161,-2.843Z" style="fill:#574432;fill-opacity:1;"/><path d="M113.654,11.793c5.747,-0.777 5.852,-0.876 11.091,1.78c-8.596,3.513 -10.463,-3.343 -13.46,0.823c-0.062,0.086 -0,0 -0.848,1.013c-0.355,-0.732 -0.813,-0.106 -1.147,-0.795c-0.084,-0.174 -0.039,-0.174 -0.526,-2.354c2.417,-0.963 2.34,-1.253 4.889,-0.466Z" style="fill:#504134;fill-opacity:1;"/><path d="M97.45,8.669c0.716,-0.012 0.687,0.064 8.95,-0.016c0.456,1.803 0.402,1.664 0.456,1.803c0.272,0.703 0.657,0.261 0.926,0.954c0.328,0.283 0.656,0.566 0.984,0.85c-0.324,0.514 -0.648,1.028 -0.972,1.542c-3.958,-2.403 -4.474,-0.523 -10.325,-2.33c-0.006,-0.934 -0.013,-1.868 -0.019,-2.802Z" style="fill:#4a3b2f;fill-opacity:1;"/><path d="M48.5,8.503c1.067,2.033 1.238,2.822 -0.963,3.062c-1.313,0.144 -1.326,-0.115 -2.436,0.678c-4.401,3.148 -5.463,1.196 -5.5,1.19c-1.961,-1.323 -3.665,-1.122 -2.189,-2.934c0.797,-0.978 0.979,-0.482 2.015,-0.991c1.395,2.694 2.451,1.965 3.524,0.077c0.806,-0.659 0.792,-0.86 5.55,-1.083Z" style="fill:#31261e;fill-opacity:1;"/><path d="M153.519,14.506c8.05,-2.921 7.737,4.483 5.924,4.833c-4.949,0.957 -6.334,0.259 -5.924,-4.833Z" style="fill:#5c4a39;"/><path d="M196.251,13.565c1.358,-0.183 2.716,-0.366 4.074,-0.549c-0.617,1.357 0.024,1.593 -1.13,2.485c-0.936,0.723 -0.648,2.347 -0.388,2.658c0.993,1.188 2.026,-0.311 3.489,-2.708c-0.013,0.593 -0.167,7.554 -4.697,5.736c-2.044,-0.82 -1.411,-7.006 -1.348,-7.621Z" style="fill:#81684e;fill-opacity:1;"/><path d="M165.861,16.067c1.624,1.763 2.363,1.037 2.402,1.038c0.637,0.126 0.635,1.349 1.272,1.475c0.344,0.068 7.784,-3.154 7.919,1.68c-3.024,0.108 -2.901,-0.153 -5.943,-0.045c-0.481,0.017 -0.445,0.022 -6.008,0.298c-0.21,-2.481 -1.253,-2.673 0.359,-4.447Z" style="fill:#6e5841;"/><path d="M141.413,12.679c2.583,0.51 2.493,0.375 5.106,-0.01c0.135,0.322 1.451,3.463 1.832,3.962c4.027,5.28 -1.936,1.375 -2.101,1.267c-2.545,-1.113 -2.33,-1.607 -4.716,-1.322c-0.837,-0.76 -1.673,-1.52 -2.51,-2.28l0.654,-0.537c0.578,-0.36 1.156,-0.721 1.734,-1.081Z" style="fill:#6c5847;fill-opacity:1;"/><path d="M30.842,17.518c0.451,8.147 3.759,11.551 -4.304,12.764c0.131,-0.843 -0.281,-0.869 0.251,-1.619c1.682,-2.373 2.814,-2.227 1.785,-10.167c1.9,-0.754 1.894,-0.695 2.268,-0.978Z" style="fill:#8a7157;fill-opacity:1;"/><path d="M22.068,20.825c1.435,3.627 -0.1,3.501 -2.479,4.245c-4.364,-0.653 -6.558,-1.661 -3.467,-4.935c1.621,-1.716 5.527,0.458 5.946,0.691Z" style="fill:#977d61;fill-opacity:1;"/><path d="M51.634,21.545c0.167,-0.089 2.087,-1.11 2.087,-1.11c0.648,1.025 -0.766,0.952 -0.412,2.02c0.301,0.909 1.082,0.003 1.377,0.892c2.957,-0.864 4.195,-0.161 5.78,1.181l1.113,0.592c-0.619,0.231 -0.548,1.372 -1.168,1.603c-0.375,0.14 -0.239,-0.822 -4.991,-0.345c-1.463,-2.576 -2.191,-1.499 -4.911,-2.882c0.375,-0.65 0.75,-1.3 1.125,-1.95Z" style="fill:#47372b;fill-opacity:1;"/><path d="M99.432,18.434c3.362,-0.371 3.961,2.265 6.271,-0.333c3.848,1.756 3.152,2.387 3.668,3.743c-3.534,-0.62 -4.704,0.045 -5.912,0.799c-1.25,-0.699 -1.283,-0.771 -2.56,-0.075c-0.101,-2.906 -0.808,-2.643 -1.004,-3.094l-0.463,-1.041Z" style="fill:#524337;"/><path d="M35.196,8.846c0.877,-0.027 0.829,0.042 4.23,0.663c-1.036,0.509 -1.218,0.013 -2.015,0.991c-1.476,1.812 0.228,1.611 2.189,2.934c-0.795,1.618 -0.794,1.467 -1.062,3.121l-1.031,0.925l-0.878,-0.119c-2.513,-3.863 -2.203,-4.044 -1.433,-8.515Z" style="fill:#443429;fill-opacity:1;"/><path d="M75.164,14.492c0.299,0.167 -0.287,0.86 0.012,1.027c0.15,0.084 0.158,-0.018 2.134,-0.238c0.416,0.487 0.832,0.974 1.248,1.461c1.852,0.684 1.7,0.728 3.353,1.734l-0.285,1.292l-2.131,-0.125c-2.645,1.16 -2.656,1.088 -3.144,1.489c-0.55,-1.398 -0.017,-1.671 -3.885,-4.91c1.523,-0.649 1.404,-0.694 2.698,-1.73Z" style="fill:#594a3f;"/><path d="M144.544,18.684c0.753,0.914 0.708,0.831 0.753,0.914c0.207,0.382 -0.061,0.391 0.151,0.782c-0.96,1.016 -0.844,0.99 -1.059,2.427c-1.389,0.09 -1.285,0.142 -2.497,0.645c-0.026,-0.006 -0.766,-1.184 -3.443,-0.004c-0.655,-0.633 -1.31,-1.265 -1.965,-1.898c0.323,-2.927 1.331,-2.284 4.254,-2.055c0.706,1.968 0.609,2.029 0.762,2.125c1.355,0.85 0.665,-0.453 1.14,-1.97c0,0 1.753,-0.89 1.905,-0.968Z" style="fill:#544538;fill-opacity:1;"/><path d="M58.465,19.553c1.994,0.857 1.931,-0.231 4.085,-0.213c0.287,0.002 1.469,0.012 -0.212,3.583c-1.311,0.348 -1.169,0.487 -1.871,1.606c-1.585,-1.342 -2.823,-2.045 -5.78,-1.181c0.988,-2.561 0.674,-3.122 3.779,-3.794Z" style="fill:#58473a;"/><path d="M138.691,14.582l0.334,-0.285c0.837,0.76 1.673,1.52 2.51,2.28c-0.897,1.37 -0.784,1.343 -0.798,2.92c-2.923,-0.229 -3.931,-0.872 -4.254,2.055l-1.056,0.405c-1.636,-1.824 -0.778,-2.247 -2.204,-4.219c3.412,-0.26 3.604,-0.269 5.468,-3.155Z" style="fill:#635345;fill-opacity:1;"/><path d="M111.87,17.631c1.068,-1.378 1.327,-0.576 6.759,0.413c-0.099,0.802 -0.198,1.604 -0.297,2.406c-1.338,2.403 -1.822,1.663 -4.559,1.632c-0.756,-0.008 -1.228,-0.004 -0.607,-0.64c1.767,-1.812 0.56,-2.085 -1.296,-3.811Z" style="fill:#4f4136;"/><path d="M139.53,8.696l1.94,0.051l0.916,0.808c2.466,2.601 2.801,-0.645 6.41,-0.514c-0.703,3.282 -1.516,3.033 -2.277,3.629c-2.612,0.385 -2.523,0.52 -5.106,0.01c-1.238,-1.904 -1.364,-1.728 -1.883,-3.983Z" style="fill:#211a14;fill-opacity:1;"/><path d="M80.507,15.47l1.904,0.614c2.339,0.701 1.892,1.133 3.179,2.583c-1.498,1.91 -1.504,1.816 -2.247,2.996c-2.591,-0.039 -3.515,0.598 -3.848,-2.02l2.131,0.125c0.095,-0.431 0.19,-0.861 0.285,-1.292c-1.654,-1.006 -1.502,-1.051 -3.353,-1.734l1.949,-1.272Z" style="fill:#504238;fill-opacity:1;"/><path d="M22.544,12.5c-0.2,2.71 0.712,3.126 -1.307,4.577c-2.908,0.161 -2.795,0.122 -5.59,-0.729c0.365,-1.011 0.731,-2.021 1.096,-3.032c3.017,0.181 3.048,0.515 5.802,-0.816Z" style="fill:#665240;fill-opacity:1;"/><path d="M134.459,12.535l1.004,2.072c-1.76,0.743 -1.774,0.607 -3.055,1.927c-1.403,-0.175 -1.247,-0.11 -2.71,0.166c-1.322,0.123 -2.644,0.247 -3.966,0.37c-0.077,-0.438 -1.098,-0.192 -1.175,-0.629c-0.088,-0.502 4.546,-3.291 4.636,-3.356c0.772,0.111 0.654,1.745 1.427,1.856c0.772,0.111 1.178,-1.064 1.893,-1.378c1.096,-0.482 0.956,-0.504 1.948,-1.027Z" style="fill:#54463a;fill-opacity:1;"/><path d="M90.513,8.902c1.82,1.597 2.676,1.728 2.947,1.77c2.379,0.364 1.571,-1.924 3.989,-2.002c0.006,0.934 0.013,1.868 0.019,2.802c-3.303,3.279 -5.385,1.078 -5.945,0.908c-1.363,-1.516 -1.852,-1.551 -1.011,-3.478Z" style="fill:#1f1812;fill-opacity:1;"/><path d="M41.313,18.351c1.599,0.171 1.522,0.158 3.034,0.612c0.74,0.148 1.481,0.296 2.221,0.444c2.785,0.082 2.789,0.189 3.008,0.089c0.881,-0.402 0.814,0.042 1.801,0.093c-1.855,0.756 -1.701,0.867 -2.906,2.405c-0.574,-0.098 -0.435,-0.234 -0.99,-0.329c-0.325,-0.055 -0.302,-0.043 -4.073,-0.584c-2.543,-0.324 -3.691,-0.829 -2.094,-2.73Z" style="fill:#584536;fill-opacity:1;"/><path d="M69.406,22.225c0.019,0.764 0.037,1.528 0.056,2.292c2.479,0.216 3.309,-0.808 3.972,1.66c-1.653,0.032 -3.306,0.064 -4.959,0.096c-0.966,-0.893 -6.561,-7.106 -1.011,-4.744c0.152,0.065 0,0 1.943,0.696Z" style="fill:#47382d;fill-opacity:1;"/><path d="M83.501,8.473c2.337,0.143 4.675,0.285 7.012,0.428c-0.841,1.927 -0.352,1.962 1.011,3.478c-0.669,0.399 -1.338,0.799 -2.007,1.198l-1.039,-0.145c-0.42,-1.101 0.066,-1.218 -0.802,-2.104c-1.746,-1.781 -1.822,0.118 -2.405,0.155c-0.373,-0.983 -1.611,-2.78 -1.769,-3.01Z" style="fill:#554437;fill-opacity:1;"/><path d="M154.551,8.569c3.596,-0.038 3.448,0.076 6.936,0.045c-1.479,3.595 -2.171,3.374 -6.016,2.831c-0.051,-0.112 -0.011,-0.004 -0.92,-2.876Z" style="fill:#4a3b2f;"/><path d="M205.48,13.509c0.874,0.774 1.747,1.548 2.621,2.322c-0.169,2.082 -0.22,1.957 -0.73,3.998c-4.395,0.637 -2.47,-2.344 -2.635,-4.329c-0.095,-1.141 0.348,-0.932 0.744,-1.991Z" style="fill:#3c2f24;"/><path d="M206.558,11.802c1.022,0.702 0.851,0.804 1.942,1.334c3.133,1.522 4.428,-0.055 6.106,2.929c-3.277,-0.085 -3.131,-0.051 -6.505,-0.235c-0.874,-0.774 -1.747,-1.548 -2.621,-2.322c0.2,-1.165 0.056,-1.208 1.077,-1.706Z" style="fill:#8f7558;fill-opacity:1;"/><path d="M129.697,16.699c0.012,0.544 0.023,1.088 0.035,1.632c-0.441,2.706 -1.199,2.073 -3.555,3.176c-0.299,-0.192 -0.598,-0.385 -0.897,-0.577l-0.83,-1.104c1.338,-0.992 1.136,-1.115 1.281,-2.756c1.322,-0.123 2.644,-0.247 3.966,-0.37Z" style="fill:#5f5045;"/><path d="M129.732,18.331c1.399,0.286 1.307,0.248 2.628,0.122c-0.277,2.277 -0.501,2.142 -1.875,4.018c-0.976,0.417 -1.951,0.833 -2.927,1.25c-0.46,-0.738 -0.921,-1.476 -1.381,-2.214c2.356,-1.103 3.113,-0.47 3.555,-3.176Z" style="fill:#6b5a4c;fill-opacity:1;"/><path d="M14.66,10.718c5.539,0.529 5.982,-0.43 7.883,1.782c-2.754,1.331 -2.784,0.998 -5.802,0.816c-0.234,-0.163 -1.214,-0.847 -3.099,-1.76l1.017,-0.838Z" style="fill:#9d856a;fill-opacity:1;"/><path d="M97.467,18.405c0.655,0.01 1.31,0.02 1.965,0.029l0.463,1.041c-0.654,1.817 -0.545,1.726 -0.804,3.652l-0.407,2.697c-0.288,0.038 -0.576,0.076 -0.864,0.115c-0.111,-0.832 0.076,-0.696 -0.038,-1.558c-0.02,-0.15 -0,-0 -0.356,-1.858c-0.644,-1.227 -1.61,-3.099 -1.749,-3.369c0.597,-0.25 1.194,-0.499 1.791,-0.749Z" style="fill:#5e4c3d;fill-opacity:1;"/><path d="M23.5,29.042c-0.477,0.299 -4.133,2.591 -7.013,0.482c-6.235,-4.565 6.476,-0.647 7.013,-0.482Z" style="fill:#64513f;fill-opacity:1;"/><path d="M72.538,12.533c0.1,-0.202 1.945,-3.919 2.656,0.927l-0.031,1.031c-1.293,1.036 -1.175,1.081 -2.698,1.73c-1.251,-0.469 -2.308,0.577 -1.907,-0.715c0,0 1.821,-2.736 1.98,-2.974Z" style="fill:#7d6854;fill-opacity:1;"/><path d="M141.535,16.576c2.386,-0.285 2.171,0.209 4.716,1.322c-0.569,0.262 -1.137,0.524 -1.706,0.786c-0.152,0.077 -1.905,0.968 -1.905,0.968c-0.475,1.516 0.216,2.819 -1.14,1.97c-0.153,-0.096 -0.056,-0.157 -0.762,-2.125c0.014,-1.578 -0.099,-1.55 0.798,-2.92Z" style="fill:#4b3e34;"/><path d="M123.155,18.564c0.432,0.421 0.863,0.841 1.295,1.262l0.83,1.104c-0.382,0.143 -0.429,-1.057 -0.811,-0.914c-2.725,1.018 -0.64,1.888 0.104,4.674c-1.011,0.003 -2.023,0.006 -3.034,0.01c-0.031,-1.895 0.049,-1.842 -0.898,-3.439c1.219,-1.541 2.295,-2.499 2.515,-2.696Z" style="fill:#655447;fill-opacity:1;"/><path d="M183.615,23.974c2.874,-1.467 3.174,-2.381 5.635,-0.322c0.432,0.876 0.863,1.751 1.295,2.627c-3.769,-0.279 -3.411,-1.039 -6.93,-2.305Z" style="fill:#3b2d21;fill-opacity:1;"/><path d="M202.253,10.602l0.133,0.888c-0.815,0.785 -0.786,0.664 -2.061,1.525c-1.358,0.183 -2.716,0.366 -4.074,0.549c0.937,-3.904 2.044,-3.172 6.003,-2.963Z" style="fill:#c9af8d;fill-opacity:1;"/><path d="M118.629,18.044c2.597,-1.341 3.524,-2.253 4.526,0.52c-0.22,0.196 -1.296,1.155 -2.515,2.696c-0.989,-0.875 -1.06,-0.572 -2.308,-0.81c0.099,-0.802 0.198,-1.604 0.297,-2.406Z" style="fill:#534539;"/><path d="M135.462,14.607l1.057,0.022c0.724,-0.016 1.448,-0.031 2.172,-0.047c-1.864,2.886 -2.056,2.895 -5.468,3.155l-0.473,-0.311l-0.342,-0.892c1.282,-1.32 1.295,-1.184 3.055,-1.927Z" style="fill:#483c33;fill-opacity:1;"/><path d="M202.386,11.49c-0.03,1.32 -0.061,2.64 -0.091,3.96c-1.463,2.397 -2.495,3.896 -3.489,2.708c-0.26,-0.311 -0.547,-1.934 0.388,-2.658c1.153,-0.892 0.513,-1.127 1.13,-2.485c1.275,-0.861 1.246,-0.74 2.061,-1.525Z" style="fill:#67543f;fill-opacity:1;"/><path d="M162.848,14.409c0.547,-0.047 1.094,-0.093 1.641,-0.14c0.457,0.599 0.915,1.198 1.372,1.797c-1.612,1.774 -0.57,1.966 -0.359,4.447c-3.705,-1.201 -2.621,-2.268 -2.654,-6.105Z" style="fill:#755e47;fill-opacity:1;"/><path d="M13.643,11.556c1.886,0.913 2.865,1.597 3.099,1.76c-0.365,1.011 -0.731,2.021 -1.096,3.032c-3.376,0.07 -2.541,-1.401 -2.003,-4.792Z" style="fill:#322821;fill-opacity:1;"/><path d="M135.426,21.956l1.056,-0.405c0.655,0.633 1.31,1.265 1.965,1.898c-3.576,1.386 -4.563,2.647 -6.198,-0.791c1.716,-0.281 1.565,-0.454 3.177,-0.702Z" style="fill:#6f5a47;fill-opacity:1;"/><path d="M200.493,28.419l3.011,-0.049c2.341,-0.035 4.682,-0.07 7.023,-0.106c-3.544,2.482 -3.864,0.946 -8.042,1.428c-2.181,0.252 -1.665,-1.064 -1.992,-1.274Z" style="fill:#030202;fill-opacity:1;"/><path d="M129.672,12.638c1.935,-1.933 2.215,-1.184 4.786,-0.103c-0.992,0.523 -0.852,0.545 -1.948,1.027c-0.714,0.314 -1.12,1.489 -1.893,1.378c-0.772,-0.111 -0.654,-1.745 -1.427,-1.856l0.481,-0.446Z" style="fill:#4b3e35;fill-opacity:1;"/><path d="M10.919,11.524c-0.478,5.382 -0.872,5.361 -1.311,5.338c-1.251,-0.067 -1.371,-2.968 -1.383,-3.25c-0.104,-2.503 2.159,-1.926 2.694,-2.087Z" style="fill:#5d4a3b;"/><path d="M78.758,12.504c1.558,0.361 1.421,0.281 2.927,0.894c0.6,0.375 1.199,0.749 1.799,1.124c-0.358,0.521 -0.715,1.041 -1.073,1.562l-1.904,-0.614c-0.772,-0.311 -1.544,-0.622 -2.315,-0.933l0.138,-1.033l0.428,-1.001Z" style="fill:#705f51;fill-opacity:1;"/><path d="M132.749,17.426l0.473,0.311c1.426,1.972 0.568,2.396 2.204,4.219c-1.612,0.248 -1.46,0.422 -3.177,0.702c-0.588,-0.063 -1.176,-0.126 -1.764,-0.188c1.374,-1.876 1.598,-1.74 1.875,-4.018l0.389,-1.027Z" style="fill:#594a3e;fill-opacity:1;"/><path d="M125.28,20.929c0.299,0.192 0.598,0.385 0.897,0.577c0.46,0.738 0.921,1.476 1.381,2.214c-0.995,0.323 -1.99,0.646 -2.986,0.969c-0.744,-2.786 -2.83,-3.657 -0.104,-4.674c0.382,-0.143 0.429,1.057 0.811,0.914Z" style="fill:#504237;fill-opacity:1;"/><path d="M47.449,15.622c-0.082,0.3 -0.617,2.247 -0.881,3.785c-0.74,-0.148 -1.481,-0.296 -2.221,-0.444c0.266,-2.744 0.402,-3.121 3.102,-3.341Z" style="fill:#514135;fill-opacity:1;"/><path d="M146.807,20.774c2.417,-0.891 2.349,-0.039 3.778,2.04c-3.833,0.578 -3.763,0.669 -4.095,0.681c-0.005,-0.159 -0.012,-0.019 0.317,-2.721Z" style="fill:#625142;fill-opacity:1;"/><path d="M182.485,14.385c-0.385,1.551 -0.108,1.615 -1.161,2.843c-1.533,0.119 -1.738,-0.064 -1.741,-1.697c0.974,-1.465 1.096,-1.357 2.901,-1.146Z" style="fill:#a88c67;fill-opacity:1;"/><path d="M10.465,23.495c-2.272,5.602 -2.788,-1.615 -1.992,-2.173c1.652,-1.158 1.968,1.938 1.992,2.173Z" style="fill:#86715b;fill-opacity:1;"/><path d="M168.56,13.689c0.657,0.203 1.313,0.407 1.97,0.61c-0.168,0.234 -1.434,1.994 -2.267,2.807c-0.039,-0.002 -0.777,0.724 -2.402,-1.038c0.248,-0.145 0.124,-0.217 2.699,-2.378Z" style="fill:#9c7d58;fill-opacity:1;"/><path d="M216.552,7.065l1.016,0.306c0.212,0.614 0.425,1.229 0.637,1.843c-1.923,0.755 -1.952,1.343 -3.511,0.201c1.051,-3.099 1.841,-2.333 1.858,-2.349Z" style="fill:#ac9373;"/><path d="M51.377,19.589c0.086,0.652 0.172,1.304 0.258,1.957c-0.375,0.65 -0.75,1.3 -1.125,1.95c-0.679,-0.501 -1.359,-1.001 -2.038,-1.502c1.205,-1.538 1.051,-1.649 2.906,-2.405Z" style="fill:#3a2d24;"/><path d="M204.095,24.067c4.149,-3.018 3.176,1.041 3.114,1.304c-1.839,-0.081 -1.839,-0.012 -3.114,-1.304Z" style="fill:#6d553d;fill-opacity:1;"/><path d="M43.029,24.214c-0.528,0.357 -1.055,0.714 -1.583,1.071c-0.593,-0.034 -1.186,-0.068 -1.779,-0.102c-0.115,-0.255 -1.202,-4.863 3.362,-0.969Z" style="fill:#9c7c59;fill-opacity:1;"/><path d="M36.629,17.361l0.878,0.119c1.078,0.801 1.245,1.261 -0.094,1.803c-1.428,0.579 -1.456,0.324 -2.757,1.235c-0.376,-3.616 1.739,-3.036 1.972,-3.157Z" style="fill:#221a15;fill-opacity:1;"/><path d="M215.539,22.655c2.055,-0.037 3.218,-0.428 2.493,1.555c-0.348,0.952 -6.494,1.166 -2.493,-1.555Z" style="fill:#94795b;"/><path d="M85.27,11.483c0.583,-0.038 0.659,-1.936 2.405,-0.155c0.868,0.886 0.382,1.003 0.802,2.104l-2.002,-0.102c-0.402,-0.616 -0.804,-1.231 -1.205,-1.847Z" style="fill:#41342b;fill-opacity:1;"/><path d="M176.647,22.993c4.461,-0.431 2.909,1.848 2.564,2.015c-2.578,1.246 -2.565,-1.754 -2.564,-2.015Z" style="fill:#a78864;fill-opacity:1;"/><path d="M209.878,25.894c0.029,-0.261 0.34,-3.109 0.713,-3.21c2.473,-0.668 1.999,0.704 1.642,3.263c-0.785,-0.018 -1.57,-0.036 -2.355,-0.054Z" style="fill:#382d23;fill-opacity:1;"/><path d="M195.175,23.721c-0.907,1.264 -0.955,1.061 -2.334,1.648c-0.888,-2.346 0.422,-3.281 2.334,-1.648Z" style="fill:#69523d;fill-opacity:1;"/><path d="M144.389,22.808c0.553,0.452 1.106,0.905 1.659,1.357c-2.955,1.355 -3.349,0.974 -4.156,-0.712c1.213,-0.503 1.109,-0.556 2.497,-0.645Z" style="fill:#b19470;fill-opacity:1;"/><path d="M129.697,16.699c1.463,-0.275 1.307,-0.34 2.71,-0.166l0.342,0.892l-0.389,1.027c-1.322,0.126 -1.229,0.164 -2.628,-0.122c-0.012,-0.544 -0.023,-1.088 -0.035,-1.632Z" style="fill:#7f6b5a;"/><path d="M62.337,22.923c0.134,0.109 1.673,1.361 1.673,1.361c-0.046,0.201 -0.174,0.06 -2.432,0.836l-1.113,-0.592c0.702,-1.119 0.56,-1.258 1.871,-1.606Z" style="fill:#b1916a;fill-opacity:1;"/><path d="M109.371,21.845c-3.028,1.15 -2.989,2.04 -5.912,0.799c1.209,-0.754 2.379,-1.42 5.912,-0.799Z" style="fill:#5f4d3e;fill-opacity:1;"/><path d="M145.448,20.381l1.359,0.393c-0.329,2.702 -0.321,2.562 -0.317,2.721l-0.443,0.67c-0.553,-0.452 -1.106,-0.905 -1.659,-1.357c0.215,-1.437 0.099,-1.411 1.059,-2.427Z" style="fill:#45372b;fill-opacity:1;"/><path d="M135.831,11.892c2.693,-0.539 2.241,0.723 3.847,1.868l-0.654,0.537l-0.334,0.285c-0.724,0.016 -1.448,0.031 -2.172,0.047c-0.045,-1.495 -0.054,-1.398 -0.687,-2.737Z" style="fill:#55473c;fill-opacity:1;"/><path d="M75.194,13.46c1.422,-0.453 1.34,-0.179 3.135,0.044l-0.138,1.033l-0.882,0.743c-1.976,0.22 -1.984,0.322 -2.134,0.238c-0.299,-0.167 0.287,-0.86 -0.012,-1.027l0.031,-1.031Z" style="fill:#3a3029;"/><path d="M108.765,12.259c0.487,2.18 0.441,2.18 0.526,2.354c0.334,0.689 0.792,0.062 1.147,0.795l-0.768,1.162c-1.328,-1.251 -1.379,-1.124 -1.876,-2.769c0.324,-0.514 0.648,-1.028 0.972,-1.542Z" style="fill:#735f4c;fill-opacity:1;"/><path d="M39.426,9.509c1.874,-0.294 1.776,-0.482 3.524,0.077c-1.073,1.888 -2.129,2.616 -3.524,-0.077Z" style="fill:#9a7b5b;"/><path d="M99.895,19.475c0.196,0.451 0.904,0.188 1.004,3.094c-0.603,0.186 -1.206,0.372 -1.809,0.558c0.259,-1.926 0.151,-1.835 0.804,-3.652Z" style="fill:#584637;"/><path d="M96.086,24.059c-0.263,0.061 -7.14,1.647 -3.158,-1.204c1.352,-0.968 2.985,0.996 3.158,1.204Z" style="fill:#bd9d77;fill-opacity:1;"/><path d="M78.758,12.504c0.456,-0.522 0.287,-1.42 0.743,-1.942c0.188,-0.216 1.276,-1.108 2.184,2.836c-1.506,-0.613 -1.369,-0.534 -2.927,-0.894Z" style="fill:#6a5a4c;"/><path d="M168.56,13.689c-2.575,2.161 -2.45,2.233 -2.699,2.378c-0.457,-0.599 -0.915,-1.198 -1.372,-1.797c2.059,-0.571 1.951,-0.553 4.071,-0.581Z" style="fill:#644e39;fill-opacity:1;"/><path d="M22.715,8.424c1.536,-0.711 1.73,-0.56 2.607,0.983c-1.623,0.64 -1.779,0.546 -2.607,-0.983Z" style="fill:#b59b7b;fill-opacity:1;"/><path d="M78.192,14.538c0.772,0.311 1.544,0.622 2.315,0.933l-1.949,1.272c-0.416,-0.487 -0.832,-0.974 -1.248,-1.461l0.882,-0.743Z" style="fill:#625347;fill-opacity:1;"/><path d="M50.5,28.475l5.002,-0.054c-2.301,1.408 -2.381,1.077 -5.002,0.054Z" style="fill:#100d0a;fill-opacity:1;"/><path d="M135.831,11.892c0.633,1.34 0.642,1.242 0.687,2.737l-1.057,-0.022l-1.004,-2.072l1.373,-0.643Z" style="fill:#6b594b;fill-opacity:1;"/><path d="M24.496,25.433c0.862,0.881 1.656,0.852 0.76,1.777c-0.086,0.088 -5.249,0.964 -0.76,-1.777Z" style="fill:#b59671;"/><path d="M96.8,14.724c-0.528,3.602 -1.866,1.501 -1.968,1.34c-0.923,-1.451 0.42,-0.815 1.968,-1.34Z" style="fill:#544539;fill-opacity:1;"/><path d="M106.4,8.653c0.103,0.056 1.283,0.694 1.283,0.694c2.043,0.736 0.469,1.244 0.099,2.062c-0.268,-0.694 -0.654,-0.251 -0.926,-0.954c-0.054,-0.139 -0,-0 -0.456,-1.803Z" style="fill:#77614c;fill-opacity:1;"/><path d="M88.551,18.444c2.043,-0.362 1.934,-0.488 2.043,-0.362c0.596,0.692 -0.514,1.973 -1.041,1.707c-0.499,-0.251 -0.502,-1.094 -1.002,-1.345Z" style="fill:#4b3f35;"/><path d="M19.777,23.342c-0.81,-1.188 -2.621,-1.12 -1.17,-1.716c1.413,-0.581 1.111,0.235 1.17,1.716Z" style="fill:#66523e;fill-opacity:1;"/><path d="M69.406,22.225l1.065,0.124c-0.401,0.359 -0.308,0.396 -1.009,2.167c-0.019,-0.764 -0.037,-1.528 -0.056,-2.292Z" style="fill:#5f4b3d;fill-opacity:1;"/></g></svg>