<?xml version="1.0" encoding="UTF-8" standalone="no"?><!DOCTYPE svg PUBLIC "-//W3C//DTD SVG 1.1//EN" "http://www.w3.org/Graphics/SVG/1.1/DTD/svg11.dtd"><svg width="100%" height="100%" viewBox="0 0 240 36" version="1.1" xmlns="http://www.w3.org/2000/svg" xmlns:xlink="http://www.w3.org/1999/xlink" xml:space="preserve" xmlns:serif="http://www.serif.com/" style="fill-rule:evenodd;clip-rule:evenodd;"><path d="M233.894,10l0,16c0,2.208 -3.645,4 -8.135,4l-211.516,0c-4.491,0 -8.135,-1.792 -8.135,-4l0,-16c0,-2.208 3.645,-4 8.135,-4l211.516,0c4.491,0 8.135,1.792 8.135,4Z" style="fill:#fff;stroke:#111;stroke-width:3px;"/><circle cx="114" cy="18" r="1.6" style="fill:#111;"/><circle cx="126" cy="18" r="1.6" style="fill:#111;"/><path d="M129.377,17.699l0,6.403c0,1.338 -1.086,2.425 -2.425,2.425l-13.904,0c-1.338,0 -2.425,-1.086 -2.425,-2.425l0,-6.403c0,-1.338 1.086,-2.425 2.425,-2.425l13.904,0c1.338,0 2.425,1.086 2.425,2.425Z" style="fill:#fff;stroke:#111;stroke-width:3px;"/><path d="M116.133,15.275l0,-1.702c0,-2.398 1.702,-4.099 3.867,-4.099c2.166,0 3.867,1.702 3.867,4.099l0,1.702" style="fill:none;fill-rule:nonzero;stroke:#111;stroke-width:3px;stroke-linecap:round;"/><circle cx="120" cy="19.6" r="1.999" style="fill:#111;"/><path d="M120,20.236l0,1.927" style="fill:none;fill-rule:nonzero;stroke:#111;stroke-width:2.99px;stroke-linecap:round;"/></svg>