<?xml version="1.0" encoding="UTF-8" standalone="no"?><!DOCTYPE svg PUBLIC "-//W3C//DTD SVG 1.1//EN" "http://www.w3.org/Graphics/SVG/1.1/DTD/svg11.dtd"><svg width="100%" height="100%" viewBox="0 0 120 36" version="1.1" xmlns="http://www.w3.org/2000/svg" xmlns:xlink="http://www.w3.org/1999/xlink" xml:space="preserve" xmlns:serif="http://www.serif.com/" style="fill-rule:evenodd;clip-rule:evenodd;"><path d="M115.34,10l0,16c0,2.208 -1.771,4 -3.953,4l-102.775,0c-2.182,0 -3.953,-1.792 -3.953,-4l0,-16c0,-2.208 1.771,-4 3.953,-4l102.775,0c2.182,0 3.953,1.792 3.953,4Z" style="fill:#fff;stroke:#111;stroke-width:3px;"/><path d="M60,6l0,24" style="fill:none;stroke:#000;stroke-width:3px;stroke-linecap:round;stroke-linejoin:round;stroke-miterlimit:1.5;"/><path d="M72.965,14.453l0,7.094c0,0.651 -0.529,1.18 -1.18,1.18l-2.36,0c-0.651,0 -1.18,-0.529 -1.18,-1.18l0,-7.094c0,-0.651 0.529,-1.18 1.18,-1.18l2.36,0c0.651,0 1.18,0.529 1.18,1.18Z" style="fill:#ebebeb;stroke:#000;stroke-width:3px;stroke-linecap:round;stroke-linejoin:round;stroke-miterlimit:1.5;"/><path d="M51.755,14.453l0,7.094c0,0.651 -0.529,1.18 -1.18,1.18l-2.36,0c-0.651,0 -1.18,-0.529 -1.18,-1.18l0,-7.094c0,-0.651 0.529,-1.18 1.18,-1.18l2.36,0c0.651,0 1.18,0.529 1.18,1.18Z" style="fill:#ebebeb;stroke:#000;stroke-width:3px;stroke-linecap:round;stroke-linejoin:round;stroke-miterlimit:1.5;"/></svg>