<?xml version="1.0" encoding="UTF-8" standalone="no"?><!DOCTYPE svg PUBLIC "-//W3C//DTD SVG 1.1//EN" "http://www.w3.org/Graphics/SVG/1.1/DTD/svg11.dtd"><svg width="100%" height="100%" viewBox="0 0 360 36" version="1.1" xmlns="http://www.w3.org/2000/svg" xmlns:xlink="http://www.w3.org/1999/xlink" xml:space="preserve" xmlns:serif="http://www.serif.com/" style="fill-rule:evenodd;clip-rule:evenodd;"><path d="M352.696,10l0,16c0,2.208 -5.526,4 -12.335,4l-320.721,0c-6.809,0 -12.335,-1.792 -12.335,-4l0,-16c0,-2.208 5.526,-4 12.335,-4l320.721,0c6.809,0 12.335,1.792 12.335,4Z" style="fill:#fff;stroke:#111;stroke-width:3px;"/><path d="M180,6l0,24" style="fill:none;stroke:#000;stroke-width:3px;stroke-linecap:round;stroke-linejoin:round;stroke-miterlimit:1.5;"/><path d="M192.965,14.453l0,7.094c0,0.651 -0.529,1.18 -1.18,1.18l-2.36,0c-0.651,0 -1.18,-0.529 -1.18,-1.18l0,-7.094c0,-0.651 0.529,-1.18 1.18,-1.18l2.36,0c0.651,0 1.18,0.529 1.18,1.18Z" style="fill:#ebebeb;stroke:#000;stroke-width:3px;stroke-linecap:round;stroke-linejoin:round;stroke-miterlimit:1.5;"/><path d="M171.755,14.453l0,7.094c0,0.651 -0.529,1.18 -1.18,1.18l-2.36,0c-0.651,0 -1.18,-0.529 -1.18,-1.18l0,-7.094c0,-0.651 0.529,-1.18 1.18,-1.18l2.36,0c0.651,0 1.18,0.529 1.18,1.18Z" style="fill:#ebebeb;stroke:#000;stroke-width:3px;stroke-linecap:round;stroke-linejoin:round;stroke-miterlimit:1.5;"/></svg>