<?xml version="1.0" encoding="UTF-8" standalone="no"?><!DOCTYPE svg PUBLIC "-//W3C//DTD SVG 1.1//EN" "http://www.w3.org/Graphics/SVG/1.1/DTD/svg11.dtd"><svg width="100%" height="100%" viewBox="0 0 120 36" version="1.1" xmlns="http://www.w3.org/2000/svg" xmlns:xlink="http://www.w3.org/1999/xlink" xml:space="preserve" xmlns:serif="http://www.serif.com/" style="fill-rule:evenodd;clip-rule:evenodd;stroke-linejoin:round;stroke-miterlimit:2;"><g><path d="M14.512,8.316l1.985,0.038c0.116,0.993 0.233,1.986 0.349,2.978c-0.381,1.611 -0.523,1.553 -0.293,3.182c0.099,2.524 0.039,2.45 -0.082,4.989c-0.088,1.838 1.459,1.917 1.504,1.977c-0.393,0.525 -1.29,0.493 -1.684,1.017c-0.265,0.353 0.254,2.552 2.209,1.483c0.5,-0.273 0.532,-1.089 1.031,-1.362l0.536,-0.474c3.941,4.163 4.695,2.547 10.421,2.427c12.554,-0.263 12.561,-0.022 14.267,-0.581c0.619,0.056 1.239,0.113 1.858,0.169c3.066,0.536 3.058,0.268 18.881,0.099c1.28,0.046 11.608,0.42 16.009,0.311c4.54,0.33 4.496,0.497 8.998,-0.358c10.427,1.066 10.398,0.115 20.92,0.757c2.131,-0.448 2.682,-0.308 2.727,-2.48c0.206,-10.061 -0.409,-12.931 -0.645,-14.03c1.445,0.061 1.39,0.024 2.807,0.339c-0.027,1.254 0.34,1.234 0.049,15.679l0.321,1.353c-8.243,2.955 -22.889,-0.92 -34.153,0.863c-1.718,0.272 -32.313,-0.652 -43.046,0.31c-5.209,0.467 -15.408,-0.871 -20.064,0.088c-0.542,0.112 -0.512,0.011 -6.914,0.153c3.491,-3.96 1.61,-4.581 1.714,-10.758c0.069,-4.106 -0.544,-4.073 0.297,-8.172Z" style="fill:#0a0806;fill-opacity:0.99;"/><path d="M16.497,8.354c20.077,0.461 19.973,0.379 40.006,0.434c2.698,2.806 2.711,3.495 7.972,2.998c5.35,-0.505 5.556,-0.411 5.993,-0.213c1.913,0.867 1.94,0.437 4.018,-0.032l0.182,0.849c-0.576,1.124 -0.175,1.315 -1.119,2.185c-0.541,0.498 -0.54,0.411 -1.038,0.87c-0.236,-0.087 -2.843,-1.045 -2.962,-1.052c-0.713,-0.042 -3.525,2.762 3.967,5.01c-0.264,0.281 -0.873,-0.495 -1.138,-0.214c-0.133,0.142 0.031,0.172 0.438,2.393c0.308,0.17 -0.064,0.858 0.245,1.028c1.675,0.923 1.516,-0.257 1.482,-2.141c0.649,-0.385 1.299,-0.77 1.948,-1.155l1.007,0.176l1.004,-0.092c0.658,3.017 0.93,2.884 2.998,5.173c-4.401,0.11 -14.729,-0.264 -16.009,-0.311c0.064,-0.198 0.797,-2.481 0.797,-2.481c-0.199,-0.157 -0.216,0.124 -3.157,0.349c-3.738,0.286 -5.728,2.214 -5.628,-1.593c3.55,-0.167 3.373,-1.136 6.919,-0.944c3.006,0.163 2.673,-4.698 1.166,-3.793c-0.273,0.164 -0.35,2.351 -5.296,1.587c-0.253,-1.035 -0.345,-0.935 -0.493,-2.021c-0.391,-2.864 -1.695,-1.761 -2.247,-2.334c-1.624,-1.302 -1.604,-2.036 -5.11,-1.217c-2.56,-0.209 -2.519,-0.347 -5.055,0.273c-1.696,0.242 -1.691,0.308 -1.832,0.261c-3.964,-1.321 -3.991,-0.78 -13.11,-0.702c-1.543,0.248 -1.512,0.199 -2.95,0.859c-1.118,-0.923 -3.595,-2.568 -7.118,0.279c-0.928,-0.898 -0.828,-0.876 -0.928,-0.898c-1.146,-0.255 -1.383,1.303 -4.606,-0.553c-0.116,-0.993 -0.233,-1.986 -0.349,-2.978Z" style="fill:#635445;fill-opacity:1;"/><path d="M56.504,8.788c28.546,-0.067 28.494,0.288 56.998,-0.329c0.235,1.099 0.851,3.969 0.645,14.03c-0.044,2.173 -0.596,2.032 -2.727,2.48c0.92,-2.587 0.943,-5.936 0.946,-6.459l-0.156,-1.325c-0.166,-0.543 -0.333,-1.086 -0.499,-1.629c0.499,-3.07 1.675,-4.4 -0.156,-3.922c-0.431,0.112 -0.656,0.638 -1.072,0.795c-0.169,0.064 -0.178,-0.002 -1.992,-0.918c-0.146,-0.074 -0.151,-0.009 -2.043,-0.123c-4.551,-0.31 -4.557,0.768 -9.024,-0.094c-7.33,0.348 -7.388,1.662 -8.803,0.752c-0.279,-0.179 -1.905,-1.225 -4.12,-0.483c-1.98,0.664 -1.973,0.088 -4.006,-0.13c-1.578,-0.132 -1.508,-0.11 -3.059,-0.049c-0.498,0.127 -0.456,-0.124 -0.941,-0c-1.028,0.261 -0.961,0.075 -2.009,0.157c-2.079,0.469 -2.105,0.899 -4.018,0.032c-0.437,-0.198 -0.644,-0.292 -5.993,0.213c-5.261,0.496 -5.274,-0.193 -7.972,-2.998Z" style="fill:#776856;fill-opacity:1;"/><path d="M6.484,8.325c0.017,1.949 0.106,2.403 1.982,2.261c0.443,-0.034 3.831,1.585 3.835,2.93c0.009,2.596 0.034,2.579 -0.996,4.9l-2.089,1.496c-1.289,-0.333 -1.218,-0.368 -2.612,-0.331c-0.296,2.806 0.99,4.095 2.799,1.872c0.793,-0.657 1.586,-1.314 2.378,-1.971c0.366,3.113 0.609,3.633 -2.195,5.076c-0.306,0.157 -3.019,-0.76 -5.21,2.168c-2.816,-3.054 -3.382,-3.083 -2.882,-7.225c0.366,-3.028 -0.508,-2.958 -0.128,-6.06c3.01,-1.766 2.04,-2.45 1.531,-3.699c1.461,-1.459 1.596,-1.168 3.585,-1.416Z" style="fill:#251e18;fill-opacity:1;"/><path d="M16.846,11.333c3.223,1.856 3.46,0.298 4.606,0.553c0.101,0.022 0,0 0.928,0.898c1.121,0.37 2.717,2.51 2.909,2.767c0.15,2.721 0.994,2.26 2.982,4.014c0.553,2.385 1.054,2.574 1.275,2.657c0.241,0.091 0.507,-0.285 0.748,-0.194c0.986,0.21 0.84,0.755 2.202,0.468c0.514,-0.108 0.468,0.082 0.993,-0.028c3.516,-0.093 3.449,0.099 6.977,-0.033c2.412,-0.09 2.34,0.155 4.287,1.556c-1.706,0.558 -1.712,0.318 -14.267,0.581c-5.725,0.12 -6.48,1.736 -10.421,-2.427l0.284,-0.657c2.771,0.801 4.158,1.9 4.158,-0.988c0,-2.004 -1.551,-2.375 -2.068,-2.057c-0.406,0.25 -0.426,0.914 -0.832,1.164c-0.159,-0.101 -1.992,-1.258 -1.992,-1.258c-0.306,-0.117 -0.938,0.19 -0.974,-0.136c-0.036,-0.325 -0.115,-1.039 3.589,-1.954c0.093,-0.412 0.752,-0.532 0.845,-0.945c0.031,-0.139 -0.112,-0.059 -1.581,-0.833c-2.499,0.356 -2.472,0.801 -4.943,0.032c-0.231,-1.629 -0.088,-1.571 0.293,-3.182Z" style="fill:#4e3e31;"/><path d="M6.484,8.325c4.892,0.073 4.832,0.19 8.028,-0.009c-0.841,4.098 -0.228,4.066 -0.297,8.172c-0.104,6.177 1.777,6.798 -1.714,10.758c-4.091,-0.036 -4.068,0.365 -8.124,-0.521c2.191,-2.928 4.905,-2.01 5.21,-2.168c2.803,-1.442 2.561,-1.963 2.195,-5.076l-0.476,-1.066c1.03,-2.321 1.004,-2.305 0.996,-4.9c-0.004,-1.345 -3.392,-2.964 -3.835,-2.93c-1.876,0.142 -1.965,-0.312 -1.982,-2.261Z" style="fill:#5e4e3e;fill-opacity:1;"/><path d="M82.857,14.999c0.161,0.027 1.425,-1.304 2.898,0.491c0.043,0.052 0.288,0.351 0.278,0.798c-0.051,2.374 4.172,0.422 4.499,0.27c1.504,-0.3 1.424,-0.37 3.01,-0.125l0.983,0.256c1.783,0.361 1.747,0.077 3.129,-0.557l0.876,0.338c-0.567,2.219 -0.988,4.606 -1.059,5.009c-0.632,-0.021 -1.264,-0.042 -1.897,-0.063c-0.511,-0.987 -0.646,-0.816 -1.011,-1.953c-0.427,-1.331 -0.862,-0.47 -1.986,0.268c-1.342,-0.752 -2.027,-1.784 -2.232,-0.22c0,0 0.689,1.437 0.749,1.562c-0.845,0.132 -1.69,0.264 -2.536,0.395c-1.655,-2.352 -2.28,-2.024 -5.298,-0.251c-1.46,-0.06 -1.388,-0.169 -2.742,-0.737c0.103,-1.167 0.103,-1.145 1.008,-1.915c0.457,-0.246 0.477,0.009 0.921,-0.231c1.647,-0.887 0.462,-1.374 0.593,-1.766c-0.061,-0.523 -0.123,-1.046 -0.184,-1.569Z" style="fill:#6c5a49;fill-opacity:1;"/><path d="M45.567,20.548c1.169,0.034 1.183,0.031 1.838,0.934c1.232,1.698 1.998,0.756 2.325,-1.374c1.415,0.092 1.498,-0.31 2.669,0.552c0.337,0.248 0.33,0.076 2.109,-0.805c0.808,-0.4 0.761,-0.087 2.998,0.681c-0.1,3.807 1.89,1.879 5.628,1.593c2.941,-0.225 2.957,-0.507 3.157,-0.349c0,0 -0.734,2.282 -0.797,2.481c-15.822,0.168 -15.815,0.436 -18.881,-0.099c-1.232,-2.369 -1.282,-2.333 -1.331,-2.559c-0.077,-0.356 0.363,-0.698 0.286,-1.054Z" style="fill:#635343;"/><path d="M36.679,14.329c4.386,0.859 4.364,0.303 8.834,0.245c-0.026,0.455 -0.958,0.493 -0.984,0.948c-0.015,0.272 0.146,0.2 2.007,2.748l-0.998,0.084c-2.484,0.984 -4.522,2.47 -5.084,2.387c-2.65,-0.393 -2.711,-0.974 -6.363,0.354c-0.526,-0.203 -1.053,-0.407 -1.579,-0.61c-0.381,-0.985 -0.763,-1.97 -1.144,-2.955c0.331,-0.299 -0.31,-1.101 1.113,-1.007c1.468,0.097 1.958,1.179 3.049,1.562c2.162,0.758 1.103,-0.888 1.149,-3.756Z" style="fill:#5b4c3f;"/><path d="M80.496,11.434c2.033,0.218 2.025,0.794 4.006,0.13c2.214,-0.742 3.841,0.303 4.12,0.483c1.415,0.91 1.473,-0.404 8.803,-0.752c0.02,0.732 0.041,1.464 0.061,2.195l-0.607,0.496c-0.6,0.47 -1.201,0.94 -1.801,1.409c0.015,-0.133 0.183,-1.667 0.183,-1.667c-0.317,-1.34 -0.604,0.245 -1.91,0.774c-1.365,-0.801 -1.371,-0.957 -1.469,-0.862c-0.962,0.92 -0.892,0.908 -2.037,1.493l0.688,1.424c-0.327,0.151 -4.55,2.104 -4.499,-0.27c0.01,-0.447 -0.235,-0.746 -0.278,-0.798c-1.473,-1.794 -2.737,-0.463 -2.898,-0.491c-0.825,-0.166 -1.649,-0.332 -2.474,-0.498c-0.257,-0.585 -0.515,-1.17 -0.772,-1.755l0.886,-1.312Z" style="fill:#4f3f32;fill-opacity:1;"/><path d="M96.879,13.987l0.607,-0.496c1.063,-0.101 0.981,-0.229 2.015,-0.192c1.003,0.036 1.181,-0.349 1.658,0.478c0.712,1.234 0.937,1.02 2.355,0.767c0.336,-0.06 1.241,-0.222 4.147,0.992c-0.096,0.886 -1.143,0.069 -1.24,0.972c-0.021,0.199 0.154,0.09 2.157,1.262l-0.397,0.268c-5.078,2.521 -2.752,4.422 -2.709,4.518c-0.477,0.023 -5.704,0.28 -5.973,0.107c-0.568,-0.366 -0.765,-1.161 -1.333,-1.526c9.746,-0.006 0.783,-4.37 0.364,-4.667l-0.876,-0.338c-0.258,-0.715 -0.517,-1.43 -0.775,-2.145Z" style="fill:#362c24;"/><path d="M112.366,18.511c-0.004,0.522 -0.027,3.872 -0.946,6.459c-10.522,-0.641 -10.493,0.309 -20.92,-0.757c0.203,-0.191 -0.203,-0.645 0,-0.837c0,-0 2.727,-0.868 2.964,-0.943c0.703,-0.339 1.406,-0.678 2.109,-1.018c0.632,0.021 1.264,0.042 1.897,0.063l0.695,-0.342c0.568,0.366 0.765,1.161 1.333,1.526c0.268,0.173 5.495,-0.084 5.973,-0.107c3.241,-0.198 3.317,0.004 3.494,-0.213c0.204,-0.25 -0.551,-0.653 -0.347,-0.903c3.089,2.143 1.893,-1.663 2,-1.977c0.051,-0.151 0.127,-0.069 1.749,-0.952Z" style="fill:#695541;fill-opacity:1;"/><path d="M52.876,13.395c-1.082,2.162 -1.528,2.115 -0.856,4.425c0.558,1.919 0.849,-0.429 2.635,-1.331c0.513,0.246 2.764,3.013 5.64,0.896c4.946,0.764 5.023,-1.423 5.296,-1.587c1.507,-0.905 1.84,3.956 -1.166,3.793c-3.546,-0.192 -3.368,0.777 -6.919,0.944c-2.237,-0.767 -2.19,-1.081 -2.998,-0.681c-1.779,0.88 -1.772,1.053 -2.109,0.805c-1.171,-0.861 -1.254,-0.459 -2.669,-0.552c-0.741,-0.504 -1.482,-1.009 -2.223,-1.513c2.506,-3.17 1.309,-5.035 5.369,-5.2Z" style="fill:#5d4e40;"/><path d="M32.449,11.646c9.119,-0.078 9.146,-0.619 13.11,0.702c0.14,0.047 0.136,-0.019 1.832,-0.261c0.081,0.164 1.014,2.047 1.014,2.047c-0.213,0.187 -2.658,0.419 -2.891,0.441c-4.47,0.057 -4.448,0.613 -8.834,-0.245c-0.348,-0.061 -0.697,-0.122 -1.045,-0.183c-1.035,-0.205 -2.069,-0.41 -3.104,-0.614c-0.027,-0.629 -0.054,-1.257 -0.081,-1.886Z" style="fill:#44382f;fill-opacity:1;"/><path d="M79.61,12.746c0.257,0.585 0.515,1.17 0.772,1.755c-1.07,2.877 -1.608,2.942 -1.888,2.976c-1.432,0.174 -0.964,0.677 -0.994,2.013l-1.007,-0.176c-0.399,-0.148 -0.554,-0.702 -0.953,-0.851c0,0 -1.861,0.865 -2.023,0.94c-7.493,-2.248 -4.681,-5.053 -3.967,-5.01c0.119,0.007 2.726,0.966 2.962,1.052c2.289,1.198 2.405,0.976 4.766,-0.076c0.777,-0.875 1.555,-1.75 2.332,-2.625Z" style="fill:#645345;"/><path d="M78.504,19.398c0.671,0.36 1.342,0.721 2.014,1.081c1.354,0.568 1.282,0.677 2.742,0.737c0.57,0.214 0.658,1.137 1.228,1.351c0.63,0.237 1.341,-0.145 2.013,-0.133c1.168,0.02 0.942,-0.443 2.056,-0.967c0.845,-0.132 1.69,-0.264 2.536,-0.395l0.292,-0.67c0.719,0.425 1.012,0.028 2.079,2.032c-0.237,0.075 -2.964,0.943 -2.964,0.943c-0.203,0.191 0.203,0.645 0,0.837c-4.502,0.854 -4.458,0.688 -8.998,0.358c-2.068,-2.289 -2.34,-2.155 -2.998,-5.173Z" style="fill:#554536;"/><path d="M45.538,18.355c0.01,0.731 0.019,1.462 0.029,2.193c0.077,0.356 -0.363,0.698 -0.286,1.054c0.049,0.226 0.099,0.19 1.331,2.559c-0.619,-0.056 -1.239,-0.113 -1.858,-0.169c-1.947,-1.401 -1.876,-1.647 -4.287,-1.556c-3.527,0.132 -3.46,-0.06 -6.977,0.033l0.601,-1.373c3.652,-1.328 3.713,-0.747 6.363,-0.354c0.563,0.083 2.601,-1.403 5.084,-2.387Z" style="fill:#43372d;"/><path d="M32.53,13.531c1.035,0.205 2.069,0.41 3.104,0.614l1.045,0.183c-0.046,2.868 1.012,4.515 -1.149,3.756c-1.092,-0.383 -1.581,-1.465 -3.049,-1.562c-1.423,-0.094 -0.782,0.708 -1.113,1.007l-0.994,0.494c-1.739,0.282 -1.702,0.244 -2.177,0.397c0.103,-1.045 -0.212,-1.043 0.194,-1.977c0.436,-1.005 0.566,-0.823 1.162,-1.69c0.355,-0.035 0.709,-0.07 1.064,-0.104c1.173,-0.844 1.162,-0.844 1.267,-0.912c0.314,-0.202 0.345,-0.012 0.647,-0.206Z" style="fill:#615143;"/><path d="M16.553,14.515c2.471,0.768 2.444,0.324 4.943,-0.032c0.629,1.089 0.59,0.996 0.629,1.089c0.14,0.332 -0.042,0.334 0.108,0.688c-3.704,0.915 -3.625,1.629 -3.589,1.954c0.036,0.326 0.668,0.019 0.974,0.136c0,0 1.833,1.157 1.992,1.258c-0.419,0.627 -0.839,1.254 -1.258,1.882c-0.876,-0.926 -0.774,-0.92 -0.876,-0.926c-1.337,-0.077 -1.33,0.909 -1.43,0.977l-0.07,-0.058c-0.046,-0.06 -1.592,-0.139 -1.504,-1.977c0.122,-2.539 0.182,-2.465 0.082,-4.989Z" style="fill:#473629;"/><path d="M97.424,11.295c4.467,0.862 4.473,-0.216 9.024,0.094c0.201,0.485 0.169,0.461 1.211,4.146c-2.906,-1.214 -3.811,-1.052 -4.147,-0.992c-1.418,0.254 -1.643,0.467 -2.355,-0.767c-0.477,-0.827 -0.655,-0.442 -1.658,-0.478c-1.034,-0.037 -0.952,0.091 -2.015,0.192c-0.02,-0.732 -0.041,-1.464 -0.061,-2.195Z" style="fill:#4f4237;fill-opacity:1;"/><path d="M52.445,11.814l0.252,0.326l0.18,1.255c-4.06,0.166 -2.863,2.031 -5.369,5.2l-0.971,-0.324c-1.861,-2.548 -2.022,-2.476 -2.007,-2.748c0.026,-0.455 0.958,-0.493 0.984,-0.948c0.233,-0.022 2.678,-0.254 2.891,-0.441c0,0 -0.933,-1.883 -1.014,-2.047c2.535,-0.62 2.494,-0.482 5.055,-0.273Z" style="fill:#635243;"/><path d="M106.448,11.389c1.892,0.114 1.897,0.049 2.043,0.123c1.814,0.916 1.822,0.982 1.992,0.918c0.416,-0.157 0.642,-0.683 1.072,-0.795c1.831,-0.478 0.655,0.852 0.156,3.922c-0.275,0.224 -0.788,-0.164 -1.063,0.06c-0,0 -1.054,1.743 -1.146,1.895l-0.927,0.258c-2.003,-1.172 -2.178,-1.063 -2.157,-1.262c0.098,-0.904 1.145,-0.086 1.24,-0.972c-1.043,-3.685 -1.01,-3.661 -1.211,-4.146Z" style="fill:#2a221b;"/><path d="M57.554,13.03c0.552,0.574 1.856,-0.53 2.247,2.334c0.148,1.086 0.241,0.986 0.493,2.021c-2.875,2.116 -5.126,-0.651 -5.64,-0.896c-0.034,-0.647 -0.067,-1.293 -0.101,-1.94c1.461,-0.931 1.344,-0.965 3,-1.519Z" style="fill:#493d33;fill-opacity:1;"/><path d="M80.382,14.501c0.825,0.166 1.649,0.332 2.474,0.498c0.061,0.523 0.123,1.046 0.184,1.569c-1.564,1.779 -1.369,1.858 -1.515,1.996c-0.905,0.77 -0.905,0.748 -1.008,1.915c-0.671,-0.36 -1.342,-0.721 -2.014,-1.081l-1.004,0.092c0.029,-1.336 -0.439,-1.84 0.994,-2.013c0.28,-0.034 0.819,-0.099 1.888,-2.976Z" style="fill:#5d4b3c;"/><path d="M98.529,16.47c0.419,0.296 9.382,4.661 -0.364,4.667l-0.695,0.342c0.071,-0.403 0.492,-2.79 1.059,-5.009Z" style="fill:#544437;"/><path d="M27.867,14.229c0.562,0.175 1.123,0.35 1.685,0.524c-0.596,0.867 -0.725,0.685 -1.162,1.69c-0.406,0.934 -0.092,0.933 -0.194,1.977l0.075,1.144c-1.988,-1.754 -2.832,-1.293 -2.982,-4.014c0.351,-0.584 0.013,-1.427 0.364,-2.011c0.096,-0.159 0.156,0.049 2.214,0.689Z" style="fill:#504033;"/><path d="M22.381,12.784c3.524,-2.847 6,-1.202 7.118,-0.279c-1.881,0.929 -1.981,0.826 -2.027,1.001c-0.128,0.48 0.523,0.248 0.395,0.723c-2.058,-0.64 -2.119,-0.848 -2.214,-0.689c-0.351,0.584 -0.013,1.427 -0.364,2.011c-0.192,-0.257 -1.788,-2.398 -2.909,-2.767Z" style="fill:#49382b;fill-opacity:1;"/><path d="M6.943,17.173c-2.765,-5.041 2.567,-4.638 2.755,-2.614c0.213,2.303 -0.599,1.969 -2.755,2.614Z" style="fill:#76624e;fill-opacity:1;"/><path d="M108.18,18.038c0.387,3.179 0.419,3.128 0.438,3.401c-0.204,0.25 0.551,0.653 0.347,0.903c-0.177,0.217 -0.253,0.015 -3.494,0.213c-0.043,-0.095 -2.37,-1.996 2.709,-4.518Z" style="fill:#47382c;"/><path d="M108.576,17.77l0.927,-0.258c0.903,-0.109 1.805,-0.218 2.708,-0.326l0.156,1.325c-1.622,0.883 -1.698,0.801 -1.749,0.952c-0.107,0.313 1.089,4.12 -2,1.977c-0.018,-0.274 -0.051,-0.222 -0.438,-3.401l0.397,-0.268Z" style="fill:#715d49;"/><path d="M21.61,19.607c0.406,-0.25 0.426,-0.914 0.832,-1.164c0.517,-0.318 2.068,0.053 2.068,2.057c-0,2.888 -1.387,1.789 -4.158,0.988c0.419,-0.627 0.839,-1.254 1.258,-1.882Z" style="fill:#271f19;"/><path d="M83.26,21.216c3.017,-1.773 3.643,-2.101 5.298,0.251c-1.114,0.524 -0.888,0.987 -2.056,0.967c-0.673,-0.012 -1.384,0.37 -2.013,0.133c-0.57,-0.214 -0.658,-1.137 -1.228,-1.351Z" style="fill:#413429;"/><path d="M45.538,18.355l0.998,-0.084l0.971,0.324c0.741,0.504 1.482,1.009 2.223,1.513c-0.327,2.129 -1.093,3.072 -2.325,1.374c-0.655,-0.903 -0.669,-0.9 -1.838,-0.934c-0.01,-0.731 -0.019,-1.462 -0.029,-2.193Z" style="fill:#44382e;"/><path d="M52.697,12.14c0.619,0.803 1.238,1.607 1.858,2.41c0.034,0.647 0.067,1.293 0.101,1.94c-1.786,0.902 -2.077,3.249 -2.635,1.331c-0.672,-2.31 -0.226,-2.263 0.856,-4.425l-0.18,-1.255Z" style="fill:#615143;"/><path d="M32.449,11.646c0.027,0.629 0.054,1.257 0.081,1.886c-0.303,0.195 -0.333,0.004 -0.647,0.206c-0.105,0.068 -0.094,0.068 -1.267,0.912l-1.064,0.104c-0.562,-0.175 -1.123,-0.35 -1.685,-0.524c0.127,-0.476 -0.524,-0.243 -0.395,-0.723c0.047,-0.175 0.146,-0.072 2.027,-1.001c1.438,-0.661 1.406,-0.612 2.95,-0.859Z" style="fill:#282019;fill-opacity:1;"/><path d="M52.445,11.814c3.506,-0.819 3.486,-0.085 5.11,1.217c-1.656,0.555 -1.539,0.588 -3,1.519c-0.619,-0.803 -1.238,-1.607 -1.858,-2.41l-0.252,-0.326Z" style="fill:#675748;"/><path d="M74.487,11.542c1.048,-0.082 0.981,0.104 2.009,-0.157c0.485,-0.123 0.442,0.127 0.941,0c0.363,0.532 -0.598,0.493 -0.27,0.974c0.111,0.163 0.177,0.028 2.442,0.387c-0.777,0.875 -1.555,1.75 -2.332,2.625c-1.509,-1.347 -1.148,-1.6 -2.609,-2.979l-0.182,-0.849Z" style="fill:#5e4e41;"/><path d="M6.605,19.58c1.394,-0.037 1.324,-0.002 2.612,0.331c0.062,0.514 0.124,1.027 0.186,1.541c-1.809,2.222 -3.094,0.934 -2.799,-1.872Z" style="fill:#79644e;"/><path d="M74.67,12.391c1.46,1.379 1.099,1.632 2.609,2.979c-2.361,1.051 -2.477,1.273 -4.766,0.076c0.498,-0.459 0.497,-0.372 1.038,-0.87c0.944,-0.87 0.544,-1.061 1.119,-2.185Z" style="fill:#493d33;"/><path d="M28.196,18.421c0.475,-0.153 0.439,-0.114 2.177,-0.397c0.251,1.592 0.107,1.55 0.718,3.103l-0.797,0.901c-0.241,-0.091 -0.507,0.285 -0.748,0.194c-0.221,-0.083 -0.722,-0.272 -1.275,-2.657l-0.075,-1.144Z" style="fill:#725e49;"/><path d="M92.576,19.731c1.124,-0.738 1.559,-1.599 1.986,-0.268c0.365,1.137 0.5,0.966 1.011,1.953c-0.703,0.339 -1.406,0.678 -2.109,1.018c-1.067,-2.004 -1.36,-1.607 -2.079,-2.032l1.192,-0.671Z" style="fill:#524337;"/><path d="M93.35,14.503c0.064,0.643 0.128,1.286 0.191,1.929c-1.586,-0.245 -1.506,-0.175 -3.01,0.125l-0.688,-1.424c1.144,-0.585 1.075,-0.573 2.037,-1.493c0.098,-0.094 0.104,0.061 1.469,0.862Z" style="fill:#534438;"/><path d="M73.518,19.404c0.342,0.355 0.685,0.71 1.027,1.066c0.034,1.884 0.193,3.064 -1.482,2.141c-0.308,-0.17 0.064,-0.858 -0.245,-1.028c-0.407,-2.221 -0.572,-2.251 -0.438,-2.393c0.264,-0.281 0.873,0.495 1.138,0.214Z" style="fill:#34281f;"/><path d="M17.975,21.482l0.07,0.058c0.495,0.36 0.991,0.72 1.486,1.08c-0.5,0.273 -0.532,1.089 -1.031,1.362c-1.954,1.069 -2.474,-1.129 -2.209,-1.483c0.393,-0.525 1.29,-0.493 1.684,-1.017Z" style="fill:#392c22;"/><path d="M32.512,20.485c0.526,0.203 1.053,0.407 1.579,0.61l-0.601,1.373c-0.525,0.111 -0.479,-0.08 -0.993,0.028c-1.362,0.287 -1.217,-0.259 -2.202,-0.468l0.797,-0.901c0.473,-0.214 0.947,-0.428 1.42,-0.642Z" style="fill:#443428;"/><path d="M96.879,13.987c0.258,0.715 0.517,1.43 0.775,2.145c-1.382,0.634 -1.347,0.918 -3.129,0.557c0.184,-0.431 0.369,-0.862 0.553,-1.292c0.6,-0.47 1.201,-0.94 1.801,-1.409Z" style="fill:#504339;"/><path d="M93.35,14.503c1.307,-0.53 1.593,-2.114 1.91,-0.774c0,0 -0.168,1.534 -0.183,1.667c-0.184,0.431 -0.369,0.862 -0.553,1.292l-0.983,-0.256c-0.064,-0.643 -0.128,-1.286 -0.191,-1.929Z" style="fill:#443930;"/><path d="M31.367,17.53c0.381,0.985 0.763,1.97 1.144,2.955c-0.473,0.214 -0.947,0.428 -1.42,0.642c-0.612,-1.553 -0.467,-1.511 -0.718,-3.103l0.994,-0.494Z" style="fill:#514133;"/><path d="M68.581,20.61c1.843,-0.124 1.864,-0.234 1.987,-0.133c0.44,0.362 -0.143,0.584 0.329,0.972c-1.271,0.961 -1.404,1.055 -2.77,0.209l0.455,-1.048Z" style="fill:#322923;"/><path d="M77.437,11.385c1.551,-0.06 1.48,-0.083 3.059,0.049l-0.886,1.312c-2.266,-0.359 -2.331,-0.224 -2.442,-0.387c-0.328,-0.481 0.632,-0.442 0.27,-0.974Z" style="fill:#524438;"/><path d="M18.045,21.54c0.1,-0.068 0.093,-1.054 1.43,-0.977c0.102,0.006 0,0 0.876,0.926l-0.284,0.657l-0.536,0.474c-0.495,-0.36 -0.991,-0.72 -1.486,-1.08Z" style="fill:#a1886b;"/><path d="M73.518,19.404c0.162,-0.075 2.023,-0.94 2.023,-0.94c0.399,0.148 0.554,0.702 0.953,0.851c-0.649,0.385 -1.299,0.77 -1.948,1.155c-0.342,-0.355 -0.685,-0.71 -1.027,-1.066Z" style="fill:#604f41;"/><path d="M92.576,19.731l-1.192,0.671l-0.292,0.67c-0.06,-0.125 -0.749,-1.562 -0.749,-1.562c0.205,-1.564 0.89,-0.532 2.232,0.22Z" style="fill:#534438;"/><path d="M111.711,15.557c0.166,0.543 0.333,1.086 0.499,1.629c-0.903,0.109 -1.805,0.218 -2.708,0.326c0.092,-0.152 1.146,-1.895 1.146,-1.895c0.275,-0.224 0.788,0.164 1.063,-0.06Z" style="fill:#45372b;"/><path d="M11.306,18.415l0.476,1.066c-0.793,0.657 -1.586,1.314 -2.378,1.971c-0.062,-0.514 -0.124,-1.027 -0.186,-1.541l2.089,-1.496Z" style="fill:#47392d;"/><path d="M104.764,16.532c-0.251,0.164 -0.109,0.661 -0.36,0.825c-0.315,0.205 -1.474,-0.412 -1.489,-0.88c-0.039,-1.2 0.601,0.018 1.85,0.055Z" style="fill:#483d34;fill-opacity:1;"/><path d="M83.04,16.567c-0.132,0.392 1.053,0.879 -0.593,1.766c-0.444,0.239 -0.464,-0.016 -0.921,0.231c0.145,-0.138 -0.049,-0.217 1.515,-1.996Z" style="fill:#635141;"/><path d="M21.496,14.483c1.47,0.774 1.613,0.693 1.581,0.833c-0.093,0.412 -0.752,0.532 -0.845,0.945c-0.15,-0.355 0.032,-0.356 -0.108,-0.688c-0.039,-0.093 -0,-0 -0.629,-1.089Z" style="fill:#48372b;"/></g></svg>