<?xml version="1.0" encoding="UTF-8" standalone="no"?><!DOCTYPE svg PUBLIC "-//W3C//DTD SVG 1.1//EN" "http://www.w3.org/Graphics/SVG/1.1/DTD/svg11.dtd"><svg width="100%" height="100%" viewBox="0 0 360 36" version="1.1" xmlns="http://www.w3.org/2000/svg" xmlns:xlink="http://www.w3.org/1999/xlink" xml:space="preserve" xmlns:serif="http://www.serif.com/" style="fill-rule:evenodd;clip-rule:evenodd;stroke-linejoin:round;stroke-miterlimit:2;"><g><path d="M176.5,3.14l1.996,0.07l0.959,0.838c-1.881,3.868 -1.03,4.089 -0.699,4.08c2.666,-0.07 2.534,-0.237 4.845,-1.487l0.906,-0.177c1.453,1.106 1.401,1.019 2.713,2.287c1.418,1.371 8.178,1.235 2.283,-5.512l1.001,-0.032c2.513,1.378 2.489,1.197 3.819,2.322c0.528,8.318 5.215,4.795 6.389,6.821c0.786,1.357 0.654,1.299 1.623,2.376c0.188,0.205 -0.037,0.309 2.048,2.814c0.105,0.975 0.21,1.951 0.315,2.926c-3.791,4.236 -4.595,4.368 -5.132,4.456c-4.569,0.749 -4.579,2.858 -5.112,3.522c-0.866,1.843 -0.983,1.731 -0.866,1.843c1.221,1.172 60.543,-0.175 65.807,-0.295c1.679,0.067 3.357,0.134 5.036,0.201l1.043,0.037c7.843,-0.013 9.85,5.127 13.959,-1.699c1.164,-3.121 0.496,-3.09 -0.172,-6.289c1.656,-0.831 8.28,-5.558 1.024,-4.188c-9.714,1.835 -9.938,-2.488 -27.842,1.005c-6.127,-0.509 -5.83,-2.51 -11.997,-1.956c-8.135,0.731 -20.01,-2.896 -10.951,-7.58c0.367,0.329 0.734,0.659 1.101,0.988c-2.09,6.691 10.911,4.931 10.877,2.991c-0.049,-2.799 0.861,-3.06 -0.968,-5.098c-0.795,-0.066 -1.59,-0.132 -2.385,-0.198c-1.573,-4.768 6.605,0.643 7.989,-3.008c0.44,0.185 0.308,1.037 0.748,1.222c3.359,1.412 53.92,0.023 58.607,-0.106c11.091,0.018 11.786,0.696 17.372,-0.37l1.781,0.494c3.2,1.93 3.4,1.686 6.869,0.029l1.008,0.044c3.607,0.188 3.617,0.061 3.895,0.203c0.201,0.102 3.32,3.152 -1.822,2.146c-7.601,-1.487 -7.783,3.231 -15.048,0.604c-0.218,-0.079 -11.766,-1.967 -2.024,2.066c-0.509,0.451 -1.018,0.902 -1.528,1.353l-1.557,0.748c0.944,1.543 0.904,1.411 2.267,2.519c0.633,0.462 1.266,0.923 1.899,1.385c0.053,0.612 0.107,1.223 0.16,1.835c0.482,1.339 0.457,1.284 1.697,1.722c1.33,-0.18 2.66,-0.359 3.99,-0.539c6.806,0.398 5.17,-2.453 4.802,-2.695c-0.178,-0.117 -1.018,-0.668 -2.499,0.927c-0.413,-1.096 -0.827,-2.192 -1.24,-3.288c6.571,-0.869 6.497,-0.232 13.97,-0.303c-0.151,0.837 -0.301,1.673 -0.452,2.51c-1.984,-0.11 -2.105,-0.521 -3.445,0.834c0.035,4.674 0.05,4.667 0.016,4.893c-1.009,0.383 -2.018,0.766 -3.028,1.149c0.626,0.274 0.352,-0.727 0.964,-0.459c0.129,0.056 0.781,0.342 1.11,1.366c1.103,3.436 -11.94,2.504 -12.742,3.878c-1.3,2.226 1.109,0.958 10.634,0.626c2.054,-0.071 1.958,-0.169 3.97,-0.342l1.889,-0.298c0.717,0.379 0.405,1.779 1.122,2.158c3.348,1.773 4.935,-1.637 5.122,-2.037c0.347,0.268 0.585,-0.304 4.9,2.451c-21.067,3.123 -21.2,-0.844 -37.059,1.272c-5.037,0.672 -4.954,0.414 -9.971,0.834c-27.47,-0.743 -31.254,1.517 -43.032,-1.142c-2.127,-0.48 -149.603,-0.686 -172.995,-0.081c-3.557,-0.222 -3.448,-0.11 -6.96,0.576c-8.107,-0.903 -11.157,0.427 -12.042,0.813c-1.608,-0.207 -1.485,-0.117 -2.962,0.203c-2.064,-0.243 -5.252,-0.617 -25.975,0.533c-0.235,-0.228 -6.601,-6.391 -4.096,-0.012c-4.93,-1.166 -4.868,-0.819 -9.914,-0.934c-1.489,-0.779 -1.48,-0.789 -3.004,-0.085c-3.085,-0.131 -3.586,0.673 -5.26,-1.914c2.474,-0.06 2.397,-0.363 3.646,-2.562c6.799,3.53 12.686,-0.043 13.618,-0.609c0.575,-0.176 1.15,-0.351 1.725,-0.527l0.996,-0.956c0.646,-0.749 1.293,-1.499 1.939,-2.248c-0.095,-0.523 -0.19,-1.045 -0.285,-1.568c-0.128,-2.296 -0.33,-2.171 -1.507,-4.237c1.194,-1.358 0.469,-1.482 0.141,-2.882c-0.098,-0.418 -0.296,-1.264 3.701,-3.889c0.309,5.365 -0.766,7.439 0.036,10.07c1.91,6.272 -1.493,6.457 -3.293,7.272c-3.805,1.723 5.927,0.636 6.441,0.579c0.882,0.435 6.397,3.157 12.204,1.507c0.651,-0.185 0.249,-1.636 0.9,-1.821c0.998,0.005 1.996,0.014 2.994,0.019c30.957,0.158 30.896,0.163 30.977,0.163l1.01,0.043c2.41,0.012 16.065,0.486 22.086,-0.638c1.204,0.407 1.937,0.654 15.878,0.542c9.001,0.068 31.632,0.457 34.377,-0.376c4.705,-5.244 -2.157,-3.544 -7.335,-8.205c-0.145,-0.131 -0.16,0.069 -2.244,0.971c-0.395,-0.704 -0.79,-1.407 -1.185,-2.111l-0.761,-1.153l0.283,-0.779c1.01,-1.004 2.02,-2.009 3.03,-3.013c3.309,-0.715 2.94,-1.331 5.935,-3.001c0.193,-0.277 0.415,-0.062 2.863,-3.107c0.361,1.385 2.647,2.956 3.8,3.911c-1.29,0.679 -3.184,2.606 -4.474,3.285c-1.387,0.846 -1.719,1.173 -1.072,1.971c1.355,1.671 2.8,1.067 3.033,1.306c1.659,1.7 -1.138,2.974 7.447,4.429c6.668,0.091 6.918,0.8 13.548,0.473c0.724,-0.156 6.479,-2.839 7.272,-6.444c0.331,-1.508 3.358,-1.463 -1.562,-3.293c-7.552,-2.809 -6.165,-1.213 -5.866,-0.743c0.177,0.279 17.771,1.181 4.039,7.454c0.337,-3.658 -0.467,-4.256 -4.047,-3.717c-6.873,-1.55 -7.744,1.441 -11.068,-0.302c-1.199,-0.628 -1.134,-0.048 -2.477,0.691c-1.855,0.187 -3.474,-0.524 -2.351,1.013c0.308,0.421 0.991,0.452 1.299,0.874c0.565,0.353 1.129,0.706 1.694,1.059l-0.079,1.425c-0.724,-0.166 -16.772,-3.849 -4.799,-7.943c0.284,-0.056 7.615,-1.505 2.718,-2.394c-0.101,-0.018 -2.734,0.283 -3.778,0.202l-0.008,-1.243c2.341,-0.87 2.311,-0.825 2.738,-1.066c2.381,-0.393 2.512,-0.47 3.419,-2.797c1.428,-2.288 0.953,-2.498 2.657,-4.489Z" style="fill:#1c1611;fill-opacity:0.98;"/><path d="M46.5,2.978c5.005,0.157 13.804,0.115 15.004,0.109c0.159,0.104 1.991,1.3 1.991,1.3c1.916,-0.001 1.538,-0.667 3.003,-1.303c3.384,1.157 5.51,1.284 6,1.313c0,0 1.839,-1.194 1.999,-1.298l2.008,-0.008c6.849,3.694 7.681,-0.635 11.995,1.367c2.761,1.281 4.502,-1.055 5,-1.284l2.996,0.032c2.044,0.539 1.936,0.613 4.005,0.087c2.49,1.066 2.487,0.724 4.993,-0.023l2.008,0.03c2.072,0.837 2.031,0.777 3.998,0.048l1.002,-0.002c8.516,1.143 8.453,0.851 17,-0.056c17.606,-0.056 17.483,0.369 34.995,-0.296c0.103,0.823 0.206,1.646 0.31,2.469c-5.787,1.845 -5.572,2.208 -11.326,4.069c-0.719,-0.297 -1.439,-0.594 -2.158,-0.892c2.069,-2.027 2.239,-1.935 2.23,-2.185c-0.092,-2.666 -1.142,0.031 -3.319,1.422c-6.979,-5.052 -9.243,2.485 -12.609,-0.492c-2.924,-2.586 -3.285,-0.686 -7.054,0.278c-3.343,-1.661 -3.382,-0.974 -7.082,-1.085c-25.088,-0.335 -25.892,-0.195 -28.107,0.193c-1.819,-0.234 -1.688,-0.298 -1.819,-0.234c-0.93,0.455 -0.695,2.599 -5.747,0.756c-0.491,-0.135 -0.982,-0.271 -1.474,-0.406c-2.401,-0.04 -2.272,-0.088 -4.789,0.002l-1.832,-0.482c-2.144,0.063 -2.036,0.106 -4.192,0.123c-1.952,0.016 2.54,3.955 -2.019,4.917c-1.821,0.3 -1.98,0.55 -2.969,-0.943c0.131,-0.223 1.637,-2.786 1.637,-2.786c0.75,-2.081 -0.857,-1.061 -3.346,-1.432c-6.082,0.559 -5.776,2.391 -11.886,1.967c-1.864,-1.271 -1.767,-1.884 -3.842,-1.227l-3.03,-0.345c-1.166,-2.685 -0.679,-3.583 -3.573,-3.701Z" style="fill:#83705a;fill-opacity:1;"/><path d="M270.5,3.28c7.177,2.843 7.303,1.453 14.999,0.097l1.002,0.011c2.988,0.384 2.907,0.434 5.999,0.114c3.333,0 6.667,0.001 10,0.001c1.5,0.383 1.428,0.4 3,0.025c16.032,-0.298 15.936,-0.163 32.007,-0.17c0.996,2.039 1.208,1.867 1.583,4.177c0.559,3.445 4.928,-0.231 6.074,1.948c1.557,2.96 -2.13,5.121 -2.54,5.361c-1.396,-1.038 -7.369,-5.476 -21.671,-1.816c-1.152,-0.497 -2.304,-0.994 -3.456,-1.491c-9.742,-4.033 1.806,-2.145 2.024,-2.066c7.265,2.627 7.447,-2.091 15.048,-0.604c5.142,1.006 2.022,-2.044 1.822,-2.146c-0.278,-0.142 -0.289,-0.015 -3.895,-0.203c-0.336,-0.015 -0.672,-0.029 -1.008,-0.044c-3.47,1.657 -3.67,1.901 -6.869,-0.029c-0.594,-0.165 -1.188,-0.33 -1.781,-0.494c-5.586,1.066 -6.28,0.388 -17.372,0.37c-4.687,0.129 -55.247,1.518 -58.607,0.106c-0.44,-0.185 -0.308,-1.037 -0.748,-1.222c11.821,-4.14 14.231,1.975 24.388,-1.923Z" style="fill:#9c8a71;fill-opacity:1;"/><path d="M17.482,2.948l2.985,0.156c0.075,1.881 0.15,3.761 0.225,5.642l-0.837,0.129c-0.187,0.18 -0.374,0.359 -0.562,0.539l0.81,1.216c0.058,0.305 -0.483,4.46 5.256,3.084c9.012,0.706 5.43,-3.807 4.98,-4.054c-0,-0 -3.657,-0.729 -3.975,-0.793l0.168,-1.351c1.775,-1.918 2.148,-1.445 4.088,-0.188c2.472,1.602 5.427,-0.944 5.786,-1.253c0.278,0.375 1.871,2.523 3.803,4.419c0.005,0.674 0.01,1.348 0.014,2.022c-3.997,2.625 -3.799,3.471 -3.701,3.889c0.328,1.4 1.053,1.524 -0.141,2.882c1.177,2.066 1.379,1.941 1.507,4.237c0.095,0.523 0.19,1.045 0.285,1.568c-0.646,0.749 -1.293,1.499 -1.939,2.248c-0.573,-0.228 -1.146,-0.456 -1.719,-0.683c1.427,-4.348 0.695,-4.785 -1.993,-5.914c-0.154,-0.269 -0.151,-0.145 -2.073,-3.269l0.066,-0.939c-1.648,0.057 -3.296,0.114 -4.943,0.17c-0.978,0.013 -0.864,-0.02 -4.078,-0.321c-0.362,0.016 -0.723,0.031 -1.085,0.047c-0.074,1.298 -0.147,2.596 -0.221,3.894c-0.126,0.424 -0.252,0.848 -0.378,1.273c-7.344,2.413 -0.696,4.248 0.051,5.895c0.267,0.589 -0.233,1.35 0.033,1.938c-1.249,2.199 -1.172,2.501 -3.646,2.562c-0.287,-0.069 -0.201,0.265 -0.556,0.179c-0.104,-0.025 0,0 -1.239,-0.497c-0.971,-2.805 -0.377,-3.539 -2.212,-3.753c-2.127,-0.248 -3.099,-0.851 -1.506,-2.17c1.973,-1.633 0.757,-1.974 0.368,-3.037c0.49,-0.686 0.98,-1.372 1.471,-2.057c4.35,-4.352 -2.16,-3.837 -3.105,-4.022c0.335,-0.742 0.671,-1.485 1.006,-2.227c1.232,-0.806 1.169,-0.705 2.144,-1.884c0.013,-0.684 0.027,-1.368 0.04,-2.052c2.27,-6.199 2.856,-7.196 4.823,-7.525Z" style="fill:#1d1713;fill-opacity:1;"/><path d="M310.59,20.711c0.969,-0.07 1.939,-0.139 2.908,-0.209c3.534,0.94 3.907,0.435 4.452,1.884c3.18,8.45 -8.25,7.607 -13.47,9.595c-0.503,-0.448 -0.478,-1.319 -0.981,-1.767c-0.287,-0.255 -2.434,0.998 -4.675,0.663l-0.211,1.104l-1.128,0.304c-3.884,-1.813 -4.583,-1.348 -10.091,-2.51c-0.59,-0.246 -1.229,-0.36 -1.818,-0.606c-6.059,-2.527 3.984,-15.334 5.867,-12.641c1.263,1.806 -0.195,1.578 -1.893,3.016c-1.1,0.932 -1.261,0.063 11.869,0.096c2.225,0.006 6.218,1.071 9.171,1.07Z" style="fill:#957a59;fill-opacity:1;"/><path d="M205.499,6.522l0.984,0.135c0.876,0.36 1.126,1.656 2.002,2.016c1.446,0.593 1.544,-0.909 2.814,-0.036c0.675,0.464 8.659,5.954 10.069,-1.884c1.026,-0.153 2.052,-0.306 3.079,-0.459c0.406,0.675 0.813,1.35 1.219,2.026c0.615,-0.345 1.229,-0.69 1.844,-1.034c0.233,-0.055 11.861,-1.651 1.986,2.241c-9.059,4.683 2.816,8.311 10.951,7.58c6.167,-0.554 5.87,1.447 11.997,1.956c2.606,2.222 2.82,1.592 6.143,1.587c-0.345,0.16 -0.007,0.412 -0.418,0.602c-0.789,0.365 -0.356,0.641 -0.758,1.365c-1.968,0.511 -1.958,1.282 -4.027,0.096c-1.783,-0.93 -1.674,-1.048 -1.783,-0.93c0,0 0.149,1.806 0.162,1.963c-8.52,3.464 -11.313,2.154 -12.206,1.735l-1.249,-0.883l0.547,-0.967c4.364,0.159 5.294,1.733 7.533,-1.952c-0.153,-0.364 0.627,-3.54 -6.009,-1.134l-0.66,-0.311c-0.436,-0.015 -0.873,-0.031 -1.309,-0.046c-0.951,0.452 -1.902,0.903 -2.853,1.355c-0.028,-1.81 -0.189,-2.068 -2.048,-1.996c-4.905,0.188 -4.307,-1.666 -9.194,-3.258c-1.13,-2.763 -1.769,-3.427 -2,-3.669c-1.267,-1.319 -1.393,-0.688 -3.286,-0.557c-0.922,0.283 -1.844,0.565 -2.766,0.848c-0.935,0.11 -0.807,-0.295 -1.75,-0.184c-0.404,0.048 -0.371,0.067 -5.003,0.902l0.047,-1.182c-1.179,-1.643 -1.355,-1.224 -3.114,-1.907c-0.305,-0.688 -0.61,-1.375 -0.914,-2.063c-0.01,-0.651 -0.02,-1.303 -0.03,-1.954Z" style="fill:#685645;fill-opacity:1;"/><path d="M190.506,3.209c1.998,0.021 3.995,0.043 5.993,0.064c5.357,2.314 15.667,0.257 17.001,-0.009c4.686,0.024 32.375,-0.17 57,0.017c-10.157,3.898 -12.567,-2.217 -24.388,1.923c-1.384,3.65 -9.562,-1.76 -7.989,3.008c-2.923,-0.398 -3.669,-1.052 -4.648,1.729l-1.921,0.621l-0.956,-0.046c-0.367,-0.329 -0.734,-0.659 -1.101,-0.988c9.875,-3.893 -1.753,-2.297 -1.986,-2.241c-1.021,-0.33 -2.042,-0.661 -3.063,-0.991c-1.026,0.153 -2.052,0.306 -3.079,0.459c-4.2,-0.346 -4.464,3.334 -7.662,0.605c-0.442,-0.377 -1.05,-0.896 -7.223,-0.701l-0.984,-0.135c-9.327,0.129 -10.456,-0.712 -11.174,-0.992c-1.33,-1.124 -1.306,-0.943 -3.819,-2.322Z" style="fill:#786755;fill-opacity:1;"/><path d="M49.451,12.502l1.256,-1.002c4.553,4.91 5.112,4.077 11.754,5.098c1.291,2.46 0.187,2.487 -2.108,4.008l-0.398,-0.47c-2.888,-1.818 -3.578,-2.346 -6.11,0.833c-1.492,1.366 -1.669,1.346 -1.253,3.253c-0.197,0.247 -0.729,-0.447 -0.926,-0.2c-2.567,3.223 5.31,5.363 10.875,4.609c4.893,-0.663 27.635,0.406 13.159,-2.907c-0.554,-0.259 -1.108,-0.519 -1.663,-0.778c-0.101,-0.191 -0.125,-0.133 -1.515,-2.235c0.299,0.093 0.234,-0.343 3.88,0.551l3.546,0.809l0.606,0.382c0.097,0.464 -1.063,0.58 -0.966,1.044c0.046,0.223 0.434,-0.085 1.53,2.394c1.052,2.38 3.656,-2.421 9.366,2.414c-0.081,0 -0.02,-0.005 -30.977,-0.163c-0.998,-0.005 -1.996,-0.014 -2.994,-0.019c-5.359,-0.782 -7.549,-0.493 -7.277,-8.683c0.036,-1.076 0.014,-0.925 0.03,-1.937c2.273,-1.404 2.357,-1.409 2.726,-4.149c-1.889,-0.991 -2.052,-0.865 -2.541,-2.853Z" style="fill:#574636;fill-opacity:1;"/><path d="M337.507,3.358c4.001,-0.291 3.892,-0.094 7.964,0.309c-0.724,5.575 2.559,5.617 3.009,5.907c0.969,3.025 0.697,3.02 0.111,6.065l-1.295,0.493c-3.485,1.913 -2.268,4.029 -1.982,6.449l-0.132,0.785c-0.271,1.972 -0.316,1.867 -0.116,3.877c-0.456,1.147 -0.319,1.081 -0.447,2.238c-0.186,0.4 -1.774,3.81 -5.122,2.037c-0.717,-0.379 -0.405,-1.779 -1.122,-2.158c0.458,-0.813 2.214,-3.93 0.631,-11.649c0.151,-0.837 0.301,-1.673 0.452,-2.51c1.055,-0.119 2.11,-0.238 3.165,-0.357c0.409,-0.24 4.097,-2.401 2.54,-5.361c-1.146,-2.179 -5.516,1.497 -6.074,-1.948c-0.374,-2.31 -0.587,-2.138 -1.583,-4.177Z" style="fill:#060504;fill-opacity:1;"/><path d="M20.468,3.104c16.464,0.314 16.414,0.617 23.073,0.122l-0.181,1.385c-0.005,12.941 0.465,12.829 0.049,25.826c-0.514,0.057 -10.246,1.144 -6.441,-0.579c1.8,-0.815 5.203,-1 3.293,-7.272c-0.801,-2.631 0.274,-4.706 -0.036,-10.07c-0.005,-0.674 -0.01,-1.348 -0.014,-2.022c0.024,-0.159 0.299,-1.993 0.299,-1.993c1.336,-3.227 -0.726,-2.89 -4.102,-2.426c-0.359,0.309 -3.314,2.855 -5.786,1.253c-1.94,-1.257 -2.313,-1.73 -4.088,0.188c-0.373,-0.089 -0.766,-0.07 -1.138,-0.16c-0.151,-0.036 -2.518,-1.496 -2.895,-1.087c-0.581,0.631 -0.305,1.786 -0.886,2.417l-0.921,0.059c-0.075,-1.881 -0.15,-3.761 -0.225,-5.642Z" style="fill:#927c64;fill-opacity:1;"/><path d="M215.601,27.084l0.848,0.068c0.159,0.127 1.987,1.591 1.987,1.591c1.153,0.023 1.073,-0.088 4.377,-0.84l0.862,0.02c4.434,0.253 4.361,0.715 8.716,-0.357c1.567,1.981 1.951,1.275 4.257,0.371c12.376,1.346 12.228,-1.006 18.872,-0.619c2.026,0.426 1.987,0.772 3.995,0.102c-0.04,0.858 -0.079,1.716 -0.119,2.574c-5.263,0.12 -64.586,1.467 -65.807,0.295c-0.118,-0.113 0,0 0.866,-1.843c1.678,-0.033 3.355,-0.066 5.033,-0.098c1.685,-0.022 3.37,-0.045 5.055,-0.067c3.687,0.136 3.643,-1.062 7.275,-0.15c2.247,0.564 2.486,0.498 2.696,0.44c1.007,-0.278 0.049,-1.199 1.088,-1.486Z" style="fill:#967d5f;fill-opacity:1;"/><path d="M253.386,22.712c2.068,1.186 2.059,0.414 4.027,-0.096c0.394,0.091 0.356,0.185 4.883,1.299c0.441,0.829 0.881,1.658 1.322,2.487c3.427,0.961 3.412,0.304 5.709,-0.006c1.391,-1.114 1.319,-1.155 3.098,-1.45c1.218,1.653 1.483,1.384 3.44,0.601l-0.623,-2.314c0.453,-0.206 0.905,-0.412 1.358,-0.617c1.455,-0.136 1.314,-0.254 2.664,-0.37c0.668,3.199 1.335,3.168 0.172,6.289c-6.997,-0.369 -9.361,-1.685 -13.959,1.699l-1.043,-0.037c-0.73,-2.968 -2.813,-2.017 -3.947,-2.652c-2.284,-3.206 -4.461,-0.34 -4.965,-0.225c-6.644,-0.387 -6.496,1.965 -18.872,0.619c1.584,-1.118 1.549,-0.924 2.911,-2.458c0.893,0.419 3.686,1.729 12.206,-1.735c0.54,-0.344 1.08,-0.689 1.621,-1.033Z" style="fill:#3b2f24;fill-opacity:1;"/><path d="M43.359,4.611c8.44,3.275 -1.806,12.576 5.557,13.845l0.348,1.048c-0.016,1.012 0.006,0.86 -0.03,1.937c-0.272,8.19 1.918,7.901 7.277,8.683c-0.651,0.185 -0.249,1.636 -0.9,1.821c-5.807,1.649 -11.322,-1.072 -12.204,-1.507c0.416,-12.997 -0.053,-12.885 -0.049,-25.826Z" style="fill:#040303;fill-opacity:1;"/><path d="M68.506,21.573c0.572,0.074 1.143,0.148 1.715,0.222c0.767,0.305 1.534,0.61 2.301,0.916c1.39,2.101 1.414,2.044 1.515,2.235l-0.322,0.548c0.661,0.077 1.323,0.154 1.984,0.231c14.476,3.313 -8.266,2.244 -13.159,2.907c-5.565,0.754 -13.442,-1.387 -10.875,-4.609c0.197,-0.247 0.729,0.447 0.926,0.2c0.876,0.079 2.553,0.878 2.755,0.279c0.405,-1.205 0.654,-0.896 1.356,-1.858c0.281,0.727 0.561,1.454 0.842,2.181c-0.84,1.299 -1.723,1.962 -0.163,2.042c2.487,0.129 2.391,0.163 4.84,-0.574c2.341,-1.39 2.252,-1.461 3.284,-1.78c3.225,-0.405 3.113,-1.062 3.001,-2.939Z" style="fill:#292019;fill-opacity:1;"/><path d="M282.75,9.512c-3.489,3.737 -5.293,-0.377 -9.353,2.869c-0.514,0.411 -2.376,0.498 -2.942,0.216c-2.348,-1.17 -2.275,-1.221 -4.943,-1.055c-4.032,-0.603 -3.897,-0.411 -7.877,-0.396c-2.771,-0.174 -2.976,-0.229 -4.511,2.033c-0.811,-0.04 -1.621,-0.08 -2.432,-0.12c-1.634,-0.931 -1.306,-1.337 -3.239,-1.664l-2.279,0.277l-0.144,-1.125c4.299,-4.816 5.702,-0.246 29.513,-1.804c0.644,-0.042 7.76,-0.508 8.061,-0.274c0.277,0.216 -0.131,0.828 0.146,1.043Z" style="fill:#9b8569;fill-opacity:1;"/><path d="M20.19,20.325c9.6,0.853 9.674,0.972 11.063,2.172c0.618,1.49 0.618,1.415 0.633,3.066c-0.15,0.076 -1.64,-1.371 -1.99,1c-0.06,0.407 0.24,0.317 0.188,0.667l-0.49,0.305c-2.126,0.555 -2.058,0.674 -4.317,0.45c-3.051,-0.303 -3.305,-0.728 -5.38,1.446c-0.267,-0.589 0.233,-1.35 -0.033,-1.938c-0.747,-1.647 -7.394,-3.482 -0.051,-5.895c0.126,-0.424 0.252,-0.848 0.378,-1.273Z" style="fill:#56473a;fill-opacity:1;"/><path d="M306.128,8.539c0.1,2.512 2.765,9.159 -5.619,7.708c-4.952,-0.857 -5.999,-0.698 -6.552,-5.743c1.282,-3.921 5.021,-2.808 12.171,-1.965Z" style="fill:#9a8265;fill-opacity:1;"/><path d="M252.446,19.062c17.904,-3.494 18.128,0.829 27.842,-1.005c7.256,-1.37 0.632,3.357 -1.024,4.188c-1.35,0.116 -1.208,0.234 -2.664,0.37c-0.2,-0.289 0.58,-0.694 0.38,-0.983c-1.057,-1.527 -5.123,-0.423 -5.552,-0.307c-1.825,-1.273 -1.93,-1.177 -3.794,-0.046c-2.661,-1.206 -7.133,0.316 -9.045,-0.63c-3.322,0.005 -3.537,0.635 -6.143,-1.587Z" style="fill:#4e4034;"/><path d="M81.553,6.889c2.517,-0.09 2.388,-0.042 4.789,-0.002l1.474,0.406c5.052,1.843 4.816,-0.301 5.747,-0.756c0.132,-0.064 -0,-0 1.819,0.234c0.014,0.057 0.649,0.667 0.455,1.808c-0.194,1.143 0.446,0.83 0.941,1.751c2.026,0.864 4.825,3.456 4.348,-0.591c0.645,-0.124 0.603,-2.245 3.267,-0.129c2.498,0.898 2.426,0.924 4.4,2.717c0.583,0.179 1.166,0.358 1.749,0.538l-0.98,0.696c-6.979,0.129 -6.995,1.045 -9.022,0.145l-2.002,0.208c-0.852,-0.403 -0.724,-0.355 -4.204,-2.184l-0.617,-1.422c-1.209,-0.456 -1.131,-0.338 -2.386,-0.033c-3.387,-0.114 -3.189,-0.873 -6.608,-1.03c-0.408,-0.029 -0.816,-0.057 -1.225,-0.086c-1.396,1.943 -1.335,1.826 -1.391,1.984l-0.714,0.643c-1.61,-2.201 -1.049,-2.403 0.16,-4.896Z" style="fill:#463a30;fill-opacity:1;"/><path d="M167.455,13.634l1.694,-0.538c1.249,0.368 1.154,0.536 1.258,1.832c-10.872,4.094 3.7,7.777 4.357,7.943c7.981,0.121 7.893,0.267 11.704,-0.003c0.078,0.662 0.157,1.324 0.235,1.986c-6.02,0.327 -5.928,0.301 -11.983,0.21c-8.892,-1.659 -8.635,-2.412 -10.767,-4.691c-0.214,-2.408 -0.324,-2.33 -0.012,-4.704c1.171,-0.679 2.343,-1.357 3.514,-2.036Z" style="fill:#be9b6f;fill-opacity:1;"/><path d="M6.413,9.082c-2.137,4.792 -2.036,6.223 3.057,7.555c0.944,0.185 7.455,-0.329 3.105,4.022c-0.735,-0.221 -1.375,-0.702 -2.11,-0.924c-1.516,-0.456 -1.119,0.433 -2.058,2.724c-0.039,1.551 -0.079,1.467 -0.078,3.073c0.001,1.46 1.76,1.752 0.359,2.384c-0.293,0.132 -0.27,-0.107 -3.735,-1.479c0.355,-1.459 0.392,-1.337 0.408,-2.923l-0.055,-2.118c0.18,-1.718 0.333,-1.728 -0.684,-2.998l-0.833,-0.189c-0.716,-2.665 -0.742,-2.582 -0.795,-2.81c-1.036,-2.385 -1.345,-2.248 -1.081,-4.79c2.059,-1.509 2.005,-1.822 4.499,-1.527Z" style="fill:#57493c;fill-opacity:0.96;"/><path d="M91.52,22.533c2.724,0.765 2.596,0.679 5.129,1.692c-0.219,2.031 0.023,1.952 -0.209,3.96c-2.688,0.659 -2.509,0.87 -4.946,2.164l-1.01,-0.043c-5.71,-4.835 -8.313,-0.035 -9.366,-2.414c-1.096,-2.478 -1.484,-2.171 -1.53,-2.394c-0.097,-0.464 1.063,-0.58 0.966,-1.044l0.941,0.392l0.968,0.354c0.381,0.187 0.762,0.374 1.143,0.561l1.863,-1.089c0.49,0.278 0.98,0.556 1.47,0.834c-0.155,-0.657 -0.31,-1.313 -0.465,-1.97c4.63,-1.257 4.664,-0.848 5.046,-1.003Z" style="fill:#292019;fill-opacity:1;"/><path d="M95.382,6.771c2.215,-0.387 3.019,-0.528 28.107,-0.193c0.105,1.649 0.486,1.969 -1.058,2.589c-2.684,-0.171 -2.823,-1.142 -5.065,0.286l-0.541,1.123c-0.193,-0.111 -2.418,-1.39 -2.418,-1.39c-1.223,0.12 -1.07,0.33 -3.097,1.768l-1.828,-0.403c-2.899,-2.241 -2.806,-3.053 -4.156,-2.317c-0.487,0.266 -0.448,1.111 -0.935,1.377c-2.664,-2.116 -2.622,0.005 -3.267,0.129c-1.449,0.197 -2.899,0.394 -4.348,0.591c-0.495,-0.921 -1.135,-0.608 -0.941,-1.751c0.194,-1.142 -0.441,-1.752 -0.455,-1.808Z" style="fill:#59493c;fill-opacity:1;"/><path d="M54.175,10.047c2.504,4.146 3.507,2.671 8.344,3.377c0.33,0.033 0.66,0.065 0.99,0.098c1.025,-0.91 0.898,-0.889 1.211,-2.334c0.896,0.015 1.792,0.031 2.688,0.046c1.221,0.108 1.063,-0.057 3.133,-0.73c0.989,1.494 1.148,1.243 2.969,0.943l0.651,1.262c-0.17,0.279 -1.168,1.917 -1.84,3.643c-0.603,-1.168 -0.744,-1.002 -2.072,-0.974c-0.051,-0.112 -2.018,-3.601 -4.405,0.227c-1.128,0.331 -2.256,0.662 -3.384,0.994c-6.641,-1.021 -7.201,-0.188 -11.754,-5.098c1.651,-0.944 1.475,-1.084 3.468,-1.453Z" style="fill:#514237;fill-opacity:1;"/><path d="M147.98,10.769l0.403,-0.282c2.22,2.352 3.666,1.279 5.275,-0.015c3.853,2.263 4.158,0.51 6.842,1.136c0.468,0.109 0.59,0.87 1.058,0.979c-2.995,1.67 -2.626,2.286 -5.935,3.001c-2.074,-1.366 -3.802,-1.812 -12.111,0.709c-1.336,0.175 -2.672,0.35 -4.008,0.525c-0.055,-0.266 -0.432,-2.091 -1.084,-3.219c2.08,-1.232 3.691,-1.198 4.027,-1.19c0.478,0.262 -0.069,1.365 2.043,1.122c1.644,-0.189 1.28,-0.721 2.043,-1.151c0.482,-0.538 0.964,-1.076 1.446,-1.614Z" style="fill:#675748;fill-opacity:1;"/><path d="M133.221,27.824c0.424,0.072 5.301,0.896 5.301,0.896c0.614,-0.1 0.401,-1.467 1.016,-1.567l1.743,-0.057c0.614,0.143 0.581,1.323 1.195,1.466c0.118,0.027 5.106,-0.589 7.966,-0.386l2.172,-0.024c1.641,0.08 3.282,0.16 4.922,0.239c1.065,0.051 0.983,-0.057 1.963,-0.01c2.415,0.115 2.142,0.739 4.336,1.495c-2.745,0.833 -25.377,0.444 -34.377,0.376c-0.114,-0.527 -0.228,-1.054 -0.342,-1.581l1.458,-0.435c0.882,-0.137 1.765,-0.275 2.647,-0.412Z" style="fill:#927b60;fill-opacity:1;"/><path d="M130.571,7.664c3.769,-0.964 4.13,-2.864 7.054,-0.278c3.367,2.977 5.63,-4.56 12.609,0.492l1.089,0.762c0.719,0.297 1.439,0.594 2.158,0.892l0.175,0.94c-1.609,1.294 -3.055,2.366 -5.275,0.015c-1.155,-2.497 -1.688,-2.432 -4.077,-1.297c-4.222,2.006 -4.854,0.151 -8.738,2.683c-1.644,-3.037 -2.578,-1.805 -5.435,-3.809l0.439,-0.4Z" style="fill:#3f3125;fill-opacity:1;"/><path d="M123.489,6.578c3.7,0.112 3.739,-0.576 7.082,1.085l-0.439,0.4l-0.965,1.659c-2.72,-0.421 -3.847,-0.977 -3.884,1.836c-0.049,3.679 -3.177,2.156 -3.8,5.893c-0.564,0.413 -1.128,0.825 -1.692,1.238l-0.358,0.768c-0.592,-0.413 -1.184,-0.826 -1.776,-1.239c1.521,-1.426 3.65,-0.476 2.415,-2.265c0,0 -4.201,-1.15 -4.566,-1.25c-0.46,-1.941 -0.67,-1.721 -2.036,-3.111c1.715,-0.395 1.594,-0.304 3.355,-1.016l0.541,-1.123c0.191,0.467 2.732,6.692 6.005,1.913c0.744,-1.086 0.081,-0.987 -0.94,-2.2c1.544,-0.62 1.163,-0.94 1.058,-2.589Z" style="fill:#56473b;fill-opacity:1;"/><path d="M189.569,21.828c2.646,-1.599 1.763,-2.849 1.943,-3.828c0.524,-2.864 -5.309,-3.534 -5.409,-3.742c-0.226,-0.47 -0.061,-3.469 5.648,-0.66c12.61,6.204 -4.339,11.036 -5.116,11.257c-0.065,-0.662 -0.131,-1.324 -0.196,-1.986c1.043,-0.347 2.087,-0.694 3.13,-1.04Z" style="fill:#b4946a;fill-opacity:1;"/><path d="M320.954,13.027c14.302,-3.66 20.274,0.778 21.671,1.816c-1.055,0.119 -2.11,0.238 -3.165,0.357c-7.473,0.07 -7.399,-0.567 -13.97,0.303c-0.647,-0.378 -0.368,-0.577 -1.022,-0.96c-0.159,-0.093 -0.153,0.075 -2.066,1.006c-0.483,-0.841 -0.966,-1.681 -1.448,-2.522Z" style="fill:#554434;fill-opacity:1;"/><path d="M181.502,3.254l8.003,-0.013c5.895,6.747 -0.865,6.882 -2.283,5.512c-1.312,-1.268 -1.26,-1.181 -2.713,-2.287c-0.302,0.059 -0.604,0.118 -0.906,0.177c-2.311,1.249 -2.179,1.416 -4.845,1.487c-0.331,0.009 -1.182,-0.212 0.699,-4.08c0.682,-0.265 1.364,-0.529 2.046,-0.794Z" style="fill:#89745a;fill-opacity:1;"/><path d="M140.538,19.73c1.147,1.689 1.05,3.82 3.106,1.728c0.459,-0.467 0.535,-0.235 3.878,0.023c1.791,-0.767 2.577,-1.99 2.912,0.006c0.402,2.392 0.576,2.534 -1.098,4.353c-4.358,-0.795 -4.787,-1.743 -8.055,1.256l-1.743,0.057c-3.022,-0.183 -2.337,-1.119 -2.604,-1.574c0.259,-0.053 14.359,-3.753 1.503,-2.941c-1.852,0.117 -1.29,-0.797 -1.954,-1.207c1.823,-1.381 1.847,-1.18 4.055,-1.702Z" style="fill:#7a654f;fill-opacity:1;"/><path d="M194.325,5.53c0.719,0.28 1.848,1.121 11.174,0.992c0.01,0.651 0.02,1.303 0.03,1.954c-0.196,-0.028 -6.148,-0.892 -1.753,1.749c0.543,0.326 1.592,2.257 1.707,2.468c-1.782,0.882 -1.634,0.847 -3.147,2.034c-0.969,-1.077 -0.836,-1.019 -1.623,-2.376c-1.174,-2.027 -5.861,1.496 -6.389,-6.821Z" style="fill:#655242;fill-opacity:1;"/><path d="M46.5,2.978c2.894,0.118 2.407,1.016 3.573,3.701c-0.128,0.596 -0.255,1.192 -0.383,1.788c-0.08,1.345 -0.16,2.69 -0.24,4.035c0.488,1.988 0.651,1.862 2.541,2.853c-1.025,1.034 -2.05,2.067 -3.075,3.101c-7.363,-1.27 2.883,-10.57 -5.557,-13.845l0.181,-1.385c0.987,-0.083 1.973,-0.165 2.96,-0.248Z" style="fill:#090706;fill-opacity:1;"/><path d="M8.406,22.459c1.38,-0.021 1.309,-0.173 2.698,0.257c0.39,1.062 1.605,1.404 -0.368,3.037c-1.593,1.318 -0.621,1.922 1.506,2.17c1.836,0.214 1.241,0.947 2.212,3.753c-7.712,-0.248 -10.059,-1.003 -10.895,-1.271c-0.794,-2.126 0.235,-1.893 1.393,-3.967c3.464,1.372 3.442,1.611 3.735,1.479c1.401,-0.631 -0.358,-0.924 -0.359,-2.384c-0.002,-1.606 0.039,-1.522 0.078,-3.073Z" style="fill:#625244;fill-opacity:0.99;"/><path d="M238.123,8.211c0.795,0.066 1.59,0.132 2.385,0.198c1.829,2.038 0.919,2.299 0.968,5.098c0.034,1.939 -12.967,3.699 -10.877,-2.991l0.956,0.046c0.816,0.408 1.123,1.524 1.94,1.931c0.325,0.162 0.63,-0.383 0.983,-0.473c0.486,-0.123 3.288,0.315 3.543,0.149c3.75,-2.446 -4.14,-2.24 -4.545,-2.229c0.979,-2.78 1.724,-2.127 4.648,-1.729Z" style="fill:#544435;fill-opacity:1;"/><path d="M209.6,16.076l0.961,0.16c-0.157,1.759 0.659,2.649 -1.101,2.481c-0.67,-0.064 -1.349,-0.89 -1.939,-0.567c-0.255,0.14 -1.221,4.496 4.028,1.311c0.667,0.709 1.333,1.419 2,2.128c-1.922,1.185 -1.933,0.616 -4.051,0.847c-3.282,2.11 -1.752,3.49 -4.955,5.842c-1.685,0.022 -3.37,0.045 -5.055,0.067c0.317,-0.334 2.226,-2.35 5.026,-2.808c1.352,-0.222 0.28,-4.676 0.185,-5.071c-0.105,-0.975 -0.21,-1.951 -0.315,-2.926c2.554,-0.999 2.434,-1.164 5.215,-1.465Z" style="fill:#5d4b3c;fill-opacity:1;"/><path d="M356.292,24.586c-0.726,3.326 -0.669,3.56 -0.596,3.864c0.641,2.655 -5.614,3.414 -6.177,3.482c-4.315,-2.755 -4.553,-2.183 -4.9,-2.451c0.128,-1.157 -0.009,-1.091 0.447,-2.238c2.925,0.579 3.064,0.958 5.491,-0.89c0.644,-0.286 1.287,-0.573 1.931,-0.859c1.477,-1.633 1.691,-1.154 3.805,-0.908Z" style="fill:#705e4c;fill-opacity:0.95;"/><path d="M245.174,11.672l2.279,-0.277c-0.074,2.04 -0.651,2.447 0.485,2.755c0,0 2.533,-1.004 2.754,-1.091c0.811,0.04 1.621,0.08 2.432,0.12c1.839,0.536 3.833,2.982 4.511,-2.033c3.98,-0.014 3.844,-0.206 7.877,0.396c-2.141,1.576 -1.802,1.737 -1.991,1.845c-0.239,0.02 -0.19,-0.022 -3.002,0.072c-1.517,0.815 -1.371,0.883 -2.09,2.346c-13.163,0.043 -13.788,-0.139 -13.595,-1.214c0.264,-1.467 0.162,-1.397 0.339,-2.919Z" style="fill:#624e3a;fill-opacity:1;"/><path d="M238.413,20.186l1.309,0.046l0.66,0.311c2.783,1.435 2.846,0.84 6.009,1.134c-2.239,3.684 -3.169,2.11 -7.533,1.952c-0.182,0.322 -0.365,0.645 -0.547,0.967l1.249,0.883c-1.362,1.533 -1.327,1.34 -2.911,2.458c-2.305,0.904 -2.69,1.61 -4.257,-0.371c0.373,-1.014 0.747,-2.028 1.12,-3.043l0.984,-1.052l1.064,-1.93c0.951,-0.452 1.902,-0.903 2.853,-1.355Z" style="fill:#473a31;"/><path d="M152.593,18.601l-0.283,0.779c0.254,0.384 0.508,0.769 0.761,1.153c0.395,0.704 0.79,1.407 1.185,2.111l0.294,0.838c-1.505,2.109 -1.344,2.105 -1.936,4.671l-2.172,0.024c-0.369,-0.779 -0.737,-1.558 -1.106,-2.336c1.674,-1.818 1.501,-1.961 1.098,-4.353c-0.336,-1.996 -1.122,-0.773 -2.912,-0.006c-3.343,-0.258 -3.419,-0.491 -3.878,-0.023c-2.056,2.092 -1.959,-0.038 -3.106,-1.728c0.239,0.002 0.13,-0.064 2.988,-0.127c2.311,-0.189 2.983,0.936 3.87,-1.258c0.156,-0.386 0.61,-1.509 5.197,0.256Z" style="fill:#615041;fill-opacity:1;"/><path d="M354.454,6.57c1.719,1.453 0.442,2.301 2.181,3.753c1.118,4.272 -1.363,5.192 1.971,8.176c-0.521,1.574 0.278,2.105 -1.378,2.628c0,0 -1.732,1.147 -1.883,1.246c-0.996,-0.292 -1.381,0.963 -3.187,-0.934c-0.364,-0.383 -0.055,-0.423 -0.322,-0.704l-0.01,-0.959l0.218,-0.984c3.018,2.591 1.519,-0.92 1.621,-1.083c0.555,-0.884 0.455,-0.847 0.973,-1.812c0.043,-2.686 0.086,-2.825 -2.019,-4.44c2.853,-3.927 1.655,-4.354 1.834,-4.886Z" style="fill:#84715d;fill-opacity:0.91;"/><path d="M139.504,16.821c1.336,-0.175 2.672,-0.35 4.008,-0.525c0.189,1.757 0.168,1.641 0.015,3.307c-2.858,0.062 -2.749,0.128 -2.988,0.127c-2.209,0.522 -2.233,0.321 -4.055,1.702c-0.251,0.118 -0.23,0.128 -2.977,2.088l-0.956,0.114c-1.49,-0.578 -1.432,-0.261 -3.029,-0.913c-1.257,-1.239 -1.238,-1.099 -1.723,-1.862c2.301,-1.231 2.631,-0.433 4.664,-2.211c2.411,0.574 2.758,0.965 4.116,-1.122c0.131,-0.202 0.391,-0.601 2.925,-0.704Z" style="fill:#8d7761;fill-opacity:1;"/><path d="M219.031,12.062c1.894,-0.131 2.02,-0.763 3.286,0.557c0.232,0.241 0.87,0.906 2,3.669c-1.128,0.464 -0.998,0.437 -1.84,1.207c-3.624,2.245 -2.004,3.794 -2.016,4.066l-0.877,-0.161c-0.698,-0.21 -1.397,-0.419 -2.095,-0.629c-2.158,-1.453 -2.542,-1.23 -3.941,0.82c-0.667,-0.709 -1.333,-1.419 -2,-2.128c2.552,-2.169 2.154,-3.134 4.877,-2.882c1.921,0.178 2.011,0.372 3.349,-1.033c0.377,-1.879 0.004,-1.786 -0.743,-3.485Z" style="fill:#7a6756;fill-opacity:1;"/><path d="M103.583,16.716c4.666,-0.512 4.769,-0.836 8.97,1.318c1.371,-0.268 2.742,-0.536 4.113,-0.804c0.33,0.329 0.661,0.659 0.991,0.988c0.592,0.413 1.184,0.826 1.776,1.239c-0.219,0.721 -0.439,1.442 -0.658,2.163c-1.426,1.31 -1.389,1.328 -1.527,1.42l-0.916,0.349c-0.888,-2.043 -0.963,-1.968 -2.867,-2.954c-4.092,-0.1 -4.107,0.771 -7.962,-0.832c-1.24,-1.308 -1.516,-1.029 -1.919,-2.887Z" style="fill:#504338;fill-opacity:1;"/><path d="M305.318,22.283c-0.221,1.593 -2.359,2.224 -2.403,2.473c-0.052,0.288 1.733,1.495 1.599,2.743c-0.173,1.618 -6.072,0.918 -6.6,0.855c-0.252,-1.258 1.303,-2.644 0.869,-3.462c-0.34,-0.641 -2.77,-0.985 -2.449,-2.337c0.709,-2.984 9.19,-1.756 8.985,-0.273Z" style="fill:#110c08;fill-opacity:1;"/><path d="M223.562,19.342l0.907,0.235c0.063,0.691 0.125,1.382 0.188,2.074l-0.391,0.465c-2.618,1.941 -2.519,2.03 -2.755,2.183c-1.872,-0.694 -1.849,-0.749 -2.022,-0.75c-0.373,-0.001 -0.029,1.045 -0.402,1.044c-2.618,0.505 -2.968,-0.197 -4.694,1.964c-0.03,-0.025 0.199,-1.95 -1.884,-1.595c-0.31,0.053 -1.349,0.23 -3.011,-2.525c2.117,-0.232 2.128,0.338 4.051,-0.847c1.399,-2.05 1.783,-2.273 3.941,-0.82c-0.464,4.84 2.004,0.778 2.095,0.629l0.877,0.161c2.786,-1.931 2.795,-1.889 3.1,-2.219Z" style="fill:#675545;fill-opacity:1;"/><path d="M186.537,18.111c2.938,5.895 -3.101,1.571 -12.905,3.336c-0.565,-0.353 -1.129,-0.706 -1.694,-1.059c0.351,-0.629 0.702,-1.258 1.053,-1.887c1.343,-0.739 1.278,-1.319 2.477,-0.691c3.324,1.742 4.195,-1.249 11.068,0.302Z" style="fill:#4f3d2e;fill-opacity:1;"/><path d="M108.492,27.832c1.619,-0.093 3.239,-0.186 4.858,-0.279c0.076,0.719 0.153,1.438 0.229,2.158c-6.02,1.124 -19.675,0.65 -22.086,0.638c2.437,-1.294 2.258,-1.505 4.946,-2.164c3.561,0.198 3.42,0.359 6.919,0.218c0.413,0.012 0.349,-0.089 5.133,-0.57Z" style="fill:#79634b;fill-opacity:1;"/><path d="M116.332,23.389l0.916,-0.349c1.198,1.593 1.084,1.482 1.198,1.593c0.479,0.464 0.613,0.101 1.118,0.59c-0.682,0.437 -1.365,0.873 -2.047,1.31c-2.305,-0.011 -2.237,-0.028 -4.167,1.019c-1.619,0.093 -3.239,0.186 -4.858,0.279c-4.784,0.481 -4.72,0.582 -5.133,0.57c0.12,-0.758 0.239,-1.517 0.359,-2.275c1.488,-0.099 1.136,-0.533 1.751,-1.94l1.026,0.036c4.153,0.798 4.249,2.108 8.002,0.251l1.836,-1.085Z" style="fill:#47392e;"/><path d="M282.75,9.512c0.594,1.608 1.126,1.812 -0.274,2.837c-1.409,1.032 -0.43,1.366 -0.752,2.391c-3.138,-4.188 -4.089,-0.362 -9.215,-0.146c-4.17,0.175 -3.959,-0.895 -8.987,-1.208c0.188,-0.108 -0.151,-0.268 1.991,-1.845c2.668,-0.166 2.595,-0.115 4.943,1.055c0.566,0.282 2.429,0.195 2.942,-0.216c4.06,-3.245 5.864,0.868 9.353,-2.869Z" style="fill:#271e16;fill-opacity:1;"/><path d="M132.55,23.633l0.956,-0.114c2.18,0.115 2.111,0.274 3.427,2.06c0.268,0.455 -0.418,1.391 2.604,1.574c-0.614,0.1 -0.401,1.467 -1.016,1.567c0,0 -4.877,-0.824 -5.301,-0.896c-1.346,0.106 -1.241,0.036 -2.647,0.412l-1.458,0.435c-3.462,-1.223 -3.482,-0.603 -6.485,-0.745l1.055,-2.1l1.634,-0.052c4.126,0.269 4.58,0.939 7.23,-2.142Z" style="fill:#2e241d;"/><path d="M317.498,11.536c1.152,0.497 2.304,0.994 3.456,1.491c0.483,0.841 0.966,1.681 1.448,2.522c3.28,2.584 3.184,2.627 4.328,3.242c1.48,-1.595 2.32,-1.044 2.499,-0.927c0.368,0.242 2.004,3.092 -4.802,2.695c-3.723,-2.906 -3.594,-3.757 -5.847,-3.018c-0.633,-0.462 -1.266,-0.923 -1.899,-1.385c0.194,-0.17 2.638,-0.586 -0.71,-3.267c0.509,-0.451 1.018,-0.902 1.528,-1.353Z" style="fill:#251e17;fill-opacity:1;"/><path d="M164.808,5.464c-0.129,1.339 -0.258,2.677 -0.388,4.016c-2.448,3.045 -2.67,2.83 -2.863,3.107c-0.468,-0.109 -0.59,-0.87 -1.058,-0.979c-2.684,-0.625 -2.989,1.127 -6.842,-1.136l-0.175,-0.94c5.754,-1.86 5.538,-2.224 11.326,-4.069Z" style="fill:#765d46;fill-opacity:1;"/><path d="M260.52,13.458c2.812,-0.094 2.763,-0.052 3.002,-0.072c5.028,0.313 4.817,1.383 8.987,1.208c5.127,-0.216 6.078,-4.041 9.215,0.146l-0.239,0.685c-2.225,0.138 -2.129,0.978 -19.945,0.357c-0.34,-0.775 -0.681,-1.549 -1.021,-2.324Z" style="fill:#766046;fill-opacity:1;"/><path d="M129.168,9.722c0.334,1.911 -2.738,1.232 -1.586,2.735c1.105,1.442 1.298,1.054 3.034,1.159c0.106,1.569 0.07,1.448 0.106,1.569c0.144,0.488 0.529,0.078 0.648,0.48c0.299,1.354 0.281,1.281 0.115,2.683l-3.255,-0.254c0.587,-3.167 -2.106,-4.901 -4.967,-0.283l-1.779,-0.36c0.624,-3.737 3.751,-2.215 3.8,-5.893c0.038,-2.814 1.164,-2.258 3.884,-1.836Z" style="fill:#695849;fill-opacity:1;"/><path d="M74.161,12.709c4.719,-0.719 4.344,1.664 4.37,1.687c0.231,0.2 0.672,-0.365 0.903,-0.165c0.059,0.957 0.117,1.914 0.176,2.871c-1.258,2.48 -1.008,2.439 -1.14,2.625c-1.424,-0.144 -3.712,-0.994 -4.683,-0.141c-0.753,-0.671 -1.505,-1.341 -2.258,-2.012l0.792,-1.222c0.672,-1.726 1.67,-3.364 1.84,-3.643Z" style="fill:#665546;fill-opacity:1;"/><path d="M174.532,27.811c4.259,-0.496 4.399,-1.485 8.115,0.617c-0.093,1.461 0.346,2.072 -1.159,1.965c-5.259,-0.376 -13.654,1.499 -13.655,-1.903c-0.001,-4.167 2.999,1.347 6.699,-0.678Z" style="fill:#624d3a;fill-opacity:1;"/><path d="M186.537,18.111c3.579,-0.538 4.384,0.059 4.047,3.717c-1.38,0.347 -2.761,0.694 -4.141,1.04c-4.196,0.27 -4.1,0.124 -12.89,0.003l0.079,-1.425c9.803,-1.765 15.843,2.559 12.905,-3.336Z" style="fill:#2a2018;fill-opacity:1;"/><path d="M345.471,3.667c8.091,2.533 8.087,2.466 8.983,2.903c-0.178,0.533 1.02,0.959 -1.834,4.886c-1.243,-2.189 -1.561,-1.953 -4.14,-1.882c-0.45,-0.29 -3.733,-0.332 -3.009,-5.907Z" style="fill:#7b6753;fill-opacity:0.98;"/><path d="M168.481,3.282c2.673,-0.047 5.346,-0.095 8.019,-0.142c-1.704,1.991 -1.229,2.201 -2.657,4.489c-0.323,-0.004 -2.733,-2.723 -3.419,2.797c-0.427,0.241 -0.397,0.196 -2.738,1.066c0.151,-7.69 0.733,-7.549 0.795,-8.211Z" style="fill:#917b61;fill-opacity:1;"/><path d="M105.503,19.602c3.855,1.603 3.87,0.732 7.962,0.832c-0.18,0.636 -0.361,1.272 -0.541,1.908c0.524,0.71 1.048,1.421 1.572,2.131c-3.753,1.857 -3.849,0.547 -8.002,-0.251c-1.555,-1.136 -1.416,-1.104 -2.394,-2.836c0.468,-0.595 0.936,-1.19 1.403,-1.785Z" style="fill:#7a6858;fill-opacity:1;"/><path d="M17.482,2.948c-1.967,0.329 -2.553,1.327 -4.823,7.525c-1.703,-0.415 -1.597,-0.316 -3.26,-0.408c-0.644,-0.344 -1.289,-0.689 -1.933,-1.033c1.175,-4.044 0.949,-4.092 1.172,-4.377c2.248,-1.625 8.122,-1.698 8.843,-1.707Z" style="fill:#6f5f4f;fill-opacity:0.94;"/><path d="M335.578,23.438c1.144,3.097 1.127,3.037 0.908,6.22c-2.011,0.173 -1.916,0.27 -3.97,0.342c-9.525,0.331 -11.934,1.6 -10.634,-0.626c0.803,-1.375 13.845,-0.442 12.742,-3.878c-0.329,-1.025 -0.981,-1.31 -1.11,-1.366c-0.613,-0.268 -0.338,0.733 -0.964,0.459c1.009,-0.383 2.018,-0.766 3.028,-1.149Z" style="fill:#766049;fill-opacity:1;"/><path d="M20.411,16.432l1.085,-0.047c3.213,0.3 3.1,0.334 4.078,0.321c1.023,1.155 0.534,2.091 2.899,1.96c1.451,-0.08 1.083,-0.652 1.978,-1.192c1.922,3.124 1.919,3 2.073,3.269c-0.423,0.585 -0.846,1.17 -1.27,1.755c-1.39,-1.2 -1.463,-1.319 -11.063,-2.172c0.074,-1.298 0.147,-2.596 0.221,-3.894Z" style="fill:#4e3f32;fill-opacity:1;"/><path d="M19.855,8.875l0.837,-0.129l0.921,-0.059c2.452,0.171 2.315,0.21 4.751,0.18c0.318,0.063 3.975,0.793 3.975,0.793c0.45,0.248 4.032,4.76 -4.98,4.054c-0.71,-2.295 -0.444,-3.069 -2.869,-2.774c-1.224,0.149 -1.134,-0.025 -2.387,-0.31l-0.81,-1.216l0.562,-0.539Z" style="fill:#a08669;fill-opacity:1;"/><path d="M117.517,26.533c-0.058,2.575 1.04,1.991 3.598,1.723c0.505,-0.11 1.011,-0.22 1.516,-0.33c3.002,0.142 3.022,-0.478 6.485,0.745c0.114,0.527 0.228,1.054 0.342,1.581c-13.941,0.112 -14.674,-0.136 -15.878,-0.542c-0.076,-0.719 -0.153,-1.438 -0.229,-2.158c1.93,-1.047 1.862,-1.03 4.167,-1.019Z" style="fill:#7e6a53;fill-opacity:1;"/><path d="M89.409,14.751l0.951,0.094c0.917,0.057 1.833,0.113 2.75,0.17c1.845,1.283 2.13,1.19 2.221,3.458c-1.696,2.165 -1.91,2.029 -1.907,2.266c0,0 4.632,0.975 5.034,1.06c0.308,0.527 0.615,1.055 0.923,1.582c-0.585,0.257 -1.171,0.515 -1.756,0.772l-0.976,0.071c-2.533,-1.013 -2.404,-0.927 -5.129,-1.692c-0.044,-0.667 -0.089,-1.333 -0.133,-2c0.85,-1.106 0.79,-1.011 0.85,-1.106c0.287,-0.456 0.066,-0.46 0.344,-0.901c-0.642,-0.856 -0.128,-1.249 -1.213,-1.619c-0.929,-0.317 -1.594,-0.07 -1.649,-0.072c-0.103,-0.695 -0.207,-1.389 -0.31,-2.084Z" style="fill:#5c4c3f;fill-opacity:1;"/><path d="M154.256,22.643c2.084,-0.902 2.099,-1.102 2.244,-0.971c5.178,4.661 12.039,2.961 7.335,8.205c-2.194,-0.756 -1.921,-1.38 -4.336,-1.495c-0.981,-0.047 -0.898,0.061 -1.963,0.01c-0.913,-2.898 -0.684,-2.959 -2.986,-4.91l-0.294,-0.838Z" style="fill:#392d23;fill-opacity:1;"/><path d="M155.623,15.588c-1.01,1.004 -2.02,2.009 -3.03,3.013c-4.587,-1.765 -5.041,-0.641 -5.197,-0.256c-0.887,2.194 -1.559,1.068 -3.87,1.258c0.153,-1.666 0.174,-1.55 -0.015,-3.307c8.309,-2.521 10.037,-2.075 12.111,-0.709Z" style="fill:#93806c;fill-opacity:1;"/><path d="M339.007,17.711c1.583,7.719 -0.173,10.836 -0.631,11.649l-1.889,0.298c0.218,-3.183 0.235,-3.123 -0.908,-6.22c0.034,-0.225 0.019,-0.219 -0.016,-4.893c1.339,-1.355 1.46,-0.945 3.445,-0.834Z" style="fill:#967d61;fill-opacity:1;"/><path d="M68.832,6.285l-0.951,2.14c-0.536,2.645 -0.412,2.59 -0.474,2.809c-0.896,-0.015 -1.792,-0.031 -2.688,-0.046c-3.879,-1.745 -4.178,-0.075 -8.19,-1.31l0.417,-1.626c6.11,0.424 5.804,-1.408 11.886,-1.967Z" style="fill:#2c241d;fill-opacity:1;"/><path d="M209.498,22.438c1.662,2.755 2.702,2.578 3.011,2.525c2.083,-0.356 1.855,1.57 1.884,1.595l1.208,0.527c-1.038,0.287 -0.081,1.208 -1.088,1.486c-0.211,0.058 -0.449,0.124 -2.696,-0.44c-3.632,-0.912 -3.588,0.286 -7.275,0.15c3.203,-2.352 1.673,-3.732 4.955,-5.842Z" style="fill:#2d231b;"/><path d="M178.571,14.873c-7.886,-1.339 -2.462,-4.397 -2.072,-4.406c8.655,-0.202 8.392,1.403 8.282,2.078c-0.363,2.216 -0.999,1.724 -2.284,2.04c-1.863,-1.488 -2.216,-1.42 -3.926,0.289Z" style="fill:#c6a77c;fill-opacity:1;"/><path d="M206.484,6.657c6.174,-0.195 6.782,0.324 7.223,0.701c3.198,2.729 3.462,-0.951 7.662,-0.605c-1.41,7.838 -9.394,2.349 -10.069,1.884c-1.27,-0.873 -1.368,0.629 -2.814,0.036c-0.876,-0.36 -1.126,-1.656 -2.002,-2.016Z" style="fill:#332920;fill-opacity:1;"/><path d="M204.7,20.468c0.095,0.395 1.167,4.849 -0.185,5.071c-2.801,0.459 -4.71,2.474 -5.026,2.808c-1.678,0.033 -3.355,0.066 -5.033,0.098c0.533,-0.664 0.544,-2.773 5.112,-3.522c0.537,-0.088 1.341,-0.22 5.132,-4.456Z" style="fill:#3d2f24;fill-opacity:1;"/><path d="M100.539,13.705c2.027,0.9 2.043,-0.016 9.022,-0.145c1.335,0.96 2.671,1.92 4.006,2.881c-0.989,1.455 -0.896,1.498 -1.014,1.592c-4.201,-2.154 -4.304,-1.83 -8.97,-1.318c-1.073,-0.077 -2.146,-0.153 -3.219,-0.23c-0.025,-1.441 -0.068,-1.347 0.174,-2.78Z" style="fill:#6c5d4f;"/><path d="M164.499,2.994c1.328,0.096 2.655,0.192 3.983,0.288c-0.062,0.662 -0.644,0.521 -0.795,8.211l0.008,1.243l-0.325,0.36l-1.866,0.538c-0.361,-1.385 -0.722,-2.77 -1.084,-4.155c0.129,-1.339 0.258,-2.677 0.388,-4.016c-0.103,-0.823 -0.206,-1.646 -0.31,-2.469Z" style="fill:#030202;fill-opacity:1;"/><path d="M271.428,21.325c0.429,-0.117 4.495,-1.22 5.552,0.307c0.2,0.289 -0.58,0.694 -0.38,0.983c-0.453,0.206 -0.905,0.412 -1.358,0.617c-0.939,0.571 -1.878,1.142 -2.818,1.713c-1.779,0.295 -1.707,0.336 -3.098,1.45c-0.3,-0.402 0.527,-1.116 -1.068,-1.433c-2.77,-0.55 -3.212,-0.941 -4.64,1.439c-0.441,-0.829 -0.881,-1.658 -1.322,-2.487c2.827,-0.741 2.726,-0.798 5.629,-0.932c0.87,-0.104 1.635,0.9 2.505,0.796c0.495,-0.059 0.955,-2.247 0.999,-2.454Z" style="fill:#6c5c4c;fill-opacity:1;"/><path d="M124.122,17.976c3.407,0.166 3.368,0.222 4.108,0.118l3.255,0.254l0.979,0.299c-2.033,1.778 -2.363,0.98 -4.664,2.211c-0.416,0.117 -0.759,-0.664 -1.175,-0.548c-0.311,0.087 -0.233,0.186 -3.166,2.499c-2.205,-1.454 -2.157,-1.815 -4.682,-1.19c0.219,-0.721 0.439,-1.442 0.658,-2.163l0.358,-0.768c2.05,1.372 2.207,0.689 4.33,-0.713Z" style="fill:#6f5c4a;fill-opacity:1;"/><path d="M59.954,20.135l0.398,0.47c2.594,0.87 2.547,0.569 5.191,0.671c0.172,2.14 0.181,2.126 0.186,2.312c0.015,0.552 -0.239,0.401 -0.224,0.924c-1.032,0.319 -0.943,0.39 -3.284,1.78c-1.433,-2.315 -1.929,-1.427 -4.677,-1.469c-0.281,-0.727 -0.561,-1.454 -0.842,-2.181c0.353,-0.324 0.706,-0.648 1.059,-0.972c0.731,-0.511 1.462,-1.023 2.193,-1.534Z" style="fill:#3c2f25;"/><path d="M65.844,15.604c0.197,0.337 0.395,0.673 0.592,1.01c1.753,1.018 1.623,0.921 1.753,1.018c0.374,0.281 0.026,0.462 0.443,0.775c1.022,0.56 0.793,0.684 1.918,1.051c1.196,0.39 0.404,0.78 -0.329,2.336c-0.572,-0.074 -1.143,-0.148 -1.715,-0.222l-1.05,-0.271c-0.018,-0.152 -1.652,-5.457 -1.913,-0.025c-2.644,-0.102 -2.597,0.199 -5.191,-0.671c2.295,-1.52 3.4,-1.548 2.108,-4.008c1.128,-0.331 2.256,-0.662 3.384,-0.994Z" style="fill:#514236;"/><path d="M348.48,9.574c2.579,-0.071 2.897,-0.307 4.14,1.882c2.105,1.615 2.062,1.754 2.019,4.44c-0.484,0.002 -3.999,0.014 -6.048,-0.257c0.585,-3.045 0.858,-3.041 -0.111,-6.065Z" style="fill:#574637;fill-opacity:1;"/><path d="M29.593,27.536c1.772,1.144 1.73,1.032 3.921,1.287c-0.932,0.566 -6.819,4.139 -13.618,0.609c2.075,-2.174 2.329,-1.749 5.38,-1.446c2.259,0.224 2.191,0.106 4.317,-0.45Z" style="fill:#4c3d2f;fill-opacity:1;"/><path d="M147.98,10.769c-2.659,0.319 -2.498,0.416 -4.915,1.298l-0.617,0.345c-0.336,-0.007 -1.947,-0.042 -4.027,1.19l-0.844,-0.178c-1.955,-1.111 -1.929,-1.135 -2.112,-1.2c-0.476,-0.169 -0.43,0.369 -0.976,0.175l1.078,-0.527c3.883,-2.532 4.516,-0.677 8.738,-2.683c2.389,-1.135 2.923,-1.2 4.077,1.297l-0.403,0.282Z" style="fill:#6e5946;fill-opacity:1;"/><path d="M54.513,9.552c0.672,0.109 1.344,0.217 2.016,0.326c4.013,1.235 4.311,-0.435 8.19,1.31c-0.313,1.445 -0.186,1.424 -1.211,2.334l-0.99,-0.098c-4.837,-0.706 -5.84,0.769 -8.344,-3.377l0.338,-0.495Z" style="fill:#695542;fill-opacity:1;"/><path d="M224.317,16.287c4.887,1.592 4.289,3.446 9.194,3.258c1.859,-0.071 2.02,0.186 2.048,1.996l-1.064,1.93c-1.272,-2.483 -1.448,-2.996 -4.041,-2.139c-0.643,-0.254 -1.286,-0.508 -1.929,-0.762c-1.771,-1.465 -1.807,-1.746 -4.057,-0.994l-0.907,-0.235c-0.361,-0.616 -0.723,-1.231 -1.084,-1.847c0.841,-0.77 0.711,-0.744 1.84,-1.207Z" style="fill:#5f4f41;"/><path d="M216.828,14.79c0.982,0.252 1.964,0.505 2.946,0.757c-1.338,1.405 -1.428,1.211 -3.349,1.033c-2.723,-0.252 -2.325,0.713 -4.877,2.882c-5.249,3.184 -4.283,-1.172 -4.028,-1.311c0.591,-0.324 1.269,0.503 1.939,0.567c1.76,0.167 0.943,-0.722 1.101,-2.481c3.213,-1.216 4.638,-1.273 6.268,-1.446Z" style="fill:#6c5b4c;"/><path d="M347.296,16.132c2.217,1.666 2.46,0.956 4.748,2.659l-0.218,0.984c-0.681,-0.071 -3.848,-1.358 -2.196,1.554c-0.838,1.209 -3.957,1.247 -4.316,1.252c-0.286,-2.42 -1.502,-4.536 1.982,-6.449Z" style="fill:#665341;"/><path d="M137.576,13.424l0.844,0.178c0.652,1.129 1.029,2.953 1.084,3.219c-2.534,0.103 -2.793,0.502 -2.925,0.704c-1.358,2.087 -1.705,1.697 -4.116,1.122l-0.979,-0.299c0.166,-1.402 0.184,-1.33 -0.115,-2.683c3.337,-1.048 4.144,0.656 6.207,-2.241Z" style="fill:#6c5a4b;"/><path d="M258.588,20.649c1.912,0.946 6.385,-0.576 9.045,0.63c1.2,1.406 1.254,1.268 1.2,1.406c-0.117,0.296 -0.792,0.001 -0.909,0.298c-2.902,0.134 -2.801,0.19 -5.629,0.932c-4.527,-1.114 -4.489,-1.208 -4.883,-1.299c0.402,-0.724 -0.032,-1 0.758,-1.365c0.411,-0.19 0.073,-0.442 0.418,-0.602Z" style="fill:#8a7764;fill-opacity:1;"/><path d="M279.435,28.533c-4.109,6.825 -6.116,1.686 -13.959,1.699c4.599,-3.383 6.963,-2.068 13.959,-1.699Z" style="fill:#9a7f60;fill-opacity:1;"/><path d="M224.266,22.116c2.272,1.309 2.195,1.424 3.092,1.563l3.205,1.148c-0.781,0.414 -0.451,1.189 -5.226,1.522c-2.181,0.152 -1.255,1.187 -1.662,1.573l-0.862,-0.02c-0.434,-1.201 -0.868,-2.403 -1.302,-3.604c0.236,-0.153 0.136,-0.241 2.755,-2.183Z" style="fill:#504135;"/><path d="M289.527,22.363c3.529,0.844 4.534,-0.146 5.542,3.306c0.922,3.156 -2.012,2.244 -3.37,2.855c-0.675,-1.944 -0.628,-1.859 -2.086,-3.287c0.028,-0.228 -0.055,-0.188 -0.086,-2.874Z" style="fill:#795732;"/><path d="M130.132,8.063c2.858,2.004 3.792,0.772 5.435,3.809l-1.078,0.527c-2.042,0.389 -2.034,0.211 -3.874,1.217c-1.736,-0.105 -1.929,0.282 -3.034,-1.159c-1.152,-1.503 1.921,-0.824 1.586,-2.735l0.965,-1.659Z" style="fill:#5c4d41;"/><path d="M149.336,25.84c0.369,0.779 0.737,1.558 1.106,2.336c-2.86,-0.203 -7.848,0.414 -7.966,0.386c-0.614,-0.143 -0.581,-1.323 -1.195,-1.466c3.268,-3 3.697,-2.052 8.055,-1.256Z" style="fill:#2b221a;fill-opacity:1;"/><path d="M94.333,11.729c3.48,1.829 3.352,1.781 4.204,2.184c-0.019,0.449 -0.149,3.47 -1.008,5.532c-1.297,-0.222 -1.182,-0.15 -2.2,-0.972c-0.091,-2.268 -0.376,-2.175 -2.221,-3.458l0.637,-1.295c0.196,-0.663 0.392,-1.327 0.587,-1.99Z" style="fill:#594b40;"/><path d="M79.721,6.406c-1.907,4.117 -2.228,4.748 1.029,7.796l-1.315,0.029c-0.231,-0.2 -0.672,0.365 -0.903,0.165c-0.026,-0.023 0.348,-2.406 -4.37,-1.687l-0.651,-1.262c4.559,-0.962 0.067,-4.901 2.019,-4.917c2.156,-0.018 2.048,-0.06 4.192,-0.123Z" style="fill:#524438;fill-opacity:1;"/><path d="M6.413,9.082l1.054,-0.049c0.644,0.344 1.289,0.689 1.933,1.033c-2.206,2.499 -2.345,4.089 1.076,4.344c-0.335,0.742 -0.671,1.485 -1.006,2.227c-5.093,-1.331 -5.194,-2.762 -3.057,-7.555Z" style="fill:#060504;fill-opacity:1;"/><path d="M100.365,16.486c1.073,0.077 2.146,0.153 3.219,0.23c0.404,1.858 0.68,1.579 1.919,2.887c-0.468,0.595 -0.936,1.19 -1.403,1.785c-0.092,-0.132 -3.391,-2.747 -1.478,1.366l-0.211,0.696c-0.44,-0.08 -0.403,-0.049 -3.03,-0.068c-0.308,-0.527 -0.615,-1.055 -0.923,-1.582c0.414,-0.524 0.828,-1.047 1.242,-1.571l-0.274,-0.414c0.36,-0.275 0.993,0.393 1.353,0.118c0.221,-0.168 0.581,-0.443 -0.414,-3.447Z" style="fill:#594b40;"/><path d="M230.563,24.828c2.035,-0.084 1.873,-0.073 2.035,-0.084c0.523,-0.036 0.408,-0.185 0.914,-0.22c-0.373,1.014 -0.747,2.028 -1.12,3.043c-4.355,1.072 -4.282,0.609 -8.716,0.357c0.407,-0.386 -0.519,-1.421 1.662,-1.573c4.775,-0.333 4.444,-1.108 5.226,-1.522Z" style="fill:#41352a;"/><path d="M70.504,17.609l1.025,-0.035c0.753,0.671 1.505,1.341 2.258,2.012c0.327,0.714 -0.367,1.046 0.713,1.557c1.33,0.63 1.3,0.44 2.607,1.069c-0.235,0.35 -0.47,0.7 -0.706,1.05c-3.645,-0.894 -3.58,-0.458 -3.88,-0.551c-0.767,-0.305 -1.534,-0.61 -2.301,-0.916c0.733,-1.556 1.524,-1.946 0.329,-2.336c-1.125,-0.367 -0.896,-0.491 -1.918,-1.051c0.624,-0.266 1.248,-0.532 1.872,-0.798Z" style="fill:#695848;fill-opacity:1;"/><path d="M110.541,12.865c3.853,1.618 4.55,1.756 4.965,1.838c0.365,0.1 4.566,1.25 4.566,1.25c1.234,1.789 -0.894,0.838 -2.415,2.265c-0.33,-0.329 -0.661,-0.659 -0.991,-0.988c-1.586,-0.479 -1.474,-0.524 -3.099,-0.788c-1.335,-0.96 -2.671,-1.92 -4.006,-2.881l0.98,-0.696Z" style="fill:#312924;fill-opacity:1;"/><path d="M118.775,21.62c2.525,-0.625 2.476,-0.264 4.682,1.19c0.776,0.244 1.553,0.488 2.329,0.732l-0.63,1.066c-1.064,-0.018 -0.843,0.321 -1.47,1.219c-2.151,-0.392 -3.791,-0.568 -4.123,-0.604c-0.504,-0.489 -0.639,-0.126 -1.118,-0.59c-0.115,-0.111 0,0 -1.198,-1.593c0.139,-0.092 0.102,-0.11 1.527,-1.42Z" style="fill:#695442;fill-opacity:1;"/><path d="M296.423,10.298c3.541,-0.091 3.446,-0.129 7.072,0.01l0.865,1.331c-1.007,3.728 -2.592,0.787 -6.271,1.439c-0.591,-1.216 -0.759,-0.917 -1.866,-1.644l0.2,-1.137Z" style="fill:#5e4b39;fill-opacity:1;"/><path d="M205.483,12.693c0.518,0.093 1.036,0.185 1.554,0.278l1.782,1.544l0.78,1.561c-2.781,0.301 -2.661,0.466 -5.215,1.465c-2.085,-2.505 -1.86,-2.609 -2.048,-2.814c1.513,-1.188 1.365,-1.153 3.147,-2.034Z" style="fill:#655445;fill-opacity:1;"/><path d="M76.506,3.093c5.665,0.027 11.33,0.055 16.995,0.082c-0.498,0.229 -2.238,2.565 -5,1.284c-4.314,-2.001 -5.146,2.328 -11.995,-1.367Z" style="fill:#120e0b;fill-opacity:0.89;"/><path d="M32.523,20.742c2.687,1.129 3.419,1.567 1.993,5.914l-3.044,0.165l0.414,-1.258c-0.015,-1.651 -0.014,-1.576 -0.633,-3.066c0.423,-0.585 0.846,-1.17 1.27,-1.755Z" style="fill:#060504;fill-opacity:1;"/><path d="M117.366,9.453c2.242,-1.428 2.381,-0.458 5.065,-0.286c1.021,1.213 1.684,1.114 0.94,2.2c-3.273,4.778 -5.815,-1.447 -6.005,-1.913Z" style="fill:#6d5b4c;"/><path d="M216.264,12.91c0.188,0.627 0.376,1.253 0.564,1.88c-1.629,0.173 -3.055,0.23 -6.268,1.446l-0.961,-0.16l-0.78,-1.561l-0.46,-1.05l1.151,0.163c4.633,-0.835 4.599,-0.855 5.003,-0.902c0.944,-0.111 0.816,0.294 1.75,0.184Z" style="fill:#97826c;fill-opacity:1;"/><path d="M90.991,11.508l-0.537,0.967l-0.804,0.355c-1.861,0.675 -1.867,0.517 -1.861,0.675c0.018,0.492 0.713,0.791 0.731,1.283c-0.57,1.471 -0.52,1.435 0.076,2.841l-0.494,0.553c-0.038,-0.018 -0.002,0.002 -2.62,-1.605c1.367,-1.523 0.557,-1.765 -1.15,-2.78c0.609,-0.509 1.218,-1.018 1.827,-1.526c2.36,-0.975 2.28,-0.774 4.832,-0.764Z" style="fill:#514338;"/><path d="M96.648,24.225l0.976,-0.071c1.246,3.04 2.115,3.181 4.9,1.243l0.912,0.314l0.28,0.417c-0.12,0.758 -0.239,1.517 -0.359,2.275c-3.498,0.141 -3.357,-0.02 -6.919,-0.218c0.231,-2.008 -0.01,-1.929 0.209,-3.96Z" style="fill:#382c23;fill-opacity:1;"/><path d="M79.721,6.406l1.832,0.482c-1.21,2.493 -1.77,2.695 -0.16,4.896c0.338,0.565 0.676,1.129 1.013,1.694c-0.8,0.489 -0.701,0.478 -1.657,0.723c-3.257,-3.048 -2.936,-3.678 -1.029,-7.796Z" style="fill:#6a5748;"/><path d="M129.521,22.72c1.597,0.652 1.539,0.335 3.029,0.913c-2.65,3.081 -3.104,2.411 -7.23,2.142l-0.164,-1.167l0.63,-1.066c1.948,0.4 1.821,-0.09 3.735,-0.822Z" style="fill:#6e5742;"/><path d="M184.505,28.546c3.237,-0.566 8.892,-2.557 6.85,0.831c-0.384,0.636 -5.045,2.383 -7.297,-0.114c-0.189,-0.209 0.636,-0.507 0.447,-0.716Z" style="fill:#5a4938;fill-opacity:1;"/><path d="M219.088,24.593c0.373,0.001 0.029,-1.045 0.402,-1.044c0.172,0.001 0.15,0.056 2.022,0.75c0.434,1.201 0.868,2.403 1.302,3.604c-3.304,0.751 -3.223,0.863 -4.377,0.84c-0,0 -1.828,-1.463 -1.987,-1.591c2.24,-0.507 3.096,-0.267 2.638,-2.559Z" style="fill:#201913;fill-opacity:1;"/><path d="M9.4,10.066c1.663,0.092 1.557,-0.007 3.26,0.408c-0.013,0.684 -0.027,1.368 -0.04,2.052c-0.975,1.179 -0.911,1.078 -2.144,1.884c-3.421,-0.255 -3.282,-1.844 -1.076,-4.344Z" style="fill:#816a55;fill-opacity:1;"/><path d="M154.55,23.481c2.302,1.952 2.073,2.012 2.986,4.91c-1.641,-0.08 -3.282,-0.16 -4.922,-0.239c0.592,-2.566 0.431,-2.562 1.936,-4.671Z" style="fill:#4b3c2f;"/><path d="M86.964,18.81c0.233,0.588 0.466,1.176 0.699,1.763c-0.887,1.368 -0.965,1.206 -1.189,2.962c0.155,0.657 0.31,1.313 0.465,1.97c-0.49,-0.278 -0.98,-0.556 -1.47,-0.834c-0.69,-1.211 -0.743,-1.017 -2.963,-3.114c1.784,-2.972 3,-2.236 4.458,-2.747Z" style="fill:#4b3d32;fill-opacity:1;"/><path d="M134.489,12.399c0.546,0.194 0.5,-0.344 0.976,-0.175c0.183,0.065 0.156,0.089 2.112,1.2c-2.063,2.897 -2.87,1.193 -6.207,2.241c-0.119,-0.402 -0.504,0.008 -0.648,-0.48c-0.036,-0.121 -0,-0 -0.106,-1.569c1.84,-1.006 1.832,-0.828 3.874,-1.217Z" style="fill:#8e7964;fill-opacity:1;"/><path d="M83.498,9.158l1.225,0.086c3.42,0.158 3.221,0.917 6.608,1.03l-0.339,1.234c-2.552,-0.01 -2.472,-0.211 -4.832,0.764c-1.305,-0.766 -1.181,-0.806 -2.646,-0.825l-1.407,-0.305c0.056,-0.159 -0.005,-0.041 1.391,-1.984Z" style="fill:#615042;"/><path d="M310.59,20.711c-0.11,-0.34 -1.367,-4.236 -1.364,-4.252c0.081,-0.463 3.434,-3.839 4.272,4.043c-0.969,0.07 -1.939,0.139 -2.908,0.209Z" style="fill:#9c7f5d;fill-opacity:1;"/><path d="M85.482,16.578c2.618,1.606 2.582,1.586 2.62,1.605c-0.379,0.209 -0.758,0.418 -1.138,0.628c-1.458,0.511 -2.674,-0.225 -4.458,2.747c-0.571,-0.104 -1.143,-0.209 -1.714,-0.313l-0.439,-0.524c1.551,-1.062 1.928,-0.894 1.788,-2.9c1.702,-0.896 1.55,-0.932 3.341,-1.242Z" style="fill:#5d4b3d;"/><path d="M345.182,23.367c1.101,0.377 2.203,0.754 3.304,1.131c0.711,1.421 0.672,1.375 2.071,1.856c-2.427,1.847 -2.566,1.468 -5.491,0.89c-0.199,-2.01 -0.155,-1.905 0.116,-3.877Z" style="fill:#5a4a3a;fill-opacity:1;"/><path d="M348.591,15.64c2.049,0.271 5.564,0.258 6.048,0.257c-0.519,0.966 -0.419,0.929 -0.973,1.812c-0.102,0.163 1.397,3.674 -1.621,1.083c-2.288,-1.703 -2.532,-0.993 -4.748,-2.659l1.295,-0.493Z" style="fill:#816c58;fill-opacity:1;"/><path d="M73.787,19.586c0.971,-0.853 3.259,-0.003 4.683,0.141c0.628,0.331 1.255,0.662 1.883,0.992l0.439,0.524l-0.221,1.284c-1.717,-0.338 -1.564,-0.348 -3.464,-0.316c-1.307,-0.629 -1.277,-0.439 -2.607,-1.069c-1.08,-0.512 -0.386,-0.843 -0.713,-1.557Z" style="fill:#372c24;fill-opacity:1;"/><path d="M119.564,25.223c0.331,0.036 1.971,0.212 4.123,0.604l-1.055,2.1l-1.516,0.33c-2.558,0.268 -3.657,0.852 -3.598,-1.723c0.682,-0.437 1.365,-0.873 2.047,-1.31Z" style="fill:#483a2e;fill-opacity:1;"/><path d="M136.483,21.432c0.664,0.41 0.102,1.324 1.954,1.207c12.856,-0.812 -1.244,2.888 -1.503,2.941c-1.316,-1.786 -1.247,-1.945 -3.427,-2.06c2.747,-1.96 2.726,-1.97 2.977,-2.088Z" style="fill:#4e3e30;fill-opacity:1;"/><path d="M81.393,11.785l0.714,-0.643l1.407,0.305c0.273,0.784 0.546,1.568 0.819,2.351c1.707,1.015 2.517,1.257 1.15,2.78c-1.791,0.31 -1.639,0.346 -3.341,1.242c0.088,-1.447 0.177,-2.894 0.265,-4.341c-0.338,-0.565 -0.676,-1.129 -1.013,-1.694Z" style="fill:#473c32;fill-opacity:1;"/><path d="M20.103,10.63c1.254,0.285 1.164,0.459 2.387,0.31c2.424,-0.295 2.158,0.479 2.869,2.774c-5.739,1.376 -5.198,-2.779 -5.256,-3.084Z" style="fill:#685441;fill-opacity:1;"/><path d="M109.483,10.55l1.828,0.403l2.159,0.639c1.366,1.39 1.577,1.17 2.036,3.111c-0.415,-0.082 -1.112,-0.221 -4.965,-1.838c-0.583,-0.179 -1.166,-0.358 -1.749,-0.538c0.154,-0.33 -0.824,-0.533 -0.67,-0.864c0.056,-0.119 0,0 1.361,-0.913Z" style="fill:#6e5e4f;fill-opacity:1;"/><path d="M91.33,10.273c1.255,-0.305 1.176,-0.422 2.386,0.033c0.086,3.204 0.001,3.141 0.03,3.413l-0.637,1.295c-0.917,-0.057 -1.833,-0.113 -2.75,-0.17c0.032,-0.79 0.063,-1.58 0.095,-2.37l0.537,-0.967l0.339,-1.234Z" style="fill:#6b5a4b;fill-opacity:1;"/><path d="M196.499,3.273c15.692,-0.065 15.641,0.002 17.001,-0.009c-1.334,0.266 -11.644,2.324 -17.001,0.009Z" style="fill:#1d1916;fill-opacity:0.82;"/><path d="M98.537,13.913l2.002,-0.208c-0.242,1.433 -0.2,1.339 -0.174,2.78c0.995,3.004 0.635,3.278 0.414,3.447c-0.36,0.275 -0.993,-0.393 -1.353,-0.118l-0.992,-0.198l-0.904,-0.171c0.859,-2.061 0.988,-5.082 1.008,-5.532Z" style="fill:#716052;fill-opacity:1;"/><path d="M318.579,17.541c2.253,-0.739 2.124,0.112 5.847,3.018c-1.33,0.18 -2.66,0.359 -3.99,0.539c-0.855,-0.987 -0.899,-0.805 -1.697,-1.722c-0.053,-0.612 -0.107,-1.223 -0.16,-1.835Z" style="fill:#695741;fill-opacity:1;"/><path d="M99.381,23.382c2.627,0.02 2.59,-0.012 3.03,0.068c0.038,0.649 0.076,1.297 0.114,1.946c-2.784,1.938 -3.654,1.798 -4.9,-1.243c0.585,-0.257 1.171,-0.515 1.756,-0.772Z" style="fill:#544336;"/><path d="M351.836,20.735c0.268,0.281 -0.042,0.321 0.322,0.704c1.805,1.896 2.191,0.642 3.187,0.934c0.316,0.738 0.631,1.476 0.947,2.213c-2.114,-0.246 -2.328,-0.725 -3.805,0.908c-1.177,-2.26 -1.114,-2.287 -1.271,-2.441c-0.2,-0.195 -0.517,0.626 -0.716,0.432c-0.03,-0.628 -0.061,-1.256 -0.091,-1.884l1.427,-0.866Z" style="fill:#7a6653;fill-opacity:0.67;"/><path d="M68.832,6.285c2.488,0.371 4.096,-0.649 3.346,1.432c0,0 -1.506,2.563 -1.637,2.786c-1.613,-0.711 -1.38,-0.788 -2.66,-2.079l0.951,-2.14Z" style="fill:#5e4c3c;"/><path d="M233.475,9.94c0.405,-0.011 8.295,-0.217 4.545,2.229c-0.255,0.166 -3.057,-0.272 -3.543,-0.149c-0.352,0.089 -0.657,0.635 -0.983,0.473c-0.816,-0.408 -1.123,-1.524 -1.94,-1.931l1.921,-0.621Z" style="fill:#918069;fill-opacity:1;"/><path d="M87.663,20.574c1.241,-0.014 2.483,-0.027 3.724,-0.041c0.044,0.667 0.089,1.333 0.133,2c-0.381,0.155 -0.416,-0.254 -5.046,1.003c0.224,-1.756 0.302,-1.594 1.189,-2.962Z" style="fill:#725f4e;fill-opacity:1;"/><path d="M230.455,21.333c2.593,-0.857 2.769,-0.344 4.041,2.139l-0.984,1.052c-0.506,0.035 -0.39,0.184 -0.914,0.22c-0.163,0.011 -0,0 -2.035,0.084c-0.099,-0.746 -0.197,-1.491 -0.296,-2.237l0.188,-1.258Z" style="fill:#4f4136;"/><path d="M86.939,25.506c5.058,-0.594 5.025,-0.689 5.462,-0.641c4.457,0.487 -4.049,4.628 -5.462,0.641Z" style="fill:#b39570;"/><path d="M313.249,12.896c-5.672,-1.63 -3.171,-4.798 -1.893,-4.072c1.386,0.787 0.582,1.658 2.108,2.041c0.962,0.242 0.935,0.494 0.926,0.581c-0.108,1.021 -1.034,0.442 -1.141,1.45Z" style="fill:#867259;fill-opacity:1;"/><path d="M123.262,17.812c2.862,-4.618 5.555,-2.885 4.967,0.283c-0.74,0.104 -0.701,0.048 -4.108,-0.118l-0.86,-0.165Z" style="fill:#463930;fill-opacity:1;"/><path d="M205.529,8.477c0.305,0.688 0.61,1.375 0.914,2.063c0.198,0.811 0.396,1.621 0.594,2.432c-0.518,-0.093 -1.036,-0.185 -1.554,-0.278c-0.115,-0.211 -1.164,-2.141 -1.707,-2.468c-4.394,-2.641 1.557,-1.777 1.753,-1.749Z" style="fill:#89725d;fill-opacity:1;"/><path d="M112.503,3.347c8.582,0.041 8.443,-0.068 17,-0.056c-8.547,0.908 -8.485,1.199 -17,0.056Z" style="fill:#231e19;fill-opacity:0.79;"/><path d="M95.33,18.473c1.018,0.822 0.903,0.75 2.2,0.972l0.904,0.171c0.422,0.204 0.844,0.408 1.266,0.612c-0.414,0.524 -0.828,1.047 -1.242,1.571c-0.403,-0.085 -5.034,-1.06 -5.034,-1.06c-0.003,-0.237 0.211,-0.101 1.907,-2.266Z" style="fill:#3f352d;"/><path d="M80.792,21.244c0.571,0.104 1.143,0.209 1.714,0.313c2.219,2.097 2.272,1.904 2.963,3.114l-1.863,1.089l-1.143,-0.561l-0.968,-0.354c-0.308,-0.772 -0.615,-1.545 -0.923,-2.317l0.221,-1.284Z" style="fill:#40342b;fill-opacity:1;"/><path d="M52.539,7.534c0.694,1.319 0.825,1.123 1.973,2.017l-0.338,0.495c-1.993,0.369 -1.817,0.51 -3.468,1.453l-1.256,1.002c0.08,-1.345 0.16,-2.69 0.24,-4.035c1.558,-0.06 1.386,-0.234 2.849,-0.933Z" style="fill:#382c23;fill-opacity:1;"/><path d="M228.526,20.571c0.643,0.254 1.286,0.508 1.929,0.762l-0.188,1.258c-1.776,-0.067 -1.813,-0.194 -2.909,1.089c-0.897,-0.139 -0.82,-0.254 -3.092,-1.563l0.391,-0.465c1.607,-0.422 3.56,-0.99 3.869,-1.08Z" style="fill:#534539;fill-opacity:1;"/><path d="M259.516,27.42l0.97,0.123c1.134,0.635 3.217,-0.316 3.947,2.652c-1.679,-0.067 -3.357,-0.134 -5.036,-0.201c0.04,-0.858 0.079,-1.716 0.119,-2.574Z" style="fill:#866f55;fill-opacity:1;"/><path d="M164.733,15.259c-0.343,2.374 -0.222,2.295 0.014,4.704c-0.589,0.044 -0.604,1.617 -2.189,0.162c-2.644,-2.427 0.788,-4.02 2.175,-4.866Z" style="fill:#5f432c;fill-opacity:1;"/><path d="M127.799,20.858c0.484,0.763 0.466,0.622 1.723,1.862c-1.914,0.732 -1.787,1.222 -3.735,0.822c-0.776,-0.244 -1.553,-0.488 -2.329,-0.732c2.933,-2.313 2.856,-2.412 3.166,-2.499c0.416,-0.117 0.759,0.664 1.175,0.548Z" style="fill:#735c49;"/><path d="M257.636,11.146c-0.679,5.015 -2.672,2.57 -4.511,2.033c1.535,-2.262 1.74,-2.208 4.511,-2.033Z" style="fill:#2f261c;fill-opacity:1;"/><path d="M53.844,20.968l0.701,0.345c0.719,0.443 1.438,0.886 2.157,1.329c-0.702,0.962 -0.951,0.653 -1.356,1.858c-0.202,0.599 -1.879,-0.2 -2.755,-0.279c-0.417,-1.908 -0.239,-1.888 1.253,-3.253Z" style="fill:#46372a;"/><path d="M53.844,20.968c2.531,-3.179 3.221,-2.651 6.11,-0.833c-0.731,0.511 -1.462,1.023 -2.193,1.534c-1.34,-1.279 -1.491,-0.824 -3.216,-0.356l-0.701,-0.345Z" style="fill:#342922;"/><path d="M57.544,24.823c2.748,0.041 3.244,-0.847 4.677,1.469c-2.449,0.737 -2.352,0.702 -4.84,0.574c-1.56,-0.081 -0.677,-0.744 0.163,-2.042Z" style="fill:#b89974;fill-opacity:1;"/><path d="M331.615,25.532c-6.819,3.639 -6.786,0.542 -6.661,0.024c0.57,-2.372 6.164,-0.216 6.661,-0.024Z" style="fill:#b59670;fill-opacity:1;"/><path d="M82.406,13.479c-0.088,1.447 -0.177,2.894 -0.265,4.341c-0.11,-0.007 -0.015,0.01 -2.53,-0.718c-0.059,-0.957 -0.117,-1.914 -0.176,-2.871l1.315,-0.029c0.956,-0.246 0.856,-0.235 1.657,-0.723Z" style="fill:#57483c;fill-opacity:1;"/><path d="M36.407,6.075c3.376,-0.464 5.438,-0.802 4.102,2.426c-0,0 -0.275,1.834 -0.299,1.993c-1.931,-1.896 -3.525,-4.044 -3.803,-4.419Z" style="fill:#6e5843;fill-opacity:1;"/><path d="M349.63,21.33l0.778,0.271c0.03,0.628 0.061,1.256 0.091,1.884c-1.279,0.101 -1.223,0.121 -2.014,1.013c-1.101,-0.377 -2.203,-0.754 -3.304,-1.131l0.132,-0.785c0.36,-0.004 3.478,-0.043 4.316,-1.252Z" style="fill:#3c3128;fill-opacity:1;"/><path d="M263.618,26.402c1.429,-2.38 1.87,-1.989 4.64,-1.439c1.596,0.317 0.769,1.031 1.068,1.433c-2.297,0.31 -2.282,0.967 -5.709,0.006Z" style="fill:#b7956b;"/><path d="M219.088,24.593c0.458,2.292 -0.398,2.052 -2.638,2.559l-0.848,-0.068l-1.208,-0.527c1.727,-2.161 2.076,-1.459 4.694,-1.964Z" style="fill:#c5a881;fill-opacity:1;"/><path d="M88.596,17.629l0.634,-0.38c0.559,0.602 0.019,1.12 1.254,1.351c1.08,0.202 0.999,-0.036 2.096,-0.075c-0.278,0.442 -0.057,0.445 -0.344,0.901c-0.059,0.094 -0,-0 -0.85,1.106c-1.241,0.014 -2.483,0.027 -3.724,0.041c-0.233,-0.588 -0.466,-1.176 -0.699,-1.763c0.379,-0.209 0.758,-0.418 1.138,-0.628l0.494,-0.553Z" style="fill:#604f41;"/><path d="M31.472,26.822l3.044,-0.165c0.121,0.153 0.047,0.031 0.723,1.639c-0.575,0.176 -1.15,0.351 -1.725,0.527c-2.19,-0.255 -2.148,-0.143 -3.921,-1.287l0.49,-0.305l1.388,-0.409Z" style="fill:#9c8365;fill-opacity:1;"/><path d="M52.539,7.534l0.564,-0.51c2.075,-0.656 1.978,-0.044 3.842,1.227l-0.417,1.626c-0.672,-0.109 -1.344,-0.217 -2.016,-0.326c-1.148,-0.894 -1.279,-0.698 -1.973,-2.017Z" style="fill:#1a1410;fill-opacity:1;"/><path d="M240.382,20.543c6.636,-2.406 5.856,0.771 6.009,1.134c-3.163,-0.295 -3.226,0.301 -6.009,-1.134Z" style="fill:#7a6857;"/><path d="M26.533,7.516l-0.168,1.351c-2.436,0.03 -2.299,-0.009 -4.751,-0.18c0.581,-0.631 0.305,-1.786 0.886,-2.417c0.377,-0.409 2.744,1.051 2.895,1.087c0.373,0.089 0.766,0.07 1.138,0.16Z" style="fill:#5a4737;fill-opacity:1;"/><path d="M113.465,20.434c1.904,0.986 1.979,0.911 2.867,2.954l-1.836,1.085c-0.524,-0.71 -1.048,-1.421 -1.572,-2.131c0.18,-0.636 0.361,-1.272 0.541,-1.908Z" style="fill:#816d5a;fill-opacity:1;"/><path d="M12.574,20.659c-0.49,0.686 -0.98,1.372 -1.471,2.057c-1.388,-0.431 -1.318,-0.278 -2.698,-0.257c0.94,-2.291 0.542,-3.18 2.058,-2.724c0.735,0.221 1.375,0.702 2.11,0.924Z" style="fill:#28201a;"/><path d="M350.5,23.485c0.2,0.195 0.517,-0.626 0.716,-0.432c0.158,0.154 0.094,0.181 1.271,2.441c-0.644,0.286 -1.287,0.573 -1.931,0.859c-1.398,-0.481 -1.36,-0.435 -2.071,-1.856c0.79,-0.891 0.735,-0.912 2.014,-1.013Z" style="fill:#a28c74;fill-opacity:0.99;"/><path d="M111.311,10.954c2.027,-1.438 1.874,-1.648 3.097,-1.768c0,0 2.224,1.279 2.418,1.39c-1.762,0.712 -1.64,0.621 -3.355,1.016l-2.159,-0.639Z" style="fill:#443931;fill-opacity:1;"/><path d="M104.392,9.61c0.487,-0.266 0.448,-1.111 0.935,-1.377c1.349,-0.736 1.256,0.076 4.156,2.317c-1.361,0.913 -1.305,0.795 -1.361,0.913c-0.154,0.33 0.824,0.533 0.67,0.864c-1.974,-1.793 -1.902,-1.819 -4.4,-2.717Z" style="fill:#665547;fill-opacity:1;"/><path d="M270.5,3.28c5,0.032 9.999,0.064 14.999,0.097c-7.695,1.357 -7.822,2.746 -14.999,-0.097Z" style="fill:#282521;fill-opacity:0.78;"/><path d="M65.543,21.276c0.638,0.008 1.275,0.017 1.913,0.025l1.05,0.271c0.112,1.877 0.224,2.534 -3.001,2.939c-0.014,-0.522 0.239,-0.372 0.224,-0.924c-0.005,-0.185 -0.014,-0.171 -0.186,-2.312Z" style="fill:#46382c;fill-opacity:1;"/><path d="M25.573,16.705c1.648,-0.057 3.296,-0.114 4.943,-0.17l-0.066,0.939c-0.896,0.539 -0.528,1.111 -1.978,1.192c-2.365,0.131 -1.875,-0.806 -2.899,-1.96Z" style="fill:#41352b;fill-opacity:1;"/><path d="M79.61,17.102c2.515,0.729 2.421,0.711 2.53,0.718c0.14,2.006 -0.236,1.837 -1.788,2.9c-0.628,-0.331 -1.255,-0.662 -1.883,-0.992c0.132,-0.187 -0.118,-0.145 1.14,-2.625Z" style="fill:#78624d;fill-opacity:1;"/><path d="M322.402,15.549c1.913,-0.931 1.907,-1.099 2.066,-1.006c0.654,0.383 0.375,0.582 1.022,0.96c0.413,1.096 0.827,2.192 1.24,3.288c-1.144,-0.615 -1.048,-0.658 -4.328,-3.242Z" style="fill:#997e5b;fill-opacity:1;"/><path d="M267.634,21.279c1.864,-1.131 1.969,-1.228 3.794,0.046c-0.044,0.207 -0.504,2.395 -0.999,2.454c-0.87,0.104 -1.635,-0.9 -2.505,-0.796c0.117,-0.296 0.792,-0.001 0.909,-0.298c0.054,-0.137 0,-0 -1.2,-1.406Z" style="fill:#5f4f42;fill-opacity:1;"/><path d="M34.427,34.927c-2.504,-6.379 3.861,-0.216 4.096,0.012l-4.096,-0.012Z" style="fill:#705a46;fill-opacity:0.94;"/><path d="M101.126,9.739c0.477,4.047 -2.322,1.455 -4.348,0.591c1.449,-0.197 2.899,-0.394 4.348,-0.591Z" style="fill:#877361;fill-opacity:1;"/><path d="M222.478,17.494c0.361,0.616 0.723,1.231 1.084,1.847c-0.305,0.329 -0.314,0.287 -3.1,2.219c0.012,-0.272 -1.608,-1.821 2.016,-4.066Z" style="fill:#715f4f;fill-opacity:1;"/><path d="M289.613,25.236c1.457,1.428 1.411,1.343 2.086,3.287c-0.339,-0.02 -4.529,-0.263 -3.509,-2.377c0.245,-0.507 1.179,-0.403 1.424,-0.91Z" style="fill:#63482b;fill-opacity:1;"/><path d="M65.844,15.604c2.387,-3.828 4.354,-0.338 4.405,-0.227l-0.282,0.404c-2.273,0.7 -2.256,0.703 -2.454,0.756c-0.582,0.156 -0.513,-0.075 -1.076,0.076c-0.197,-0.337 -0.395,-0.673 -0.592,-1.01Z" style="fill:#685849;fill-opacity:1;"/><path d="M104.099,21.387c0.979,1.731 0.839,1.7 2.394,2.836l-1.026,-0.036c-0.677,0.508 -1.354,1.016 -2.031,1.524l-0.912,-0.314c-0.038,-0.649 -0.076,-1.297 -0.114,-1.946l0.211,-0.696c0.493,-0.455 0.985,-0.911 1.478,-1.366Z" style="fill:#6c5b4c;fill-opacity:1;"/><path d="M310.516,22.61c0.993,-0.046 1.986,-0.092 2.98,-0.138c-0.176,2.351 0.614,3.247 -1.757,3.456c-0.359,-0.775 -0.718,-1.55 -1.076,-2.325l-0.146,-0.994Z" style="fill:#6a5034;fill-opacity:1;"/><path d="M216.264,12.91c0.922,-0.283 1.844,-0.565 2.766,-0.848c0.747,1.699 1.121,1.607 0.743,3.485c-0.982,-0.252 -1.964,-0.505 -2.946,-0.757c-0.188,-0.627 -0.376,-1.253 -0.564,-1.88Z" style="fill:#715f4d;fill-opacity:1;"/><path d="M173.844,7.629c-0.907,2.327 -1.039,2.404 -3.419,2.797c0.686,-5.52 3.096,-2.801 3.419,-2.797Z" style="fill:#6f5943;"/><path d="M288.749,10.286c-1.774,1.84 -1.957,1.733 -4.372,1.149c1.758,-1.866 1.939,-1.646 4.372,-1.149Z" style="fill:#6a523d;fill-opacity:1;"/><path d="M224.469,19.577c2.25,-0.753 2.286,-0.471 4.057,0.994c-0.309,0.09 -2.262,0.658 -3.869,1.08c-0.063,-0.691 -0.125,-1.382 -0.188,-2.074Z" style="fill:#6b5948;fill-opacity:1;"/><path d="M275.242,23.232l0.623,2.314c-1.957,0.783 -2.222,1.053 -3.44,-0.601c0.939,-0.571 1.878,-1.142 2.818,-1.713Z" style="fill:#503f31;fill-opacity:1;"/><path d="M167.695,12.736c1.044,0.081 3.677,-0.22 3.778,-0.202c4.897,0.889 -1.273,2.529 -1.558,2.585c-0.114,-1.296 -1.17,-1.656 -2.545,-2.024l0.325,-0.36Z" style="fill:#967c5d;fill-opacity:1;"/><path d="M62.502,3.092c6.043,-0.068 5.934,-0.055 11.995,0.008c-0.16,0.104 -1.999,1.298 -1.999,1.298c-0.491,-0.029 -2.616,-0.156 -6,-1.313l-3.996,0.007Z" style="fill:#090705;fill-opacity:0.67;"/><path d="M247.454,11.395c1.933,0.327 1.605,0.733 3.239,1.664c-0.22,0.087 -2.754,1.091 -2.754,1.091c-1.136,-0.308 -0.559,-0.716 -0.485,-2.755Z" style="fill:#3c2e21;fill-opacity:1;"/><path d="M315.97,12.889c3.348,2.68 0.904,3.097 0.71,3.267c-1.363,-1.108 -1.324,-0.976 -2.267,-2.519l1.557,-0.748Z" style="fill:#3f3123;fill-opacity:1;"/><path d="M51.991,15.355c-0.369,2.74 -0.454,2.745 -2.726,4.149l-0.348,-1.048c1.025,-1.034 2.05,-2.067 3.075,-3.101Z" style="fill:#221b16;"/><path d="M121.483,17.452l1.779,0.36l0.86,0.165c-2.123,1.402 -2.28,2.085 -4.33,0.713c0.564,-0.413 1.128,-0.825 1.692,-1.238Z" style="fill:#836d57;fill-opacity:1;"/><path d="M255.52,27.319c0.504,-0.115 2.681,-2.981 4.965,0.225l-0.97,-0.123c-2.009,0.67 -1.969,0.324 -3.995,-0.102Z" style="fill:#614b37;fill-opacity:1;"/><path d="M206.444,10.54c1.759,0.683 1.935,0.264 3.114,1.907l-1.197,1.019l0.46,1.05l-1.782,-1.544c-0.198,-0.811 -0.396,-1.621 -0.594,-2.432Z" style="fill:#7c6755;fill-opacity:1;"/><path d="M89.719,16.835c0.055,0.002 0.72,-0.244 1.649,0.072c1.085,0.37 0.571,0.763 1.213,1.619c-1.097,0.039 -1.016,0.277 -2.096,0.075c-1.235,-0.231 -0.695,-0.749 -1.254,-1.351l0.488,-0.415Z" style="fill:#847160;"/><path d="M113.567,16.441c1.625,0.264 1.513,0.31 3.099,0.788c-1.371,0.268 -2.742,0.536 -4.113,0.804c0.118,-0.094 0.025,-0.137 1.014,-1.592Z" style="fill:#584a3e;fill-opacity:1;"/><path d="M260.52,13.458c0.34,0.775 0.681,1.549 1.021,2.324l-3.111,0.022c0.719,-1.464 0.573,-1.531 2.09,-2.346Z" style="fill:#836c52;fill-opacity:1;"/><path d="M230.267,22.59c0.099,0.746 0.197,1.491 0.296,2.237l-3.205,-1.148c1.096,-1.282 1.133,-1.156 2.909,-1.089Z" style="fill:#635244;fill-opacity:1;"/><path d="M69.967,15.782c0.179,0.609 0.358,1.218 0.537,1.828c-0.624,0.266 -1.248,0.532 -1.872,0.798c-0.417,-0.313 -0.068,-0.494 -0.443,-0.775c-0.13,-0.097 0,0 -1.753,-1.018c0.563,-0.151 0.494,0.079 1.076,-0.076c0.198,-0.053 0.182,-0.056 2.454,-0.756Z" style="fill:#554539;fill-opacity:1;"/><path d="M147.98,10.769c-0.482,0.538 -0.964,1.076 -1.446,1.614l-3.469,-0.317c2.418,-0.882 2.256,-0.978 4.915,-1.298Z" style="fill:#665342;fill-opacity:1;"/><path d="M77.107,22.212c1.9,-0.031 1.747,-0.021 3.464,0.316l-0.623,1.543l-3.546,-0.809c0.235,-0.35 0.47,-0.7 0.706,-1.05Z" style="fill:#46392f;fill-opacity:1;"/><path d="M310.516,22.61l0.146,0.994c-0.05,0.638 -0.101,1.275 -0.151,1.913c-1.027,-0.373 -2.054,-0.747 -3.081,-1.12c1.029,-0.596 2.057,-1.191 3.086,-1.787Z" style="fill:#8e714f;fill-opacity:1;"/><path d="M178.571,14.873c1.71,-1.708 2.062,-1.777 3.926,-0.289c-1.309,0.096 -2.617,0.192 -3.926,0.289Z" style="fill:#634c35;fill-opacity:1;"/><path d="M61.504,3.088l0.998,0.005l3.996,-0.007c-1.465,0.636 -1.088,1.302 -3.003,1.303c0,0 -1.832,-1.196 -1.991,-1.3Z" style="fill:#090705;fill-opacity:0.87;"/><path d="M75.562,14.741c1.573,0.821 1.687,0.838 1.9,2.598c-0.895,-0.348 -1.789,-0.696 -2.684,-1.044l0.784,-1.554Z" style="fill:#43372f;fill-opacity:1;"/><path d="M104.099,21.387c-0.493,0.455 -0.985,0.911 -1.478,1.366c-1.914,-4.113 1.386,-1.498 1.478,-1.366Z" style="fill:#352c25;"/><path d="M86.463,32.815c-3.571,0.381 -3.43,0.317 -6.96,0.576c3.512,-0.686 3.402,-0.798 6.96,-0.576Z" style="fill:#372c23;fill-opacity:0.45;"/><path d="M69.967,15.782l0.282,-0.404c1.327,-0.028 1.468,-0.194 2.072,0.974l-0.792,1.222l-1.025,0.035c-0.179,-0.609 -0.358,-1.218 -0.537,-1.828Z" style="fill:#3e332b;"/><path d="M142.447,12.412l0.617,-0.345l3.469,0.317c-0.762,0.43 -0.399,0.962 -2.043,1.151c-2.113,0.243 -1.566,-0.86 -2.043,-1.122Z" style="fill:#786453;fill-opacity:1;"/><path d="M150.235,7.879c2.177,-1.392 3.227,-4.088 3.319,-1.422c0.009,0.25 -0.161,0.158 -2.23,2.185l-1.089,-0.762Z" style="fill:#6e5641;"/><path d="M351.827,19.776l0.01,0.959l-1.427,0.866l-0.778,-0.271c-1.652,-2.913 1.515,-1.625 2.196,-1.554Z" style="fill:#816b57;fill-opacity:1;"/><path d="M88.52,14.788l0.889,-0.037c0.103,0.695 0.207,1.389 0.31,2.084l-0.488,0.415l-0.634,0.38c-0.596,-1.406 -0.646,-1.37 -0.076,-2.841Z" style="fill:#3c322a;fill-opacity:1;"/><path d="M50.073,6.679l3.03,0.345l-0.564,0.51c-1.463,0.699 -1.291,0.873 -2.849,0.933c0.128,-0.596 0.255,-1.192 0.383,-1.788Z" style="fill:#493a2e;"/><path d="M224.448,6.294c1.021,0.33 2.042,0.661 3.063,0.991c-1.183,0.285 -1.116,0.191 -1.844,1.034c-0.406,-0.675 -0.813,-1.35 -1.219,-2.026Z" style="fill:#6c5540;fill-opacity:1;"/><path d="M67.881,8.425c1.28,1.291 1.047,1.368 2.66,2.079c-2.071,0.673 -1.912,0.838 -3.133,0.73c0.062,-0.219 -0.062,-0.164 0.474,-2.809Z" style="fill:#40342a;"/><path d="M83.513,11.447c1.465,0.019 1.341,0.059 2.646,0.825c-0.609,0.509 -1.218,1.018 -1.827,1.526c-0.273,-0.784 -0.546,-1.568 -0.819,-2.351Z" style="fill:#5a4b3f;"/><path d="M65.543,21.276c0.261,-5.432 1.895,-0.127 1.913,0.025c-0.638,-0.008 -1.275,-0.017 -1.913,-0.025Z" style="fill:#7a6451;fill-opacity:1;"/><path d="M217.49,20.77c0.698,0.21 1.397,0.419 2.095,0.629c-0.091,0.15 -2.559,4.211 -2.095,-0.629Z" style="fill:#3a2f27;"/><path d="M54.546,21.313c1.725,-0.468 1.875,-0.923 3.216,0.356c-0.353,0.324 -0.706,0.648 -1.059,0.972c-0.719,-0.443 -1.438,-0.886 -2.157,-1.329Z" style="fill:#45362b;fill-opacity:1;"/><path d="M100.501,3.294l4.993,-0.023c-2.507,0.748 -2.503,1.089 -4.993,0.023Z" style="fill:#17130f;fill-opacity:0.8;"/><path d="M80.571,22.528c0.308,0.772 0.615,1.545 0.923,2.317l-0.941,-0.392l-0.606,-0.382l0.623,-1.543Z" style="fill:#604f41;fill-opacity:1;"/><path d="M286.501,3.388l5.999,0.114c-3.092,0.32 -3.011,0.271 -5.999,-0.114Z" style="fill:#292521;fill-opacity:0.78;"/><path d="M112.923,22.342c-0.325,0.278 0.591,1.393 -1.535,1.315c-8.407,-0.31 1.374,-1.305 1.535,-1.315Z" style="fill:#3e342d;fill-opacity:1;"/><path d="M296.223,11.435c1.107,0.727 1.275,0.428 1.866,1.644c-1.451,1.029 -1.362,-0.006 -1.866,-1.644Z" style="fill:#816952;"/><path d="M31.886,25.563l-0.414,1.258l-1.388,0.409c0.052,-0.35 -0.248,-0.26 -0.188,-0.667c0.35,-2.371 1.84,-0.925 1.99,-1Z" style="fill:#1e1812;"/><path d="M89.65,12.83l0.804,-0.355c-0.032,0.79 -0.063,1.58 -0.095,2.37l-0.951,-0.094l-0.889,0.037c0.377,-0.653 0.754,-1.305 1.13,-1.958Z" style="fill:#605145;fill-opacity:1;"/><path d="M171.939,20.387c-0.308,-0.421 -0.991,-0.452 -1.299,-0.874c-1.122,-1.537 0.497,-0.826 2.351,-1.013c-0.351,0.629 -0.702,1.258 -1.053,1.887Z" style="fill:#372a1f;fill-opacity:1;"/><path d="M253.386,22.712c-0.54,0.344 -1.08,0.689 -1.621,1.033c-0.013,-0.157 -0.162,-1.963 -0.162,-1.963c0.109,-0.118 0,0 1.783,0.93Z" style="fill:#504339;"/><path d="M105.468,24.187c-0.615,1.407 -0.262,1.842 -1.751,1.94l-0.28,-0.417c0.677,-0.508 1.354,-1.016 2.031,-1.524Z" style="fill:#625142;"/><path d="M107.502,3.301l3.998,0.048c-1.967,0.729 -1.927,0.789 -3.998,-0.048Z" style="fill:#1d1814;fill-opacity:0.8;"/><path d="M96.497,3.207c1.335,0.029 2.67,0.058 4.005,0.087c-2.068,0.526 -1.961,0.452 -4.005,-0.087Z" style="fill:#1a1612;fill-opacity:0.78;"/><path d="M125.156,24.608l0.164,1.167l-1.634,0.052c0.627,-0.898 0.406,-1.237 1.47,-1.219Z" style="fill:#5c4a39;"/><path d="M93.716,10.307l0.617,1.422c-0.196,0.663 -0.392,1.327 -0.587,1.99c-0.029,-0.272 0.056,-0.209 -0.03,-3.413Z" style="fill:#594b3f;fill-opacity:1;"/><path d="M21.51,33.908c1.524,-0.704 1.515,-0.693 3.004,0.085l-3.004,-0.085Z" style="fill:#705e4d;fill-opacity:0.7;"/><path d="M89.65,12.83c-0.377,0.653 -0.754,1.305 -1.13,1.958c-0.018,-0.492 -0.713,-0.791 -0.731,-1.283c-0.006,-0.158 0,0 1.861,-0.675Z" style="fill:#625245;"/><path d="M310.662,23.604c0.359,0.775 0.718,1.55 1.076,2.325l-1.228,-0.412c0.05,-0.638 0.101,-1.275 0.151,-1.913Z" style="fill:#886640;"/><path d="M178.497,3.21l3.005,0.044c-0.682,0.265 -1.364,0.529 -2.046,0.794l-0.959,-0.838Z" style="fill:#161412;fill-opacity:0.79;"/><path d="M227.511,7.285c-0.615,0.345 -1.229,0.69 -1.844,1.034c0.728,-0.843 0.66,-0.75 1.844,-1.034Z" style="fill:#7d644c;fill-opacity:1;"/><path d="M74.037,24.945c0.554,0.259 1.108,0.519 1.663,0.778c-0.661,-0.077 -1.323,-0.154 -1.984,-0.231l0.322,-0.548Z" style="fill:#413328;fill-opacity:1;"/><path d="M318.74,19.376c0.798,0.916 0.842,0.735 1.697,1.722c-1.24,-0.438 -1.215,-0.383 -1.697,-1.722Z" style="fill:#473b2f;"/><path d="M34.516,26.657c0.573,0.228 1.146,0.456 1.719,0.683l-0.996,0.956c-0.676,-1.608 -0.602,-1.486 -0.723,-1.639Z" style="fill:#625241;fill-opacity:1;"/><path d="M5.306,21.396l0.055,2.118c-0.404,-1.116 -0.942,-1.109 -0.055,-2.118Z" style="fill:#4d4137;fill-opacity:0.81;"/><path d="M302.5,3.502l3,0.025c-1.572,0.374 -1.5,0.358 -3,-0.025Z" style="fill:#292521;fill-opacity:0.84;"/><path d="M64.499,34.406c1.478,-0.319 1.354,-0.41 2.962,-0.203c-0.987,0.068 -1.975,0.135 -2.962,0.203Z" style="fill:#483c30;fill-opacity:0.4;"/><path d="M209.557,12.447l-0.047,1.182l-1.151,-0.163l1.197,-1.019Z" style="fill:#7f6b58;fill-opacity:1;"/><path d="M133.221,27.824c-0.882,0.137 -1.765,0.275 -2.647,0.412c1.407,-0.376 1.302,-0.306 2.647,-0.412Z" style="fill:#47382c;"/><path d="M152.31,19.38l0.761,1.153c-0.254,-0.384 -0.508,-0.769 -0.761,-1.153Z" style="fill:#4a3d33;"/><path d="M98.433,19.616l0.992,0.198l0.274,0.414c-0.422,-0.204 -0.844,-0.408 -1.266,-0.612Z" style="fill:#5a4c40;"/></g></svg>