<?xml version="1.0" encoding="UTF-8" standalone="no"?><!DOCTYPE svg PUBLIC "-//W3C//DTD SVG 1.1//EN" "http://www.w3.org/Graphics/SVG/1.1/DTD/svg11.dtd"><svg width="100%" height="100%" viewBox="0 0 72 72" version="1.1" xmlns="http://www.w3.org/2000/svg" xmlns:xlink="http://www.w3.org/1999/xlink" xml:space="preserve" xmlns:serif="http://www.serif.com/" style="fill-rule:evenodd;clip-rule:evenodd;"><path d="M62,16l0,40c0,3.311 -2.689,6 -6,6l-40,0c-3.311,0 -6,-2.689 -6,-6l0,-40c0,-3.311 2.689,-6 6,-6l40,0c3.311,0 6,2.689 6,6Z" style="fill:#fff;stroke:#111;stroke-width:3px;"/><path d="M55,20l0,32c0,1.656 -1.344,3 -3,3l-32,0c-1.656,0 -3,-1.344 -3,-3l0,-32c0,-1.656 1.344,-3 3,-3l32,0c1.656,0 3,1.344 3,3Z" style="fill:#fff;stroke:#111;stroke-width:3px;"/><g opacity="0.95"><path d="M23,19l0,34" style="fill:none;fill-rule:nonzero;stroke:#111;stroke-width:3px;stroke-linecap:round;"/><path d="M29.5,19l0,34" style="fill:none;fill-rule:nonzero;stroke:#111;stroke-width:3px;stroke-linecap:round;"/><path d="M36,19l0,34" style="fill:none;fill-rule:nonzero;stroke:#111;stroke-width:3px;stroke-linecap:round;"/><path d="M42.5,19l0,34" style="fill:none;fill-rule:nonzero;stroke:#111;stroke-width:3px;stroke-linecap:round;"/><path d="M49,19l0,34" style="fill:none;fill-rule:nonzero;stroke:#111;stroke-width:3px;stroke-linecap:round;"/><path d="M19,23l34,0" style="fill:none;fill-rule:nonzero;stroke:#111;stroke-width:3px;stroke-linecap:round;"/><path d="M19,29.198l34,0" style="fill:none;fill-rule:nonzero;stroke:#111;stroke-width:3px;stroke-linecap:round;"/><path d="M19,36l34,0" style="fill:none;fill-rule:nonzero;stroke:#111;stroke-width:3px;stroke-linecap:round;"/><path d="M19,42.802l34,0" style="fill:none;fill-rule:nonzero;stroke:#111;stroke-width:3px;stroke-linecap:round;"/><path d="M19,49l34,0" style="fill:none;fill-rule:nonzero;stroke:#111;stroke-width:3px;stroke-linecap:round;"/></g><circle cx="36" cy="36" r="3" style="fill:#111;fill-opacity:0.15;"/></svg>