<?xml version="1.0" encoding="UTF-8" standalone="no"?><!DOCTYPE svg PUBLIC "-//W3C//DTD SVG 1.1//EN" "http://www.w3.org/Graphics/SVG/1.1/DTD/svg11.dtd"><svg width="100%" height="100%" viewBox="0 0 72 72" version="1.1" xmlns="http://www.w3.org/2000/svg" xmlns:xlink="http://www.w3.org/1999/xlink" xml:space="preserve" xmlns:serif="http://www.serif.com/" style="fill-rule:evenodd;clip-rule:evenodd;stroke-linejoin:round;stroke-miterlimit:2;"><g><path d="M37.523,4.413c0.978,0.07 1.957,0.139 2.935,0.209c0.583,0.263 5.42,2.444 6.921,3.992c5.093,5.253 4.089,11.533 6.401,13.6c3.222,2.881 0.761,3.859 2.025,7.182c0.089,0.234 0.088,0.214 1.19,2.89c-0.734,-0.298 -1.468,-0.596 -2.202,-0.894l-0.33,-0.878c-0.168,-0.394 -0.337,-0.788 -0.505,-1.182c-0.346,-0.446 -0.927,-0.671 -1.273,-1.117c-0.165,-0.213 0.032,-0.648 -0.201,-0.782c-0.272,-0.157 -0.663,0.283 -0.936,0.126c0.741,-2.833 0.095,-2.867 -0.133,-2.849c-0.426,0.034 -0.739,0.502 -1.165,0.536l0.108,-2.774c-1.933,0.205 -1.841,0.457 -3.823,0.677c-0.684,0.446 -1.367,0.891 -2.051,1.337c-0.52,0.538 -0.65,0.348 -0.981,1.016c-0.947,1.907 -1.026,1.846 -1.061,2.026c-0.064,0.326 0.07,0.67 0.006,0.996c-0.42,-0.236 -0.46,0.146 -0.908,-0.106c-0.675,-0.379 -0.335,-0.74 -1.091,-1.017c-0.3,-0.11 -0.599,0.26 -0.919,0.279c-3.715,0.215 -3.71,-0.099 -4.028,-0.051c-3.537,0.532 -3.661,-0.331 -7,0.923c-0.038,-0.061 -1.393,-0.752 -1.256,-3c0.094,-1.542 -0.253,-1.454 -1.386,-2.46c-0.573,-0.509 -0.629,-0.336 -1.316,-0.703c-0.33,-0.063 -0.66,-0.127 -0.99,-0.19c-0.516,-0.003 -0.466,-0.067 -1.011,-0.071c-0.333,-0.002 -0.308,0 -4.157,0.006c-2.03,-0.334 -1.987,-0.063 -4.004,0.208c2.171,-2.377 1.26,-2.749 1.859,-5.891c1.752,1.066 1.923,1.031 2.248,3.052c0.393,0.264 0.786,0.528 1.179,0.792c0.347,-0.149 0.744,0.451 1.091,0.302c0.207,-0.089 0.619,-1.957 0.657,-2.132c0.135,-0.614 0.244,-1.233 0.385,-1.845c0.668,-2.885 0.605,-2.89 0.667,-3.139c0.683,-2.731 10.818,-9.109 16.9,-4.787c6.987,4.964 6.298,6.778 6.839,9.053c0.446,1.876 3.615,-0.272 3.448,-1.242c-0.09,-0.521 -0.994,-0.53 -1.227,-1.004c-0.157,-0.32 0.296,-0.696 0.223,-1.044c-0.12,-0.574 -2.425,-4.493 -5.066,-7.052c-2.499,-2.422 -2.871,-1.702 -6.063,-2.991l4.428,17.456c0.422,-0.207 0.844,-0.414 1.267,-0.621c-0.13,-2.999 0.178,-9.831 -8.723,-10.666c-7.113,-0.667 -11.969,8.401 -7.921,11.829c0.344,0.292 0.732,-0.146 2.063,2.02c2.321,3.778 9.099,3.224 11.088,1.24c1.288,-1.284 0.788,-1.533 1.036,-2.014l0.234,-0.798c-1.981,0.183 -2.955,0.573 -2.639,-1.398c0.405,-2.518 1.485,-0.937 3.595,0.407l-4.428,-17.456l4.428,17.456c-2.11,-1.344 -3.191,-2.925 -3.595,-0.407c-0.317,1.971 0.658,1.58 2.639,1.398l0.592,-0.293l0.365,-0.698l-4.428,-17.456Z" style="fill:#342417;fill-opacity:1;"/><path d="M54.793,31.393c0.734,0.298 1.468,0.596 2.202,0.894c3.659,8.639 4.38,18.434 0.525,25.22c-4.046,4.963 -4.022,4.935 -4.049,4.962c-3.386,4.167 -15.986,6.702 -22.959,5.93c-7.255,-0.803 -7.072,-1.634 -9.036,-1.815c-0.658,-0.061 -1.403,0.246 -1.98,-0.076c-0.395,-0.221 0.477,-1.08 -4.09,-3.911c-3.571,-2.214 -5.504,-8.335 -5.765,-9.161c-0.405,-2.466 -0.01,-2.425 0.072,-4.97c3.479,9.065 7.353,10.814 11.826,12.927c-0.287,0.153 -0.629,-0.492 -0.917,-0.338c-1.347,0.719 -1.37,1.344 -0.023,2.057c0.783,0.414 0.861,0.374 0.932,0.337c0.872,-0.451 0.306,-0.977 1.21,-1.444c12.752,6.191 24.989,-0.831 28.979,-4.209c1.723,-1.735 2.088,-1.925 4.259,-6.156c1.242,-5.327 0.436,-5.371 1.018,-10.124c0.131,-1.073 -0.263,-0.96 -0.538,-1.968c-0.648,-0.678 -1.296,-1.356 -1.945,-2.034c0.829,-1.208 2.308,-0.855 1.34,-1.951c-0.346,-0.391 -1.424,-0.397 -1.552,-0.398c-0.376,-0.002 -0.164,0.388 -0.537,0.387l-1.25,-0.476c0.002,-0.147 0.1,-0.283 0.102,-0.43c0.014,-1.341 0.391,-1.195 0.822,-2.511l1.355,-0.742Z" style="fill:#1a110b;fill-opacity:1;"/><path d="M28.502,28.551c3.339,-1.254 3.463,-0.391 7,-0.923c0.319,-0.048 0.314,0.267 4.028,0.051c0.319,-0.019 0.618,-0.389 0.919,-0.279c0.755,0.278 0.416,0.638 1.091,1.017c0.448,0.252 0.487,-0.13 0.908,0.106c0.247,0.456 0.494,0.912 0.742,1.367c0.79,0.445 1.581,0.89 2.371,1.335c0.538,1.136 0.347,1.175 1.059,2.237c0.812,1.211 1.059,0.895 2.162,1.828c0.983,0.979 0.973,0.977 1.062,1.057c0.227,0.207 0.27,0.073 0.494,0.277c0.055,0.664 0.109,1.329 0.164,1.993c-0.472,-0.14 -3.748,-1.11 -5.959,-1.517c-2.929,-0.539 -3.505,2.762 -6.811,0.958c-5.356,-2.922 -6.171,1.474 -9.078,0.127c-1.623,-0.752 -1.514,-0.851 -3.217,-1.39c-0.727,-0.697 -0.191,-1.002 -0.936,-1.716c-0.082,-0.078 -0.191,0.228 -1.337,-0.464c-0.363,-0.219 -0.584,-0.615 -0.907,-0.889c-0.116,-0.099 -2.091,-1.776 -1.735,0.781c0.251,1.803 -0.186,2.028 -2.036,2.008c-0.437,-0.005 -0.346,-1.045 -0.783,-1.05c-0.202,-0.504 -0.403,-1.007 -0.605,-1.511l-0.49,-1.495c2.136,-1.467 1.301,-2.05 1.978,-2.885c1.1,-1.358 3.147,-0.187 3.685,-0.04c0.4,0.663 0.8,1.327 1.201,1.99c1.793,0.66 1.777,0.763 1.934,0.711c0.683,-0.224 0.496,-0.475 1.146,-0.689c1.033,-1.486 0.915,-1.48 1.951,-2.996Z" style="fill:#ba936b;fill-opacity:1;"/><path d="M18.639,40.993c4.093,-1.486 4.299,-2.361 13.104,0.587c-0.763,2.419 -1.194,2.575 0.239,4.651c0.707,1.024 1.234,1.061 0.04,7.164c-0.75,3.834 1.598,2.365 5.514,2.219l0.995,0.81l-0.374,1.014c-0.249,0.737 -0.498,1.474 -0.747,2.212c-0.303,-0.384 -0.607,-0.768 -0.91,-1.152c-0.41,-0.086 -0.716,-0.474 -1.126,-0.56c-0.565,-0.118 -1.159,-0.12 -1.73,-0.037c-0.629,0.091 -0.485,0.381 -1.101,0.447c-0.537,0.058 -0.443,-0.281 -0.943,-0.227c-0.966,-0.432 -3.993,-1.129 -2.762,-3.664c1.406,-2.896 -2.786,-4.475 -6.324,-3.974l-1.258,-0.584c0.305,-0.852 0.719,-0.558 1.021,-1.401c0.022,-0.062 0.065,-0.18 -0.234,-0.792c-1.01,-2.067 -1.669,-1.335 -3.619,-0.06c-0.49,-0.497 -0.98,-0.994 -1.47,-1.491l-0.508,-0.618c0.315,-2.041 0.13,-2.117 0.61,-2.509c0.331,-0.27 0.925,-0.178 1.167,-0.53c0.071,-0.103 0.031,-0.112 0.417,-1.507Z" style="fill:#a77a4f;fill-opacity:1;"/><path d="M35.523,4.224l2,0.189c3.192,1.289 3.564,0.569 6.063,2.991c2.64,2.559 4.946,6.477 5.066,7.052c0.073,0.348 -0.38,0.725 -0.223,1.044c0.233,0.475 1.137,0.483 1.227,1.004c0.167,0.97 -3.002,3.118 -3.448,1.242c-0.541,-2.275 0.148,-4.088 -6.839,-9.053c-6.083,-4.322 -16.217,2.056 -16.9,4.787c-0.062,0.249 0,0.254 -0.667,3.139c-0.142,0.612 -0.25,1.232 -0.385,1.845c-0.038,0.174 -0.45,2.043 -0.657,2.132c-0.347,0.149 -0.744,-0.451 -1.091,-0.302l-1.179,-0.792c-0.325,-2.021 -0.497,-1.986 -2.248,-3.052c0.177,-0.471 1.925,-5.136 2.533,-5.754c0.937,-0.952 0.829,-0.962 0.91,-1.036c0.199,-0.181 0.591,-0.002 0.785,-0.188c0.193,-0.186 0.025,-0.588 0.217,-0.775c0.198,-0.192 0.591,-0.032 0.8,-0.211c0.311,-0.267 -0.058,-0.411 0.252,-0.692c0.329,-0.298 0.443,0.062 0.793,-0.254c1.122,-0.354 1.037,-0.399 1.921,-1.124l0.912,-0.215c0.271,-0.156 0.654,-0.003 0.925,-0.158c0.284,-0.163 -0.065,-0.382 0.228,-0.505c0.921,-0.385 0.985,-0.002 1.877,-0.375c3.438,-1.315 3.482,-0.922 7.13,-0.937Z" style="fill:#b3926d;fill-opacity:1;"/><path d="M10.228,33.388c0.131,0.203 0.934,0.477 1.377,2.124c0.39,1.451 0.556,1.323 1.583,2.379c1.563,0.733 1.554,0.637 3.268,0.8c4.522,-0.963 4.343,-1.749 8.981,-1.894c1.704,0.539 1.594,0.637 3.217,1.39c2.907,1.347 3.722,-3.049 9.078,-0.127c3.306,1.804 3.882,-1.497 6.811,-0.958c2.211,0.407 5.487,1.377 5.959,1.517c2.127,-0.164 2.076,-0.195 4.012,-1.105c0.648,0.678 1.296,1.356 1.945,2.034c-0.324,0.031 -0.617,-0.294 -0.941,-0.263c-0.204,0.019 -2.697,1.308 -2.975,1.376c-2.662,0.648 -2.656,0.552 -2.884,0.611c-3.772,-2.617 -7.491,-0.641 -8.031,-0.436c-2.422,0.92 -3.014,-0.197 -3.165,-0.172c-0.532,0.087 -0.767,0.878 -1.299,0.965c-1.759,-1.478 -2.984,-1.735 -5.42,-0.048c-8.805,-2.948 -9.011,-2.073 -13.104,-0.587c-1.351,0.002 -2.702,0.003 -4.053,0.005c-0.73,1.208 -0.65,1.191 -1.169,2.459c-0.625,0.344 -1.249,0.687 -1.874,1.031c-0.123,-0.313 0.109,-0.696 -0.014,-1.009c-0.092,-0.234 -0.177,-0.149 -2.407,-2.03l-0.572,-0.943c-0.062,-3.609 0.011,-3.613 1.214,-5.856c0.328,-0.611 0.22,-0.599 0.463,-1.262Z" style="fill:#312014;fill-opacity:1;"/><path d="M9.123,41.449c2.231,1.881 2.315,1.795 2.407,2.03c0.123,0.313 -0.109,0.696 0.014,1.009c0.125,0.795 -0.094,4.165 3.737,9.465c2.31,3.242 2.545,3.006 3.84,3.96c2.641,1.137 2.535,1.474 5.378,1.47c0.115,0.326 -0.044,0.708 0.071,1.034c0.223,0.63 3.832,1.695 4.181,1.798c0.22,0.029 2.753,0.357 2.753,0.357c2.124,0.013 1.745,-0.758 2.197,-1.21c0.233,0.069 0.432,0.229 0.665,0.298c1.083,0.322 1.342,-0.076 0.994,-1.114c-0.133,-0.396 -0.802,-0.574 -0.768,-0.991c0.082,-1 0.847,-1.424 0.972,-1.493c0.533,-0.295 0.398,0.734 0.937,0.436c0.303,0.384 0.607,0.768 0.91,1.152c0.53,0.467 0.332,0.647 1.03,0.906c1.216,0.451 1.031,1.546 2.143,0.899c1.109,-0.645 -1.424,-1.317 -0.331,-1.954c0.466,0.184 1.037,-0.187 1.504,-0.003c0.585,0.231 0.154,0.659 0.736,0.887c0.533,0.209 0.478,-0.411 1.019,-0.2c3.82,-0.768 4.628,-1.133 3.863,-4.265l1.017,0.038c1.742,0.778 1.684,0.79 3.329,1.836c-3.99,3.378 -16.227,10.4 -28.979,4.209c-0.401,-0.204 -0.801,-0.408 -1.202,-0.611c-4.474,-2.114 -8.347,-3.862 -11.826,-12.927l-0.256,-3.968c-0.111,-1.016 -0.223,-2.033 -0.334,-3.049Z" style="fill:#976e48;fill-opacity:1;"/><path d="M37.163,41.629c0.532,-0.087 0.767,-0.878 1.299,-0.965c0.151,-0.025 0.743,1.093 3.165,0.172c0.54,-0.205 4.259,-2.181 8.031,0.436l0.252,0.868l-0.26,2.339c-0.09,0.248 -0.618,0.104 -0.708,0.352c-0.035,0.096 0.738,0.696 -0.356,1.174c-0.268,0.117 -0.251,-0.37 -3.642,-0.383c-0.244,0.941 -0.489,1.881 -0.733,2.822c-1.611,1.947 -1.545,2.002 -1.739,2.101c-0.244,0.126 -0.553,-0.328 -0.797,-0.202c-1.058,-1.084 -1.184,-2.02 -2.189,-0.895c-0.47,0.526 0.173,2.595 -0.025,2.884c-0.578,0.843 -0.955,0.428 -1.408,1.29c-0.264,0.503 0.494,0.452 0.249,0.919c-1.603,-5.777 -2.433,-5.856 -1.421,-7.838c1.243,-2.434 1.52,-2.605 0.281,-5.072Z" style="fill:#b18355;fill-opacity:1;"/><path d="M31.743,41.58c2.436,-1.687 3.661,-1.429 5.42,0.048c1.239,2.468 0.962,2.638 -0.281,5.072c-1.013,1.982 -0.183,2.061 1.421,7.838l-0.766,1.076c-3.916,0.145 -6.264,1.615 -5.514,-2.219c1.194,-6.104 0.667,-6.14 -0.04,-7.164c-1.433,-2.076 -1.002,-2.232 -0.239,-4.651Z" style="fill:#010000;fill-opacity:1;"/><path d="M56.458,39.549c0.276,1.007 0.67,0.895 0.538,1.968c-0.581,4.753 0.225,4.797 -1.018,10.124c-0.535,0.019 -1.031,-0.378 -1.566,-0.359c-0.212,0.007 -1.461,1.287 -1.866,1.38c-1.557,0.358 -1.389,-0.252 -2.67,-1.191c-0.428,-1.479 -0.394,-1.456 -0.352,-2.957c0.684,0.527 1.367,1.054 2.051,1.582c0.271,-0.109 0.599,0.211 0.87,0.102c0.613,-0.246 0.866,-0.731 0.912,-0.817c0.231,-0.442 -0.251,-0.448 -0.005,-0.918c0.036,-0.5 1.113,-0.469 1.149,-0.968c0.065,-0.918 -2.784,-1.052 -3.042,-1.064l-0.752,0.36l-0.445,-1.226c0.042,-0.82 0.533,-0.642 0.575,-1.46c0.022,-0.436 -0.425,-0.107 -0.474,-0.491c-0.055,-0.426 0.374,-0.854 0.248,-1.264c-0.072,-0.233 -0.63,0.024 -0.702,-0.21l-0.252,-0.868c0.228,-0.059 0.222,0.038 2.884,-0.611c0.277,-0.068 2.77,-1.356 2.975,-1.376c0.324,-0.031 0.617,0.294 0.941,0.263Z" style="fill:#805735;fill-opacity:1;"/><path d="M22.513,50.485c3.538,-0.502 7.73,1.078 6.324,3.974c-1.231,2.534 1.796,3.232 2.762,3.664c0.155,0.267 1.182,2.03 2.101,3.239c-0.453,0.453 -0.073,1.224 -2.197,1.21c0,0 -2.532,-0.328 -2.753,-0.357c0.673,-0.567 0.51,-0.724 1.324,-1.116c1.519,-0.73 -1.116,0.116 -2.601,-1.576c-0.763,-0.869 -0.588,-0.932 -1.229,-1.95c-0.553,-1.378 -0.471,-1.454 -0.596,-1.485c-0.412,-0.101 -0.822,0.415 -1.234,0.313l0.232,-0.821c-0.109,-0.695 0.447,-0.584 0.338,-1.281c-0.012,-0.074 -0.023,-0.148 -0.645,-0.679c-1.21,-1.033 -1.472,-0.501 -1.524,-0.622c-0.337,-0.774 0.034,-1.741 -0.303,-2.515Z" style="fill:#7b5333;"/><path d="M18.385,22.133c3.849,-0.005 3.824,-0.008 4.157,-0.006c0.545,0.004 0.495,0.067 1.011,0.071l0.99,0.19c0.687,0.367 0.743,0.194 1.316,0.703c1.133,1.006 1.48,0.918 1.386,2.46c-0.137,2.248 1.218,2.939 1.256,3c-1.036,1.516 -0.918,1.51 -1.951,2.996c-0.063,-0.363 0.499,-0.652 0.437,-1.014c-0.031,-0.176 -0.21,-0.093 -0.92,-2.033c-0.571,-1.563 -1.047,-0.979 -2.646,-1.433c-0.674,-0.032 -1.2,-0.737 -1.874,-0.769c-0.693,-0.033 -0.4,0.571 -1.047,0.631c-0.626,0.057 -0.452,-0.493 -1.073,-0.436c-0.089,-0.58 -0.178,-1.16 -0.267,-1.74c-0.258,-0.873 -0.517,-1.746 -0.775,-2.62Z" style="fill:#aa835c;fill-opacity:1;"/><path d="M13.418,43.456c0.263,0.481 -0.168,0.521 0.112,1.033c0.031,0.057 0.153,0.279 0.692,0.436c1.123,0.327 1.143,0.14 2.223,0.614l0.508,0.618c-0.977,1.328 -0.974,1.318 -1.055,1.434c-0.018,0.026 -2.088,5.18 1.652,1.957c0.573,0.055 0.466,-0.309 1.001,-0.257c0.065,0.006 0.476,0.046 0.698,0.421c0.146,0.247 -0.088,0.611 0.058,0.858c-0.378,0.552 -0.756,1.105 -1.134,1.657c-0.209,0.1 -0.195,0.102 -2.891,1.727c-3.832,-5.3 -3.613,-8.67 -3.737,-9.465c0.625,-0.344 1.249,-0.687 1.874,-1.031Z" style="fill:#4c321f;"/><path d="M49.651,44.478l0.613,1.086l0.445,1.226l-0.278,0.512c-0.301,0.404 -0.603,0.808 -0.904,1.212c-0.042,1.501 -0.076,1.477 0.352,2.957c-0.299,0.668 -0.599,1.337 -0.898,2.005c-0.418,0.027 -1.734,1.736 -3.327,-1.243c-0.739,-2.363 0.374,-2.131 1.979,-4.093c0.615,-0.752 -0.236,-0.008 -1.153,0.312c-1.657,0.576 -1.875,-0.007 -2.268,-0.009c0.244,-0.941 0.489,-1.881 0.733,-2.822c3.391,0.013 3.374,0.5 3.642,0.383c1.094,-0.478 0.321,-1.077 0.356,-1.174c0.09,-0.248 0.618,-0.104 0.708,-0.352Z" style="fill:#a97649;"/><path d="M51.548,27.559c0.272,0.157 0.663,-0.283 0.936,-0.126c0.233,0.135 0.036,0.57 0.201,0.782c0.346,0.446 0.927,0.671 1.273,1.117l0.505,1.182l0.33,0.878l-1.355,0.742c-1.787,-0.106 -2.001,-0.553 -4.058,1.145c-0.476,0.951 -0.528,0.905 -0.598,2.011c-1.103,-0.933 -1.35,-0.617 -2.162,-1.828c-0.713,-1.063 -0.522,-1.102 -1.059,-2.237c0.311,-0.093 0.661,0.168 0.972,0.075c0.276,-0.082 0.93,-0.277 1.994,-3.002c1.618,0.007 1.552,-0.125 3.021,-0.74Z" style="fill:#9b683f;"/><path d="M44.211,48.443c0.393,0.002 0.611,0.585 2.268,0.009c0.918,-0.319 1.769,-1.064 1.153,-0.312c-1.605,1.962 -2.718,1.73 -1.979,4.093c-0.27,0.253 -0.788,0.086 -1.058,0.339c-0.906,0.85 -0.067,0.923 0.668,1.909c0,0 0.535,2.054 0.581,2.233c-0.449,0.311 -0.899,0.623 -1.348,0.934c-1.067,-1.059 -1.044,-1.016 -1.927,-2.234c-0.362,-0.289 -0.725,-0.578 -1.087,-0.866c-0.242,-2.116 -0.331,-2.098 0.192,-4.206c0.244,-0.126 0.553,0.328 0.797,0.202c0.194,-0.1 0.128,-0.155 1.739,-2.101Z" style="fill:#a6784d;"/><path d="M19.427,26.493c0.621,-0.057 0.447,0.494 1.073,0.436c0.648,-0.059 0.354,-0.663 1.047,-0.631c0.674,0.032 1.2,0.737 1.874,0.769c-0.384,0.822 -0.768,1.645 -1.151,2.467c-0.538,-0.147 -2.585,-1.317 -3.685,0.04c-0.677,0.835 0.158,1.418 -1.978,2.885c-0.228,-0.159 0.118,-0.603 -3.48,-2.111c0.19,-0.611 0.38,-1.221 0.571,-1.832c1.033,-0.362 1.052,-0.3 1.814,-1.136c2.186,0.252 2.477,0.8 3.916,-0.888Z" style="fill:#9e7753;"/><path d="M49.878,51.471c1.281,0.939 1.113,1.549 2.67,1.191c0.405,-0.093 1.653,-1.373 1.866,-1.38c0.535,-0.019 1.031,0.378 1.566,0.359c-2.171,4.231 -2.537,4.421 -4.259,6.156c-1.645,-1.047 -1.587,-1.058 -3.329,-1.836c0.294,-0.276 0.799,-0.243 1.093,-0.52c0.455,-0.427 0.368,-0.766 0.35,-0.836c-0.187,-0.731 -0.668,-0.406 -0.853,-1.129c0.299,-0.668 0.599,-1.337 0.898,-2.005Z" style="fill:#8c5f39;"/><path d="M12.021,29.376c0.142,0.704 0.285,1.407 0.427,2.111c0.176,0.287 -0.276,0.718 -0.1,1.005c0.28,0.456 0.92,0.567 1.297,0.948c1.166,1.176 1.031,1.478 1.893,1.401c0.143,-0.013 0.115,-0.066 1.559,-0.885c0.202,0.504 0.403,1.007 0.605,1.511c-0.394,0.297 -0.512,0.873 -0.906,1.169c-0.284,0.214 -0.672,0.283 -1.029,0.289c-0.463,0.008 -0.933,-0.41 -1.366,-0.248c-0.536,0.201 -0.677,1.014 -1.213,1.215c-1.027,-1.056 -1.193,-0.928 -1.583,-2.379c-0.442,-1.646 -1.245,-1.921 -1.377,-2.124c0.153,-0.317 0.968,-2.002 1.793,-4.013Z" style="fill:#45311f;fill-opacity:1;"/><path d="M14.382,22.341c2.016,-0.271 1.974,-0.542 4.004,-0.208c0.258,0.873 0.517,1.746 0.775,2.62c-0.137,0.048 -1.717,0.606 -1.717,0.606c-1.397,0.285 -2.06,-0.225 -2.041,1.212c0.004,0.273 0.106,0.538 0.11,0.811c-0.762,0.836 -0.781,0.774 -1.814,1.136c-0.128,-1.079 -0.253,-0.995 -0.374,-2.012c-0.174,-1.463 -0.286,-1.387 -0.585,-2.841c0.77,-0.735 0.851,-0.533 1.643,-1.323Z" style="fill:#a57f57;"/><path d="M46.535,23.149c1.757,1.984 1.667,3.781 3.715,2.097c0.426,-0.034 0.739,-0.502 1.165,-0.536c0.227,-0.018 0.874,0.016 0.133,2.849c-1.468,0.615 -1.403,0.747 -3.021,0.74c-1.236,-0.63 -1.242,-0.565 -2.292,-1.481c-0.945,-1.131 -0.923,-1.082 -1.751,-2.333c0.684,-0.446 1.367,-0.891 2.051,-1.337Z" style="fill:#2b1b0f;"/><path d="M17.702,35.466c0.437,0.005 0.346,1.045 0.783,1.05c1.851,0.021 2.288,-0.205 2.036,-2.008c-0.356,-2.557 1.619,-0.879 1.735,-0.781c0.323,0.274 0.544,0.671 0.907,0.889c1.146,0.691 1.255,0.385 1.337,0.464c0.745,0.714 0.21,1.019 0.936,1.716c-4.638,0.145 -4.459,0.931 -8.981,1.894c0.416,-1.075 0.831,-2.15 1.247,-3.225Z" style="fill:#9e754e;fill-opacity:1;"/><path d="M28.363,47.514l-0.862,0.99c-0.395,-0.348 -1.075,-0.229 -1.469,-0.577c-0.166,-0.147 0.354,-0.466 -1.64,-2.237c-2.672,-2.372 0.687,-4.472 1.16,-4.215c0.306,0.167 -0.164,0.502 2.26,3.732c1.082,1.442 0.471,1.972 0.551,2.307Z" style="fill:#c79664;fill-opacity:1;"/><path d="M18.173,52.226c0.306,0.241 3.032,2.39 3.645,3.227c0.155,0.212 -0.185,0.575 -0.03,0.787c-0.166,0.023 -2.081,0.29 -2.081,0.29c-0.31,0.393 -0.276,0.99 -0.586,1.383c-1.295,-0.955 -1.53,-0.718 -3.84,-3.96c2.696,-1.625 2.682,-1.627 2.891,-1.727Z" style="fill:#573a24;"/><path d="M21.256,49.901l1.258,0.584c0.337,0.774 -0.034,1.741 0.303,2.515c0.053,0.121 0.315,-0.411 1.524,0.622c0.622,0.531 0.634,0.605 0.645,0.679c0.109,0.697 -0.447,0.586 -0.338,1.281c-1.753,-0.603 -1.741,-0.707 -1.891,-0.65c0,0 -0.891,1.203 -0.969,1.308c-0.155,-0.212 0.185,-0.575 0.03,-0.787c-0.613,-0.837 -3.339,-2.986 -3.645,-3.227c0.378,-0.552 0.756,-1.105 1.134,-1.657c0.65,-0.223 1.3,-0.445 1.949,-0.668Z" style="fill:#6c492e;fill-opacity:1;"/><path d="M21.788,56.24c1.495,0.812 1.473,0.923 1.612,0.875c0.391,-0.136 0.625,-0.577 1.016,-0.712c0.412,0.101 0.822,-0.415 1.234,-0.313c0.124,0.03 0.043,0.107 0.596,1.485c-0.582,0.603 -1.164,1.207 -1.746,1.81c-2.842,0.004 -2.736,-0.333 -5.378,-1.47c0.31,-0.393 0.276,-0.99 0.586,-1.383c0,-0 1.914,-0.267 2.081,-0.29Z" style="fill:#2f1e12;fill-opacity:1;"/><path d="M38.516,31.058c-0.077,0.496 0.506,0.946 0.429,1.442c-0.023,0.147 -0.97,1.083 -1.06,1.172c-1.661,1.642 -5.208,-0.199 -5.607,-0.406l0.196,-0.776c0.646,-0.107 1.292,-0.213 1.938,-0.32c0.16,-0.059 0.646,0.393 1.329,-0.492c1.052,-1.364 0.967,-1.416 1.092,-1.495c0,-0 1.548,0.805 1.683,0.875Z" style="fill:#b99671;"/><path d="M14.587,40.998c1.351,-0.002 2.702,-0.003 4.053,-0.005c-0.386,1.395 -0.346,1.404 -0.417,1.507c-0.242,0.352 -0.836,0.26 -1.167,0.53c-0.481,0.392 -0.296,0.468 -0.61,2.509c-1.08,-0.474 -1.1,-0.287 -2.223,-0.614c-0.539,-0.157 -0.66,-0.378 -0.692,-0.436c-0.28,-0.512 0.151,-0.553 -0.112,-1.033c0.519,-1.268 0.439,-1.251 1.169,-2.459Z" style="fill:#8b603c;fill-opacity:1;"/><path d="M18.423,47.648c1.95,-1.275 2.609,-2.007 3.619,0.06c0.299,0.612 0.257,0.73 0.234,0.792c-0.302,0.843 -0.715,0.549 -1.021,1.401c-0.65,0.223 -1.3,0.445 -1.949,0.668c-0.146,-0.247 0.088,-0.611 -0.058,-0.858c-0.222,-0.375 -0.633,-0.415 -0.698,-0.421c-0.534,-0.052 -0.428,0.313 -1.001,0.257c0.291,-0.633 0.582,-1.266 0.874,-1.9Z" style="fill:#8d603b;"/><path d="M13.127,30.349c3.598,1.509 3.252,1.952 3.48,2.111l0.49,1.495c-1.443,0.819 -1.416,0.872 -1.559,0.885c-0.862,0.077 -0.726,-0.224 -1.893,-1.401c-0.377,-0.38 -1.017,-0.491 -1.297,-0.948c-0.176,-0.287 0.276,-0.718 0.1,-1.005l0.679,-1.137Z" style="fill:#9a7753;fill-opacity:1;"/><path d="M46.235,26.819c1.05,0.916 1.056,0.851 2.292,1.481c-1.064,2.725 -1.718,2.919 -1.994,3.002c-0.311,0.093 -0.661,-0.168 -0.972,-0.075c-0.79,-0.445 -1.581,-0.89 -2.371,-1.335c1.814,-1.462 1.897,-1.385 1.957,-1.577c0.126,-0.404 0.041,-0.893 0.29,-1.235c0.165,-0.226 0.634,-0.034 0.799,-0.26Z" style="fill:#794f2e;"/><path d="M41.675,50.342c-0.524,2.109 -0.434,2.09 -0.192,4.206c-2.002,0.154 -1.989,0.162 -2.163,0.166c-0.545,0.013 -0.492,-0.187 -1.017,-0.175c0.245,-0.466 -0.513,-0.415 -0.249,-0.919c0.452,-0.862 0.83,-0.447 1.408,-1.29c0.198,-0.288 -0.445,-2.358 0.025,-2.884c1.005,-1.124 1.13,-0.188 2.189,0.895Z" style="fill:#805f3d;fill-opacity:1;"/><path d="M42.57,55.415c0.883,1.217 0.86,1.175 1.927,2.234c-0.522,0.296 -2.533,0.204 -0.986,2.539c-0.54,-0.212 -0.486,0.408 -1.019,0.2c-0.582,-0.228 -0.151,-0.656 -0.736,-0.887c-0.466,-0.184 -1.037,0.187 -1.504,0.003l-0.783,-0.992c0.703,-0.978 0.983,-0.73 1.349,-1.875c0.052,-0.163 0.128,-0.089 1.751,-1.221Z" style="fill:#5e3e25;"/><path d="M47.374,55.922c0.765,3.132 -0.042,3.497 -3.863,4.265c-1.547,-2.335 0.464,-2.243 0.986,-2.539c0.449,-0.311 0.899,-0.623 1.348,-0.934c1.177,-1.273 1.373,-0.739 1.529,-0.792Z" style="fill:#25180e;"/><path d="M23.421,27.067c1.599,0.453 2.075,-0.13 2.646,1.433c0.709,1.94 0.889,1.857 0.92,2.033c0.063,0.363 -0.499,0.652 -0.437,1.014c-0.837,-1.35 -0.6,-2.062 -2.112,-1.664c-0.147,0.039 -0.07,0.119 -0.969,1.641c-0.4,-0.663 -0.8,-1.327 -1.201,-1.99c0.384,-0.822 0.768,-1.645 1.151,-2.467Z" style="fill:#664f39;"/><path d="M26.245,57.574c0.642,1.018 0.466,1.081 1.229,1.95c1.485,1.692 4.119,0.846 2.601,1.576c-0.815,0.391 -0.651,0.548 -1.324,1.116c-0.349,-0.103 -3.958,-1.168 -4.181,-1.798c-0.115,-0.326 0.044,-0.708 -0.071,-1.034c0.582,-0.603 1.164,-1.207 1.746,-1.81Z" style="fill:#5b3921;"/><path d="M45.653,52.233c1.593,2.979 2.909,1.27 3.327,1.243c0.185,0.722 0.666,0.398 0.853,1.129c0.018,0.07 0.105,0.409 -0.35,0.836c-0.294,0.276 -0.799,0.243 -1.093,0.52l-1.017,-0.038c-0.156,0.053 -0.352,-0.481 -1.529,0.792c-0.047,-0.179 -0.581,-2.233 -0.581,-2.233c-0.735,-0.986 -1.574,-1.058 -0.668,-1.909c0.27,-0.253 0.788,-0.086 1.058,-0.339Z" style="fill:#885f3b;"/><path d="M44.484,24.486c0.828,1.25 0.806,1.201 1.751,2.333c-0.165,0.226 -0.634,0.034 -0.799,0.26c-0.249,0.342 -0.164,0.831 -0.29,1.235c-0.06,0.192 -0.143,0.115 -1.957,1.577c-0.247,-0.456 -0.494,-0.912 -0.742,-1.367c0.064,-0.326 -0.07,-0.67 -0.006,-0.996c0.035,-0.18 0.114,-0.119 1.061,-2.026c0.332,-0.668 0.462,-0.478 0.981,-1.016Z" style="fill:#633e23;"/><path d="M38.303,54.539c0.525,-0.012 0.472,0.188 1.017,0.175c0.173,-0.004 0.16,-0.012 2.163,-0.166c0.362,0.289 0.725,0.578 1.087,0.866c-1.623,1.132 -1.699,1.058 -1.751,1.221c-0.366,1.145 -0.645,0.897 -1.349,1.875l-1.312,-1.071l0.374,-1.014c-0.076,-0.629 -0.152,-1.257 -0.229,-1.886Z" style="fill:#795131;fill-opacity:1;"/><path d="M53.765,35.552c0.373,0.002 0.161,-0.389 0.537,-0.387c0.128,0.001 1.207,0.006 1.552,0.398c0.968,1.096 -0.51,0.743 -1.34,1.951c-1.936,0.91 -1.885,0.941 -4.012,1.105c-0.055,-0.664 -0.109,-1.329 -0.164,-1.993c1.924,0.046 2.094,0.313 3.427,-1.074Z" style="fill:#8b613b;fill-opacity:1;"/><path d="M49.38,33.28c2.012,1.696 1.965,1.741 2.173,1.831c0.294,0.127 0.667,-0.162 0.961,-0.035l1.25,0.476c-1.333,1.387 -1.503,1.119 -3.427,1.074c-0.224,-0.204 -0.267,-0.071 -0.494,-0.277c-0.089,-0.081 -0.079,-0.078 -1.062,-1.057c0.07,-1.106 0.122,-1.06 0.598,-2.011Z" style="fill:#392515;fill-opacity:1;"/><path d="M19.16,24.753c0.089,0.58 0.178,1.16 0.267,1.74c-1.439,1.688 -1.73,1.14 -3.916,0.888c-0.004,-0.273 -0.106,-0.538 -0.11,-0.811c-0.018,-1.437 0.644,-0.927 2.041,-1.212c0,-0 1.58,-0.557 1.717,-0.606Z" style="fill:#2e2015;fill-opacity:1;"/><path d="M31.6,58.122c0.5,-0.054 0.406,0.285 0.943,0.227c0.616,-0.066 0.472,-0.356 1.101,-0.447c0.571,-0.083 1.165,-0.081 1.73,0.037c0.41,0.086 0.716,0.474 1.126,0.56c-0.538,0.298 -0.404,-0.731 -0.937,-0.436c-0.125,0.069 -0.89,0.492 -0.972,1.493c-0.034,0.416 0.635,0.595 0.768,0.991c0.348,1.038 0.089,1.435 -0.994,1.114c-0.233,-0.069 -0.432,-0.229 -0.665,-0.298c-0.919,-1.209 -1.946,-2.972 -2.101,-3.239Z" style="fill:#825836;"/><path d="M12.738,23.664c0.299,1.454 0.411,1.378 0.585,2.841c0.121,1.017 0.246,0.934 0.374,2.012c-0.19,0.611 -0.38,1.221 -0.571,1.832l-0.679,1.137c-0.142,-0.704 -0.285,-1.407 -0.427,-2.111c-0.011,-2.924 -0.252,-2.92 0.718,-5.712Z" style="fill:#120e09;fill-opacity:0.94;"/><path d="M50.358,22.473l-0.108,2.774c-2.047,1.684 -1.957,-0.113 -3.715,-2.097c1.982,-0.22 1.89,-0.472 3.823,-0.677Z" style="fill:#846340;"/><path d="M16.953,46.157c0.49,0.497 0.98,0.994 1.47,1.491c-0.291,0.633 -0.582,1.266 -0.874,1.9c-3.74,3.223 -1.671,-1.931 -1.652,-1.957c0.082,-0.117 0.078,-0.106 1.055,-1.434Z" style="fill:#a77f56;"/><path d="M53.438,32.136c-0.431,1.316 -0.807,1.17 -0.822,2.511c-0.002,0.147 -0.1,0.283 -0.102,0.43c-0.294,-0.127 -0.667,0.162 -0.961,0.035c-0.209,-0.09 -0.161,-0.136 -2.173,-1.831c2.057,-1.697 2.271,-1.251 4.058,-1.145Z" style="fill:#735132;fill-opacity:1;"/><path d="M17.702,35.466c-0.416,1.075 -0.831,2.15 -1.247,3.225c-1.714,-0.163 -1.704,-0.068 -3.268,-0.8c0.536,-0.201 0.677,-1.014 1.213,-1.215c0.433,-0.162 0.904,0.256 1.366,0.248c0.356,-0.006 0.744,-0.075 1.029,-0.289c0.394,-0.297 0.512,-0.873 0.906,-1.169Z" style="fill:#795434;fill-opacity:1;"/><path d="M38.158,57.439l1.312,1.071l0.783,0.992c-1.094,0.636 1.439,1.309 0.331,1.954c-1.112,0.647 -0.927,-0.448 -2.143,-0.899c-0.698,-0.259 -0.5,-0.44 -1.03,-0.906c0.249,-0.737 0.498,-1.474 0.747,-2.212Z" style="fill:#855937;"/><path d="M50.709,46.79l0.752,-0.36c0.88,1.142 0.747,1.207 1.893,2.033c-0.246,0.471 0.236,0.476 0.005,0.918c-0.045,0.087 -0.299,0.571 -0.912,0.817c-0.271,0.109 -0.599,-0.211 -0.87,-0.102c-0.028,-0.159 -0.186,-0.276 -0.214,-0.435c-0.227,-1.269 -0.451,-1.142 -0.932,-2.359l0.278,-0.512Z" style="fill:#b48a5d;fill-opacity:1;"/><path d="M23.47,31.525c0.898,-1.522 0.821,-1.602 0.969,-1.641c1.511,-0.398 1.275,0.313 2.112,1.664c-0.651,0.214 -0.463,0.464 -1.146,0.689c-0.157,0.051 -0.141,-0.052 -1.934,-0.711Z" style="fill:#302216;"/><path d="M24.647,55.582l-0.232,0.821c-0.391,0.136 -0.625,0.577 -1.016,0.712c-0.139,0.048 -0.116,-0.063 -1.612,-0.875c0.077,-0.105 0.969,-1.308 0.969,-1.308c0.149,-0.057 0.138,0.047 1.891,0.65Z" style="fill:#c09769;fill-opacity:1;"/><path d="M21.539,61.394c0.401,0.204 0.801,0.408 1.202,0.611c-0.904,0.467 -0.337,0.993 -1.21,1.444c-0.07,0.036 -0.149,0.077 -0.932,-0.337c-1.347,-0.713 -1.324,-1.338 0.023,-2.057c0.287,-0.153 0.629,0.492 0.917,0.338Z" style="fill:#170f09;"/><path d="M51.461,46.43c0.258,0.012 3.107,0.146 3.042,1.064c-0.036,0.5 -1.113,0.469 -1.149,0.968c-1.146,-0.825 -1.012,-0.891 -1.893,-2.033Z" style="fill:#754f31;fill-opacity:1;"/><path d="M36.471,3.768l-0.948,0.456c-3.648,0.015 -3.691,-0.378 -7.13,0.937l-0.787,-0.387c4.197,-1.654 4.308,-0.864 8.865,-1.005Z" style="fill:#4a3b2c;fill-opacity:0.78;"/><path d="M35.438,44.531c-0.867,1.176 -1.122,2.132 -1.913,0.883c-0.068,-0.107 -0.729,-1.151 0.109,-1.576c1.003,-0.509 0.983,-0.049 1.803,0.693Z" style="fill:#795130;"/><path d="M50.43,47.303c0.481,1.217 0.705,1.09 0.932,2.359c0.028,0.159 0.186,0.276 0.214,0.435c-0.684,-0.527 -1.367,-1.054 -2.051,-1.582c0.301,-0.404 0.603,-0.808 0.904,-1.212Z" style="fill:#725235;fill-opacity:1;"/><path d="M49.911,42.14c0.072,0.233 0.63,-0.024 0.702,0.21c0.126,0.41 -0.303,0.838 -0.248,1.264c0.05,0.384 0.497,0.055 0.474,0.491c-0.042,0.818 -0.533,0.64 -0.575,1.46l-0.613,-1.086l0.26,-2.339Z" style="fill:#956841;"/><path d="M36.471,3.768c2.069,0.14 2.049,0.097 3.987,0.853c-0.978,-0.07 -1.957,-0.139 -2.935,-0.209l-2,-0.189l0.948,-0.456Z" style="fill:#32261c;fill-opacity:0.76;"/><path d="M32.475,32.49c0.583,-2.551 0.877,-2.524 1.025,-2.379c0,0 0.84,1.895 0.913,2.059c-0.646,0.107 -1.292,0.213 -1.938,0.32Z" style="fill:#bf9b74;"/><path d="M8.551,40.506l0.572,0.943c0.111,1.016 0.223,2.033 0.334,3.049l-0.631,-0.977c-0.213,-1.504 -0.218,-1.463 -0.275,-3.015Z" style="fill:#19110b;fill-opacity:0.77;"/><path d="M38.303,54.539c0.076,0.629 0.152,1.257 0.229,1.886l-0.995,-0.81l0.766,-1.076Z" style="fill:#42311f;fill-opacity:1;"/><path d="M27.606,4.774l0.787,0.387c-0.893,0.373 -0.957,-0.01 -1.877,0.375c-0.293,0.122 0.055,0.342 -0.228,0.505c-0.271,0.156 -0.654,0.003 -0.925,0.158c0.983,-0.94 0.969,-0.88 2.242,-1.425Z" style="fill:#3c2f23;fill-opacity:0.78;"/><path d="M41.951,21.869c0.422,-0.207 0.844,-0.414 1.267,-0.621c-0.303,0.359 -0.607,0.718 -0.91,1.077l-0.721,0.242l0.365,-0.698Z" style="fill:#0c0906;fill-opacity:0.72;"/><path d="M40.994,22.86l0.592,-0.293l0.721,-0.242c-0.171,0.192 0.277,0.697 -1.547,1.333l0.234,-0.798Z" style="fill:#0e0b08;fill-opacity:0.71;"/><path d="M24.451,6.414c-0.883,0.725 -0.798,0.77 -1.921,1.124c0.64,-0.375 1.28,-0.749 1.921,-1.124Z" style="fill:#443527;fill-opacity:0.8;"/></g></svg>