<?xml version="1.0" encoding="UTF-8" standalone="no"?><!DOCTYPE svg PUBLIC "-//W3C//DTD SVG 1.1//EN" "http://www.w3.org/Graphics/SVG/1.1/DTD/svg11.dtd"><svg width="100%" height="100%" viewBox="0 0 72 72" version="1.1" xmlns="http://www.w3.org/2000/svg" xmlns:xlink="http://www.w3.org/1999/xlink" xml:space="preserve" xmlns:serif="http://www.serif.com/" style="fill-rule:evenodd;clip-rule:evenodd;stroke-linejoin:round;stroke-miterlimit:2;"><g><path d="M42.516,5.462l2.166,-0.324c11.61,4.655 10.043,16.041 11.937,19.052c-2.483,0.796 -2.429,0.82 -5.097,0.843c-4.693,0.04 -5.184,-1.143 -7.274,1.18c-1.662,1.848 -3.086,-0.062 -18.707,1.792c-0.3,-0.241 -0.738,-0.267 -1.038,-0.508c-0.2,-0.16 -0.847,-2.09 -2.985,-2.138c-4.529,-0.1 -4.475,-0.105 -8.916,-0.625c2.227,-0.787 2.271,-0.992 2.705,-3.265c0.549,-2.873 0.535,-6.61 4.015,-11.102c0.153,0.404 0.728,0.546 0.881,0.95c0.115,0.305 -1.219,2.963 -1.635,4.197c-0.639,1.894 -0.14,1.944 -0.422,2.986c-0.106,0.391 -0.585,0.611 -0.686,1.003c-0.159,0.616 0.863,3.188 1.409,3.515c2.391,1.436 0.169,-3.976 4.55,-11.555c0.726,-1.257 7.939,-4.886 12.039,-4.538c14.432,1.226 13.906,14.878 14.316,15.419c0.136,0.179 2.911,2.832 2.098,-1.868c-1.045,-6.042 -1.002,-9.274 -9.356,-15.015l2.979,11.041c-5.701,-10.515 -17.324,-6.401 -20.086,-0.043c-3.747,8.627 3.318,8.73 4.09,8.741c12.185,0.178 13.055,-0.072 14.143,-0.385c0.258,-4.432 -1.042,-4.901 1.852,-8.313l-2.979,-11.041l2.979,11.041c-2.894,3.412 -1.594,3.881 -1.852,8.313c0.3,-0.063 0.573,-0.225 0.872,-0.289c3.327,-0.702 1.561,-5.667 0.98,-8.024l-2.979,-11.041Z" style="fill:#1d1610;fill-opacity:0.99;"/><path d="M32.445,35.422c0.686,0.025 1.371,0.05 2.057,0.074c1.277,0.487 2.555,0.974 3.832,1.461c0.744,0.487 1.487,0.974 2.231,1.461c-0.085,1.074 -1.299,0.229 -1.386,1.331c-0.068,0.861 0.508,0.438 1.192,1.13c0.301,0.305 0.254,0.301 1.103,1.63c0.231,0.648 0.463,1.296 0.694,1.943c-0.013,0.404 -0.156,5.019 -0.143,5.048c0.071,0.163 0.593,-0.676 1.946,1.077c0.406,0.526 -0.771,0.444 -0.378,0.953c-1.41,2.573 -1.671,2.295 -3.867,4.317c-2.508,2.31 -3.888,1.275 -4.531,4.652c-1.848,-0.221 -1.978,-0.363 -2.475,-2.185c-0.292,-1.071 -0.709,-0.523 -2.188,-0.584c-3.271,-2.347 -3.112,-2.462 -6.147,-5.137c-0.547,-0.483 -3.786,-0.286 -2.72,-2.021c0.057,-0.093 1.306,-0.506 0.948,-2.131c-0.041,-0.186 -0.091,-0.152 -1.223,-2.047c0.784,-1.401 0.979,-1.236 1.522,-2.72c1.728,-4.725 2.258,-4.46 6.642,-7.022c0.347,-0.127 0.315,-0.122 2.89,-1.231Z" style="fill:#1a1108;"/><path d="M56.619,24.189c6.408,0.784 4.272,3.588 4.883,17.311c0.145,3.254 0.405,22.004 0.381,22.1c-0.476,1.845 -7.423,6.77 -13.367,4.85c-3.811,-1.231 -5.679,-0.574 -13.016,-0.343c-9.868,0.311 -13.919,-0.643 -13.998,-0.652c0.663,-0.548 1.326,-1.096 1.989,-1.644c0.358,-0.017 0.662,0.359 1.02,0.342c0.364,-0.017 0.639,-0.401 1.002,-0.436c0.309,-0.029 4.614,0.587 4.993,0.236c0.549,-0.509 0.632,-1.401 1.181,-1.91c0.335,0.447 0.48,1.016 0.815,1.463c1.315,1.754 1.718,0.79 5.003,0.658c5.49,-0.22 5.507,0.096 5.96,-0.054c2.096,-0.696 1.983,-0.901 4.096,-1.344c3.636,0.671 3.627,0.644 3.942,0.704c5.805,0.137 5.879,0.238 6,0.031c0.816,-1.401 -0.216,-13.319 -0.354,-15.914c0.165,-4.512 0.225,-4.443 0.198,-9.006l-0.244,-0.867c0.459,-0.588 1.308,-0.786 1.766,-1.374c0.171,-0.219 -0.055,-0.555 -0.045,-0.833c0.025,-0.655 0.475,-1.39 0.15,-1.959c-0.347,-0.608 -1.496,-0.399 -1.843,-1.007c0.435,-4.482 0.29,-6.484 0.25,-7.047c-0.127,-1.756 -0.378,-1.645 -0.759,-3.304Z" style="fill:#130e0a;fill-opacity:0.99;"/><path d="M22.515,32.45l0.949,0.096l1.036,0.954c-5.39,3.95 -5.865,6.716 -6.274,10.12c0.494,1.483 0.583,1.377 1.618,2.539c-0.286,0.573 -1.13,0.725 -1.416,1.298c-1.073,2.146 0.553,4.89 0.769,5.256c4.008,6.766 8.982,7.987 9.987,8.234c4.442,1.66 4.511,1.223 6.191,0.946c3.695,-0.634 5.512,-0.723 9.123,-3.396c1.15,-0.983 2.591,-1.916 4.45,-5.7c1.418,-4.017 1.186,-4.044 1.132,-8.3c0.552,-0.197 0.867,-0.842 1.42,-1.039c1.12,-0.4 0.632,0.435 0.943,3.028c0.264,3.997 1.275,4.191 -0.404,6.69c-0.561,0.835 -2.421,2.895 -2.937,4.258c-0.837,2.208 -1.381,1.792 -2.61,3.754c-4.024,1.54 -5.481,3.095 -14.807,2.854c-0.569,-0.146 -0.571,-0.09 -7.164,-1.613c-1.923,-4.185 -3.392,-3.065 -6.463,-7.722c-0.056,-0.084 -0.056,-0.075 -0.76,-1.01c-1.388,-2.383 -1.154,-2.471 -1.35,-9.004c0.015,-0.329 0.03,-0.658 0.045,-0.987c0.822,-5.066 -0.046,-5.612 3.684,-9.127c1.528,-0.994 1.487,-0.935 2.838,-2.132Z" style="fill:#19120c;"/><path d="M30.456,4.366c5.921,-0.361 5.868,-0.028 9.023,0.212c1.504,0.567 1.435,0.624 3.037,0.883c8.354,5.742 8.311,8.973 9.356,15.015c0.813,4.7 -1.962,2.047 -2.098,1.868c-0.41,-0.541 0.116,-14.193 -14.316,-15.419c-4.1,-0.348 -11.313,3.281 -12.039,4.538c-4.38,7.579 -2.159,12.991 -4.55,11.555c-0.546,-0.328 -1.567,-2.9 -1.409,-3.515c0.101,-0.392 0.58,-0.612 0.686,-1.003c0.281,-1.042 -0.217,-1.092 0.422,-2.986c0.416,-1.234 1.751,-3.892 1.635,-4.197c-0.153,-0.404 -0.728,-0.546 -0.881,-0.95c1.458,-1.606 1.401,-1.606 3.011,-3.094c0.397,0.014 0.428,0.846 0.825,0.86c0.185,0.007 2.097,-1.483 3.238,-1.82c0.985,-0.291 0.896,-0.336 4.061,-1.948Z" style="fill:#b29474;fill-opacity:1;"/><path d="M10.292,51.477c1.656,0.709 2.406,0.149 2.483,1.96c0.059,1.401 -0.139,4.616 -0.164,5.016c-0.12,1.949 1.04,1.593 1.221,1.87l0.217,0.656c-1.605,0.8 -1.688,1.19 -0.756,2.729c0.179,1.48 -1.175,2.568 0.268,2.216c0.664,-0.162 1.252,-1.636 1.319,-1.802c0.156,-0.391 -0.638,0.096 -0.499,-0.252c0.438,-0.024 4.905,-0.272 4.254,-3.453c-0.028,-0.138 -0.32,-0.512 -0.352,-0.553c-1.201,-1.542 -1.949,-0.766 -2.265,-0.89c-0.174,-0.787 0.26,-0.729 0.096,-1.474c-0.136,-0.613 -0.488,-0.369 -0.644,-1.003c-0.072,-0.295 0.057,-0.615 0.178,-0.894c0.76,-1.751 1.373,-1.585 1.649,-1.904c0.704,0.935 0.704,0.925 0.76,1.01c3.071,4.657 4.54,3.537 6.463,7.722c-1.814,0.884 -3.162,0.412 -2.322,2.272c0.233,0.517 1.057,0.592 1.29,1.108c-0.663,0.548 -1.326,1.096 -1.989,1.644c-4.506,1.017 -4.562,1.213 -8.913,-0.189c-0.742,-0.672 -0.819,-0.514 -1.432,-1.297c-0.53,-0.677 -0.433,-0.684 -0.841,-1.388c-0.089,-0.154 -0.396,-0.071 -0.485,-0.225c0.235,-1.482 0.42,-1.409 0.454,-2.865c0.094,-4.01 0.118,-3.966 0.162,-7.996c-0.052,-0.673 -0.104,-1.345 -0.156,-2.018Z" style="fill:#573e27;fill-opacity:1;"/><path d="M57.344,40.58c0.027,4.564 -0.032,4.494 -0.198,9.006c-0.127,0.016 -0.032,-0.366 -0.16,-0.349c-2.794,0.354 -1.031,3.06 -1.089,3.263c-0.12,0.418 -0.786,0.575 -0.83,1.009c-0.406,4.044 1.181,3.947 0.73,7.975c-0.266,2.375 -0.945,2.05 -3.297,2.599c-0.325,-0.093 -0.675,0.267 -1,0.174c-0.406,-0.116 -0.668,-0.518 -1.021,-0.75c-1.306,-0.857 -1.304,-0.72 -2.879,-1.078c-0.369,-0.414 -0.738,-0.828 -1.107,-1.242c1.229,-1.962 1.773,-1.546 2.61,-3.754c0.517,-1.363 2.376,-3.424 2.937,-4.258c1.679,-2.499 0.668,-2.693 0.404,-6.69c0.579,-0.395 1.159,-0.791 1.738,-1.186c0.711,0.556 -0.351,2.128 0.36,2.684c1.496,1.169 0.705,-3.276 0.654,-3.562c0.388,-3.618 0.21,-3.655 0.417,-3.89c0.055,-0.063 0.322,-0.366 0.982,-0.348c0.282,0.008 0.467,0.387 0.749,0.395Z" style="fill:#4f3a29;fill-opacity:1;"/><path d="M56.619,24.189c0.381,1.658 0.632,1.548 0.759,3.304c0.041,0.563 0.185,2.565 -0.25,7.047c-0.154,2.052 -0.176,2.013 -0.474,4.062c-2.765,-1.449 -1.511,-2.275 -2.285,-5.254c0.751,-0.936 0.785,-0.911 0.811,-1.011c1.001,-3.914 1.34,-5.46 -2.697,-5.582c-0.698,-0.021 -5.313,0.712 -5.782,0.989c-3.361,1.984 -3.456,2.21 -11.257,1.492c-5.359,0.203 -5.458,0.22 -5.926,0.301c-2.446,0.425 -3.286,-1.127 -3.976,-1.532c15.621,-1.854 17.045,0.056 18.707,-1.792c2.09,-2.324 2.581,-1.14 7.274,-1.18c2.668,-0.023 2.614,-0.047 5.097,-0.843Z" style="fill:#9b7e5f;fill-opacity:1;"/><path d="M35.443,29.236c7.801,0.718 7.896,0.492 11.257,-1.492c0.47,-0.277 5.084,-1.01 5.782,-0.989c4.037,0.121 3.698,1.668 2.697,5.582c-0.026,0.1 -0.06,0.075 -0.811,1.011c-0.227,0.057 -0.204,-0.008 -2.913,0.308c-2.055,-0.992 -3.686,-1.314 -4.019,-1.38l-0.831,0.438c-0.401,-0.107 -0.841,0.022 -1.242,-0.085c-0.25,-0.067 -0.481,-0.226 -0.65,-0.421c-1.909,-2.202 -1.953,0.395 -2.415,0.681c-3.842,-1.414 -3.795,-1.341 -7.807,-2.318l0.953,-1.336Z" style="fill:#34261c;fill-opacity:1;"/><path d="M10.338,36.524c0.631,0.458 1.262,0.915 1.893,1.373c0.424,0.527 0.848,1.055 1.272,1.582c-0.167,0.398 -0.644,0.611 -0.811,1.008c-1.454,3.454 1.49,4.258 1.855,4.357c0.453,0.124 0.948,-0.273 1.401,-0.149c0.196,6.533 -0.038,6.621 1.35,9.004c-0.276,0.319 -0.889,0.153 -1.649,1.904c-0.121,0.279 -0.251,0.599 -0.178,0.894c0.156,0.634 0.508,0.391 0.644,1.003c0.165,0.744 -0.27,0.687 -0.096,1.474c-1.495,-0.16 -1.699,-0.094 -2.187,1.35c-0.181,-0.277 -1.341,0.079 -1.221,-1.87c0.025,-0.401 0.223,-3.616 0.164,-5.016c-0.077,-1.811 -0.826,-1.251 -2.483,-1.96l-0.107,-0.972c3.889,-2.226 2.92,-3.583 0.28,-6.006c-0.051,-0.999 -0.103,-1.997 -0.154,-2.996c-0.293,-4.446 -0.042,-4.375 0.027,-4.979Z" style="fill:#543e2d;fill-opacity:1;"/><path d="M42.297,32.889c0.463,-0.286 0.506,-2.883 2.415,-0.681c0.169,0.195 0.401,0.354 0.65,0.421c0.401,0.107 0.841,-0.022 1.242,0.085c0.893,1.434 0.873,1.383 1.907,2.784c0.979,1.899 0.899,1.86 2.193,4.816c2.099,4.793 1.66,-4.366 1.64,-4.769c-0.082,-1.708 -0.666,-1.414 -0.89,-1.89c2.709,-0.316 2.686,-0.251 2.913,-0.308c0.774,2.979 -0.48,3.804 2.285,5.254c0.149,0.371 0.297,0.741 0.446,1.112l0.244,0.867c-0.282,-0.008 -0.467,-0.387 -0.749,-0.395c-0.66,-0.018 -0.927,0.285 -0.982,0.348c-0.207,0.235 -0.029,0.272 -0.417,3.89l-1.014,0.878c-0.579,0.395 -1.159,0.791 -1.738,1.186c-0.311,-2.593 0.178,-3.428 -0.943,-3.028c-0.552,0.197 -0.867,0.842 -1.42,1.039c-0.729,-2.034 -0.625,-2.014 -1.346,-4.037c-2.027,-3.63 -2.103,-4.174 -6.437,-7.572Z" style="fill:#35271e;fill-opacity:1;"/><path d="M10.213,26.372c2.895,1.453 3.061,0.966 3.288,1.126c0.318,0.224 0.162,0.841 0.48,1.065l-0.121,0.9c-0.604,0.861 -1.061,0.236 -1.686,1.127c-0.046,0.066 -0.065,0.093 0.2,0.991c0.974,3.29 4.796,1.524 5.061,1.443c0.747,0.519 1.495,1.039 2.242,1.558c-3.73,3.515 -2.862,4.061 -3.684,9.127c-0.281,-0.665 -1.573,-0.453 -1.854,-1.118c-0.289,-0.683 0.418,-1.437 0.458,-2.178c0.012,-0.226 -0.135,-0.459 -0.308,-0.606c-0.216,-0.184 -0.57,-0.143 -0.786,-0.327c-0.424,-0.527 -0.848,-1.055 -1.272,-1.582c-0.631,-0.458 -1.262,-0.915 -1.893,-1.373c-0.055,-5.107 -0.677,-5.063 -0.125,-10.151Z" style="fill:#7c6450;"/><path d="M19.843,46.159l1.547,0.235c1.132,1.895 1.182,1.86 1.223,2.047c0.358,1.625 -0.891,2.038 -0.948,2.131c-1.066,1.735 2.172,1.539 2.72,2.021c3.035,2.675 2.876,2.79 6.147,5.137c-0.189,0.205 -0.929,1.007 -1.348,3.216c-1.006,-0.247 -5.98,-1.468 -9.987,-8.234c-0.217,-0.366 -1.842,-3.11 -0.769,-5.256c0.286,-0.573 1.13,-0.725 1.416,-1.298Z" style="fill:#5b3616;fill-opacity:1;"/><path d="M35.811,40.203c2.732,1.827 3.833,2.248 4,7.392c-3.931,1.13 -3.926,1.131 -4.267,1.044c-0.388,-0.099 0.116,-1.175 -5.822,-2.31c-2.194,-1.596 -2.367,-1.266 -4.629,-0.7c0.722,-2.409 0.528,-2.498 2.176,-4.419c2.132,2 2.105,2.002 2.302,2.16c1.905,1.529 1.931,0.037 3.224,-2.031c2.065,0.185 1.859,-0.491 3.015,-1.136Z" style="fill:#bf823c;fill-opacity:1;"/><path d="M44.145,50.51c2.705,1.179 2.65,1.181 2.884,1.274c0.64,0.338 1.279,0.675 1.919,1.013c-1.859,3.783 -3.3,4.716 -4.45,5.7c-3.611,2.673 -5.427,2.763 -9.123,3.396l-0.18,-1.393c0.643,-3.377 2.023,-2.343 4.531,-4.652c2.196,-2.023 2.456,-1.744 3.867,-4.317l0.552,-1.02Z" style="fill:#7d4e20;fill-opacity:1;"/><path d="M38.333,36.957c0.721,-0.787 1.039,-4.649 4.939,-0.282c2.126,2.381 2.72,1.973 3.146,3.845c0.406,1.786 2.464,1.037 2.504,0.996c0.249,-0.256 -0.438,-0.799 -0.189,-1.056c0.721,2.023 0.617,2.003 1.346,4.037c0.054,4.256 0.286,4.283 -1.132,8.3c-0.64,-0.338 -1.279,-0.675 -1.919,-1.013c0.254,-0.932 0.629,-0.802 0.62,-2.271c-0.011,-1.867 0.129,-1.89 -0.121,-2.329c-0.137,-0.239 -0.634,-0.061 -0.77,-0.3c1.212,-0.87 2.003,-1.383 0.639,-1.893c-0.234,-0.087 -0.225,-0.004 -3.094,-0.386c-1.356,-4.087 -1.534,-4.012 -3.739,-6.187c-0.744,-0.487 -1.487,-0.974 -2.231,-1.461Z" style="fill:#8a5724;fill-opacity:1;"/><path d="M34.49,30.571c4.013,0.977 3.965,0.904 7.807,2.318c4.333,3.397 4.41,3.942 6.437,7.572c-0.249,0.256 0.438,0.799 0.189,1.056c-0.04,0.041 -2.098,0.79 -2.504,-0.996c-0.426,-1.872 -1.02,-1.465 -3.146,-3.845c-3.9,-4.367 -4.218,-0.505 -4.939,0.282c-1.277,-0.487 -2.555,-0.974 -3.832,-1.461c0.009,-0.165 0.109,-2.067 0.109,-2.067c-0.002,-1.459 -0.671,-0.889 -2.074,-0.929c-0.328,-0.42 -0.655,-0.841 -0.983,-1.261c0.839,-0.26 0.806,-0.218 2.937,-0.667Z" style="fill:#a46c32;fill-opacity:1;"/><path d="M31.553,31.239c0.328,0.42 0.655,0.841 0.983,1.261c0.059,1.504 0.041,1.455 -0.091,2.922c-2.575,1.109 -2.543,1.104 -2.89,1.231c-1.874,-1.777 -2.055,-2.867 -4.103,-1.313c-1.741,1.321 -1.299,1.724 -2.988,3.103c-1.453,1.186 -1.401,1.953 -1.602,3.249c-0.425,2.733 -1.978,1.844 -2.636,1.928c0.408,-3.404 0.884,-6.17 6.274,-10.12c1.089,-0.636 1.079,-0.637 1.176,-0.686c0.421,-0.216 0.416,-0.129 0.814,-0.334c3.6,-1.622 4.611,-1.214 5.064,-1.241Z" style="fill:#d1a96c;fill-opacity:1;"/><path d="M29.723,46.328c5.938,1.136 5.434,2.211 5.822,2.31c0.34,0.087 0.336,0.086 4.267,-1.044c-1.5,7.738 -7.655,6.184 -10.617,5.352c0.377,-0.647 2.088,-0.168 1.142,-3.369c-0.075,-0.254 -0.334,-1.131 -0.614,-3.25Z" style="fill:#925921;fill-opacity:1;"/><path d="M46.492,61.189c0.369,0.414 0.738,0.828 1.107,1.242c-0.014,0.779 -0.027,1.557 -0.041,2.336c-2.112,0.443 -2,0.648 -4.096,1.344c-0.453,0.15 -0.47,-0.166 -5.96,0.054c-3.285,0.132 -3.688,1.096 -5.003,-0.658c-0.335,-0.447 -0.48,-1.016 -0.815,-1.463c9.325,0.241 10.782,-1.315 14.807,-2.854Z" style="fill:#8e6c4c;fill-opacity:1;"/><path d="M29.554,36.653c-4.384,2.562 -4.914,2.297 -6.642,7.022c-0.543,1.484 -0.738,1.319 -1.522,2.72l-1.547,-0.235c-1.035,-1.163 -1.124,-1.057 -1.618,-2.539c0.658,-0.084 2.212,0.804 2.636,-1.928c0.201,-1.296 0.149,-2.063 1.602,-3.249c1.689,-1.379 1.247,-1.782 2.988,-3.103c2.048,-1.554 2.229,-0.464 4.103,1.313Z" style="fill:#966835;fill-opacity:1;"/><path d="M57.146,49.586c0.138,2.595 1.17,14.513 0.354,15.914c-0.121,0.207 -0.195,0.107 -6,-0.031l1,-1.386c2.352,-0.549 3.031,-0.224 3.297,-2.599c0.451,-4.029 -1.136,-3.931 -0.73,-7.975c0.044,-0.433 0.71,-0.59 0.83,-1.009c0.058,-0.203 -1.704,-2.909 1.089,-3.263c0.127,-0.016 0.032,0.366 0.16,0.349Z" style="fill:#966d4a;fill-opacity:1;"/><path d="M12.602,24.734c4.442,0.52 4.387,0.526 8.916,0.625c2.139,0.047 2.785,1.977 2.985,2.138c0.3,0.241 0.738,0.267 1.038,0.508c-0.439,0.331 -0.602,0.947 -1.041,1.278c0,0 -1.624,0.268 -1.766,0.292c-1.154,-1.695 -1.075,-1.776 -1.244,-1.828c-0.993,-0.302 -2.119,0.225 -3.111,-0.077c-2.06,-0.366 -2.29,-0.706 -2.452,-0.157c-0.094,0.319 0.28,0.661 0.186,0.98c-1.09,-0.047 -1.02,-0.037 -2.131,0.07c-0.318,-0.224 -0.162,-0.841 -0.48,-1.065c-0.227,-0.16 -0.392,0.327 -3.288,-1.126c1.12,-0.966 1.077,-0.975 2.389,-1.639Z" style="fill:#9c8164;fill-opacity:1;"/><path d="M25.094,45.629c2.262,-0.567 2.436,-0.897 4.629,0.7c0.28,2.119 0.539,2.996 0.614,3.25c0.946,3.201 -0.766,2.722 -1.142,3.369c-2.855,-1.508 -3.651,-2.97 -4.1,-7.318Z" style="fill:#5e3816;"/><path d="M25.541,28.005c0.69,0.406 1.529,1.957 3.976,1.532c0.468,-0.081 0.567,-0.098 5.926,-0.301l-0.953,1.336c-2.131,0.449 -2.098,0.407 -2.937,0.667c-0.453,0.027 -1.464,-0.382 -5.064,1.241c-0.728,-0.391 0.147,-0.967 -0.606,-1.372c-0.103,-0.055 -0.508,-0.273 -1.433,0.276c-0.437,0.26 -0.55,0.902 -0.987,1.162l-0.949,-0.096c-0.009,-0.392 -0.787,-0.476 -0.795,-0.869c-0.004,-0.18 0.074,-0.147 1.015,-2.007c0.141,-0.023 1.766,-0.292 1.766,-0.292c0.439,-0.331 0.602,-0.947 1.041,-1.278Z" style="fill:#725843;"/><path d="M40.564,38.418c2.205,2.175 2.382,2.099 3.739,6.187c0.003,0.232 0.093,0.179 0.188,2.893l-0.346,3.012l-0.552,1.02c-0.393,-0.509 0.785,-0.427 0.378,-0.953c-1.354,-1.753 -1.876,-0.914 -1.946,-1.077c-0.013,-0.029 0.13,-4.644 0.143,-5.048c-0.231,-0.648 -0.463,-1.296 -0.694,-1.943c-0.849,-1.329 -0.802,-1.325 -1.103,-1.63c-0.684,-0.692 -1.26,-0.269 -1.192,-1.13c0.087,-1.101 1.301,-0.257 1.386,-1.331Z" style="fill:#150d05;fill-opacity:1;"/><path d="M18.378,27.67c0.993,0.302 2.119,-0.225 3.111,0.077c0.169,0.051 0.091,0.133 1.244,1.828c-0.94,1.86 -1.019,1.827 -1.015,2.007c0.009,0.392 0.787,0.476 0.795,0.869c-1.351,1.197 -1.31,1.138 -2.838,2.132c-0.747,-0.519 -1.495,-1.039 -2.242,-1.558c0.077,-0.191 0.054,-0.179 0.799,-2.454l0.004,-0.99c0.047,-0.636 0.094,-1.273 0.141,-1.909Z" style="fill:#735640;"/><path d="M24.521,62.43c6.593,1.522 6.595,1.466 7.164,1.613c-0.549,0.509 -0.632,1.401 -1.181,1.91c-0.379,0.352 -4.685,-0.265 -4.993,-0.236c-0.363,0.034 -0.638,0.419 -1.002,0.436c-0.358,0.017 -0.662,-0.359 -1.02,-0.342c-0.233,-0.517 -1.057,-0.592 -1.29,-1.108c-0.84,-1.86 0.507,-1.388 2.322,-2.272Z" style="fill:#74553b;fill-opacity:1;"/><path d="M47.437,32.276c0.334,0.066 1.964,0.388 4.019,1.38c0.224,0.476 0.808,0.182 0.89,1.89c0.019,0.403 0.459,9.562 -1.64,4.769c-1.295,-2.956 -1.215,-2.917 -2.193,-4.816c-0.114,-0.247 -0.008,-0.219 -1.075,-3.222Z" style="fill:#816753;"/><path d="M18.378,27.67c-0.047,0.636 -0.094,1.273 -0.141,1.909c-0.001,0.33 -0.003,0.66 -0.004,0.99c-0.745,2.275 -0.722,2.263 -0.799,2.454c-0.264,0.081 -4.086,1.847 -5.061,-1.443c-0.266,-0.898 -0.247,-0.925 -0.2,-0.991c0.625,-0.891 1.082,-0.266 1.686,-1.127c2.137,3.351 2.216,-0.682 2.252,-0.97c0.094,-0.319 -0.28,-0.661 -0.186,-0.98c0.162,-0.549 0.392,-0.209 2.452,0.157Z" style="fill:#2f2117;"/><path d="M16.019,58.974c0.316,0.124 1.064,-0.651 2.265,0.89c0.032,0.041 0.324,0.416 0.352,0.553c0.651,3.182 -3.817,3.429 -4.254,3.453l-1.088,-0.162c-0.933,-1.539 -0.849,-1.929 0.756,-2.729c1.12,0.342 1.234,0.854 2.036,0.074c0.781,-0.76 0.278,-0.865 -0.066,-2.08Z" style="fill:#21170e;"/><path d="M30.532,57.731c1.48,0.06 1.896,-0.487 2.188,0.584c0.497,1.822 0.627,1.964 2.475,2.185l0.18,1.393c-1.681,0.277 -1.75,0.714 -6.191,-0.946c0.42,-2.209 1.159,-3.011 1.348,-3.216Z" style="fill:#7a4b1e;"/><path d="M31.352,39.298c0.481,0.68 0.963,1.361 1.444,2.041c-1.293,2.067 -1.319,3.56 -3.224,2.031c-0.197,-0.158 -0.171,-0.16 -2.302,-2.16c0.238,-0.177 0.085,-0.474 4.083,-1.912Z" style="fill:#856235;fill-opacity:1;"/><path d="M46.757,46.884c0.137,0.239 0.634,0.061 0.77,0.3c0.25,0.439 0.11,0.462 0.121,2.329c0.009,1.469 -0.365,1.339 -0.62,2.271c-0.234,-0.094 -0.18,-0.095 -2.884,-1.274l0.346,-3.012c1.209,-0.234 1.109,-0.36 2.266,-0.614Z" style="fill:#8d5621;"/><path d="M10.448,53.494c-0.044,4.03 -0.069,3.986 -0.162,7.996c-0.034,1.456 -0.219,1.383 -0.454,2.865c-0.209,-0.6 -0.947,-2.72 -1.012,-7.872c-0.023,-1.807 0.526,-1.583 1.629,-2.989Z" style="fill:#080503;fill-opacity:0.89;"/><path d="M28.643,3.92c8.01,-1.371 11.482,-0.185 13.688,0.072c-0.951,0.196 -1.902,0.392 -2.852,0.587c-3.155,-0.24 -3.102,-0.573 -9.023,-0.212c-0.604,-0.149 -1.209,-0.298 -1.813,-0.447Z" style="fill:#31261c;fill-opacity:0.83;"/><path d="M10.465,44.499c2.641,2.423 3.609,3.78 -0.28,6.006c0.002,-0.658 0.004,-1.315 0.006,-1.973l0.222,-3.038l0.052,-0.995Z" style="fill:#624b37;fill-opacity:0.99;"/><path d="M13.503,39.479c0.216,0.184 0.57,0.143 0.786,0.327c0.172,0.147 0.32,0.38 0.308,0.606c-0.04,0.741 -0.748,1.495 -0.458,2.178c0.281,0.665 1.573,0.453 1.854,1.118c-0.015,0.329 -0.03,0.658 -0.045,0.987c-0.453,-0.124 -0.948,0.273 -1.401,0.149c-0.366,-0.1 -3.31,-0.903 -1.855,-4.357c0.167,-0.398 0.644,-0.611 0.811,-1.008Z" style="fill:#655042;"/><path d="M28.643,3.92c0.604,0.149 1.209,0.298 1.813,0.447c-3.165,1.611 -3.076,1.657 -4.061,1.948c-1.14,0.337 -3.052,1.826 -3.238,1.82c-0.397,-0.014 -0.428,-0.846 -0.825,-0.86c0.239,-0.165 2.42,-1.673 3.147,-1.81c0.319,-0.06 0.691,0.101 0.972,-0.062c0.182,-0.105 -0.005,-0.501 0.177,-0.604c0.153,-0.086 0.149,-0.065 2.013,-0.878Z" style="fill:#2b2119;fill-opacity:0.91;"/><path d="M47.599,62.43c1.576,0.358 1.574,0.221 2.879,1.078c0.353,0.232 0.615,0.634 1.021,0.75c0.325,0.093 0.675,-0.267 1,-0.174l-1,1.386c-0.315,-0.06 -0.306,-0.033 -3.942,-0.704c0.014,-0.779 0.027,-1.557 0.041,-2.336Z" style="fill:#6b4b30;"/><path d="M57.128,34.54c0.347,0.608 1.496,0.399 1.843,1.007c0.325,0.569 -0.125,1.305 -0.15,1.959c-0.01,0.278 0.216,0.614 0.045,0.833c-0.459,0.588 -1.308,0.786 -1.766,1.374c-0.149,-0.371 -0.297,-0.741 -0.446,-1.112c0.298,-2.048 0.321,-2.01 0.474,-4.062Z" style="fill:#251c16;"/><path d="M44.303,44.605c2.869,0.382 2.86,0.299 3.094,0.386c1.363,0.51 0.573,1.023 -0.639,1.893c-1.157,0.254 -1.058,0.38 -2.266,0.614c-0.096,-2.714 -0.185,-2.661 -0.188,-2.893Z" style="fill:#4e3114;"/><path d="M31.352,39.298c2.353,-0.13 2.419,-0.344 4.459,0.905c-1.156,0.645 -0.95,1.321 -3.015,1.136c-0.481,-0.68 -0.963,-1.361 -1.444,-2.041Z" style="fill:#dbbf83;fill-opacity:1;"/><path d="M53.268,61.206c-5.007,1.039 -1.394,-2.454 -0.78,-2.307c1.46,0.35 1.05,0.841 0.78,2.307Z" style="fill:#d2a979;"/><path d="M16.019,58.974c0.344,1.215 0.846,1.321 0.066,2.08c-0.802,0.78 -0.915,0.267 -2.036,-0.074l-0.217,-0.656c0.488,-1.444 0.692,-1.51 2.187,-1.35Z" style="fill:#c5a276;"/><path d="M32.536,32.5c1.403,0.04 2.072,-0.53 2.074,0.929c0,0 -0.1,1.902 -0.109,2.067c-0.686,-0.025 -1.371,-0.05 -2.057,-0.074c0.133,-1.467 0.151,-1.418 0.091,-2.922Z" style="fill:#533e22;fill-opacity:1;"/><path d="M52.538,30.762c-0.285,-0.227 -0.788,0.022 -1.073,-0.204c-1.82,-1.451 2.304,-3.531 2.217,-1.006c-0.005,0.133 -0.083,0.088 -1.145,1.21Z" style="fill:#ceaa7f;fill-opacity:1;"/><path d="M23.464,32.546c0.437,-0.26 0.55,-0.902 0.987,-1.162c0.924,-0.55 1.33,-0.332 1.433,-0.276c0.753,0.404 -0.122,0.981 0.606,1.372c-0.398,0.204 -0.393,0.118 -0.814,0.334c-0.097,0.05 -0.087,0.051 -1.176,0.686l-1.036,-0.954Z" style="fill:#63503c;fill-opacity:1;"/><path d="M13.981,28.563c1.111,-0.107 1.04,-0.118 2.131,-0.07c-0.036,0.288 -0.114,4.32 -2.252,0.97l0.121,-0.9Z" style="fill:#c9a77e;"/><path d="M42.331,3.991c1.214,0.489 1.063,0.652 2.351,1.146l-2.166,0.324c-1.602,-0.259 -1.533,-0.316 -3.037,-0.883c0.951,-0.196 1.902,-0.392 2.852,-0.587Z" style="fill:#2e241b;fill-opacity:0.86;"/><path d="M55.196,44.423c0.051,0.285 0.841,4.731 -0.654,3.562c-0.711,-0.556 0.351,-2.128 -0.36,-2.684l1.014,-0.878Z" style="fill:#564131;"/><path d="M13.293,63.709l1.088,0.162c-0.139,0.349 0.655,-0.139 0.499,0.252c-0.066,0.166 -0.655,1.64 -1.319,1.802c-1.444,0.352 -0.089,-0.737 -0.268,-2.216Z" style="fill:#5e4129;"/><path d="M46.606,32.714l0.831,-0.438c1.067,3.003 0.961,2.975 1.075,3.222c-1.033,-1.402 -1.014,-1.35 -1.907,-2.784Z" style="fill:#5a4435;"/><path d="M10.311,41.503c0.051,0.999 0.103,1.997 0.154,2.996c-0.168,-0.632 -0.336,-1.263 -0.504,-1.895l0.35,-1.101Z" style="fill:#241d17;fill-opacity:0.71;"/><path d="M10.412,45.494l-0.222,3.038l-0.42,-1.091c0.214,-0.649 0.428,-1.298 0.641,-1.947Z" style="fill:#1c150f;fill-opacity:0.77;"/></g></svg>