<?xml version="1.0" encoding="UTF-8" standalone="no"?><!DOCTYPE svg PUBLIC "-//W3C//DTD SVG 1.1//EN" "http://www.w3.org/Graphics/SVG/1.1/DTD/svg11.dtd"><svg width="100%" height="100%" viewBox="0 0 72 72" version="1.1" xmlns="http://www.w3.org/2000/svg" xmlns:xlink="http://www.w3.org/1999/xlink" xml:space="preserve" xmlns:serif="http://www.serif.com/" style="fill-rule:evenodd;clip-rule:evenodd;"><g><path d="M61.552,14.379l0,43.243c0,2.17 -1.761,3.931 -3.931,3.931l-43.243,0c-2.17,0 -3.931,-1.761 -3.931,-3.931l0,-43.243c0,-2.17 1.761,-3.931 3.931,-3.931l43.243,0c2.17,0 3.931,1.761 3.931,3.931Z" style="fill:#fff;stroke:#111;stroke-width:3.34px;"/><path d="M18.309,18.31l35.38,35.38m-0,-35.38l-35.38,35.38m17.691,-43.243l0,51.105m-25.552,-25.553l51.105,0" style="fill:none;fill-rule:nonzero;stroke:#000;stroke-opacity:0.75;stroke-width:3.34px;"/></g><path d="M61.552,14.904l0,42.194c0,2.459 -1.996,4.456 -4.456,4.456l-42.194,0c-2.459,0 -4.456,-1.996 -4.456,-4.456l0,-42.194c0,-2.459 1.996,-4.456 4.456,-4.456l42.194,0c2.459,0 4.456,1.996 4.456,4.456Z" style="fill:#fff;stroke:#111;stroke-width:3.34px;"/><path d="M55.098,20.821l0,30.359c0,2.459 -1.996,4.456 -4.456,4.456l-29.284,0c-2.459,0 -4.456,-1.996 -4.456,-4.456l0,-30.359c0,-2.459 1.996,-4.456 4.456,-4.456l29.284,0c2.459,0 4.456,1.996 4.456,4.456Z" style="fill:none;stroke:#000;stroke-width:3.34px;stroke-linecap:round;stroke-linejoin:round;stroke-miterlimit:1.5;"/><path d="M28.676,55.636l0,2.612" style="fill:none;stroke:#000;stroke-width:3.34px;stroke-linecap:round;stroke-linejoin:round;stroke-miterlimit:1.5;"/><path d="M33.388,56.328l0,-1.957" style="fill:none;stroke:#000;stroke-width:3px;stroke-linecap:round;stroke-linejoin:round;stroke-miterlimit:1.5;"/><path d="M45.536,55.636l0,1.63" style="fill:none;stroke:#000;stroke-width:3.34px;stroke-linecap:round;stroke-linejoin:round;stroke-miterlimit:1.5;"/><path d="M55.098,49.567l2.105,0" style="fill:none;stroke:#000;stroke-width:3.34px;stroke-linecap:round;stroke-linejoin:round;stroke-miterlimit:1.5;"/><path d="M61.552,36.001l-2.463,0" style="fill:none;stroke:#000;stroke-width:3.34px;stroke-linecap:round;stroke-linejoin:round;stroke-miterlimit:1.5;"/><path d="M55.098,26.054l3.009,0" style="fill:none;stroke:#000;stroke-width:3.34px;stroke-linecap:round;stroke-linejoin:round;stroke-miterlimit:1.5;"/><path d="M49.696,16.365l0,-2.2" style="fill:none;stroke:#000;stroke-width:3.34px;stroke-linecap:round;stroke-linejoin:round;stroke-miterlimit:1.5;"/><path d="M36,10.448l0,2.735" style="fill:none;stroke:#000;stroke-width:3.34px;stroke-linecap:round;stroke-linejoin:round;stroke-miterlimit:1.5;"/><path d="M27.82,16.365l0,-2.2" style="fill:none;stroke:#000;stroke-width:3.34px;stroke-linecap:round;stroke-linejoin:round;stroke-miterlimit:1.5;"/><path d="M10.448,36.001l3.052,0" style="fill:none;stroke:#000;stroke-width:3.34px;stroke-linecap:round;stroke-linejoin:round;stroke-miterlimit:1.5;"/><path d="M16.902,25.089l-2.371,0" style="fill:none;stroke:#000;stroke-width:3.34px;stroke-linecap:round;stroke-linejoin:round;stroke-miterlimit:1.5;"/><path d="M16.902,47.758l-2.419,0" style="fill:none;stroke:#000;stroke-width:3.34px;stroke-linecap:round;stroke-linejoin:round;stroke-miterlimit:1.5;"/><path d="M45.549,23.589l0,24.825" style="fill:none;stroke:#000;stroke-width:3.34px;stroke-linecap:round;stroke-linejoin:round;stroke-miterlimit:1.5;"/><path d="M26.451,48.413l0,-24.825" style="fill:none;stroke:#000;stroke-width:3.34px;stroke-linecap:round;stroke-linejoin:round;stroke-miterlimit:1.5;"/></svg>