<?xml version="1.0" encoding="UTF-8" standalone="no"?><!DOCTYPE svg PUBLIC "-//W3C//DTD SVG 1.1//EN" "http://www.w3.org/Graphics/SVG/1.1/DTD/svg11.dtd"><svg width="100%" height="100%" viewBox="0 0 72 72" version="1.1" xmlns="http://www.w3.org/2000/svg" xmlns:xlink="http://www.w3.org/1999/xlink" xml:space="preserve" xmlns:serif="http://www.serif.com/" style="fill-rule:evenodd;clip-rule:evenodd;stroke-linejoin:round;stroke-miterlimit:2;"><g><path d="M56.706,17.304c0.831,0.736 0.791,0.737 1.867,1.81c-0.194,0.427 -0.423,0.178 -0.605,0.579c-0.123,0.271 0.294,0.255 0.116,0.501c-0.155,0.214 -0.565,0.117 -0.721,0.331c-1.205,-1.202 -1.217,-1.144 -2.606,-2.166c-2.424,-2.384 -2.812,-1.71 -9.281,-1.71c-24.066,0.003 -24.177,-0.274 -26.062,0.617c-0.393,0.186 -3.66,2.87 -3.884,3.24c-0.256,0.424 -0.21,0.866 -0.202,0.943c0.072,0.689 0.362,0.585 0.436,1.292c-0.019,0.259 -0.347,0.428 -0.367,0.687c-0.249,3.36 1.003,3.341 0.108,11.071c0.041,1.3 -0.204,3.721 1.073,3.862c0.544,0.06 20.191,-0.404 28.93,-0.077c3.836,0.144 3.821,-0.241 6.989,0.253c3.915,0.61 3.886,-0.017 4.706,-0.193c0.284,3.058 0.303,3.031 0.054,6.119c-0.496,0.269 -0.285,0.655 -1.788,0.969c-0.272,0.057 -0.246,0.038 -3.419,0.584c0.38,0.851 0.759,1.702 1.139,2.553l0.275,0.934c-0.226,0.067 -0.439,-0.309 -0.664,-0.242c-0.476,0.142 -0.773,0.673 -1.25,0.814c-0.8,0.236 -1.141,-0.026 -1.219,-0.085c-0.7,-0.537 -0.115,-0.939 -0.819,-1.479c-0.142,-0.219 0.941,-1.137 -0.86,-1.327c-0.088,-0.009 -0.322,-0.034 -1.107,-0.035c-0.984,-0.002 -1.968,0.03 -2.952,0.029c-8.815,-0.089 -8.78,-0.229 -14.179,0.108c-5.028,0.052 -4.988,-0.186 -10.011,-0.09c-3.888,0.37 -3.898,0.004 -4.229,0.074c-0.254,0.054 -0.583,2.036 -0.614,2.217c-0.09,0.652 -0.18,1.305 -0.271,1.957c-0.643,0.111 -1.285,0.221 -1.928,0.332c0.001,-0.793 0.001,-1.586 0.002,-2.378c0.134,-1.281 0.268,-2.563 0.402,-3.844c-0.105,-3.066 -0.063,-3.015 0.063,-6.054c-0.974,-11.046 0.964,-17.395 -1.423,-17.773c-0.344,-0.054 -0.73,0.122 -1.043,-0.031c-0.507,-0.247 -0.776,-0.856 -1.284,-1.104c0.193,-0.111 2.415,-1.392 2.415,-1.392c0.098,-0.02 0.656,0.741 3.762,-2.039c1.8,-1.611 1.209,-2.609 3.24,-2.648c3.541,-0.068 3.51,-0.339 7.009,-0.05c2.089,0.172 22.03,0.099 22.971,-0.035c4.517,-0.642 4.624,-0.009 7.227,2.876Z" style="fill:#524d4c;"/><path d="M54.758,18.36c-0.685,1.564 -0.708,1.52 -1.051,3.198l0.594,1.349c-2.819,0.383 -2.792,0.231 -5.621,0.207c-2.298,-0.239 -5.347,-0.555 -28.877,-0.132c0.215,0.238 0.335,-0.157 0.557,0.088c1.289,1.426 0.937,1.646 1.08,1.723c0.047,0.025 9.224,-0.104 10.026,-0.115c1.851,0.093 1.81,0.115 14.026,-0.051c0.343,0.523 1.592,2.175 0.954,2.95c-0.205,0.249 -0.601,0.304 -0.924,0.292c-0.048,-0.002 -1.017,-0.903 -1.228,0.514c-0.165,1.114 -0.384,1.001 -0.801,2.089c-1.333,-0.045 -2.666,-0.09 -3.999,-0.135c-4.667,0.242 -4.617,0.783 -9.027,0.381c-4.405,-0.402 -5.267,-0.582 -8.989,-0.325c0.149,0.333 -0.088,0.761 0.061,1.094c0.079,0.177 0.407,0.087 0.533,0.235c0.302,0.355 0.394,0.857 0.696,1.213c-1.174,0.548 -1.156,0.599 -1.268,0.592c-0.533,-0.034 -0.369,-0.365 -0.861,-0.397c-0.669,0.907 -1.019,0.649 -1.598,2.166c-0.035,0.093 -0.786,0.901 -0.88,0.946c-0.651,0.316 -1.387,-0.508 -2.653,-1.74c0.896,-7.73 -0.357,-7.711 -0.108,-11.071c0.019,-0.259 0.347,-0.428 0.367,-0.687c-0.074,-0.707 -0.364,-0.603 -0.436,-1.292c-0.008,-0.077 -0.054,-0.519 0.202,-0.943c0.224,-0.37 3.491,-3.055 3.884,-3.24c1.886,-0.891 1.996,-0.614 26.062,-0.617c6.469,-0.001 6.857,-0.674 9.281,1.71Z" style="fill:#615c5b;"/><path d="M10.081,20.593c0.507,0.247 0.776,0.856 1.284,1.104c0.313,0.152 0.699,-0.024 1.043,0.031c2.387,0.378 0.449,6.727 1.423,17.773c-0.509,-0 -0.858,-0.681 -1.367,-0.681c-1.829,-0 -1.193,0.846 -1.155,2.68c0.006,0.293 0.05,2.406 0.493,3.63c0.107,0.296 0.261,0.687 0.569,0.754c0.468,0.101 0.929,-0.43 1.397,-0.329c-0.134,1.281 -0.268,2.563 -0.402,3.844c-1.413,0.974 -1.245,1.193 -1.023,2.923c0.109,0.85 0.965,1.995 0.708,2.852c-0.295,0.981 -0.804,1.188 0.063,1.766c0.955,0.636 0.975,0.554 1.702,1.393c1.328,1.533 1.645,0.776 3.414,-0.185l2.149,0.426l0.891,0.31c0.214,0.035 0.076,0.548 0.29,0.583c0.174,0.028 0.14,-0.077 1.928,-1.055c0.637,0.071 1.273,0.143 1.91,0.214c7.527,0.201 7.522,0.026 8.162,-0.003c0.648,-0.011 1.296,-0.022 1.944,-0.032c7.083,0.079 7.051,0.195 14.158,0.087c0.275,-0.048 0.535,-0.163 0.809,-0.211c1.773,-0.307 1.815,0.07 1.931,-0.032c0.126,-0.111 -0.006,-0.138 -0.093,-2.098c0.213,-0.093 0.137,-0.51 0.35,-0.603c0.302,-0.131 0.777,0.06 0.84,0.085c0.632,0.254 0.47,0.442 1.058,0.679c0.303,1.466 -0.124,1.77 1.175,2.541c1.02,0.606 1.884,-0.027 1.919,-0.438c0.032,-0.371 -0.345,-0.785 -0.157,-1.106c0.134,-0.227 1.376,0.073 2.331,-0.527c1.698,-1.067 0.403,-1.382 0.053,-1.732c-0.91,-0.913 -0.403,-1.089 -0.315,-2.946c0.29,-0.573 0.76,0.206 1.046,-0.36c0.064,-0.126 0.453,-0.895 0.03,-1.765c-0.123,-0.253 -0.601,0.255 -0.838,0.104c-0.655,-0.419 -0.453,-0.597 -0.535,-9.701c0.327,-0.198 0.751,-0.192 1.078,-0.389c0.395,-0.239 0.701,-2.288 0.571,-2.482c-0.376,-0.562 -1.262,-0.634 -1.638,-1.196c-0.016,-1.044 -0.154,-9.825 0.099,-13.051c0.159,-2.026 1.063,-1.56 2.122,-2.105c0.515,-0.264 0.99,-0.6 1.505,-0.865c-0.543,2.483 0.256,9.654 0.258,9.991c0.043,11.948 0.089,12.921 0.142,14.044c-0.593,2.447 -0.448,2.436 -0.328,4.946c0.408,7.629 0.186,9.123 0.069,9.907c-0.535,0.729 -1.069,1.457 -1.604,2.186c-0.481,0.034 -0.362,0.298 -0.885,0.335c-0.172,0.012 -0.138,-0.042 -2.146,-0.121c-6.016,-0.239 -5.977,-0.359 -12.028,-0.048c-15.288,-0.707 -20.317,-0.85 -21.983,-0.809c-4.228,0.104 -9.66,1.899 -13.603,0.211c-2.479,-4.407 -0.792,-4.747 -1.058,-10.593c-0.206,-4.524 -0.282,-4.491 -0.281,-9.024c0.131,-7.02 -0.149,-6.982 0.179,-14.009c0.098,-3.075 0.049,-3.038 0.26,-6.137l0.083,-0.764Z" style="fill:#4a4542;"/><path d="M15.512,10.706c0.659,0.164 1.318,0.329 1.977,0.493c4.503,0.317 4.452,-0.339 9.004,-0.368c14.513,-0.093 14.492,0.575 29.012,-0.164c4.837,-0.246 5.598,0.694 5.994,0.835c1.726,1.576 1.643,1.7 1.887,4.009c-0.371,0.428 -1.011,0.561 -1.383,0.989c-0.265,0.306 -0.264,0.769 -0.452,1.127c-0.246,0.467 -0.574,0.886 -0.846,1.339c-0.444,0.741 -0.636,0.341 -2.133,0.149c-1.076,-1.074 -1.036,-1.074 -1.867,-1.81c-2.604,-2.885 -2.71,-3.517 -7.227,-2.876c-0.942,0.134 -20.882,0.207 -22.971,0.035c-3.499,-0.289 -3.469,-0.017 -7.009,0.05c-2.031,0.039 -1.44,1.037 -3.24,2.648c-3.106,2.781 -3.664,2.019 -3.762,2.039c0,0 -2.222,1.281 -2.415,1.392l-0.083,0.764c0.132,-4.07 -0.38,-4.052 0.011,-8.084c0.1,-0.625 0.201,-1.25 0.301,-1.875c0.21,-0.218 -0.007,-0.668 0.204,-0.887c0.278,-0.288 0.341,-0.13 4.999,0.193Z" style="fill:#5b5551;"/><path d="M22.766,32.933c7.252,-1.342 10.24,1.355 12.612,0.277c3.535,-1.607 15.799,-0.449 18.146,-0.77c0.803,-0.11 1.583,-0.464 2.394,-0.434c0.484,0.018 0.852,0.555 1.336,0.573l0.207,1.916c-0.808,1.066 -1.985,1.854 -1.985,1.854c0,0 1.299,0.107 1.949,0.16c-0.074,0.612 -0.147,1.224 -0.221,1.836c-0.819,0.177 -0.79,0.803 -4.706,0.193c-3.168,-0.493 -3.154,-0.109 -6.989,-0.253c-8.74,-0.327 -28.387,0.137 -28.93,0.077c-1.277,-0.141 -1.032,-2.562 -1.073,-3.862c1.266,1.232 2.002,2.056 2.653,1.74c0.094,-0.046 0.844,-0.853 0.88,-0.946c0.579,-1.516 0.929,-1.259 1.598,-2.166c0.491,0.031 0.327,0.362 0.861,0.397c0.112,0.007 0.094,-0.044 1.268,-0.592Z" style="fill:#646060;"/><path d="M22.506,53.48c0.246,-0.046 0.205,0.04 3.091,-0.451c3.389,0.753 3.388,0.592 6.859,0.272c6.593,-0.061 6.551,0.708 13.109,0.377c3.491,0.297 3.428,-0.457 6.905,-0.463c0.378,0.126 0.644,0.493 1.022,0.619c0.298,0.099 0.672,-0.127 0.94,0.036c0.042,0.025 -0.216,0.06 0.106,0.601c0.346,0.58 0.494,0.406 0.816,0.945l-0.796,1.081c-0.588,-0.237 -0.426,-0.424 -1.058,-0.679c-0.063,-0.025 -0.538,-0.216 -0.84,-0.085c-0.213,0.093 -0.137,0.51 -0.35,0.603c-1.178,-0.359 -3.228,-1.16 -3.342,0.225c-0.03,0.366 0.415,0.666 0.384,1.032c-3.955,-0.889 -4.103,0.434 -7.993,-0.689c-1.288,-0.372 -1.286,-0.151 -2.988,-0.069c-0.571,-0.401 -0.619,-1.32 -1.19,-1.721c-0.174,-0.122 -0.085,0.53 -2.578,0.66c-0.342,0.018 -0.718,-0.253 -1.023,-0.097c-0.508,0.26 -0.684,0.969 -1.193,1.229c-1.367,-0.016 -1.316,-0.023 -2.732,-0.033c-0.34,-0.002 -3.888,-0.028 -4.214,0.583c-0.183,0.344 0.141,0.825 -0.043,1.17c-0.637,-0.071 -1.273,-0.143 -1.91,-0.214c-0.381,-0.368 -0.512,-0.947 -0.893,-1.315c-0.393,-0.379 -0.941,-0.518 -1.032,-0.541c-0.358,-0.091 -0.31,0.201 -0.691,0.104c0.131,-0.37 -0.353,-0.786 -0.222,-1.156c0.028,-0.079 0.177,0.119 0.85,-0.615c0.59,-0.644 0.405,-0.754 1.006,-1.409Z" style="fill:#4e4845;"/><path d="M54.3,22.906c1.023,0.031 2.47,0.263 2.683,0.298c0.414,2.492 0.423,2.477 0.21,7.232c-0.422,0.044 -0.244,0.35 -0.693,0.397c-0.076,0.008 -0.039,-0.076 -0.933,-0.227c-1.347,-0.228 -5.645,-0.155 -6.046,-0.204c-2.52,-0.305 -2.498,0.046 -5.028,0.08c-0.334,0.005 -0.668,-0.017 -1.002,-0.013c0.417,-1.088 0.636,-0.975 0.801,-2.089c0.21,-1.417 1.179,-0.516 1.228,-0.514c0.323,0.012 0.718,-0.042 0.924,-0.292c0.638,-0.775 -0.611,-2.427 -0.954,-2.95c2.988,-0.027 3.047,0.178 3.196,-0.029c0.289,-0.401 -0.296,-1.082 -0.007,-1.483c2.829,0.024 2.802,0.176 5.621,-0.207Z" style="fill:#625d5c;"/><path d="M63.387,15.511c-0.076,2.5 -0.013,2.46 -0.382,4.969c-0.515,0.264 -0.99,0.6 -1.505,0.865c-1.06,0.545 -1.963,0.079 -2.122,2.105c-0.253,3.226 -0.115,12.007 -0.099,13.051c-0.055,2.059 -0.083,2.006 -0.01,4.067c0.082,9.104 -0.12,9.282 0.535,9.701c0.237,0.152 0.715,-0.357 0.838,-0.104c0.423,0.871 0.034,1.639 -0.03,1.765c-0.287,0.566 -0.756,-0.213 -1.046,0.36l-1.002,-0.073c-0.131,-0.278 -0.724,-0.238 -0.799,-1.69c-0.028,-0.543 0.006,-0.501 -0.02,-1c-0.456,-3.774 -0.459,-3.75 -0.492,-4.076c-0.051,-0.508 0.057,-0.484 0.007,-0.986c0.25,-3.088 0.231,-3.061 -0.054,-6.119c0.074,-0.612 0.147,-1.224 0.221,-1.836c0.012,-0.672 0.024,-1.343 0.036,-2.015l-0.207,-1.916c-0.02,-0.714 -0.04,-1.428 -0.06,-2.142c0.214,-4.755 0.204,-4.74 -0.21,-7.232c0.369,-1.345 0.276,-1.315 0.38,-2.678c0.155,-0.214 0.565,-0.117 0.721,-0.331c0.179,-0.246 -0.238,-0.231 -0.116,-0.501c0.181,-0.401 0.411,-0.151 0.605,-0.579c1.496,0.192 1.688,0.591 2.133,-0.149c0.272,-0.453 0.6,-0.872 0.846,-1.339c0.189,-0.358 0.187,-0.821 0.452,-1.127c0.371,-0.428 1.011,-0.561 1.383,-0.989Z" style="fill:#231f1e;"/><path d="M21.476,30.392c3.722,-0.258 4.584,-0.077 8.989,0.325c4.41,0.402 4.36,-0.139 9.027,-0.381c1.333,0.045 2.666,0.09 3.999,0.135c0.334,-0.005 0.668,0.017 1.002,0.013c2.53,-0.035 2.507,-0.385 5.028,-0.08c0.4,0.048 4.698,-0.025 6.046,0.204c0.893,0.151 0.856,0.235 0.933,0.227c0.449,-0.047 0.271,-0.353 0.693,-0.397c0.02,0.714 0.04,1.428 0.06,2.142c-0.484,-0.018 -0.852,-0.555 -1.336,-0.573c-0.81,-0.03 -1.59,0.324 -2.394,0.434c-2.348,0.321 -14.611,-0.837 -18.146,0.77c-2.372,1.078 -5.359,-1.619 -12.612,-0.277c-0.302,-0.355 -0.394,-0.857 -0.696,-1.213c-0.126,-0.148 -0.454,-0.058 -0.533,-0.235c-0.149,-0.333 0.088,-0.761 -0.061,-1.094Z" style="fill:#504a48;"/><path d="M44.593,47.179c0.984,0.002 1.968,-0.03 2.952,-0.029c0.786,0.001 1.019,0.026 1.107,0.035c1.801,0.19 0.718,1.108 0.86,1.327c-4.628,1.767 -3.441,2.968 -3.535,4.422c-0.018,0.283 -0.394,0.461 -0.413,0.744c-6.557,0.331 -6.516,-0.438 -13.109,-0.377c0.02,-0.156 0.339,-0.151 0.359,-0.308c0.112,-0.861 -0.089,-1.307 -0.136,-1.41c-0.317,-0.704 -0.676,-0.391 -0.985,-1.077c0.278,-0.554 0.555,-1.108 0.833,-1.663c5.284,0.027 5.285,-0.156 5.737,-0.076c1.588,0.281 1.29,1.65 1.323,1.682c0.731,0.701 3.383,0.826 3.913,0.395c0.35,-0.285 -0.02,-0.932 0.162,-1.345c0.176,-0.4 0.703,-0.58 0.866,-0.986c0.166,-0.414 -0.1,-0.922 0.066,-1.335Z" style="fill:#635f5e;"/><path d="M20.404,47.197c5.023,-0.096 4.983,0.142 10.011,0.09c0.704,0.519 1.408,1.038 2.112,1.557c-0.278,0.554 -0.555,1.108 -0.833,1.663c0.309,0.686 0.668,0.372 0.985,1.077c0.047,0.103 0.247,0.549 0.136,1.41c-0.02,0.156 -0.339,0.151 -0.359,0.308c-3.471,0.32 -3.47,0.481 -6.859,-0.272c-0.805,-1.166 -0.749,-1.146 -1.303,-2.417c-1.275,-2.928 -2.628,-1.64 -2.946,-1.879c-0.48,-0.362 -0.465,-1.175 -0.945,-1.537Z" style="fill:#676362;"/><path d="M19.802,22.981c23.53,-0.424 26.579,-0.107 28.877,0.132c-0.289,0.401 0.296,1.082 0.007,1.483c-0.149,0.208 -0.208,0.002 -3.196,0.029c-12.215,0.166 -12.174,0.145 -14.026,0.051c-0.802,0.011 -9.979,0.14 -10.026,0.115c-0.143,-0.077 0.209,-0.297 -1.08,-1.723c-0.222,-0.246 -0.341,0.15 -0.557,-0.088Z" style="fill:#877f7e;"/><path d="M20.404,47.197c0.48,0.362 0.465,1.175 0.945,1.537c0.317,0.239 1.67,-1.049 2.946,1.879c0.553,1.271 0.498,1.251 1.303,2.417c-2.887,0.491 -2.846,0.405 -3.091,0.451l-1.953,-0.193c-0.883,-1.257 -0.894,-1.207 -1.476,-2.597c-0.115,-0.274 -0.225,-0.537 -3.515,-1.202c0.03,-0.182 0.36,-2.163 0.614,-2.217c0.331,-0.07 0.34,0.295 4.229,-0.074Z" style="fill:#5d5958;"/><path d="M30.415,47.286c5.399,-0.337 5.363,-0.197 14.179,-0.108c-0.166,0.414 0.1,0.922 -0.066,1.335c-0.163,0.406 -0.689,0.586 -0.866,0.986c-0.182,0.413 0.188,1.06 -0.162,1.345c-0.53,0.431 -3.181,0.305 -3.913,-0.395c-0.033,-0.032 0.265,-1.401 -1.323,-1.682c-0.452,-0.08 -0.453,0.103 -5.737,0.076c-0.704,-0.519 -1.408,-1.038 -2.112,-1.557Z" style="fill:#6a6766;"/><path d="M49.513,48.512c0.704,0.54 0.119,0.941 0.819,1.479c0.078,0.06 0.419,0.321 1.219,0.085c0.477,-0.141 0.774,-0.671 1.25,-0.814c0.226,-0.067 0.439,0.309 0.664,0.242l0.012,1.004c-0.584,1.352 -0.596,1.311 -1.007,2.708c-3.477,0.006 -3.413,0.76 -6.905,0.463c0.018,-0.283 0.394,-0.461 0.413,-0.744c0.094,-1.454 -1.093,-2.655 3.535,-4.422Z" style="fill:#5e5a59;"/><path d="M13.365,49.399c-0.001,0.793 -0.001,1.586 -0.002,2.378c0.299,0.29 0.878,0.129 1.177,0.419c1.068,1.035 0.624,1.317 1.698,2.41c2.996,2.946 1.973,3.41 1.991,3.541c-1.769,0.961 -2.086,1.718 -3.414,0.185c-0.727,-0.839 -0.746,-0.757 -1.702,-1.393c-0.868,-0.578 -0.359,-0.785 -0.063,-1.766c0.258,-0.856 -0.599,-2.002 -0.708,-2.852c-0.222,-1.73 -0.39,-1.949 1.023,-2.923Z" style="fill:#585453;"/><path d="M58.562,52.217l1.002,0.073c-0.088,1.857 -0.594,2.033 0.315,2.946c0.349,0.35 1.645,0.665 -0.053,1.732c-0.955,0.6 -2.197,0.299 -2.331,0.527c-0.188,0.321 0.189,0.735 0.157,1.106c-0.036,0.411 -0.899,1.043 -1.919,0.438c-1.299,-0.771 -0.872,-1.075 -1.175,-2.541l0.796,-1.081c1.128,-0.939 2.963,-2.932 3.208,-3.199Z" style="fill:#625d5d;"/><path d="M38.371,56.834c1.702,-0.082 1.7,-0.303 2.988,0.069c3.89,1.123 4.038,-0.2 7.993,0.689l0.31,1.085c-7.107,0.108 -7.075,-0.008 -14.158,-0.087c0.45,-0.574 0.183,-0.697 0.619,-1.255c0.038,-0.048 0.22,-0.281 0.66,-0.379c0.518,-0.116 1.07,-0.007 1.588,-0.122Z" style="fill:#5a5553;"/><path d="M56.238,49.849l1.505,-0.322c0.026,0.5 -0.008,0.458 0.02,1c0.075,1.452 0.668,1.412 0.799,1.69c-0.245,0.267 -2.08,2.26 -3.208,3.199c-0.322,-0.54 -0.47,-0.365 -0.816,-0.945c-0.322,-0.54 -0.064,-0.575 -0.106,-0.601c-0.268,-0.163 -0.643,0.063 -0.94,-0.036c-0.378,-0.126 -0.644,-0.493 -1.022,-0.619c0.411,-1.397 0.423,-1.356 1.007,-2.708c0.375,0.239 0.751,0.478 1.126,0.716c0.426,-0.209 0.451,0.23 0.874,0.023c0.114,-0.056 0.056,-0.102 0.761,-1.398Z" style="fill:#534e4c;"/><path d="M17.498,53.465c1.018,-0.059 2.037,-0.119 3.055,-0.178l1.953,0.193c-0.601,0.655 -0.415,0.765 -1.006,1.409c-0.672,0.734 -0.822,0.536 -0.85,0.615c-0.131,0.37 0.353,0.786 0.222,1.156c-0.165,0.638 -0.33,1.276 -0.494,1.914l-2.149,-0.426c-0.018,-0.131 1.006,-0.596 -1.991,-3.541l1.259,-1.142Z" style="fill:#3e3936;"/><path d="M57.258,44.464c0.051,0.502 -0.058,0.478 -0.007,0.986c0.033,0.327 0.036,0.302 0.492,4.076l-1.505,0.322c-0.249,-0.448 -0.499,-0.896 -0.748,-1.343c-0.767,0.021 -1.533,0.043 -2.3,0.064c-0.38,-0.851 -0.759,-1.702 -1.139,-2.553c3.173,-0.546 3.147,-0.528 3.419,-0.584c1.503,-0.314 1.292,-0.7 1.788,-0.969Z" style="fill:#524c49;"/><path d="M13.83,39.5c-0.126,3.039 -0.168,2.988 -0.063,6.054c-0.468,-0.101 -0.929,0.43 -1.397,0.329c-0.308,-0.066 -0.461,-0.458 -0.569,-0.754c-0.444,-1.225 -0.487,-3.337 -0.493,-3.63c-0.038,-1.834 -0.675,-2.681 1.155,-2.68c0.509,0 0.858,0.681 1.367,0.681Z" style="fill:#5e5a59;"/><path d="M32.387,56.905c0.391,0.572 0.782,1.145 1.173,1.717c-0.64,0.029 -0.634,0.204 -8.162,0.003c0.183,-0.344 -0.141,-0.825 0.043,-1.17c0.326,-0.611 3.874,-0.586 4.214,-0.583c1.416,0.01 1.365,0.016 2.732,0.033Z" style="fill:#625e5e;"/><path d="M54.758,18.36c1.389,1.022 1.401,0.964 2.606,2.166c-0.105,1.363 -0.011,1.333 -0.38,2.678c-0.213,-0.034 -1.66,-0.267 -2.683,-0.298l-0.594,-1.349c0.343,-1.678 0.366,-1.634 1.051,-3.198Z" style="fill:#4a4542;"/><path d="M15.561,49.488c3.29,0.664 3.4,0.927 3.515,1.202c0.582,1.389 0.593,1.339 1.476,2.597c-1.018,0.059 -2.037,0.119 -3.055,0.178c-0.929,-1.204 -0.978,-1.099 -2.207,-2.019c0.09,-0.652 0.18,-1.305 0.271,-1.957Z" style="fill:#514c4b;"/><path d="M32.387,56.905c0.508,-0.26 0.684,-0.969 1.193,-1.229c0.305,-0.156 0.681,0.115 1.023,0.097c2.493,-0.13 2.404,-0.782 2.578,-0.66c0.571,0.401 0.619,1.32 1.19,1.721c-0.518,0.116 -1.07,0.007 -1.588,0.122c-0.44,0.098 -0.623,0.331 -0.66,0.379c-0.437,0.558 -0.169,0.681 -0.619,1.255c-0.648,0.011 -1.296,0.022 -1.944,0.032c-0.391,-0.572 -0.782,-1.145 -1.173,-1.717Z" style="fill:#534d4b;"/><path d="M52.31,56.335c0.086,1.96 0.219,1.987 0.093,2.098c-0.116,0.102 -0.158,-0.275 -1.931,0.032c-0.275,0.048 -0.535,0.163 -0.809,0.211l-0.31,-1.085c0.03,-0.366 -0.415,-0.666 -0.384,-1.032c0.114,-1.384 2.164,-0.584 3.342,-0.225Z" style="fill:#4a4644;"/><path d="M13.363,51.778c0.643,-0.111 1.285,-0.221 1.928,-0.332c1.229,0.921 1.277,0.815 2.207,2.019l-1.259,1.142c-1.074,-1.093 -0.63,-1.375 -1.698,-2.41c-0.299,-0.29 -0.878,-0.129 -1.177,-0.419Z" style="fill:#46413f;"/><path d="M59.279,36.5c0.376,0.562 1.262,0.634 1.638,1.196c0.13,0.195 -0.176,2.243 -0.571,2.482c-0.327,0.198 -0.751,0.192 -1.078,0.389c-0.073,-2.061 -0.045,-2.008 0.01,-4.067Z" style="fill:#676362;"/><path d="M55.49,48.506c0.249,0.448 0.499,0.896 0.748,1.343c-0.706,1.296 -0.647,1.342 -0.761,1.398c-0.423,0.207 -0.448,-0.232 -0.874,-0.023c-0.375,-0.239 -0.751,-0.478 -1.126,-0.716l-0.012,-1.004c0.675,-0.333 1.35,-0.665 2.025,-0.998Z" style="fill:#3e3a38;"/><path d="M20.873,56.659c0.381,0.097 0.334,-0.195 0.691,-0.104c0.09,0.023 0.638,0.162 1.032,0.541c0.381,0.368 0.512,0.947 0.893,1.315c-0.74,0.157 -1.479,0.315 -2.219,0.472l-0.891,-0.31c0.165,-0.638 0.33,-1.276 0.494,-1.914Z" style="fill:#59514e;"/><path d="M58.546,14.681c0.133,0.062 1.124,-0.555 1.843,0.86c0.694,1.364 -2.326,1.708 -2.283,-0.436c0.004,-0.203 0.435,-0.22 0.439,-0.424Z" style="fill:#322d2a;"/><path d="M59.325,56.369c0.18,0.354 0.456,0.834 0.157,1.278c-0.854,1.27 -2.853,-0.43 -1.31,-1.919c0.146,-0.141 1.061,0.46 1.153,0.642Z" style="fill:#322d2a;"/><path d="M14.663,57.763c-0.113,0.095 0.029,1.253 -1.557,1.309c-1.529,0.055 -0.569,-2.829 1.358,-1.886c0.183,0.089 0.016,0.487 0.199,0.577Z" style="fill:#322d2a;"/><path d="M14.196,13.997c-0.005,0.147 0.817,0.356 -0.203,1.572c-0.984,1.172 -3.102,-1.356 -1.111,-2.155c0.189,-0.076 1.126,0.659 1.314,0.583Z" style="fill:#322d2a;"/><path d="M57.461,34.495c-0.012,0.672 -0.024,1.343 -0.036,2.015c-0.65,-0.053 -1.299,-0.107 -1.949,-0.16c0.662,-0.618 1.323,-1.236 1.985,-1.854Z" style="fill:#575352;"/><path d="M53.19,48.57c0.767,-0.021 1.533,-0.043 2.3,-0.064c-0.675,0.333 -1.35,0.665 -2.025,0.998l-0.275,-0.934Z" style="fill:#534844;"/><path d="M21.27,58.884c0.74,-0.157 1.479,-0.315 2.219,-0.472c-1.788,0.978 -1.755,1.083 -1.928,1.055c-0.214,-0.035 -0.076,-0.548 -0.29,-0.583Z" style="fill:#4e4948;"/><path d="M55.724,41.482c-0.05,0.587 0.459,0.426 0.408,1.018c-0.006,0.068 -0.038,0.438 -0.551,0.648c-0.256,0.105 -0.57,-0.19 -0.826,-0.085c0.323,-0.527 0.646,-1.054 0.97,-1.581Z" style="fill:#4b4747;"/><path d="M18.564,26.548c-0.251,0.146 -0.2,0.598 -0.451,0.744c-0.299,0.174 -0.577,-0.092 -0.613,-0.127c-0.61,-0.585 0.331,-0.192 1.064,-0.617Z" style="fill:#585453;"/><path d="M40.265,21.042c1.09,-0.143 1.051,-0.034 2.109,0.102c-0.703,-0.034 -1.406,-0.068 -2.109,-0.102Z" style="fill:#5f5a59;"/></g></svg>