<?xml version="1.0" encoding="UTF-8" standalone="no"?><!DOCTYPE svg PUBLIC "-//W3C//DTD SVG 1.1//EN" "http://www.w3.org/Graphics/SVG/1.1/DTD/svg11.dtd"><svg width="100%" height="100%" viewBox="0 0 72 72" version="1.1" xmlns="http://www.w3.org/2000/svg" xmlns:xlink="http://www.w3.org/1999/xlink" xml:space="preserve" xmlns:serif="http://www.serif.com/" style="fill-rule:evenodd;clip-rule:evenodd;stroke-linejoin:round;stroke-miterlimit:2;"><g><path d="M26.177,19.14c0.258,0.766 0.684,0.488 0.944,1.26c0.148,0.44 -0.386,0.352 -0.26,0.771c0.047,0.157 0.316,1.046 1.653,1.206c4.238,0.509 3.154,-2.408 3.249,-2.908c0.052,-0.274 0.175,-0.13 2.386,-0.003c0.103,1.797 -0.432,2.089 0.618,2.733c0.702,0.43 0.738,0.181 2.627,0.073c0.352,0.369 0.518,0.889 0.87,1.258c1.077,1.13 1.572,1.313 2.363,-0.051c0.234,-0.404 0.014,-0.975 0.249,-1.379c0.189,0.036 2.732,0.999 3.864,-0.437c0.816,-1.034 1.006,-0.243 2.003,0.602c1.133,0.959 1.611,0.612 1.756,0.735c0.492,0.419 0.514,1.237 1.006,1.656c-2.307,0.441 -2.857,0.68 -2.371,2.993c0.319,1.519 0.801,1.17 2.366,1.126c3.366,-0.095 2.587,-1.875 2.707,-2.169c0.798,0.961 1.597,1.922 2.395,2.883c0.046,0.657 0.092,1.314 0.138,1.97c-0.272,0.436 -1.113,0.244 -1.386,0.68c-0.672,1.077 1.653,1.646 -0.857,5.411c-0.624,0.168 -1.248,0.337 -1.872,0.505c-2.776,-0.085 -3.915,-0.22 -3.491,2.532c0.247,1.604 0.875,1.069 2.457,1.415c-0.026,0.708 1.014,1.174 0.988,1.883c-0.012,0.339 -3.286,0.332 -3.628,1.554c-0.101,0.362 0.093,0.748 0.098,1.125c0.013,0.95 -0.163,1.085 0.627,1.635c1.109,0.772 1.188,-0.426 2.772,-1.741c2.91,-2.416 2.052,-3.587 2.626,-3.321c0,0 2.288,2.159 2.487,2.347c0.055,-0.323 -0.23,-0.644 -0.175,-0.967c0.068,-0.403 0.867,-1.149 1.037,-1.14c0,0 2.242,1.116 2.437,1.213c-0.032,0.151 -0.406,1.89 -0.406,1.89c-0.089,0.179 -0.418,0.101 -0.541,0.259c-0.108,0.139 0.038,0.196 -1.019,1.946c-0.764,1.266 -0.68,1.29 -1.64,2.454c-0.663,0.804 -1.869,1.918 -2.04,2.076c-0.265,0.297 -2.521,2.827 -3.651,3.369c-0.254,0.122 -1.093,-0.074 -2.186,0.638c-1.583,1.032 -1.384,1.226 -1.913,1.894c-4.615,0.975 -4.62,0.915 -5.02,1.002c-2.493,0.358 -2.445,0.542 -4.931,0.784c-0.843,-0.154 -0.834,-0.131 -3.016,-0.395c-0.685,-0.251 -1.369,-0.501 -2.054,-0.752c-3.272,-0.318 -3.232,-0.515 -3.811,-0.662c-0.127,-0.072 -0.087,-0.31 -0.214,-0.382c-0.196,-0.11 -0.316,-0.178 -2.771,-0.473c-0.127,-0.353 -0.074,-0.336 -0.194,-0.67c-0.333,-0.926 -1.028,-0.804 -1.093,-0.855c-1.295,-0.869 -1.483,-0.478 -2.784,-1.342c-0.468,-1.344 -0.417,-1.365 -0.505,-1.451c-0.205,-0.2 -0.635,0.019 -0.84,-0.181c-0.309,-0.331 -0.617,-0.663 -0.926,-0.994c-0.258,-0.495 0.194,-0.547 -0.053,-1.022c-0.179,-0.344 -0.409,-0.009 -0.651,-0.329c-0.169,-0.223 -0.107,-0.553 -0.212,-0.813c-0.34,-0.84 -1.055,-0.946 -1.073,-0.968c-0.191,-0.232 -0.099,-0.615 -0.272,-0.861c-0.112,-0.159 -0.409,-0.106 -0.521,-0.266c-0.041,-0.14 -0.511,-1.749 -0.511,-1.749c-0.248,-0.399 -0.661,-0.68 -0.909,-1.079l-0.728,-1.123c-0.054,-0.324 -0.017,-0.659 -0.071,-0.983c-0.103,-0.624 -0.207,-0.829 -0.24,-0.895c-0.304,-0.603 -0.454,-0.48 -0.766,-1.097c0.051,-2.542 0.017,-2.511 -0.121,-5.077c0.749,-0.574 0.828,-0.401 1.588,-0.983c0.859,-0.659 0.702,-0.81 0.79,-0.839c0.229,-0.076 0.383,0.39 0.624,0.37c0.474,-0.039 0.85,-0.49 1.324,-0.529l0.914,-1.118c0.341,-0.624 0.682,-1.248 1.023,-1.871c1.548,0.813 1.565,0.71 3.322,0.985c0.006,0.155 0.076,1.935 0.076,1.935c0.257,1.824 3.957,1.484 4.193,-0.093c0.192,-1.281 -0.064,-1.251 -0.532,-2.832c-1.496,-0.081 -1.473,-0.083 -2.984,0.043c-1.476,-1.16 -1.525,-1.105 -1.593,-1.252c-0.078,-0.168 0.054,-0.147 0.795,-2.171c0.226,0.086 0.444,0.597 1.804,0.683c2.317,0.147 3.022,-0.144 2.546,-2.403c-0.459,-2.177 -2.35,-1.646 -2.575,-1.716c-0.462,-0.143 -0.835,-0.507 -1.297,-0.65c0.551,-0.991 0.356,-1.109 1.541,-2.349c0.322,-0.284 0.644,-0.569 0.966,-0.853c1.196,-0.941 1.133,-0.994 2.476,-1.699Z" style="fill:#6e6a64;fill-opacity:1;"/><path d="M30.5,11.427c1.572,0.242 1.55,0.14 8.961,0.243c2.486,0.581 2.444,0.699 4.984,0.992l0.152,0.373c2.104,0.446 2.174,0.278 2.77,0.766c0.07,0.058 0.139,0.703 1.08,0.837c0.658,0.094 1.342,-0.053 1.991,0.087c0.139,0.03 0.044,0.356 0.183,0.384c0.222,0.044 0.419,-0.251 0.643,-0.219c0.177,0.025 0.24,0.271 0.391,0.366c0.237,0.15 0.6,0.133 0.761,0.364c0.04,0.057 -0.081,0.058 0.094,0.867c0.233,1.076 0.844,0.915 0.96,1.041c0.034,0.032 0.263,0.61 1.033,0.968c0.163,0.076 0.439,0.005 0.511,0.169c0.091,0.207 -0.18,0.439 -0.147,0.663c0.053,0.362 0.147,0.325 3.194,3.593c0.042,0.124 0.52,1.545 0.52,1.545c0.341,1.098 0.518,0.98 1.043,1.974c0.178,0.421 0.692,0.639 0.87,1.06c0.13,0.307 -0.026,0.667 0.001,1c0.013,0.158 0.145,1.764 0.208,1.968c0.118,0.378 0.473,0.652 0.591,1.029c-0.043,2.796 -0.03,2.779 -0.046,3.02c-0.023,0.338 -0.275,0.635 -0.298,0.973c-0.246,5.316 -0.427,5.283 -1.077,7.096l-0.17,0.925l-0.842,1.078c-0.195,-0.097 -2.437,-1.213 -2.437,-1.213c-0.17,-0.01 -0.969,0.737 -1.037,1.14c-0.055,0.323 0.23,0.644 0.175,0.967c-0.199,-0.188 -2.487,-2.347 -2.487,-2.347c-0.574,-0.266 0.284,0.906 -2.626,3.321c-1.585,1.315 -1.663,2.514 -2.772,1.741c-0.79,-0.55 -0.614,-0.685 -0.627,-1.635c-0.005,-0.376 -0.2,-0.762 -0.098,-1.125c0.342,-1.222 3.616,-1.215 3.628,-1.554c0.026,-0.708 -1.014,-1.174 -0.988,-1.883c0.448,-0.207 2.361,-0.288 2.002,-2.506c-0.183,-1.13 -0.911,-1.356 -0.968,-1.44c0.624,-0.168 1.248,-0.337 1.872,-0.505c0.813,0.365 1.625,0.73 2.438,1.096l-0.207,0.926c0.117,0.362 0.234,0.724 0.351,1.086c1.074,0.555 1.064,1.031 2.132,0.488c1.03,-0.524 1.097,-1.481 1.108,-1.639c0.129,-1.819 -0.203,-1.813 -1.696,-2.849c-0.033,-0.727 -0.066,-1.454 -0.099,-2.18c0.315,-0.055 0.633,0.208 0.948,0.153c0.867,-0.151 0.83,-0.329 0.932,-1.188c0.196,-1.639 0.223,-1.715 -0.766,-3.039c-1.112,-1.489 -0.924,-2.237 -2.012,-1.735c-0.398,0.184 -0.629,0.638 -1.027,0.822c-0.798,-0.961 -1.597,-1.922 -2.395,-2.883c-0.202,-0.393 -0.342,-0.816 -0.544,-1.209c-0.537,-1.045 -0.91,-0.801 -1.111,-0.978c0.015,-0.316 0.22,-0.604 0.235,-0.921c0.055,-1.161 -0.62,-1.649 -0.648,-1.722c0.093,-0.184 1.166,-2.304 1.166,-2.304c-0.114,-1.4 -0.632,-1.639 -1.747,-0.807c-0.325,0.242 -0.519,0.662 -0.886,0.832c-0.37,0.172 -0.846,-0.028 -1.217,0.143c-1.525,-0.443 -1.51,-0.468 -1.647,-0.478c-0.988,-0.077 -0.961,0.006 -1.042,-0.016c-0.167,-0.045 -0.211,-0.292 -0.368,-0.366c-0.197,-0.093 -0.619,0.012 -1.691,-0.719c-1.415,-0.966 -1.513,-0.658 -3.211,-0.603l-1.112,0.343c-0.327,-0.705 -0.486,-0.583 -0.819,-1.303c-0.372,-0.803 -0.162,-0.856 -0.209,-0.915c-0.085,-0.105 -1.733,-1.041 -1.793,-1.026c-0.22,0.055 -0.17,0.429 -0.313,0.605c-0.937,1.152 -0.963,1.085 -1.76,2.315c-2.363,-0.126 -2.447,-0.552 -3.88,0.231c-1.644,0.898 -1.693,0.738 -3.435,1.43c-1.343,0.705 -1.281,0.758 -2.476,1.699c-1.468,-2.497 -1.258,-3.215 -2.134,-2.774c-2.316,1.166 -0.711,1.852 1.168,3.628c-1.185,1.24 -0.989,1.358 -1.541,2.349c-0.416,0.564 -0.832,1.129 -1.248,1.693l-0.395,0.782c-0.229,-0.037 -0.432,0.254 -0.661,0.217c-0.816,-0.132 -0.715,-0.384 -1.517,-0.57c-0.432,-0.1 -0.407,0.123 -0.814,0.028c-0.073,-0.389 -1.091,0.157 -1.164,-0.231c-0.103,-0.543 0.729,-0.884 0.852,-1.423c0.067,-0.293 -0.254,-0.96 -0.292,-1.038c-0.354,-0.736 -0.505,-0.617 -0.866,-1.367c0.155,-0.352 0.203,-0.303 0.364,-0.666c0.484,-1.098 0.157,-1.768 0.167,-1.882c2.185,-0.624 2.443,-1.152 2.544,-1.359c0.033,-0.068 -0.201,-0.032 -0.138,-0.933c0.034,-0.488 0.233,-0.425 0.268,-0.927c0.39,-0.04 0.784,0.107 1.174,0.068c0.574,-0.059 0.795,-0.231 0.852,-0.274c0.595,-0.461 0.349,-0.657 0.944,-1.119l0.25,-0.512c1.474,-0.101 1.443,-0.184 2.903,-0.293l1.23,-0.433c0.446,-0.188 1.57,0.163 3.809,-1.608c0.522,-0.413 0.529,-0.356 1.047,-0.765Z" style="fill:#77746e;fill-opacity:1;"/><path d="M27.062,51.779c1.734,0.8 1.694,0.833 3.539,1.301c1.119,0.284 1.091,-0.002 2.87,-0.543c2.797,1.462 4.8,0.452 5.287,0.321c0.223,0.045 0.491,0.46 1.742,0.355c0.338,-0.028 3.523,-0.914 3.793,-0.979c0.315,-0.084 0.655,-0.038 0.97,-0.123c1.399,-0.374 2.228,-1.274 2.237,-1.275c0.388,-0.026 0.94,0.59 1.004,0.661c0.431,0.481 0.149,0.626 0.575,1.101c-0.114,0.269 0.36,0.572 0.246,0.841c-0.346,0.815 -8.853,5.63 -11.537,3.747c-0.619,-0.435 -0.507,-0.533 -1.166,-0.864c-0.293,-0.147 -0.523,-0.489 -0.851,-0.495c-0.162,-0.003 0.049,0.326 -1.603,1.24c-2.426,1.341 -4.689,0.067 -5.041,-0.131c-1.166,-0.656 -1.955,-0.43 -2.553,-0.724c-1.58,-0.778 -1.334,-1.172 -2.968,-1.849c-1.229,-0.509 -1.169,-0.851 -0.553,-2.018c0.742,-1.405 0.776,-2.209 2.139,-1.356c0.883,0.553 0.871,0.524 1.868,0.788Z" style="fill:#908b83;fill-opacity:1;"/><path d="M39.498,17.46c1.698,-0.054 1.796,-0.362 3.211,0.603c1.071,0.731 1.493,0.627 1.691,0.719c0.157,0.074 0.201,0.321 0.368,0.366c0.08,0.022 0.054,-0.061 1.042,0.016c0.137,0.011 0.122,0.035 1.647,0.478c1.167,1.308 1.098,1.405 2.685,2.135c0.027,0.072 0.702,0.561 0.648,1.722c-0.015,0.316 -0.22,0.604 -0.235,0.921l-1.048,0.237c-0.492,-0.419 -0.514,-1.237 -1.006,-1.656c-0.145,-0.124 -0.623,0.224 -1.756,-0.735c-0.997,-0.845 -1.188,-1.637 -2.003,-0.602c-1.132,1.436 -3.674,0.473 -3.864,0.437c-0.02,-0.085 -0.349,-0.605 -0.372,-1.601c-0.039,-1.637 -0.246,-1.566 -1.006,-3.039Z" style="fill:#272623;"/><path d="M15.087,22.133c0.361,0.75 0.511,0.631 0.866,1.367c0.037,0.078 0.359,0.745 0.292,1.038c-0.123,0.539 -0.955,0.88 -0.852,1.423c0.073,0.389 1.091,-0.157 1.164,0.231c-0.266,0.256 -0.825,-0.067 -1.091,0.189c0,0 -0.6,1.512 -0.652,1.644c-0.332,0.676 -1.379,0.798 -1.71,1.474c-0.164,0.335 0.398,0.644 0.493,1.005c0.654,2.466 -0.04,2.47 0.022,2.675c0.15,0.502 0.449,1.003 0.878,1.304c0.274,0.192 0.73,-0.174 1.004,0.018c-0.474,0.039 -0.85,0.49 -1.324,0.529c-0.241,0.02 -0.394,-0.446 -0.624,-0.37c-0.087,0.029 0.07,0.18 -0.79,0.839c-0.76,0.583 -0.839,0.409 -1.588,0.983c-0.06,-4.831 0.095,-4.928 0.39,-7.966c0.684,-1.616 0.81,-1.527 1.477,-3.168c0.091,-0.306 0.061,-0.638 0.152,-0.944c0.258,-0.869 1.174,-1.373 1.892,-2.272Z" style="fill:#64605b;fill-opacity:1;"/><path d="M18.75,43.431c0.127,0.202 0.065,0.487 0.191,0.688c0.142,0.225 3.188,3.167 4.017,3.927c-1.27,2.009 -0.913,2.681 -3.275,2.974c-0.263,0.033 -0.119,-0.172 -1.985,-2.648c-0.151,-0.201 -1.874,-2.487 -1.84,-2.548c0.382,-0.686 0.883,0.034 1.319,-0.641c0.299,-0.463 -0.734,-0.264 -0.45,-0.704c0.099,-0.075 0.226,-0.109 0.326,-0.185c0.768,-0.583 0.828,-0.422 1.696,-0.864Z" style="fill:#85817a;fill-opacity:1;"/><path d="M33.492,17.479l1.208,0.501c-0.184,0.495 -0.367,0.991 -0.551,1.486c-2.211,-0.128 -2.334,-0.271 -2.386,0.003c-0.095,0.5 0.989,3.417 -3.249,2.908c-1.337,-0.161 -1.606,-1.05 -1.653,-1.206c-0.126,-0.419 0.408,-0.331 0.26,-0.771c-0.26,-0.772 -0.686,-0.493 -0.944,-1.26c1.742,-0.692 1.791,-0.532 3.435,-1.43c1.433,-0.783 1.517,-0.357 3.88,-0.231Z" style="fill:#272623;"/><path d="M18.75,43.431c-0.868,0.442 -0.927,0.281 -1.696,0.864c-0.099,0.075 -0.226,0.109 -0.326,0.185c-0.205,-0.219 -0.106,-0.625 -0.312,-0.844c-0.21,-0.223 -0.581,-0.212 -0.838,-0.379c-0.359,-0.234 -0.758,-2.106 -0.992,-2.77c-0.11,-0.312 -1.223,-3.46 0.945,-4.025c0.271,-0.071 1.031,1.491 1.286,1.798c1.09,1.306 0.056,1.679 0.856,3.169c0.086,0.16 0.08,0.148 1.075,2.003Z" style="fill:#8c877f;fill-opacity:1;"/><path d="M14.815,28.026c2.503,1.347 2.002,1.838 2.437,2.525l0.186,0.962c-0.341,0.624 -0.682,1.248 -1.023,1.871l-0.914,1.118c-0.274,-0.192 -0.73,0.174 -1.004,-0.018c-0.429,-0.301 -0.728,-0.802 -0.878,-1.304c-0.061,-0.205 0.632,-0.209 -0.022,-2.675c-0.096,-0.361 -0.658,-0.67 -0.493,-1.005c0.332,-0.676 1.379,-0.798 1.71,-1.474Z" style="fill:#85807a;fill-opacity:1;"/><path d="M21.194,24.042c0.462,0.143 0.835,0.507 1.297,0.65c0.225,0.07 2.116,-0.462 2.575,1.716c0.476,2.259 -0.229,2.55 -2.546,2.403c-1.36,-0.086 -1.578,-0.597 -1.804,-0.683c-0.084,-0.218 0.054,-0.482 -0.03,-0.701c-0.217,-0.566 -0.383,-0.451 -0.622,-0.999c-0.153,-0.35 0.026,-0.365 -0.117,-0.694c0.416,-0.564 0.832,-1.129 1.248,-1.693Z" style="fill:#0f0f0c;"/><path d="M49.506,24.657l1.048,-0.237c0.201,0.177 0.574,-0.067 1.111,0.978c0.202,0.393 0.342,0.816 0.544,1.209c-0.12,0.294 0.659,2.074 -2.707,2.169c-1.565,0.044 -2.047,0.393 -2.366,-1.126c-0.486,-2.312 0.064,-2.551 2.371,-2.993Z" style="fill:#141412;"/><path d="M34.7,17.98c1.86,-0.105 1.834,-0.085 3.686,-0.177c-0.022,0.201 0.249,0.362 0.227,0.564c-0.114,1.055 -0.362,0.989 -0.402,2.058c-0.061,1.609 -0.499,1.434 -0.816,1.847c-1.89,0.109 -1.926,0.358 -2.627,-0.073c-1.05,-0.644 -0.515,-0.936 -0.618,-2.733c0.184,-0.495 0.367,-0.991 0.551,-1.486Z" style="fill:#0e0e0c;"/><path d="M54.741,31.46c0.822,1.563 0.765,1.565 1.785,3.018c0.033,0.727 0.066,1.454 0.099,2.18c-0.135,0.159 -0.894,1.05 -1.689,1.988c-0.813,-0.365 -1.625,-0.73 -2.438,-1.096c2.51,-3.764 0.185,-4.334 0.857,-5.411c0.272,-0.436 1.113,-0.244 1.386,-0.68Z" style="fill:#575450;fill-opacity:1;"/><path d="M27.601,31.708c0.312,-0.034 0.574,-0.282 0.886,-0.316c2.432,-0.266 3.186,-0.313 3.291,2.12c0.083,1.933 -0.335,2.13 -2.276,2.135c-2.759,0.007 -2.116,-1.209 -1.902,-3.94Z" style="fill:#171613;"/><path d="M40.482,31.455c2.909,-0.032 4.141,-0.881 4.321,2.055c0.208,3.399 -3.928,1.873 -4.198,1.829c0.006,-0.221 0.08,-2.758 0.08,-2.758c-0.008,-0.381 -0.195,-0.744 -0.203,-1.126Z" style="fill:#161512;"/><path d="M21.513,31.551c1.51,-0.125 1.488,-0.124 2.984,-0.043c0.467,1.581 0.723,1.55 0.532,2.832c-0.236,1.577 -3.935,1.917 -4.193,0.093c-0,-0 -0.07,-1.78 -0.076,-1.935l0.753,-0.947Z" style="fill:#11100e;"/><path d="M37.519,31.403c0.92,1.785 0.734,1.829 0.797,3.825c-1.63,0.375 -1.598,0.587 -2.833,0.412c-1.66,-0.236 -1.96,-3.128 -0.859,-3.895c0.388,-0.27 0.795,-0.318 0.869,-0.327c1.034,-0.122 1.01,0.105 2.027,-0.015Z" style="fill:#181613;"/><path d="M54.603,29.49c0.398,-0.184 0.629,-0.638 1.027,-0.822c1.088,-0.502 0.9,0.246 2.012,1.735c0.989,1.324 0.962,1.4 0.766,3.039c-0.103,0.86 -0.065,1.037 -0.932,1.188c-0.315,0.055 -0.633,-0.208 -0.948,-0.153c-1.02,-1.453 -0.964,-1.455 -1.785,-3.018c-0.046,-0.657 -0.092,-1.314 -0.138,-1.97Z" style="fill:#8b8680;fill-opacity:1;"/><path d="M31.297,24.992c0.155,0.506 0.31,1.013 0.465,1.519c-0.187,0.998 0.593,2.271 -2.254,2.257c-3.124,-0.015 -2.281,-1.699 -1.945,-3.216c0.045,-0.204 -0.109,-0.499 0.059,-0.623c0.281,-0.207 0.321,-0.101 3.675,0.062Z" style="fill:#141311;"/><path d="M47.137,33.519c0.454,-1.633 0.381,-1.664 0.49,-1.762c0.495,-0.448 2.82,-0.375 2.885,-0.337c0.238,0.14 0.159,0.54 0.323,0.762c0.281,0.38 0.618,0.231 0.641,1.315c0.038,1.765 -0.208,2.016 -1.97,2.111c-2.835,0.153 -2.146,-1.229 -2.368,-2.09Z" style="fill:#151411;fill-opacity:1;"/><path d="M19.946,25.735c0.144,0.329 -0.036,0.344 0.117,0.694c0.24,0.548 0.405,0.432 0.622,0.999c0.084,0.218 -0.054,0.482 0.03,0.701c-0.741,2.024 -0.872,2.003 -0.795,2.171c0.068,0.147 0.117,0.092 1.593,1.252l-0.753,0.947c-1.757,-0.275 -1.774,-0.173 -3.322,-0.985l-0.186,-0.962c0.129,-0.332 -0.17,-0.736 -0.041,-1.068c0.074,-0.191 0.076,-0.151 2.339,-2.966l0.395,-0.782Z" style="fill:#43413e;fill-opacity:1;"/><path d="M31.769,46.536c-0.238,0.658 0.458,1.886 -2.278,1.837c-2.756,-0.049 -2.1,-1.847 -1.986,-2.871c0.065,-0.588 -0.2,-0.998 0.986,-1.075c0.232,-0.015 2.445,-0.16 2.894,0.273c0.108,0.104 0.028,0.134 0.384,1.836Z" style="fill:#11100e;fill-opacity:1;"/><path d="M27.486,38.482c0.454,-0.114 0.374,-0.426 1.998,-0.499c3.215,-0.144 2.72,3.519 1.143,3.866c-3.112,0.685 -3.287,-1.009 -3.316,-1.292c-0.017,-0.166 0.013,-0.154 0.174,-2.075Z" style="fill:#141311;"/><path d="M40.548,44.596c2.923,-0.188 4.263,-0.99 4.249,1.947c-0.013,2.736 -3.951,2.015 -4.232,0.917c-0.057,-0.222 -0.116,-0.452 -0.017,-2.864Z" style="fill:#161512;"/><path d="M50.626,38.056c0.057,0.084 0.785,0.31 0.968,1.44c0.359,2.219 -1.555,2.299 -2.002,2.506c-1.581,-0.346 -2.21,0.189 -2.457,-1.415c-0.424,-2.752 0.715,-2.617 3.491,-2.532Z" style="fill:#151512;fill-opacity:1;"/><path d="M42.499,38.064c0.355,0.088 0.743,-0.078 1.099,0.011c1.624,0.404 1.228,3.028 0.875,3.403c-0.134,0.143 -3.862,1.352 -3.986,-0.973c-0.018,-0.334 0.16,-0.688 0.043,-1.002c-0.075,-0.2 -0.542,-0.126 -0.544,-0.34c-0.001,-0.111 0.82,-0.921 1.408,-1.058c0.359,-0.084 0.746,0.044 1.104,-0.04Z" style="fill:#151411;"/><path d="M21.547,37.96c2.741,0.03 2.738,0.032 2.829,0.029c0.057,0.111 0.257,0.092 0.315,0.203c0.049,0.094 0.374,0.721 0.437,1.248c0.272,2.266 -0.511,2.141 -2.736,2.562c-0.386,-0.389 -0.559,-0.041 -0.934,-0.418c-0.074,-0.074 -0.455,-0.458 -0.627,-1.153c-0.404,-1.63 0.695,-2.4 0.715,-2.47Z" style="fill:#10100e;fill-opacity:1;"/><path d="M38.386,17.803l1.112,-0.343c0.76,1.473 0.967,1.402 1.006,3.039c0.024,0.995 0.353,1.516 0.372,1.601c-0.234,0.404 -0.014,0.975 -0.249,1.379c-0.792,1.364 -1.286,1.181 -2.363,0.051c-0.352,-0.369 -0.518,-0.889 -0.87,-1.258c0.318,-0.413 0.756,-0.237 0.816,-1.847c0.04,-1.069 0.288,-1.003 0.402,-2.058c0.022,-0.201 -0.249,-0.362 -0.227,-0.564Z" style="fill:#635f5b;"/><path d="M34.097,40.606c0.068,-0.372 -0.068,-0.762 -0.001,-1.133c0.405,-2.229 1.298,-1.349 3.567,-1.368c0.122,-0.001 0.793,-0.484 0.73,0.52c-0.142,2.255 0.429,3.17 -1.838,3.298c-2.509,0.143 -2.319,-1.182 -2.458,-1.317Z" style="fill:#151411;"/><path d="M36.526,28.786c-1.504,-0.231 -2.022,0.313 -2.41,-1.14c-0.858,-3.211 3.957,-3.81 4.164,-1.155c0.104,1.338 0.574,1.775 -0.715,2.166c-0.334,0.101 -0.705,0.027 -1.039,0.128Z" style="fill:#0f0e0c;"/><path d="M37.52,44.423c0.575,1.083 0.599,1.066 0.621,1.169c0.843,3.869 -4.114,3.542 -4.082,0.957c0.03,-2.446 1.009,-1.938 3.461,-2.126Z" style="fill:#13120f;"/><path d="M42.485,28.774c-1.332,-0.303 -1.905,0.089 -1.941,-1.293c-0.113,-4.256 4.781,-3.045 4.2,0.104c-0.266,1.443 -0.811,0.916 -2.258,1.189Z" style="fill:#100f0d;"/><path d="M56.626,36.659c1.493,1.036 1.825,1.03 1.696,2.849c-0.011,0.158 -0.079,1.115 -1.108,1.639c-1.068,0.544 -1.058,0.067 -2.132,-0.488l-0.351,-1.086l0.207,-0.926c0.795,-0.939 1.554,-1.829 1.689,-1.988Z" style="fill:#8f8a83;"/><path d="M38.431,50.843c3.56,-0.195 3.597,-0.472 4.766,-0.02c0.965,0.373 1.094,0.538 1.158,0.621c0.278,0.358 -0.338,0.435 -0.062,0.79c-0.27,0.064 -3.455,0.95 -3.793,0.979c-1.251,0.105 -1.52,-0.309 -1.742,-0.355c-0.109,-0.672 -0.218,-1.343 -0.327,-2.015Z" style="fill:#33312f;fill-opacity:1;"/><path d="M34.567,50.886c1.288,-0.014 2.576,-0.028 3.864,-0.043c0.109,0.672 0.218,1.343 0.327,2.015c-0.486,0.131 -2.489,1.141 -5.287,-0.321c0.365,-0.55 0.731,-1.101 1.096,-1.651Z" style="fill:#11110f;"/><path d="M37.519,31.403c0.336,-0.088 0.705,0.022 1.041,-0.066c0.344,-0.09 0.607,-0.483 0.962,-0.461c0.373,0.023 0.587,0.556 0.96,0.579c0.008,0.381 0.195,0.744 0.203,1.126c0,0 -0.074,2.537 -0.08,2.758c-0.763,-0.037 -1.526,-0.074 -2.289,-0.111c-0.063,-1.996 0.123,-2.04 -0.797,-3.825Z" style="fill:#63605c;"/><path d="M33.492,17.479c0.797,-1.23 0.824,-1.163 1.76,-2.315c0.143,-0.176 0.093,-0.55 0.313,-0.605c0.06,-0.015 1.708,0.921 1.793,1.026c0.047,0.058 -0.163,0.112 0.209,0.915c0.333,0.72 0.492,0.598 0.819,1.303c-1.851,0.092 -1.826,0.072 -3.686,0.177l-1.208,-0.501Z" style="fill:#63605b;"/><path d="M31.442,50.801c0.595,0.879 0.571,0.892 0.642,0.95c0.645,0.516 0.759,0.284 1.387,0.787c-1.779,0.541 -1.751,0.827 -2.87,0.543c-1.845,-0.469 -1.806,-0.501 -3.539,-1.301c0.559,-0.257 0.932,-0.83 1.491,-1.087c0,0 2.658,0.1 2.889,0.109Z" style="fill:#262523;fill-opacity:1;"/><path d="M16.558,26.193c0.408,0.095 0.382,-0.129 0.814,-0.028c0.803,0.186 0.702,0.438 1.517,0.57c0.229,0.037 0.432,-0.254 0.661,-0.217c-2.263,2.815 -2.265,2.775 -2.339,2.966c-0.129,0.332 0.17,0.736 0.041,1.068c-0.434,-0.687 0.066,-1.178 -2.437,-2.525c0.052,-0.131 0.652,-1.644 0.652,-1.644c0.266,-0.256 0.825,0.067 1.091,-0.189Z" style="fill:#615e59;fill-opacity:1;"/><path d="M47.456,19.643c0.37,-0.172 0.846,0.028 1.217,-0.143c0.368,-0.171 0.562,-0.59 0.886,-0.832c1.115,-0.832 1.634,-0.593 1.747,0.807c0,0 -1.072,2.12 -1.166,2.304c-1.587,-0.73 -1.518,-0.827 -2.685,-2.135Z" style="fill:#6a6762;fill-opacity:1;"/><path d="M23.701,20.84c-0.322,0.284 -0.644,0.569 -0.966,0.853c-1.878,-1.776 -3.484,-2.462 -1.168,-3.628c0.876,-0.441 0.666,0.277 2.134,2.774Z" style="fill:#63605c;"/><path d="M31.442,50.801c0.066,-0.001 0.06,-0.39 3.126,0.085c-0.365,0.55 -0.731,1.101 -1.096,1.651c-0.629,-0.503 -0.742,-0.27 -1.387,-0.787c-0.072,-0.057 -0.048,-0.07 -0.642,-0.95Z" style="fill:#504d49;fill-opacity:1;"/><path d="M31.297,24.992c0.341,0.22 0.819,-0.59 1.16,-0.37c0.135,0.087 -0.04,0.109 -0.694,1.889c-0.155,-0.506 -0.31,-1.013 -0.465,-1.519Z" style="fill:#3e3b38;"/></g></svg>