<?xml version="1.0" encoding="UTF-8" standalone="no"?><!DOCTYPE svg PUBLIC "-//W3C//DTD SVG 1.1//EN" "http://www.w3.org/Graphics/SVG/1.1/DTD/svg11.dtd"><svg width="100%" height="100%" viewBox="0 0 72 72" version="1.1" xmlns="http://www.w3.org/2000/svg" xmlns:xlink="http://www.w3.org/1999/xlink" xml:space="preserve" xmlns:serif="http://www.serif.com/" style="fill-rule:evenodd;clip-rule:evenodd;stroke-linejoin:round;stroke-miterlimit:2;"><g><path d="M59.328,12.715c0.642,0.471 0.644,0.419 1.282,0.941c0.266,0.218 0.319,0.088 0.575,0.297c-0.613,1.798 -0.673,1.777 -0.662,1.941c0,0 0.659,1.851 0.716,2.012c0.046,0.665 0.093,1.331 0.139,1.996c-0.076,0.199 -0.868,0.505 -0.781,2.044c0.087,1.531 0.661,1.679 0.769,1.956l0.15,2.016c-0.234,0.617 -0.534,0.395 -0.772,1.024c-0.029,0.075 -0.159,0.42 0.002,1.009c0.097,0.355 0.44,0.61 0.537,0.965c-0.316,1.582 -0.594,1.564 -0.269,2.994c0.337,1.485 0.29,1.476 0.298,3.006c0.14,5.511 0.294,5.495 0.292,5.973c-0.008,2.047 -0.111,2.007 -0.191,4.038c-0.299,7.582 0.741,7.494 0.734,7.955c-0.006,0.379 -0.395,0.686 -0.401,1.065c-0.677,2.777 -0.159,2.812 -0.218,3.05c0,0 -1.098,1.838 -1.194,1.998c-0.21,0.125 -0.048,0.562 -0.258,0.687c-0.264,0.156 -0.618,-0.037 -0.922,0.012c-1.834,0.292 -1.814,0.436 -5.899,0.34c-0.378,-0.182 -0.643,-0.553 -1.021,-0.735c-1.795,-0.867 -1.846,-0.319 -3.772,0.233c-1.073,-0.024 -2.146,-0.048 -3.219,-0.072c-0.56,-0.036 -5.154,-0.327 -7.012,-0.064c-0.336,0.048 -0.617,0.311 -0.953,0.359c-0.562,-0.077 -0.482,-0.284 -1.027,-0.359c-0.238,-0.033 -0.223,0.006 -3.004,0.076c-0.308,0.091 -0.652,-0.185 -0.96,-0.094c-0.608,0.18 -0.422,0.463 -1.023,0.679c-0.479,0.172 -0.497,-0.132 -0.97,0.038c-0.379,-0.079 -0.695,-0.364 -1.075,-0.443c-1.754,-0.367 -1.772,0.892 -3.967,0.247c-1.431,-0.42 -1.396,-0.527 -2.896,-0.493c-1.561,0.036 -1.773,-0.387 -2.096,-0.457l-1.019,0.159c-0.313,-0.73 -0.627,-1.459 -0.94,-2.189c0.168,-3.284 0.09,-3.704 0.03,-4.02c-0.336,-1.797 -1.871,-1.654 -2.179,-1.767c0.038,-0.74 0.077,-1.48 0.115,-2.22c-0.051,-1.573 0.436,-20.607 0.025,-28.028c0.017,-0.593 0.035,-1.186 0.052,-1.779c0.993,-0.327 2.128,0.024 1.979,-2.181c-0.035,-0.521 -0.084,-0.496 -0.111,-1.02c-0.077,-1.492 0.549,-1.755 0.625,-1.997c0.701,0.744 1.033,0.209 1.733,0.952c0.05,0.053 0.126,0.133 0.027,0.916c-0.042,0.329 -0.389,0.653 -0.264,0.96c0,0 1.755,0.749 1.907,0.814c-1.745,0.216 -2.834,-0.373 -2.39,1.358c0.092,0.357 0.734,0.379 0.825,0.736c-2.023,1.379 -2.079,1.3 -2.179,1.486c-0.029,0.054 -0.084,5.614 -0.032,6.751c0.055,1.213 -0.365,1.577 0.799,1.992c2.94,1.047 2.985,0.914 6.104,0.688c0.431,1.732 0.513,1.722 0.466,1.869c-0.111,0.339 -0.327,0.17 -0.444,0.508c0,0 -0.277,1.598 -0.301,1.737c0.83,-0.083 1.659,-0.166 2.489,-0.249c0.352,0.119 0.255,0.502 1.674,0.564c2.475,0.11 2.214,-1.225 2.352,-2.021c0.069,-0.397 0.305,-0.782 0.252,-1.181c-0.051,-0.379 -0.494,-0.629 -0.545,-1.008c0.53,-0.153 0.381,-0.399 0.911,-0.552c0.081,-0.023 0.535,-0.154 1.059,-0.015c0.343,0.091 0.575,0.447 0.918,0.538c-0.057,0.391 -0.507,0.652 -0.564,1.043c-0.058,0.398 0.172,0.786 0.237,1.182c0.225,1.367 0.007,1.757 1.375,1.968c1.205,0.186 1.167,-0.012 2.801,-0.355c0.838,-0.04 1.677,-0.081 2.515,-0.121c0.219,0.07 0.432,0.505 1.684,0.54c2.006,0.055 2.204,-0.263 2.516,-2.266c0.213,-1.369 -0.416,-1.809 -0.456,-1.983c0.547,-0.149 0.398,-0.404 0.937,-0.55c0.081,-0.022 0.494,-0.135 1.053,0.008c0.318,0.081 0.542,0.399 0.861,0.48c-0.042,0.4 -0.498,0.679 -0.54,1.08c-0.043,0.4 0.234,0.773 0.301,1.169c0.018,0.105 -0.374,2.375 2.344,2.125c2.213,-0.204 1.786,-0.968 2.008,-3.159c1.114,0.038 2.228,0.076 3.342,0.115c0.107,1.907 0.107,1.875 0.109,3.779c-0.118,4.592 -0.082,4.573 -0.118,9.172l0.036,0.966c-0.278,0.506 -1.169,0.448 -1.446,0.955c0,0 0.054,2.772 0.058,3.013l1.426,-0.136c-0.06,0.15 -0.749,1.873 -0.749,1.873c-0.372,0.314 -1.252,0.022 -0.999,2.213c0.318,2.753 0.604,3.679 3.216,2.788c1.055,-0.36 0.779,-0.667 1.384,-1.59c0.09,-0.137 0.388,-0.204 0.336,-0.36c-0.258,-0.778 -0.83,-1.417 -1.173,-2.161c-0.705,-1.53 -0.083,-1.619 -0.174,-1.723c-0.356,-0.404 -1.089,-0.318 -1.445,-0.723c0.455,-0.331 0.911,-0.663 1.366,-0.994c0.394,-0.181 0.655,-0.589 1.049,-0.77c0.273,-0.125 0.785,0.161 0.894,-0.12c0.068,-0.174 -0.405,-0.157 -0.178,-2.324c0.553,-5.292 -0.208,-8.543 0.098,-13.974c0.166,-2.951 -0.398,-5.694 -0.283,-7.833c0.017,-0.323 0.291,-0.679 0.134,-0.962c-0.143,-0.259 -0.559,-0.194 -0.833,-0.306c-1.14,-0.463 -1.674,-1.864 -2.005,-1.784c-0.455,0.111 -0.208,1.128 -0.664,1.24c-0.792,-0.517 -0.699,-0.599 -1.482,-1.11c-1.375,-0.898 -1.501,-0.233 -2.005,-0.311c-0.187,-2.852 0.276,-2.864 0.152,-3.078c-0.174,-0.301 -0.86,0.168 -1.034,-0.132c0.344,0.002 0.654,-0.262 0.998,-0.26c0.633,0.004 0.593,0.119 1.777,0.681c0.45,0.214 0.962,0.278 1.412,0.492c0.284,0.046 0.519,0.272 0.803,0.318c0.321,0.052 0.732,0.186 0.976,-0.029c0.533,-0.471 0.636,-1.295 1.115,-1.82c0.189,-0.207 0.76,0.005 0.797,-0.273c0.044,-0.334 -0.72,-0.433 -0.66,-0.764c0.034,-0.189 0.538,0.108 1.827,-3.263Z" style="fill:#6b6965;fill-opacity:1;"/><path d="M22.239,17.549c2.997,-0.103 2.983,-0.374 5.973,-0.03l-0.728,2.122c-0.545,0.239 -1.005,-0.341 -1.55,-0.102c-0.974,0.427 0.048,1.968 -1.714,2.229c-2.435,0.361 -2.851,0.221 -3.546,-2.124c-0.092,-0.357 -0.734,-0.379 -0.825,-0.736c-0.444,-1.731 0.644,-1.142 2.39,-1.358Z" style="fill:#191917;fill-opacity:1;"/><path d="M34.287,17.36c-0.131,0.315 -1.373,3.308 0.21,4.26c0.217,0.131 1.966,0.257 2.706,0.127c2.039,-0.356 1.083,-2.606 0.989,-2.826c-0.219,-0.515 -0.683,-0.901 -0.902,-1.416c1.964,-0.269 1.95,-0.266 3.893,0.007c-0.195,0.673 -2.369,4.593 2.037,4.225c2.24,-0.187 1.166,-3.267 1.021,-4.356c1.487,-0.079 1.453,-0.055 2.904,0.115c-0.016,0.47 -0.391,0.88 -0.407,1.35c-0.084,2.43 0.065,3.082 2.507,2.997c1.863,-0.065 1.847,-0.936 1.918,-0.999c0.504,0.078 0.63,-0.587 2.005,0.311c0.783,0.511 0.69,0.593 1.482,1.11c0.046,3.78 0.084,3.754 -0.062,7.54c-0.253,0.018 -0.24,0.023 -3.352,0.456c-0.518,0.106 -0.433,0.249 -0.918,0.348c-0.248,0.051 -0.234,0.006 -3.16,0.087c-0.318,-0.081 -0.542,-0.399 -0.861,-0.48c-0.56,-0.143 -0.972,-0.03 -1.053,-0.008c-0.539,0.147 -0.39,0.401 -0.937,0.55c-1.036,-0.019 -2.072,-0.037 -3.108,-0.056c-1.789,-0.416 -1.773,-0.46 -1.931,-0.449c-0.333,0.023 -0.587,0.374 -0.92,0.397c-3.654,0.096 -3.649,0.102 -4.15,0.1c-0.343,-0.091 -0.575,-0.447 -0.918,-0.538c-0.524,-0.139 -0.977,-0.008 -1.059,0.015c-0.531,0.153 -0.382,0.399 -0.911,0.552c-0.527,-0.019 -0.501,-0.06 -1.032,-0.079c-0.165,-0.006 -0.153,-0.004 -2.069,-0.051c-0.467,-0.093 -0.416,-0.169 -0.907,-0.266c-1.384,-0.275 -1.657,0.152 -1.936,0.178c-3.118,0.225 -3.163,0.359 -6.104,-0.688c-1.164,-0.414 -0.744,-0.778 -0.799,-1.992c-0.052,-1.138 0.003,-6.697 0.032,-6.751c0.1,-0.186 0.156,-0.106 2.179,-1.486c0.694,2.345 1.111,2.485 3.546,2.124c1.761,-0.261 0.658,-3.99 1.632,-4.417c0.545,-0.239 1.415,0.239 1.961,0c-0.007,0.278 -0.343,2.182 -0.35,2.46c-0.027,1.064 0.229,0.966 0.922,1.802c2.292,0.158 3.301,0.634 3.211,-1.653c-0.008,-0.194 -0.016,-0.179 -0.219,-2.414c0.276,-0.045 0.534,-0.406 1.921,-0.316c0.518,0.034 0.483,0.096 0.989,0.129Z" style="fill:#797673;fill-opacity:1;"/><path d="M30.347,12.197c1.432,-0.205 1.4,-0.163 2.815,-0.103c0.909,0.05 0.937,0.408 4.048,-0.331c1.013,0.217 1.021,-0.227 2.03,-0.01c1.179,0.253 0.905,0.639 0.998,0.659c0.32,0.068 0.625,-0.243 0.952,-0.242c0.43,0.002 1.387,0.586 11.073,0.34c0.182,0.494 0.553,0.904 0.735,1.399c0.293,0.798 -0.233,1.836 0.79,3.426c0.132,0.205 0.425,0.276 0.544,0.488c0.12,0.215 0.015,0.511 0.136,0.726c-0.45,-0.214 -0.962,-0.278 -1.412,-0.492c-1.184,-0.563 -1.144,-0.677 -1.777,-0.681c-0.344,-0.002 -0.654,0.262 -0.998,0.26c-1.046,-0.046 -2.091,-0.091 -3.137,-0.137c-1.451,-0.17 -1.417,-0.194 -2.904,-0.115c-1.54,0.118 -1.514,0.139 -3.058,0.131c-1.943,-0.273 -1.929,-0.276 -3.893,-0.007c-1.526,0.008 -1.499,-0.011 -3.003,-0.145c-0.506,-0.033 -0.471,-0.095 -0.989,-0.129c-1.387,-0.091 -1.645,0.27 -1.921,0.316c-1.055,-0.009 -2.11,-0.018 -3.165,-0.027c-2.99,-0.344 -2.976,-0.072 -5.973,0.03c-0.153,-0.065 -1.907,-0.814 -1.907,-0.814c-0.124,-0.308 0.222,-0.631 0.264,-0.96c0.099,-0.783 0.024,-0.863 -0.027,-0.916c-0.7,-0.743 -1.032,-0.207 -1.733,-0.952l0.399,-1.382c0.401,0.004 0.396,-0.008 5.01,-0.022c0.625,0.013 0.619,0.004 5.046,-0.071l1.056,-0.236Z" style="fill:#8b8884;fill-opacity:0.99;"/><path d="M14.262,18.887l2.082,0.217c-0.017,0.593 -0.035,1.186 -0.052,1.779c-1.036,0.092 -0.976,0.269 -1.999,0.36c-1.026,0.091 -1.033,-0.138 -1.103,-0.083c-0.207,0.161 0.183,0.493 0.247,0.748c0.582,2.302 0.046,2.318 0.083,4.095c0.063,2.985 -0.316,2.936 -0.268,5.905c0.123,7.576 0.129,7.54 -0.057,15.095c-0.053,2.163 0.925,1.558 3.072,1.908c-0.038,0.74 -0.077,1.48 -0.115,2.22c-0.66,0.219 -1.319,0.438 -1.979,0.657c-0.277,0.065 -0.554,-0.263 -0.831,-0.198c-0.222,0.052 -0.186,0.1 -2.513,1.356c0.076,-0.3 -0.132,-0.628 -0.055,-0.928c0.192,-0.753 0.626,-1.428 0.845,-2.174c0.079,-0.268 0.129,-0.572 0.04,-0.837c-0.241,-0.724 -0.493,-0.565 -0.749,-1.288c-0.162,-0.459 0.125,-0.476 -0.039,-0.938c-0.09,-0.62 -0.18,-1.24 -0.27,-1.86c0.175,-1.023 0.331,-0.983 0.345,-2.016c0.087,-6.213 -0.141,-14.102 0.167,-18.998c0.01,-0.159 -0.003,-0.148 -0.035,-1.997l0.006,-1.998c0.563,-0.22 0.41,-0.641 3.177,-1.023Z" style="fill:#535250;fill-opacity:1;"/><path d="M22.258,54.191c1.03,-0.012 2.059,-0.025 3.089,-0.037c0.615,-0.004 1.231,-0.008 1.846,-0.012c2.094,0.033 2.06,0.008 4.118,-0.107c1.866,-0.245 1.854,-0.281 2.016,-0.265c0.451,0.045 0.367,0.229 0.85,0.277c2.068,0.155 2.053,0.16 4.121,-0.043c0.637,0.001 1.274,0.002 1.91,0.003c2.057,0.187 2.03,0.186 4.086,-0.007c1.926,-0.283 1.913,-0.329 2.08,-0.305c0.45,0.063 0.347,0.298 0.789,0.36c0.702,0.067 1.405,0.134 2.107,0.2c0.441,0.539 1.618,-0.188 2.059,0.351c0.08,0.098 -1.004,1.922 -1.346,2.12c-0.118,0.068 -13.936,1.087 -16.744,0.316c-2.022,-0.555 -3.997,0.028 -5.993,-0.106c-3.114,-0.209 -3.096,-0.039 -6.225,0.057c-0.775,0.024 -0.418,-0.369 -0.474,-1.139c-0.116,-1.583 1.575,-1.586 1.71,-1.663Z" style="fill:#938f8a;fill-opacity:1;"/><path d="M16.292,20.883c0.411,7.421 -0.076,26.455 -0.025,28.028c-2.147,-0.35 -3.126,0.255 -3.072,-1.908c0.186,-7.556 0.18,-7.519 0.057,-15.095c-0.048,-2.969 0.331,-2.92 0.268,-5.905c-0.037,-1.777 0.499,-1.793 -0.083,-4.095c-0.064,-0.254 -0.455,-0.587 -0.247,-0.748c0.07,-0.054 0.077,0.175 1.103,0.083c1.023,-0.091 0.963,-0.267 1.999,-0.36Z" style="fill:#868380;fill-opacity:1;"/><path d="M54.651,22.265c0.455,-0.111 0.208,-1.128 0.664,-1.24c0.332,-0.081 0.865,1.32 2.005,1.784c0.274,0.111 0.69,0.047 0.833,0.306c0.156,0.284 -0.117,0.639 -0.134,0.962c-0.115,2.139 0.45,4.881 0.283,7.833c-0.306,5.431 0.456,8.682 -0.098,13.974c-0.227,2.167 0.245,2.15 0.178,2.324c-0.109,0.28 -0.62,-0.006 -0.894,0.12c-0.394,0.181 -0.655,0.589 -1.049,0.77c0.014,-0.273 0.229,-0.51 0.243,-0.782c0.095,-1.831 -0.137,-5.172 -0.168,-5.621c-0.088,-1.268 0.375,-5.72 0.184,-5.903c-0.128,-0.122 -0.146,-0.073 -1.975,-0.987c-0.002,-1.904 -0.002,-1.872 -0.109,-3.779c-0.008,-0.74 -0.016,-1.48 -0.025,-2.22c0.147,-3.786 0.109,-3.76 0.062,-7.54Z" style="fill:#9b9894;fill-opacity:1;"/><path d="M52.264,12.508c3.546,0.188 3.529,0.001 7.063,0.207c-1.289,3.371 -1.793,3.073 -1.827,3.263c-0.06,0.331 0.704,0.43 0.66,0.764c-0.037,0.278 -0.608,0.066 -0.797,0.273c-0.48,0.525 -0.582,1.349 -1.115,1.82c-0.244,0.216 -0.655,0.081 -0.976,0.029c-0.284,-0.046 -0.519,-0.272 -0.803,-0.318c-0.12,-0.215 -0.015,-0.511 -0.136,-0.726c-0.119,-0.213 -0.412,-0.283 -0.544,-0.488c-1.024,-1.59 -0.497,-2.627 -0.79,-3.426c-0.182,-0.494 -0.553,-0.904 -0.735,-1.399Z" style="fill:#888480;fill-opacity:1;"/><path d="M11.226,55.907c0.178,0.024 2.226,0.306 2.226,0.306c0.257,0.025 0.509,-0.144 0.766,-0.119c1.011,0.154 0.985,-0.194 2.005,-0.038c0.178,0.027 0.154,0.064 2.079,0.863c0.313,0.73 0.627,1.459 0.94,2.189l-0.951,0.647c-2.808,0.413 -2.79,0.412 -3.033,0.446c-0.528,0.074 -0.509,0.036 -1.032,0.11c-1.81,-0.42 -1.827,-0.354 -1.953,-0.453c-0.175,-0.138 -0.055,-0.491 -0.231,-0.627c-0.238,-0.183 -0.635,-0.04 -0.873,-0.223c0.019,-1.033 0.039,-2.067 0.058,-3.1Z" style="fill:#5e5c59;fill-opacity:1;"/><path d="M11.401,13.15c1.398,-0.352 1.363,-0.395 2.831,-0.491c1.003,-0.047 2.005,-0.093 3.008,-0.14c-2.481,2.006 -2.585,2.278 -2.69,2.555c-0.595,1.56 0.034,2.591 0.033,2.635c-0.006,0.407 -0.314,0.771 -0.321,1.178c-2.767,0.383 -2.614,0.804 -3.177,1.023l-0.106,-0.995c0.004,-0.317 -0.156,-0.621 -0.151,-0.938c0.01,-0.694 0.388,-1.408 0.193,-2.075c-0.16,-0.548 0.053,-2.601 0.38,-2.753Z" style="fill:#706e6b;fill-opacity:1;"/><path d="M54.722,35.803c1.83,0.914 1.848,0.865 1.975,0.987c0.191,0.183 -0.272,4.636 -0.184,5.903c0.031,0.449 0.263,3.79 0.168,5.621c-0.014,0.273 -0.229,0.51 -0.243,0.782c-0.455,0.331 -0.911,0.663 -1.366,0.994l-0.395,-0.319c0.005,-1.942 -0.011,-1.911 -0.038,-3.832l-0.036,-0.966c0.037,-4.599 0.001,-4.579 0.118,-9.172Z" style="fill:#bebab3;"/><path d="M54.678,49.772l0.395,0.319c0.356,0.404 1.089,0.318 1.445,0.723c0.092,0.104 -0.531,0.193 0.174,1.723c0.343,0.744 0.915,1.383 1.173,2.161c0.052,0.156 -0.246,0.223 -0.336,0.36c-0.605,0.922 -0.329,1.23 -1.384,1.59c-2.612,0.891 -2.898,-0.035 -3.216,-2.788c-0.253,-2.191 0.627,-1.899 0.999,-2.213c0,0 0.689,-1.724 0.749,-1.873Z" style="fill:#84807c;fill-opacity:1;"/><path d="M17.24,12.52l1.995,0.006l-0.399,1.382c-0.075,0.241 -0.702,0.504 -0.625,1.997c0.027,0.524 0.076,0.498 0.111,1.02c0.149,2.205 -0.985,1.853 -1.979,2.181l-2.082,-0.217c0.006,-0.407 0.314,-0.771 0.321,-1.178c0.001,-0.044 -0.628,-1.075 -0.033,-2.635c0.106,-0.277 0.209,-0.549 2.69,-2.555Z" style="fill:#7b7875;fill-opacity:1;"/><path d="M16.152,51.131c0.309,0.113 1.843,-0.03 2.179,1.767c0.059,0.316 0.138,0.736 -0.03,4.02c-1.925,-0.799 -1.901,-0.836 -2.079,-0.863c-1.02,-0.155 -0.994,0.192 -2.005,0.038c-0.008,-0.46 -0.473,-0.512 -0.041,-2.236c0.069,-0.275 0.321,-0.504 0.321,-0.787c-0.001,-0.441 -0.324,-0.842 -0.325,-1.283c0.66,-0.219 1.319,-0.438 1.979,-0.657Z" style="fill:#7f7c78;fill-opacity:1;"/><path d="M51.236,30.26c0.012,0.55 0.023,1.099 0.035,1.649c-0.222,2.192 0.205,2.956 -2.008,3.159c-2.718,0.25 -2.326,-2.019 -2.344,-2.125c-0.067,-0.397 -0.344,-0.769 -0.301,-1.169c0.042,-0.4 0.498,-0.679 0.54,-1.08c2.926,-0.08 2.912,-0.036 3.16,-0.087c0.484,-0.1 0.4,-0.242 0.918,-0.348Z" style="fill:#151412;fill-opacity:1;"/><path d="M34.198,30.75c0.501,0.002 0.496,-0.004 4.15,-0.1c-0.193,3.65 -0.287,3.623 -0.3,3.939c-1.634,0.344 -1.597,0.542 -2.801,0.355c-1.368,-0.211 -1.151,-0.602 -1.375,-1.968c-0.065,-0.397 -0.296,-0.784 -0.237,-1.182c0.057,-0.391 0.507,-0.652 0.564,-1.043Z" style="fill:#171714;"/><path d="M34.287,17.36c1.504,0.135 1.477,0.153 3.003,0.145c0.219,0.515 0.683,0.901 0.902,1.416c0.094,0.22 1.05,2.47 -0.989,2.826c-0.74,0.129 -2.489,0.003 -2.706,-0.127c-1.583,-0.953 -0.341,-3.945 -0.21,-4.26Z" style="fill:#12110f;"/><path d="M47.145,17.497c1.046,0.046 2.091,0.091 3.137,0.137c0.174,0.301 0.86,-0.168 1.034,0.132c0.123,0.214 -0.339,0.226 -0.152,3.078c-0.072,0.063 -0.055,0.934 -1.918,0.999c-2.442,0.085 -2.59,-0.567 -2.507,-2.997c0.016,-0.47 0.391,-0.88 0.407,-1.35Z" style="fill:#11110f;fill-opacity:1;"/><path d="M25.337,37.758c0.013,2.484 -0.079,3.571 -0.455,3.692c-0.168,0.054 -0.157,0.03 -2.559,0.083c-1.792,0.04 -1.414,-1.323 -1.618,-1.722c0.439,-1.454 -0.008,-2.027 1.498,-2.213c0.249,-0.031 0.232,0.012 3.135,0.16Z" style="fill:#151411;fill-opacity:1;"/><path d="M21.421,44.243c1.866,-0.075 1.841,-0.111 3.715,-0.076c0.225,1.828 0.209,1.806 0.05,3.644c-0.408,0.079 -0.38,0.357 -1.922,0.373c-2.887,0.03 -2.258,-1.473 -2.527,-2.364c0.228,-0.526 0.456,-1.052 0.684,-1.577Z" style="fill:#151412;fill-opacity:1;"/><path d="M41.199,30.702c1.036,0.019 2.072,0.037 3.108,0.056c0.04,0.174 0.669,0.614 0.456,1.983c-0.312,2.004 -0.511,2.321 -2.516,2.266c-1.252,-0.034 -1.465,-0.47 -1.684,-0.54c-0.05,-1.952 -0.221,-1.996 0.636,-3.766Z" style="fill:#141411;"/><path d="M28.209,30.649c1.916,0.047 1.904,0.045 2.069,0.051c0.531,0.019 0.505,0.06 1.032,0.079c0.051,0.379 0.494,0.629 0.545,1.008c0.053,0.399 -0.183,0.785 -0.252,1.181c-0.138,0.796 0.123,2.131 -2.352,2.021c-1.419,-0.063 -1.322,-0.446 -1.674,-0.564c-0.169,-2.433 -0.033,-2.437 0.632,-3.777Z" style="fill:#131310;"/><path d="M34.197,37.818c2.019,-0.251 1.993,-0.403 3.131,-0.211c1.464,0.247 0.965,0.804 0.925,2.3c-0.07,2.593 -3.89,1.638 -4.142,1.095c-0.63,-1.359 -0.169,-1.398 0.085,-3.185Z" style="fill:#191916;"/><path d="M25.108,24.393c0.048,0.273 0.528,2.98 0.101,3.458c-0.144,0.162 -3.732,1.208 -4.322,-0.834c-0.063,-0.219 -0.629,-2.178 1.267,-2.548c0.232,-0.045 0.219,-0.006 2.953,-0.077Z" style="fill:#11110f;fill-opacity:1;"/><path d="M36.249,48.136c-1.399,-0.285 -1.909,0.274 -2.283,-1.113c-0.058,-0.214 -0.434,-1.61 0.441,-2.734c0.07,-0.09 3.447,-0.204 3.74,-0.105c0.131,0.044 -0.153,0.117 0.055,1.722c0.361,2.788 -1.464,2.128 -1.953,2.232Z" style="fill:#171613;"/><path d="M44.241,17.382c0.145,1.089 1.218,4.169 -1.021,4.356c-4.406,0.368 -2.232,-3.552 -2.037,-4.225c1.545,0.008 1.518,-0.012 3.058,-0.131Z" style="fill:#141311;"/><path d="M21.209,50.795c2.066,-0.122 2.041,-0.163 4.128,-0.163c0.271,2.364 0.298,2.348 0.292,2.554c-0.01,0.336 -0.273,0.633 -0.282,0.969c-1.03,0.012 -2.059,0.025 -3.089,0.037l-1.039,-0.113l-0.245,-2.321l0.236,-0.963Z" style="fill:#1a1a17;fill-opacity:1;"/><path d="M27.157,50.598c2.901,0.019 2.883,0.001 3.133,0.02c1.49,0.118 1.459,0.501 1.472,2.01c0.005,0.492 -0.456,0.914 -0.451,1.406c-2.058,0.115 -2.024,0.14 -4.118,0.107c0.031,-0.368 -0.123,-0.735 -0.092,-1.103c0.048,-0.566 0.262,-0.504 0.275,-1.073c0.017,-0.721 -0.235,-0.67 -0.219,-1.368Z" style="fill:#1b1a17;fill-opacity:1;"/><path d="M28.212,17.519c1.055,0.009 2.11,0.018 3.165,0.027c0.203,2.235 0.212,2.22 0.219,2.414c0.09,2.287 -0.919,1.811 -3.211,1.653c-0.693,-0.836 -0.95,-0.738 -0.922,-1.802c0.007,-0.278 0.165,-0.538 0.172,-0.815l0.577,-1.476Z" style="fill:#141412;fill-opacity:1;"/><path d="M27.343,44.106c1.239,0.07 2.477,0.14 3.716,0.21c0.174,0.541 0.349,1.082 0.523,1.623c-0.164,0.691 0.449,2.279 -2.326,2.22c-1.412,-0.03 -1.534,-0.415 -1.837,-0.497c0.005,-0.142 0.065,-1.77 0.065,-1.77c0.083,-0.929 -0.07,-0.89 -0.141,-1.787Z" style="fill:#161513;"/><path d="M38.355,50.694c0.046,3.058 -0.067,3.046 -0.058,3.311c-2.068,0.203 -2.053,0.198 -4.121,0.043c-0.238,-2.4 -0.63,-2.531 0.05,-3.188c0.284,-0.275 3.799,-0.175 4.13,-0.166Z" style="fill:#1b1a17;"/><path d="M36.269,28.3c-1.49,-0.318 -2.063,0.224 -2.336,-1.291c-0.56,-3.116 3.133,-3.256 4.068,-1.921c0.353,0.504 0.232,1.664 0.217,1.808c-0.178,1.71 -1.693,1.321 -1.95,1.403Z" style="fill:#11100e;"/><path d="M40.167,50.736c0.332,-0.016 3.924,-0.185 4.156,0.037c0.258,0.247 0.155,0.697 0.244,1.043c0.388,1.511 -0.243,1.94 -0.273,2.184c-2.057,0.193 -2.03,0.194 -4.086,0.007c0.47,-3.067 -0.04,-3.27 -0.041,-3.271Z" style="fill:#181715;"/><path d="M42.242,48.12c-0.335,-0.095 -0.705,0.006 -1.04,-0.089c-1.294,-0.367 -0.817,-0.809 -0.728,-2.145c0.099,-1.483 0.294,-1.684 1.789,-1.707c1.768,-0.027 2.19,-0.015 2.346,1.738c0.24,2.684 -2.056,2.156 -2.368,2.203Z" style="fill:#151411;"/><path d="M28.18,37.614c1.571,-0.018 1.545,0.034 3.089,0.264c0.278,1.793 1.333,3.733 -2.013,3.677c-3.312,-0.055 -1.094,-3.886 -1.077,-3.942Z" style="fill:#161512;"/><path d="M40.394,38.135c0.58,-0.163 0.465,-0.49 1.84,-0.518c2.105,-0.044 2.489,0.266 2.375,2.349c-0.094,1.712 -0.612,1.597 -2.325,1.558c-2.333,-0.053 -1.709,-1.04 -1.891,-3.388Z" style="fill:#12110f;"/><path d="M50.961,44.972c0.048,1.633 0.595,1.926 -0.72,2.912c-0.122,0.091 -3.006,0.906 -3.327,-0.828c-0.04,-0.218 -0.32,-1.728 0.498,-2.73c0.081,-0.099 2.644,-0.212 2.788,-0.16c0.084,0.03 0.056,0.059 0.761,0.806Z" style="fill:#141411;fill-opacity:1;"/><path d="M49.274,37.612c0.037,0.026 1.329,-0.156 1.822,1.295c0.057,0.168 -0.137,1.702 -0.235,1.854c-0.446,0.689 -4.566,2.302 -3.869,-1.919c0.247,-1.496 0.805,-1.018 2.282,-1.23Z" style="fill:#181715;"/><path d="M29.235,28.232c-0.513,-0.172 -0.533,0.028 -1.063,-0.15c-0.063,-0.021 -0.66,-0.222 -0.705,-0.444c-0.069,-0.336 -0.812,-3.936 2.713,-3.316c1.788,0.314 2.007,3.586 0.159,3.902c-0.363,0.062 -0.741,-0.053 -1.104,0.009Z" style="fill:#11100e;"/><path d="M22.64,34.761c-0.513,-0.172 -0.533,0.028 -1.063,-0.15c-0.063,-0.021 -0.66,-0.222 -0.705,-0.444c-0.045,-0.217 -0.221,-1.52 0.064,-2.633c0.159,-0.621 1.39,-0.823 2.649,-0.683c1.004,0.112 1.321,0.856 1.396,1.68c0.088,0.973 -0.236,2.051 -1.237,2.221c-0.363,0.062 -0.741,-0.053 -1.104,0.009Z" style="fill:#11100e;"/><path d="M42.215,28.256c-0.316,-0.133 -1.559,0.278 -1.652,-1.435c-0.01,-0.179 -0.084,-1.547 0.467,-2.195c0.138,-0.162 3.286,-1.197 3.533,1.267c0.292,2.917 -1.871,2.283 -2.347,2.363Z" style="fill:#141411;fill-opacity:1;"/><path d="M48.206,28.199c-0.085,-0.075 -1.619,0.128 -1.292,-2.327c0.326,-2.451 4.031,-1.655 4.229,0.028c0.267,2.269 -0.649,2.021 -2.936,2.299Z" style="fill:#11110f;fill-opacity:1;"/><path d="M14.173,51.787c0.001,0.441 0.324,0.842 0.325,1.283c0.001,0.283 -0.252,0.512 -0.321,0.787c-0.432,1.724 0.032,1.776 0.041,2.236c-0.257,-0.025 -0.509,0.144 -0.766,0.119c0,0 -2.048,-0.281 -2.226,-0.306c-0.123,-0.68 -0.246,-1.36 -0.369,-2.041l-0.027,-0.92c2.327,-1.256 2.291,-1.304 2.513,-1.356c0.277,-0.065 0.554,0.263 0.831,0.198Z" style="fill:#74716d;fill-opacity:1;"/><path d="M50.31,50.713c0.037,0.163 0.459,2.034 0.459,2.034c-0.229,1.422 -1.476,1.487 -1.499,1.509c-0.702,-0.067 -1.405,-0.134 -2.107,-0.2c-0.414,-1.305 -0.457,-1.291 -0.447,-1.409c0.209,-2.462 1.104,-2.027 3.593,-1.934Z" style="fill:#151513;fill-opacity:1;"/><path d="M21.396,34.728c-0.336,0.329 -0.449,0.843 -0.785,1.173c-0.128,0.126 -2.114,2.073 -2.246,-0.042c-0.019,-0.299 -0.978,-15.719 2.39,-2.877c0.258,0.982 0.13,0.994 0.16,1.076c0.146,0.399 0.326,0.248 0.481,0.67Z" style="fill:#7d7975;fill-opacity:1;"/><path d="M38.348,30.65c0.333,-0.023 0.587,-0.374 0.92,-0.397c0.158,-0.011 0.143,0.033 1.931,0.449c-0.857,1.77 -0.687,1.813 -0.636,3.766c-0.838,0.04 -1.677,0.081 -2.515,0.121c0.013,-0.316 0.107,-0.288 0.3,-3.939Z" style="fill:#65625f;"/><path d="M25.366,30.56c0.279,-0.026 0.552,-0.453 1.936,-0.178c0.49,0.098 0.44,0.173 0.907,0.266c-0.666,1.339 -0.802,1.344 -0.632,3.777c-0.83,0.083 -1.659,0.166 -2.489,0.249c0.024,-0.139 0.301,-1.737 0.301,-1.737c0.117,-0.338 0.333,-0.169 0.444,-0.508c0.048,-0.146 -0.034,-0.137 -0.466,-1.869Z" style="fill:#5b5855;fill-opacity:1;"/><path d="M25.136,44.166c0.736,-0.02 1.472,-0.04 2.207,-0.061c0.071,0.897 0.224,0.858 0.141,1.787c0,0 -0.06,1.628 -0.065,1.77c-0.745,0.05 -1.489,0.099 -2.234,0.149c0.159,-1.838 0.175,-1.816 -0.05,-3.644Z" style="fill:#6a6763;fill-opacity:1;"/><path d="M38.355,50.694c0.604,0.014 1.208,0.028 1.812,0.043c0,0.002 0.51,0.204 0.041,3.271c-0.637,-0.001 -1.274,-0.002 -1.91,-0.003c-0.009,-0.265 0.104,-0.253 0.058,-3.311Z" style="fill:#696763;"/><path d="M25.337,50.632c0.607,-0.011 1.213,-0.022 1.82,-0.033c-0.016,0.698 0.235,0.646 0.219,1.368c-0.013,0.57 -0.227,0.507 -0.275,1.073c-0.031,0.368 0.123,0.735 0.092,1.103c-0.615,0.004 -1.231,0.008 -1.846,0.012c0.01,-0.336 0.273,-0.633 0.282,-0.969c0.006,-0.206 -0.022,-0.189 -0.292,-2.554Z" style="fill:#585755;fill-opacity:1;"/><path d="M51.236,30.26c3.112,-0.433 3.099,-0.438 3.352,-0.456c0.008,0.74 0.016,1.48 0.025,2.22c-1.114,-0.038 -2.228,-0.076 -3.342,-0.115c-0.012,-0.55 -0.023,-1.099 -0.035,-1.649Z" style="fill:#393838;fill-opacity:1;"/><path d="M54.64,45.94c0.027,1.921 0.043,1.89 0.038,3.832l-1.426,0.136c-0.005,-0.241 -0.058,-3.013 -0.058,-3.013c0.278,-0.506 1.169,-0.448 1.446,-0.955Z" style="fill:#585755;fill-opacity:1;"/><path d="M20.973,51.758l0.245,2.321c-0.242,-0.222 -0.734,0.086 -0.976,-0.136c-0.493,-0.453 -0.326,-0.953 -0.299,-1.035c0.257,-0.767 0.771,-0.377 1.03,-1.149Z" style="fill:#3a3a38;fill-opacity:1;"/><path d="M19.242,59.107l1.019,-0.159c-0.657,0.269 -1.313,0.537 -1.97,0.806l0.951,-0.647Z" style="fill:#6f6c67;fill-opacity:0.79;"/></g></svg>