<?xml version="1.0" encoding="UTF-8" standalone="no"?><!DOCTYPE svg PUBLIC "-//W3C//DTD SVG 1.1//EN" "http://www.w3.org/Graphics/SVG/1.1/DTD/svg11.dtd"><svg width="100%" height="100%" viewBox="0 0 120 80" version="1.1" xmlns="http://www.w3.org/2000/svg" xmlns:xlink="http://www.w3.org/1999/xlink" xml:space="preserve" xmlns:serif="http://www.serif.com/" style="fill-rule:evenodd;clip-rule:evenodd;stroke-linecap:round;stroke-linejoin:round;stroke-miterlimit:1.5;"><g><path d="M76.496,20.122l0,2.22c0,0.613 -0.497,1.11 -1.11,1.11l-30.743,0c-0.613,0 -1.11,-0.497 -1.11,-1.11l0,-2.22c0,-0.613 0.497,-1.11 1.11,-1.11l30.743,0c0.613,0 1.11,0.497 1.11,1.11Z" style="fill:none;stroke:#000;stroke-width:3px;"/><path d="M99.461,57.828l0,2.22c0,0.613 -0.497,1.11 -1.11,1.11l-76.672,0c-0.613,0 -1.11,-0.497 -1.11,-1.11l0,-2.22c0,-0.613 0.497,-1.11 1.11,-1.11l76.672,0c0.613,0 1.11,0.497 1.11,1.11Z" style="fill:none;stroke:#000;stroke-width:3px;"/><path d="M87.978,38.975l0,2.22c0,0.613 -0.497,1.11 -1.11,1.11l-53.707,0c-0.613,0 -1.11,-0.497 -1.11,-1.11l0,-2.22c0,-0.613 0.497,-1.11 1.11,-1.11l53.707,0c0.613,0 1.11,0.497 1.11,1.11Z" style="fill:none;stroke:#000;stroke-width:3px;"/><path d="M87.978,38.975l0,2.22c0,0.613 -0.497,1.11 -1.11,1.11l-53.707,0c-0.613,0 -1.11,-0.497 -1.11,-1.11l0,-2.22c0,-0.613 0.497,-1.11 1.11,-1.11l53.707,0c0.613,0 1.11,0.497 1.11,1.11Z" style="fill:none;stroke:#000;stroke-width:3px;"/><path d="M82.237,29.549l0,2.22c0,0.613 -0.497,1.11 -1.11,1.11l-42.225,0c-0.613,0 -1.11,-0.497 -1.11,-1.11l0,-2.22c0,-0.613 0.497,-1.11 1.11,-1.11l42.225,0c0.613,0 1.11,0.497 1.11,1.11Z" style="fill:none;stroke:#000;stroke-width:3px;"/><path d="M93.72,48.401l0,2.22c0,0.613 -0.497,1.11 -1.11,1.11l-65.19,0c-0.613,0 -1.11,-0.497 -1.11,-1.11l0,-2.22c0,-0.613 0.497,-1.11 1.11,-1.11l65.19,0c0.613,0 1.11,0.497 1.11,1.11Z" style="fill:none;stroke:#000;stroke-width:3px;"/></g><g><path d="M107.785,65.085c0.543,-0.518 0.309,5.406 -1.597,7.677c-2.087,2.488 -5.891,1.371 -5.891,1.371c-1.097,-0.708 -1.165,-0.274 -2.048,-0.012c-0.68,0.044 -1.36,0.087 -2.04,0.131c-0.204,-0.627 -0.408,-1.254 -0.613,-1.882c-0.278,-0.381 -0.241,-0.374 -0.991,-1.809c-0.24,-4.354 -0.537,-5.864 -0.636,-6.366c-0.703,-1.622 -0.383,-2.036 -2.135,-2.488c-0.119,-0.772 -0.237,-1.543 -0.356,-2.315c0.41,-1.786 0.327,-1.819 -0.512,-3.415c-0.154,-0.293 -0.213,-0.793 -0.221,-0.864c-0.116,-0.994 -0.357,-0.863 -0.74,-1.791c-0.605,-0.756 -1.211,-1.511 -1.816,-2.267c0.658,-1.233 2.685,-3.937 -0.98,-4.977c-0.397,-2.877 -0.183,-2.855 0.134,-5.741c0.142,-0.005 1.77,-0.058 1.77,-0.058c0.127,0.238 -0.034,5.284 1.848,5.204c0.437,-0.019 0.758,-0.516 1.195,-0.534c0.769,2.818 0.707,2.782 1.258,5.619c0.295,1.52 0.305,1.487 1.233,2.688c0.242,0.912 0.484,1.825 0.726,2.737c1.169,3.612 1.159,3.585 1.17,3.612c0.529,3.651 0.573,3.598 1.303,7.187c-0.654,0.776 -1.011,0.241 -1.68,1.035c-0.047,0.056 -0.205,0.243 0.039,0.911c0.118,0.324 0.493,0.519 0.603,0.846c0.097,0.289 -0.101,0.622 -0.012,0.913c0.797,2.609 8.109,1.179 8.487,0.638c0.137,-0.196 0.335,-0.479 -1.41,-2.628c3.355,-0.075 3.844,-0.463 3.912,-3.424Z" style="fill:#2e2620;"/><path d="M24.629,72.513c-0.276,0.391 -7.424,1.61 -8.71,1.235c-3.71,-1.082 -3.835,-5.748 -3.393,-6.031c0.079,0.035 0.578,0.737 1.818,0.806c0.929,0.052 0.89,-0.013 1.811,0.039c-1.429,1.766 -2.398,2.7 -0.146,3.238c0.307,0.073 0.347,0.083 3.926,0.377c4.182,-0.256 3.174,-1.753 3.41,-2.571c0.097,-0.334 0.763,-0.564 0.589,-0.866c-0.328,-0.57 -1.361,-0.473 -1.689,-1.043c1.421,-5.858 1.057,-5.88 2.537,-11.716c0.797,-1.387 0.526,-1.458 1.321,-2.896c0.078,-0.252 0.456,-0.339 0.534,-0.591c0.221,-0.714 1.502,-8.436 1.624,-9.171c1.395,-1.672 1.044,-1.802 1.514,-4.678c1.717,1.259 1.65,1.506 3.748,1.548c-0.148,2.393 0.663,2.458 -0.267,4.716c0,0 -0.385,1.084 -0.419,1.178c-0.233,0.18 -0.631,0.018 -0.863,0.198c-1.588,1.228 0.575,2.871 -1.09,6.889c-0.264,0.128 -0.606,0.021 -0.87,0.148c-0.392,0.189 -0.796,2.873 -1.283,4.571c0.52,1.112 0.279,1.366 1.78,2.066c0.161,0.606 0.322,1.212 0.482,1.818c-2.87,-0.085 -3.466,-1.13 -4.475,0.764c-0.117,0.219 0.02,0.518 -0.097,0.738c-0.229,1.313 -0.163,1.291 -0.402,2.632c-0.226,1.343 -0.278,1.296 -0.191,2.694c-0.292,2.108 0.009,2.2 -1.198,3.907Z" style="fill:#322923;"/><path d="M76.861,25.404l1.251,0.368c0.36,1.77 0.071,2.138 1.844,2.722c1.18,0.389 0.598,0.909 0.725,1.101c-0.255,0.593 -0.622,0.265 -0.879,0.864c-0.022,0.052 -0.172,0.401 0.218,0.675c0.239,0.168 0.637,-0.074 0.876,0.094c2.622,0.884 2.525,1.346 2.484,4.048c-2.134,0.386 -2.109,0.334 -4.271,0.38c-3.783,0.156 -3.74,0.241 -7.541,-0.07c-13.009,0.642 -18.857,-0.811 -19.693,1.119c-0.131,0.302 -0.203,0.627 -0.334,0.929c-0.785,-0.015 -1.527,-0.426 -2.311,-0.441c-1.257,-0.024 -1.153,0.306 -1.467,1.507c-0.155,0.592 -0.538,0.525 -0.3,1.034c0.245,0.525 0.712,-0.152 0.979,0.42c-0.194,0.253 -0.752,-0.067 -0.946,0.186c-0.187,0.244 0.202,0.346 -0.748,3.747c-0.253,-0.012 -0.392,-0.385 -0.645,-0.396c-0.331,-0.015 -0.302,0.049 -4.085,0.668l-1.004,-1.133c-0.027,-0.233 -0.002,-0.211 -0.117,-2.926c0.333,0.069 0.679,-0.203 1.012,-0.135c3.246,0.669 3.55,1.116 3.85,0.339c0.12,-0.31 -0.345,-0.582 -0.421,-0.905c-0.015,-0.066 0.691,-1.376 -4.405,-1.764c-0.026,-0.745 -0.052,-1.491 -0.077,-2.236c3.381,-0.025 3.333,0.058 6.691,0.114c0.143,-0.011 1.787,-0.14 1.787,-0.14c2.601,0.3 2.014,-0.898 2.796,-1.681c-1.406,0.099 -1.931,0.691 -2.156,-0.642c-0.379,-2.245 3.437,-1.645 6.715,-1.588c1.372,1.198 1.461,1.921 2.879,2.224c0.843,0.18 0.794,0.073 1.638,0.151c0.138,-0.042 1.729,-0.53 1.729,-0.53c0.179,0.028 0.606,0.602 1.883,0.273c1.696,-0.438 2.646,-1.558 2.587,0.162c-0.008,0.239 1.59,2.207 2.441,-1.775c0.596,-0.061 1.192,-0.121 1.787,-0.182c2.091,0.374 2.145,0.258 2.254,0.403c1.1,1.451 0.134,1.635 0.254,1.705c0.505,0.291 1.056,-0.626 1.641,-0.613c0.204,0.004 -0.072,0.834 1.323,0.744c2.048,-0.131 0.95,-1.084 0.235,-2.959c-0.09,-1.591 -0.084,-1.581 -0.097,-1.718c-0.256,-2.648 -5.992,-0.859 -6.49,-0.703c-0.667,-0.068 -1.224,0.743 -1.891,0.675c-0.296,-0.03 0.095,-0.641 -0.082,-0.877c-0.179,-0.239 -2.468,-0.256 -2.684,-0.257c-0.524,-0.199 -1.836,0.564 -1.945,-2.422c0.974,-0.291 1.291,-0.386 12.71,-0.559Z" style="fill:#594b3d;"/><path d="M49.583,6.226l2.635,-0.581c4.311,0 8.633,-0.326 12.944,-0.326c-0.08,1.638 -0.035,1.919 -0.167,3.513c-0.018,0.219 -0.276,0.593 -0.242,0.665c0.098,0.207 0.164,0.134 2.232,1.822c0.483,0.31 0.966,0.619 1.449,0.929c0.197,0.255 0.153,0.642 0.349,0.897c0.432,0.56 0.632,0.283 1.019,0.877c0.661,1.016 0.299,1.147 0.94,2.132c-0.528,0.133 -0.937,1.259 -2.153,-0.026c-0.699,-0.739 -0.609,-0.931 -1.667,-0.941c-5.094,-0.049 -5.094,-0.414 -5.517,-0.285c-0.341,0.104 -0.549,0.516 -0.902,0.568c-0.722,0.106 -1.136,-0.454 -4.666,-0.014c-0.917,-0.193 -1.835,-0.386 -2.752,-0.58c-0.212,-0.386 0.161,-0.413 -0.065,-0.824c-0.323,-0.587 -0.584,-0.307 -0.883,-0.902c-0.138,-0.274 0.165,-0.682 -0.032,-0.918c-0.455,-0.545 -3.255,-1.357 -3.109,-2.667c0.037,-0.335 0.349,-0.662 0.241,-0.982c-0.135,-0.398 -0.634,1.536 -0.826,1.161c-0.092,-0.181 -0.055,-0.482 0.114,-0.596c0.314,-0.212 0.814,-0.007 1.116,-0.236c0.638,-0.486 0.02,-2.437 -0.055,-2.688Z" style="fill:#020203;"/><path d="M77.733,5.318l2.199,0.326c-0.025,1.608 -0.221,1.579 -0.05,3.2c0.171,1.623 -1.739,-0.518 -1.865,-0.259c-0.151,0.311 0.297,0.664 0.247,1.006c-0.023,0.159 -0.349,-0.01 -0.94,1.774c-1.094,3.304 -1.588,3.631 0.581,6.344c1.761,2.203 0.404,2.65 1.365,5.294c0.69,1.897 0.729,1.944 2.538,2.859c-0.461,0.164 -0.438,-0.279 -0.896,-0.116c-1.424,0.506 -1.174,0.896 -1.3,0.897c-0.58,0.005 -0.92,-0.876 -1.499,-0.87l-1.251,-0.368c-0.273,-0.753 -0.488,-0.585 -0.742,-1.286c-0.28,-0.773 0.017,-0.766 -0.021,-0.82c-0.785,-1.126 -4.834,-0.266 -12.761,-0.574c-2.622,-0.102 -2.57,-0.196 -2.793,-0.177c-0.149,0.013 -0.11,0.398 -0.255,0.363c-0.311,-0.074 -0.425,-0.555 -0.741,-0.602c-0.357,-0.053 -0.669,0.394 -1.026,0.341c-0.817,0.078 -0.783,0.038 -10.266,0.149c-0.938,0.011 -1.306,-0.228 -1.434,-0.25c0.116,-2.354 0.451,-2.316 2.563,-3.948c0.278,0.022 0.438,-0.447 0.716,-0.425c0.489,0.038 1.89,1.693 3.03,0.543c0.358,-0.361 0.455,-0.925 0.813,-1.286c0.278,0.2 -0.049,1.229 1.877,1.351c3.294,0.209 2.548,1.666 3.59,2.067c0.761,0.293 1.996,-1.171 8.37,-1.966c4.136,-0.516 5.435,2.486 6.553,2.311c3.453,-0.54 -2.829,-5.028 -2.206,-6.238c0.218,-0.423 0.862,-0.521 1.079,-0.943c1.451,-4.396 0.67,-4.551 0.998,-5.449c1.239,-3.395 1.716,-1.454 2.035,-1.553c0.336,-0.104 0.724,-0.135 0.787,-0.14c1.701,-0.133 0.483,-1.297 0.706,-1.556Z" style="fill:#1c1a19;"/><path d="M88.914,25.084c2.389,0.281 2.389,0.415 4.731,-0.119c1.502,3.104 0.43,3.983 3.572,5.552l-0.048,1.001c-0.2,-0.037 -0.202,-0.415 -0.402,-0.452c-1.025,-0.19 -4.554,-0.081 -4.95,-0.068c-0.308,0.01 -0.929,0.067 -0.848,0.36c0.128,0.458 0.952,0.406 1.178,0.825c0.121,0.224 -0.826,0.909 0.648,1.053c0.974,0.096 0.919,-0.123 1.869,-0.062c1.713,0.111 1.033,0.884 1.82,2.755c0.599,3.217 0.769,3.155 1.075,6.421c-0.558,0.168 -0.405,0.692 -2.079,0.625c-4.849,-0.193 -0.965,2.071 -0.792,2.134c0.072,0.026 0.037,0.016 3.384,-0.599c1.724,1.499 1.258,1.763 1.8,3.246l0.139,0.949c-1.076,1.198 -1.113,1.129 -1.971,2.513c-0.344,0.26 -0.25,0.88 -0.594,1.14c0,0 -2.576,0.826 -2.8,0.897c-0.928,-1.201 -0.938,-1.169 -1.233,-2.688c-0.55,-2.837 -0.489,-2.801 -1.258,-5.619c-1.167,-3.516 -3.324,-12.621 -3.243,-19.865Z" style="fill:#9e8569;"/><path d="M29.123,5.645c1.54,0 3.061,-0.326 4.6,-0.326c-0.447,4.32 -0.783,2.513 -0.46,6.9c0.178,2.416 -1.241,3.442 -1.392,7.3c-2.503,0.527 -2.456,0.801 -3.855,0.477c-2.898,-0.672 -1.142,3.107 -2.484,6.879c-0.52,-0.573 1.308,-11.975 1.308,-11.975c0.585,-5.832 1.109,-5.747 1.1,-6.255c-0.05,-2.646 0.393,-0.482 1.183,-3.001Z" style="fill:#9c7e5c;"/><path d="M81.779,5.645c0.665,0 1.633,0.333 2.297,0.333c0.875,0 1.447,-0.333 2.322,-0.333c0.543,2.978 0.406,0.859 0.627,3.891c0.304,4.617 0.354,4.56 1.128,9.084l0.157,0.908c0.127,4.718 0.371,4.671 0.604,5.557c-0.081,7.244 2.076,16.349 3.243,19.865c-0.437,0.019 -0.758,0.516 -1.195,0.534c-1.882,0.08 -1.721,-4.966 -1.848,-5.204c0,0 -1.629,0.053 -1.77,0.058c-1.637,-0.244 -1.583,-0.244 -3.271,-0.425c0.116,-0.246 1.449,-3.069 1.449,-3.069c0.551,-1.096 -0.226,-0.862 -0.841,-1.242c0.661,-0.44 0.755,-0.243 1.289,-0.857c0.595,-0.684 0.681,-0.691 0.388,-1.559c-0.074,-0.218 -0.055,-0.206 -0.742,-2.778c0.371,-4.191 0.938,-4.3 -0.375,-6.839c-0.1,-0.485 -0.667,-0.794 -0.767,-1.279c-0.11,-0.532 0.476,-3.442 0.535,-3.738c0.281,-1.398 0.834,-1.282 0.65,-1.596c-0.275,-0.468 -1.083,-0.446 -1.357,-0.914c0.111,-1.329 0.159,-1.283 0.432,-2.552c0.218,-1.012 0.16,-1.165 0.124,-1.26c-0.361,-0.961 -0.831,-0.622 -1.185,-1.563c0.372,-3.891 0.923,-1.712 0.878,-2.045c-0.053,-0.392 -0.614,-0.517 -0.86,-0.83c-0.12,-0.153 -0.065,-0.418 -0.218,-0.54c-0.961,-0.764 -1.398,-0.222 -1.586,-0.252l-0.109,-1.357Z" style="fill:#403429;"/><path d="M17.843,54.728c1.257,0.086 6.395,0.103 6.635,0.33c0.236,0.224 0.067,0.698 0.303,0.922c-1.48,5.836 -1.116,5.858 -2.537,11.716c-2.59,1.894 -2.873,0.931 -6.089,0.865c-0.921,-0.051 -0.882,0.013 -1.811,-0.039c-1.24,-0.069 -1.739,-0.771 -1.818,-0.806c-0.857,-5.445 2.343,-9.652 3.604,-11.74c0.74,-0.784 0.733,-0.739 1.713,-1.248Z" style="fill:#8f7a64;"/><path d="M92.731,74.318c0.026,0.723 -44.615,0.354 -44.415,0.096c6.403,-0.476 7.047,-0.626 7.645,-0.765c2.21,-0.514 2.148,0.54 3.587,0.531c5.121,-0.032 5.113,0.12 5.556,0.081c6.967,-0.604 7.297,0.123 8.151,-1.074c0.192,-0.269 0.136,-0.663 0.327,-0.932c0.563,-0.04 1.125,-0.08 1.688,-0.12c0.458,0.363 0.454,1.124 0.911,1.487c0.182,0.144 0.305,-0.674 2.886,0.392c4.61,0.943 4.616,0.014 11.031,-0.129c1.367,0.107 1.327,0.114 2.632,0.432Z" style="fill:#776553;"/><path d="M33.724,5.318l3.714,0.326l0.431,0.932c-0.242,0.382 -0.957,0.272 -1.2,0.655c-0.282,0.445 0.032,1.09 -0.203,1.56c-0.157,0.316 -0.915,0.256 -0.876,0.606c0.012,0.113 1.078,-1.557 0.862,0.105c-0.243,1.871 0.511,1.798 0.876,2.286c0.004,0.61 0.47,1.16 0.474,1.77c0.001,0.227 -0.397,0.288 -0.46,0.505c0,0 0.276,1.559 0.3,1.695c-0.457,0.124 -0.957,-0.276 -1.414,-0.152c-0.576,0.156 0.229,3.346 0.3,3.629c-0.331,2.086 -0.337,2.051 -0.343,4.142c-0.194,-0.121 -0.491,0.055 -0.684,-0.066c-0.248,-0.155 -0.238,-0.685 -0.532,-0.694c-0.239,-0.007 -0.052,0.515 -0.231,0.671c-0.415,0.36 -1.162,0.326 -1.451,0.791c-0.08,0.128 0.46,0.03 0.466,1.823c0.009,2.744 1.135,2.67 0.581,5.372c-1.413,1.966 -1.462,1.951 -3.731,2.804c0.059,-0.332 0.04,-0.319 0.13,-2.846c0.617,-1.45 0.758,-1.376 0.85,-3.517c0.038,-0.895 -0.21,-2.42 -0.155,-2.825c0.359,-2.683 0.4,-2.64 0.445,-5.372c0.152,-3.858 1.57,-4.884 1.392,-7.3c-0.323,-4.387 0.013,-2.581 0.46,-6.9Z" style="fill:#45392d;"/><path d="M42.037,55.962l0.625,1.005l0.301,0.809c-0.022,0.257 0.401,0.42 0.378,0.677c-0.038,0.438 -0.442,0.778 -0.542,1.206c-0.043,0.185 0.055,0.16 0.048,2.371c-0.287,0.012 -3.305,0.142 -3.57,0.424c-0.184,0.196 0.093,0.6 -0.09,0.795c-0.221,0.657 -0.784,1.169 -1.006,1.826c-0.169,0.502 0.389,1.858 0.974,1.942c1.773,0.257 1.837,0.111 2.122,0.515c0,0 1.373,1.299 1.492,1.412c0.577,0.176 0.401,0.754 2.002,0.611c2.467,-0.22 2.428,0.032 4.823,0.632c1.509,0.378 1.703,1.684 1.724,1.706c-5.602,0.46 -5.552,0.16 -11.094,-0.732c-0.616,0.137 -1.231,0.274 -1.847,0.411l-1.115,1.073l-0.836,-0.219l-0.714,-0.353c-0.577,-3.483 -2.099,-2.439 -2.941,-2.476c0.019,-0.173 -0.231,-0.305 -0.212,-0.477c0.081,-0.747 0.399,-0.645 0.415,-1.398c0.003,-0.145 -0.072,-0.112 -0.983,-1.526c0.279,-0.22 0.29,-0.151 0.585,-0.383c0.082,-0.065 0.075,-0.061 1.009,-0.829c-0.23,-0.596 -0.459,-1.192 -0.689,-1.788l-0.365,-1.254l2.088,-0.469c0.165,0.033 2.063,0.412 2.063,0.412c1.74,0.749 1.304,-0.72 1.711,-1.471c0.135,0.007 1.691,0.083 1.691,0.083c0.146,-0.075 0.073,-0.13 0.996,-1.778c0.11,-0.161 1.371,-2.011 1.371,-2.011c0.079,-0.272 -0.494,-0.472 -0.415,-0.744Z" style="fill:#755f4a;"/><path d="M77.853,40.893l1.193,0.489c0.238,0.217 -0.433,0.722 -0.196,0.939c0.116,0.106 0.143,0.003 1.968,0.037c-0.019,0.169 -0.233,2.114 -0.233,2.114c0.172,0.213 0.224,-0.013 3.446,-0.198c-0.389,2.172 -0.339,4.889 -0.332,5.315l0.424,0.708c-0.143,1.467 -0.307,1.4 -0.472,2.864c-2.286,0.563 -2.26,0.571 -2.593,0.617c-1.519,0.024 -1.485,0.054 -2.979,0.177c-0.235,-0.001 -2.935,-0.013 -2.935,-0.013c-1.195,0.232 -0.54,1.005 -0.583,1.085c-0.159,1.371 0.253,2.137 -1.152,1.873c-2.013,-0.378 -1.426,-1.051 -1.78,-3.014c3.37,-1.266 1.052,-2.203 0.865,-2.261c-0.286,-0.089 -0.614,0.088 -0.9,-0.001c0.789,-2.182 0.703,-2.24 -0.084,-4.384c0.387,0.008 0.471,0.763 0.858,0.771c0.174,0.004 0.146,-0.064 1.985,-0.866c0.333,3.259 -1.221,5.586 1.972,4.623c2.302,-0.694 1.646,-3.91 1.13,-4.375c-0.541,-0.488 -0.569,-0.365 -1.157,-0.743c-0.036,-0.151 -0.741,-1.504 0.007,-3.394c0.059,-0.148 0.426,-0.127 0.389,-0.281c-0.107,-0.453 -0.449,-0.182 -0.604,-0.628c-0.16,-0.46 0.238,-0.427 0.068,-0.917c0.564,-0.179 1.129,-0.357 1.693,-0.536Z" style="fill:#735e47;"/><path d="M56.08,64.364c2.596,0.423 1.202,1.742 2.525,4.401c-0.066,0.388 -0.725,0.497 -0.791,0.885c-0.061,0.359 0.35,0.644 0.474,0.987c0.881,2.423 1.696,1.354 3.185,0.581l0.829,0.309c1.919,0.697 1.909,0.909 4.624,0.535c4.37,-0.602 4.346,-0.21 6.658,0.193c-0.192,0.269 -0.136,0.663 -0.327,0.932c-0.854,1.196 -1.184,0.47 -8.151,1.074c-0.443,0.038 -0.435,-0.113 -5.556,-0.081c-1.44,0.009 -1.378,-1.046 -3.587,-0.531c-0.598,0.139 -1.242,0.289 -7.645,0.765c-3.604,-0.619 -3.764,0.654 -7.178,-0.662c-0.581,-0.224 -1.806,-0.411 -1.914,-0.392c-0.215,0.038 -0.336,0.442 -0.541,0.367c-0.561,-0.205 -0.86,-0.878 -1.421,-1.083l1.115,-1.073c0.616,-0.137 1.231,-0.274 1.847,-0.411c5.542,0.892 5.492,1.192 11.094,0.732c0.399,-0.176 0.489,-0.9 2.671,-0.731c2.285,0.177 2.046,-1.742 1.913,-4.249c-0.038,-0.621 -0.075,-1.243 -0.113,-1.864l0.292,-0.685Z" style="fill:#594a3c;"/><path d="M37.437,5.645l3.578,-0.326c-0.19,1.071 -0.264,2.467 -0.455,3.538c-0.777,3.139 -0.586,1.071 -0.414,4.283c0.231,-0.041 0.316,-0.398 0.547,-0.439c0.603,-0.107 0.538,0.259 1.112,0.145c0.715,-0.142 0.517,-0.468 1.276,-0.619c0.67,2.257 1.24,2.252 0.547,4.486c-0.626,2.022 0.244,2.438 0.283,2.824c-0.509,0.572 -0.276,0.758 -1.376,1.547c-2.511,1.801 -1.93,2.263 -3.709,5.353c-0.818,1.038 -0.796,0.988 -1.541,2.091c-0.382,-0.483 -0.764,-0.966 -1.146,-1.448l-0.077,-1.435c0.108,-0.509 0.217,-1.017 0.325,-1.526c1.489,-0.536 2.215,-0.365 1.718,-1.83c-0.071,-0.209 -0.031,-0.202 -0.413,-2.731c0.033,-1.948 0.058,-1.885 -0.053,-3.797c-0.024,-0.136 -0.3,-1.695 -0.3,-1.695c0.064,-0.218 0.462,-0.279 0.46,-0.505c-0.004,-0.61 -0.47,-1.16 -0.474,-1.77c0.142,-0.194 1.312,0.139 1.016,-3.209c-0.339,-3.838 -0.416,-1.686 -0.476,-2.004l-0.431,-0.932Z" style="fill:#2e2722;"/><path d="M44.828,5.645c1.54,0 3.216,0.581 4.756,0.581c0.075,0.251 0.693,2.202 0.055,2.688c-0.301,0.229 -0.802,0.024 -1.116,0.236c-0.169,0.114 -0.206,0.415 -0.114,0.596c0.191,0.375 0.691,-1.559 0.826,-1.161c0.108,0.319 -0.203,0.647 -0.241,0.982c-0.146,1.309 2.654,2.122 3.109,2.667c0.197,0.236 -0.106,0.644 0.032,0.918c0.299,0.595 0.561,0.315 0.883,0.902c0.226,0.411 -0.147,0.437 0.065,0.824c-1.371,0.797 -1.845,0.346 -3.699,3.725c-2.112,1.631 -2.446,1.593 -2.563,3.948c-1.98,0.378 -1.968,0.356 -2.135,0.403c-1.415,0.398 -0.758,0.878 -0.674,2.313c-1.426,0.34 -1.393,0.307 -2.742,0.949c-0.815,0.074 -1.629,0.147 -2.444,0.221c1.779,-3.09 1.198,-3.552 3.709,-5.353c1.1,-0.789 0.867,-0.975 1.376,-1.547c0.795,-0.567 0.692,-0.646 1.575,-1.124c4.288,-2.321 1.248,-5.648 0.999,-8.027c-0.058,-0.559 -0.363,-1.933 -1.659,-4.741Z" style="fill:#0c0b0c;"/><path d="M40.898,40.302c0.115,2.716 0.091,2.694 0.117,2.926c-0.157,0.46 -1.003,0.442 -1.159,0.903c-0.06,0.175 0.941,0.911 1.328,0.795c0.323,-0.096 0.512,-0.469 0.835,-0.565c3.783,-0.619 3.754,-0.684 4.085,-0.668c0.253,0.012 0.392,0.385 0.645,0.396l0.252,0.823c0.335,0.334 0.669,0.668 1.004,1.002l0.27,0.879c0.102,1.351 0.08,1.318 0.447,2.62l-0.136,1.059c-0.572,0.049 -1.144,0.097 -1.715,0.146c-0.069,-0.23 -0.029,-3.143 -1.9,-0.816c0.288,0.684 0.576,1.368 0.864,2.053c-3.336,0.577 -7.912,-1.042 -8.564,-1.272c-0.254,-0.335 -0.508,-0.669 -0.762,-1.004c0.123,-1.347 0.119,-1.313 0.018,-2.664c0.498,-0.447 0.315,-0.633 0.971,-0.872c0.706,-0.257 0.995,-0.345 0.552,-0.906c-0.246,-0.311 -0.748,-0.352 -0.993,-0.663c-0.592,-2.83 0.105,-3.764 0.299,-4.024c0.008,-0.011 3.26,-0.139 3.543,-0.15Z" style="fill:#735e47;"/><path d="M79.918,64.957l0.328,0.616c-0.447,0.802 -0.125,0.953 -0.875,1.57c-0.88,0.723 -0.937,0.924 -0.968,1.033c-0.036,0.128 0.087,0.082 1.214,1.148c1.143,-0.632 1.126,-0.652 1.235,-0.683c0.536,-0.15 0.51,0.166 1.005,0.028c0.153,0.61 0.485,0.381 0.648,1.031c0.04,0.161 -0.053,0.142 -0.729,1.946c-1.434,0.354 -1.405,0.31 -2.75,0.821c-0.316,-0.137 -0.79,-1.252 -3.755,-0.331c-0.563,0.04 -1.125,0.08 -1.688,0.12c-2.312,-0.403 -2.288,-0.795 -6.658,-0.193c-2.715,0.374 -2.705,0.162 -4.624,-0.535c0.256,-0.161 0.586,0.5 0.842,0.339c0.519,-0.326 0.616,-1.063 1.028,-1.514c0.268,-0.293 0.789,-0.336 0.981,-0.683c0.154,-0.277 -0.108,-0.63 -0.078,-0.944c0,0 0.867,-0.933 0.942,-1.014c4.747,1.005 5.792,-0.088 6.625,-0.559c0.326,-0.31 0.652,-0.62 0.978,-0.929c1.048,-1.994 2.422,-2.201 6.298,-1.268Z" style="fill:#7e6852;"/><path d="M48.322,25.601c3.771,-0.027 3.725,-0.068 7.447,0.211c0.308,0.213 0.22,0.771 0.529,0.984c1.458,1.007 1.895,-0.178 3.292,0.925c0.262,0.207 -0.173,0.784 0.089,0.991c-0.073,0.435 -0.202,0.345 -0.273,0.769c-0.202,1.2 -0.361,1.107 -0.726,2.225l-1.022,-0.065c0.092,-1.972 0.15,-1.966 0.1,-2.13c-0.629,-2.046 -7.576,-1.025 -7.598,-0.987c-0.181,0.303 0.44,2.76 -1.644,3.04c-2.656,0.357 -1.261,1.534 -0.968,4.149c-3.358,-0.056 -3.309,-0.139 -6.691,-0.114c-1.792,0.014 -1.745,0.05 -3.563,-0.078l-0.67,-0.143c-0.136,-2.186 -0.98,-3.324 2.598,-4.02c4.245,0.527 5.682,1.963 6.818,-1.583c0.455,-1.005 0.327,-1.275 1.486,-1.373c2.273,-0.194 1.443,-1.173 0.796,-2.802Z" style="fill:#483e33;"/><path d="M104.246,55.728c2.634,4.371 2.518,4.407 3.539,9.356c-0.067,2.961 -0.557,3.349 -3.912,3.424c-3.53,0.151 -4.361,1.316 -6.027,-1.715c-0.73,-3.589 -0.774,-3.535 -1.303,-7.187c0.648,-0.017 1.161,-0.689 1.809,-0.706c1.73,-0.045 2.861,6.571 4.463,6.582c0.381,0.002 0.678,-0.363 1.048,-0.452c0.819,-0.197 1.168,-0.007 1.089,-0.808c-0.158,-1.611 -1.206,-2.377 -1.393,-2.514c-1.201,-0.878 -1.789,-1 -0.897,-2.188c0.577,-0.768 0.577,-0.769 0.595,-1.718c0.035,-1.768 0.7,-1.468 0.989,-2.074Z" style="fill:#82705c;"/><path d="M73.207,14.016c-0.218,0.423 -0.862,0.521 -1.079,0.943c-0.623,1.21 5.659,5.698 2.206,6.238c-1.118,0.175 -2.418,-2.827 -6.553,-2.311c-6.374,0.795 -7.609,2.259 -8.37,1.966c-1.042,-0.401 -0.296,-1.858 -3.59,-2.067c-1.926,-0.122 -1.599,-1.151 -1.877,-1.351c0.631,-0.659 1.262,-1.318 1.893,-1.977c3.53,-0.44 3.944,0.119 4.666,0.014c0.353,-0.052 0.561,-0.464 0.902,-0.568c0.422,-0.129 0.422,0.235 5.517,0.285c1.058,0.01 0.968,0.202 1.667,0.941c1.216,1.285 1.625,0.159 2.153,0.026c1.153,-1.215 1.145,-1.145 2.465,-2.138Z" style="fill:#121213;"/><path d="M84.449,61.583c1.763,0.079 1.752,0.075 1.904,0.086c0.424,0.03 0.379,0.083 0.827,0.114c-2.01,1.814 -2.116,1.631 -4.742,2.269c-1.749,1.101 -1.925,0.808 -2.52,0.905c-3.876,-0.934 -5.25,-0.727 -6.298,1.268c-1.104,-1.42 -0.875,-1.79 -2.073,-1.951c-0.29,-0.039 -3.41,-0.457 -3.644,-0.341c-0.323,0.16 -0.246,1.158 -0.238,1.261c0.028,0.36 0.347,0.156 0.376,0.541c-0.387,-0.041 -0.748,-0.226 -1.134,-0.267c-1.621,-0.173 -1.08,0.668 -0.89,2.246c-0.075,0.081 -0.942,1.014 -0.942,1.014c-0.03,0.314 0.232,0.667 0.078,0.944c-0.192,0.346 -0.713,0.389 -0.981,0.683c-0.413,0.451 -0.509,1.188 -1.028,1.514c-0.256,0.161 -0.586,-0.5 -0.842,-0.339l-0.829,-0.309c-0.537,-1.508 -0.697,-1.395 -1.986,-2.319c0.502,-0.206 0.513,0.108 0.977,-0.082c0.55,-0.225 0.32,-0.488 0.906,-0.69c0.139,-0.048 2.188,0.269 2.212,0.092c0.279,-2.007 -1.748,-1.306 -1.91,-3.107c-0.187,-2.073 2.93,-0.982 3.39,-1.855c0.194,-0.368 -0.021,-0.864 0.172,-1.232c6.395,0.815 17.684,-0.293 19.214,-0.443Z" style="fill:#91775b;"/><path d="M87.179,61.783l0.756,-0.081l1.465,0.261c0.376,0.367 0.147,1.111 0.523,1.478c0.085,0.083 0.113,-0.152 1.45,0.35c0.197,0.074 0.192,0.03 2.597,0.404c0.099,0.502 0.396,2.012 0.636,6.366c-1.36,0.951 -1.2,1.463 -2.639,1.266c-1.864,-0.255 -2.232,0.21 -1.869,2.059c-6.415,0.143 -6.422,1.072 -11.031,0.129c-0.014,-0.516 -0.028,-1.032 -0.042,-1.548c1.344,-0.511 1.316,-0.467 2.75,-0.821c4.959,1.234 4.713,-0.3 4.883,-0.776c0.034,-0.096 0.051,-0.08 0.682,-1.076c0.372,-0.209 0.376,-0.084 0.731,-0.284c0.09,-0.05 0.08,-0.052 1.077,-0.702c1.038,0.471 1.014,0.399 2.796,0.953c0.155,-0.34 0.31,-0.68 0.465,-1.02c0.02,-0.108 1.892,-1.568 -0.569,-2.668c-1.088,-0.486 -1.072,-0.315 -2.457,-0.465c-3.693,-1.682 -4.443,-0.07 -5.747,-0.669c-0.453,-0.208 -0.747,-0.678 -1.199,-0.886c2.626,-0.637 2.731,-0.455 4.742,-2.269Z" style="fill:#584939;"/><path d="M69.939,5.936c2.771,0 5.022,-0.618 7.793,-0.618c-0.223,0.259 0.995,1.423 -0.706,1.556c-0.064,0.005 -0.452,0.035 -0.787,0.14c-0.318,0.099 -0.796,-1.842 -2.035,1.553c-0.328,0.899 0.453,1.053 -0.998,5.449c-1.32,0.993 -1.313,0.923 -2.465,2.138c-0.642,-0.986 -0.279,-1.117 -0.94,-2.132c-0.387,-0.594 -0.587,-0.317 -1.019,-0.877c-0.197,-0.255 -0.153,-0.642 -0.349,-0.897c-0.483,-0.31 -0.966,-0.619 -1.449,-0.929c-0.011,-0.336 -0.845,-0.445 -0.058,-1.825c0.186,-0.327 0.428,-0.623 0.59,-0.963c0.361,-0.759 0.449,1.301 1.293,1.178c1.113,-0.163 0.749,-0.663 0.794,-1.01c0.201,-1.556 0.367,-1.225 0.337,-2.761Z" style="fill:#090708;"/><path d="M69.745,53.683c0.628,0.067 1.256,0.135 1.884,0.202c0.354,1.963 -0.233,2.636 1.78,3.014c1.405,0.264 0.994,-0.502 1.152,-1.873c4.305,2.666 4.681,1.331 4.691,0.953c0.005,-0.187 -0.086,-0.148 -1.173,-2.025c1.494,-0.123 1.46,-0.153 2.979,-0.177l-0.564,1.314c0.142,0.616 0.283,1.233 0.425,1.849c-0.577,2.177 -0.6,2.451 -2.803,2.896c-0.697,-0.203 -1.394,-0.406 -2.091,-0.609c-4.464,1.713 -4.568,0.779 -4.628,0.516c-0.161,-0.703 -0.151,-0.64 -0.306,-1.297c-0.155,-0.209 -0.31,-0.418 -0.464,-0.627c-1.599,-1.914 -1.497,-2.052 -1.712,-2.049c-0.128,0.002 -0.077,0.092 -1.377,0.804c-1.369,0.751 0.22,0.684 1.618,1.313c0.029,2.24 0.242,2.241 0.138,2.404c-0.003,0.005 -1.425,0.365 -1.443,0.365c-2.151,0.026 -1.79,-0.709 -2.053,-1.91c0.082,-0.626 0.242,-1.241 0.324,-1.866c0.152,-1.157 0.166,-1.151 0.078,-1.19c-1.185,-0.536 -1.245,0.663 -2.415,0.134c-0.165,-0.63 -0.33,-1.26 -0.495,-1.89c3.249,-0.331 3.211,-0.59 6.455,-0.251Z" style="fill:#9b7e5e;"/><path d="M100.801,49.879c1.547,-0.037 3.175,4.729 1.346,4.787c-4.41,0.139 -4.398,0.153 -4.726,0.129c-0.158,-0.011 -1.656,-0.12 -1.963,0.253c-0.202,0.246 0.119,0.701 -0.084,0.947c-0.242,-0.912 -0.484,-1.825 -0.726,-2.737c0.224,-0.072 2.8,-0.897 2.8,-0.897c0.344,-0.26 0.25,-0.88 0.594,-1.14c1.768,0.957 2.156,2.915 2.898,1.058c0,0 -0.128,-2.207 -0.139,-2.398Z" style="fill:#4d4236;"/><path d="M25.239,32.975c4.728,0.077 4.76,-0.083 5.087,0.155c0.268,0.195 0.007,0.753 0.276,0.948c-0.085,2.363 -0.333,2.288 -0.828,4.567c-0.47,2.875 -0.12,3.005 -1.514,4.678c-0.266,-0.031 -0.468,0.357 -0.735,0.325c-1.114,-0.131 -0.928,-0.708 -2.084,-0.682c-0.609,0.014 -1.226,0.317 -1.82,0.182c-0.436,-0.099 -0.606,-0.735 -1.042,-0.834c0.452,-3.725 0.745,-6.647 2.66,-9.339Z" style="fill:#a2896c;"/><path d="M31.871,19.519c-0.045,2.731 -0.086,2.689 -0.445,5.372c-0.054,0.405 0.194,1.93 0.155,2.825c-0.092,2.141 -0.233,2.067 -0.85,3.517c-2.12,-0.436 -4.596,-0.32 -4.996,-0.301c-0.799,-1.96 -0.673,-1.986 -0.204,-4.056c1.342,-3.772 -0.414,-7.551 2.484,-6.879c1.399,0.324 1.352,0.05 3.855,-0.477Z" style="fill:#b49673;"/><path d="M59.769,44.275c0.302,0.866 -0.539,0.846 -0.24,1.704c0.031,0.09 0.066,0.189 1.044,0.598c1.064,0.446 1.06,0.371 1.927,1.089c-0.209,1.367 -1.727,1.911 -0.322,2.101c1.683,0.228 1.229,-0.59 1.893,-2.166c2.371,-0.923 2.416,-0.861 4.94,-0.367c-0.208,2.193 -0.216,2.178 -0.224,2.369c-0.017,0.404 0.145,0.338 0.128,0.745c-0.641,0.416 -0.772,0.199 -1.209,0.784c-0.678,0.907 -6.706,0.825 -7.293,0.817c-0.069,-0.12 -0.861,-1.494 -0.861,-1.494c-0.249,-0.201 -0.704,0.06 -0.953,-0.141c0.15,-0.236 1.78,-2.811 0.042,-3.482c-1.442,-0.557 -4.956,0.238 -5.377,0.333l-0.925,-0.028l-0.064,-1.18c0.112,-0.048 1.043,0.247 1.956,-0.835c0.422,-0.501 0.891,-4.233 3.216,-2.474c0.549,0.416 0.589,1.057 0.596,1.161c0.024,0.391 -0.378,0.891 -0.101,1.17c0.11,0.111 0.13,-0.05 1.828,-0.701Z" style="fill:#957a5a;"/><path d="M41.016,5.318l3.812,0.326c1.295,2.809 1.6,4.183 1.659,4.741c0.249,2.379 3.289,5.705 -0.999,8.027c-0.883,0.478 -0.781,0.557 -1.575,1.124c-0.039,-0.385 -0.909,-0.802 -0.283,-2.824c0.692,-2.234 0.122,-2.229 -0.547,-4.486c-1.161,-2.809 -0.916,-0.797 -2.521,-3.37c0.19,-1.071 0.264,-2.467 0.455,-3.538Z" style="fill:#191615;"/><path d="M48.276,46.793c2.053,0.041 2.037,-0.081 4.063,0.341l0.925,0.028c-0.086,0.051 -1.069,0.642 -1.069,0.642c0.011,0.377 0.576,0.551 0.674,0.915c0.022,0.082 -0.608,0.482 0.219,0.879c1.689,0.811 5.067,0.725 5.511,0.713c0.605,0.545 1.209,1.09 1.814,1.635c0.587,0.008 6.615,0.091 7.293,-0.817c0.437,-0.585 0.568,-0.368 1.209,-0.784l0.786,1.093c0.015,0.748 0.029,1.496 0.044,2.244c-3.244,-0.34 -3.206,-0.08 -6.455,0.251c-4.531,0.153 -4.476,-0.317 -8.967,-0.253c-0.88,-1.568 -0.796,-1.655 -0.949,-1.691c-1.595,-0.37 -1.551,1.174 -3.06,0.501c-1.77,-0.79 0.054,-1.818 0.188,-1.894c2.128,-1.2 -1.607,-1.184 -1.778,-1.184c-0.367,-1.302 -0.346,-1.269 -0.447,-2.62Z" style="fill:#886e51;"/><path d="M80.919,56.94l0.528,-0.323c1.377,1.268 1.275,1.381 3.049,2.097c-0.254,1.459 -0.153,1.408 -0.047,2.869c-1.53,0.15 -12.819,1.257 -19.214,0.443c-0.692,-0.083 -1.384,-0.167 -2.076,-0.25c-0.129,-0.594 -0.258,-1.189 -0.387,-1.783c0.239,-0.681 0.478,-1.361 0.716,-2.042l0.239,-0.519c0.69,0.438 1.38,0.877 2.071,1.315c0.264,1.201 -0.097,1.936 2.053,1.91c0.018,-0 1.44,-0.36 1.443,-0.365c0.104,-0.163 -0.11,-0.164 -0.138,-2.404c0.49,-0.023 0.98,-0.046 1.47,-0.069l0.464,0.627c0.155,0.657 0.145,0.594 0.306,1.297c0.06,0.263 0.165,1.197 4.628,-0.516c0.882,0.576 0.208,1.099 1.08,1.669c0.068,0.045 0.404,0.264 0.971,-0.329c0.169,-0.178 -0.129,-0.553 0.04,-0.731c2.203,-0.445 2.226,-0.719 2.803,-2.896Z" style="fill:#6d5943;"/><path d="M79.932,5.645l1.848,0l0.109,1.357c-0.029,2.414 0.317,0.514 -1.236,2.414c-1.273,1.558 -0.339,4.394 -0.813,6.445c-0.355,1.537 1.065,1.373 1.094,1.414c0.102,0.145 -0.128,0.155 0.059,2.209c0.078,0.864 0.212,0.764 1.421,2.772l-0.05,1.063c-0.13,1.319 -0.135,1.263 -0.557,2.542c-1.809,-0.915 -1.848,-0.961 -2.538,-2.859c-0.961,-2.644 0.396,-3.092 -1.365,-5.294c-2.169,-2.712 -1.676,-3.04 -0.581,-6.344c0.591,-1.784 0.917,-1.616 0.94,-1.774c0.05,-0.341 -0.398,-0.695 -0.247,-1.006c0.126,-0.259 2.036,1.882 1.865,0.259c-0.171,-1.621 0.025,-1.592 0.05,-3.2Z" style="fill:#29231d;"/><path d="M22.579,42.313c0.436,0.099 0.606,0.735 1.042,0.834c0.594,0.135 1.21,-0.168 1.82,-0.182c1.156,-0.026 0.97,0.551 2.084,0.682c0.266,0.031 0.468,-0.357 0.735,-0.325c-0.122,0.735 -1.403,8.457 -1.624,9.171c-0.078,0.252 -0.456,0.339 -0.534,0.591c-0.528,-0.09 -2.827,0.199 -3.794,-1.442c-1.038,-1.762 -1.623,-1.719 -1.927,-2.042c0.089,-3.093 0.49,-2.973 1.967,-5.695c0.535,-0.986 0.206,-1.423 0.23,-1.593Z" style="fill:#9e8468;"/><path d="M48.316,74.414c-0.2,0.258 -21.11,-0.278 -18.251,-0.679c0.952,-0.134 2.472,0.539 3.604,0.656c3.61,0.371 2.751,-1.191 2.757,-1.965l0.836,0.219c0.561,0.205 0.86,0.878 1.421,1.083c0.205,0.075 0.325,-0.329 0.541,-0.367c0.108,-0.019 1.333,0.168 1.914,0.392c3.414,1.316 3.575,0.043 7.178,0.662Z" style="fill:#6b5b4a;"/><path d="M47.375,61.858c4.297,0.286 4.235,0.275 8.497,0.461c0.069,0.682 0.139,1.364 0.208,2.046l-0.292,0.685c-1.792,0.807 -1.84,0.803 -3.74,0.308c-0.936,-0.627 -0.781,-1.908 -1.469,-0.985c-0.263,0.353 0.114,0.428 -0.165,0.803c-0.257,0.143 -0.134,0.682 -3.785,0.677c-0.628,0.061 -1.256,0.122 -1.884,0.183c-1.035,-0.664 -1.027,-0.661 -1.117,-0.717c-0.309,-0.193 -4.459,-0.77 -4.807,-1.226c-0.187,-0.244 0.552,-0.599 0.366,-0.844c0.184,-0.196 -0.093,-0.6 0.09,-0.795c0.265,-0.282 3.283,-0.412 3.57,-0.424c2.32,0.153 2.297,0.292 4.529,-0.172Z" style="fill:#a58766;"/><path d="M83.651,53.16c0.593,0.132 1.185,0.264 1.778,0.397c2.313,-0.018 2.264,0.105 4.577,-0.234c0.384,0.928 0.624,0.797 0.74,1.791c0.008,0.071 0.067,0.571 0.221,0.864c0.839,1.596 0.922,1.629 0.512,3.415c-0.741,0.147 -1.482,0.293 -2.223,0.44c-0.312,-0.099 -0.67,0.136 -0.982,0.037c-0.332,-0.106 -0.504,-0.521 -0.839,-0.617c-0.279,-0.08 -0.583,0.21 -0.861,0.129c-0.045,-0.013 0.186,-0.144 -0.329,-0.478c-0.118,-0.076 -0.13,-0.014 -1.75,-0.19c-1.774,-0.717 -1.672,-0.829 -3.049,-2.097c-0.318,-0.509 -0.635,-1.017 -0.953,-1.526l0.564,-1.314c0.333,-0.045 0.308,-0.054 2.593,-0.617Z" style="fill:#6f5944;"/><path d="M95.373,55.994c0.202,-0.246 -0.119,-0.701 0.084,-0.947c0.308,-0.374 1.805,-0.265 1.963,-0.253c0.328,0.024 0.316,0.01 4.726,-0.129c1.829,-0.058 1.981,0.962 2.1,1.063c-0.289,0.606 -0.954,0.306 -0.989,2.074c-0.019,0.949 -0.019,0.95 -0.595,1.718c-0.892,1.188 -0.304,1.311 0.897,2.188c0.187,0.136 1.236,0.903 1.393,2.514c0.078,0.801 -0.27,0.611 -1.089,0.808c-0.37,0.089 -0.667,0.455 -1.048,0.452c-1.602,-0.01 -2.732,-6.627 -4.463,-6.582c-0.648,0.017 -1.161,0.689 -1.809,0.706c-0.01,-0.028 -0.001,-0 -1.17,-3.612Z" style="fill:#9f886d;"/><path d="M73.474,38.738l0.817,-0.096c0.252,1.783 0.429,1.74 1.869,2.788c-3.123,1.586 -3.1,1.802 -4.65,5.81c-1.245,-0.197 -1.208,-0.225 -2.499,-0.006c-2.524,-0.495 -2.569,-0.556 -4.94,0.367c-0.524,0.022 -1.047,0.044 -1.571,0.066c-0.867,-0.717 -0.863,-0.643 -1.927,-1.089c-0.978,-0.41 -1.012,-0.508 -1.044,-0.598c-0.299,-0.857 0.542,-0.838 0.24,-1.704c-0.081,-0.477 0.11,-0.455 0.033,-0.913c-0.176,-1.043 -0.076,-1.007 -0.158,-2.099c0.487,-0.052 0.974,-0.104 1.461,-0.156c0.45,3.286 0.047,5.383 3.044,3.87c3.527,-1.78 3.88,0.393 5.523,-0.374c1.403,-0.655 0.411,-1.363 1.474,-2.478c0.126,-0.132 0.099,-0.136 1.338,-1.835c0.33,-0.517 0.659,-1.035 0.989,-1.552Z" style="fill:#7a644b;"/><path d="M58.522,22.65c0.357,0.053 0.669,-0.394 1.026,-0.341c0.316,0.047 0.43,0.527 0.741,0.602c0.145,0.035 0.107,-0.35 0.255,-0.363c0.223,-0.019 0.171,0.075 2.793,0.177c7.927,0.309 11.976,-0.552 12.761,0.574c0.038,0.054 -0.259,0.046 0.021,0.82c0.254,0.701 0.469,0.532 0.742,1.286c-11.419,0.174 -11.736,0.268 -12.71,0.559c-2.727,-0.322 -2.682,-0.415 -5.405,-0.486c-0.132,-0.557 -0.449,-0.476 -0.322,-1.358c0.088,-0.611 0.318,-0.505 0.36,-1.142c0.009,-0.139 -0.272,-0.188 -0.262,-0.327Z" style="fill:#2e2a27;"/><path d="M92.069,8.651c0.374,1.854 0.36,1.801 1.084,3.583c0.114,0.943 0.229,1.886 0.343,2.829c-0.151,0.574 -0.302,1.149 -0.453,1.723l-0.111,0.97c-2.457,0.082 -2.479,-0.077 -4.779,0.863c-0.775,-4.524 -0.824,-4.467 -1.128,-9.084c0.428,-0.184 1.827,-1.05 3.016,-0.876c0.422,0.062 0.815,0.308 1.242,0.306c0.283,-0.001 0.503,-0.313 0.786,-0.314Z" style="fill:#b5946d;"/><path d="M79.38,39.52c1.144,0.578 1.058,0.849 2.309,0.783c1.29,-0.068 1.702,-0.645 1.813,-0.665c0.208,-0.038 0.363,0.313 0.571,0.276c1.687,0.181 1.634,0.181 3.271,0.425c-0.317,2.886 -0.531,2.864 -0.134,5.741c-0.545,0.377 -1.089,0.754 -1.634,1.131c0.143,0.471 -0.336,0.991 -0.193,1.462c0.085,0.28 0.184,0.606 2.807,2.383c0.605,0.756 1.211,1.511 1.816,2.267c-2.313,0.34 -2.264,0.216 -4.577,0.234c0.464,-1.89 0.619,-1.874 0.42,-2.396c-0.594,-1.558 -1.558,-0.781 -1.726,-0.865l-0.424,-0.708c-0.008,-0.426 -0.057,-3.142 0.332,-5.315c-0.531,-1.825 -0.438,-2.337 -2.329,-2.239c-0.314,0.016 -0.57,0.307 -0.884,0.323c-1.825,-0.034 -1.852,0.069 -1.968,-0.037c-0.238,-0.217 0.433,-0.722 0.196,-0.939c0.111,-0.621 0.223,-1.241 0.334,-1.862Z" style="fill:#514132;"/><path d="M37.287,28.526c0.731,0.156 1.462,0.311 2.193,0.467c-0.208,1.18 -0.048,1.169 -0.257,2.366c-3.578,0.696 -2.734,1.834 -2.598,4.02c-0.348,0.131 -2.428,-0.124 -1.834,2.302c0.144,0.586 1.51,1.441 -1.268,2.511c-2.098,-0.042 -2.031,-0.288 -3.748,-1.548c0.495,-2.278 0.742,-2.204 0.828,-4.567c2.269,-0.854 2.317,-0.839 3.731,-2.804c1.596,-1.271 1.641,-1.16 2.954,-2.748Z" style="fill:#27211c;"/><path d="M51.776,39.365c0.481,0.222 0.836,0.663 1.317,0.884c1.425,0.656 3.417,-0.76 6.552,1.014c0.082,1.091 -0.019,1.056 0.158,2.099c0.077,0.457 -0.113,0.435 -0.033,0.913c-1.698,0.651 -1.718,0.811 -1.828,0.701c-0.278,-0.28 0.125,-0.78 0.101,-1.17c-0.006,-0.104 -0.046,-0.745 -0.596,-1.161c-2.325,-1.759 -2.794,1.973 -3.216,2.474c-0.913,1.082 -1.844,0.788 -1.956,0.835c-0.039,-0.276 -0.434,-0.508 -0.262,-1.861c0.38,-2.991 -2.446,-1.392 -2.55,-0.851c-0.303,1.576 0.456,1.443 0.374,1.54c-0.459,0.547 -1.371,0.585 -1.83,1.132c-0.335,-0.334 -0.669,-0.668 -1.004,-1.002l-0.252,-0.823c0.95,-3.402 0.562,-3.503 0.748,-3.747c0.194,-0.253 0.752,0.067 0.946,-0.186c2.261,-0.199 2.465,0.199 3.333,-0.79Z" style="fill:#9b7e5f;"/><path d="M71.568,35.588l-0.93,1.637c-0.619,0.266 -0.236,0.655 -0.846,0.917c-0.425,0.182 -0.344,-0.331 -0.795,-0.213c0,0 -0.687,0.837 -0.747,0.91c-0.477,-0.021 -0.814,-0.591 -1.29,-0.612c-0.403,-0.018 -0.715,0.635 -1.097,0.506c-0.507,-0.171 -0.51,-1.07 -1.023,-1.223c-0.77,-0.23 -2.304,1.845 -7.182,0.563c-1.026,-0.27 -4.772,-0.286 -5.804,0.719c-0.139,0.135 0.061,0.438 -0.078,0.573l-0.234,-1.729c0.131,-0.302 0.203,-0.627 0.334,-0.929c0.835,-1.93 6.684,-0.477 19.693,-1.119Z" style="fill:#9a8062;"/><path d="M46.822,22.55c0.127,0.022 0.495,0.261 1.434,0.25c9.482,-0.112 9.448,-0.071 10.266,-0.149c-0.009,0.139 0.272,0.188 0.262,0.327c-0.042,0.637 -0.272,0.53 -0.36,1.142c-0.127,0.881 0.19,0.801 0.322,1.358c-1.538,-0.087 -1.564,-0.289 -2.976,0.335c-3.722,-0.279 -3.676,-0.238 -7.447,-0.211c-2.755,-0.019 -3.97,-0.266 -4.309,-0.335c-0.084,-1.435 -0.741,-1.915 0.674,-2.313c0.167,-0.047 0.156,-0.025 2.135,-0.403Z" style="fill:#322d2a;"/><path d="M52.032,53.857c0.211,0.407 -0.274,0.963 -0.063,1.37c0,0 1.623,0.062 1.764,0.068l0.881,0.061c-1.542,1.518 -1.135,2.009 -3.186,2.807c-0.44,0.638 -0.879,1.276 -1.319,1.913c-0.131,-0.026 -1.631,-0.328 -1.631,-0.328c-0.884,-0.014 -1.174,0.632 -1.204,0.648c-0.243,-0.014 -0.487,0.045 -0.73,0.031c-1.673,-0.095 -0.782,-1.482 -2.371,-2.013c-0.104,-0.035 -0.09,-0.047 -1.212,-0.638l-0.301,-0.809c0.285,-0.318 -0.389,-1.045 1.061,-1.185c1.89,-0.182 2.882,0.889 3.02,0.96c0.492,-0.342 0.985,-0.684 1.477,-1.026c0.166,-0.214 -0.338,-0.989 1.171,-1.51c0,-0 2.429,-0.322 2.641,-0.35Z" style="fill:#9e8161;"/><path d="M54.323,53.681c4.491,-0.064 4.437,0.406 8.967,0.253c0.165,0.63 0.33,1.26 0.495,1.89c-0.019,0.536 -0.039,1.072 -0.058,1.608l-0.239,0.519c-4.185,-0.625 -4.156,0.049 -5.786,1.608l-0.86,0.384c-0.673,-0.421 -0.316,-0.73 -0.984,-1.148c-0.448,-0.28 -0.551,0.272 -0.981,-0.081c-1.22,-1 -0.179,-1.189 1.318,-1.784c1.296,-0.515 -1.412,-1.513 -1.58,-1.575l-0.881,-0.061l0.015,-1.539l0.574,-0.074Z" style="fill:#bb9a71;"/><path d="M36.624,35.38l0.67,0.143c0.278,1.026 -0.577,3.413 3.64,2.314c-0.012,0.822 -0.024,1.643 -0.036,2.465c-0.283,0.011 -3.535,0.138 -3.543,0.15c-0.194,0.26 -0.891,1.193 -0.299,4.024c-1.58,0.212 -1.38,0.58 -2.365,1.787l-0.997,-0.292l-0.858,0.116c0.034,-0.094 0.419,-1.178 0.419,-1.178c0.93,-2.258 0.119,-2.323 0.267,-4.716c2.778,-1.07 1.412,-1.925 1.268,-2.511c-0.594,-2.426 1.485,-2.171 1.834,-2.302Z" style="fill:#4e4032;"/><path d="M67.883,40.392c1.534,-0.034 3.068,-0.068 4.602,-0.102c-1.239,1.699 -1.213,1.703 -1.338,1.835c-1.062,1.115 -0.071,1.823 -1.474,2.478c-1.643,0.767 -1.996,-1.406 -5.523,0.374c-2.997,1.513 -2.594,-0.584 -3.044,-3.87c0.647,-0.16 0.588,-0.322 1.25,-0.308c2.996,0.06 5.166,-0.364 5.527,-0.407Z" style="fill:#a58764;"/><path d="M25.827,68.606c4.03,2.214 3.825,2.501 4.181,2.678c0.271,0.135 0.637,-0.189 0.908,-0.055c1.911,0.844 1.868,1.402 4.796,0.843l0.714,0.353c-0.006,0.774 0.853,2.337 -2.757,1.965c-1.132,-0.117 -2.652,-0.789 -3.604,-0.656c-2.86,0.401 -2.576,1.323 -5.495,1.614c-0.034,-0.178 -1.013,-1.319 0.059,-2.836c1.207,-1.707 0.906,-1.799 1.198,-3.907Z" style="fill:#3d3228;"/><path d="M68.251,38.839c-0.123,0.518 -0.245,1.035 -0.368,1.553c-0.361,0.043 -2.531,0.467 -5.527,0.407c-0.662,-0.013 -0.603,0.149 -1.25,0.308c-0.487,0.052 -0.974,0.104 -1.461,0.156c-3.135,-1.774 -5.127,-0.358 -6.552,-1.014c-0.481,-0.222 -0.836,-0.663 -1.317,-0.884c0.139,-0.135 -0.061,-0.438 0.078,-0.573c1.033,-1.004 4.778,-0.988 5.804,-0.719c4.877,1.281 6.412,-0.793 7.182,-0.563c0.513,0.153 0.516,1.052 1.023,1.223c0.382,0.129 0.694,-0.524 1.097,-0.506c0.477,0.021 0.814,0.591 1.29,0.612Z" style="fill:#7c664d;"/><path d="M63.159,61.776c0.692,0.083 1.384,0.167 2.076,0.25c-0.194,0.368 0.021,0.864 -0.172,1.232c-0.46,0.873 -3.577,-0.218 -3.39,1.855c0.162,1.801 2.189,1.1 1.91,3.107c-0.025,0.177 -2.073,-0.14 -2.212,-0.092c-0.587,0.202 -0.356,0.464 -0.906,0.69c-0.464,0.19 -0.475,-0.124 -0.977,0.082l-0.882,-0.134c-1.322,-2.66 0.071,-3.979 -2.525,-4.401c-0.069,-0.682 -0.139,-1.364 -0.208,-2.046c0.896,-0.06 1.792,-0.12 2.689,-0.18c3.774,0.034 3.724,-0.17 4.599,-0.362Z" style="fill:#9a7e60;"/><path d="M56.689,31.663c-3.278,-0.057 -7.095,-0.657 -6.715,1.588c0.225,1.333 0.75,0.741 2.156,0.642c-0.781,0.783 -0.195,1.981 -2.796,1.681c0,0 -1.644,0.129 -1.787,0.14c-0.294,-2.616 -1.689,-3.792 0.968,-4.149c2.084,-0.28 1.463,-2.737 1.644,-3.04c0.023,-0.039 6.97,-1.059 7.598,0.987c0.05,0.163 -0.007,0.158 -0.1,2.13l-0.968,0.022Z" style="fill:#5b4e40;"/><path d="M44.744,66.035c0.628,-0.061 1.256,-0.122 1.884,-0.183c0.403,0.399 1.151,2.598 3.645,1.887c1.377,-0.393 1.348,-0.074 2.756,0.212c1.606,0.325 1.466,-0.224 2.871,-1.038c0.132,2.506 0.371,4.426 -1.913,4.249c-2.182,-0.169 -2.272,0.554 -2.671,0.731c-0.022,-0.021 -0.215,-1.328 -1.724,-1.706c-2.395,-0.599 -2.356,-0.852 -4.823,-0.632c-1.6,0.143 -1.425,-0.435 -2.002,-0.611c1.929,-1.927 1.999,-1.861 2.083,-2.08c0.162,-0.425 -0.268,-0.407 -0.107,-0.829Z" style="fill:#987e61;"/><path d="M81.888,7.002c0.188,0.03 0.625,-0.512 1.586,0.252c0.153,0.121 0.097,0.387 0.218,0.54c0.246,0.312 0.807,0.438 0.86,0.83c0.045,0.333 -0.506,-1.846 -0.878,2.045c-1.671,2.023 -1.753,1.964 -1.804,2.184c-0.04,0.175 1.124,-0.21 0.776,2.113c-0.04,0.264 -0.215,0.497 -0.254,0.762c-0.179,0.654 -0.538,0.437 -0.719,1.101c-0.013,0.049 -0.031,0.112 0.26,0.579c0.118,0.19 0.307,0.331 0.426,0.521c0.072,0.622 0.494,0.916 0.056,4.33c-1.209,-2.008 -1.342,-1.908 -1.421,-2.772c-0.186,-2.054 0.043,-2.064 -0.059,-2.209c-0.029,-0.042 -1.449,0.122 -1.094,-1.414c0.474,-2.051 -0.46,-4.887 0.813,-6.445c1.553,-1.9 1.207,-0.001 1.236,-2.414Z" style="fill:#3c3127;"/><path d="M48.723,49.413c0.172,-0.001 3.907,-0.016 1.778,1.184c-0.134,0.076 -1.958,1.104 -0.188,1.894c1.509,0.673 1.465,-0.87 3.06,-0.501c0.153,0.035 0.069,0.122 0.949,1.691l-0.574,0.074c-0.898,0.02 -0.842,-0.013 -1.717,0.102c-0.211,0.028 -2.641,0.35 -2.641,0.35c-1.51,0.52 -1.005,1.296 -1.171,1.51c-0.492,0.342 -0.985,0.684 -1.477,1.026c-0.138,-0.072 -1.131,-1.142 -3.02,-0.96c-1.45,0.139 -0.776,0.866 -1.061,1.185l-0.625,-1.005l-0.79,-0.379c-1.471,-1.114 -1.082,-1.372 -1.394,-1.864c3.331,-0.245 3.325,0.532 6.614,-0.154c1.644,-0.389 1.69,-0.301 1.773,-0.42c0,-0 0.32,-2.459 0.348,-2.673l0.136,-1.059Z" style="fill:#8e7355;"/><path d="M78.112,25.772c0.58,-0.005 0.92,0.876 1.499,0.87c0.127,-0.001 -0.123,-0.391 1.3,-0.897c0.457,-0.163 0.435,0.28 0.896,0.116c0.978,3.17 1.092,3.279 3.809,4.546c0.687,2.572 0.668,2.56 0.742,2.778c0.293,0.868 0.207,0.875 -0.388,1.559c-0.534,0.614 -0.628,0.417 -1.289,0.857c-0.433,-0.108 -0.867,-0.217 -1.3,-0.325c0.041,-2.702 0.137,-3.165 -2.484,-4.048c-0.072,-0.544 -0.144,-1.089 -0.216,-1.633c-0.127,-0.192 0.456,-0.712 -0.725,-1.101c-1.773,-0.584 -1.484,-0.953 -1.844,-2.722Z" style="fill:#171412;"/><path d="M32.836,46.087l0.858,-0.116c0.204,0.353 0.993,-0.008 1.014,1.752c0.012,1.055 -0.021,1.012 -0.008,2.111c0.603,-0.084 1.206,-0.169 1.81,-0.253c0.254,0.335 0.508,0.669 0.762,1.004c-0.767,1.589 -0.748,1.586 -0.828,1.716c-0.226,0.369 -0.699,0.548 -0.925,0.917c-0.325,0.3 -0.65,0.599 -0.975,0.899c-0.299,-0.048 -1.847,-0.299 -3.661,-0.941c1.665,-4.018 -0.498,-5.661 1.09,-6.889c0.233,-0.18 0.631,-0.018 0.863,-0.198Z" style="fill:#534333;"/><path d="M35.519,53.216c0.296,0.096 0.639,-0.098 0.935,-0.002c0,0 1.661,0.718 1.806,0.78c-0.125,0.235 -1.56,2.941 -1.56,2.941c-0.55,1.223 -0.773,1.021 -1.56,2.059c-1.171,-0.083 -1.176,-0.388 -2.269,0.168c-1.155,0.588 -1.176,0.396 -2.36,0.796c-1.5,-0.699 -1.259,-0.953 -1.78,-2.066c1.107,-0.835 1.101,-0.785 2.185,-1.649c1.179,-0.939 1.287,-0.341 1.841,-0.243c0.305,0.054 0.649,0.108 0.931,-0.021c1.4,-0.643 0.833,-1.815 0.857,-1.866c0.325,-0.3 0.65,-0.599 0.975,-0.899Z" style="fill:#6a5641;"/><path d="M88.31,19.528c2.48,0.501 2.446,0.552 5.001,0.316c0.183,0.339 0.271,0.222 0.457,0.568c0.049,0.09 0.036,0.088 0.486,1.184c-0.334,1.617 -0.567,3.099 -0.61,3.37c-2.342,0.534 -2.342,0.4 -4.731,0.119c-0.233,-0.886 -0.477,-0.838 -0.604,-5.557Z" style="fill:#c3a37d;"/><path d="M97.846,66.793c1.666,3.032 2.497,1.867 6.027,1.715c1.745,2.149 1.547,2.432 1.41,2.628c-0.378,0.541 -7.69,1.971 -8.487,-0.638c-0.089,-0.292 0.109,-0.624 0.012,-0.913c-0.11,-0.327 -0.484,-0.522 -0.603,-0.846c-0.244,-0.668 -0.086,-0.855 -0.039,-0.911c0.669,-0.794 1.026,-0.259 1.68,-1.035Z" style="fill:#362f2a;"/><path d="M22.245,67.697c0.328,0.57 1.361,0.473 1.689,1.043c0.174,0.302 -0.492,0.532 -0.589,0.866c-0.237,0.818 0.771,2.315 -3.41,2.571c-3.578,-0.294 -3.619,-0.303 -3.926,-0.377c-2.252,-0.538 -1.283,-1.473 0.146,-3.238c3.217,0.067 3.499,1.029 6.089,-0.865Z" style="fill:#38312c;"/><path d="M26.018,65.912c0.449,0.045 0.753,0.568 1.202,0.613c0.36,0.036 0.668,-0.279 1.012,-0.392c1.415,-0.465 1.404,-0.171 3.758,0.061c0.911,1.415 0.986,1.382 0.983,1.526c-0.016,0.752 -0.334,0.651 -0.415,1.398c-0.019,0.173 0.231,0.305 0.212,0.477c-1.053,0.746 -1.09,0.656 -1.855,1.633c-0.271,-0.135 -0.637,0.189 -0.908,0.055c-0.356,-0.177 -0.15,-0.464 -4.181,-2.678c-0.088,-1.398 -0.036,-1.351 0.191,-2.694Z" style="fill:#6a5643;"/><path d="M86.398,5.645c0.694,0 1.722,-0.42 2.406,-0.307c1.157,0.191 1.983,0.321 3.136,0.307c0.034,0.493 -0.261,0.972 -0.227,1.465c0.129,1.865 0.39,-0.282 0.354,1.542c-0.283,0.001 -0.503,0.313 -0.786,0.314c-0.427,0.002 -0.82,-0.244 -1.242,-0.306c-1.19,-0.174 -2.588,0.692 -3.016,0.876c-0.221,-3.031 -0.084,-0.912 -0.627,-3.891Z" style="fill:#c7a175;"/><path d="M82.438,64.052c0.453,0.208 0.747,0.678 1.199,0.886c1.304,0.599 2.054,-1.013 5.747,0.669c0.002,0.491 -0.588,0.863 -0.586,1.354c0.002,0.448 0.512,0.769 0.596,1.209c0.042,0.223 -0.287,0.414 -0.245,0.637c-0.997,0.65 -0.987,0.652 -1.077,0.702c-0.355,0.2 -0.359,0.075 -0.731,0.284c-1.93,-2.009 -1.838,-2.302 -4.644,-2.637c-0.234,-0.167 -0.63,0.21 -0.864,0.043c-0.148,-0.106 -0.118,-0.12 -1.587,-1.626l-0.328,-0.616c0.595,-0.097 0.771,0.196 2.52,-0.905Z" style="fill:#7c664f;"/><path d="M83.38,35.277c0.433,0.108 0.867,0.217 1.3,0.325c0.615,0.38 1.392,0.145 0.841,1.242c0,0 -1.333,2.824 -1.449,3.069c-0.208,0.038 -0.363,-0.313 -0.571,-0.276c-0.111,0.02 -0.523,0.597 -1.813,0.665c-1.251,0.066 -1.165,-0.205 -2.309,-0.783l-0.088,-0.745c-0.061,-1.039 -0.122,-2.078 -0.183,-3.117c2.162,-0.046 2.138,0.005 4.271,-0.38Z" style="fill:#4d4033;"/><path d="M65.162,5.318c1.54,0 3.238,0.618 4.778,0.618c0.03,1.536 -0.136,1.205 -0.337,2.761c-0.045,0.348 0.319,0.848 -0.794,1.01c-0.844,0.123 -0.932,-1.937 -1.293,-1.178c-0.162,0.339 -0.403,0.636 -0.59,0.963c-0.788,1.381 0.047,1.489 0.058,1.825c-2.068,-1.688 -2.133,-1.614 -2.232,-1.822c-0.034,-0.072 0.224,-0.446 0.242,-0.665c0.132,-1.595 0.087,-1.875 0.167,-3.513Z" style="fill:#030203;"/><path d="M50.109,60.075c3.381,0.434 3.342,0.261 6.732,-0.132l0.86,-0.384c0.638,0.275 1.277,0.55 1.915,0.825c-0.352,0.585 -0.704,1.169 -1.057,1.754c-0.896,0.06 -1.792,0.12 -2.689,0.18c-4.262,-0.186 -4.199,-0.174 -8.497,-0.461l-0.101,-1.462c0.029,-0.016 0.32,-0.663 1.204,-0.648c0,0 1.501,0.301 1.631,0.328Z" style="fill:#67533e;"/><path d="M71.568,35.588c3.801,0.311 3.757,0.226 7.541,0.07c0.061,1.039 0.122,2.078 0.183,3.117c-2.542,0.512 -2.487,-0.239 -4.352,-0.412c-0.235,-0.022 -0.414,0.301 -0.649,0.279l-0.817,0.096c-0.913,-0.059 -1.317,0.581 -2.835,-1.513l0.93,-1.637Z" style="fill:#79654f;"/><path d="M55.769,25.812c1.413,-0.624 1.438,-0.422 2.976,-0.335c2.723,0.072 2.678,0.164 5.405,0.486c0.109,2.986 1.421,2.223 1.945,2.422c-0.228,0.712 -0.455,1.424 -0.683,2.136c-0.677,-0.222 -1.354,-0.445 -2.031,-0.667c-0.931,-0.423 -0.151,-1.111 -1.1,-1.542c-0.191,-0.087 -0.19,0.029 -2.602,0.4c-0.262,-0.207 0.173,-0.784 -0.089,-0.991c-1.397,-1.103 -1.834,0.082 -3.292,-0.925c-0.308,-0.213 -0.22,-0.771 -0.529,-0.984Z" style="fill:#554c41;"/><path d="M44.013,25.266c0.339,0.069 1.554,0.316 4.309,0.335c0.648,1.629 1.477,2.608 -0.796,2.802c-1.159,0.099 -1.031,0.368 -1.486,1.373c-0.211,-0.098 -0.352,-1.223 -2.151,-1.001c-0.612,0.076 -2.761,-0.397 -2.998,-0.449c0.689,-0.961 0.646,-0.984 0.38,-2.112c1.349,-0.642 1.316,-0.609 2.742,-0.949Z" style="fill:#3a342e;"/><path d="M38.259,53.995c0.531,-0.092 1.062,-0.184 1.593,-0.276c0.312,0.491 -0.077,0.75 1.394,1.864c-1.251,1.222 -1.392,1.172 -1.347,1.315c0.215,0.688 0.967,1.131 1.181,1.819c-0.923,1.648 -0.85,1.703 -0.996,1.778c-0,0 -1.556,-0.076 -1.691,-0.083c-1.209,-0.568 -2.248,-0.983 -2.446,-1.062l-0.808,-0.355c0.787,-1.039 1.01,-0.837 1.56,-2.059c0,0 1.435,-2.706 1.56,-2.941Z" style="fill:#886d52;"/><path d="M20.381,49.601c0.305,0.323 0.889,0.28 1.927,2.042c0.967,1.64 3.265,1.352 3.794,1.442c-0.795,1.438 -0.524,1.509 -1.321,2.896c-0.236,-0.224 -0.067,-0.698 -0.303,-0.922c-0.241,-0.228 -5.378,-0.244 -6.635,-0.33c1.186,-1.713 1.084,-1.745 1.502,-3.806c0.345,-0.441 0.691,-0.881 1.036,-1.322Z" style="fill:#715f4b;"/><path d="M37.272,50.583c0.652,0.231 5.228,1.849 8.564,1.272l0.791,-0.427c-0.053,0.712 -0.107,1.424 -0.16,2.136c-3.288,0.686 -3.283,-0.091 -6.614,0.154c-0.531,0.092 -1.062,0.184 -1.593,0.276c-0.144,-0.062 -1.806,-0.78 -1.806,-0.78c-0.296,-0.096 -0.639,0.098 -0.935,0.002c0.226,-0.369 0.699,-0.548 0.925,-0.917c0.08,-0.13 0.061,-0.127 0.828,-1.716Z" style="fill:#5f4d39;"/><path d="M82.364,23.32c0.71,0.048 1.42,0.097 2.131,0.145l0.747,0.105c1.313,2.539 0.745,2.648 0.375,6.839c-2.716,-1.267 -2.831,-1.376 -3.809,-4.546c0.422,-1.279 0.426,-1.223 0.557,-2.542Z" style="fill:#302922;"/><path d="M53.264,47.162c0.42,-0.095 3.934,-0.89 5.377,-0.333c1.738,0.672 0.108,3.246 -0.042,3.482c-0.445,0.011 -3.822,0.098 -5.511,-0.713c-0.826,-0.397 -0.197,-0.798 -0.219,-0.879c-0.098,-0.365 -0.663,-0.538 -0.674,-0.915c0,0 0.984,-0.59 1.069,-0.642Z" style="fill:#bd9c73;"/><path d="M82.697,67.157c2.806,0.335 2.714,0.628 4.644,2.637c-0.632,0.996 -0.648,0.98 -0.682,1.076c-0.17,0.477 0.076,2.01 -4.883,0.776c0.676,-1.803 0.769,-1.784 0.729,-1.946c-0.163,-0.65 -0.495,-0.421 -0.648,-1.031c0.28,-0.504 0.56,-1.009 0.84,-1.513Z" style="fill:#6c5947;"/><path d="M39.479,28.993c0.471,-0.222 0.942,-0.445 1.412,-0.667c0.237,0.052 2.386,0.524 2.998,0.449c1.8,-0.222 1.94,0.903 2.151,1.001c-1.136,3.546 -2.573,2.11 -6.818,1.583c0.209,-1.197 0.049,-1.186 0.257,-2.366Z" style="fill:#413931;"/><path d="M50.414,65.176c0.545,0.06 1.09,0.121 1.634,0.181c1.9,0.495 1.949,0.499 3.74,-0.308c0.038,0.621 0.075,1.243 0.113,1.864c-1.405,0.813 -1.265,1.363 -2.871,1.038c-1.408,-0.285 -1.379,-0.604 -2.756,-0.212c-2.494,0.711 -3.242,-1.488 -3.645,-1.887c3.651,0.005 3.528,-0.534 3.785,-0.677Z" style="fill:#907659;"/><path d="M76.16,41.429c0.17,0.49 -0.228,0.457 -0.068,0.917c0.155,0.446 0.497,0.176 0.604,0.628c0.037,0.155 -0.331,0.134 -0.389,0.281c-0.748,1.89 -0.044,3.243 -0.007,3.394c-0.649,0.165 -1.297,0.33 -1.946,0.494c-1.839,0.802 -1.811,0.869 -1.985,0.866c-0.387,-0.008 -0.471,-0.763 -0.858,-0.771c1.55,-4.007 1.527,-4.224 4.65,-5.81Z" style="fill:#907658;"/><path d="M63.295,31.709c0.791,-0.007 0.766,-0.031 2.717,-0.204c2.55,-0.065 2.537,-0.105 2.754,-0.07c1.078,0.172 0.803,0.546 1.079,0.734c-0.851,3.981 -2.449,2.014 -2.441,1.775c0.059,-1.72 -0.891,-0.6 -2.587,-0.162c-1.276,0.329 -1.704,-0.245 -1.883,-0.273c0,0 -1.59,0.488 -1.729,0.53c0.006,-0.525 0.013,-1.05 0.019,-1.574c0.69,-0.252 1.38,-0.503 2.07,-0.755Z" style="fill:#715f49;"/><path d="M39.186,63.249c0.187,0.244 -0.552,0.599 -0.366,0.844c0.348,0.455 4.498,1.032 4.807,1.226c0.09,0.056 0.083,0.053 1.117,0.717c-0.161,0.422 0.269,0.404 0.107,0.829c-0.084,0.219 -0.153,0.153 -2.083,2.08c-0.119,-0.113 -1.492,-1.412 -1.492,-1.412c-0.285,-0.404 -0.349,-0.258 -2.122,-0.515c-0.585,-0.085 -1.143,-1.441 -0.974,-1.942c0.221,-0.657 0.784,-1.169 1.006,-1.826Z" style="fill:#91765a;"/><path d="M70.515,30.432c3.86,-0.068 3.784,0.557 4.1,0.46c0.346,-0.106 0.282,-0.885 0.643,-0.863c0.107,0.007 -0.192,0.297 0.924,0.96c0.523,0.31 0.592,-0.059 1.158,0.277c0.716,1.874 1.813,2.827 -0.235,2.959c-1.395,0.09 -1.118,-0.74 -1.323,-0.744c-0.585,-0.012 -1.136,0.904 -1.641,0.613c-0.121,-0.069 0.846,-0.253 -0.254,-1.705c-0.11,-0.145 -0.164,-0.029 -2.254,-0.403c-0.373,-0.518 -0.745,-1.036 -1.118,-1.554Z" style="fill:#504538;"/><path d="M54.615,55.355c0.168,0.062 2.876,1.059 1.58,1.575c-1.497,0.595 -2.538,0.784 -1.318,1.784c0.43,0.352 0.532,-0.2 0.981,0.081c0.668,0.418 0.311,0.728 0.984,1.148c-3.391,0.393 -3.351,0.566 -6.732,0.132c0.44,-0.638 0.879,-1.276 1.319,-1.913c2.052,-0.797 1.645,-1.289 3.186,-2.807Z" style="fill:#a48463;"/><path d="M36.184,23.377l0.205,0.74c-0.108,0.509 -0.217,1.017 -0.325,1.526c0.026,0.478 0.051,0.957 0.077,1.435c0.382,0.483 0.764,0.966 1.146,1.448c-1.313,1.587 -1.358,1.477 -2.954,2.748c0.554,-2.702 -0.573,-2.628 -0.581,-5.372c-0.006,-1.793 -0.545,-1.695 -0.466,-1.823c0.288,-0.465 1.036,-0.431 1.451,-0.791c0.18,-0.156 -0.008,-0.678 0.231,-0.671c0.294,0.009 0.283,0.539 0.532,0.694c0.194,0.121 0.491,-0.055 0.684,0.066Z" style="fill:#2c251f;"/><path d="M74.354,47.144c0.649,-0.165 1.297,-0.33 1.946,-0.494c0.588,0.378 0.616,0.255 1.157,0.743c0.515,0.464 1.171,3.681 -1.13,4.375c-3.193,0.963 -1.639,-1.364 -1.972,-4.623Z" style="fill:#a58866;"/><path d="M97.168,31.518c0.262,0.98 -0.541,4.23 -0.684,4.412c-0.787,-1.871 -0.107,-2.644 -1.82,-2.755c-0.95,-0.062 -0.895,0.157 -1.869,0.062c-1.474,-0.145 -0.527,-0.83 -0.648,-1.053c-0.227,-0.419 -1.05,-0.367 -1.178,-0.825c-0.082,-0.293 0.54,-0.351 0.848,-0.36c0.396,-0.012 3.925,-0.122 4.95,0.068c0.2,0.037 0.202,0.415 0.402,0.452Z" style="fill:#6a5947;"/><path d="M84.302,16.042c0.275,0.468 1.083,0.446 1.357,0.914c0.185,0.314 -0.368,0.197 -0.65,1.596c-0.06,0.296 -0.645,3.207 -0.535,3.738c0.1,0.485 0.667,0.794 0.767,1.279l-0.747,-0.105c-0.71,-0.048 -1.42,-0.097 -2.131,-0.145l0.05,-1.063c0.438,-3.414 0.016,-3.708 -0.056,-4.33c0.336,-0.27 0.898,-0.128 1.234,-0.398c0.103,-0.083 0.053,-0.11 0.711,-1.487Z" style="fill:#3b3128;"/><path d="M53.084,14.877c0.917,0.193 1.835,0.386 2.752,0.58c-0.631,0.659 -1.262,1.318 -1.893,1.977c-0.358,0.361 -0.455,0.925 -0.813,1.286c-1.14,1.15 -2.541,-0.505 -3.03,-0.543c-0.278,-0.022 -0.438,0.447 -0.716,0.425c1.853,-3.379 2.327,-2.928 3.699,-3.725Z" style="fill:#121213;"/><path d="M70.752,28.845c0.498,-0.155 6.234,-1.945 6.49,0.703c0.013,0.137 0.007,0.127 0.097,1.718c-0.566,-0.336 -0.636,0.033 -1.158,-0.277c-1.116,-0.663 -0.817,-0.953 -0.924,-0.96c-0.361,-0.022 -0.298,0.757 -0.643,0.863c-0.315,0.097 -0.24,-0.527 -4.1,-0.46c0.079,-0.529 0.158,-1.058 0.238,-1.587Z" style="fill:#52483e;"/><path d="M66.095,28.385c0.216,0.002 2.504,0.018 2.684,0.257c0.177,0.236 -0.214,0.847 0.082,0.877c0.667,0.068 1.224,-0.743 1.891,-0.675c-0.079,0.529 -0.158,1.058 -0.238,1.587c0.373,0.518 0.745,1.036 1.118,1.554c-0.596,0.061 -1.192,0.121 -1.787,0.182c-0.276,-0.188 -0.001,-0.562 -1.079,-0.734c-0.218,-0.035 -0.204,0.005 -2.754,0.07l-0.599,-0.983c0.228,-0.712 0.455,-1.424 0.683,-2.136Z" style="fill:#504539;"/><path d="M30.883,53.174c1.814,0.642 3.362,0.893 3.661,0.941c-0.023,0.051 0.543,1.223 -0.857,1.866c-0.281,0.129 -0.625,0.075 -0.931,0.021c-0.554,-0.098 -0.663,-0.696 -1.841,0.243c-1.084,0.864 -1.078,0.813 -2.185,1.649c0.487,-1.698 0.891,-4.382 1.283,-4.571c0.264,-0.128 0.606,-0.021 0.87,-0.148Z" style="fill:#584635;"/><path d="M69.011,47.233c1.291,-0.219 1.254,-0.191 2.499,0.006c0.787,2.144 0.873,2.202 0.084,4.384c-0.631,-0.061 -1.262,-0.123 -1.892,-0.184l-0.786,-1.093c0.017,-0.407 -0.145,-0.341 -0.128,-0.745c0.008,-0.19 0.017,-0.175 0.224,-2.369Z" style="fill:#ab8c67;"/><path d="M87.21,46.079c3.665,1.04 1.638,3.744 0.98,4.977c-2.623,-1.777 -2.722,-2.103 -2.807,-2.383c-0.143,-0.471 0.336,-0.991 0.193,-1.462c0.545,-0.377 1.089,-0.754 1.634,-1.131Z" style="fill:#5a4938;"/><path d="M48.006,45.914c0.459,-0.547 1.371,-0.585 1.83,-1.132c0.082,-0.098 -0.677,0.036 -0.374,-1.54c0.104,-0.541 2.93,-2.14 2.55,0.851c-0.172,1.353 0.224,1.585 0.262,1.861l0.064,1.18c-2.025,-0.422 -2.01,-0.299 -4.063,-0.341l-0.27,-0.879Z" style="fill:#81694f;"/><path d="M68.041,65.735c1.305,0.308 1.244,0.306 2.579,0.406c1.379,0.103 1.969,0.987 2.022,1.014c-0.833,0.471 -1.878,1.564 -6.625,0.559c-0.191,-1.578 -0.731,-2.419 0.89,-2.246c0.387,0.041 0.748,0.226 1.134,0.267Z" style="fill:#92785d;"/><path d="M83.673,10.668c0.354,0.942 0.824,0.602 1.185,1.563c0.036,0.095 0.093,0.248 -0.124,1.26c-0.273,1.268 -0.321,1.223 -0.432,2.552c-0.658,1.377 -0.608,1.404 -0.711,1.487c-0.336,0.27 -0.898,0.128 -1.234,0.398c0.011,-0.734 0.023,-1.468 0.034,-2.201c0.04,-0.264 0.215,-0.497 0.254,-0.762c0.348,-2.323 -0.816,-1.937 -0.776,-2.113c0.051,-0.22 0.132,-0.16 1.804,-2.184Z" style="fill:#3d3127;"/><path d="M89.384,65.606c1.385,0.151 1.369,-0.02 2.457,0.465c2.462,1.1 0.589,2.56 0.569,2.668l-0.465,1.02c-1.782,-0.553 -1.758,-0.482 -2.796,-0.953c-0.042,-0.223 0.287,-0.414 0.245,-0.637c-0.084,-0.44 -0.594,-0.761 -0.596,-1.209c-0.002,-0.491 0.588,-0.863 0.586,-1.354Z" style="fill:#6b5743;"/><path d="M42.962,57.775c1.122,0.591 1.107,0.604 1.212,0.638c1.589,0.531 0.698,1.918 2.371,2.013c0.243,0.014 0.487,-0.045 0.73,-0.031l0.101,1.462c-2.232,0.464 -2.209,0.325 -4.529,0.172c0.007,-2.211 -0.091,-2.186 -0.048,-2.371c0.1,-0.429 0.504,-0.768 0.542,-1.206c0.022,-0.257 -0.401,-0.42 -0.378,-0.677Z" style="fill:#846b50;"/><path d="M37.868,6.576c0.059,0.318 0.137,-1.834 0.476,2.004c0.296,3.348 -0.874,3.015 -1.016,3.209c-0.365,-0.488 -1.119,-0.416 -0.876,-2.286c0.216,-1.662 -0.85,0.008 -0.862,-0.105c-0.038,-0.35 0.719,-0.29 0.876,-0.606c0.234,-0.471 -0.079,-1.116 0.203,-1.56c0.242,-0.382 0.957,-0.272 1.2,-0.655Z" style="fill:#4d3f31;"/><path d="M63.488,57.951c-0.239,0.681 -0.478,1.361 -0.716,2.042c-1.544,0.485 -1.52,0.436 -3.155,0.391c-0.638,-0.275 -1.277,-0.55 -1.915,-0.825c1.63,-1.559 1.602,-2.233 5.786,-1.608Z" style="fill:#9f8160;"/><path d="M94.607,70.562c0.749,1.434 0.713,1.428 0.991,1.809c-0.205,0.178 -0.863,-0.182 -1.957,2.143l-0.91,-0.195c-1.305,-0.318 -1.265,-0.324 -2.632,-0.432c-0.363,-1.848 0.005,-2.314 1.869,-2.059c1.439,0.197 1.279,-0.315 2.639,-1.266Z" style="fill:#382f26;"/><path d="M30.992,61.778c0.513,0.054 1.025,0.109 1.538,0.163l0.365,1.254l-1.731,0.392c-4.033,0.65 -3.965,-0.01 -4.744,-0.307c0.117,-0.219 -0.02,-0.518 0.097,-0.738c1.009,-1.894 1.604,-0.849 4.475,-0.764Z" style="fill:#705b44;"/><path d="M59.679,28.712c2.412,-0.37 2.411,-0.487 2.602,-0.4c0.949,0.431 0.169,1.119 1.1,1.542c-0.098,0.037 -1.226,0.46 -1.226,0.46c-0.307,1.953 0.928,1.137 1.139,1.394c-0.69,0.252 -1.38,0.503 -2.07,0.755c-1.244,-0.595 -1.222,-0.535 -2.545,-0.757c0.365,-1.118 0.524,-1.025 0.726,-2.225c0.071,-0.424 0.2,-0.334 0.273,-0.769Z" style="fill:#5d5042;"/><path d="M40.561,8.857c1.605,2.573 1.36,0.56 2.521,3.37c-0.759,0.151 -0.561,0.477 -1.276,0.619c-0.574,0.114 -0.508,-0.252 -1.112,-0.145c-0.231,0.041 -0.316,0.398 -0.547,0.439c-0.172,-3.212 -0.363,-1.143 0.414,-4.283Z" style="fill:#2c2520;"/><path d="M26.42,63.28c0.779,0.297 0.711,0.957 4.744,0.307c-0.028,0.149 -0.345,1.86 -0.345,1.86c0.338,0.657 0.832,0.088 1.17,0.748c-2.354,-0.232 -2.344,-0.526 -3.758,-0.061c-0.344,0.113 -0.651,0.428 -1.012,0.392c-0.449,-0.045 -0.753,-0.568 -1.202,-0.613c0.24,-1.341 0.174,-1.319 0.402,-2.632Z" style="fill:#5d4b3a;"/><path d="M25.736,30.932c0.4,-0.019 2.876,-0.135 4.996,0.301c-0.091,2.527 -0.071,2.513 -0.13,2.846c-0.268,-0.195 -0.007,-0.753 -0.276,-0.948c-0.328,-0.238 -0.359,-0.079 -5.087,-0.155c0.166,-0.681 0.331,-1.362 0.497,-2.043Z" style="fill:#6e5d49;"/><path d="M68.041,65.735c-0.03,-0.385 -0.349,-0.181 -0.376,-0.541c-0.008,-0.102 -0.085,-1.101 0.238,-1.261c0.234,-0.116 3.354,0.302 3.644,0.341c1.198,0.161 0.969,0.531 2.073,1.951c-0.326,0.31 -0.652,0.62 -0.978,0.929c-0.053,-0.027 -0.643,-0.91 -2.022,-1.014c-1.335,-0.1 -1.274,-0.098 -2.579,-0.406Z" style="fill:#866e56;"/><path d="M35.139,58.995l0.808,0.355c-0.443,0.707 -0.886,1.414 -1.329,2.122l-2.088,0.469c-0.513,-0.054 -1.025,-0.109 -1.538,-0.163c-0.161,-0.606 -0.322,-1.212 -0.482,-1.818c1.184,-0.399 1.205,-0.208 2.36,-0.796c1.093,-0.556 1.099,-0.251 2.269,-0.168Z" style="fill:#4d3d2f;"/><path d="M68.251,38.839c0.06,-0.073 0.747,-0.91 0.747,-0.91c0.451,-0.118 0.37,0.395 0.795,0.213c0.61,-0.262 0.227,-0.651 0.846,-0.917c1.518,2.094 1.922,1.454 2.835,1.513c-0.33,0.517 -0.659,1.035 -0.989,1.552c-1.534,0.034 -3.068,0.068 -4.602,0.102c0.123,-0.518 0.245,-1.035 0.368,-1.553Z" style="fill:#635340;"/><path d="M84.495,58.714c1.62,0.176 1.632,0.113 1.75,0.19c0.515,0.334 0.284,0.465 0.329,0.478c0.278,0.082 0.582,-0.209 0.861,-0.129c0.335,0.096 0.507,0.511 0.839,0.617c0.312,0.099 0.67,-0.136 0.982,-0.037c-0.44,0.623 -0.881,1.246 -1.321,1.869l-0.756,0.081c-0.448,-0.032 -0.403,-0.084 -0.827,-0.114c-0.152,-0.011 -0.141,-0.006 -1.904,-0.086c-0.106,-1.461 -0.207,-1.41 0.047,-2.869Z" style="fill:#4f4031;"/><path d="M74.291,38.642c0.235,0.022 0.414,-0.301 0.649,-0.279c1.865,0.173 1.81,0.924 4.352,0.412l0.088,0.745c-0.111,0.621 -0.223,1.241 -0.334,1.862l-1.193,-0.489c-0.564,0.179 -1.129,0.357 -1.693,0.536c-1.44,-1.048 -1.617,-1.005 -1.869,-2.788Z" style="fill:#63523f;"/><path d="M51.542,37.636l0.234,1.729c-0.868,0.99 -1.072,0.592 -3.333,0.79c-0.267,-0.572 -0.734,0.105 -0.979,-0.42c-0.238,-0.51 0.145,-0.443 0.3,-1.034c0.314,-1.201 0.21,-1.531 1.467,-1.507c0.785,0.015 1.527,0.426 2.311,0.441Z" style="fill:#5f4e3e;"/><path d="M40.934,37.837c5.096,0.389 4.39,1.699 4.405,1.764c0.076,0.323 0.54,0.595 0.421,0.905c-0.3,0.778 -0.604,0.331 -3.85,-0.339c-0.333,-0.069 -0.679,0.203 -1.012,0.135c0.012,-0.822 0.024,-1.643 0.036,-2.465Z" style="fill:#61513f;"/><path d="M100.298,74.133c0,0 -2.206,0.268 -2.048,-0.012c0.883,-0.262 0.951,-0.696 2.048,0.012Z" style="fill:#3f342a;"/><path d="M32.771,69.596c0.842,0.036 2.364,-1.007 2.941,2.476c-2.928,0.559 -2.885,0.001 -4.796,-0.843c0.764,-0.977 0.802,-0.887 1.855,-1.633Z" style="fill:#594837;"/><path d="M78.079,53.954c1.088,1.877 1.178,1.839 1.173,2.025c-0.01,0.378 -0.386,1.712 -4.691,-0.953c0.043,-0.08 -0.612,-0.853 0.583,-1.085c0,-0 2.7,0.012 2.935,0.013Z" style="fill:#a28461;"/><path d="M92.933,17.756c0.126,0.696 0.253,1.392 0.379,2.087c-2.555,0.236 -2.521,0.185 -5.001,-0.316l-0.157,-0.908c2.3,-0.94 2.322,-0.782 4.779,-0.863Z" style="fill:#8f765a;"/><path d="M58.605,68.766l0.882,0.134c1.288,0.924 1.448,0.811 1.986,2.319c-1.489,0.773 -2.304,1.842 -3.185,-0.581c-0.125,-0.343 -0.535,-0.628 -0.474,-0.987c0.066,-0.388 0.725,-0.497 0.791,-0.885Z" style="fill:#76614a;"/><path d="M37.294,35.523c1.817,0.127 1.771,0.091 3.563,0.078c0.026,0.745 0.052,1.491 0.077,2.236c-4.217,1.099 -3.362,-1.287 -3.64,-2.314Z" style="fill:#5c4d3d;"/><path d="M41.271,26.215c0.266,1.127 0.31,1.151 -0.38,2.112c-0.471,0.222 -0.942,0.445 -1.412,0.667c-0.731,-0.156 -1.462,-0.311 -2.193,-0.467c0.745,-1.103 0.723,-1.053 1.541,-2.091c0.815,-0.074 1.629,-0.147 2.444,-0.221Z" style="fill:#181715;"/><path d="M36.526,19.236l1.167,0.32c0.383,2.529 0.342,2.521 0.413,2.731c0.498,1.465 -0.228,1.295 -1.718,1.83l-0.205,-0.74c0.006,-2.09 0.012,-2.056 0.343,-4.142Z" style="fill:#453a31;"/><path d="M91.836,61.707c1.752,0.452 1.432,0.866 2.135,2.488c-2.405,-0.374 -2.401,-0.331 -2.597,-0.404c-1.338,-0.502 -1.365,-0.267 -1.45,-0.35c-0.376,-0.367 -0.147,-1.111 -0.523,-1.478c2.299,-0.256 2.241,-0.23 2.436,-0.256Z" style="fill:#6c5740;"/><path d="M80.246,65.574c1.469,1.505 1.438,1.52 1.587,1.626c0.234,0.167 0.63,-0.21 0.864,-0.043c-0.28,0.504 -0.56,1.009 -0.84,1.513c-0.495,0.138 -0.469,-0.178 -1.005,-0.028c-0.109,0.03 -0.091,0.051 -1.235,0.683c-1.127,-1.066 -1.25,-1.021 -1.214,-1.148c0.031,-0.108 0.088,-0.309 0.968,-1.033c0.75,-0.617 0.428,-0.768 0.875,-1.57Z" style="fill:#7a654f;"/><path d="M97.559,42.351c0.038,1.132 -0.057,1.133 0.513,2.16c-3.347,0.615 -3.312,0.625 -3.384,0.599c-0.173,-0.063 -4.058,-2.326 0.792,-2.134c1.674,0.067 1.52,-0.457 2.079,-0.625Z" style="fill:#7e6b55;"/><path d="M89.256,59.832c0.741,-0.147 1.482,-0.293 2.223,-0.44c0.119,0.772 0.237,1.543 0.356,2.315c-0.194,0.025 -0.136,-0.001 -2.436,0.256l-1.465,-0.261c0.44,-0.623 0.881,-1.246 1.321,-1.869Z" style="fill:#3a2e23;"/><path d="M56.689,31.663l0.968,-0.022l1.022,0.065c1.323,0.222 1.301,0.162 2.545,0.757c-0.006,0.525 -0.013,1.05 -0.019,1.574c-0.844,-0.078 -0.794,0.029 -1.638,-0.151c-1.419,-0.303 -1.507,-1.026 -2.879,-2.224Z" style="fill:#7c6852;"/><path d="M100.012,48.706c0.263,0.391 0.526,0.782 0.789,1.173c0.011,0.192 0.139,2.398 0.139,2.398c-0.742,1.858 -1.131,-0.101 -2.898,-1.058c0.858,-1.384 0.895,-1.315 1.971,-2.513Z" style="fill:#7d6954;"/><path d="M80.818,42.357c0.314,-0.016 0.57,-0.307 0.884,-0.323c1.891,-0.098 1.797,0.414 2.329,2.239c-3.223,0.185 -3.275,0.411 -3.446,0.198c0,0 0.215,-1.945 0.233,-2.114Z" style="fill:#6e5a46;"/><path d="M62.772,59.993c0.129,0.594 0.258,1.189 0.387,1.783c-0.875,0.192 -0.825,0.396 -4.599,0.362c0.352,-0.585 0.704,-1.169 1.057,-1.754c1.635,0.044 1.61,0.094 3.155,-0.391Z" style="fill:#786349;"/><path d="M69.702,51.439c0.631,0.061 1.262,0.123 1.892,0.184c0.286,0.089 0.614,-0.088 0.9,0.001c0.187,0.058 2.505,0.995 -0.865,2.261c-0.628,-0.067 -1.256,-0.135 -1.884,-0.202c-0.015,-0.748 -0.029,-1.496 -0.044,-2.244Z" style="fill:#766047;"/><path d="M33.694,45.97l0.997,0.292l1.836,0.653c0.101,1.35 0.105,1.317 -0.018,2.664c-0.603,0.084 -1.206,0.169 -1.81,0.253c-0.013,-1.099 0.021,-1.055 0.008,-2.111c-0.021,-1.759 -0.809,-1.399 -1.014,-1.752Z" style="fill:#504130;"/><path d="M35.947,59.35c0.198,0.079 1.237,0.494 2.446,1.062c-0.408,0.752 0.028,2.22 -1.711,1.471c-0,-0 -1.898,-0.379 -2.063,-0.412c0.443,-0.707 0.886,-1.414 1.329,-2.122Z" style="fill:#63503b;"/><path d="M84.123,50.296c0.168,0.084 1.132,-0.693 1.726,0.865c0.199,0.522 0.044,0.506 -0.42,2.396c-0.593,-0.132 -1.185,-0.264 -1.778,-0.397c0.165,-1.464 0.329,-1.398 0.472,-2.864Z" style="fill:#443729;"/><path d="M46.872,50.618c0.572,-0.049 1.144,-0.097 1.715,-0.146c-0.028,0.214 -0.348,2.673 -0.348,2.673c-0.082,0.119 -0.129,0.03 -1.773,0.42c0.053,-0.712 0.107,-1.424 0.16,-2.136l0.245,-0.81Z" style="fill:#534433;"/><path d="M37.641,15.759c0.111,1.912 0.086,1.849 0.053,3.797l-1.167,-0.32c-0.071,-0.283 -0.876,-3.472 -0.3,-3.629c0.457,-0.124 0.957,0.276 1.414,0.152Z" style="fill:#4b3f34;"/><path d="M63.382,29.855c0.677,0.222 1.354,0.445 2.031,0.667l0.599,0.983c-1.951,0.173 -1.927,0.197 -2.717,0.204c-0.21,-0.258 -1.445,0.558 -1.139,-1.394c0,0 1.128,-0.423 1.226,-0.46Z" style="fill:#544a3e;"/><path d="M31.165,63.587l1.731,-0.392c0.23,0.596 0.459,1.192 0.689,1.788c-0.934,0.768 -0.927,0.765 -1.009,0.829c-0.295,0.233 -0.306,0.163 -0.585,0.383c-0.339,-0.659 -0.833,-0.09 -1.17,-0.748c0,-0 0.317,-1.711 0.345,-1.86Z" style="fill:#584737;"/><path d="M75.271,72.136c2.966,-0.921 3.439,0.194 3.755,0.331c0.014,0.516 0.028,1.032 0.042,1.548c-2.581,-1.066 -2.704,-0.248 -2.886,-0.392c-0.458,-0.363 -0.454,-1.124 -0.911,-1.487Z" style="fill:#75624e;"/><path d="M63.785,55.824c1.17,0.529 1.23,-0.67 2.415,-0.134c0.088,0.04 0.074,0.033 -0.078,1.19c-0.082,0.626 -0.242,1.241 -0.324,1.866c-0.69,-0.438 -1.38,-0.877 -2.071,-1.315c0.019,-0.536 0.039,-1.072 0.058,-1.608Z" style="fill:#896f52;"/><path d="M37.056,44.475c0.246,0.311 0.748,0.352 0.993,0.663c0.443,0.561 0.154,0.649 -0.552,0.906c-0.656,0.239 -0.473,0.424 -0.971,0.872l-1.836,-0.653c0.985,-1.208 0.785,-1.575 2.365,-1.787Z" style="fill:#4d3f30;"/><path d="M95.598,72.37c0.204,0.627 0.408,1.254 0.613,1.882l-0.579,0.837c-1.058,-0.209 -1.003,-0.196 -1.991,-0.576c1.094,-2.325 1.752,-1.965 1.957,-2.143Z" style="fill:#403328;"/><path d="M41.246,55.583l0.79,0.379c-0.079,0.272 0.494,0.472 0.415,0.744c0,0 -1.261,1.85 -1.371,2.011c-0.215,-0.688 -0.967,-1.131 -1.181,-1.819c-0.045,-0.143 0.096,-0.094 1.347,-1.315Z" style="fill:#7b6349;"/><path d="M44.972,49.803c1.871,-2.327 1.831,0.586 1.9,0.816l-0.245,0.81l-0.791,0.427c-0.288,-0.684 -0.576,-1.368 -0.864,-2.053Z" style="fill:#997c5d;"/><path d="M69.156,57.887c-1.398,-0.629 -2.987,-0.563 -1.618,-1.313c1.3,-0.712 1.249,-0.802 1.377,-0.804c0.215,-0.003 0.113,0.135 1.712,2.049c-0.49,0.023 -0.98,0.046 -1.47,0.069Z" style="fill:#9b7e5e;"/><path d="M98.25,74.121c-0.158,0.28 -2.04,0.131 -2.04,0.131c0.68,-0.044 1.36,-0.087 2.04,-0.131Z" style="fill:#27201c;"/><path d="M62.5,47.665c0.524,-0.022 1.047,-0.044 1.571,-0.066c-0.664,1.577 -0.21,2.394 -1.893,2.166c-1.406,-0.19 0.112,-0.733 0.322,-2.101Z" style="fill:#8e7255;"/><path d="M52.032,53.857c0.875,-0.115 0.818,-0.082 1.717,-0.102l-0.015,1.539c-0.141,-0.005 -1.764,-0.068 -1.764,-0.068c-0.211,-0.407 0.274,-0.963 0.063,-1.37Z" style="fill:#b08e68;"/><path d="M76.025,59.227c0.697,0.203 1.394,0.406 2.091,0.609c-0.169,0.178 0.129,0.553 -0.04,0.731c-0.566,0.593 -0.902,0.374 -0.971,0.329c-0.872,-0.57 -0.198,-1.092 -1.08,-1.669Z" style="fill:#826950;"/><path d="M54.279,10.339c0.07,0.385 0.503,0.642 0.573,1.027c0.239,1.316 -2.065,0.525 -1.986,-0.034c0.08,-0.565 1.333,-0.428 1.413,-0.993Z" style="fill:#020205;"/><path d="M41.016,43.228l1.004,1.133c-0.323,0.096 -0.512,0.469 -0.835,0.565c-0.387,0.115 -1.387,-0.62 -1.328,-0.795c0.157,-0.46 1.003,-0.442 1.159,-0.903Z" style="fill:#715c47;"/><path d="M69.517,10.978c0.462,0.098 0.834,-0.668 1.296,-0.57c0.364,0.077 0.095,2.038 -0.23,1.97c-0.578,-0.122 -0.488,-1.277 -1.066,-1.4Z" style="fill:#070607;"/><path d="M80.68,29.596c0.072,0.544 0.144,1.089 0.216,1.633c-0.239,-0.168 -0.637,0.074 -0.876,-0.094c-0.39,-0.274 -0.241,-0.623 -0.218,-0.675c0.257,-0.599 0.624,-0.271 0.879,-0.864Z" style="fill:#2c2722;"/><path d="M58.598,50.312c0.249,0.201 0.704,-0.06 0.953,0.141c0,0 0.792,1.375 0.861,1.494c-0.605,-0.545 -1.209,-1.09 -1.814,-1.635Z" style="fill:#9a7b5a;"/><path d="M80.494,55.091c0.318,0.509 0.635,1.017 0.953,1.526l-0.528,0.323c-0.142,-0.616 -0.283,-1.233 -0.425,-1.849Z" style="fill:#846b51;"/><path d="M50.414,65.176c0.28,-0.375 -0.098,-0.45 0.165,-0.803c0.689,-0.924 0.534,0.358 1.469,0.985c-0.545,-0.06 -1.09,-0.121 -1.634,-0.181Z" style="fill:#9d8061;"/><path d="M82.391,15.726c-0.011,0.734 -0.023,1.468 -0.034,2.201c-0.118,-0.19 -0.307,-0.331 -0.426,-0.521c-0.291,-0.466 -0.273,-0.53 -0.26,-0.579c0.182,-0.664 0.54,-0.447 0.719,-1.101Z" style="fill:#392f26;"/><path d="M40.128,48.659c-0.258,0.168 0.217,0.746 -0.042,0.914c-0.323,0.21 -0.806,-0.278 -0.857,-0.33c-0.523,-0.529 0.272,-0.177 0.899,-0.583Z" style="fill:#7c644c;"/></g></svg>