<?xml version="1.0" encoding="UTF-8" standalone="no"?><!DOCTYPE svg PUBLIC "-//W3C//DTD SVG 1.1//EN" "http://www.w3.org/Graphics/SVG/1.1/DTD/svg11.dtd"><svg width="100%" height="100%" viewBox="0 0 120 80" version="1.1" xmlns="http://www.w3.org/2000/svg" xmlns:xlink="http://www.w3.org/1999/xlink" xml:space="preserve" xmlns:serif="http://www.serif.com/" style="fill-rule:evenodd;clip-rule:evenodd;"><path d="M112,16l0,48c0,3.311 -2.689,6 -6,6l-92,0c-3.311,0 -6,-2.689 -6,-6l0,-48c0,-3.311 2.689,-6 6,-6l92,0c3.311,0 6,2.689 6,6Z" style="fill:#fff;stroke:#111;stroke-width:3px;"/><path d="M77.841,18.158l0,2.436c0,0.672 -0.546,1.218 -1.218,1.218l-33.246,0c-0.672,0 -1.218,-0.546 -1.218,-1.218l0,-2.436c0,-0.672 0.546,-1.218 1.218,-1.218l33.246,0c0.672,0 1.218,0.546 1.218,1.218Z" style="fill:none;stroke:#000;stroke-width:3px;stroke-linecap:round;stroke-linejoin:round;stroke-miterlimit:1.5;"/><path d="M102.7,59.528l0,2.436c0,0.672 -0.546,1.218 -1.218,1.218l-82.964,0c-0.672,0 -1.218,-0.546 -1.218,-1.218l0,-2.436c0,-0.672 0.546,-1.218 1.218,-1.218l82.964,0c0.672,0 1.218,0.546 1.218,1.218Z" style="fill:none;stroke:#000;stroke-width:3px;stroke-linecap:round;stroke-linejoin:round;stroke-miterlimit:1.5;"/><path d="M90.27,38.843l0,2.436c0,0.672 -0.546,1.218 -1.218,1.218l-58.105,0c-0.672,0 -1.218,-0.546 -1.218,-1.218l0,-2.436c0,-0.672 0.546,-1.218 1.218,-1.218l58.105,0c0.672,0 1.218,0.546 1.218,1.218Z" style="fill:none;stroke:#000;stroke-width:3px;stroke-linecap:round;stroke-linejoin:round;stroke-miterlimit:1.5;"/><path d="M90.27,38.843l0,2.436c0,0.672 -0.546,1.218 -1.218,1.218l-58.105,0c-0.672,0 -1.218,-0.546 -1.218,-1.218l0,-2.436c0,-0.672 0.546,-1.218 1.218,-1.218l58.105,0c0.672,0 1.218,0.546 1.218,1.218Z" style="fill:none;stroke:#000;stroke-width:3px;stroke-linecap:round;stroke-linejoin:round;stroke-miterlimit:1.5;"/><path d="M84.056,28.501l0,2.436c0,0.672 -0.546,1.218 -1.218,1.218l-45.676,0c-0.672,0 -1.218,-0.546 -1.218,-1.218l0,-2.436c0,-0.672 0.546,-1.218 1.218,-1.218l45.676,0c0.672,0 1.218,0.546 1.218,1.218Z" style="fill:none;stroke:#000;stroke-width:3px;stroke-linecap:round;stroke-linejoin:round;stroke-miterlimit:1.5;"/><path d="M96.485,49.185l0,2.436c0,0.672 -0.546,1.218 -1.218,1.218l-70.535,0c-0.672,0 -1.218,-0.546 -1.218,-1.218l0,-2.436c0,-0.672 0.546,-1.218 1.218,-1.218l70.535,0c0.672,0 1.218,0.546 1.218,1.218Z" style="fill:none;stroke:#000;stroke-width:3px;stroke-linecap:round;stroke-linejoin:round;stroke-miterlimit:1.5;"/></svg>