<?xml version="1.0" encoding="UTF-8" standalone="no"?><!DOCTYPE svg PUBLIC "-//W3C//DTD SVG 1.1//EN" "http://www.w3.org/Graphics/SVG/1.1/DTD/svg11.dtd"><svg width="100%" height="100%" viewBox="0 0 120 72" version="1.1" xmlns="http://www.w3.org/2000/svg" xmlns:xlink="http://www.w3.org/1999/xlink" xml:space="preserve" xmlns:serif="http://www.serif.com/" style="fill-rule:evenodd;clip-rule:evenodd;stroke-linejoin:round;stroke-miterlimit:2;"><g><path d="M104.564,15.33c3.953,0.381 4.127,-0.196 7.166,2.184c-0.117,3.985 -0.156,7.345 -0.163,7.984c0.087,3.533 0.009,3.422 0.552,6.947l-0.273,1.05l0.065,4.986c-0.427,3.683 -1.116,3.871 0.949,7.014c-0.059,0.102 -1.52,-0.226 -1.184,11.999c-2.413,2.836 -2.51,2.825 -6.242,3.167c0.032,-1.059 0.065,-2.118 0.097,-3.177c1.588,-0.781 1.83,0.315 3.282,-0.812c2.731,-2.119 -3.077,-1.265 -3.36,-1.223c-0.722,0.061 -1.443,0.123 -2.165,0.184c-5.914,-0.622 -5.846,-0.35 -12.737,-0.35c-4.887,-0.064 -4.866,0.361 -61.088,-0.022c-6.443,0.101 -7.337,-3.34 -12.067,1.199c-0.608,0.345 -1.215,0.689 -1.823,1.034c-0.127,-2.611 -0.973,-2.093 -3.188,-2.397c-1.094,0.145 -2.188,0.291 -3.283,0.436l-0.694,-1.047c-0.047,-0.99 -0.095,-1.981 -0.142,-2.971c0.333,-2.082 0.327,-1.992 -0.05,-4.065c1.569,-2.768 1.33,-2.91 0.14,-5.936c0.014,-7.078 0.002,-6.935 0.138,-14.013l-0.129,-2.987c-0.016,-1.998 -0.032,-3.996 -0.048,-5.994l0.801,-0.998c1.67,3.55 2.472,6.63 4.141,3.064c20.637,-0.764 20.557,-0.82 41.253,-0.224c6.495,0.187 13.018,-0.293 14.147,-0.377c0.996,0.005 0.905,-0.137 1.848,-0.132c0.243,0.001 0.225,0.005 3.039,0.067c0.319,0.015 0.205,-0.052 3.992,0.02c0.801,0.017 0.686,-0.012 10.019,0.026c0.967,-0.027 1.934,-0.054 2.902,-0.082c2.025,0.195 20.406,2.16 16.795,-1.151c-1.014,-0.93 -6.656,1.087 -2.688,-3.403Z" style="fill:#755536;fill-opacity:1;"/><path d="M103.535,32.101c4.7,0.368 7.384,-1.168 6.392,3.399c-0.304,1.401 0.573,3.343 -1.35,7.928c-1.598,0.049 -1.482,0.02 -3.077,0.094c-0.901,0.042 -0.529,0.459 -1.181,1.024c-1.919,-0.121 -1.987,-0.273 -2.073,-0.13c-0.383,0.638 0.365,0.66 0.007,1.256c-4.231,-4.472 -5.308,-1.36 -27.732,-2.052l-2.039,0.032c-6.017,0.026 -5.866,0.018 -11.962,0.085c-16.621,-0.065 -16.497,0.525 -32.985,-0.305c-3.652,-0.149 -13.372,-1.508 -13.118,1.126c0.062,0.644 0.452,-0.064 8.081,-0.079c3.607,2.247 6.597,0.784 6.877,0.957c3.873,2.405 6.104,-2.161 8.065,2.073c-0.33,0.586 -0.659,1.171 -0.989,1.757c0.525,0.333 0.522,1.211 1.048,1.545c1.12,0.71 0.69,-1.159 2.047,-1.097c1.224,0.056 1.11,0.215 2.317,0.449c0.394,0.146 8.917,3.311 4.718,-2.312c0.922,-0.451 7.417,-3.628 12.834,-0.244c3.28,2.049 5.036,2.185 5.031,-1.672c1.566,0.233 1.485,0.083 2.969,0.865c-0.819,2.228 -0.728,2.237 -0.839,2.408c-0.9,1.382 -0.458,1.548 1.083,2.174c1.952,0.013 2.025,-0.077 2.969,-1.758c0.827,1.718 0.769,1.748 0.893,1.855c0.161,0.139 4.834,0.308 5.012,0.055c0.262,-0.371 -0.186,-0.99 0.076,-1.362c0.134,0.117 1.68,1.457 1.68,1.457c0.549,0.035 0.595,-1.222 1.144,-1.188l1.438,-0.412c0.244,-0.122 0.358,0.675 0.602,0.553c0,0 1.898,-1.607 2.063,-1.747c0.704,-0.042 1.407,-0.084 2.111,-0.126c0.386,0.115 1.269,0.377 4.986,0.664l0.66,0.402c2.202,4.037 3.257,1.73 5.079,1.313c2.935,-0.673 1.134,-1.768 1.111,-2.495c1.819,0.126 1.553,0.557 3.016,1.604c0.358,0.256 0.669,0.479 5.113,-2.023c2.897,0.205 4.224,-0.565 4,2.343c-0.17,2.208 0.091,2.212 -0.013,2.37c-0.205,0.311 -5.712,0.294 -6.209,0.292c-17.325,-0.055 -90.632,1.27 -90.715,-0.813c-0.399,-9.912 -0.646,-9.846 -0.483,-10.686c0.624,-3.206 -0.758,-3.252 0.235,-6.261l0.689,-0.365c2.155,0.099 4.97,0.36 5.401,0.4c1.336,0.088 1.218,0.185 2.657,-0.05c0.228,0.254 -0.257,0.77 -0.028,1.024c3.488,3.875 7.814,1.507 8.41,1.18c1.004,-0.12 2.007,-0.241 3.011,-0.361c1.899,3.777 3.3,1.042 13.775,2.305c2.065,-2.914 2.74,-1.305 6.202,-1.149c0.569,0.026 3.511,3.472 2.911,0.035c-0.098,-0.561 0.172,-0.358 2.035,-0.77c7.183,-1.59 25.821,-2.377 28.074,-2.472c0.002,0.796 0.003,1.592 0.005,2.388c-0.688,-0.011 -1.375,-0.022 -2.063,-0.033c-1.529,0.122 -17.042,1.363 -19.005,2.497c-0.511,0.295 -0.488,1.167 -0.999,1.462c14.052,0.278 26.734,0.571 35.978,-0.684c3.176,1.015 4.515,2.941 5.031,-0.331c0.29,-0.024 5.191,-0.434 2.988,-2.084c-0.537,-0.402 -1.419,-0.072 -1.956,-0.474c1.703,-1.275 2.311,-2.318 0.14,-2.74c-2.371,-0.461 -2.954,-0.708 -2.147,-3.096Z" style="fill:#a47344;fill-opacity:1;"/><path d="M15.514,7.862l1.005,0.066c0.993,-0.014 1.986,-0.029 2.979,-0.043c2.768,0.017 2.75,0.021 2.989,0.019c0.487,-0.005 0.384,-0.125 0.965,-0.131l2.075,-0.064c0.98,0.012 1.961,0.024 2.941,0.035l2.044,-0.017c1.325,0.003 2.649,0.007 3.974,0.01c7.529,0.173 7.398,0.171 15.049,0.183c1.324,0.037 2.648,0.075 3.972,0.112c1.675,-0.117 3.349,-0.235 5.024,-0.352c1.508,0.101 1.371,0.105 2.945,-0.046c5.103,0.193 4.971,0.275 10,0.053c0.965,0.017 7.022,0.124 12.068,0.071c0.965,0.053 1.929,0.105 2.894,0.158c2.037,-0.034 4.075,-0.068 6.112,-0.102c3.492,0.619 3.414,0.45 6.946,-0.011c1.558,0.281 1.481,0.254 3.023,-0.048c0.629,0.078 3.331,0.411 7.92,0.193l1.14,0.372c-0.23,4.623 -0.557,4.505 0.15,9.193c-3.038,-2.38 -3.213,-1.804 -7.166,-2.184c-3.969,4.489 1.674,2.473 2.688,3.403c3.611,3.312 -14.77,1.347 -16.795,1.151c-0.536,-0.456 -0.421,-1.425 -0.957,-1.88c-0.908,-0.772 -6.36,-1.585 -1.945,1.962c-9.333,-0.038 -9.218,-0.009 -10.019,-0.026l-0.424,-2c2.632,-0.283 3.476,-0.076 3.301,-2.839l-0.722,-0.785c-0.417,-1.569 -0.491,-1.672 -2.156,-1.951c-0.24,0.109 0.378,1.586 -4.976,1.451c-2.142,-0.054 -1.983,-0.213 -4.022,-0.318c-3.597,-4.206 -31.915,-0.667 -46.105,-1.365c-0.486,-0.121 -0.32,-0.3 -0.821,-0.425c-3.023,-0.751 -4.167,1.814 -4.194,1.826c-1.85,0.6 -1.832,0.618 -1.998,0.648c-0.568,0.104 -0.266,-0.576 -0.895,-0.46c2.271,-2.287 1.23,-2.643 0.99,-5.86Z" style="fill:#9d6e42;fill-opacity:0.98;"/><clipPath id="_clip1"><path d="M15.514,7.862l1.005,0.066c0.993,-0.014 1.986,-0.029 2.979,-0.043c2.768,0.017 2.75,0.021 2.989,0.019c0.487,-0.005 0.384,-0.125 0.965,-0.131l2.075,-0.064c0.98,0.012 1.961,0.024 2.941,0.035l2.044,-0.017c1.325,0.003 2.649,0.007 3.974,0.01c7.529,0.173 7.398,0.171 15.049,0.183c1.324,0.037 2.648,0.075 3.972,0.112c1.675,-0.117 3.349,-0.235 5.024,-0.352c1.508,0.101 1.371,0.105 2.945,-0.046c5.103,0.193 4.971,0.275 10,0.053c0.965,0.017 7.022,0.124 12.068,0.071c0.965,0.053 1.929,0.105 2.894,0.158c2.037,-0.034 4.075,-0.068 6.112,-0.102c3.492,0.619 3.414,0.45 6.946,-0.011c1.558,0.281 1.481,0.254 3.023,-0.048c0.629,0.078 3.331,0.411 7.92,0.193l1.14,0.372c-0.23,4.623 -0.557,4.505 0.15,9.193c-3.038,-2.38 -3.213,-1.804 -7.166,-2.184c-3.969,4.489 1.674,2.473 2.688,3.403c3.611,3.312 -14.77,1.347 -16.795,1.151c-0.536,-0.456 -0.421,-1.425 -0.957,-1.88c-0.908,-0.772 -6.36,-1.585 -1.945,1.962c-9.333,-0.038 -9.218,-0.009 -10.019,-0.026l-0.424,-2c2.632,-0.283 3.476,-0.076 3.301,-2.839l-0.722,-0.785c-0.417,-1.569 -0.491,-1.672 -2.156,-1.951c-0.24,0.109 0.378,1.586 -4.976,1.451c-2.142,-0.054 -1.983,-0.213 -4.022,-0.318c-3.597,-4.206 -31.915,-0.667 -46.105,-1.365c-0.486,-0.121 -0.32,-0.3 -0.821,-0.425c-3.023,-0.751 -4.167,1.814 -4.194,1.826c-1.85,0.6 -1.832,0.618 -1.998,0.648c-0.568,0.104 -0.266,-0.576 -0.895,-0.46c2.271,-2.287 1.23,-2.643 0.99,-5.86Z"/></clipPath><g clip-path="url(#_clip1)"><path d="M108.625,13.812c-1.211,-1.994 -1.279,-1.954 -1.308,-2.153c-0.174,-1.203 -0.547,-3.842 -0.107,-3.638c0.318,0.147 4.865,-1.005 4.865,-1.005c0,0 -0.058,4.913 -0.774,6.13c-0.451,0.766 -1.743,0.141 -1.789,0.384c-0.058,0.304 -0.828,-0.023 -0.886,0.282Z" style="fill:#6a5546;fill-opacity:1;"/></g><path d="M29.463,55.261c1.404,3.835 2.203,3.786 6.087,2.674c3.563,-1.02 7.26,2.395 12.028,-0.309c2.882,-1.634 8.194,-0.835 8.901,-0.729c0.236,0.035 1.026,2.142 2.9,1.345c4.783,-2.034 4.923,1.297 10.122,0.282c0.192,-0.037 0.174,-0.049 2.347,-0.667c0.662,1.03 0.837,0.389 1.93,0.044c1.098,-0.106 9.235,-0.892 13.79,0.33c3.988,1.07 2.517,-1.416 2.983,-2.948c6.891,-0.001 6.823,-0.272 12.737,0.35l0.146,4.815l-0.721,0.321c-6.93,-5.55 -10.64,-0.717 -11.184,-0.007l-1.05,0.408l-0.984,0.029c-3.236,-0.269 -3.194,-0.773 -6.995,-0.003l-1.992,0.021c-5.111,-0.381 -5.036,-0.782 -10.031,-0.12c-1.675,-0.032 -17.548,-0.336 -20.942,0.112c-4.68,-1.099 -4.623,-0.198 -7.047,0.07l-1.986,0.009c-2.006,-0.225 -4.013,-0.449 -6.019,-0.674c-5.143,0.074 -16.424,-0.071 -17.049,-0.041c0.15,-2.069 -0.172,-1.949 -0.039,-4.114c4.73,-4.539 5.625,-1.098 12.067,-1.199Z" style="fill:#9d6c41;fill-opacity:1;"/><path d="M111.676,57.494c-0.062,1.665 -0.124,3.33 -0.186,4.995c-4.04,1.25 -4.093,0.695 -64.98,1.185c-2.534,-0.945 -2.495,-0.639 -5.016,-0.033c-20.648,-0.599 -21.096,-1.692 -22.011,-0.188c-0.251,0.413 -10.968,0.04 -10.968,0.04c-0.046,-0.993 -0.092,-1.987 -0.137,-2.98l0.829,1.076c0.39,0.385 0.599,2.297 7.376,1.643c1.791,-0.173 1.053,-0.857 0.852,-2.658c0.626,-0.03 11.906,0.115 17.049,0.041c0.856,0.296 0.206,0.891 1.009,1.168c0.381,0.131 0.368,-0.036 5.01,-0.495l1.986,-0.009c5.012,0.194 6.488,0.003 7.047,-0.07c3.394,-0.448 19.267,-0.144 20.942,-0.112c3.344,0.04 6.687,0.08 10.031,0.12l1.992,-0.021c2.332,0.001 4.663,0.002 6.995,0.003l0.984,-0.029c5.042,0.283 4.93,0.63 9.996,0.06c0.746,-0.154 1.493,-0.307 2.239,-0.461l0.721,-0.321l1.999,0.214c3.733,-0.342 3.83,-0.332 6.242,-3.167Z" style="fill:#65503e;fill-opacity:0.99;"/><path d="M46.478,32.22c3.762,0.037 36.2,0.359 47.024,0.244c-3.485,2.504 -3.813,1.567 -7.939,2.732c-2.253,0.095 -20.891,0.882 -28.074,2.472c-1.863,0.412 -2.133,0.209 -2.035,0.77c0.6,3.438 -2.342,-0.009 -2.911,-0.035c-3.462,-0.156 -4.137,-1.765 -6.202,1.149c-1.083,-1.388 -0.827,-3.182 -13.775,-2.305c-1.004,0.12 -2.007,0.241 -3.011,0.361c1.354,-2.409 1.041,-3.766 3.575,-2.801c1.14,0.434 1.007,0.347 2.123,0.322c10.849,-0.408 10.84,0.775 11.734,0.486c0.44,-0.143 -0.549,-1.241 -0.109,-1.384c-0.134,-0.671 -0.268,-1.342 -0.402,-2.012Z" style="fill:#b37f4c;fill-opacity:1;"/><path d="M76.45,22.268l2.122,-0.155c0.795,2.275 0.705,2.746 3.062,2.624c0.642,-0.033 0.608,0.024 5.218,0.722l-0.135,1.042c-0.092,0.16 -1.148,1.999 -1.148,1.999c0.914,1.386 0.707,-0.433 2.085,-1.278l0.864,0.008c2.63,0.703 2.376,1.206 4.965,1.327c1.44,0.067 1.017,0.589 1.022,1.985c-12.911,-0.098 -14.328,-1.133 -19.058,-0.529c-2.461,-0.267 -2.429,0.553 -30.937,0.24c-4.184,-5.861 -6.451,-1.888 -7.036,-1.733c-0.62,0.164 -1.284,-0.44 -1.903,-0.276c-0.671,-0.34 -1.343,-0.681 -2.014,-1.021c-1.686,-0.14 -3.372,-0.28 -5.058,-0.42c0.384,-0.377 0.768,-0.753 1.151,-1.13c0.972,-0.168 1.944,-0.336 2.915,-0.505c3.195,-0.003 3.122,0.446 6.255,-0.369l1.645,0.772c4.502,0.242 4.346,0.773 5.293,1.685c1.095,1.056 1.047,0.124 2.122,-0.865c1.951,0.978 1.901,0.19 3.794,-0.938c0.52,1.286 -0.545,2.396 0.823,2.038c0,0 1.764,-1.912 1.917,-2.079c0.735,-0.068 1.469,-0.135 2.204,-0.203l1,0.154c0.049,0.105 0.607,1.313 0.607,1.313c0.066,0.231 0.295,1.035 2.47,1.716c5.035,1.174 6.973,0.478 8.347,-1.514c1.688,-4.471 5.441,-0.304 7.405,-4.614Z" style="fill:#b47f4b;fill-opacity:1;"/><path d="M93.502,32.464c3.344,-0.121 6.689,-0.242 10.033,-0.363c-0.807,2.388 -0.225,2.635 2.147,3.096c2.171,0.422 1.563,1.465 -0.14,2.74c-0.988,-0.085 -1.976,-0.169 -2.965,-0.254c-0.137,0.12 -0.165,0.021 -2.146,0.765c-0.317,0.793 -0.634,1.585 -0.951,2.378c-9.245,1.255 -21.926,0.962 -35.978,0.684c0.511,-0.295 0.488,-1.167 0.999,-1.462c1.964,-1.134 17.477,-2.375 19.005,-2.497c0.688,0.011 1.375,0.022 2.063,0.033c-0.002,-0.796 -0.003,-1.592 -0.005,-2.388c4.126,-1.165 4.454,-0.228 7.939,-2.732Z" style="fill:#b3804d;fill-opacity:1;"/><path d="M55.61,14.386c10.087,-0.017 10.048,-0.246 10.89,-0.022c0.67,0.178 0.8,1.294 1.471,1.472l-0.389,0.774c-0.83,0.836 -0.815,0.739 -0.942,1.872c0.672,0.501 1.345,1.002 2.017,1.503c-1.129,0.083 -7.652,0.564 -14.147,0.377c-20.695,-0.596 -20.616,-0.54 -41.253,0.224c0.31,-3.835 -0.483,-4.856 1.376,-4.726c0,0 2.45,-0.633 2.663,-0.688c1.333,0.014 2.665,0.028 3.998,0.042c0.83,1.453 0.758,1.467 2.192,2.148l1.025,0.171c4.493,-0.005 4.392,-0.181 8.768,0.199c2.691,0.491 2.599,0.333 5.411,0.057c0.785,-0.183 9.807,-2.291 9.807,-2.291c3.703,-0.585 6.18,4.181 7.111,-1.111Z" style="fill:#b27e4c;fill-opacity:1;"/><path d="M22.432,12.133c14.191,0.698 42.508,-2.841 46.105,1.365l-0.058,1c-0.169,0.446 -0.339,0.892 -0.508,1.338c-0.67,-0.178 -0.8,-1.294 -1.471,-1.472c-0.842,-0.224 -0.804,0.005 -10.89,0.022c-0.931,5.292 -3.409,0.526 -7.111,1.111c-0,0 -9.022,2.108 -9.807,2.291c-1.529,-2.009 -1.616,-1.856 -4.158,-2.187c-6.52,-0.563 -7.564,-0.152 -9.512,-0.64c-0.863,-0.943 -1.726,-1.885 -2.59,-2.828Z" style="fill:#b4804d;fill-opacity:1;"/><path d="M29.463,55.261c56.222,0.383 56.202,-0.042 61.088,0.022c-0.466,1.533 1.005,4.018 -2.983,2.948c-4.555,-1.222 -12.692,-0.436 -13.79,-0.33c-0.643,-0.015 -1.287,-0.029 -1.93,-0.044c-2.173,0.617 -2.156,0.629 -2.347,0.667c-5.199,1.015 -5.339,-2.317 -10.122,-0.282c-1.874,0.797 -2.664,-1.31 -2.9,-1.345c-0.707,-0.106 -6.019,-0.905 -8.901,0.729c-4.768,2.704 -8.465,-0.711 -12.028,0.309c-3.883,1.112 -4.683,1.161 -6.087,-2.674Z" style="fill:#ad7a49;fill-opacity:1;"/><path d="M60.521,43.737c6.096,-0.068 5.945,-0.059 11.962,-0.085c1.052,0.45 0.99,0.232 2.039,-0.032c22.424,0.693 23.501,-2.419 27.732,2.052c0.184,0.117 2.267,2.153 3.359,2.503c-4.444,2.502 -4.756,2.279 -5.113,2.023c-1.463,-1.047 -1.197,-1.478 -3.016,-1.604c-3.258,0.157 -3.268,-0.123 -6.19,1.182l-0.66,-0.402c-0.077,-0.674 -0.155,-1.348 -0.232,-2.022c-1.307,0.376 -2.614,0.752 -3.922,1.128c-2.349,-3.187 -3.007,-1.88 -6.925,-1.755c-0.615,-0.197 -1.229,-0.393 -1.844,-0.59c-0.834,-0.093 -1.667,-0.185 -2.501,-0.278c-1.322,-0.281 -1.178,-0.287 -2.616,-0.281l-1.417,0.538c-0.437,-0.164 -0.287,-0.282 -0.71,-0.441c-2.73,-1.027 -2.662,0.982 -3.052,1.127c-1.484,-0.782 -1.403,-0.633 -2.969,-0.865c-2.456,-0.311 -2.29,-0.494 -3.927,-2.199Z" style="fill:#a97746;fill-opacity:1;"/><path d="M78.572,22.113c15.003,-0.125 14.868,0.693 29.913,0.459l0.887,1.014c0.482,2.978 -1.342,1.63 -4.286,2.561c-6.049,0.001 -10.087,-1.307 -7.599,4.299l-2.982,0.096c-0.005,-1.396 0.418,-1.918 -1.022,-1.985c-2.589,-0.121 -2.335,-0.624 -4.965,-1.327c1.304,-1.371 2.713,-1.703 0.953,-2.641c-0.195,-0.104 -0.561,-0.299 -2.619,0.869c-4.61,-0.698 -4.576,-0.755 -5.218,-0.722c-2.357,0.122 -2.267,-0.349 -3.062,-2.624Z" style="fill:#a97645;fill-opacity:1;"/><path d="M27.536,43.432c16.488,0.83 16.364,0.24 32.985,0.305c1.636,1.705 1.471,1.888 3.927,2.199c0.005,3.856 -1.751,3.721 -5.031,1.672c-5.417,-3.384 -11.912,-0.207 -12.834,0.244l-4.014,0.891c-1.413,-2.882 -2.134,-2.223 -5.127,-1.233c-1.961,-4.235 -4.192,0.332 -8.065,-2.073c-0.28,-0.174 -3.27,1.29 -6.877,-0.957c1.679,-0.349 3.358,-0.698 5.037,-1.047Z" style="fill:#b37f4c;fill-opacity:1;"/><path d="M14.372,24.232l1.244,0.584c0.923,0.169 1.847,0.338 2.77,0.507c0.954,3.013 1.43,3.417 4.316,2.414c1.933,1.041 2.457,1.94 3.545,-0.093c0.812,-1.093 0.854,-1.051 2.252,-0.839c1.686,0.14 3.372,0.28 5.058,0.42c0.671,0.34 1.343,0.681 2.014,1.021c0.62,-0.164 1.284,0.44 1.903,0.276c0.584,-0.155 2.851,-4.128 7.036,1.733c-2.398,0.012 -2.305,-0.172 -29.972,-0.056c-1.025,0.004 -2.058,-0.055 -3.073,0.085c-0.899,0.124 -0.603,-0.352 -1.338,-0.782c1.507,-0.638 1.459,-0.604 2.307,-2.024c0.248,-2.051 0.336,-2.051 1.937,-3.244Z" style="fill:#a77546;fill-opacity:1;"/><path d="M20.472,32.222c6.525,0 6.367,0.097 12.975,-0.004c2.044,1.133 1.843,2.64 1.807,2.912c-1.116,0.025 -0.983,0.112 -2.123,-0.322c-2.534,-0.965 -2.222,0.392 -3.575,2.801c-0.596,0.326 -4.922,2.695 -8.41,-1.18c-0.228,-0.254 0.257,-0.77 0.028,-1.024c-0.208,-0.639 -0.417,-1.278 -0.625,-1.916l-0.078,-1.267Z" style="fill:#af7b49;fill-opacity:1;"/><path d="M20.47,48.508c-4.566,1 -4.619,1.197 -4.946,0.96c-7.553,-5.484 17.148,-0.152 20.928,-0.202c-1.81,2.469 -1.696,2.6 -1.952,2.663c-1.721,0.425 -10.27,-1.73 -14.03,-3.421Z" style="fill:#ad7a48;fill-opacity:1;"/><path d="M67.649,22.109c4.433,-0.345 4.348,0.079 8.801,0.159c-1.964,4.31 -5.717,0.143 -7.405,4.614c-5.031,-0.07 -5.837,-1.921 -8.347,1.514c-2.176,-0.681 -2.405,-1.485 -2.47,-1.716c0,0 -0.559,-1.208 -0.607,-1.313c0.296,0.016 0.582,0.12 0.878,0.136c2.216,0.122 1.816,-1.243 4.07,-1.214c3.147,0.04 3.501,0.429 5.081,-2.18Z" style="fill:#ae7a48;fill-opacity:1;"/><path d="M105.086,26.147c2.137,2.036 4.478,-0.674 4.595,2.327c0.103,2.652 -1.559,1.067 -12.194,1.973c-2.488,-5.606 1.55,-4.299 7.599,-4.299Z" style="fill:#9f6e40;fill-opacity:1;"/><path d="M11.533,7.872c1.327,-0.003 2.654,-0.006 3.981,-0.009c0.24,3.217 1.281,3.573 -0.99,5.86c-1.148,0.178 -5.042,0.712 -5.481,0.772l-0.817,-0.989l-0.163,-0.963l0.04,-2.206c0.175,-0.562 0.35,-1.124 0.525,-1.686c0.968,-0.26 1.937,-0.519 2.905,-0.779Z" style="fill:#6d5442;fill-opacity:0.99;"/><path d="M40.464,22.099c4.023,0.059 8.047,0.119 12.07,0.178c-0.432,1.233 -0.124,1.244 -0.822,2.346c-0.261,0.412 0.224,0.421 -0.037,0.834c-1.893,1.128 -1.843,1.915 -3.794,0.938c-0.548,-1.171 -0.221,-1.47 -1.427,-1.768c-5.674,-1.404 -5.577,0.818 -5.987,0.947l-1.645,-0.772c0.11,-0.228 0.287,-0.021 1.642,-2.703Z" style="fill:#b5804c;fill-opacity:1;"/><path d="M14.524,13.722c0.629,-0.116 0.327,0.564 0.895,0.46c0.165,-0.03 0.148,-0.048 1.998,-0.648c-0.04,0.546 -0.08,1.091 -0.12,1.637c-0.213,0.055 -2.663,0.688 -2.663,0.688c-1.859,-0.13 -1.067,0.891 -1.376,4.726c-1.669,3.566 -2.471,0.486 -4.141,-3.064c0.114,-1.538 0.114,-1.465 -0.074,-3.026c0.439,-0.06 4.334,-0.594 5.481,-0.772Z" style="fill:#553a27;fill-opacity:1;"/><path d="M33.447,32.218c4.344,0 8.687,0.001 13.031,0.001c0.134,0.671 0.268,1.342 0.402,2.012c-0.44,0.143 0.549,1.241 0.109,1.384c-0.894,0.29 -0.885,-0.893 -11.734,-0.486c0.036,-0.272 0.236,-1.779 -1.807,-2.912Z" style="fill:#b17c4a;fill-opacity:1;"/><path d="M77.535,12.365c1.664,0.279 1.739,0.381 2.156,1.951c0.241,0.262 0.481,0.523 0.722,0.785c0.174,2.762 -0.669,2.555 -3.301,2.839c0.627,-2.567 0.872,-2.651 0.674,-2.763c-0.664,-0.375 -1.614,0.581 -2.279,0.206c-3.658,0.289 -3.652,0.37 -7.028,-0.885l0.058,-1c2.039,0.104 1.88,0.264 4.022,0.318c5.354,0.135 4.736,-1.342 4.976,-1.451Z" style="fill:#ab7746;fill-opacity:1;"/><path d="M9.102,55.533c1.094,-0.145 2.188,-0.291 3.283,-0.436c0.165,0.693 0.624,3.926 1.115,3.801c0.809,-0.206 1.264,-1.199 2.073,-1.404c0.314,0.983 0.628,1.967 0.942,2.95c-3.739,0.35 -3.816,-0.578 -7.309,1.145l-0.829,-1.076l-0.187,-0.909c0.33,-0.689 0.66,-1.378 0.99,-2.068l-0.077,-2.003Z" style="fill:#715543;fill-opacity:1;"/><path d="M21.538,21.967c0.255,0.269 2.873,3.027 3.239,3.307c0.282,0.693 0.564,1.387 0.847,2.08c-0.974,0.127 -1.948,0.254 -2.922,0.382c-0.596,-1.077 0.068,-2.535 -4.316,-2.414c-0.923,-0.169 -1.847,-0.338 -2.77,-0.507c2.822,-1.924 2.532,-2.483 5.922,-2.848Z" style="fill:#9f6e41;fill-opacity:1;"/><path d="M68.479,14.498c3.376,1.255 3.37,1.174 7.028,0.885c0.503,1.494 0.258,1.617 1.604,2.557l0.424,2c-3.787,-0.072 -3.673,-0.005 -3.992,-0.02c-1.993,-3.042 -2.292,-2.872 -5.963,-3.31l0.389,-0.774c0.169,-0.446 0.339,-0.892 0.508,-1.338Z" style="fill:#b7834e;fill-opacity:1;"/><path d="M21.538,21.967c9.276,0.006 9.165,0.048 9.962,0.027c0.014,0.23 0.16,0.135 0.74,2.779l0.326,0.397c-0.972,0.168 -1.944,0.336 -2.915,0.505c-1.675,-1.886 -2.02,-1.688 -4.874,-0.4c-0.367,-0.281 -2.984,-3.039 -3.239,-3.307Z" style="fill:#b07d4a;fill-opacity:1;"/><path d="M32.567,37.248c12.948,-0.877 12.691,0.917 13.775,2.305c-10.475,-1.263 -11.876,1.472 -13.775,-2.305Z" style="fill:#b07b49;fill-opacity:1;"/><path d="M75.212,45.858c0.834,0.093 1.667,0.185 2.501,0.278c0.494,0.297 0.988,0.594 1.481,0.891c2.166,1.098 2.016,1.072 4.344,1.81c-0.165,0.14 -2.063,1.747 -2.063,1.747c-0.244,0.122 -0.358,-0.675 -0.602,-0.553c-0.479,0.137 -0.959,0.274 -1.438,0.412c-0.549,-0.035 -0.595,1.222 -1.144,1.188c0,0 -1.545,-1.34 -1.68,-1.457c-2.274,-1.209 -1.213,-1.792 -1.4,-4.315Z" style="fill:#ab7847;fill-opacity:1;"/><path d="M91.528,60.763c0.545,-0.71 4.255,-5.543 11.184,0.007c-0.746,0.154 -1.493,0.307 -2.239,0.461c-5.489,-0.351 -5.41,-0.424 -8.945,-0.468Z" style="fill:#94663d;fill-opacity:1;"/><path d="M22.432,12.133c0.863,0.943 1.726,1.885 2.59,2.828c-0.758,1.21 -0.468,1.21 -0.509,2.571l-1.025,-0.171c-0.166,-0.264 0.642,-0.541 0.476,-0.805c0,0 -2.454,-1.235 -2.668,-1.343c-1.333,-0.014 -2.665,-0.028 -3.998,-0.042c0.04,-0.546 0.08,-1.091 0.12,-1.637c0.027,-0.012 1.17,-2.577 4.194,-1.826c0.501,0.125 0.335,0.304 0.821,0.425Z" style="fill:#95663c;fill-opacity:1;"/><path d="M12.317,32.254l8.155,-0.032l0.078,1.267c-1.375,0.678 -1.293,0.667 -2.032,1.966c-0.431,-0.04 -3.247,-0.302 -5.401,-0.4c-0.351,-1.498 -0.224,-1.432 -0.799,-2.801Z" style="fill:#9b6b3f;fill-opacity:1;"/><path d="M72.595,45.577c1.438,-0.007 1.294,0 2.616,0.281c0.187,2.522 -0.874,3.106 1.4,4.315c-0.262,0.371 0.186,0.99 -0.076,1.362c-0.178,0.253 -4.852,0.084 -5.012,-0.055c-0.125,-0.108 -0.066,-0.137 -0.893,-1.855c0.703,-0.311 1.406,-0.622 2.109,-0.933c0.182,-0.693 0.411,-0.661 0.019,-1.238c-0.054,-0.625 -0.109,-1.251 -0.163,-1.876Z" style="fill:#a16f41;fill-opacity:1;"/><path d="M25.021,14.961c1.948,0.488 2.992,0.076 9.512,0.64c-0.427,0.384 -0.342,0.402 -1.253,2.13c-4.376,-0.38 -4.276,-0.204 -8.768,-0.199c0.041,-1.36 -0.249,-1.36 0.509,-2.571Z" style="fill:#a16f42;fill-opacity:1;"/><path d="M16.515,60.444l0.92,0.13c0.201,1.801 0.939,2.486 -0.852,2.658c-6.778,0.654 -6.986,-1.258 -7.376,-1.643c3.493,-1.723 3.569,-0.795 7.309,-1.145Z" style="fill:#3a2c25;fill-opacity:1;"/><path d="M58.522,22.301c3.042,-0.064 6.084,-0.128 9.127,-0.193c-1.581,2.61 -1.934,2.22 -5.081,2.18c-2.254,-0.029 -1.854,1.336 -4.07,1.214c-0.296,-0.016 -0.582,-0.12 -0.878,-0.136c0.301,-1.022 0.602,-2.044 0.903,-3.066Z" style="fill:#b5804c;fill-opacity:1;"/><path d="M52.534,22.277l5.988,0.025c-0.301,1.022 -0.602,2.044 -0.903,3.066l-1,-0.154c-1.139,-0.352 -1.151,-0.461 -2.204,0.203c-0.153,0.166 -1.917,2.079 -1.917,2.079c-1.369,0.357 -0.304,-0.752 -0.823,-2.038c0.261,-0.412 -0.224,-0.421 0.037,-0.834c0.698,-1.102 0.39,-1.113 0.822,-2.346Z" style="fill:#ac7847;"/><path d="M72.595,45.577c0.054,0.625 0.109,1.251 0.163,1.876l-0.019,1.238c-0.703,0.311 -1.406,0.622 -2.109,0.933c-1.963,0.331 -2.164,0.068 -2.969,1.758c-1.541,-0.625 -1.982,-0.792 -1.083,-2.174c0.111,-0.171 0.02,-0.181 0.839,-2.408c1.254,-0.229 2.508,-0.457 3.762,-0.686l1.417,-0.538Z" style="fill:#b17d4a;fill-opacity:1;"/><path d="M27.536,43.432c-1.679,0.349 -3.358,0.698 -5.037,1.047c-7.629,0.015 -8.019,0.723 -8.081,0.079c-0.254,-2.633 9.467,-1.274 13.118,-1.126Z" style="fill:#9b7045;fill-opacity:1;"/><path d="M57.818,49.083c-0.704,0.345 -0.667,1.566 -1.37,1.911c-0.577,0.283 -1.261,-0.29 -1.904,-0.306c-3.298,-0.084 -5.875,1.348 -4.37,-1.605c0.842,-1.652 1.364,-0.702 7.644,0Z" style="fill:#b7824e;fill-opacity:1;"/><path d="M67.582,16.61c3.67,0.438 3.97,0.268 5.963,3.31c-2.814,-0.062 -2.796,-0.066 -3.039,-0.067c-0.943,-0.005 -0.851,0.137 -1.848,0.132c-0.672,-0.501 -1.345,-1.002 -2.017,-1.503c0.127,-1.133 0.111,-1.036 0.942,-1.872Z" style="fill:#ad7a48;fill-opacity:1;"/><path d="M97.484,48.594c0.023,0.726 1.824,1.822 -1.111,2.495c-1.822,0.418 -2.876,2.724 -5.079,-1.313c2.921,-1.305 2.932,-1.025 6.19,-1.182Z" style="fill:#af7d4b;fill-opacity:1;"/><path d="M37.441,47.509c2.994,-0.99 3.715,-1.649 5.127,1.233l-0.704,1.42c-1.207,-0.234 -1.092,-0.393 -2.317,-0.449c-1.358,-0.063 -0.927,1.807 -2.047,1.097c-0.525,-0.333 -0.522,-1.211 -1.048,-1.545c0.33,-0.586 0.659,-1.171 0.989,-1.757Z" style="fill:#ab7847;fill-opacity:1;"/><path d="M31.5,21.995c3.789,-0.012 3.647,0.02 8.964,0.104c-1.355,2.682 -1.533,2.475 -1.642,2.703c-0.582,-0.138 -0.817,-0.987 -1.399,-1.125c-3.441,-0.818 -4.859,1.028 -5.183,1.097c-0.58,-2.643 -0.726,-2.549 -0.74,-2.779Z" style="fill:#ad7a48;fill-opacity:1;"/><path d="M69.045,26.882c-1.374,1.992 -3.312,2.688 -8.347,1.514c2.51,-3.436 3.316,-1.584 8.347,-1.514Z" style="fill:#a26f41;"/><path d="M40.467,25.573c0.41,-0.13 0.313,-2.351 5.987,-0.947c1.206,0.298 0.879,0.598 1.427,1.768c-1.075,0.989 -1.026,1.921 -2.122,0.865c-0.946,-0.912 -0.79,-1.444 -5.293,-1.685Z" style="fill:#b07b49;fill-opacity:1;"/><path d="M102.577,37.683c0.197,1.074 0.035,1.096 0.863,1.847l1.07,0.964c-0.515,3.272 -1.855,1.346 -5.031,0.331c0.317,-0.793 0.634,-1.585 0.951,-2.378c1.981,-0.744 2.009,-0.645 2.146,-0.765Z" style="fill:#a37244;fill-opacity:1;"/><path d="M46.582,47.851c4.198,5.623 -4.324,2.458 -4.718,2.312l0.704,-1.42l4.014,-0.891Z" style="fill:#9e6c3f;fill-opacity:1;"/><path d="M108.577,43.428c1.162,1.046 1.286,1.48 -0.044,2.13c-2.35,1.15 -2.819,1.266 -4.214,-1.012c0.652,-0.565 0.28,-0.982 1.181,-1.024c1.595,-0.074 1.478,-0.045 3.077,-0.094Z" style="fill:#a07044;fill-opacity:1;"/><path d="M102.577,37.683c0.988,0.085 1.976,0.169 2.965,0.254c0.537,0.402 1.419,0.072 1.956,0.474c2.203,1.65 -2.697,2.06 -2.988,2.084c-0.357,-0.321 -0.714,-0.643 -1.07,-0.964c-0.828,-0.751 -0.666,-0.773 -0.863,-1.847Z" style="fill:#92633b;"/><path d="M79.556,46.726c3.918,-0.125 4.576,-1.433 6.925,1.755l-0.832,0.23c-0.704,0.042 -1.407,0.084 -2.111,0.126c-2.328,-0.738 -2.178,-0.711 -4.344,-1.81l0.362,-0.301Z" style="fill:#9f6d41;fill-opacity:1;"/><path d="M18.386,25.323c4.384,-0.121 3.721,1.337 4.316,2.414c-2.886,1.003 -3.363,0.6 -4.316,-2.414Z" style="fill:#a87546;fill-opacity:1;"/><path d="M102.63,13.6c0.321,0.54 0.642,1.081 0.963,1.621c-4.618,-0.434 -4.572,-0.385 -6.177,-0.642c1.024,-1.109 0.922,-1.016 2.009,-2.175c1.428,-1.524 1.333,0.353 3.205,1.196Z" style="fill:#825734;fill-opacity:1;"/><path d="M34.533,15.601c2.542,0.331 2.629,0.178 4.158,2.187c-2.812,0.276 -2.721,0.434 -5.411,-0.057c0.911,-1.728 0.826,-1.746 1.253,-2.13Z" style="fill:#a37042;fill-opacity:1;"/><path d="M103.288,55.633c0.722,-0.061 1.443,-0.123 2.165,-0.184c0.026,0.678 0.052,1.357 0.078,2.035c-0.032,1.059 -0.065,2.118 -0.097,3.177l-1.999,-0.214l-0.146,-4.815Z" style="fill:#5b4230;fill-opacity:1;"/><path d="M24.778,25.275c2.854,-1.288 3.199,-1.486 4.874,0.4c-0.384,0.377 -0.768,0.753 -1.151,1.13c-1.398,-0.212 -1.44,-0.254 -2.252,0.839l-0.623,-0.288c-0.282,-0.693 -0.564,-1.387 -0.847,-2.08Z" style="fill:#a97646;fill-opacity:1;"/><path d="M32.241,24.773c0.324,-0.069 1.741,-1.914 5.183,-1.097c0.582,0.138 0.817,0.987 1.399,1.125c-3.133,0.815 -3.06,0.366 -6.255,0.369l-0.326,-0.397Z" style="fill:#a27042;fill-opacity:1;"/><path d="M12.385,55.097c2.214,0.304 3.06,-0.214 3.188,2.397c-0.809,0.206 -1.264,1.199 -2.073,1.404c-0.491,0.125 -0.95,-3.108 -1.115,-3.801Z" style="fill:#755d4b;fill-opacity:1;"/><path d="M91.504,37.249c1.085,0.296 1.125,0.107 1.761,1.126c-1.83,1.042 -1.623,1.545 -3.819,1.212c-2.618,-0.397 -0.334,-1.347 2.057,-2.338Z" style="fill:#a47243;fill-opacity:1;"/><path d="M87.555,19.966c-4.415,-3.547 1.037,-2.735 1.945,-1.962c0.536,0.456 0.421,1.425 0.957,1.88c-0.967,0.027 -1.934,0.054 -2.902,0.082Z" style="fill:#a97646;fill-opacity:1;"/><path d="M12.317,32.254c0.575,1.368 0.448,1.302 0.799,2.801l-0.689,0.365c-4.412,-1.857 -2.192,-3.134 -1.928,-3.286c0.526,-0.303 1.291,0.423 1.817,0.12Z" style="fill:#774f2f;"/><path d="M105.453,55.449c0.283,-0.042 6.091,-0.895 3.36,1.223c-1.453,1.127 -1.694,0.031 -3.282,0.812c-0.026,-0.678 -0.052,-1.357 -0.078,-2.035Z" style="fill:#7d5f49;fill-opacity:1;"/><path d="M99.48,36.645c-0.213,-0.035 -11.667,-2.338 -1.295,-2.369c4.159,-0.013 1.647,2.012 1.295,2.369Z" style="fill:#a06f41;"/><path d="M90.403,47.352c0.077,0.674 0.155,1.348 0.232,2.022c-3.717,-0.287 -4.6,-0.55 -4.986,-0.664l0.832,-0.23c1.307,-0.376 2.614,-0.752 3.922,-1.128Z" style="fill:#aa7747;fill-opacity:1;"/><path d="M86.852,25.459c2.058,-1.168 2.424,-0.973 2.619,-0.869c1.76,0.938 0.352,1.27 -0.953,2.641l-0.864,-0.008l-0.937,-0.721l0.135,-1.042Z" style="fill:#a37142;fill-opacity:1;"/><path d="M67.417,46.801c0.391,-0.144 0.322,-2.153 3.052,-1.127c0.423,0.159 0.273,0.277 0.71,0.441c-1.254,0.229 -2.508,0.457 -3.762,0.686Z" style="fill:#aa7646;fill-opacity:1;"/><path d="M17.395,56.46c-0.133,2.164 0.189,2.045 0.039,4.114l-0.92,-0.13c-0.314,-0.983 -0.628,-1.967 -0.942,-2.95c0.608,-0.345 1.215,-0.689 1.823,-1.034Z" style="fill:#694a32;fill-opacity:1;"/><path d="M47.542,34.457c1.291,-0.028 2.582,-0.056 3.873,-0.084c-1.579,1.457 -2.336,2.975 -3.873,0.084Z" style="fill:#b9834e;fill-opacity:1;"/><path d="M91.528,60.763c3.536,0.044 3.456,0.117 8.945,0.468c-5.066,0.569 -4.954,0.222 -9.996,-0.06l1.05,-0.408Z" style="fill:#855e3b;fill-opacity:1;"/><path d="M75.507,15.383c0.664,0.375 1.614,-0.581 2.279,-0.206c0.198,0.112 -0.048,0.195 -0.674,2.763c-1.347,-0.94 -1.101,-1.062 -1.604,-2.557Z" style="fill:#b37e4b;fill-opacity:1;"/><path d="M20.549,33.489c0.208,0.639 0.417,1.278 0.625,1.916c-1.439,0.234 -1.32,0.138 -2.657,0.05c0.739,-1.299 0.657,-1.288 2.032,-1.966Z" style="fill:#93623a;fill-opacity:1;"/><path d="M22.702,27.737c0.974,-0.127 1.948,-0.254 2.922,-0.382l0.623,0.288c-1.088,2.034 -1.613,1.135 -3.545,0.093Z" style="fill:#9b6b3e;fill-opacity:1;"/><path d="M70.477,61.097c4.995,-0.663 4.92,-0.262 10.031,0.12c-3.344,-0.04 -6.687,-0.08 -10.031,-0.12Z" style="fill:#885f3a;fill-opacity:1;"/><path d="M70.63,49.624c-0.944,1.681 -1.017,1.772 -2.969,1.758c0.806,-1.69 1.007,-1.428 2.969,-1.758Z" style="fill:#ab7847;fill-opacity:1;"/><path d="M34.483,60.615c2.006,0.225 4.013,0.449 6.019,0.674c-4.642,0.458 -4.63,0.626 -5.01,0.495c-0.803,-0.277 -0.153,-0.873 -1.009,-1.168Z" style="fill:#835b38;fill-opacity:1;"/><path d="M21.295,15.213c0.213,0.107 2.668,1.343 2.668,1.343c0.166,0.264 -0.642,0.541 -0.476,0.805c-1.434,-0.681 -1.362,-0.695 -2.192,-2.148Z" style="fill:#a16f42;fill-opacity:1;"/><path d="M75.549,12.36c-1.793,-0.558 -3.933,0.323 -2.375,-0.74c1.314,-0.896 2.137,-0.715 2.326,-0.673c0.11,0.024 0,-0 0.049,1.413Z" style="fill:#ad7745;fill-opacity:1;"/><path d="M42.488,61.279c2.424,-0.268 2.368,-1.169 7.047,-0.07c-0.559,0.073 -2.035,0.264 -7.047,0.07Z" style="fill:#7e5736;fill-opacity:1;"/><path d="M82.5,61.196c3.801,-0.77 3.758,-0.266 6.995,0.003c-2.332,-0.001 -4.663,-0.002 -6.995,-0.003Z" style="fill:#89613d;fill-opacity:1;"/><path d="M12.435,27.476c-0.847,1.42 -0.8,1.386 -2.307,2.024c0.938,-1.326 0.833,-1.374 2.307,-2.024Z" style="fill:#835a36;"/><path d="M86.717,26.501l0.937,0.721c-1.378,0.845 -1.171,2.664 -2.085,1.278c0,0 1.056,-1.839 1.148,-1.999Z" style="fill:#b07c49;fill-opacity:1;"/><path d="M91.504,37.249c4.454,-1.252 3.31,1.285 3.08,1.429c-0.382,0.24 -0.936,-0.542 -1.318,-0.303c-0.636,-1.019 -0.676,-0.83 -1.761,-1.126Z" style="fill:#b27f4c;fill-opacity:1;"/><path d="M76.5,28.035c-0.573,-1.127 -1.48,-1.691 -0.102,-1.758c1.416,-0.07 0.918,0.619 0.102,1.758Z" style="fill:#ae7b49;fill-opacity:1;"/><path d="M8.226,13.506l0.817,0.989c0.188,1.561 0.188,1.488 0.074,3.026l-0.801,0.998c0.316,-2.513 0.383,-2.456 -0.09,-5.013Z" style="fill:#958574;fill-opacity:0.91;"/><path d="M60.304,16.161c-0.767,0.542 -0.045,0.951 -0.861,1.527c-0.061,0.043 -0.412,0.291 -0.891,-0.29c-0.983,-1.191 0.577,-0.407 1.752,-1.237Z" style="fill:#bc8751;fill-opacity:1;"/><path d="M8.377,60.513c0.046,0.993 0.092,1.987 0.137,2.98c-0.407,-1.492 -0.633,-1.408 -0.137,-2.98Z" style="fill:#ab9c8a;fill-opacity:0.67;"/><path d="M83.505,37.551c0.688,0.011 1.375,0.022 2.063,0.033c-0.688,-0.011 -1.375,-0.022 -2.063,-0.033Z" style="fill:#ba8651;fill-opacity:1;"/><path d="M71.847,57.859c0.643,0.015 1.287,0.029 1.93,0.044c-1.094,0.345 -1.269,0.987 -1.93,-0.044Z" style="fill:#a87545;fill-opacity:1;"/><path d="M19.268,50.239c-0.942,0.511 0.187,1.201 -0.768,1.719c-0.088,0.048 -1.768,0.959 -1,-0.76c0.273,-0.612 1.495,-0.347 1.768,-0.959Z" style="fill:#a06f41;fill-opacity:1;"/><path d="M8.408,54.486l0.694,1.047l0.077,2.003c-0.564,-1.58 -0.5,-1.476 -0.772,-3.05Z" style="fill:#887a6a;fill-opacity:0.94;"/><path d="M112.819,52.49c0.183,1.006 0.366,2.013 0.548,3.019c-0.183,-1.006 -0.366,-2.013 -0.548,-3.019Z" style="fill:#b8a993;fill-opacity:0.55;"/><path d="M77.712,46.136c0.615,0.197 1.229,0.393 1.844,0.59l-0.362,0.301c-0.494,-0.297 -0.988,-0.594 -1.481,-0.891Z" style="fill:#ae7b49;fill-opacity:1;"/><path d="M54.416,25.416c1.053,-0.664 1.065,-0.555 2.204,-0.203c-0.735,0.068 -1.469,0.135 -2.204,0.203Z" style="fill:#b27e4a;"/><path d="M72.483,43.651l2.039,-0.032c-1.049,0.264 -0.987,0.482 -2.039,0.032Z" style="fill:#a57848;fill-opacity:1;"/><path d="M43.466,13.761c-1.84,0.647 -1.823,0.736 -1.988,0.699c-1.717,-0.38 0.338,-0.119 1.988,-0.699Z" style="fill:#b07c4a;fill-opacity:1;"/><path d="M72.758,47.453c0.392,0.577 0.163,0.545 -0.019,1.238l0.019,-1.238Z" style="fill:#ab7847;fill-opacity:1;"/></g></svg>